<?xml version="1.0" encoding="utf-8" standalone="no"?>
<!DOCTYPE svg PUBLIC "-//W3C//DTD SVG 1.1//EN"
  "http://www.w3.org/Graphics/SVG/1.1/DTD/svg11.dtd">
<svg xmlns:xlink="http://www.w3.org/1999/xlink" width="810pt" height="288pt" viewBox="0 0 810 288" xmlns="http://www.w3.org/2000/svg" version="1.1">
 <metadata>
  <rdf:RDF xmlns:dc="http://purl.org/dc/elements/1.1/" xmlns:cc="http://creativecommons.org/ns#" xmlns:rdf="http://www.w3.org/1999/02/22-rdf-syntax-ns#">
   <cc:Work>
    <dc:type rdf:resource="http://purl.org/dc/dcmitype/StillImage"/>
    <dc:date>2023-11-09T09:20:00.038035</dc:date>
    <dc:format>image/svg+xml</dc:format>
    <dc:creator>
     <cc:Agent>
      <dc:title>Matplotlib v3.8.0, https://matplotlib.org/</dc:title>
     </cc:Agent>
    </dc:creator>
   </cc:Work>
  </rdf:RDF>
 </metadata>
 <defs>
  <style type="text/css">*{stroke-linejoin: round; stroke-linecap: butt}</style>
 </defs>
 <g id="figure_1">
  <g id="patch_1">
   <path d="M 0 288 
L 810 288 
L 810 0 
L 0 0 
z
" style="fill: #ffffff"/>
  </g>
  <g id="axes_1">
   <g id="patch_2">
    <path d="M 60.013844 246.04 
L 405.746922 246.04 
L 405.746922 14.474923 
L 60.013844 14.474923 
z
" style="fill: #ffffff"/>
   </g>
   <g id="matplotlib.axis_1">
    <g id="xtick_1">
     <g id="line2d_1">
      <defs>
       <path id="m113dc7a75e" d="M 0 0 
L 0 3.5 
" style="stroke: #000000; stroke-width: 0.8"/>
      </defs>
      <g>
       <use xlink:href="#m113dc7a75e" x="119.60374" y="246.04" style="stroke: #000000; stroke-width: 0.8"/>
      </g>
     </g>
     <g id="text_1">
      <!-- 500 -->
      <g transform="translate(110.05999 260.638438) scale(0.1 -0.1)">
       <defs>
        <path id="DejaVuSans-35" d="M 691 4666 
L 3169 4666 
L 3169 4134 
L 1269 4134 
L 1269 2991 
Q 1406 3038 1543 3061 
Q 1681 3084 1819 3084 
Q 2600 3084 3056 2656 
Q 3513 2228 3513 1497 
Q 3513 744 3044 326 
Q 2575 -91 1722 -91 
Q 1428 -91 1123 -41 
Q 819 9 494 109 
L 494 744 
Q 775 591 1075 516 
Q 1375 441 1709 441 
Q 2250 441 2565 725 
Q 2881 1009 2881 1497 
Q 2881 1984 2565 2268 
Q 2250 2553 1709 2553 
Q 1456 2553 1204 2497 
Q 953 2441 691 2322 
L 691 4666 
z
" transform="scale(0.015625)"/>
        <path id="DejaVuSans-30" d="M 2034 4250 
Q 1547 4250 1301 3770 
Q 1056 3291 1056 2328 
Q 1056 1369 1301 889 
Q 1547 409 2034 409 
Q 2525 409 2770 889 
Q 3016 1369 3016 2328 
Q 3016 3291 2770 3770 
Q 2525 4250 2034 4250 
z
M 2034 4750 
Q 2819 4750 3233 4129 
Q 3647 3509 3647 2328 
Q 3647 1150 3233 529 
Q 2819 -91 2034 -91 
Q 1250 -91 836 529 
Q 422 1150 422 2328 
Q 422 3509 836 4129 
Q 1250 4750 2034 4750 
z
" transform="scale(0.015625)"/>
       </defs>
       <use xlink:href="#DejaVuSans-35"/>
       <use xlink:href="#DejaVuSans-30" x="63.623047"/>
       <use xlink:href="#DejaVuSans-30" x="127.246094"/>
      </g>
     </g>
    </g>
    <g id="xtick_2">
     <g id="line2d_2">
      <g>
       <use xlink:href="#m113dc7a75e" x="186.080644" y="246.04" style="stroke: #000000; stroke-width: 0.8"/>
      </g>
     </g>
     <g id="text_2">
      <!-- 1000 -->
      <g transform="translate(173.355644 260.638438) scale(0.1 -0.1)">
       <defs>
        <path id="DejaVuSans-31" d="M 794 531 
L 1825 531 
L 1825 4091 
L 703 3866 
L 703 4441 
L 1819 4666 
L 2450 4666 
L 2450 531 
L 3481 531 
L 3481 0 
L 794 0 
L 794 531 
z
" transform="scale(0.015625)"/>
       </defs>
       <use xlink:href="#DejaVuSans-31"/>
       <use xlink:href="#DejaVuSans-30" x="63.623047"/>
       <use xlink:href="#DejaVuSans-30" x="127.246094"/>
       <use xlink:href="#DejaVuSans-30" x="190.869141"/>
      </g>
     </g>
    </g>
    <g id="xtick_3">
     <g id="line2d_3">
      <g>
       <use xlink:href="#m113dc7a75e" x="252.557547" y="246.04" style="stroke: #000000; stroke-width: 0.8"/>
      </g>
     </g>
     <g id="text_3">
      <!-- 1500 -->
      <g transform="translate(239.832547 260.638438) scale(0.1 -0.1)">
       <use xlink:href="#DejaVuSans-31"/>
       <use xlink:href="#DejaVuSans-35" x="63.623047"/>
       <use xlink:href="#DejaVuSans-30" x="127.246094"/>
       <use xlink:href="#DejaVuSans-30" x="190.869141"/>
      </g>
     </g>
    </g>
    <g id="xtick_4">
     <g id="line2d_4">
      <g>
       <use xlink:href="#m113dc7a75e" x="319.03445" y="246.04" style="stroke: #000000; stroke-width: 0.8"/>
      </g>
     </g>
     <g id="text_4">
      <!-- 2000 -->
      <g transform="translate(306.30945 260.638438) scale(0.1 -0.1)">
       <defs>
        <path id="DejaVuSans-32" d="M 1228 531 
L 3431 531 
L 3431 0 
L 469 0 
L 469 531 
Q 828 903 1448 1529 
Q 2069 2156 2228 2338 
Q 2531 2678 2651 2914 
Q 2772 3150 2772 3378 
Q 2772 3750 2511 3984 
Q 2250 4219 1831 4219 
Q 1534 4219 1204 4116 
Q 875 4013 500 3803 
L 500 4441 
Q 881 4594 1212 4672 
Q 1544 4750 1819 4750 
Q 2544 4750 2975 4387 
Q 3406 4025 3406 3419 
Q 3406 3131 3298 2873 
Q 3191 2616 2906 2266 
Q 2828 2175 2409 1742 
Q 1991 1309 1228 531 
z
" transform="scale(0.015625)"/>
       </defs>
       <use xlink:href="#DejaVuSans-32"/>
       <use xlink:href="#DejaVuSans-30" x="63.623047"/>
       <use xlink:href="#DejaVuSans-30" x="127.246094"/>
       <use xlink:href="#DejaVuSans-30" x="190.869141"/>
      </g>
     </g>
    </g>
    <g id="xtick_5">
     <g id="line2d_5">
      <g>
       <use xlink:href="#m113dc7a75e" x="385.511353" y="246.04" style="stroke: #000000; stroke-width: 0.8"/>
      </g>
     </g>
     <g id="text_5">
      <!-- 2500 -->
      <g transform="translate(372.786353 260.638438) scale(0.1 -0.1)">
       <use xlink:href="#DejaVuSans-32"/>
       <use xlink:href="#DejaVuSans-35" x="63.623047"/>
       <use xlink:href="#DejaVuSans-30" x="127.246094"/>
       <use xlink:href="#DejaVuSans-30" x="190.869141"/>
      </g>
     </g>
    </g>
    <g id="text_6">
     <!-- Position (nm) -->
     <g transform="translate(199.886633 274.316562) scale(0.1 -0.1)">
      <defs>
       <path id="DejaVuSans-50" d="M 1259 4147 
L 1259 2394 
L 2053 2394 
Q 2494 2394 2734 2622 
Q 2975 2850 2975 3272 
Q 2975 3691 2734 3919 
Q 2494 4147 2053 4147 
L 1259 4147 
z
M 628 4666 
L 2053 4666 
Q 2838 4666 3239 4311 
Q 3641 3956 3641 3272 
Q 3641 2581 3239 2228 
Q 2838 1875 2053 1875 
L 1259 1875 
L 1259 0 
L 628 0 
L 628 4666 
z
" transform="scale(0.015625)"/>
       <path id="DejaVuSans-6f" d="M 1959 3097 
Q 1497 3097 1228 2736 
Q 959 2375 959 1747 
Q 959 1119 1226 758 
Q 1494 397 1959 397 
Q 2419 397 2687 759 
Q 2956 1122 2956 1747 
Q 2956 2369 2687 2733 
Q 2419 3097 1959 3097 
z
M 1959 3584 
Q 2709 3584 3137 3096 
Q 3566 2609 3566 1747 
Q 3566 888 3137 398 
Q 2709 -91 1959 -91 
Q 1206 -91 779 398 
Q 353 888 353 1747 
Q 353 2609 779 3096 
Q 1206 3584 1959 3584 
z
" transform="scale(0.015625)"/>
       <path id="DejaVuSans-73" d="M 2834 3397 
L 2834 2853 
Q 2591 2978 2328 3040 
Q 2066 3103 1784 3103 
Q 1356 3103 1142 2972 
Q 928 2841 928 2578 
Q 928 2378 1081 2264 
Q 1234 2150 1697 2047 
L 1894 2003 
Q 2506 1872 2764 1633 
Q 3022 1394 3022 966 
Q 3022 478 2636 193 
Q 2250 -91 1575 -91 
Q 1294 -91 989 -36 
Q 684 19 347 128 
L 347 722 
Q 666 556 975 473 
Q 1284 391 1588 391 
Q 1994 391 2212 530 
Q 2431 669 2431 922 
Q 2431 1156 2273 1281 
Q 2116 1406 1581 1522 
L 1381 1569 
Q 847 1681 609 1914 
Q 372 2147 372 2553 
Q 372 3047 722 3315 
Q 1072 3584 1716 3584 
Q 2034 3584 2315 3537 
Q 2597 3491 2834 3397 
z
" transform="scale(0.015625)"/>
       <path id="DejaVuSans-69" d="M 603 3500 
L 1178 3500 
L 1178 0 
L 603 0 
L 603 3500 
z
M 603 4863 
L 1178 4863 
L 1178 4134 
L 603 4134 
L 603 4863 
z
" transform="scale(0.015625)"/>
       <path id="DejaVuSans-74" d="M 1172 4494 
L 1172 3500 
L 2356 3500 
L 2356 3053 
L 1172 3053 
L 1172 1153 
Q 1172 725 1289 603 
Q 1406 481 1766 481 
L 2356 481 
L 2356 0 
L 1766 0 
Q 1100 0 847 248 
Q 594 497 594 1153 
L 594 3053 
L 172 3053 
L 172 3500 
L 594 3500 
L 594 4494 
L 1172 4494 
z
" transform="scale(0.015625)"/>
       <path id="DejaVuSans-6e" d="M 3513 2113 
L 3513 0 
L 2938 0 
L 2938 2094 
Q 2938 2591 2744 2837 
Q 2550 3084 2163 3084 
Q 1697 3084 1428 2787 
Q 1159 2491 1159 1978 
L 1159 0 
L 581 0 
L 581 3500 
L 1159 3500 
L 1159 2956 
Q 1366 3272 1645 3428 
Q 1925 3584 2291 3584 
Q 2894 3584 3203 3211 
Q 3513 2838 3513 2113 
z
" transform="scale(0.015625)"/>
       <path id="DejaVuSans-20" transform="scale(0.015625)"/>
       <path id="DejaVuSans-28" d="M 1984 4856 
Q 1566 4138 1362 3434 
Q 1159 2731 1159 2009 
Q 1159 1288 1364 580 
Q 1569 -128 1984 -844 
L 1484 -844 
Q 1016 -109 783 600 
Q 550 1309 550 2009 
Q 550 2706 781 3412 
Q 1013 4119 1484 4856 
L 1984 4856 
z
" transform="scale(0.015625)"/>
       <path id="DejaVuSans-6d" d="M 3328 2828 
Q 3544 3216 3844 3400 
Q 4144 3584 4550 3584 
Q 5097 3584 5394 3201 
Q 5691 2819 5691 2113 
L 5691 0 
L 5113 0 
L 5113 2094 
Q 5113 2597 4934 2840 
Q 4756 3084 4391 3084 
Q 3944 3084 3684 2787 
Q 3425 2491 3425 1978 
L 3425 0 
L 2847 0 
L 2847 2094 
Q 2847 2600 2669 2842 
Q 2491 3084 2119 3084 
Q 1678 3084 1418 2786 
Q 1159 2488 1159 1978 
L 1159 0 
L 581 0 
L 581 3500 
L 1159 3500 
L 1159 2956 
Q 1356 3278 1631 3431 
Q 1906 3584 2284 3584 
Q 2666 3584 2933 3390 
Q 3200 3197 3328 2828 
z
" transform="scale(0.015625)"/>
       <path id="DejaVuSans-29" d="M 513 4856 
L 1013 4856 
Q 1481 4119 1714 3412 
Q 1947 2706 1947 2009 
Q 1947 1309 1714 600 
Q 1481 -109 1013 -844 
L 513 -844 
Q 928 -128 1133 580 
Q 1338 1288 1338 2009 
Q 1338 2731 1133 3434 
Q 928 4138 513 4856 
z
" transform="scale(0.015625)"/>
      </defs>
      <use xlink:href="#DejaVuSans-50"/>
      <use xlink:href="#DejaVuSans-6f" x="56.677734"/>
      <use xlink:href="#DejaVuSans-73" x="117.859375"/>
      <use xlink:href="#DejaVuSans-69" x="169.958984"/>
      <use xlink:href="#DejaVuSans-74" x="197.742188"/>
      <use xlink:href="#DejaVuSans-69" x="236.951172"/>
      <use xlink:href="#DejaVuSans-6f" x="264.734375"/>
      <use xlink:href="#DejaVuSans-6e" x="325.916016"/>
      <use xlink:href="#DejaVuSans-20" x="389.294922"/>
      <use xlink:href="#DejaVuSans-28" x="421.082031"/>
      <use xlink:href="#DejaVuSans-6e" x="460.095703"/>
      <use xlink:href="#DejaVuSans-6d" x="523.474609"/>
      <use xlink:href="#DejaVuSans-29" x="620.886719"/>
     </g>
    </g>
   </g>
   <g id="matplotlib.axis_2">
    <g id="ytick_1">
     <g id="line2d_6">
      <defs>
       <path id="m22cadb0d8d" d="M 0 0 
L -3.5 0 
" style="stroke: #000000; stroke-width: 0.8"/>
      </defs>
      <g>
       <use xlink:href="#m22cadb0d8d" x="60.013844" y="220.872191" style="stroke: #000000; stroke-width: 0.8"/>
      </g>
     </g>
     <g id="text_7">
      <!-- $\mathdefault{10^{7}}$ -->
      <g transform="translate(35.413844 224.67141) scale(0.1 -0.1)">
       <defs>
        <path id="DejaVuSans-37" d="M 525 4666 
L 3525 4666 
L 3525 4397 
L 1831 0 
L 1172 0 
L 2766 4134 
L 525 4134 
L 525 4666 
z
" transform="scale(0.015625)"/>
       </defs>
       <use xlink:href="#DejaVuSans-31" transform="translate(0 0.684375)"/>
       <use xlink:href="#DejaVuSans-30" transform="translate(63.623047 0.684375)"/>
       <use xlink:href="#DejaVuSans-37" transform="translate(128.203125 38.965625) scale(0.7)"/>
      </g>
     </g>
    </g>
    <g id="ytick_2">
     <g id="line2d_7">
      <g>
       <use xlink:href="#m22cadb0d8d" x="60.013844" y="191.664506" style="stroke: #000000; stroke-width: 0.8"/>
      </g>
     </g>
     <g id="text_8">
      <!-- $\mathdefault{10^{9}}$ -->
      <g transform="translate(35.413844 195.463725) scale(0.1 -0.1)">
       <defs>
        <path id="DejaVuSans-39" d="M 703 97 
L 703 672 
Q 941 559 1184 500 
Q 1428 441 1663 441 
Q 2288 441 2617 861 
Q 2947 1281 2994 2138 
Q 2813 1869 2534 1725 
Q 2256 1581 1919 1581 
Q 1219 1581 811 2004 
Q 403 2428 403 3163 
Q 403 3881 828 4315 
Q 1253 4750 1959 4750 
Q 2769 4750 3195 4129 
Q 3622 3509 3622 2328 
Q 3622 1225 3098 567 
Q 2575 -91 1691 -91 
Q 1453 -91 1209 -44 
Q 966 3 703 97 
z
M 1959 2075 
Q 2384 2075 2632 2365 
Q 2881 2656 2881 3163 
Q 2881 3666 2632 3958 
Q 2384 4250 1959 4250 
Q 1534 4250 1286 3958 
Q 1038 3666 1038 3163 
Q 1038 2656 1286 2365 
Q 1534 2075 1959 2075 
z
" transform="scale(0.015625)"/>
       </defs>
       <use xlink:href="#DejaVuSans-31" transform="translate(0 0.765625)"/>
       <use xlink:href="#DejaVuSans-30" transform="translate(63.623047 0.765625)"/>
       <use xlink:href="#DejaVuSans-39" transform="translate(128.203125 39.046875) scale(0.7)"/>
      </g>
     </g>
    </g>
    <g id="ytick_3">
     <g id="line2d_8">
      <g>
       <use xlink:href="#m22cadb0d8d" x="60.013844" y="162.45682" style="stroke: #000000; stroke-width: 0.8"/>
      </g>
     </g>
     <g id="text_9">
      <!-- $\mathdefault{10^{11}}$ -->
      <g transform="translate(30.913844 166.256039) scale(0.1 -0.1)">
       <use xlink:href="#DejaVuSans-31" transform="translate(0 0.684375)"/>
       <use xlink:href="#DejaVuSans-30" transform="translate(63.623047 0.684375)"/>
       <use xlink:href="#DejaVuSans-31" transform="translate(128.203125 38.965625) scale(0.7)"/>
       <use xlink:href="#DejaVuSans-31" transform="translate(172.739258 38.965625) scale(0.7)"/>
      </g>
     </g>
    </g>
    <g id="ytick_4">
     <g id="line2d_9">
      <g>
       <use xlink:href="#m22cadb0d8d" x="60.013844" y="133.249135" style="stroke: #000000; stroke-width: 0.8"/>
      </g>
     </g>
     <g id="text_10">
      <!-- $\mathdefault{10^{13}}$ -->
      <g transform="translate(30.913844 137.048353) scale(0.1 -0.1)">
       <defs>
        <path id="DejaVuSans-33" d="M 2597 2516 
Q 3050 2419 3304 2112 
Q 3559 1806 3559 1356 
Q 3559 666 3084 287 
Q 2609 -91 1734 -91 
Q 1441 -91 1130 -33 
Q 819 25 488 141 
L 488 750 
Q 750 597 1062 519 
Q 1375 441 1716 441 
Q 2309 441 2620 675 
Q 2931 909 2931 1356 
Q 2931 1769 2642 2001 
Q 2353 2234 1838 2234 
L 1294 2234 
L 1294 2753 
L 1863 2753 
Q 2328 2753 2575 2939 
Q 2822 3125 2822 3475 
Q 2822 3834 2567 4026 
Q 2313 4219 1838 4219 
Q 1578 4219 1281 4162 
Q 984 4106 628 3988 
L 628 4550 
Q 988 4650 1302 4700 
Q 1616 4750 1894 4750 
Q 2613 4750 3031 4423 
Q 3450 4097 3450 3541 
Q 3450 3153 3228 2886 
Q 3006 2619 2597 2516 
z
" transform="scale(0.015625)"/>
       </defs>
       <use xlink:href="#DejaVuSans-31" transform="translate(0 0.765625)"/>
       <use xlink:href="#DejaVuSans-30" transform="translate(63.623047 0.765625)"/>
       <use xlink:href="#DejaVuSans-31" transform="translate(128.203125 39.046875) scale(0.7)"/>
       <use xlink:href="#DejaVuSans-33" transform="translate(172.739258 39.046875) scale(0.7)"/>
      </g>
     </g>
    </g>
    <g id="ytick_5">
     <g id="line2d_10">
      <g>
       <use xlink:href="#m22cadb0d8d" x="60.013844" y="104.041449" style="stroke: #000000; stroke-width: 0.8"/>
      </g>
     </g>
     <g id="text_11">
      <!-- $\mathdefault{10^{15}}$ -->
      <g transform="translate(30.913844 107.840668) scale(0.1 -0.1)">
       <use xlink:href="#DejaVuSans-31" transform="translate(0 0.684375)"/>
       <use xlink:href="#DejaVuSans-30" transform="translate(63.623047 0.684375)"/>
       <use xlink:href="#DejaVuSans-31" transform="translate(128.203125 38.965625) scale(0.7)"/>
       <use xlink:href="#DejaVuSans-35" transform="translate(172.739258 38.965625) scale(0.7)"/>
      </g>
     </g>
    </g>
    <g id="ytick_6">
     <g id="line2d_11">
      <g>
       <use xlink:href="#m22cadb0d8d" x="60.013844" y="74.833764" style="stroke: #000000; stroke-width: 0.8"/>
      </g>
     </g>
     <g id="text_12">
      <!-- $\mathdefault{10^{17}}$ -->
      <g transform="translate(30.913844 78.632982) scale(0.1 -0.1)">
       <use xlink:href="#DejaVuSans-31" transform="translate(0 0.684375)"/>
       <use xlink:href="#DejaVuSans-30" transform="translate(63.623047 0.684375)"/>
       <use xlink:href="#DejaVuSans-31" transform="translate(128.203125 38.965625) scale(0.7)"/>
       <use xlink:href="#DejaVuSans-37" transform="translate(172.739258 38.965625) scale(0.7)"/>
      </g>
     </g>
    </g>
    <g id="ytick_7">
     <g id="line2d_12">
      <g>
       <use xlink:href="#m22cadb0d8d" x="60.013844" y="45.626078" style="stroke: #000000; stroke-width: 0.8"/>
      </g>
     </g>
     <g id="text_13">
      <!-- $\mathdefault{10^{19}}$ -->
      <g transform="translate(30.913844 49.425297) scale(0.1 -0.1)">
       <use xlink:href="#DejaVuSans-31" transform="translate(0 0.765625)"/>
       <use xlink:href="#DejaVuSans-30" transform="translate(63.623047 0.765625)"/>
       <use xlink:href="#DejaVuSans-31" transform="translate(128.203125 39.046875) scale(0.7)"/>
       <use xlink:href="#DejaVuSans-39" transform="translate(172.739258 39.046875) scale(0.7)"/>
      </g>
     </g>
    </g>
    <g id="ytick_8">
     <g id="line2d_13">
      <g>
       <use xlink:href="#m22cadb0d8d" x="60.013844" y="16.418393" style="stroke: #000000; stroke-width: 0.8"/>
      </g>
     </g>
     <g id="text_14">
      <!-- $\mathdefault{10^{21}}$ -->
      <g transform="translate(30.913844 20.217611) scale(0.1 -0.1)">
       <use xlink:href="#DejaVuSans-31" transform="translate(0 0.765625)"/>
       <use xlink:href="#DejaVuSans-30" transform="translate(63.623047 0.765625)"/>
       <use xlink:href="#DejaVuSans-32" transform="translate(128.203125 39.046875) scale(0.7)"/>
       <use xlink:href="#DejaVuSans-31" transform="translate(172.739258 39.046875) scale(0.7)"/>
      </g>
     </g>
    </g>
    <g id="text_15">
     <!-- Carrier density (m$^{-3}$) -->
     <g transform="translate(24.813844 183.107462) rotate(-90) scale(0.1 -0.1)">
      <defs>
       <path id="DejaVuSans-43" d="M 4122 4306 
L 4122 3641 
Q 3803 3938 3442 4084 
Q 3081 4231 2675 4231 
Q 1875 4231 1450 3742 
Q 1025 3253 1025 2328 
Q 1025 1406 1450 917 
Q 1875 428 2675 428 
Q 3081 428 3442 575 
Q 3803 722 4122 1019 
L 4122 359 
Q 3791 134 3420 21 
Q 3050 -91 2638 -91 
Q 1578 -91 968 557 
Q 359 1206 359 2328 
Q 359 3453 968 4101 
Q 1578 4750 2638 4750 
Q 3056 4750 3426 4639 
Q 3797 4528 4122 4306 
z
" transform="scale(0.015625)"/>
       <path id="DejaVuSans-61" d="M 2194 1759 
Q 1497 1759 1228 1600 
Q 959 1441 959 1056 
Q 959 750 1161 570 
Q 1363 391 1709 391 
Q 2188 391 2477 730 
Q 2766 1069 2766 1631 
L 2766 1759 
L 2194 1759 
z
M 3341 1997 
L 3341 0 
L 2766 0 
L 2766 531 
Q 2569 213 2275 61 
Q 1981 -91 1556 -91 
Q 1019 -91 701 211 
Q 384 513 384 1019 
Q 384 1609 779 1909 
Q 1175 2209 1959 2209 
L 2766 2209 
L 2766 2266 
Q 2766 2663 2505 2880 
Q 2244 3097 1772 3097 
Q 1472 3097 1187 3025 
Q 903 2953 641 2809 
L 641 3341 
Q 956 3463 1253 3523 
Q 1550 3584 1831 3584 
Q 2591 3584 2966 3190 
Q 3341 2797 3341 1997 
z
" transform="scale(0.015625)"/>
       <path id="DejaVuSans-72" d="M 2631 2963 
Q 2534 3019 2420 3045 
Q 2306 3072 2169 3072 
Q 1681 3072 1420 2755 
Q 1159 2438 1159 1844 
L 1159 0 
L 581 0 
L 581 3500 
L 1159 3500 
L 1159 2956 
Q 1341 3275 1631 3429 
Q 1922 3584 2338 3584 
Q 2397 3584 2469 3576 
Q 2541 3569 2628 3553 
L 2631 2963 
z
" transform="scale(0.015625)"/>
       <path id="DejaVuSans-65" d="M 3597 1894 
L 3597 1613 
L 953 1613 
Q 991 1019 1311 708 
Q 1631 397 2203 397 
Q 2534 397 2845 478 
Q 3156 559 3463 722 
L 3463 178 
Q 3153 47 2828 -22 
Q 2503 -91 2169 -91 
Q 1331 -91 842 396 
Q 353 884 353 1716 
Q 353 2575 817 3079 
Q 1281 3584 2069 3584 
Q 2775 3584 3186 3129 
Q 3597 2675 3597 1894 
z
M 3022 2063 
Q 3016 2534 2758 2815 
Q 2500 3097 2075 3097 
Q 1594 3097 1305 2825 
Q 1016 2553 972 2059 
L 3022 2063 
z
" transform="scale(0.015625)"/>
       <path id="DejaVuSans-64" d="M 2906 2969 
L 2906 4863 
L 3481 4863 
L 3481 0 
L 2906 0 
L 2906 525 
Q 2725 213 2448 61 
Q 2172 -91 1784 -91 
Q 1150 -91 751 415 
Q 353 922 353 1747 
Q 353 2572 751 3078 
Q 1150 3584 1784 3584 
Q 2172 3584 2448 3432 
Q 2725 3281 2906 2969 
z
M 947 1747 
Q 947 1113 1208 752 
Q 1469 391 1925 391 
Q 2381 391 2643 752 
Q 2906 1113 2906 1747 
Q 2906 2381 2643 2742 
Q 2381 3103 1925 3103 
Q 1469 3103 1208 2742 
Q 947 2381 947 1747 
z
" transform="scale(0.015625)"/>
       <path id="DejaVuSans-79" d="M 2059 -325 
Q 1816 -950 1584 -1140 
Q 1353 -1331 966 -1331 
L 506 -1331 
L 506 -850 
L 844 -850 
Q 1081 -850 1212 -737 
Q 1344 -625 1503 -206 
L 1606 56 
L 191 3500 
L 800 3500 
L 1894 763 
L 2988 3500 
L 3597 3500 
L 2059 -325 
z
" transform="scale(0.015625)"/>
       <path id="DejaVuSans-2212" d="M 678 2272 
L 4684 2272 
L 4684 1741 
L 678 1741 
L 678 2272 
z
" transform="scale(0.015625)"/>
      </defs>
      <use xlink:href="#DejaVuSans-43" transform="translate(0 0.765625)"/>
      <use xlink:href="#DejaVuSans-61" transform="translate(69.824219 0.765625)"/>
      <use xlink:href="#DejaVuSans-72" transform="translate(131.103516 0.765625)"/>
      <use xlink:href="#DejaVuSans-72" transform="translate(172.216797 0.765625)"/>
      <use xlink:href="#DejaVuSans-69" transform="translate(213.330078 0.765625)"/>
      <use xlink:href="#DejaVuSans-65" transform="translate(241.113281 0.765625)"/>
      <use xlink:href="#DejaVuSans-72" transform="translate(302.636719 0.765625)"/>
      <use xlink:href="#DejaVuSans-20" transform="translate(343.75 0.765625)"/>
      <use xlink:href="#DejaVuSans-64" transform="translate(375.537109 0.765625)"/>
      <use xlink:href="#DejaVuSans-65" transform="translate(439.013672 0.765625)"/>
      <use xlink:href="#DejaVuSans-6e" transform="translate(500.537109 0.765625)"/>
      <use xlink:href="#DejaVuSans-73" transform="translate(563.916016 0.765625)"/>
      <use xlink:href="#DejaVuSans-69" transform="translate(616.015625 0.765625)"/>
      <use xlink:href="#DejaVuSans-74" transform="translate(643.798828 0.765625)"/>
      <use xlink:href="#DejaVuSans-79" transform="translate(683.007812 0.765625)"/>
      <use xlink:href="#DejaVuSans-20" transform="translate(742.1875 0.765625)"/>
      <use xlink:href="#DejaVuSans-28" transform="translate(773.974609 0.765625)"/>
      <use xlink:href="#DejaVuSans-6d" transform="translate(812.988281 0.765625)"/>
      <use xlink:href="#DejaVuSans-2212" transform="translate(911.357422 39.046875) scale(0.7)"/>
      <use xlink:href="#DejaVuSans-33" transform="translate(970.009766 39.046875) scale(0.7)"/>
      <use xlink:href="#DejaVuSans-29" transform="translate(1017.280273 0.765625)"/>
     </g>
    </g>
   </g>
   <g id="line2d_14">
    <path d="M 75.728984 58.092657 
L 76.615951 56.419453 
L 77.821198 54.729005 
L 79.408906 53.06355 
L 81.329535 51.522819 
L 83.48517 50.153229 
L 85.758119 48.965235 
L 89.109282 47.517988 
L 92.775698 46.202962 
L 95.65876 45.301579 
L 95.672055 52.928643 
L 95.7731 52.871326 
L 96.190575 52.63953 
L 96.299597 44.877903 
L 96.589437 44.795178 
L 96.602732 52.519026 
L 96.703777 52.465426 
L 97.121252 52.248325 
L 97.230274 44.487971 
L 97.520113 44.408256 
L 97.533409 52.132333 
L 97.634453 52.082012 
L 98.051928 51.877911 
L 98.160951 44.118707 
L 98.45079 44.04172 
L 98.464085 51.766003 
L 98.56513 51.718595 
L 98.982605 51.526079 
L 99.091627 43.767921 
L 99.381466 43.693426 
L 99.394762 51.417896 
L 99.495807 51.373095 
L 99.913282 51.190969 
L 100.022304 43.433771 
L 100.312143 43.36157 
L 100.325438 51.086208 
L 100.426483 51.043754 
L 100.843958 50.871004 
L 100.95298 43.114692 
L 101.24282 43.044616 
L 101.256115 50.769409 
L 101.35716 50.72908 
L 101.774635 50.564835 
L 101.883657 42.809347 
L 102.173496 42.741252 
L 102.186792 50.466188 
L 102.287837 50.427793 
L 102.705312 50.271304 
L 102.814334 42.516584 
L 103.104173 42.450347 
L 103.117468 50.175414 
L 103.218513 50.138789 
L 103.635988 49.989404 
L 103.74501 42.235406 
L 104.03485 42.17092 
L 104.048145 49.896109 
L 104.14919 49.861109 
L 104.566665 49.718261 
L 104.675687 41.964944 
L 104.965526 41.902115 
L 104.978822 49.627418 
L 105.079867 49.593917 
L 105.497342 49.457108 
L 105.606364 41.704436 
L 105.896203 41.643182 
L 105.909498 49.368592 
L 106.010543 49.336479 
L 106.428018 49.20527 
L 106.53704 41.453212 
L 106.82688 41.39346 
L 106.840175 49.118971 
L 106.94122 49.088148 
L 107.358695 48.962149 
L 107.467717 41.210676 
L 107.757556 41.152364 
L 107.770852 48.87797 
L 107.871897 48.84835 
L 108.289371 48.727215 
L 108.398394 40.976303 
L 108.688233 40.919372 
L 108.701528 48.645069 
L 108.802573 48.616574 
L 109.220048 48.499994 
L 109.32907 40.74962 
L 109.61891 40.694021 
L 109.632205 48.419803 
L 109.73325 48.392365 
L 110.150725 48.280061 
L 110.259747 40.530207 
L 110.549586 40.475894 
L 110.562882 48.201758 
L 110.663926 48.175312 
L 111.081401 48.067037 
L 111.190424 40.317683 
L 111.480263 40.264616 
L 111.493558 47.990558 
L 111.594603 47.96505 
L 112.012078 47.860577 
L 112.1211 40.111709 
L 112.410939 40.05985 
L 112.424235 47.785867 
L 112.52528 47.761245 
L 112.942755 47.660374 
L 113.051777 39.911975 
L 113.341616 39.861292 
L 113.354912 47.587381 
L 113.455956 47.563599 
L 113.873431 47.466146 
L 113.982453 39.718205 
L 114.272293 39.668667 
L 114.285588 47.394825 
L 114.386633 47.371843 
L 114.804108 47.277641 
L 114.91313 39.530145 
L 115.202969 39.481725 
L 115.216265 47.20795 
L 115.31731 47.18573 
L 115.734785 47.09463 
L 115.843807 39.347568 
L 116.133646 39.300242 
L 116.146941 47.026531 
L 116.247986 47.005039 
L 116.665461 46.916903 
L 116.774483 39.170267 
L 117.064323 39.124011 
L 117.077618 46.850363 
L 117.178663 46.829567 
L 117.596138 46.744273 
L 117.70516 38.998051 
L 117.994999 38.952846 
L 118.008295 46.679259 
L 118.10934 46.659131 
L 118.526815 46.576564 
L 118.635837 38.83075 
L 118.925676 38.786576 
L 118.938971 46.513048 
L 119.040016 46.493562 
L 119.457491 46.413616 
L 119.566513 38.668202 
L 119.856353 38.625042 
L 119.869648 46.351572 
L 119.970693 46.332703 
L 120.388168 46.255283 
L 120.49719 38.510261 
L 120.787029 38.468098 
L 120.800325 46.194684 
L 120.90137 46.176411 
L 121.318844 46.101425 
L 121.427867 38.356789 
L 121.717706 38.315607 
L 121.731001 46.042249 
L 121.832046 46.024551 
L 122.249521 45.951915 
L 122.358543 38.207659 
L 122.648383 38.167444 
L 122.661678 45.894139 
L 122.762723 45.876997 
L 123.180198 45.806633 
L 123.28922 38.062751 
L 123.579059 38.02349 
L 123.592355 45.750237 
L 123.693399 45.733632 
L 124.110874 45.665468 
L 124.12417 38.031313 
L 131.116229 37.170038 
L 140.943333 36.197034 
L 148.01067 35.641348 
L 156.516239 35.108436 
L 166.379754 34.65114 
L 177.475371 34.313677 
L 189.646733 34.128328 
L 202.719465 34.115947 
L 216.510086 34.288882 
L 230.830351 34.654483 
L 245.487833 35.217738 
L 260.286844 35.982418 
L 275.034722 36.951119 
L 289.551397 38.125026 
L 303.669169 39.503323 
L 317.2125 41.080844 
L 329.970418 42.843446 
L 341.69249 44.763752 
L 352.126156 46.801351 
L 361.079099 48.908215 
L 368.470604 51.035359 
L 374.346327 53.136174 
L 378.85599 55.165562 
L 382.210931 57.077705 
L 384.640816 58.826137 
L 386.361505 60.368073 
L 388.375809 62.726599 
L 389.713431 64.893168 
L 390.031782 65.528624 
L 390.031782 65.528624 
" clip-path="url(#pef79baf81b)" style="fill: none; stroke: #0000ff; stroke-width: 1.5; stroke-linecap: square"/>
   </g>
   <g id="line2d_15">
    <path d="M 75.728984 54.773197 
L 76.143424 48.69998 
L 76.615951 45.445777 
L 77.171113 43.100987 
L 77.821198 41.240381 
L 78.568629 39.707133 
L 79.408906 38.423126 
L 80.333087 37.339752 
L 81.329535 36.422232 
L 82.385001 35.643767 
L 84.614843 34.422348 
L 86.898835 33.546377 
L 89.109282 32.924665 
L 91.997417 32.332125 
L 95.65876 31.814105 
L 95.672055 37.070115 
L 95.7731 37.013237 
L 96.190575 36.787403 
L 96.20387 27.851339 
L 96.299597 27.854311 
L 96.323529 27.855054 
L 96.336824 29.209878 
L 96.432551 29.202739 
L 96.456483 29.200967 
L 96.469778 27.845675 
L 96.565505 27.848702 
L 96.589437 27.849458 
L 96.602732 36.78078 
L 96.703777 36.729014 
L 97.121252 36.523069 
L 97.134547 27.587308 
L 97.230274 27.591133 
L 97.254206 27.592089 
L 97.267501 28.947072 
L 97.363228 28.941408 
L 97.387159 28.940002 
L 97.400455 27.584866 
L 97.496181 27.588726 
L 97.520113 27.58969 
L 97.533409 36.521306 
L 97.634453 36.473952 
L 98.051928 36.285235 
L 98.065224 27.349736 
L 98.160951 27.35428 
L 98.184882 27.355415 
L 98.198178 28.710532 
L 98.293904 28.706134 
L 98.317836 28.705042 
L 98.331131 27.35004 
L 98.426858 27.354601 
L 98.45079 27.35574 
L 98.464085 36.287611 
L 98.56513 36.244098 
L 98.982605 36.070431 
L 98.9959 27.135159 
L 99.091627 27.140311 
L 99.115559 27.141597 
L 99.128854 28.49683 
L 99.224581 28.493524 
L 99.248513 28.492704 
L 99.261808 27.137815 
L 99.357535 27.14297 
L 99.381466 27.144256 
L 99.394762 36.076349 
L 99.495807 36.036207 
L 99.913282 35.875784 
L 99.926577 26.94071 
L 100.022304 26.946378 
L 100.046235 26.947792 
L 100.059531 28.303124 
L 100.155258 28.300765 
L 100.179189 28.30018 
L 100.192485 26.945389 
L 100.288211 26.951047 
L 100.312143 26.952459 
L 100.325438 35.884746 
L 100.426483 35.847583 
L 100.843958 35.698889 
L 100.857254 26.76399 
L 100.95298 26.770095 
L 100.976912 26.771618 
L 100.990208 28.127036 
L 101.085934 28.125501 
L 101.109866 28.125122 
L 101.123161 26.770415 
L 101.218888 26.776499 
L 101.24282 26.778017 
L 101.256115 35.710474 
L 101.35716 35.675959 
L 101.774635 35.537716 
L 101.78793 26.602971 
L 101.883657 26.609446 
L 101.907589 26.611061 
L 102.016611 27.965739 
L 102.040543 27.965539 
L 102.053838 26.610906 
L 102.149565 26.617351 
L 102.173496 26.618958 
L 102.186792 35.551566 
L 102.287837 35.519417 
L 102.705312 35.390533 
L 102.718607 26.455924 
L 102.814334 26.462711 
L 102.838265 26.464404 
L 102.947288 27.819778 
L 102.971219 27.819736 
L 102.984515 26.465165 
L 103.080241 26.471915 
L 103.104173 26.473599 
L 103.117468 35.40634 
L 103.218513 35.376317 
L 103.635988 35.255851 
L 103.649284 26.321364 
L 103.74501 26.328414 
L 103.768942 26.330173 
L 103.877964 27.686157 
L 103.901896 27.686252 
L 103.915191 26.331736 
L 104.010918 26.338742 
L 104.03485 26.340489 
L 104.048145 35.273349 
L 104.14919 35.245243 
L 104.566665 35.132384 
L 104.57996 26.198005 
L 104.675687 26.205275 
L 104.699619 26.207088 
L 104.808641 27.563608 
L 104.832573 27.563824 
L 104.845868 26.209356 
L 104.941595 26.216575 
L 104.965526 26.218375 
L 104.978822 35.151341 
L 105.079867 35.124971 
L 105.497342 35.01901 
L 105.510637 26.084727 
L 105.606364 26.092179 
L 105.630295 26.094037 
L 105.739317 27.451027 
L 105.763249 27.451351 
L 105.776545 26.096923 
L 105.872271 26.104318 
L 105.896203 26.106162 
L 105.909498 35.039223 
L 106.010543 35.014431 
L 106.428018 34.914745 
L 106.441314 25.980549 
L 106.53704 25.988149 
L 106.560972 25.990044 
L 106.669994 27.347447 
L 106.693926 27.347864 
L 106.707221 25.993471 
L 106.802948 26.00101 
L 106.82688 26.00289 
L 106.840175 34.936035 
L 106.94122 34.912681 
L 107.358695 34.818724 
L 107.37199 25.884605 
L 107.467717 25.892324 
L 107.491649 25.894248 
L 107.600671 27.252013 
L 107.624602 27.252513 
L 107.637898 25.898149 
L 107.733625 25.905803 
L 107.757556 25.907711 
L 107.770852 34.840932 
L 107.871897 34.818893 
L 108.289371 34.730177 
L 108.302667 25.796128 
L 108.398394 25.803939 
L 108.422325 25.805886 
L 108.531347 27.163967 
L 108.555279 27.164539 
L 108.568574 25.810201 
L 108.664301 25.817943 
L 108.688233 25.819873 
L 108.701528 34.753163 
L 108.802573 34.732328 
L 109.220048 34.648421 
L 109.233344 25.714435 
L 109.32907 25.722314 
L 109.353002 25.724278 
L 109.462024 27.082635 
L 109.485956 27.083271 
L 109.499251 25.728954 
L 109.594978 25.73676 
L 109.61891 25.738706 
L 109.632205 34.672058 
L 109.73325 34.65233 
L 110.150725 34.572844 
L 110.16402 25.638914 
L 110.259747 25.64684 
L 110.283679 25.648816 
L 110.392701 27.007413 
L 110.416632 27.008104 
L 110.429928 25.653804 
L 110.525655 25.661655 
L 110.549586 25.663612 
L 110.562882 34.597018 
L 110.663926 34.57831 
L 111.081401 34.502897 
L 111.094697 25.569018 
L 111.190424 25.576971 
L 111.214355 25.578954 
L 111.323377 26.937759 
L 111.347309 26.938498 
L 111.360604 25.584212 
L 111.456331 25.592088 
L 111.480263 25.594052 
L 111.493558 34.527507 
L 111.594603 34.50974 
L 112.012078 34.438086 
L 112.025373 25.504252 
L 112.1211 25.512217 
L 112.145032 25.514202 
L 112.254054 26.873185 
L 112.277986 26.873965 
L 112.291281 25.519691 
L 112.387008 25.527576 
L 112.410939 25.529541 
L 112.424235 34.463041 
L 112.52528 34.446142 
L 112.942755 34.377967 
L 112.95605 25.444173 
L 113.051777 25.452133 
L 113.075709 25.454117 
L 113.184731 26.813252 
L 113.208662 26.814067 
L 113.221958 25.459802 
L 113.317684 25.467679 
L 113.341616 25.469643 
L 113.354912 34.403183 
L 113.455956 34.387089 
L 113.873431 34.322136 
L 113.886727 25.38838 
L 113.982453 25.396321 
L 114.006385 25.3983 
L 114.115407 26.757562 
L 114.139339 26.758408 
L 114.152634 25.404148 
L 114.248361 25.412006 
L 114.272293 25.413964 
L 114.285588 34.34754 
L 114.386633 34.332193 
L 114.804108 34.270233 
L 114.817403 25.336509 
L 114.91313 25.344419 
L 114.937062 25.34639 
L 115.046084 26.705758 
L 115.070016 26.706629 
L 115.083311 25.352373 
L 115.179038 25.360198 
L 115.202969 25.362148 
L 115.216265 34.295756 
L 115.31731 34.281103 
L 115.734785 34.221928 
L 115.74808 25.288233 
L 115.843807 25.2961 
L 115.867738 25.298061 
L 115.976761 26.657515 
L 116.000692 26.658407 
L 116.013988 25.304154 
L 116.109714 25.311934 
L 116.133646 25.313872 
L 116.146941 34.247509 
L 116.247986 34.233504 
L 116.665461 34.176924 
L 116.678757 25.243256 
L 116.774483 25.25107 
L 116.798415 25.253017 
L 116.907437 26.61254 
L 116.931369 26.613449 
L 116.944664 25.259196 
L 117.040391 25.266921 
L 117.064323 25.268847 
L 117.077618 34.202509 
L 117.178663 34.189107 
L 117.596138 34.134953 
L 117.609433 25.201308 
L 117.70516 25.209059 
L 117.729092 25.210991 
L 117.838114 26.570566 
L 117.862046 26.571488 
L 117.875341 25.217234 
L 117.971068 25.224896 
L 117.994999 25.226805 
L 118.008295 34.160491 
L 118.10934 34.147654 
L 118.526815 34.095767 
L 118.54011 25.162142 
L 118.635837 25.169823 
L 118.659768 25.171737 
L 118.76879 26.53135 
L 118.792722 26.532282 
L 118.806018 25.178025 
L 118.901744 25.185614 
L 118.925676 25.187506 
L 118.938971 34.121211 
L 119.040016 34.108903 
L 119.457491 34.059139 
L 119.470787 25.125533 
L 119.566513 25.133135 
L 119.590445 25.135029 
L 119.699467 26.494665 
L 119.723399 26.495604 
L 119.736694 25.141343 
L 119.832421 25.148853 
L 119.856353 25.150724 
L 119.869648 34.084448 
L 119.970693 34.072634 
L 120.388168 34.024858 
L 120.401463 25.091268 
L 120.49719 25.098783 
L 120.521122 25.100655 
L 120.630144 26.460303 
L 120.654075 26.461246 
L 120.667371 25.106979 
L 120.763098 25.114402 
L 120.787029 25.116251 
L 120.800325 34.049991 
L 120.90137 34.03864 
L 121.318844 33.992725 
L 121.33214 25.059148 
L 121.427867 25.06657 
L 121.451798 25.068419 
L 121.56082 26.428066 
L 121.584752 26.42901 
L 121.598047 25.074737 
L 121.693774 25.082065 
L 121.717706 25.083891 
L 121.731001 34.017644 
L 121.832046 34.006727 
L 122.249521 33.962552 
L 122.262817 25.028987 
L 122.358543 25.036309 
L 122.382475 25.038133 
L 122.491497 26.397768 
L 122.515429 26.398711 
L 122.528724 25.04443 
L 122.624451 25.051657 
L 122.648383 25.053458 
L 122.661678 33.987223 
L 122.762723 33.976711 
L 123.180198 33.934163 
L 123.193493 25.000608 
L 123.28922 25.007824 
L 123.313152 25.009622 
L 123.422174 26.369234 
L 123.446105 26.370173 
L 123.459401 25.015883 
L 123.555128 25.023004 
L 123.579059 25.024778 
L 123.592355 33.958552 
L 123.693399 33.948419 
L 124.110874 33.907393 
L 124.12417 28.647 
L 156.516239 29.687621 
L 216.510086 31.238919 
L 260.286844 32.480356 
L 289.551397 33.473724 
L 317.2125 34.65311 
L 329.970418 35.359667 
L 341.69249 36.185952 
L 352.126156 37.168145 
L 361.079099 38.336798 
L 368.470604 39.70779 
L 374.346327 41.276876 
L 378.85599 43.019691 
L 382.210931 44.895574 
L 384.640816 46.852168 
L 386.361505 48.828836 
L 387.557392 50.759098 
L 388.375809 52.574149 
L 389.299713 55.618603 
L 389.909008 58.999139 
L 390.031782 59.977931 
L 390.031782 59.977931 
" clip-path="url(#pef79baf81b)" style="fill: none; stroke: #ff0000; stroke-width: 1.5; stroke-linecap: square"/>
   </g>
   <g id="line2d_16">
    <path d="M 75.728984 227.859994 
L 95.65876 227.863893 
L 95.7731 235.496126 
L 96.190575 235.496295 
L 96.299597 227.767659 
L 96.589437 227.767776 
L 96.703777 235.496503 
L 97.121252 235.496679 
L 97.230274 227.768045 
L 97.520113 227.768166 
L 97.634453 235.496895 
L 98.051928 235.497078 
L 98.160951 227.768446 
L 98.45079 227.768571 
L 98.56513 235.497303 
L 98.982605 235.497492 
L 99.091627 227.768861 
L 99.381466 227.768991 
L 99.495807 235.497725 
L 99.913282 235.497921 
L 100.022304 227.769292 
L 100.312143 227.769427 
L 100.426483 235.498161 
L 100.843958 235.498364 
L 100.95298 227.769737 
L 101.24282 227.769877 
L 101.35716 235.498613 
L 101.774635 235.498823 
L 101.883657 227.770198 
L 102.173496 227.770342 
L 102.287837 235.49908 
L 102.705312 235.499297 
L 102.814334 227.770673 
L 103.104173 227.770821 
L 103.218513 235.499562 
L 103.635988 235.499785 
L 103.74501 227.771163 
L 104.03485 227.771316 
L 104.14919 235.500059 
L 104.566665 235.500289 
L 104.675687 227.771668 
L 104.965526 227.771826 
L 105.079867 235.50057 
L 105.497342 235.500807 
L 105.606364 227.772188 
L 105.896203 227.772351 
L 106.010543 235.501097 
L 106.428018 235.50134 
L 106.53704 227.772724 
L 106.82688 227.77289 
L 106.94122 235.501638 
L 107.358695 235.501889 
L 107.467717 227.773274 
L 107.757556 227.773445 
L 107.871897 235.502195 
L 108.289371 235.502452 
L 108.398394 227.773839 
L 108.688233 227.774015 
L 108.802573 235.502766 
L 109.220048 235.50303 
L 109.32907 227.774418 
L 109.61891 227.774599 
L 109.73325 235.503353 
L 110.150725 235.503623 
L 110.259747 227.775013 
L 110.549586 227.775199 
L 110.663926 235.503954 
L 111.081401 235.504231 
L 111.190424 227.775623 
L 111.480263 227.775813 
L 111.594603 235.50457 
L 112.012078 235.504854 
L 112.1211 227.776248 
L 112.410939 227.776442 
L 112.52528 235.505201 
L 112.942755 235.505492 
L 113.051777 227.776888 
L 113.341616 227.777087 
L 113.455956 235.505847 
L 113.873431 235.506145 
L 113.982453 227.777542 
L 114.272293 227.777746 
L 114.386633 235.506509 
L 114.804108 235.506813 
L 114.91313 227.778212 
L 115.202969 227.77842 
L 115.31731 235.507185 
L 115.734785 235.507496 
L 115.843807 227.778897 
L 116.133646 227.779109 
L 116.247986 235.507876 
L 116.665461 235.508194 
L 116.774483 227.779596 
L 117.064323 227.779813 
L 117.178663 235.508582 
L 117.596138 235.508906 
L 117.70516 227.780311 
L 117.994999 227.780532 
L 118.10934 235.509303 
L 118.526815 235.509634 
L 118.635837 227.78104 
L 118.925676 227.781266 
L 119.040016 235.510038 
L 119.457491 235.510377 
L 119.566513 227.781784 
L 119.856353 227.782015 
L 119.970693 235.510789 
L 120.388168 235.511134 
L 120.49719 227.782544 
L 120.787029 227.782779 
L 120.90137 235.511555 
L 121.318844 235.511907 
L 121.427867 227.783318 
L 121.717706 227.783558 
L 121.832046 235.512336 
L 122.249521 235.512695 
L 122.358543 227.784108 
L 122.648383 227.784352 
L 122.762723 235.513132 
L 123.180198 235.513497 
L 123.28922 227.784912 
L 123.579059 227.785161 
L 123.693399 235.513942 
L 124.110874 235.514315 
L 124.12417 227.88214 
L 390.031782 228.10118 
L 390.031782 228.10118 
" clip-path="url(#pef79baf81b)" style="fill: none; stroke-dasharray: 5.55,2.4; stroke-dashoffset: 0; stroke: #0000ff; stroke-width: 1.5"/>
   </g>
   <g id="line2d_17">
    <path d="M 75.728984 61.886365 
L 95.65876 61.882466 
L 95.7731 67.142524 
L 96.190575 67.142355 
L 96.299597 58.208639 
L 96.323529 58.208629 
L 96.432551 59.563649 
L 96.456483 59.56364 
L 96.565505 58.208532 
L 96.589437 58.208522 
L 96.703777 67.142147 
L 97.121252 67.141971 
L 97.230274 58.208253 
L 97.254206 58.208243 
L 97.363228 59.563262 
L 97.387159 59.563252 
L 97.496181 58.208142 
L 97.520113 58.208132 
L 97.634453 67.141754 
L 98.051928 67.141572 
L 98.160951 58.207852 
L 98.184882 58.207842 
L 98.293904 59.562859 
L 98.317836 59.562849 
L 98.426858 58.207737 
L 98.45079 58.207727 
L 98.56513 67.141347 
L 98.982605 67.141158 
L 99.091627 58.207437 
L 99.115559 58.207426 
L 99.224581 59.562441 
L 99.248513 59.562431 
L 99.357535 58.207317 
L 99.381466 58.207306 
L 99.495807 67.140925 
L 99.913282 67.140729 
L 100.022304 58.207006 
L 100.046235 58.206995 
L 100.155258 59.562009 
L 100.179189 59.561998 
L 100.288211 58.206883 
L 100.312143 58.206871 
L 100.426483 67.140488 
L 100.843958 67.140286 
L 100.95298 58.206561 
L 100.976912 58.206549 
L 101.085934 59.561561 
L 101.109866 59.56155 
L 101.218888 58.206433 
L 101.24282 58.206421 
L 101.35716 67.140036 
L 101.774635 67.139827 
L 101.883657 58.2061 
L 101.907589 58.206088 
L 102.016611 59.561099 
L 102.040543 59.561087 
L 102.149565 58.205968 
L 102.173496 58.205956 
L 102.287837 67.13957 
L 102.705312 67.139353 
L 102.814334 58.205625 
L 102.838265 58.205613 
L 102.947288 59.560621 
L 102.971219 59.560609 
L 103.080241 58.205489 
L 103.104173 58.205476 
L 103.218513 67.139088 
L 103.635988 67.138865 
L 103.74501 58.205135 
L 103.768942 58.205122 
L 103.877964 59.560129 
L 103.901896 59.560116 
L 104.010918 58.204994 
L 104.03485 58.204982 
L 104.14919 67.138591 
L 104.566665 67.138361 
L 104.675687 58.20463 
L 104.699619 58.204616 
L 104.808641 59.559622 
L 104.832573 59.559609 
L 104.941595 58.204485 
L 104.965526 58.204472 
L 105.079867 67.13808 
L 105.497342 67.137843 
L 105.606364 58.204109 
L 105.630295 58.204096 
L 105.739317 59.559099 
L 105.763249 59.559086 
L 105.872271 58.203961 
L 105.896203 58.203947 
L 106.010543 67.137553 
L 106.428018 67.13731 
L 106.53704 58.203574 
L 106.560972 58.20356 
L 106.669994 59.558562 
L 106.693926 59.558549 
L 106.802948 58.203421 
L 106.82688 58.203407 
L 106.94122 67.137012 
L 107.358695 67.136761 
L 107.467717 58.203024 
L 107.491649 58.20301 
L 107.600671 59.55801 
L 107.624602 59.557996 
L 107.733625 58.202867 
L 107.757556 58.202853 
L 107.871897 67.136455 
L 108.289371 67.136198 
L 108.398394 58.202459 
L 108.422325 58.202445 
L 108.531347 59.557443 
L 108.555279 59.557429 
L 108.664301 58.202298 
L 108.688233 58.202283 
L 108.802573 67.135884 
L 109.220048 67.13562 
L 109.32907 58.201879 
L 109.353002 58.201864 
L 109.462024 59.556861 
L 109.485956 59.556846 
L 109.594978 58.201714 
L 109.61891 58.201699 
L 109.73325 67.135297 
L 110.150725 67.135027 
L 110.259747 58.201284 
L 110.283679 58.201269 
L 110.392701 59.556264 
L 110.416632 59.556249 
L 110.525655 58.201115 
L 110.549586 58.201099 
L 110.663926 67.134696 
L 111.081401 67.134419 
L 111.190424 58.200675 
L 111.214355 58.200659 
L 111.323377 59.555652 
L 111.347309 59.555637 
L 111.456331 58.200501 
L 111.480263 58.200485 
L 111.594603 67.13408 
L 112.012078 67.133796 
L 112.1211 58.20005 
L 112.145032 58.200034 
L 112.254054 59.555025 
L 112.277986 59.555009 
L 112.387008 58.199872 
L 112.410939 58.199856 
L 112.52528 67.133449 
L 112.942755 67.133158 
L 113.051777 58.19941 
L 113.075709 58.199394 
L 113.184731 59.554383 
L 113.208662 59.554367 
L 113.317684 58.199228 
L 113.341616 58.199211 
L 113.455956 67.132802 
L 113.873431 67.132505 
L 113.982453 58.198756 
L 114.006385 58.198739 
L 114.115407 59.553727 
L 114.139339 59.55371 
L 114.248361 58.198569 
L 114.272293 58.198552 
L 114.386633 67.132141 
L 114.804108 67.131837 
L 114.91313 58.198086 
L 114.937062 58.198069 
L 115.046084 59.553055 
L 115.070016 59.553038 
L 115.179038 58.197895 
L 115.202969 58.197878 
L 115.31731 67.131465 
L 115.734785 67.131154 
L 115.843807 58.197401 
L 115.867738 58.197384 
L 115.976761 59.552368 
L 116.000692 59.552351 
L 116.109714 58.197207 
L 116.133646 58.197189 
L 116.247986 67.130774 
L 116.665461 67.130456 
L 116.774483 58.196702 
L 116.798415 58.196684 
L 116.907437 59.551667 
L 116.931369 59.551649 
L 117.040391 58.196503 
L 117.064323 58.196485 
L 117.178663 67.130068 
L 117.596138 67.129743 
L 117.70516 58.195987 
L 117.729092 58.195969 
L 117.838114 59.55095 
L 117.862046 59.550932 
L 117.971068 58.195784 
L 117.994999 58.195765 
L 118.10934 67.129347 
L 118.526815 67.129016 
L 118.635837 58.195258 
L 118.659768 58.195239 
L 118.76879 59.550219 
L 118.792722 59.5502 
L 118.901744 58.19505 
L 118.925676 58.195031 
L 119.040016 67.128611 
L 119.457491 67.128273 
L 119.566513 58.194513 
L 119.590445 58.194494 
L 119.699467 59.549472 
L 119.723399 59.549453 
L 119.832421 58.194302 
L 119.856353 58.194282 
L 119.970693 67.127861 
L 120.388168 67.127515 
L 120.49719 58.193754 
L 120.521122 58.193734 
L 120.630144 59.548711 
L 120.654075 59.548691 
L 120.763098 58.193538 
L 120.787029 58.193518 
L 120.90137 67.127095 
L 121.318844 67.126743 
L 121.427867 58.19298 
L 121.451798 58.19296 
L 121.56082 59.547934 
L 121.584752 59.547915 
L 121.693774 58.19276 
L 121.717706 58.19274 
L 121.832046 67.126314 
L 122.249521 67.125955 
L 122.358543 58.19219 
L 122.382475 58.19217 
L 122.491497 59.547143 
L 122.515429 59.547123 
L 122.624451 58.191966 
L 122.648383 58.191946 
L 122.762723 67.125518 
L 123.180198 67.125153 
L 123.28922 58.191386 
L 123.313152 58.191365 
L 123.422174 59.546336 
L 123.446105 59.546316 
L 123.555128 58.191158 
L 123.579059 58.191137 
L 123.693399 67.124707 
L 124.110874 67.124335 
L 124.12417 61.86422 
L 390.031782 61.645179 
L 390.031782 61.645179 
" clip-path="url(#pef79baf81b)" style="fill: none; stroke-dasharray: 5.55,2.4; stroke-dashoffset: 0; stroke: #ff0000; stroke-width: 1.5"/>
   </g>
   <g id="patch_3">
    <path d="M 60.013844 246.04 
L 60.013844 14.474923 
" style="fill: none; stroke: #000000; stroke-width: 0.8; stroke-linejoin: miter; stroke-linecap: square"/>
   </g>
   <g id="patch_4">
    <path d="M 405.746922 246.04 
L 405.746922 14.474923 
" style="fill: none; stroke: #000000; stroke-width: 0.8; stroke-linejoin: miter; stroke-linecap: square"/>
   </g>
   <g id="patch_5">
    <path d="M 60.013844 246.04 
L 405.746922 246.04 
" style="fill: none; stroke: #000000; stroke-width: 0.8; stroke-linejoin: miter; stroke-linecap: square"/>
   </g>
   <g id="patch_6">
    <path d="M 60.013844 14.474923 
L 405.746922 14.474923 
" style="fill: none; stroke: #000000; stroke-width: 0.8; stroke-linejoin: miter; stroke-linecap: square"/>
   </g>
  </g>
  <g id="axes_2">
   <g id="patch_7">
    <path d="M 453.466922 246.04 
L 799.2 246.04 
L 799.2 14.474923 
L 453.466922 14.474923 
z
" style="fill: #ffffff"/>
   </g>
   <g id="matplotlib.axis_3">
    <g id="xtick_6">
     <g id="line2d_18">
      <g>
       <use xlink:href="#m113dc7a75e" x="475.07524" y="246.04" style="stroke: #000000; stroke-width: 0.8"/>
      </g>
     </g>
     <g id="text_16">
      <!-- 400 -->
      <g transform="translate(465.53149 260.638438) scale(0.1 -0.1)">
       <defs>
        <path id="DejaVuSans-34" d="M 2419 4116 
L 825 1625 
L 2419 1625 
L 2419 4116 
z
M 2253 4666 
L 3047 4666 
L 3047 1625 
L 3713 1625 
L 3713 1100 
L 3047 1100 
L 3047 0 
L 2419 0 
L 2419 1100 
L 313 1100 
L 313 1709 
L 2253 4666 
z
" transform="scale(0.015625)"/>
       </defs>
       <use xlink:href="#DejaVuSans-34"/>
       <use xlink:href="#DejaVuSans-30" x="63.623047"/>
       <use xlink:href="#DejaVuSans-30" x="127.246094"/>
      </g>
     </g>
    </g>
    <g id="xtick_7">
     <g id="line2d_19">
      <g>
       <use xlink:href="#m113dc7a75e" x="518.291874" y="246.04" style="stroke: #000000; stroke-width: 0.8"/>
      </g>
     </g>
     <g id="text_17">
      <!-- 500 -->
      <g transform="translate(508.748124 260.638438) scale(0.1 -0.1)">
       <use xlink:href="#DejaVuSans-35"/>
       <use xlink:href="#DejaVuSans-30" x="63.623047"/>
       <use xlink:href="#DejaVuSans-30" x="127.246094"/>
      </g>
     </g>
    </g>
    <g id="xtick_8">
     <g id="line2d_20">
      <g>
       <use xlink:href="#m113dc7a75e" x="561.508509" y="246.04" style="stroke: #000000; stroke-width: 0.8"/>
      </g>
     </g>
     <g id="text_18">
      <!-- 600 -->
      <g transform="translate(551.964759 260.638438) scale(0.1 -0.1)">
       <defs>
        <path id="DejaVuSans-36" d="M 2113 2584 
Q 1688 2584 1439 2293 
Q 1191 2003 1191 1497 
Q 1191 994 1439 701 
Q 1688 409 2113 409 
Q 2538 409 2786 701 
Q 3034 994 3034 1497 
Q 3034 2003 2786 2293 
Q 2538 2584 2113 2584 
z
M 3366 4563 
L 3366 3988 
Q 3128 4100 2886 4159 
Q 2644 4219 2406 4219 
Q 1781 4219 1451 3797 
Q 1122 3375 1075 2522 
Q 1259 2794 1537 2939 
Q 1816 3084 2150 3084 
Q 2853 3084 3261 2657 
Q 3669 2231 3669 1497 
Q 3669 778 3244 343 
Q 2819 -91 2113 -91 
Q 1303 -91 875 529 
Q 447 1150 447 2328 
Q 447 3434 972 4092 
Q 1497 4750 2381 4750 
Q 2619 4750 2861 4703 
Q 3103 4656 3366 4563 
z
" transform="scale(0.015625)"/>
       </defs>
       <use xlink:href="#DejaVuSans-36"/>
       <use xlink:href="#DejaVuSans-30" x="63.623047"/>
       <use xlink:href="#DejaVuSans-30" x="127.246094"/>
      </g>
     </g>
    </g>
    <g id="xtick_9">
     <g id="line2d_21">
      <g>
       <use xlink:href="#m113dc7a75e" x="604.725144" y="246.04" style="stroke: #000000; stroke-width: 0.8"/>
      </g>
     </g>
     <g id="text_19">
      <!-- 700 -->
      <g transform="translate(595.181394 260.638438) scale(0.1 -0.1)">
       <use xlink:href="#DejaVuSans-37"/>
       <use xlink:href="#DejaVuSans-30" x="63.623047"/>
       <use xlink:href="#DejaVuSans-30" x="127.246094"/>
      </g>
     </g>
    </g>
    <g id="xtick_10">
     <g id="line2d_22">
      <g>
       <use xlink:href="#m113dc7a75e" x="647.941778" y="246.04" style="stroke: #000000; stroke-width: 0.8"/>
      </g>
     </g>
     <g id="text_20">
      <!-- 800 -->
      <g transform="translate(638.398028 260.638438) scale(0.1 -0.1)">
       <defs>
        <path id="DejaVuSans-38" d="M 2034 2216 
Q 1584 2216 1326 1975 
Q 1069 1734 1069 1313 
Q 1069 891 1326 650 
Q 1584 409 2034 409 
Q 2484 409 2743 651 
Q 3003 894 3003 1313 
Q 3003 1734 2745 1975 
Q 2488 2216 2034 2216 
z
M 1403 2484 
Q 997 2584 770 2862 
Q 544 3141 544 3541 
Q 544 4100 942 4425 
Q 1341 4750 2034 4750 
Q 2731 4750 3128 4425 
Q 3525 4100 3525 3541 
Q 3525 3141 3298 2862 
Q 3072 2584 2669 2484 
Q 3125 2378 3379 2068 
Q 3634 1759 3634 1313 
Q 3634 634 3220 271 
Q 2806 -91 2034 -91 
Q 1263 -91 848 271 
Q 434 634 434 1313 
Q 434 1759 690 2068 
Q 947 2378 1403 2484 
z
M 1172 3481 
Q 1172 3119 1398 2916 
Q 1625 2713 2034 2713 
Q 2441 2713 2670 2916 
Q 2900 3119 2900 3481 
Q 2900 3844 2670 4047 
Q 2441 4250 2034 4250 
Q 1625 4250 1398 4047 
Q 1172 3844 1172 3481 
z
" transform="scale(0.015625)"/>
       </defs>
       <use xlink:href="#DejaVuSans-38"/>
       <use xlink:href="#DejaVuSans-30" x="63.623047"/>
       <use xlink:href="#DejaVuSans-30" x="127.246094"/>
      </g>
     </g>
    </g>
    <g id="xtick_11">
     <g id="line2d_23">
      <g>
       <use xlink:href="#m113dc7a75e" x="691.158413" y="246.04" style="stroke: #000000; stroke-width: 0.8"/>
      </g>
     </g>
     <g id="text_21">
      <!-- 900 -->
      <g transform="translate(681.614663 260.638438) scale(0.1 -0.1)">
       <use xlink:href="#DejaVuSans-39"/>
       <use xlink:href="#DejaVuSans-30" x="63.623047"/>
       <use xlink:href="#DejaVuSans-30" x="127.246094"/>
      </g>
     </g>
    </g>
    <g id="xtick_12">
     <g id="line2d_24">
      <g>
       <use xlink:href="#m113dc7a75e" x="734.375048" y="246.04" style="stroke: #000000; stroke-width: 0.8"/>
      </g>
     </g>
     <g id="text_22">
      <!-- 1000 -->
      <g transform="translate(721.650048 260.638438) scale(0.1 -0.1)">
       <use xlink:href="#DejaVuSans-31"/>
       <use xlink:href="#DejaVuSans-30" x="63.623047"/>
       <use xlink:href="#DejaVuSans-30" x="127.246094"/>
       <use xlink:href="#DejaVuSans-30" x="190.869141"/>
      </g>
     </g>
    </g>
    <g id="xtick_13">
     <g id="line2d_25">
      <g>
       <use xlink:href="#m113dc7a75e" x="777.591683" y="246.04" style="stroke: #000000; stroke-width: 0.8"/>
      </g>
     </g>
     <g id="text_23">
      <!-- 1100 -->
      <g transform="translate(764.866683 260.638438) scale(0.1 -0.1)">
       <use xlink:href="#DejaVuSans-31"/>
       <use xlink:href="#DejaVuSans-31" x="63.623047"/>
       <use xlink:href="#DejaVuSans-30" x="127.246094"/>
       <use xlink:href="#DejaVuSans-30" x="190.869141"/>
      </g>
     </g>
    </g>
    <g id="text_24">
     <!-- Wavelength (nm) -->
     <g transform="translate(583.141274 274.316562) scale(0.1 -0.1)">
      <defs>
       <path id="DejaVuSans-57" d="M 213 4666 
L 850 4666 
L 1831 722 
L 2809 4666 
L 3519 4666 
L 4500 722 
L 5478 4666 
L 6119 4666 
L 4947 0 
L 4153 0 
L 3169 4050 
L 2175 0 
L 1381 0 
L 213 4666 
z
" transform="scale(0.015625)"/>
       <path id="DejaVuSans-76" d="M 191 3500 
L 800 3500 
L 1894 563 
L 2988 3500 
L 3597 3500 
L 2284 0 
L 1503 0 
L 191 3500 
z
" transform="scale(0.015625)"/>
       <path id="DejaVuSans-6c" d="M 603 4863 
L 1178 4863 
L 1178 0 
L 603 0 
L 603 4863 
z
" transform="scale(0.015625)"/>
       <path id="DejaVuSans-67" d="M 2906 1791 
Q 2906 2416 2648 2759 
Q 2391 3103 1925 3103 
Q 1463 3103 1205 2759 
Q 947 2416 947 1791 
Q 947 1169 1205 825 
Q 1463 481 1925 481 
Q 2391 481 2648 825 
Q 2906 1169 2906 1791 
z
M 3481 434 
Q 3481 -459 3084 -895 
Q 2688 -1331 1869 -1331 
Q 1566 -1331 1297 -1286 
Q 1028 -1241 775 -1147 
L 775 -588 
Q 1028 -725 1275 -790 
Q 1522 -856 1778 -856 
Q 2344 -856 2625 -561 
Q 2906 -266 2906 331 
L 2906 616 
Q 2728 306 2450 153 
Q 2172 0 1784 0 
Q 1141 0 747 490 
Q 353 981 353 1791 
Q 353 2603 747 3093 
Q 1141 3584 1784 3584 
Q 2172 3584 2450 3431 
Q 2728 3278 2906 2969 
L 2906 3500 
L 3481 3500 
L 3481 434 
z
" transform="scale(0.015625)"/>
       <path id="DejaVuSans-68" d="M 3513 2113 
L 3513 0 
L 2938 0 
L 2938 2094 
Q 2938 2591 2744 2837 
Q 2550 3084 2163 3084 
Q 1697 3084 1428 2787 
Q 1159 2491 1159 1978 
L 1159 0 
L 581 0 
L 581 4863 
L 1159 4863 
L 1159 2956 
Q 1366 3272 1645 3428 
Q 1925 3584 2291 3584 
Q 2894 3584 3203 3211 
Q 3513 2838 3513 2113 
z
" transform="scale(0.015625)"/>
      </defs>
      <use xlink:href="#DejaVuSans-57"/>
      <use xlink:href="#DejaVuSans-61" x="92.501953"/>
      <use xlink:href="#DejaVuSans-76" x="153.78125"/>
      <use xlink:href="#DejaVuSans-65" x="212.960938"/>
      <use xlink:href="#DejaVuSans-6c" x="274.484375"/>
      <use xlink:href="#DejaVuSans-65" x="302.267578"/>
      <use xlink:href="#DejaVuSans-6e" x="363.791016"/>
      <use xlink:href="#DejaVuSans-67" x="427.169922"/>
      <use xlink:href="#DejaVuSans-74" x="490.646484"/>
      <use xlink:href="#DejaVuSans-68" x="529.855469"/>
      <use xlink:href="#DejaVuSans-20" x="593.234375"/>
      <use xlink:href="#DejaVuSans-28" x="625.021484"/>
      <use xlink:href="#DejaVuSans-6e" x="664.035156"/>
      <use xlink:href="#DejaVuSans-6d" x="727.414062"/>
      <use xlink:href="#DejaVuSans-29" x="824.826172"/>
     </g>
    </g>
   </g>
   <g id="matplotlib.axis_4">
    <g id="ytick_9">
     <g id="line2d_26">
      <g>
       <use xlink:href="#m22cadb0d8d" x="453.466922" y="246.04" style="stroke: #000000; stroke-width: 0.8"/>
      </g>
     </g>
     <g id="text_25">
      <!-- 0.0 -->
      <g transform="translate(430.563797 249.839219) scale(0.1 -0.1)">
       <defs>
        <path id="DejaVuSans-2e" d="M 684 794 
L 1344 794 
L 1344 0 
L 684 0 
L 684 794 
z
" transform="scale(0.015625)"/>
       </defs>
       <use xlink:href="#DejaVuSans-30"/>
       <use xlink:href="#DejaVuSans-2e" x="63.623047"/>
       <use xlink:href="#DejaVuSans-30" x="95.410156"/>
      </g>
     </g>
    </g>
    <g id="ytick_10">
     <g id="line2d_27">
      <g>
       <use xlink:href="#m22cadb0d8d" x="453.466922" y="203.937259" style="stroke: #000000; stroke-width: 0.8"/>
      </g>
     </g>
     <g id="text_26">
      <!-- 0.2 -->
      <g transform="translate(430.563797 207.736478) scale(0.1 -0.1)">
       <use xlink:href="#DejaVuSans-30"/>
       <use xlink:href="#DejaVuSans-2e" x="63.623047"/>
       <use xlink:href="#DejaVuSans-32" x="95.410156"/>
      </g>
     </g>
    </g>
    <g id="ytick_11">
     <g id="line2d_28">
      <g>
       <use xlink:href="#m22cadb0d8d" x="453.466922" y="161.834518" style="stroke: #000000; stroke-width: 0.8"/>
      </g>
     </g>
     <g id="text_27">
      <!-- 0.4 -->
      <g transform="translate(430.563797 165.633736) scale(0.1 -0.1)">
       <use xlink:href="#DejaVuSans-30"/>
       <use xlink:href="#DejaVuSans-2e" x="63.623047"/>
       <use xlink:href="#DejaVuSans-34" x="95.410156"/>
      </g>
     </g>
    </g>
    <g id="ytick_12">
     <g id="line2d_29">
      <g>
       <use xlink:href="#m22cadb0d8d" x="453.466922" y="119.731776" style="stroke: #000000; stroke-width: 0.8"/>
      </g>
     </g>
     <g id="text_28">
      <!-- 0.6 -->
      <g transform="translate(430.563797 123.530995) scale(0.1 -0.1)">
       <use xlink:href="#DejaVuSans-30"/>
       <use xlink:href="#DejaVuSans-2e" x="63.623047"/>
       <use xlink:href="#DejaVuSans-36" x="95.410156"/>
      </g>
     </g>
    </g>
    <g id="ytick_13">
     <g id="line2d_30">
      <g>
       <use xlink:href="#m22cadb0d8d" x="453.466922" y="77.629035" style="stroke: #000000; stroke-width: 0.8"/>
      </g>
     </g>
     <g id="text_29">
      <!-- 0.8 -->
      <g transform="translate(430.563797 81.428254) scale(0.1 -0.1)">
       <use xlink:href="#DejaVuSans-30"/>
       <use xlink:href="#DejaVuSans-2e" x="63.623047"/>
       <use xlink:href="#DejaVuSans-38" x="95.410156"/>
      </g>
     </g>
    </g>
    <g id="ytick_14">
     <g id="line2d_31">
      <g>
       <use xlink:href="#m22cadb0d8d" x="453.466922" y="35.526294" style="stroke: #000000; stroke-width: 0.8"/>
      </g>
     </g>
     <g id="text_30">
      <!-- 1.0 -->
      <g transform="translate(430.563797 39.325513) scale(0.1 -0.1)">
       <use xlink:href="#DejaVuSans-31"/>
       <use xlink:href="#DejaVuSans-2e" x="63.623047"/>
       <use xlink:href="#DejaVuSans-30" x="95.410156"/>
      </g>
     </g>
    </g>
    <g id="text_31">
     <!-- EQE -->
     <g transform="translate(424.48411 140.512149) rotate(-90) scale(0.1 -0.1)">
      <defs>
       <path id="DejaVuSans-45" d="M 628 4666 
L 3578 4666 
L 3578 4134 
L 1259 4134 
L 1259 2753 
L 3481 2753 
L 3481 2222 
L 1259 2222 
L 1259 531 
L 3634 531 
L 3634 0 
L 628 0 
L 628 4666 
z
" transform="scale(0.015625)"/>
       <path id="DejaVuSans-51" d="M 2522 4238 
Q 1834 4238 1429 3725 
Q 1025 3213 1025 2328 
Q 1025 1447 1429 934 
Q 1834 422 2522 422 
Q 3209 422 3611 934 
Q 4013 1447 4013 2328 
Q 4013 3213 3611 3725 
Q 3209 4238 2522 4238 
z
M 3406 84 
L 4238 -825 
L 3475 -825 
L 2784 -78 
Q 2681 -84 2626 -87 
Q 2572 -91 2522 -91 
Q 1538 -91 948 567 
Q 359 1225 359 2328 
Q 359 3434 948 4092 
Q 1538 4750 2522 4750 
Q 3503 4750 4090 4092 
Q 4678 3434 4678 2328 
Q 4678 1516 4351 937 
Q 4025 359 3406 84 
z
" transform="scale(0.015625)"/>
      </defs>
      <use xlink:href="#DejaVuSans-45"/>
      <use xlink:href="#DejaVuSans-51" x="63.183594"/>
      <use xlink:href="#DejaVuSans-45" x="141.894531"/>
     </g>
    </g>
   </g>
   <g id="line2d_32">
    <path d="M 453.466922 246.705456 
L 466.575968 246.822318 
L 478.676626 247.039007 
L 514.978599 247.920193 
L 546.238631 249.307523 
L 576.490276 250.540357 
L 597.666427 251.225391 
L 613.800637 251.55659 
L 628.926459 251.560292 
L 659.178103 251.322192 
L 663.211656 250.968468 
L 668.253597 250.317063 
L 674.303926 249.274761 
L 680.354255 247.867274 
L 682.371031 247.317888 
L 683.379419 246.766313 
L 684.387807 246.99653 
L 685.396195 246.926247 
L 686.404583 246.248459 
L 690.438136 246.160508 
L 706.572346 246.04 
L 755.983365 246.04 
L 755.983365 246.04 
" clip-path="url(#pb1d7b27d15)" style="fill: none; stroke: #0000ff; stroke-width: 1.5; stroke-linecap: square"/>
   </g>
   <g id="line2d_33">
    <path d="M 453.466922 114.535074 
L 455.483699 117.7119 
L 457.500475 119.099863 
L 458.508863 119.345306 
L 459.517251 119.425285 
L 460.525639 119.205792 
L 461.534027 118.760472 
L 462.542416 118.104384 
L 463.550804 117.205984 
L 465.56758 115.020865 
L 467.584356 112.330169 
L 469.601133 109.213023 
L 471.617909 104.292113 
L 473.634685 98.881788 
L 476.65985 90.696391 
L 480.693402 80.188021 
L 483.718567 73.463958 
L 485.735343 69.001609 
L 486.743731 66.927865 
L 490.777284 56.50917 
L 492.79406 51.879479 
L 493.802448 49.893854 
L 495.819224 47.051151 
L 496.827612 45.78482 
L 498.844389 43.75685 
L 500.861165 42.094605 
L 502.877941 40.855259 
L 504.894718 39.882975 
L 506.911494 39.19243 
L 508.92827 38.681481 
L 511.953435 38.214149 
L 514.978599 38.024915 
L 518.003763 38.017595 
L 523.045704 38.272934 
L 533.129586 39.129655 
L 543.213467 39.832347 
L 551.280572 40.150429 
L 558.339289 40.206868 
L 566.406394 40.035468 
L 578.507052 39.52295 
L 599.683203 38.673248 
L 605.733532 38.675424 
L 610.775473 38.881154 
L 614.809025 39.249848 
L 623.884518 40.536806 
L 632.960012 42.296656 
L 638.001952 43.455112 
L 643.043893 44.156183 
L 648.085834 45.120157 
L 652.119386 46.744643 
L 656.152939 48.636509 
L 659.178103 50.215505 
L 660.186492 51.679003 
L 661.19488 54.352297 
L 663.211656 58.809056 
L 665.228432 64.301526 
L 667.245209 71.047223 
L 669.261985 79.315683 
L 671.278761 89.426157 
L 673.295538 100.813307 
L 674.303926 107.180405 
L 675.312314 114.895748 
L 676.320702 119.59787 
L 677.32909 130.992526 
L 679.345866 150.819786 
L 681.362643 173.659683 
L 682.371031 186.625681 
L 683.379419 209.420933 
L 684.387807 206.24667 
L 685.396195 211.423062 
L 686.404583 235.657406 
L 687.412972 237.464438 
L 698.505241 245.601255 
L 699.513629 246.039562 
L 755.983365 246.04 
L 755.983365 246.04 
" clip-path="url(#pb1d7b27d15)" style="fill: none; stroke: #000000; stroke-width: 1.5; stroke-linecap: square"/>
   </g>
   <g id="patch_8">
    <path d="M 453.466922 246.04 
L 453.466922 14.474923 
" style="fill: none; stroke: #000000; stroke-width: 0.8; stroke-linejoin: miter; stroke-linecap: square"/>
   </g>
   <g id="patch_9">
    <path d="M 799.2 246.04 
L 799.2 14.474923 
" style="fill: none; stroke: #000000; stroke-width: 0.8; stroke-linejoin: miter; stroke-linecap: square"/>
   </g>
   <g id="patch_10">
    <path d="M 453.466922 246.04 
L 799.2 246.04 
" style="fill: none; stroke: #000000; stroke-width: 0.8; stroke-linejoin: miter; stroke-linecap: square"/>
   </g>
   <g id="patch_11">
    <path d="M 453.466922 14.474923 
L 799.2 14.474923 
" style="fill: none; stroke: #000000; stroke-width: 0.8; stroke-linejoin: miter; stroke-linecap: square"/>
   </g>
   <g id="legend_1">
    <g id="line2d_34">
     <path d="M 688.190625 27.573361 
L 698.190625 27.573361 
L 708.190625 27.573361 
" style="fill: none; stroke: #0000ff; stroke-width: 1.5; stroke-linecap: square"/>
    </g>
    <g id="text_32">
     <!-- EQE GaInP -->
     <g transform="translate(716.190625 31.073361) scale(0.1 -0.1)">
      <defs>
       <path id="DejaVuSans-47" d="M 3809 666 
L 3809 1919 
L 2778 1919 
L 2778 2438 
L 4434 2438 
L 4434 434 
Q 4069 175 3628 42 
Q 3188 -91 2688 -91 
Q 1594 -91 976 548 
Q 359 1188 359 2328 
Q 359 3472 976 4111 
Q 1594 4750 2688 4750 
Q 3144 4750 3555 4637 
Q 3966 4525 4313 4306 
L 4313 3634 
Q 3963 3931 3569 4081 
Q 3175 4231 2741 4231 
Q 1884 4231 1454 3753 
Q 1025 3275 1025 2328 
Q 1025 1384 1454 906 
Q 1884 428 2741 428 
Q 3075 428 3337 486 
Q 3600 544 3809 666 
z
" transform="scale(0.015625)"/>
       <path id="DejaVuSans-49" d="M 628 4666 
L 1259 4666 
L 1259 0 
L 628 0 
L 628 4666 
z
" transform="scale(0.015625)"/>
      </defs>
      <use xlink:href="#DejaVuSans-45"/>
      <use xlink:href="#DejaVuSans-51" x="63.183594"/>
      <use xlink:href="#DejaVuSans-45" x="141.894531"/>
      <use xlink:href="#DejaVuSans-20" x="205.078125"/>
      <use xlink:href="#DejaVuSans-47" x="236.865234"/>
      <use xlink:href="#DejaVuSans-61" x="314.355469"/>
      <use xlink:href="#DejaVuSans-49" x="375.634766"/>
      <use xlink:href="#DejaVuSans-6e" x="405.126953"/>
      <use xlink:href="#DejaVuSans-50" x="468.505859"/>
     </g>
    </g>
    <g id="line2d_35">
     <path d="M 688.190625 42.251486 
L 698.190625 42.251486 
L 708.190625 42.251486 
" style="fill: none; stroke: #000000; stroke-width: 1.5; stroke-linecap: square"/>
    </g>
    <g id="text_33">
     <!-- Total Absorbed -->
     <g transform="translate(716.190625 45.751486) scale(0.1 -0.1)">
      <defs>
       <path id="DejaVuSans-54" d="M -19 4666 
L 3928 4666 
L 3928 4134 
L 2272 4134 
L 2272 0 
L 1638 0 
L 1638 4134 
L -19 4134 
L -19 4666 
z
" transform="scale(0.015625)"/>
       <path id="DejaVuSans-41" d="M 2188 4044 
L 1331 1722 
L 3047 1722 
L 2188 4044 
z
M 1831 4666 
L 2547 4666 
L 4325 0 
L 3669 0 
L 3244 1197 
L 1141 1197 
L 716 0 
L 50 0 
L 1831 4666 
z
" transform="scale(0.015625)"/>
       <path id="DejaVuSans-62" d="M 3116 1747 
Q 3116 2381 2855 2742 
Q 2594 3103 2138 3103 
Q 1681 3103 1420 2742 
Q 1159 2381 1159 1747 
Q 1159 1113 1420 752 
Q 1681 391 2138 391 
Q 2594 391 2855 752 
Q 3116 1113 3116 1747 
z
M 1159 2969 
Q 1341 3281 1617 3432 
Q 1894 3584 2278 3584 
Q 2916 3584 3314 3078 
Q 3713 2572 3713 1747 
Q 3713 922 3314 415 
Q 2916 -91 2278 -91 
Q 1894 -91 1617 61 
Q 1341 213 1159 525 
L 1159 0 
L 581 0 
L 581 4863 
L 1159 4863 
L 1159 2969 
z
" transform="scale(0.015625)"/>
      </defs>
      <use xlink:href="#DejaVuSans-54"/>
      <use xlink:href="#DejaVuSans-6f" x="44.083984"/>
      <use xlink:href="#DejaVuSans-74" x="105.265625"/>
      <use xlink:href="#DejaVuSans-61" x="144.474609"/>
      <use xlink:href="#DejaVuSans-6c" x="205.753906"/>
      <use xlink:href="#DejaVuSans-20" x="233.537109"/>
      <use xlink:href="#DejaVuSans-41" x="265.324219"/>
      <use xlink:href="#DejaVuSans-62" x="333.732422"/>
      <use xlink:href="#DejaVuSans-73" x="397.208984"/>
      <use xlink:href="#DejaVuSans-6f" x="449.308594"/>
      <use xlink:href="#DejaVuSans-72" x="510.490234"/>
      <use xlink:href="#DejaVuSans-62" x="551.603516"/>
      <use xlink:href="#DejaVuSans-65" x="615.080078"/>
      <use xlink:href="#DejaVuSans-64" x="676.603516"/>
     </g>
    </g>
   </g>
  </g>
 </g>
 <defs>
  <clipPath id="pef79baf81b">
   <rect x="60.013844" y="14.474923" width="345.733078" height="231.565077"/>
  </clipPath>
  <clipPath id="pb1d7b27d15">
   <rect x="453.466922" y="14.474923" width="345.733078" height="231.565077"/>
  </clipPath>
 </defs>
</svg>
