<?xml version="1.0" encoding="utf-8" standalone="no"?>
<!DOCTYPE svg PUBLIC "-//W3C//DTD SVG 1.1//EN"
  "http://www.w3.org/Graphics/SVG/1.1/DTD/svg11.dtd">
<svg xmlns:xlink="http://www.w3.org/1999/xlink" width="810pt" height="288pt" viewBox="0 0 810 288" xmlns="http://www.w3.org/2000/svg" version="1.1">
 <metadata>
  <rdf:RDF xmlns:dc="http://purl.org/dc/elements/1.1/" xmlns:cc="http://creativecommons.org/ns#" xmlns:rdf="http://www.w3.org/1999/02/22-rdf-syntax-ns#">
   <cc:Work>
    <dc:type rdf:resource="http://purl.org/dc/dcmitype/StillImage"/>
    <dc:date>2023-11-06T00:32:32.984252</dc:date>
    <dc:format>image/svg+xml</dc:format>
    <dc:creator>
     <cc:Agent>
      <dc:title>Matplotlib v3.7.1, https://matplotlib.org/</dc:title>
     </cc:Agent>
    </dc:creator>
   </cc:Work>
  </rdf:RDF>
 </metadata>
 <defs>
  <style type="text/css">*{stroke-linejoin: round; stroke-linecap: butt}</style>
 </defs>
 <g id="figure_1">
  <g id="patch_1">
   <path d="M 0 288 
L 810 288 
L 810 0 
L 0 0 
z
" style="fill: #ffffff"/>
  </g>
  <g id="axes_1">
   <g id="patch_2">
    <path d="M 60.075752 246.04 
L 405.732876 246.04 
L 405.732876 10.8 
L 60.075752 10.8 
z
" style="fill: #ffffff"/>
   </g>
   <g id="matplotlib.axis_1">
    <g id="xtick_1">
     <g id="line2d_1">
      <defs>
       <path id="mcfd606e8e3" d="M 0 0 
L 0 3.5 
" style="stroke: #000000; stroke-width: 0.8"/>
      </defs>
      <g>
       <use xlink:href="#mcfd606e8e3" x="118.043812" y="246.04" style="stroke: #000000; stroke-width: 0.8"/>
      </g>
     </g>
     <g id="text_1">
      <!-- 500 -->
      <g transform="translate(108.500062 260.638438) scale(0.1 -0.1)">
       <defs>
        <path id="DejaVuSans-35" d="M 691 4666 
L 3169 4666 
L 3169 4134 
L 1269 4134 
L 1269 2991 
Q 1406 3038 1543 3061 
Q 1681 3084 1819 3084 
Q 2600 3084 3056 2656 
Q 3513 2228 3513 1497 
Q 3513 744 3044 326 
Q 2575 -91 1722 -91 
Q 1428 -91 1123 -41 
Q 819 9 494 109 
L 494 744 
Q 775 591 1075 516 
Q 1375 441 1709 441 
Q 2250 441 2565 725 
Q 2881 1009 2881 1497 
Q 2881 1984 2565 2268 
Q 2250 2553 1709 2553 
Q 1456 2553 1204 2497 
Q 953 2441 691 2322 
L 691 4666 
z
" transform="scale(0.015625)"/>
        <path id="DejaVuSans-30" d="M 2034 4250 
Q 1547 4250 1301 3770 
Q 1056 3291 1056 2328 
Q 1056 1369 1301 889 
Q 1547 409 2034 409 
Q 2525 409 2770 889 
Q 3016 1369 3016 2328 
Q 3016 3291 2770 3770 
Q 2525 4250 2034 4250 
z
M 2034 4750 
Q 2819 4750 3233 4129 
Q 3647 3509 3647 2328 
Q 3647 1150 3233 529 
Q 2819 -91 2034 -91 
Q 1250 -91 836 529 
Q 422 1150 422 2328 
Q 422 3509 836 4129 
Q 1250 4750 2034 4750 
z
" transform="scale(0.015625)"/>
       </defs>
       <use xlink:href="#DejaVuSans-35"/>
       <use xlink:href="#DejaVuSans-30" x="63.623047"/>
       <use xlink:href="#DejaVuSans-30" x="127.246094"/>
      </g>
     </g>
    </g>
    <g id="xtick_2">
     <g id="line2d_2">
      <g>
       <use xlink:href="#mcfd606e8e3" x="182.068618" y="246.04" style="stroke: #000000; stroke-width: 0.8"/>
      </g>
     </g>
     <g id="text_2">
      <!-- 1000 -->
      <g transform="translate(169.343618 260.638438) scale(0.1 -0.1)">
       <defs>
        <path id="DejaVuSans-31" d="M 794 531 
L 1825 531 
L 1825 4091 
L 703 3866 
L 703 4441 
L 1819 4666 
L 2450 4666 
L 2450 531 
L 3481 531 
L 3481 0 
L 794 0 
L 794 531 
z
" transform="scale(0.015625)"/>
       </defs>
       <use xlink:href="#DejaVuSans-31"/>
       <use xlink:href="#DejaVuSans-30" x="63.623047"/>
       <use xlink:href="#DejaVuSans-30" x="127.246094"/>
       <use xlink:href="#DejaVuSans-30" x="190.869141"/>
      </g>
     </g>
    </g>
    <g id="xtick_3">
     <g id="line2d_3">
      <g>
       <use xlink:href="#mcfd606e8e3" x="246.093424" y="246.04" style="stroke: #000000; stroke-width: 0.8"/>
      </g>
     </g>
     <g id="text_3">
      <!-- 1500 -->
      <g transform="translate(233.368424 260.638438) scale(0.1 -0.1)">
       <use xlink:href="#DejaVuSans-31"/>
       <use xlink:href="#DejaVuSans-35" x="63.623047"/>
       <use xlink:href="#DejaVuSans-30" x="127.246094"/>
       <use xlink:href="#DejaVuSans-30" x="190.869141"/>
      </g>
     </g>
    </g>
    <g id="xtick_4">
     <g id="line2d_4">
      <g>
       <use xlink:href="#mcfd606e8e3" x="310.118231" y="246.04" style="stroke: #000000; stroke-width: 0.8"/>
      </g>
     </g>
     <g id="text_4">
      <!-- 2000 -->
      <g transform="translate(297.393231 260.638438) scale(0.1 -0.1)">
       <defs>
        <path id="DejaVuSans-32" d="M 1228 531 
L 3431 531 
L 3431 0 
L 469 0 
L 469 531 
Q 828 903 1448 1529 
Q 2069 2156 2228 2338 
Q 2531 2678 2651 2914 
Q 2772 3150 2772 3378 
Q 2772 3750 2511 3984 
Q 2250 4219 1831 4219 
Q 1534 4219 1204 4116 
Q 875 4013 500 3803 
L 500 4441 
Q 881 4594 1212 4672 
Q 1544 4750 1819 4750 
Q 2544 4750 2975 4387 
Q 3406 4025 3406 3419 
Q 3406 3131 3298 2873 
Q 3191 2616 2906 2266 
Q 2828 2175 2409 1742 
Q 1991 1309 1228 531 
z
" transform="scale(0.015625)"/>
       </defs>
       <use xlink:href="#DejaVuSans-32"/>
       <use xlink:href="#DejaVuSans-30" x="63.623047"/>
       <use xlink:href="#DejaVuSans-30" x="127.246094"/>
       <use xlink:href="#DejaVuSans-30" x="190.869141"/>
      </g>
     </g>
    </g>
    <g id="xtick_5">
     <g id="line2d_5">
      <g>
       <use xlink:href="#mcfd606e8e3" x="374.143037" y="246.04" style="stroke: #000000; stroke-width: 0.8"/>
      </g>
     </g>
     <g id="text_5">
      <!-- 2500 -->
      <g transform="translate(361.418037 260.638438) scale(0.1 -0.1)">
       <use xlink:href="#DejaVuSans-32"/>
       <use xlink:href="#DejaVuSans-35" x="63.623047"/>
       <use xlink:href="#DejaVuSans-30" x="127.246094"/>
       <use xlink:href="#DejaVuSans-30" x="190.869141"/>
      </g>
     </g>
    </g>
    <g id="text_6">
     <!-- Position (nm) -->
     <g transform="translate(199.910564 274.316562) scale(0.1 -0.1)">
      <defs>
       <path id="DejaVuSans-50" d="M 1259 4147 
L 1259 2394 
L 2053 2394 
Q 2494 2394 2734 2622 
Q 2975 2850 2975 3272 
Q 2975 3691 2734 3919 
Q 2494 4147 2053 4147 
L 1259 4147 
z
M 628 4666 
L 2053 4666 
Q 2838 4666 3239 4311 
Q 3641 3956 3641 3272 
Q 3641 2581 3239 2228 
Q 2838 1875 2053 1875 
L 1259 1875 
L 1259 0 
L 628 0 
L 628 4666 
z
" transform="scale(0.015625)"/>
       <path id="DejaVuSans-6f" d="M 1959 3097 
Q 1497 3097 1228 2736 
Q 959 2375 959 1747 
Q 959 1119 1226 758 
Q 1494 397 1959 397 
Q 2419 397 2687 759 
Q 2956 1122 2956 1747 
Q 2956 2369 2687 2733 
Q 2419 3097 1959 3097 
z
M 1959 3584 
Q 2709 3584 3137 3096 
Q 3566 2609 3566 1747 
Q 3566 888 3137 398 
Q 2709 -91 1959 -91 
Q 1206 -91 779 398 
Q 353 888 353 1747 
Q 353 2609 779 3096 
Q 1206 3584 1959 3584 
z
" transform="scale(0.015625)"/>
       <path id="DejaVuSans-73" d="M 2834 3397 
L 2834 2853 
Q 2591 2978 2328 3040 
Q 2066 3103 1784 3103 
Q 1356 3103 1142 2972 
Q 928 2841 928 2578 
Q 928 2378 1081 2264 
Q 1234 2150 1697 2047 
L 1894 2003 
Q 2506 1872 2764 1633 
Q 3022 1394 3022 966 
Q 3022 478 2636 193 
Q 2250 -91 1575 -91 
Q 1294 -91 989 -36 
Q 684 19 347 128 
L 347 722 
Q 666 556 975 473 
Q 1284 391 1588 391 
Q 1994 391 2212 530 
Q 2431 669 2431 922 
Q 2431 1156 2273 1281 
Q 2116 1406 1581 1522 
L 1381 1569 
Q 847 1681 609 1914 
Q 372 2147 372 2553 
Q 372 3047 722 3315 
Q 1072 3584 1716 3584 
Q 2034 3584 2315 3537 
Q 2597 3491 2834 3397 
z
" transform="scale(0.015625)"/>
       <path id="DejaVuSans-69" d="M 603 3500 
L 1178 3500 
L 1178 0 
L 603 0 
L 603 3500 
z
M 603 4863 
L 1178 4863 
L 1178 4134 
L 603 4134 
L 603 4863 
z
" transform="scale(0.015625)"/>
       <path id="DejaVuSans-74" d="M 1172 4494 
L 1172 3500 
L 2356 3500 
L 2356 3053 
L 1172 3053 
L 1172 1153 
Q 1172 725 1289 603 
Q 1406 481 1766 481 
L 2356 481 
L 2356 0 
L 1766 0 
Q 1100 0 847 248 
Q 594 497 594 1153 
L 594 3053 
L 172 3053 
L 172 3500 
L 594 3500 
L 594 4494 
L 1172 4494 
z
" transform="scale(0.015625)"/>
       <path id="DejaVuSans-6e" d="M 3513 2113 
L 3513 0 
L 2938 0 
L 2938 2094 
Q 2938 2591 2744 2837 
Q 2550 3084 2163 3084 
Q 1697 3084 1428 2787 
Q 1159 2491 1159 1978 
L 1159 0 
L 581 0 
L 581 3500 
L 1159 3500 
L 1159 2956 
Q 1366 3272 1645 3428 
Q 1925 3584 2291 3584 
Q 2894 3584 3203 3211 
Q 3513 2838 3513 2113 
z
" transform="scale(0.015625)"/>
       <path id="DejaVuSans-20" transform="scale(0.015625)"/>
       <path id="DejaVuSans-28" d="M 1984 4856 
Q 1566 4138 1362 3434 
Q 1159 2731 1159 2009 
Q 1159 1288 1364 580 
Q 1569 -128 1984 -844 
L 1484 -844 
Q 1016 -109 783 600 
Q 550 1309 550 2009 
Q 550 2706 781 3412 
Q 1013 4119 1484 4856 
L 1984 4856 
z
" transform="scale(0.015625)"/>
       <path id="DejaVuSans-6d" d="M 3328 2828 
Q 3544 3216 3844 3400 
Q 4144 3584 4550 3584 
Q 5097 3584 5394 3201 
Q 5691 2819 5691 2113 
L 5691 0 
L 5113 0 
L 5113 2094 
Q 5113 2597 4934 2840 
Q 4756 3084 4391 3084 
Q 3944 3084 3684 2787 
Q 3425 2491 3425 1978 
L 3425 0 
L 2847 0 
L 2847 2094 
Q 2847 2600 2669 2842 
Q 2491 3084 2119 3084 
Q 1678 3084 1418 2786 
Q 1159 2488 1159 1978 
L 1159 0 
L 581 0 
L 581 3500 
L 1159 3500 
L 1159 2956 
Q 1356 3278 1631 3431 
Q 1906 3584 2284 3584 
Q 2666 3584 2933 3390 
Q 3200 3197 3328 2828 
z
" transform="scale(0.015625)"/>
       <path id="DejaVuSans-29" d="M 513 4856 
L 1013 4856 
Q 1481 4119 1714 3412 
Q 1947 2706 1947 2009 
Q 1947 1309 1714 600 
Q 1481 -109 1013 -844 
L 513 -844 
Q 928 -128 1133 580 
Q 1338 1288 1338 2009 
Q 1338 2731 1133 3434 
Q 928 4138 513 4856 
z
" transform="scale(0.015625)"/>
      </defs>
      <use xlink:href="#DejaVuSans-50"/>
      <use xlink:href="#DejaVuSans-6f" x="56.677734"/>
      <use xlink:href="#DejaVuSans-73" x="117.859375"/>
      <use xlink:href="#DejaVuSans-69" x="169.958984"/>
      <use xlink:href="#DejaVuSans-74" x="197.742188"/>
      <use xlink:href="#DejaVuSans-69" x="236.951172"/>
      <use xlink:href="#DejaVuSans-6f" x="264.734375"/>
      <use xlink:href="#DejaVuSans-6e" x="325.916016"/>
      <use xlink:href="#DejaVuSans-20" x="389.294922"/>
      <use xlink:href="#DejaVuSans-28" x="421.082031"/>
      <use xlink:href="#DejaVuSans-6e" x="460.095703"/>
      <use xlink:href="#DejaVuSans-6d" x="523.474609"/>
      <use xlink:href="#DejaVuSans-29" x="620.886719"/>
     </g>
    </g>
   </g>
   <g id="matplotlib.axis_2">
    <g id="ytick_1">
     <g id="line2d_6">
      <defs>
       <path id="mb43939314d" d="M 0 0 
L -3.5 0 
" style="stroke: #000000; stroke-width: 0.8"/>
      </defs>
      <g>
       <use xlink:href="#mb43939314d" x="60.075752" y="220.916974" style="stroke: #000000; stroke-width: 0.8"/>
      </g>
     </g>
     <g id="text_7">
      <!-- $\mathdefault{10^{2}}$ -->
      <g transform="translate(35.475752 224.716193) scale(0.1 -0.1)">
       <use xlink:href="#DejaVuSans-31" transform="translate(0 0.765625)"/>
       <use xlink:href="#DejaVuSans-30" transform="translate(63.623047 0.765625)"/>
       <use xlink:href="#DejaVuSans-32" transform="translate(128.203125 39.046875) scale(0.7)"/>
      </g>
     </g>
    </g>
    <g id="ytick_2">
     <g id="line2d_7">
      <g>
       <use xlink:href="#mb43939314d" x="60.075752" y="193.722765" style="stroke: #000000; stroke-width: 0.8"/>
      </g>
     </g>
     <g id="text_8">
      <!-- $\mathdefault{10^{5}}$ -->
      <g transform="translate(35.475752 197.521984) scale(0.1 -0.1)">
       <use xlink:href="#DejaVuSans-31" transform="translate(0 0.684375)"/>
       <use xlink:href="#DejaVuSans-30" transform="translate(63.623047 0.684375)"/>
       <use xlink:href="#DejaVuSans-35" transform="translate(128.203125 38.965625) scale(0.7)"/>
      </g>
     </g>
    </g>
    <g id="ytick_3">
     <g id="line2d_8">
      <g>
       <use xlink:href="#mb43939314d" x="60.075752" y="166.528556" style="stroke: #000000; stroke-width: 0.8"/>
      </g>
     </g>
     <g id="text_9">
      <!-- $\mathdefault{10^{8}}$ -->
      <g transform="translate(35.475752 170.327774) scale(0.1 -0.1)">
       <defs>
        <path id="DejaVuSans-38" d="M 2034 2216 
Q 1584 2216 1326 1975 
Q 1069 1734 1069 1313 
Q 1069 891 1326 650 
Q 1584 409 2034 409 
Q 2484 409 2743 651 
Q 3003 894 3003 1313 
Q 3003 1734 2745 1975 
Q 2488 2216 2034 2216 
z
M 1403 2484 
Q 997 2584 770 2862 
Q 544 3141 544 3541 
Q 544 4100 942 4425 
Q 1341 4750 2034 4750 
Q 2731 4750 3128 4425 
Q 3525 4100 3525 3541 
Q 3525 3141 3298 2862 
Q 3072 2584 2669 2484 
Q 3125 2378 3379 2068 
Q 3634 1759 3634 1313 
Q 3634 634 3220 271 
Q 2806 -91 2034 -91 
Q 1263 -91 848 271 
Q 434 634 434 1313 
Q 434 1759 690 2068 
Q 947 2378 1403 2484 
z
M 1172 3481 
Q 1172 3119 1398 2916 
Q 1625 2713 2034 2713 
Q 2441 2713 2670 2916 
Q 2900 3119 2900 3481 
Q 2900 3844 2670 4047 
Q 2441 4250 2034 4250 
Q 1625 4250 1398 4047 
Q 1172 3844 1172 3481 
z
" transform="scale(0.015625)"/>
       </defs>
       <use xlink:href="#DejaVuSans-31" transform="translate(0 0.765625)"/>
       <use xlink:href="#DejaVuSans-30" transform="translate(63.623047 0.765625)"/>
       <use xlink:href="#DejaVuSans-38" transform="translate(128.203125 39.046875) scale(0.7)"/>
      </g>
     </g>
    </g>
    <g id="ytick_4">
     <g id="line2d_9">
      <g>
       <use xlink:href="#mb43939314d" x="60.075752" y="139.334346" style="stroke: #000000; stroke-width: 0.8"/>
      </g>
     </g>
     <g id="text_10">
      <!-- $\mathdefault{10^{11}}$ -->
      <g transform="translate(30.975752 143.133565) scale(0.1 -0.1)">
       <use xlink:href="#DejaVuSans-31" transform="translate(0 0.684375)"/>
       <use xlink:href="#DejaVuSans-30" transform="translate(63.623047 0.684375)"/>
       <use xlink:href="#DejaVuSans-31" transform="translate(128.203125 38.965625) scale(0.7)"/>
       <use xlink:href="#DejaVuSans-31" transform="translate(172.739258 38.965625) scale(0.7)"/>
      </g>
     </g>
    </g>
    <g id="ytick_5">
     <g id="line2d_10">
      <g>
       <use xlink:href="#mb43939314d" x="60.075752" y="112.140137" style="stroke: #000000; stroke-width: 0.8"/>
      </g>
     </g>
     <g id="text_11">
      <!-- $\mathdefault{10^{14}}$ -->
      <g transform="translate(30.975752 115.939356) scale(0.1 -0.1)">
       <defs>
        <path id="DejaVuSans-34" d="M 2419 4116 
L 825 1625 
L 2419 1625 
L 2419 4116 
z
M 2253 4666 
L 3047 4666 
L 3047 1625 
L 3713 1625 
L 3713 1100 
L 3047 1100 
L 3047 0 
L 2419 0 
L 2419 1100 
L 313 1100 
L 313 1709 
L 2253 4666 
z
" transform="scale(0.015625)"/>
       </defs>
       <use xlink:href="#DejaVuSans-31" transform="translate(0 0.684375)"/>
       <use xlink:href="#DejaVuSans-30" transform="translate(63.623047 0.684375)"/>
       <use xlink:href="#DejaVuSans-31" transform="translate(128.203125 38.965625) scale(0.7)"/>
       <use xlink:href="#DejaVuSans-34" transform="translate(172.739258 38.965625) scale(0.7)"/>
      </g>
     </g>
    </g>
    <g id="ytick_6">
     <g id="line2d_11">
      <g>
       <use xlink:href="#mb43939314d" x="60.075752" y="84.945928" style="stroke: #000000; stroke-width: 0.8"/>
      </g>
     </g>
     <g id="text_12">
      <!-- $\mathdefault{10^{17}}$ -->
      <g transform="translate(30.975752 88.745147) scale(0.1 -0.1)">
       <defs>
        <path id="DejaVuSans-37" d="M 525 4666 
L 3525 4666 
L 3525 4397 
L 1831 0 
L 1172 0 
L 2766 4134 
L 525 4134 
L 525 4666 
z
" transform="scale(0.015625)"/>
       </defs>
       <use xlink:href="#DejaVuSans-31" transform="translate(0 0.684375)"/>
       <use xlink:href="#DejaVuSans-30" transform="translate(63.623047 0.684375)"/>
       <use xlink:href="#DejaVuSans-31" transform="translate(128.203125 38.965625) scale(0.7)"/>
       <use xlink:href="#DejaVuSans-37" transform="translate(172.739258 38.965625) scale(0.7)"/>
      </g>
     </g>
    </g>
    <g id="ytick_7">
     <g id="line2d_12">
      <g>
       <use xlink:href="#mb43939314d" x="60.075752" y="57.751719" style="stroke: #000000; stroke-width: 0.8"/>
      </g>
     </g>
     <g id="text_13">
      <!-- $\mathdefault{10^{20}}$ -->
      <g transform="translate(30.975752 61.550937) scale(0.1 -0.1)">
       <use xlink:href="#DejaVuSans-31" transform="translate(0 0.765625)"/>
       <use xlink:href="#DejaVuSans-30" transform="translate(63.623047 0.765625)"/>
       <use xlink:href="#DejaVuSans-32" transform="translate(128.203125 39.046875) scale(0.7)"/>
       <use xlink:href="#DejaVuSans-30" transform="translate(172.739258 39.046875) scale(0.7)"/>
      </g>
     </g>
    </g>
    <g id="ytick_8">
     <g id="line2d_13">
      <g>
       <use xlink:href="#mb43939314d" x="60.075752" y="30.557509" style="stroke: #000000; stroke-width: 0.8"/>
      </g>
     </g>
     <g id="text_14">
      <!-- $\mathdefault{10^{23}}$ -->
      <g transform="translate(30.975752 34.356728) scale(0.1 -0.1)">
       <defs>
        <path id="DejaVuSans-33" d="M 2597 2516 
Q 3050 2419 3304 2112 
Q 3559 1806 3559 1356 
Q 3559 666 3084 287 
Q 2609 -91 1734 -91 
Q 1441 -91 1130 -33 
Q 819 25 488 141 
L 488 750 
Q 750 597 1062 519 
Q 1375 441 1716 441 
Q 2309 441 2620 675 
Q 2931 909 2931 1356 
Q 2931 1769 2642 2001 
Q 2353 2234 1838 2234 
L 1294 2234 
L 1294 2753 
L 1863 2753 
Q 2328 2753 2575 2939 
Q 2822 3125 2822 3475 
Q 2822 3834 2567 4026 
Q 2313 4219 1838 4219 
Q 1578 4219 1281 4162 
Q 984 4106 628 3988 
L 628 4550 
Q 988 4650 1302 4700 
Q 1616 4750 1894 4750 
Q 2613 4750 3031 4423 
Q 3450 4097 3450 3541 
Q 3450 3153 3228 2886 
Q 3006 2619 2597 2516 
z
" transform="scale(0.015625)"/>
       </defs>
       <use xlink:href="#DejaVuSans-31" transform="translate(0 0.765625)"/>
       <use xlink:href="#DejaVuSans-30" transform="translate(63.623047 0.765625)"/>
       <use xlink:href="#DejaVuSans-32" transform="translate(128.203125 39.046875) scale(0.7)"/>
       <use xlink:href="#DejaVuSans-33" transform="translate(172.739258 39.046875) scale(0.7)"/>
      </g>
     </g>
    </g>
    <g id="text_15">
     <!-- Carrier density (m$^{-3}$) -->
     <g transform="translate(24.875752 181.27) rotate(-90) scale(0.1 -0.1)">
      <defs>
       <path id="DejaVuSans-43" d="M 4122 4306 
L 4122 3641 
Q 3803 3938 3442 4084 
Q 3081 4231 2675 4231 
Q 1875 4231 1450 3742 
Q 1025 3253 1025 2328 
Q 1025 1406 1450 917 
Q 1875 428 2675 428 
Q 3081 428 3442 575 
Q 3803 722 4122 1019 
L 4122 359 
Q 3791 134 3420 21 
Q 3050 -91 2638 -91 
Q 1578 -91 968 557 
Q 359 1206 359 2328 
Q 359 3453 968 4101 
Q 1578 4750 2638 4750 
Q 3056 4750 3426 4639 
Q 3797 4528 4122 4306 
z
" transform="scale(0.015625)"/>
       <path id="DejaVuSans-61" d="M 2194 1759 
Q 1497 1759 1228 1600 
Q 959 1441 959 1056 
Q 959 750 1161 570 
Q 1363 391 1709 391 
Q 2188 391 2477 730 
Q 2766 1069 2766 1631 
L 2766 1759 
L 2194 1759 
z
M 3341 1997 
L 3341 0 
L 2766 0 
L 2766 531 
Q 2569 213 2275 61 
Q 1981 -91 1556 -91 
Q 1019 -91 701 211 
Q 384 513 384 1019 
Q 384 1609 779 1909 
Q 1175 2209 1959 2209 
L 2766 2209 
L 2766 2266 
Q 2766 2663 2505 2880 
Q 2244 3097 1772 3097 
Q 1472 3097 1187 3025 
Q 903 2953 641 2809 
L 641 3341 
Q 956 3463 1253 3523 
Q 1550 3584 1831 3584 
Q 2591 3584 2966 3190 
Q 3341 2797 3341 1997 
z
" transform="scale(0.015625)"/>
       <path id="DejaVuSans-72" d="M 2631 2963 
Q 2534 3019 2420 3045 
Q 2306 3072 2169 3072 
Q 1681 3072 1420 2755 
Q 1159 2438 1159 1844 
L 1159 0 
L 581 0 
L 581 3500 
L 1159 3500 
L 1159 2956 
Q 1341 3275 1631 3429 
Q 1922 3584 2338 3584 
Q 2397 3584 2469 3576 
Q 2541 3569 2628 3553 
L 2631 2963 
z
" transform="scale(0.015625)"/>
       <path id="DejaVuSans-65" d="M 3597 1894 
L 3597 1613 
L 953 1613 
Q 991 1019 1311 708 
Q 1631 397 2203 397 
Q 2534 397 2845 478 
Q 3156 559 3463 722 
L 3463 178 
Q 3153 47 2828 -22 
Q 2503 -91 2169 -91 
Q 1331 -91 842 396 
Q 353 884 353 1716 
Q 353 2575 817 3079 
Q 1281 3584 2069 3584 
Q 2775 3584 3186 3129 
Q 3597 2675 3597 1894 
z
M 3022 2063 
Q 3016 2534 2758 2815 
Q 2500 3097 2075 3097 
Q 1594 3097 1305 2825 
Q 1016 2553 972 2059 
L 3022 2063 
z
" transform="scale(0.015625)"/>
       <path id="DejaVuSans-64" d="M 2906 2969 
L 2906 4863 
L 3481 4863 
L 3481 0 
L 2906 0 
L 2906 525 
Q 2725 213 2448 61 
Q 2172 -91 1784 -91 
Q 1150 -91 751 415 
Q 353 922 353 1747 
Q 353 2572 751 3078 
Q 1150 3584 1784 3584 
Q 2172 3584 2448 3432 
Q 2725 3281 2906 2969 
z
M 947 1747 
Q 947 1113 1208 752 
Q 1469 391 1925 391 
Q 2381 391 2643 752 
Q 2906 1113 2906 1747 
Q 2906 2381 2643 2742 
Q 2381 3103 1925 3103 
Q 1469 3103 1208 2742 
Q 947 2381 947 1747 
z
" transform="scale(0.015625)"/>
       <path id="DejaVuSans-79" d="M 2059 -325 
Q 1816 -950 1584 -1140 
Q 1353 -1331 966 -1331 
L 506 -1331 
L 506 -850 
L 844 -850 
Q 1081 -850 1212 -737 
Q 1344 -625 1503 -206 
L 1606 56 
L 191 3500 
L 800 3500 
L 1894 763 
L 2988 3500 
L 3597 3500 
L 2059 -325 
z
" transform="scale(0.015625)"/>
       <path id="DejaVuSans-2212" d="M 678 2272 
L 4684 2272 
L 4684 1741 
L 678 1741 
L 678 2272 
z
" transform="scale(0.015625)"/>
      </defs>
      <use xlink:href="#DejaVuSans-43" transform="translate(0 0.765625)"/>
      <use xlink:href="#DejaVuSans-61" transform="translate(69.824219 0.765625)"/>
      <use xlink:href="#DejaVuSans-72" transform="translate(131.103516 0.765625)"/>
      <use xlink:href="#DejaVuSans-72" transform="translate(172.216797 0.765625)"/>
      <use xlink:href="#DejaVuSans-69" transform="translate(213.330078 0.765625)"/>
      <use xlink:href="#DejaVuSans-65" transform="translate(241.113281 0.765625)"/>
      <use xlink:href="#DejaVuSans-72" transform="translate(302.636719 0.765625)"/>
      <use xlink:href="#DejaVuSans-20" transform="translate(343.75 0.765625)"/>
      <use xlink:href="#DejaVuSans-64" transform="translate(375.537109 0.765625)"/>
      <use xlink:href="#DejaVuSans-65" transform="translate(439.013672 0.765625)"/>
      <use xlink:href="#DejaVuSans-6e" transform="translate(500.537109 0.765625)"/>
      <use xlink:href="#DejaVuSans-73" transform="translate(563.916016 0.765625)"/>
      <use xlink:href="#DejaVuSans-69" transform="translate(616.015625 0.765625)"/>
      <use xlink:href="#DejaVuSans-74" transform="translate(643.798828 0.765625)"/>
      <use xlink:href="#DejaVuSans-79" transform="translate(683.007812 0.765625)"/>
      <use xlink:href="#DejaVuSans-20" transform="translate(742.1875 0.765625)"/>
      <use xlink:href="#DejaVuSans-28" transform="translate(773.974609 0.765625)"/>
      <use xlink:href="#DejaVuSans-6d" transform="translate(812.988281 0.765625)"/>
      <use xlink:href="#DejaVuSans-2212" transform="translate(911.357422 39.046875) scale(0.7)"/>
      <use xlink:href="#DejaVuSans-33" transform="translate(970.009766 39.046875) scale(0.7)"/>
      <use xlink:href="#DejaVuSans-29" transform="translate(1017.280273 0.765625)"/>
     </g>
    </g>
   </g>
   <g id="line2d_14">
    <path d="M 75.78744 21.492766 
L 92.840253 21.580536 
L 93.367604 21.736038 
L 93.789551 22.045498 
L 94.117862 22.53502 
L 94.555374 23.860145 
L 94.982077 26.466054 
L 95.092199 31.965268 
L 95.494275 35.226158 
L 95.50708 28.859321 
L 95.599276 29.571854 
L 95.622325 29.747233 
L 95.63513 25.00146 
L 95.743558 25.763855 
L 96.134523 28.08009 
L 96.239524 33.480984 
L 96.262573 33.602836 
L 96.372696 40.66017 
L 96.774771 42.802435 
L 96.787576 36.401723 
L 96.879772 36.881675 
L 96.902821 37.001239 
L 96.915626 32.225212 
L 97.024054 32.766801 
L 97.415019 34.644605 
L 97.52002 39.988374 
L 97.543069 40.098575 
L 97.653192 47.101047 
L 98.055267 49.051532 
L 98.068072 42.644943 
L 98.160268 43.084259 
L 98.183317 43.194 
L 98.196122 38.41264 
L 98.30455 38.91457 
L 98.695516 40.708676 
L 98.800516 46.040626 
L 98.823565 46.148397 
L 98.933688 53.139178 
L 99.335764 55.048199 
L 99.348569 48.64035 
L 99.440764 49.071063 
L 99.463813 49.178721 
L 99.476618 44.396234 
L 99.585046 44.889773 
L 99.976012 46.665968 
L 100.081012 51.995242 
L 100.104061 52.102455 
L 100.214184 59.08966 
L 100.61626 60.984091 
L 100.629065 54.575853 
L 100.72126 55.004427 
L 100.744309 55.111559 
L 100.757114 50.328806 
L 100.865542 50.820437 
L 101.256508 52.592299 
L 101.361508 57.920361 
L 101.384557 58.027295 
L 101.49468 65.009056 
L 101.896756 66.875571 
L 101.909561 60.466731 
L 102.001756 60.893558 
L 102.024805 61.000232 
L 102.03761 56.217317 
L 102.146038 56.708028 
L 102.537004 58.476464 
L 102.642005 63.801355 
L 102.665053 63.907509 
L 102.775176 70.86784 
L 103.177252 72.623549 
L 103.190057 66.212427 
L 103.282253 66.633429 
L 103.305302 66.73855 
L 103.318107 61.955144 
L 103.426534 62.443395 
L 103.8175 64.200164 
L 103.922501 69.512273 
L 103.94555 69.615277 
L 104.055672 76.489368 
L 104.457748 77.833295 
L 104.470553 71.414244 
L 104.562749 71.815178 
L 104.585798 71.914966 
L 104.598603 67.129884 
L 104.70703 67.609745 
L 105.097996 69.32652 
L 105.202997 74.595459 
L 105.226046 74.687921 
L 105.336168 81.287471 
L 105.738244 81.592417 
L 105.751049 75.156736 
L 105.843245 75.516005 
L 105.866294 75.60483 
L 105.879099 70.816309 
L 105.987527 71.278997 
L 106.378492 72.915423 
L 106.483493 78.100503 
L 106.506542 78.172893 
L 106.519347 84.653209 
L 106.616665 84.299447 
L 107.01874 83.383539 
L 107.031545 76.933236 
L 107.123741 77.256383 
L 107.14679 77.33582 
L 107.159595 72.544366 
L 107.268023 72.992483 
L 107.658988 74.562235 
L 107.763989 79.680246 
L 107.787038 79.736958 
L 107.799843 86.196021 
L 107.897161 85.531282 
L 108.250578 84.124204 
L 108.299236 84.000516 
L 108.312041 77.544414 
L 108.404237 77.853404 
L 108.427286 77.92919 
L 108.440091 73.136601 
L 108.548519 73.579124 
L 108.939484 75.123565 
L 109.044485 80.216513 
L 109.067534 80.267449 
L 109.080339 86.718719 
L 109.177657 85.946162 
L 109.506744 84.441334 
L 109.579733 84.232566 
L 109.592538 77.774913 
L 109.684733 78.080171 
L 109.707782 78.154996 
L 109.720587 73.362113 
L 109.829015 73.803219 
L 110.219981 75.341191 
L 110.324981 80.427557 
L 110.34803 80.476981 
L 110.360835 86.926202 
L 110.458153 86.125722 
L 110.78724 84.580173 
L 110.860229 84.366876 
L 110.873034 77.908855 
L 110.965229 78.213274 
L 110.988278 78.287882 
L 111.001083 73.494937 
L 111.109511 73.93578 
L 111.500477 75.472454 
L 111.605477 80.557252 
L 111.628526 80.606314 
L 111.641331 87.055029 
L 111.738649 86.247605 
L 112.067737 84.692025 
L 112.140725 84.477616 
L 112.15353 78.01951 
L 112.245725 78.323782 
L 112.268774 78.398352 
L 112.281579 73.6054 
L 112.390007 74.046257 
L 112.780973 75.582874 
L 112.885974 80.6673 
L 112.909022 80.716273 
L 112.921827 87.164849 
L 113.019145 86.355439 
L 113.348233 84.796992 
L 113.421221 84.582262 
L 113.434026 78.124136 
L 113.526222 78.428425 
L 113.549271 78.502997 
L 113.562076 73.710052 
L 113.670503 74.150991 
L 114.061469 75.687846 
L 114.16647 80.772179 
L 114.189519 80.821129 
L 114.202324 87.269652 
L 114.299641 86.459407 
L 114.628729 84.89976 
L 114.701717 84.684896 
L 114.714522 78.226765 
L 114.806718 78.53111 
L 114.829767 78.605695 
L 114.842572 73.81276 
L 114.950999 74.253798 
L 115.341965 75.790968 
L 115.446966 80.875277 
L 115.470015 80.924218 
L 115.48282 87.372708 
L 115.580137 86.5619 
L 115.909225 85.001447 
L 115.982213 84.786492 
L 115.995018 78.328361 
L 116.087214 78.632773 
L 116.110263 78.707373 
L 116.123068 73.914449 
L 116.231496 74.355592 
L 116.622461 75.893102 
L 116.727462 80.977403 
L 116.750511 81.02634 
L 116.763316 87.474801 
L 116.860634 86.663492 
L 117.189721 85.102319 
L 117.262709 84.887281 
L 117.275514 78.42915 
L 117.36771 78.733632 
L 117.390759 78.808249 
L 117.403564 74.015337 
L 117.511992 74.456588 
L 117.902957 75.994449 
L 118.007958 81.078746 
L 118.031007 81.127679 
L 118.043812 87.576112 
L 118.14113 86.764305 
L 118.470217 85.202412 
L 118.543205 84.98729 
L 118.55601 78.52916 
L 118.648206 78.833715 
L 118.671255 78.908348 
L 118.68406 74.115448 
L 118.792488 74.556809 
L 119.183453 76.095028 
L 119.288454 81.17932 
L 119.311503 81.228249 
L 119.324308 87.676654 
L 119.421626 86.864335 
L 119.750713 85.301701 
L 119.823702 85.086492 
L 119.836507 78.628363 
L 119.928702 78.93299 
L 119.951751 79.007641 
L 119.964556 74.214753 
L 120.072984 74.656225 
L 120.46395 76.194809 
L 120.56895 81.279095 
L 120.591999 81.32802 
L 120.604804 87.776396 
L 120.702122 86.963556 
L 121.031209 85.400166 
L 121.104198 85.184869 
L 121.117003 78.72674 
L 121.209198 79.031442 
L 121.232247 79.10611 
L 121.245052 74.313234 
L 121.35348 74.754822 
L 121.744446 76.293778 
L 121.849446 81.378061 
L 121.872495 81.426982 
L 121.8853 87.875329 
L 121.982618 87.061972 
L 122.311706 85.497843 
L 122.384694 85.282464 
L 122.397499 78.824335 
L 122.489694 79.129114 
L 122.512743 79.203801 
L 122.525548 74.410938 
L 122.633976 74.852642 
L 123.024942 76.391982 
L 123.129943 81.47627 
L 123.152991 81.525189 
L 123.165796 87.973509 
L 123.263114 87.15966 
L 123.592202 85.594849 
L 123.66519 85.379397 
L 123.677995 78.92127 
L 123.770191 79.226131 
L 123.79324 79.300837 
L 123.806045 74.507987 
L 123.914472 74.949812 
L 124.305438 76.489553 
L 124.410439 81.573856 
L 124.433488 81.622776 
L 124.446293 88.071072 
L 124.54361 87.256774 
L 124.872698 85.691369 
L 124.945686 85.475858 
L 124.958491 79.017735 
L 125.050687 79.322682 
L 125.073736 79.397409 
L 125.086541 74.604572 
L 125.194968 75.046523 
L 125.585934 76.586686 
L 125.690935 81.671019 
L 125.713984 81.719943 
L 125.726789 88.168219 
L 125.824106 87.35352 
L 126.153194 85.787609 
L 126.226182 85.572053 
L 126.238987 79.113935 
L 126.331183 79.418975 
L 126.354232 79.493724 
L 126.367037 74.700902 
L 126.475465 75.142983 
L 126.86643 76.683608 
L 126.971431 81.767988 
L 126.99448 81.81692 
L 127.007285 88.265178 
L 127.104603 87.450107 
L 127.43369 85.883744 
L 127.506678 85.668152 
L 127.519483 79.21004 
L 127.611679 79.515185 
L 127.634728 79.589959 
L 127.647533 74.797153 
L 127.755961 75.239382 
L 128.146926 76.780586 
L 128.251927 81.865053 
L 128.274976 81.914001 
L 128.287781 88.362244 
L 128.385099 87.546781 
L 128.714186 85.979966 
L 128.787174 85.764341 
L 128.799979 79.306239 
L 128.892175 79.611527 
L 128.915224 79.686335 
L 128.928029 74.89355 
L 129.036457 75.335994 
L 129.427422 76.878278 
L 129.532423 81.962995 
L 129.555472 82.011993 
L 129.568277 88.460226 
L 129.665595 87.644237 
L 129.994682 86.076911 
L 130.067671 85.86127 
L 130.080476 79.403192 
L 130.172671 79.708793 
L 130.19572 79.783677 
L 130.208525 74.99094 
L 130.316953 75.43389 
L 130.707919 76.979528 
L 130.812919 82.065248 
L 130.835968 82.114451 
L 130.848773 88.5627 
L 130.946091 87.745658 
L 131.275178 86.177746 
L 131.348167 85.962196 
L 131.360972 79.504216 
L 131.453167 79.810907 
L 131.476216 79.886059 
L 131.489021 75.093485 
L 131.597449 75.538279 
L 131.988415 77.097685 
L 132.093415 82.1879 
L 132.116464 82.23803 
L 132.129269 88.686432 
L 132.226587 87.866092 
L 132.555675 86.297582 
L 132.628663 86.082677 
L 132.641468 79.625129 
L 132.733663 79.936489 
L 132.756712 80.012789 
L 132.769517 75.22091 
L 132.877945 75.673723 
L 133.268911 77.295668 
L 133.373912 82.406843 
L 133.39696 82.4613 
L 133.409765 88.910488 
L 133.507083 88.076241 
L 133.836171 86.507311 
L 133.909159 86.295682 
L 133.921964 81.716825 
L 134.70055 83.190023 
L 135.881347 83.476036 
L 137.757995 82.223606 
L 140.61093 79.727235 
L 144.66622 77.157118 
L 150.068736 75.175123 
L 156.876904 73.730039 
L 165.072799 72.666466 
L 174.578236 71.881093 
L 185.271132 71.310475 
L 197.000146 70.912797 
L 209.596789 70.658886 
L 222.884025 70.527878 
L 250.800656 70.579488 
L 279.262113 70.9971 
L 306.842559 71.761568 
L 319.886927 72.280742 
L 332.174643 72.898447 
L 343.464579 73.618204 
L 353.513539 74.438323 
L 362.136334 75.349722 
L 369.255249 76.335035 
L 374.914271 77.368816 
L 379.257608 78.418563 
L 382.488808 79.44668 
L 384.829069 80.413771 
L 386.486291 81.283562 
L 388.426297 82.636197 
L 389.824237 84.021684 
L 390.021189 84.263376 
L 390.021189 84.263376 
" clip-path="url(#p82051d4225)" style="fill: none; stroke: #0000ff; stroke-width: 1.5; stroke-linecap: square"/>
   </g>
   <g id="line2d_15">
    <path d="M 75.78744 78.299566 
L 76.186592 73.536046 
L 76.641689 71.38522 
L 77.176373 69.945102 
L 77.802479 68.871179 
L 78.52234 68.043763 
L 79.331623 67.405888 
L 80.221714 66.924273 
L 81.181406 66.577157 
L 82.19794 66.349712 
L 84.345528 66.217654 
L 86.545226 66.488807 
L 88.673845 67.168161 
L 89.672742 67.673907 
L 90.605241 68.300688 
L 91.453361 69.0538 
L 92.201581 69.928234 
L 93.367604 71.880348 
L 94.367703 73.883441 
L 94.696705 74.047245 
L 94.897218 73.71557 
L 94.982077 73.426158 
L 95.092199 76.884613 
L 95.323969 77.801203 
L 95.494275 79.247164 
L 95.599276 73.211172 
L 95.622325 73.129255 
L 95.743558 60.113025 
L 96.134523 57.854602 
L 96.147328 69.992813 
L 96.239524 69.668035 
L 96.262573 69.585838 
L 96.372696 75.58984 
L 96.628795 76.712858 
L 96.774771 77.857525 
L 96.879772 71.966634 
L 96.902821 71.920985 
L 97.024054 59.148243 
L 97.415019 57.322186 
L 97.427824 69.467186 
L 97.52002 69.183152 
L 97.543069 69.110665 
L 97.653192 75.13083 
L 97.93362 76.425091 
L 98.055267 77.400506 
L 98.160268 71.538294 
L 98.183317 71.499567 
L 98.30455 58.77067 
L 98.695516 57.027316 
L 98.70832 69.173729 
L 98.800516 68.898515 
L 98.823565 68.828141 
L 98.933688 74.853653 
L 99.214116 76.158966 
L 99.335764 77.137214 
L 99.440764 71.282767 
L 99.463813 71.245814 
L 99.585046 58.526292 
L 99.976012 56.800656 
L 99.988817 68.947387 
L 100.081012 68.674395 
L 100.104061 68.604549 
L 100.214184 74.632859 
L 100.494613 75.946859 
L 100.61626 76.930739 
L 100.72126 71.079405 
L 100.744309 71.0431 
L 100.865542 58.32568 
L 101.256508 56.603844 
L 101.269313 68.750652 
L 101.361508 68.478393 
L 101.384557 68.408717 
L 101.49468 74.439032 
L 101.775109 75.760325 
L 101.896756 76.749775 
L 102.001756 70.90034 
L 102.024805 70.864401 
L 102.146038 58.147469 
L 102.537004 56.426343 
L 102.549809 68.573173 
L 102.642005 68.301277 
L 102.665053 68.231683 
L 102.775176 74.26364 
L 103.055605 75.591218 
L 103.177252 76.585683 
L 103.282253 70.737722 
L 103.305302 70.702056 
L 103.426534 57.98524 
L 103.8175 56.264115 
L 103.830305 68.410952 
L 103.922501 68.139304 
L 103.94555 68.069765 
L 104.055672 74.103133 
L 104.336101 75.436204 
L 104.457748 76.435118 
L 104.562749 70.588407 
L 104.585798 70.55297 
L 104.70703 57.836175 
L 105.097996 56.11487 
L 105.110801 68.26171 
L 105.202997 67.990257 
L 105.226046 67.92076 
L 105.336168 73.955362 
L 105.616597 75.293278 
L 105.738244 76.296146 
L 105.843245 70.450527 
L 105.866294 70.415289 
L 105.987527 57.698482 
L 106.378492 55.976937 
L 106.391297 68.123778 
L 106.483493 67.852483 
L 106.506542 67.783021 
L 106.616665 73.818711 
L 106.897093 75.160927 
L 107.01874 76.167327 
L 107.123741 70.322673 
L 107.14679 70.287611 
L 107.268023 57.570774 
L 107.658988 55.848958 
L 107.671793 67.995798 
L 107.763989 67.724633 
L 107.787038 67.655198 
L 107.897161 73.691854 
L 108.177589 75.037906 
L 108.299236 76.047476 
L 108.404237 70.203679 
L 108.427286 70.168772 
L 108.548519 57.451892 
L 108.939484 55.729782 
L 108.952289 67.876618 
L 109.044485 67.60556 
L 109.067534 67.536147 
L 109.177657 73.573662 
L 109.458085 74.923151 
L 109.579733 75.935578 
L 109.684733 70.092545 
L 109.707782 70.057776 
L 109.829015 57.340843 
L 110.219981 55.618416 
L 110.232786 67.765249 
L 110.324981 67.494275 
L 110.34803 67.424879 
L 110.458153 73.463161 
L 110.738582 74.815743 
L 110.860229 75.83076 
L 110.965229 69.988411 
L 110.988278 69.953765 
L 111.109511 57.236768 
L 111.500477 55.514008 
L 111.513282 67.660835 
L 111.605477 67.389928 
L 111.628526 67.320545 
L 111.738649 73.359515 
L 112.019078 74.714897 
L 112.140725 75.732277 
L 112.245725 69.890544 
L 112.268774 69.856008 
L 112.390007 57.13894 
L 112.780973 55.415828 
L 112.793778 67.562649 
L 112.885974 67.291793 
L 112.909022 67.222419 
L 113.019145 73.262012 
L 113.299574 74.619951 
L 113.421221 75.639506 
L 113.526222 69.798333 
L 113.549271 69.763897 
L 113.670503 57.046749 
L 114.061469 55.323271 
L 114.074274 67.470084 
L 114.16647 67.199266 
L 114.189519 67.129898 
L 114.299641 73.17006 
L 114.58007 74.530358 
L 114.701717 75.551937 
L 114.806718 69.711279 
L 114.829767 69.676934 
L 114.950999 56.9597 
L 115.341965 55.23584 
L 115.35477 67.382646 
L 115.446966 67.111855 
L 115.470015 67.042491 
L 115.580137 73.083179 
L 115.860566 74.445679 
L 115.982213 75.469159 
L 116.087214 69.628978 
L 116.110263 69.594718 
L 116.231496 56.877393 
L 116.622461 55.153138 
L 116.635266 67.299935 
L 116.727462 67.029162 
L 116.750511 66.9598 
L 116.860634 73.000979 
L 117.141062 74.36555 
L 117.262709 75.39083 
L 117.36771 69.551095 
L 117.390759 69.516913 
L 117.511992 56.799491 
L 117.902957 55.07483 
L 117.915762 67.221617 
L 118.007958 66.950855 
L 118.031007 66.881492 
L 118.14113 72.923131 
L 118.421558 74.289649 
L 118.543205 75.316631 
L 118.648206 69.47731 
L 118.671255 69.443201 
L 118.792488 56.725677 
L 119.183453 55.000597 
L 119.196258 67.147375 
L 119.288454 66.876613 
L 119.311503 66.807248 
L 119.421626 72.849309 
L 119.702054 74.217624 
L 119.823702 75.246176 
L 119.928702 69.40723 
L 119.951751 69.373186 
L 120.072984 56.655553 
L 120.46395 54.930042 
L 120.476755 67.076809 
L 120.56895 66.806035 
L 120.591999 66.736665 
L 120.702122 72.779084 
L 120.982551 74.148905 
L 121.104198 75.178761 
L 121.209198 69.340104 
L 121.232247 69.306108 
L 121.35348 56.588358 
L 121.744446 54.862396 
L 121.757251 67.00915 
L 121.849446 66.738331 
L 121.872495 66.668948 
L 121.982618 72.711551 
L 122.263047 74.082004 
L 122.384694 75.112304 
L 122.489694 69.273663 
L 122.512743 69.239662 
L 122.633976 56.521768 
L 123.024942 54.79531 
L 123.037747 66.942046 
L 123.129943 66.671066 
L 123.152991 66.601641 
L 123.263114 72.643764 
L 123.543543 74.011407 
L 123.66519 75.038688 
L 123.770191 69.198958 
L 123.79324 69.164738 
L 123.914472 56.446601 
L 124.305438 54.719482 
L 124.318243 66.866177 
L 124.410439 66.59455 
L 124.433488 66.524964 
L 124.54361 72.563776 
L 124.824039 73.913821 
L 124.945686 74.923198 
L 125.050687 69.077651 
L 125.073736 69.04229 
L 125.194968 56.323497 
L 125.585934 54.595035 
L 125.598739 66.74159 
L 125.690935 66.467221 
L 125.713984 66.39696 
L 125.824106 72.420259 
L 126.104535 73.68992 
L 126.226182 74.620018 
L 126.331183 68.749544 
L 126.354232 68.709342 
L 126.475465 55.988237 
L 126.86643 54.255719 
L 126.879235 66.401739 
L 126.971431 66.116245 
L 126.99448 66.043257 
L 127.104603 72.002944 
L 127.409361 73.077544 
L 127.506678 73.615138 
L 127.611679 67.662621 
L 127.634728 67.60676 
L 127.755961 54.878523 
L 128.146926 53.134061 
L 128.159731 65.278402 
L 128.251927 64.957757 
L 128.274976 64.876223 
L 128.385099 70.642154 
L 128.787174 70.905658 
L 128.892175 64.809551 
L 128.915224 64.727202 
L 129.036457 51.987039 
L 129.427422 50.222572 
L 129.440227 62.364116 
L 129.532423 61.985784 
L 129.555472 61.890428 
L 129.568277 67.594624 
L 129.665595 67.362992 
L 130.067671 66.265644 
L 130.172671 60.06971 
L 130.19572 59.969592 
L 130.316953 47.221093 
L 130.707919 45.440603 
L 130.720724 57.580173 
L 130.812919 57.163475 
L 130.835968 57.059044 
L 130.848773 62.751755 
L 130.946091 62.354594 
L 131.348167 60.651216 
L 131.453167 54.42026 
L 131.476216 54.313966 
L 131.597449 41.56077 
L 131.988415 39.761431 
L 132.00122 51.899671 
L 132.093415 51.465488 
L 132.116464 51.356869 
L 132.129269 57.045181 
L 132.226587 56.590917 
L 132.628663 54.697574 
L 132.733663 48.451884 
L 132.756712 48.342723 
L 132.877945 35.579597 
L 133.268911 33.712353 
L 133.281716 45.847036 
L 133.373912 45.384885 
L 133.39696 45.269287 
L 133.409765 50.953181 
L 133.507083 50.459409 
L 133.909159 48.414465 
L 133.921964 45.082936 
L 134.70055 41.541397 
L 135.881347 37.48116 
L 137.757995 33.80071 
L 140.61093 31.96134 
L 144.66622 31.504669 
L 156.876904 31.436199 
L 390.021189 31.435908 
L 390.021189 31.435908 
" clip-path="url(#p82051d4225)" style="fill: none; stroke: #ff0000; stroke-width: 1.5; stroke-linecap: square"/>
   </g>
   <g id="line2d_16">
    <path d="M 75.78744 21.492773 
L 92.840253 21.580652 
L 93.367604 21.736329 
L 93.789551 22.046136 
L 94.117862 22.536191 
L 94.555374 23.86266 
L 94.982077 26.470851 
L 95.092199 31.970809 
L 95.494275 35.234566 
L 95.50708 28.867822 
L 95.599276 29.581046 
L 95.622325 29.756605 
L 95.63513 25.01093 
L 95.743558 25.774244 
L 96.134523 28.094927 
L 96.239524 33.497279 
L 96.262573 33.619456 
L 96.372696 40.678389 
L 96.774771 42.826578 
L 96.787576 36.426054 
L 96.879772 36.907346 
L 96.902821 37.027248 
L 96.915626 32.251407 
L 97.024054 32.794581 
L 97.415019 34.678541 
L 97.52002 40.024093 
L 97.543069 40.134689 
L 97.653192 47.139139 
L 98.055267 49.097003 
L 98.068072 42.690643 
L 98.160268 43.131562 
L 98.183317 43.241705 
L 98.196122 38.460564 
L 98.30455 38.96433 
L 98.695516 40.765148 
L 98.800516 46.098988 
L 98.823565 46.207175 
L 98.933688 53.200259 
L 99.335764 55.118261 
L 99.348569 48.710677 
L 99.440764 49.143112 
L 99.463813 49.251202 
L 99.476618 44.468945 
L 99.585046 44.964388 
L 99.976012 46.747427 
L 100.081012 52.078721 
L 100.104061 52.186384 
L 100.214184 59.176993 
L 100.61626 61.086304 
L 100.629065 54.678454 
L 100.72126 55.109037 
L 100.744309 55.216679 
L 100.757114 50.43418 
L 100.865542 50.927804 
L 101.256508 52.70695 
L 101.361508 58.037685 
L 101.384557 58.145233 
L 101.49468 65.135297 
L 101.896756 67.042698 
L 101.909561 60.634788 
L 102.001756 61.064965 
L 102.024805 61.172508 
L 102.03761 56.389955 
L 102.146038 56.88318 
L 102.537004 58.661469 
L 102.642005 63.992081 
L 102.665053 64.099603 
L 102.775176 71.089547 
L 103.177252 72.996527 
L 103.190057 66.588605 
L 103.282253 67.018692 
L 103.305302 67.126213 
L 103.318107 62.343648 
L 103.426534 62.836785 
L 103.8175 64.614885 
L 103.922501 69.94547 
L 103.94555 70.052987 
L 104.055672 77.042904 
L 104.457748 78.949791 
L 104.470553 72.541866 
L 104.562749 72.971933 
L 104.585798 73.07945 
L 104.598603 68.296883 
L 104.70703 68.79 
L 105.097996 70.568059 
L 105.202997 75.898637 
L 105.226046 76.006153 
L 105.336168 82.996064 
L 105.738244 84.902931 
L 105.751049 78.495005 
L 105.843245 78.925068 
L 105.866294 79.032584 
L 105.879099 74.250016 
L 105.987527 74.743129 
L 106.378492 76.521178 
L 106.483493 81.851755 
L 106.506542 81.959271 
L 106.616665 88.949181 
L 107.01874 90.856043 
L 107.031545 84.448117 
L 107.123741 84.878179 
L 107.14679 84.985695 
L 107.159595 80.203126 
L 107.268023 80.696238 
L 107.658988 82.474286 
L 107.763989 87.804863 
L 107.787038 87.912378 
L 107.897161 94.902288 
L 108.299236 96.80915 
L 108.312041 90.401223 
L 108.404237 90.831285 
L 108.427286 90.938801 
L 108.440091 86.156232 
L 108.548519 86.649344 
L 108.939484 88.427391 
L 109.044485 93.757968 
L 109.067534 93.865483 
L 109.177657 100.855393 
L 109.579733 102.762254 
L 109.592538 96.354328 
L 109.684733 96.78439 
L 109.707782 96.891905 
L 109.720587 92.109337 
L 109.829015 92.602449 
L 110.219981 94.380496 
L 110.324981 99.711073 
L 110.34803 99.818588 
L 110.458153 106.808498 
L 110.860229 108.715359 
L 110.873034 102.307433 
L 110.965229 102.737495 
L 110.988278 102.84501 
L 111.001083 98.062442 
L 111.109511 98.555553 
L 111.500477 100.333601 
L 111.605477 105.664177 
L 111.628526 105.771692 
L 111.738649 112.761602 
L 112.140725 114.668464 
L 112.15353 108.260537 
L 112.245725 108.690599 
L 112.268774 108.798114 
L 112.281579 104.015546 
L 112.390007 104.508658 
L 112.780973 106.286705 
L 112.885974 111.617282 
L 112.909022 111.724797 
L 113.019145 118.714707 
L 113.421221 120.621568 
L 113.434026 114.213642 
L 113.526222 114.643704 
L 113.549271 114.751219 
L 113.562076 109.968651 
L 113.670503 110.461762 
L 114.061469 112.23981 
L 114.16647 117.570386 
L 114.189519 117.677901 
L 114.299641 124.667811 
L 114.701717 126.574673 
L 114.714522 120.166746 
L 114.806718 120.596808 
L 114.829767 120.704323 
L 114.842572 115.921755 
L 114.950999 116.414867 
L 115.341965 118.192914 
L 115.446966 123.523491 
L 115.470015 123.631006 
L 115.580137 130.620916 
L 115.982213 132.527777 
L 115.995018 126.119851 
L 116.087214 126.549913 
L 116.110263 126.657428 
L 116.123068 121.87486 
L 116.231496 122.367971 
L 116.622461 124.146019 
L 116.727462 129.476595 
L 116.750511 129.58411 
L 116.860634 136.57402 
L 117.262709 138.480882 
L 117.275514 132.072955 
L 117.36771 132.503017 
L 117.390759 132.610532 
L 117.403564 127.827964 
L 117.511992 128.321076 
L 117.902957 130.099123 
L 118.007958 135.4297 
L 118.031007 135.537215 
L 118.14113 142.527125 
L 118.543205 144.433986 
L 118.55601 138.02606 
L 118.648206 138.456122 
L 118.671255 138.563637 
L 118.68406 133.781069 
L 118.792488 134.27418 
L 119.183453 136.052228 
L 119.288454 141.382804 
L 119.311503 141.490319 
L 119.421626 148.480229 
L 119.823702 150.387091 
L 119.836507 143.979164 
L 119.928702 144.409226 
L 119.951751 144.516741 
L 119.964556 139.734173 
L 120.072984 140.227285 
L 120.46395 142.005332 
L 120.56895 147.335909 
L 120.591999 147.443424 
L 120.702122 154.433334 
L 121.104198 156.340195 
L 121.117003 149.932269 
L 121.209198 150.362331 
L 121.232247 150.469846 
L 121.245052 145.687278 
L 121.35348 146.18039 
L 121.744446 147.958437 
L 121.849446 153.289013 
L 121.872495 153.396529 
L 121.982618 160.386439 
L 122.384694 162.2933 
L 122.397499 155.885374 
L 122.489694 156.315436 
L 122.512743 156.422951 
L 122.525548 151.640383 
L 122.633976 152.133495 
L 123.024942 153.911542 
L 123.129943 159.242119 
L 123.152991 159.349634 
L 123.263114 166.339544 
L 123.66519 168.246406 
L 123.677995 161.83848 
L 123.770191 162.268542 
L 123.79324 162.376057 
L 123.806045 157.593489 
L 123.914472 158.086601 
L 124.305438 159.86465 
L 124.410439 165.195228 
L 124.433488 165.302743 
L 124.54361 172.292654 
L 124.945686 174.199519 
L 124.958491 167.791593 
L 125.050687 168.221655 
L 125.073736 168.329171 
L 125.086541 163.546603 
L 125.194968 164.039716 
L 125.585934 165.817773 
L 125.690935 171.148353 
L 125.713984 171.255869 
L 125.824106 178.245784 
L 126.226182 180.152661 
L 126.238987 173.744735 
L 126.331183 174.174801 
L 126.354232 174.282317 
L 126.367037 169.499749 
L 126.475465 169.992867 
L 126.86643 171.770957 
L 126.971431 177.101552 
L 126.99448 177.209072 
L 127.104603 184.199001 
L 127.506678 186.105935 
L 127.519483 179.698011 
L 127.611679 180.12809 
L 127.634728 180.235609 
L 127.647533 175.453044 
L 127.755961 175.946181 
L 128.146926 177.724425 
L 128.251927 183.055085 
L 128.274976 183.162619 
L 128.385099 190.152618 
L 128.787174 192.05981 
L 128.799979 185.651895 
L 128.892175 186.082032 
L 128.915224 186.189567 
L 128.928029 181.407009 
L 129.036457 181.900236 
L 129.427422 183.679178 
L 129.532423 189.010133 
L 129.555472 189.117732 
L 129.665595 196.108049 
L 130.067671 198.01641 
L 130.080476 191.608532 
L 130.172671 192.038938 
L 130.19572 192.146541 
L 130.208525 187.36402 
L 130.316953 187.857653 
L 130.707919 189.639767 
L 130.812919 194.972061 
L 130.835968 195.079957 
L 130.946091 202.071716 
L 131.348167 203.985391 
L 131.360972 197.577681 
L 131.453167 198.009308 
L 131.476216 198.117219 
L 131.489021 193.334868 
L 131.597449 193.830348 
L 131.988415 195.626919 
L 132.093415 200.965329 
L 132.116464 201.074577 
L 132.226587 208.072923 
L 132.628663 210.010858 
L 132.641468 203.603921 
L 132.733663 204.04112 
L 132.756712 204.150441 
L 132.769517 199.368867 
L 132.877945 199.872822 
L 133.268911 201.736479 
L 133.373912 207.10345 
L 133.39696 207.219018 
L 133.507083 214.248128 
L 133.909159 216.299437 
L 133.921964 211.783167 
L 134.70055 215.324359 
L 135.881347 219.378313 
L 137.757995 223.048469 
L 140.61093 224.880907 
L 144.66622 225.335639 
L 156.876904 225.403754 
L 390.021189 225.404073 
L 390.021189 225.404073 
" clip-path="url(#p82051d4225)" style="fill: none; stroke-dasharray: 5.55,2.4; stroke-dashoffset: 0; stroke: #0000ff; stroke-width: 1.5"/>
   </g>
   <g id="line2d_17">
    <path d="M 75.78744 235.347273 
L 92.840253 235.259393 
L 93.367604 235.103716 
L 93.789551 234.793909 
L 94.117862 234.303854 
L 94.555374 232.977385 
L 94.982077 230.369195 
L 94.994882 233.529135 
L 95.092199 232.717122 
L 95.494275 229.453365 
L 95.599276 222.890216 
L 95.622325 222.714658 
L 95.743558 209.657369 
L 96.134523 207.336686 
L 96.147328 219.466697 
L 96.239524 218.973983 
L 96.262573 218.851806 
L 96.275378 224.532049 
L 96.372696 224.009542 
L 96.774771 221.861353 
L 96.879772 215.563916 
L 96.902821 215.444014 
L 97.024054 202.637033 
L 97.415019 200.753073 
L 97.427824 212.890312 
L 97.52002 212.447169 
L 97.543069 212.336573 
L 97.555874 218.023171 
L 97.653192 217.548792 
L 98.055267 215.590928 
L 98.160268 209.339701 
L 98.183317 209.229557 
L 98.30455 196.467283 
L 98.695516 194.666465 
L 98.70832 206.805187 
L 98.800516 206.372275 
L 98.823565 206.264087 
L 98.83637 211.95201 
L 98.933688 211.487672 
L 99.335764 209.56967 
L 99.440764 203.32815 
L 99.463813 203.220061 
L 99.585046 190.467226 
L 99.976012 188.684186 
L 99.988817 200.823229 
L 100.081012 200.392541 
L 100.104061 200.284878 
L 100.116866 205.973089 
L 100.214184 205.510939 
L 100.61626 203.601627 
L 100.72126 197.362225 
L 100.744309 197.254583 
L 100.865542 184.503809 
L 101.256508 182.724663 
L 101.269313 194.863777 
L 101.361508 194.433577 
L 101.384557 194.326029 
L 101.397362 200.014303 
L 101.49468 199.552634 
L 101.896756 197.645233 
L 102.001756 191.406297 
L 102.024805 191.298754 
L 102.146038 178.548434 
L 102.537004 176.770144 
L 102.549809 188.909274 
L 102.642005 188.479181 
L 102.665053 188.371659 
L 102.677858 194.059947 
L 102.775176 193.598384 
L 103.177252 191.691404 
L 103.282253 185.45257 
L 103.305302 185.345049 
L 103.426534 172.594829 
L 103.8175 170.816728 
L 103.830305 182.955861 
L 103.922501 182.525792 
L 103.94555 182.418275 
L 103.958355 188.106567 
L 104.055672 187.645027 
L 104.457748 185.73814 
L 104.562749 179.499329 
L 104.585798 179.391812 
L 104.70703 166.641614 
L 105.097996 164.863555 
L 105.110801 177.002688 
L 105.202997 176.572625 
L 105.226046 176.465109 
L 105.238851 182.153401 
L 105.336168 181.691867 
L 105.738244 179.785 
L 105.843245 173.546194 
L 105.866294 173.438678 
L 105.987527 160.688485 
L 106.378492 158.910435 
L 106.391297 171.049569 
L 106.483493 170.619507 
L 106.506542 170.511991 
L 106.519347 176.200284 
L 106.616665 175.73875 
L 107.01874 173.831888 
L 107.123741 167.593083 
L 107.14679 167.485567 
L 107.268023 154.735375 
L 107.658988 152.957327 
L 107.671793 165.096461 
L 107.763989 164.666399 
L 107.787038 164.558884 
L 107.799843 170.247176 
L 107.897161 169.785643 
L 108.299236 167.878781 
L 108.404237 161.639977 
L 108.427286 161.532461 
L 108.548519 148.782269 
L 108.939484 147.004222 
L 108.952289 159.143356 
L 109.044485 158.713294 
L 109.067534 158.605779 
L 109.080339 164.294071 
L 109.177657 163.832538 
L 109.579733 161.925677 
L 109.684733 155.686872 
L 109.707782 155.579357 
L 109.829015 142.829165 
L 110.219981 141.051117 
L 110.232786 153.190251 
L 110.324981 152.76019 
L 110.34803 152.652674 
L 110.360835 158.340966 
L 110.458153 157.879433 
L 110.860229 155.972572 
L 110.965229 149.733768 
L 110.988278 149.626252 
L 111.109511 136.87606 
L 111.500477 135.098013 
L 111.513282 147.237147 
L 111.605477 146.807085 
L 111.628526 146.69957 
L 111.641331 152.387862 
L 111.738649 151.926329 
L 112.140725 150.019467 
L 112.245725 143.780663 
L 112.268774 143.673148 
L 112.390007 130.922956 
L 112.780973 129.144908 
L 112.793778 141.284042 
L 112.885974 140.85398 
L 112.909022 140.746465 
L 112.921827 146.434757 
L 113.019145 145.973224 
L 113.421221 144.066363 
L 113.526222 137.827559 
L 113.549271 137.720043 
L 113.670503 124.969851 
L 114.061469 123.191804 
L 114.074274 135.330938 
L 114.16647 134.900876 
L 114.189519 134.793361 
L 114.202324 140.481653 
L 114.299641 140.02012 
L 114.701717 138.113258 
L 114.806718 131.874454 
L 114.829767 131.766939 
L 114.950999 119.016747 
L 115.341965 117.238699 
L 115.35477 129.377833 
L 115.446966 128.947772 
L 115.470015 128.840256 
L 115.48282 134.528548 
L 115.580137 134.067015 
L 115.982213 132.160154 
L 116.087214 125.92135 
L 116.110263 125.813834 
L 116.231496 113.063642 
L 116.622461 111.285595 
L 116.635266 123.424729 
L 116.727462 122.994667 
L 116.750511 122.887152 
L 116.763316 128.575444 
L 116.860634 128.113911 
L 117.262709 126.207049 
L 117.36771 119.968245 
L 117.390759 119.86073 
L 117.511992 107.110538 
L 117.902957 105.33249 
L 117.915762 117.471624 
L 118.007958 117.041563 
L 118.031007 116.934047 
L 118.043812 122.622339 
L 118.14113 122.160806 
L 118.543205 120.253945 
L 118.648206 114.015141 
L 118.671255 113.907625 
L 118.792488 101.157433 
L 119.183453 99.379386 
L 119.196258 111.51852 
L 119.288454 111.088458 
L 119.311503 110.980943 
L 119.324308 116.669235 
L 119.421626 116.207702 
L 119.823702 114.30084 
L 119.928702 108.062036 
L 119.951751 107.954521 
L 120.072984 95.204329 
L 120.46395 93.426281 
L 120.476755 105.565415 
L 120.56895 105.135353 
L 120.591999 105.027838 
L 120.604804 110.71613 
L 120.702122 110.254597 
L 121.104198 108.347736 
L 121.209198 102.108931 
L 121.232247 102.001416 
L 121.35348 89.251224 
L 121.744446 87.473177 
L 121.757251 99.61231 
L 121.849446 99.182249 
L 121.872495 99.074733 
L 121.8853 104.763026 
L 121.982618 104.301492 
L 122.384694 102.394631 
L 122.489694 96.155827 
L 122.512743 96.048311 
L 122.633976 83.298119 
L 123.024942 81.520071 
L 123.037747 93.659205 
L 123.129943 93.229143 
L 123.152991 93.121628 
L 123.165796 98.80992 
L 123.263114 98.348387 
L 123.66519 96.441525 
L 123.770191 90.20272 
L 123.79324 90.095205 
L 123.914472 77.345012 
L 124.305438 75.566963 
L 124.318243 87.706097 
L 124.410439 87.276034 
L 124.433488 87.168519 
L 124.446293 92.856811 
L 124.54361 92.395277 
L 124.945686 90.488412 
L 125.050687 84.249607 
L 125.073736 84.142091 
L 125.194968 71.391898 
L 125.585934 69.613841 
L 125.598739 81.752974 
L 125.690935 81.322909 
L 125.713984 81.215393 
L 125.726789 86.903684 
L 125.824106 86.442147 
L 126.226182 84.53527 
L 126.331183 78.296461 
L 126.354232 78.188945 
L 126.475465 65.438747 
L 126.86643 63.660656 
L 126.879235 75.799788 
L 126.971431 75.36971 
L 126.99448 75.262191 
L 127.007285 80.95048 
L 127.104603 80.48893 
L 127.506678 78.581996 
L 127.611679 72.343172 
L 127.634728 72.235653 
L 127.755961 59.485433 
L 128.146926 57.707188 
L 128.159731 69.846312 
L 128.251927 69.416177 
L 128.274976 69.308643 
L 128.287781 74.996925 
L 128.385099 74.535313 
L 128.787174 72.628121 
L 128.892175 66.38923 
L 128.915224 66.281695 
L 129.036457 53.531378 
L 129.427422 51.752435 
L 129.440227 63.891524 
L 129.532423 63.461129 
L 129.555472 63.35353 
L 129.568277 69.041775 
L 129.665595 68.579882 
L 130.067671 66.671521 
L 130.172671 60.432324 
L 130.19572 60.324721 
L 130.316953 47.57396 
L 130.707919 45.791847 
L 130.720724 57.930774 
L 130.812919 57.499201 
L 130.835968 57.391306 
L 130.848773 63.079384 
L 130.946091 62.616215 
L 131.348167 60.70254 
L 131.453167 54.461954 
L 131.476216 54.354043 
L 131.597449 41.601265 
L 131.988415 39.804694 
L 132.00122 51.942888 
L 132.093415 51.505933 
L 132.116464 51.396685 
L 132.129269 57.084004 
L 132.226587 56.615008 
L 132.628663 54.677073 
L 132.733663 48.430142 
L 132.756712 48.320821 
L 132.877945 35.558792 
L 133.268911 33.695134 
L 133.281716 45.829898 
L 133.373912 45.367812 
L 133.39696 45.252244 
L 133.409765 50.936018 
L 133.507083 50.439803 
L 133.909159 48.388494 
L 133.921964 45.056879 
L 134.70055 41.515686 
L 135.881347 37.461733 
L 137.757995 33.791577 
L 140.61093 31.959139 
L 144.66622 31.504406 
L 156.876904 31.436291 
L 390.021189 31.435973 
L 390.021189 31.435973 
" clip-path="url(#p82051d4225)" style="fill: none; stroke-dasharray: 5.55,2.4; stroke-dashoffset: 0; stroke: #ff0000; stroke-width: 1.5"/>
   </g>
   <g id="patch_3">
    <path d="M 60.075752 246.04 
L 60.075752 10.8 
" style="fill: none; stroke: #000000; stroke-width: 0.8; stroke-linejoin: miter; stroke-linecap: square"/>
   </g>
   <g id="patch_4">
    <path d="M 405.732876 246.04 
L 405.732876 10.8 
" style="fill: none; stroke: #000000; stroke-width: 0.8; stroke-linejoin: miter; stroke-linecap: square"/>
   </g>
   <g id="patch_5">
    <path d="M 60.075752 246.04 
L 405.732876 246.04 
" style="fill: none; stroke: #000000; stroke-width: 0.8; stroke-linejoin: miter; stroke-linecap: square"/>
   </g>
   <g id="patch_6">
    <path d="M 60.075752 10.8 
L 405.732876 10.8 
" style="fill: none; stroke: #000000; stroke-width: 0.8; stroke-linejoin: miter; stroke-linecap: square"/>
   </g>
  </g>
  <g id="axes_2">
   <g id="patch_7">
    <path d="M 453.542876 246.04 
L 799.2 246.04 
L 799.2 10.8 
L 453.542876 10.8 
z
" style="fill: #ffffff"/>
   </g>
   <g id="matplotlib.axis_3">
    <g id="xtick_6">
     <g id="line2d_18">
      <g>
       <use xlink:href="#mcfd606e8e3" x="475.146446" y="246.04" style="stroke: #000000; stroke-width: 0.8"/>
      </g>
     </g>
     <g id="text_16">
      <!-- 400 -->
      <g transform="translate(465.602696 260.638438) scale(0.1 -0.1)">
       <use xlink:href="#DejaVuSans-34"/>
       <use xlink:href="#DejaVuSans-30" x="63.623047"/>
       <use xlink:href="#DejaVuSans-30" x="127.246094"/>
      </g>
     </g>
    </g>
    <g id="xtick_7">
     <g id="line2d_19">
      <g>
       <use xlink:href="#mcfd606e8e3" x="518.353587" y="246.04" style="stroke: #000000; stroke-width: 0.8"/>
      </g>
     </g>
     <g id="text_17">
      <!-- 500 -->
      <g transform="translate(508.809837 260.638438) scale(0.1 -0.1)">
       <use xlink:href="#DejaVuSans-35"/>
       <use xlink:href="#DejaVuSans-30" x="63.623047"/>
       <use xlink:href="#DejaVuSans-30" x="127.246094"/>
      </g>
     </g>
    </g>
    <g id="xtick_8">
     <g id="line2d_20">
      <g>
       <use xlink:href="#mcfd606e8e3" x="561.560727" y="246.04" style="stroke: #000000; stroke-width: 0.8"/>
      </g>
     </g>
     <g id="text_18">
      <!-- 600 -->
      <g transform="translate(552.016977 260.638438) scale(0.1 -0.1)">
       <defs>
        <path id="DejaVuSans-36" d="M 2113 2584 
Q 1688 2584 1439 2293 
Q 1191 2003 1191 1497 
Q 1191 994 1439 701 
Q 1688 409 2113 409 
Q 2538 409 2786 701 
Q 3034 994 3034 1497 
Q 3034 2003 2786 2293 
Q 2538 2584 2113 2584 
z
M 3366 4563 
L 3366 3988 
Q 3128 4100 2886 4159 
Q 2644 4219 2406 4219 
Q 1781 4219 1451 3797 
Q 1122 3375 1075 2522 
Q 1259 2794 1537 2939 
Q 1816 3084 2150 3084 
Q 2853 3084 3261 2657 
Q 3669 2231 3669 1497 
Q 3669 778 3244 343 
Q 2819 -91 2113 -91 
Q 1303 -91 875 529 
Q 447 1150 447 2328 
Q 447 3434 972 4092 
Q 1497 4750 2381 4750 
Q 2619 4750 2861 4703 
Q 3103 4656 3366 4563 
z
" transform="scale(0.015625)"/>
       </defs>
       <use xlink:href="#DejaVuSans-36"/>
       <use xlink:href="#DejaVuSans-30" x="63.623047"/>
       <use xlink:href="#DejaVuSans-30" x="127.246094"/>
      </g>
     </g>
    </g>
    <g id="xtick_9">
     <g id="line2d_21">
      <g>
       <use xlink:href="#mcfd606e8e3" x="604.767868" y="246.04" style="stroke: #000000; stroke-width: 0.8"/>
      </g>
     </g>
     <g id="text_19">
      <!-- 700 -->
      <g transform="translate(595.224118 260.638438) scale(0.1 -0.1)">
       <use xlink:href="#DejaVuSans-37"/>
       <use xlink:href="#DejaVuSans-30" x="63.623047"/>
       <use xlink:href="#DejaVuSans-30" x="127.246094"/>
      </g>
     </g>
    </g>
    <g id="xtick_10">
     <g id="line2d_22">
      <g>
       <use xlink:href="#mcfd606e8e3" x="647.975008" y="246.04" style="stroke: #000000; stroke-width: 0.8"/>
      </g>
     </g>
     <g id="text_20">
      <!-- 800 -->
      <g transform="translate(638.431258 260.638438) scale(0.1 -0.1)">
       <use xlink:href="#DejaVuSans-38"/>
       <use xlink:href="#DejaVuSans-30" x="63.623047"/>
       <use xlink:href="#DejaVuSans-30" x="127.246094"/>
      </g>
     </g>
    </g>
    <g id="xtick_11">
     <g id="line2d_23">
      <g>
       <use xlink:href="#mcfd606e8e3" x="691.182149" y="246.04" style="stroke: #000000; stroke-width: 0.8"/>
      </g>
     </g>
     <g id="text_21">
      <!-- 900 -->
      <g transform="translate(681.638399 260.638438) scale(0.1 -0.1)">
       <defs>
        <path id="DejaVuSans-39" d="M 703 97 
L 703 672 
Q 941 559 1184 500 
Q 1428 441 1663 441 
Q 2288 441 2617 861 
Q 2947 1281 2994 2138 
Q 2813 1869 2534 1725 
Q 2256 1581 1919 1581 
Q 1219 1581 811 2004 
Q 403 2428 403 3163 
Q 403 3881 828 4315 
Q 1253 4750 1959 4750 
Q 2769 4750 3195 4129 
Q 3622 3509 3622 2328 
Q 3622 1225 3098 567 
Q 2575 -91 1691 -91 
Q 1453 -91 1209 -44 
Q 966 3 703 97 
z
M 1959 2075 
Q 2384 2075 2632 2365 
Q 2881 2656 2881 3163 
Q 2881 3666 2632 3958 
Q 2384 4250 1959 4250 
Q 1534 4250 1286 3958 
Q 1038 3666 1038 3163 
Q 1038 2656 1286 2365 
Q 1534 2075 1959 2075 
z
" transform="scale(0.015625)"/>
       </defs>
       <use xlink:href="#DejaVuSans-39"/>
       <use xlink:href="#DejaVuSans-30" x="63.623047"/>
       <use xlink:href="#DejaVuSans-30" x="127.246094"/>
      </g>
     </g>
    </g>
    <g id="xtick_12">
     <g id="line2d_24">
      <g>
       <use xlink:href="#mcfd606e8e3" x="734.389289" y="246.04" style="stroke: #000000; stroke-width: 0.8"/>
      </g>
     </g>
     <g id="text_22">
      <!-- 1000 -->
      <g transform="translate(721.664289 260.638438) scale(0.1 -0.1)">
       <use xlink:href="#DejaVuSans-31"/>
       <use xlink:href="#DejaVuSans-30" x="63.623047"/>
       <use xlink:href="#DejaVuSans-30" x="127.246094"/>
       <use xlink:href="#DejaVuSans-30" x="190.869141"/>
      </g>
     </g>
    </g>
    <g id="xtick_13">
     <g id="line2d_25">
      <g>
       <use xlink:href="#mcfd606e8e3" x="777.59643" y="246.04" style="stroke: #000000; stroke-width: 0.8"/>
      </g>
     </g>
     <g id="text_23">
      <!-- 1100 -->
      <g transform="translate(764.87143 260.638438) scale(0.1 -0.1)">
       <use xlink:href="#DejaVuSans-31"/>
       <use xlink:href="#DejaVuSans-31" x="63.623047"/>
       <use xlink:href="#DejaVuSans-30" x="127.246094"/>
       <use xlink:href="#DejaVuSans-30" x="190.869141"/>
      </g>
     </g>
    </g>
    <g id="text_24">
     <!-- Wavelength (nm) -->
     <g transform="translate(583.179251 274.316562) scale(0.1 -0.1)">
      <defs>
       <path id="DejaVuSans-57" d="M 213 4666 
L 850 4666 
L 1831 722 
L 2809 4666 
L 3519 4666 
L 4500 722 
L 5478 4666 
L 6119 4666 
L 4947 0 
L 4153 0 
L 3169 4050 
L 2175 0 
L 1381 0 
L 213 4666 
z
" transform="scale(0.015625)"/>
       <path id="DejaVuSans-76" d="M 191 3500 
L 800 3500 
L 1894 563 
L 2988 3500 
L 3597 3500 
L 2284 0 
L 1503 0 
L 191 3500 
z
" transform="scale(0.015625)"/>
       <path id="DejaVuSans-6c" d="M 603 4863 
L 1178 4863 
L 1178 0 
L 603 0 
L 603 4863 
z
" transform="scale(0.015625)"/>
       <path id="DejaVuSans-67" d="M 2906 1791 
Q 2906 2416 2648 2759 
Q 2391 3103 1925 3103 
Q 1463 3103 1205 2759 
Q 947 2416 947 1791 
Q 947 1169 1205 825 
Q 1463 481 1925 481 
Q 2391 481 2648 825 
Q 2906 1169 2906 1791 
z
M 3481 434 
Q 3481 -459 3084 -895 
Q 2688 -1331 1869 -1331 
Q 1566 -1331 1297 -1286 
Q 1028 -1241 775 -1147 
L 775 -588 
Q 1028 -725 1275 -790 
Q 1522 -856 1778 -856 
Q 2344 -856 2625 -561 
Q 2906 -266 2906 331 
L 2906 616 
Q 2728 306 2450 153 
Q 2172 0 1784 0 
Q 1141 0 747 490 
Q 353 981 353 1791 
Q 353 2603 747 3093 
Q 1141 3584 1784 3584 
Q 2172 3584 2450 3431 
Q 2728 3278 2906 2969 
L 2906 3500 
L 3481 3500 
L 3481 434 
z
" transform="scale(0.015625)"/>
       <path id="DejaVuSans-68" d="M 3513 2113 
L 3513 0 
L 2938 0 
L 2938 2094 
Q 2938 2591 2744 2837 
Q 2550 3084 2163 3084 
Q 1697 3084 1428 2787 
Q 1159 2491 1159 1978 
L 1159 0 
L 581 0 
L 581 4863 
L 1159 4863 
L 1159 2956 
Q 1366 3272 1645 3428 
Q 1925 3584 2291 3584 
Q 2894 3584 3203 3211 
Q 3513 2838 3513 2113 
z
" transform="scale(0.015625)"/>
      </defs>
      <use xlink:href="#DejaVuSans-57"/>
      <use xlink:href="#DejaVuSans-61" x="92.501953"/>
      <use xlink:href="#DejaVuSans-76" x="153.78125"/>
      <use xlink:href="#DejaVuSans-65" x="212.960938"/>
      <use xlink:href="#DejaVuSans-6c" x="274.484375"/>
      <use xlink:href="#DejaVuSans-65" x="302.267578"/>
      <use xlink:href="#DejaVuSans-6e" x="363.791016"/>
      <use xlink:href="#DejaVuSans-67" x="427.169922"/>
      <use xlink:href="#DejaVuSans-74" x="490.646484"/>
      <use xlink:href="#DejaVuSans-68" x="529.855469"/>
      <use xlink:href="#DejaVuSans-20" x="593.234375"/>
      <use xlink:href="#DejaVuSans-28" x="625.021484"/>
      <use xlink:href="#DejaVuSans-6e" x="664.035156"/>
      <use xlink:href="#DejaVuSans-6d" x="727.414062"/>
      <use xlink:href="#DejaVuSans-29" x="824.826172"/>
     </g>
    </g>
   </g>
   <g id="matplotlib.axis_4">
    <g id="ytick_9">
     <g id="line2d_26">
      <g>
       <use xlink:href="#mb43939314d" x="453.542876" y="246.04" style="stroke: #000000; stroke-width: 0.8"/>
      </g>
     </g>
     <g id="text_25">
      <!-- 0.0 -->
      <g transform="translate(430.639751 249.839219) scale(0.1 -0.1)">
       <defs>
        <path id="DejaVuSans-2e" d="M 684 794 
L 1344 794 
L 1344 0 
L 684 0 
L 684 794 
z
" transform="scale(0.015625)"/>
       </defs>
       <use xlink:href="#DejaVuSans-30"/>
       <use xlink:href="#DejaVuSans-2e" x="63.623047"/>
       <use xlink:href="#DejaVuSans-30" x="95.410156"/>
      </g>
     </g>
    </g>
    <g id="ytick_10">
     <g id="line2d_27">
      <g>
       <use xlink:href="#mb43939314d" x="453.542876" y="203.269091" style="stroke: #000000; stroke-width: 0.8"/>
      </g>
     </g>
     <g id="text_26">
      <!-- 0.2 -->
      <g transform="translate(430.639751 207.06831) scale(0.1 -0.1)">
       <use xlink:href="#DejaVuSans-30"/>
       <use xlink:href="#DejaVuSans-2e" x="63.623047"/>
       <use xlink:href="#DejaVuSans-32" x="95.410156"/>
      </g>
     </g>
    </g>
    <g id="ytick_11">
     <g id="line2d_28">
      <g>
       <use xlink:href="#mb43939314d" x="453.542876" y="160.498182" style="stroke: #000000; stroke-width: 0.8"/>
      </g>
     </g>
     <g id="text_27">
      <!-- 0.4 -->
      <g transform="translate(430.639751 164.297401) scale(0.1 -0.1)">
       <use xlink:href="#DejaVuSans-30"/>
       <use xlink:href="#DejaVuSans-2e" x="63.623047"/>
       <use xlink:href="#DejaVuSans-34" x="95.410156"/>
      </g>
     </g>
    </g>
    <g id="ytick_12">
     <g id="line2d_29">
      <g>
       <use xlink:href="#mb43939314d" x="453.542876" y="117.727273" style="stroke: #000000; stroke-width: 0.8"/>
      </g>
     </g>
     <g id="text_28">
      <!-- 0.6 -->
      <g transform="translate(430.639751 121.526491) scale(0.1 -0.1)">
       <use xlink:href="#DejaVuSans-30"/>
       <use xlink:href="#DejaVuSans-2e" x="63.623047"/>
       <use xlink:href="#DejaVuSans-36" x="95.410156"/>
      </g>
     </g>
    </g>
    <g id="ytick_13">
     <g id="line2d_30">
      <g>
       <use xlink:href="#mb43939314d" x="453.542876" y="74.956364" style="stroke: #000000; stroke-width: 0.8"/>
      </g>
     </g>
     <g id="text_29">
      <!-- 0.8 -->
      <g transform="translate(430.639751 78.755582) scale(0.1 -0.1)">
       <use xlink:href="#DejaVuSans-30"/>
       <use xlink:href="#DejaVuSans-2e" x="63.623047"/>
       <use xlink:href="#DejaVuSans-38" x="95.410156"/>
      </g>
     </g>
    </g>
    <g id="ytick_14">
     <g id="line2d_31">
      <g>
       <use xlink:href="#mb43939314d" x="453.542876" y="32.185455" style="stroke: #000000; stroke-width: 0.8"/>
      </g>
     </g>
     <g id="text_30">
      <!-- 1.0 -->
      <g transform="translate(430.639751 35.984673) scale(0.1 -0.1)">
       <use xlink:href="#DejaVuSans-31"/>
       <use xlink:href="#DejaVuSans-2e" x="63.623047"/>
       <use xlink:href="#DejaVuSans-30" x="95.410156"/>
      </g>
     </g>
    </g>
    <g id="text_31">
     <!-- EQE -->
     <g transform="translate(424.560064 138.674688) rotate(-90) scale(0.1 -0.1)">
      <defs>
       <path id="DejaVuSans-45" d="M 628 4666 
L 3578 4666 
L 3578 4134 
L 1259 4134 
L 1259 2753 
L 3481 2753 
L 3481 2222 
L 1259 2222 
L 1259 531 
L 3634 531 
L 3634 0 
L 628 0 
L 628 4666 
z
" transform="scale(0.015625)"/>
       <path id="DejaVuSans-51" d="M 2522 4238 
Q 1834 4238 1429 3725 
Q 1025 3213 1025 2328 
Q 1025 1447 1429 934 
Q 1834 422 2522 422 
Q 3209 422 3611 934 
Q 4013 1447 4013 2328 
Q 4013 3213 3611 3725 
Q 3209 4238 2522 4238 
z
M 3406 84 
L 4238 -825 
L 3475 -825 
L 2784 -78 
Q 2681 -84 2626 -87 
Q 2572 -91 2522 -91 
Q 1538 -91 948 567 
Q 359 1225 359 2328 
Q 359 3434 948 4092 
Q 1538 4750 2522 4750 
Q 3503 4750 4090 4092 
Q 4678 3434 4678 2328 
Q 4678 1516 4351 937 
Q 4025 359 3406 84 
z
" transform="scale(0.015625)"/>
      </defs>
      <use xlink:href="#DejaVuSans-45"/>
      <use xlink:href="#DejaVuSans-51" x="63.183594"/>
      <use xlink:href="#DejaVuSans-45" x="141.894531"/>
     </g>
    </g>
   </g>
   <g id="line2d_32">
    <path d="M 453.542876 237.579044 
L 455.559209 237.132764 
L 461.608209 236.573559 
L 465.640876 236.335723 
L 467.657209 236.241527 
L 469.673542 235.9902 
L 472.698042 234.81972 
L 476.730708 232.667976 
L 479.755208 230.777839 
L 483.787875 227.929 
L 485.804208 225.903069 
L 486.812374 224.790256 
L 487.820541 222.844897 
L 488.828708 220.384776 
L 489.836874 217.545496 
L 490.845041 214.281422 
L 491.853207 210.489921 
L 493.869541 201.207547 
L 495.885874 194.533104 
L 496.89404 190.699959 
L 500.926707 179.317155 
L 502.94304 174.078068 
L 504.959373 168.742541 
L 510.000206 157.762953 
L 513.024706 151.751649 
L 518.065539 143.218525 
L 522.098206 137.07354 
L 526.130872 131.63576 
L 531.171705 125.788873 
L 538.228872 118.565123 
L 541.253371 115.632485 
L 547.302371 110.312485 
L 552.343204 106.347836 
L 558.392204 102.156232 
L 565.44937 98.020259 
L 577.547369 91.472938 
L 583.596369 88.615304 
L 585.612702 87.837936 
L 590.653535 86.214386 
L 595.694368 84.848557 
L 600.735201 83.753743 
L 603.759701 83.186562 
L 606.784201 82.782775 
L 609.808701 82.621845 
L 612.833201 82.723326 
L 615.857701 83.061734 
L 618.8822 83.709393 
L 621.9067 84.574272 
L 625.939367 85.873695 
L 628.963867 86.870984 
L 634.0047 88.616698 
L 643.078199 92.335865 
L 646.102699 93.907246 
L 648.119032 94.848852 
L 651.143532 96.926729 
L 653.159865 98.537212 
L 658.200698 102.871181 
L 659.208865 103.729285 
L 660.217031 105.531029 
L 661.225198 110.364494 
L 663.241531 114.650886 
L 665.257865 119.632985 
L 667.274198 125.36859 
L 669.290531 131.986222 
L 671.306864 139.60669 
L 674.331364 152.061184 
L 676.347697 161.6202 
L 678.36403 172.43443 
L 680.380364 184.661273 
L 682.396697 198.478464 
L 684.41303 214.085778 
L 685.421197 218.804282 
L 691.470196 220.618159 
L 692.478363 224.62412 
L 693.48653 214.604031 
L 694.494696 221.644066 
L 695.502863 226.7643 
L 697.519196 227.495909 
L 698.527363 227.812499 
L 699.535529 227.984862 
L 716.674362 227.295542 
L 717.682528 245.669196 
L 718.690695 228.91536 
L 719.698862 188.767221 
L 720.707028 224.652429 
L 721.715195 245.406438 
L 722.723361 246.04 
L 755.99286 246.04 
L 755.99286 246.04 
" clip-path="url(#p5764dfe3cc)" style="fill: none; stroke: #0000ff; stroke-width: 1.5; stroke-linecap: square"/>
   </g>
   <g id="line2d_33">
    <path d="M 453.542876 112.448078 
L 455.559209 115.675317 
L 457.575543 117.085306 
L 458.583709 117.334644 
L 459.591876 117.415893 
L 460.600042 117.192917 
L 461.608209 116.74053 
L 462.616376 116.07403 
L 463.624542 115.161372 
L 465.640876 112.941576 
L 467.657209 110.208178 
L 469.673542 107.04156 
L 471.689875 102.042535 
L 473.706208 96.546328 
L 476.730708 88.230988 
L 480.763375 77.555631 
L 482.779708 72.913074 
L 486.812374 64.085722 
L 490.845041 53.493983 
L 492.861374 48.771161 
L 493.869541 46.74222 
L 495.885874 43.860182 
L 496.89404 42.586864 
L 498.910374 40.567821 
L 500.926707 38.912502 
L 502.94304 37.665735 
L 504.959373 36.675652 
L 506.975707 35.961133 
L 508.99204 35.426403 
L 512.01654 34.929574 
L 515.041039 34.719732 
L 518.065539 34.696407 
L 523.106372 34.931706 
L 530.163539 35.526367 
L 539.237038 36.312589 
L 546.294204 36.711073 
L 554.359537 36.912537 
L 562.42487 36.876249 
L 571.49837 36.551987 
L 591.661702 35.633423 
L 602.751535 35.333131 
L 608.800534 35.379378 
L 612.833201 35.565566 
L 616.865867 35.97731 
L 623.923033 36.895926 
L 632.996533 38.597893 
L 639.045533 39.885219 
L 644.086366 40.721403 
L 648.119032 41.522842 
L 652.151699 43.146471 
L 656.184365 45.111731 
L 659.208865 46.750958 
L 660.217031 48.203083 
L 661.225198 50.856219 
L 663.241531 55.24297 
L 665.257865 60.643588 
L 667.274198 67.238932 
L 669.290531 75.311789 
L 671.306864 85.172969 
L 673.323197 96.271176 
L 675.339531 109.253453 
L 677.355864 124.727461 
L 679.372197 143.140799 
L 681.38853 165.017167 
L 683.404864 190.967396 
L 684.41303 205.687508 
L 685.421197 214.50748 
L 691.470196 218.226992 
L 692.478363 222.511705 
L 693.48653 212.900583 
L 694.494696 220.198493 
L 695.502863 225.607317 
L 697.519196 226.981132 
L 698.527363 227.618338 
L 699.535529 227.982996 
L 716.674362 227.293638 
L 717.682528 245.623263 
L 718.690695 228.91357 
L 719.698862 188.763791 
L 720.707028 224.650356 
L 721.715195 245.328398 
L 722.723361 246.037413 
L 755.99286 246.04 
L 755.99286 246.04 
" clip-path="url(#p5764dfe3cc)" style="fill: none; stroke: #000000; stroke-width: 1.5; stroke-linecap: square"/>
   </g>
   <g id="patch_8">
    <path d="M 453.542876 246.04 
L 453.542876 10.8 
" style="fill: none; stroke: #000000; stroke-width: 0.8; stroke-linejoin: miter; stroke-linecap: square"/>
   </g>
   <g id="patch_9">
    <path d="M 799.2 246.04 
L 799.2 10.8 
" style="fill: none; stroke: #000000; stroke-width: 0.8; stroke-linejoin: miter; stroke-linecap: square"/>
   </g>
   <g id="patch_10">
    <path d="M 453.542876 246.04 
L 799.2 246.04 
" style="fill: none; stroke: #000000; stroke-width: 0.8; stroke-linejoin: miter; stroke-linecap: square"/>
   </g>
   <g id="patch_11">
    <path d="M 453.542876 10.8 
L 799.2 10.8 
" style="fill: none; stroke: #000000; stroke-width: 0.8; stroke-linejoin: miter; stroke-linecap: square"/>
   </g>
   <g id="legend_1">
    <g id="line2d_34">
     <path d="M 688.190625 23.898438 
L 698.190625 23.898438 
L 708.190625 23.898438 
" style="fill: none; stroke: #0000ff; stroke-width: 1.5; stroke-linecap: square"/>
    </g>
    <g id="text_32">
     <!-- EQE GaInP -->
     <g transform="translate(716.190625 27.398438) scale(0.1 -0.1)">
      <defs>
       <path id="DejaVuSans-47" d="M 3809 666 
L 3809 1919 
L 2778 1919 
L 2778 2438 
L 4434 2438 
L 4434 434 
Q 4069 175 3628 42 
Q 3188 -91 2688 -91 
Q 1594 -91 976 548 
Q 359 1188 359 2328 
Q 359 3472 976 4111 
Q 1594 4750 2688 4750 
Q 3144 4750 3555 4637 
Q 3966 4525 4313 4306 
L 4313 3634 
Q 3963 3931 3569 4081 
Q 3175 4231 2741 4231 
Q 1884 4231 1454 3753 
Q 1025 3275 1025 2328 
Q 1025 1384 1454 906 
Q 1884 428 2741 428 
Q 3075 428 3337 486 
Q 3600 544 3809 666 
z
" transform="scale(0.015625)"/>
       <path id="DejaVuSans-49" d="M 628 4666 
L 1259 4666 
L 1259 0 
L 628 0 
L 628 4666 
z
" transform="scale(0.015625)"/>
      </defs>
      <use xlink:href="#DejaVuSans-45"/>
      <use xlink:href="#DejaVuSans-51" x="63.183594"/>
      <use xlink:href="#DejaVuSans-45" x="141.894531"/>
      <use xlink:href="#DejaVuSans-20" x="205.078125"/>
      <use xlink:href="#DejaVuSans-47" x="236.865234"/>
      <use xlink:href="#DejaVuSans-61" x="314.355469"/>
      <use xlink:href="#DejaVuSans-49" x="375.634766"/>
      <use xlink:href="#DejaVuSans-6e" x="405.126953"/>
      <use xlink:href="#DejaVuSans-50" x="468.505859"/>
     </g>
    </g>
    <g id="line2d_35">
     <path d="M 688.190625 38.576562 
L 698.190625 38.576562 
L 708.190625 38.576562 
" style="fill: none; stroke: #000000; stroke-width: 1.5; stroke-linecap: square"/>
    </g>
    <g id="text_33">
     <!-- Total Absorbed -->
     <g transform="translate(716.190625 42.076562) scale(0.1 -0.1)">
      <defs>
       <path id="DejaVuSans-54" d="M -19 4666 
L 3928 4666 
L 3928 4134 
L 2272 4134 
L 2272 0 
L 1638 0 
L 1638 4134 
L -19 4134 
L -19 4666 
z
" transform="scale(0.015625)"/>
       <path id="DejaVuSans-41" d="M 2188 4044 
L 1331 1722 
L 3047 1722 
L 2188 4044 
z
M 1831 4666 
L 2547 4666 
L 4325 0 
L 3669 0 
L 3244 1197 
L 1141 1197 
L 716 0 
L 50 0 
L 1831 4666 
z
" transform="scale(0.015625)"/>
       <path id="DejaVuSans-62" d="M 3116 1747 
Q 3116 2381 2855 2742 
Q 2594 3103 2138 3103 
Q 1681 3103 1420 2742 
Q 1159 2381 1159 1747 
Q 1159 1113 1420 752 
Q 1681 391 2138 391 
Q 2594 391 2855 752 
Q 3116 1113 3116 1747 
z
M 1159 2969 
Q 1341 3281 1617 3432 
Q 1894 3584 2278 3584 
Q 2916 3584 3314 3078 
Q 3713 2572 3713 1747 
Q 3713 922 3314 415 
Q 2916 -91 2278 -91 
Q 1894 -91 1617 61 
Q 1341 213 1159 525 
L 1159 0 
L 581 0 
L 581 4863 
L 1159 4863 
L 1159 2969 
z
" transform="scale(0.015625)"/>
      </defs>
      <use xlink:href="#DejaVuSans-54"/>
      <use xlink:href="#DejaVuSans-6f" x="44.083984"/>
      <use xlink:href="#DejaVuSans-74" x="105.265625"/>
      <use xlink:href="#DejaVuSans-61" x="144.474609"/>
      <use xlink:href="#DejaVuSans-6c" x="205.753906"/>
      <use xlink:href="#DejaVuSans-20" x="233.537109"/>
      <use xlink:href="#DejaVuSans-41" x="265.324219"/>
      <use xlink:href="#DejaVuSans-62" x="333.732422"/>
      <use xlink:href="#DejaVuSans-73" x="397.208984"/>
      <use xlink:href="#DejaVuSans-6f" x="449.308594"/>
      <use xlink:href="#DejaVuSans-72" x="510.490234"/>
      <use xlink:href="#DejaVuSans-62" x="551.603516"/>
      <use xlink:href="#DejaVuSans-65" x="615.080078"/>
      <use xlink:href="#DejaVuSans-64" x="676.603516"/>
     </g>
    </g>
   </g>
  </g>
 </g>
 <defs>
  <clipPath id="p82051d4225">
   <rect x="60.075752" y="10.8" width="345.657124" height="235.24"/>
  </clipPath>
  <clipPath id="p5764dfe3cc">
   <rect x="453.542876" y="10.8" width="345.657124" height="235.24"/>
  </clipPath>
 </defs>
</svg>
