<?xml version="1.0" encoding="utf-8" standalone="no"?>
<!DOCTYPE svg PUBLIC "-//W3C//DTD SVG 1.1//EN"
  "http://www.w3.org/Graphics/SVG/1.1/DTD/svg11.dtd">
<svg xmlns:xlink="http://www.w3.org/1999/xlink" width="810pt" height="288pt" viewBox="0 0 810 288" xmlns="http://www.w3.org/2000/svg" version="1.1">
 <metadata>
  <rdf:RDF xmlns:dc="http://purl.org/dc/elements/1.1/" xmlns:cc="http://creativecommons.org/ns#" xmlns:rdf="http://www.w3.org/1999/02/22-rdf-syntax-ns#">
   <cc:Work>
    <dc:type rdf:resource="http://purl.org/dc/dcmitype/StillImage"/>
    <dc:date>2023-11-09T22:35:41.902526</dc:date>
    <dc:format>image/svg+xml</dc:format>
    <dc:creator>
     <cc:Agent>
      <dc:title>Matplotlib v3.8.0, https://matplotlib.org/</dc:title>
     </cc:Agent>
    </dc:creator>
   </cc:Work>
  </rdf:RDF>
 </metadata>
 <defs>
  <style type="text/css">*{stroke-linejoin: round; stroke-linecap: butt}</style>
 </defs>
 <g id="figure_1">
  <g id="patch_1">
   <path d="M 0 288 
L 810 288 
L 810 0 
L 0 0 
z
" style="fill: #ffffff"/>
  </g>
  <g id="axes_1">
   <g id="patch_2">
    <path d="M 60.013844 246.04 
L 405.746922 246.04 
L 405.746922 10.8 
L 60.013844 10.8 
z
" style="fill: #ffffff"/>
   </g>
   <g id="matplotlib.axis_1">
    <g id="xtick_1">
     <g id="line2d_1">
      <defs>
       <path id="maa490df366" d="M 0 0 
L 0 3.5 
" style="stroke: #000000; stroke-width: 0.8"/>
      </defs>
      <g>
       <use xlink:href="#maa490df366" x="117.484187" y="246.04" style="stroke: #000000; stroke-width: 0.8"/>
      </g>
     </g>
     <g id="text_1">
      <!-- 500 -->
      <g transform="translate(107.940437 260.638438) scale(0.1 -0.1)">
       <defs>
        <path id="DejaVuSans-35" d="M 691 4666 
L 3169 4666 
L 3169 4134 
L 1269 4134 
L 1269 2991 
Q 1406 3038 1543 3061 
Q 1681 3084 1819 3084 
Q 2600 3084 3056 2656 
Q 3513 2228 3513 1497 
Q 3513 744 3044 326 
Q 2575 -91 1722 -91 
Q 1428 -91 1123 -41 
Q 819 9 494 109 
L 494 744 
Q 775 591 1075 516 
Q 1375 441 1709 441 
Q 2250 441 2565 725 
Q 2881 1009 2881 1497 
Q 2881 1984 2565 2268 
Q 2250 2553 1709 2553 
Q 1456 2553 1204 2497 
Q 953 2441 691 2322 
L 691 4666 
z
" transform="scale(0.015625)"/>
        <path id="DejaVuSans-30" d="M 2034 4250 
Q 1547 4250 1301 3770 
Q 1056 3291 1056 2328 
Q 1056 1369 1301 889 
Q 1547 409 2034 409 
Q 2525 409 2770 889 
Q 3016 1369 3016 2328 
Q 3016 3291 2770 3770 
Q 2525 4250 2034 4250 
z
M 2034 4750 
Q 2819 4750 3233 4129 
Q 3647 3509 3647 2328 
Q 3647 1150 3233 529 
Q 2819 -91 2034 -91 
Q 1250 -91 836 529 
Q 422 1150 422 2328 
Q 422 3509 836 4129 
Q 1250 4750 2034 4750 
z
" transform="scale(0.015625)"/>
       </defs>
       <use xlink:href="#DejaVuSans-35"/>
       <use xlink:href="#DejaVuSans-30" x="63.623047"/>
       <use xlink:href="#DejaVuSans-30" x="127.246094"/>
      </g>
     </g>
    </g>
    <g id="xtick_2">
     <g id="line2d_2">
      <g>
       <use xlink:href="#maa490df366" x="180.749645" y="246.04" style="stroke: #000000; stroke-width: 0.8"/>
      </g>
     </g>
     <g id="text_2">
      <!-- 1000 -->
      <g transform="translate(168.024645 260.638438) scale(0.1 -0.1)">
       <defs>
        <path id="DejaVuSans-31" d="M 794 531 
L 1825 531 
L 1825 4091 
L 703 3866 
L 703 4441 
L 1819 4666 
L 2450 4666 
L 2450 531 
L 3481 531 
L 3481 0 
L 794 0 
L 794 531 
z
" transform="scale(0.015625)"/>
       </defs>
       <use xlink:href="#DejaVuSans-31"/>
       <use xlink:href="#DejaVuSans-30" x="63.623047"/>
       <use xlink:href="#DejaVuSans-30" x="127.246094"/>
       <use xlink:href="#DejaVuSans-30" x="190.869141"/>
      </g>
     </g>
    </g>
    <g id="xtick_3">
     <g id="line2d_3">
      <g>
       <use xlink:href="#maa490df366" x="244.015104" y="246.04" style="stroke: #000000; stroke-width: 0.8"/>
      </g>
     </g>
     <g id="text_3">
      <!-- 1500 -->
      <g transform="translate(231.290104 260.638438) scale(0.1 -0.1)">
       <use xlink:href="#DejaVuSans-31"/>
       <use xlink:href="#DejaVuSans-35" x="63.623047"/>
       <use xlink:href="#DejaVuSans-30" x="127.246094"/>
       <use xlink:href="#DejaVuSans-30" x="190.869141"/>
      </g>
     </g>
    </g>
    <g id="xtick_4">
     <g id="line2d_4">
      <g>
       <use xlink:href="#maa490df366" x="307.280563" y="246.04" style="stroke: #000000; stroke-width: 0.8"/>
      </g>
     </g>
     <g id="text_4">
      <!-- 2000 -->
      <g transform="translate(294.555563 260.638438) scale(0.1 -0.1)">
       <defs>
        <path id="DejaVuSans-32" d="M 1228 531 
L 3431 531 
L 3431 0 
L 469 0 
L 469 531 
Q 828 903 1448 1529 
Q 2069 2156 2228 2338 
Q 2531 2678 2651 2914 
Q 2772 3150 2772 3378 
Q 2772 3750 2511 3984 
Q 2250 4219 1831 4219 
Q 1534 4219 1204 4116 
Q 875 4013 500 3803 
L 500 4441 
Q 881 4594 1212 4672 
Q 1544 4750 1819 4750 
Q 2544 4750 2975 4387 
Q 3406 4025 3406 3419 
Q 3406 3131 3298 2873 
Q 3191 2616 2906 2266 
Q 2828 2175 2409 1742 
Q 1991 1309 1228 531 
z
" transform="scale(0.015625)"/>
       </defs>
       <use xlink:href="#DejaVuSans-32"/>
       <use xlink:href="#DejaVuSans-30" x="63.623047"/>
       <use xlink:href="#DejaVuSans-30" x="127.246094"/>
       <use xlink:href="#DejaVuSans-30" x="190.869141"/>
      </g>
     </g>
    </g>
    <g id="xtick_5">
     <g id="line2d_5">
      <g>
       <use xlink:href="#maa490df366" x="370.546021" y="246.04" style="stroke: #000000; stroke-width: 0.8"/>
      </g>
     </g>
     <g id="text_5">
      <!-- 2500 -->
      <g transform="translate(357.821021 260.638438) scale(0.1 -0.1)">
       <use xlink:href="#DejaVuSans-32"/>
       <use xlink:href="#DejaVuSans-35" x="63.623047"/>
       <use xlink:href="#DejaVuSans-30" x="127.246094"/>
       <use xlink:href="#DejaVuSans-30" x="190.869141"/>
      </g>
     </g>
    </g>
    <g id="text_6">
     <!-- Position (nm) -->
     <g transform="translate(199.886633 274.316562) scale(0.1 -0.1)">
      <defs>
       <path id="DejaVuSans-50" d="M 1259 4147 
L 1259 2394 
L 2053 2394 
Q 2494 2394 2734 2622 
Q 2975 2850 2975 3272 
Q 2975 3691 2734 3919 
Q 2494 4147 2053 4147 
L 1259 4147 
z
M 628 4666 
L 2053 4666 
Q 2838 4666 3239 4311 
Q 3641 3956 3641 3272 
Q 3641 2581 3239 2228 
Q 2838 1875 2053 1875 
L 1259 1875 
L 1259 0 
L 628 0 
L 628 4666 
z
" transform="scale(0.015625)"/>
       <path id="DejaVuSans-6f" d="M 1959 3097 
Q 1497 3097 1228 2736 
Q 959 2375 959 1747 
Q 959 1119 1226 758 
Q 1494 397 1959 397 
Q 2419 397 2687 759 
Q 2956 1122 2956 1747 
Q 2956 2369 2687 2733 
Q 2419 3097 1959 3097 
z
M 1959 3584 
Q 2709 3584 3137 3096 
Q 3566 2609 3566 1747 
Q 3566 888 3137 398 
Q 2709 -91 1959 -91 
Q 1206 -91 779 398 
Q 353 888 353 1747 
Q 353 2609 779 3096 
Q 1206 3584 1959 3584 
z
" transform="scale(0.015625)"/>
       <path id="DejaVuSans-73" d="M 2834 3397 
L 2834 2853 
Q 2591 2978 2328 3040 
Q 2066 3103 1784 3103 
Q 1356 3103 1142 2972 
Q 928 2841 928 2578 
Q 928 2378 1081 2264 
Q 1234 2150 1697 2047 
L 1894 2003 
Q 2506 1872 2764 1633 
Q 3022 1394 3022 966 
Q 3022 478 2636 193 
Q 2250 -91 1575 -91 
Q 1294 -91 989 -36 
Q 684 19 347 128 
L 347 722 
Q 666 556 975 473 
Q 1284 391 1588 391 
Q 1994 391 2212 530 
Q 2431 669 2431 922 
Q 2431 1156 2273 1281 
Q 2116 1406 1581 1522 
L 1381 1569 
Q 847 1681 609 1914 
Q 372 2147 372 2553 
Q 372 3047 722 3315 
Q 1072 3584 1716 3584 
Q 2034 3584 2315 3537 
Q 2597 3491 2834 3397 
z
" transform="scale(0.015625)"/>
       <path id="DejaVuSans-69" d="M 603 3500 
L 1178 3500 
L 1178 0 
L 603 0 
L 603 3500 
z
M 603 4863 
L 1178 4863 
L 1178 4134 
L 603 4134 
L 603 4863 
z
" transform="scale(0.015625)"/>
       <path id="DejaVuSans-74" d="M 1172 4494 
L 1172 3500 
L 2356 3500 
L 2356 3053 
L 1172 3053 
L 1172 1153 
Q 1172 725 1289 603 
Q 1406 481 1766 481 
L 2356 481 
L 2356 0 
L 1766 0 
Q 1100 0 847 248 
Q 594 497 594 1153 
L 594 3053 
L 172 3053 
L 172 3500 
L 594 3500 
L 594 4494 
L 1172 4494 
z
" transform="scale(0.015625)"/>
       <path id="DejaVuSans-6e" d="M 3513 2113 
L 3513 0 
L 2938 0 
L 2938 2094 
Q 2938 2591 2744 2837 
Q 2550 3084 2163 3084 
Q 1697 3084 1428 2787 
Q 1159 2491 1159 1978 
L 1159 0 
L 581 0 
L 581 3500 
L 1159 3500 
L 1159 2956 
Q 1366 3272 1645 3428 
Q 1925 3584 2291 3584 
Q 2894 3584 3203 3211 
Q 3513 2838 3513 2113 
z
" transform="scale(0.015625)"/>
       <path id="DejaVuSans-20" transform="scale(0.015625)"/>
       <path id="DejaVuSans-28" d="M 1984 4856 
Q 1566 4138 1362 3434 
Q 1159 2731 1159 2009 
Q 1159 1288 1364 580 
Q 1569 -128 1984 -844 
L 1484 -844 
Q 1016 -109 783 600 
Q 550 1309 550 2009 
Q 550 2706 781 3412 
Q 1013 4119 1484 4856 
L 1984 4856 
z
" transform="scale(0.015625)"/>
       <path id="DejaVuSans-6d" d="M 3328 2828 
Q 3544 3216 3844 3400 
Q 4144 3584 4550 3584 
Q 5097 3584 5394 3201 
Q 5691 2819 5691 2113 
L 5691 0 
L 5113 0 
L 5113 2094 
Q 5113 2597 4934 2840 
Q 4756 3084 4391 3084 
Q 3944 3084 3684 2787 
Q 3425 2491 3425 1978 
L 3425 0 
L 2847 0 
L 2847 2094 
Q 2847 2600 2669 2842 
Q 2491 3084 2119 3084 
Q 1678 3084 1418 2786 
Q 1159 2488 1159 1978 
L 1159 0 
L 581 0 
L 581 3500 
L 1159 3500 
L 1159 2956 
Q 1356 3278 1631 3431 
Q 1906 3584 2284 3584 
Q 2666 3584 2933 3390 
Q 3200 3197 3328 2828 
z
" transform="scale(0.015625)"/>
       <path id="DejaVuSans-29" d="M 513 4856 
L 1013 4856 
Q 1481 4119 1714 3412 
Q 1947 2706 1947 2009 
Q 1947 1309 1714 600 
Q 1481 -109 1013 -844 
L 513 -844 
Q 928 -128 1133 580 
Q 1338 1288 1338 2009 
Q 1338 2731 1133 3434 
Q 928 4138 513 4856 
z
" transform="scale(0.015625)"/>
      </defs>
      <use xlink:href="#DejaVuSans-50"/>
      <use xlink:href="#DejaVuSans-6f" x="56.677734"/>
      <use xlink:href="#DejaVuSans-73" x="117.859375"/>
      <use xlink:href="#DejaVuSans-69" x="169.958984"/>
      <use xlink:href="#DejaVuSans-74" x="197.742188"/>
      <use xlink:href="#DejaVuSans-69" x="236.951172"/>
      <use xlink:href="#DejaVuSans-6f" x="264.734375"/>
      <use xlink:href="#DejaVuSans-6e" x="325.916016"/>
      <use xlink:href="#DejaVuSans-20" x="389.294922"/>
      <use xlink:href="#DejaVuSans-28" x="421.082031"/>
      <use xlink:href="#DejaVuSans-6e" x="460.095703"/>
      <use xlink:href="#DejaVuSans-6d" x="523.474609"/>
      <use xlink:href="#DejaVuSans-29" x="620.886719"/>
     </g>
    </g>
   </g>
   <g id="matplotlib.axis_2">
    <g id="ytick_1">
     <g id="line2d_6">
      <defs>
       <path id="ma04d95b439" d="M 0 0 
L -3.5 0 
" style="stroke: #000000; stroke-width: 0.8"/>
      </defs>
      <g>
       <use xlink:href="#ma04d95b439" x="60.013844" y="224.618855" style="stroke: #000000; stroke-width: 0.8"/>
      </g>
     </g>
     <g id="text_7">
      <!-- $\mathdefault{10^{7}}$ -->
      <g transform="translate(35.413844 228.418074) scale(0.1 -0.1)">
       <defs>
        <path id="DejaVuSans-37" d="M 525 4666 
L 3525 4666 
L 3525 4397 
L 1831 0 
L 1172 0 
L 2766 4134 
L 525 4134 
L 525 4666 
z
" transform="scale(0.015625)"/>
       </defs>
       <use xlink:href="#DejaVuSans-31" transform="translate(0 0.684375)"/>
       <use xlink:href="#DejaVuSans-30" transform="translate(63.623047 0.684375)"/>
       <use xlink:href="#DejaVuSans-37" transform="translate(128.203125 38.965625) scale(0.7)"/>
      </g>
     </g>
    </g>
    <g id="ytick_2">
     <g id="line2d_7">
      <g>
       <use xlink:href="#ma04d95b439" x="60.013844" y="196.777933" style="stroke: #000000; stroke-width: 0.8"/>
      </g>
     </g>
     <g id="text_8">
      <!-- $\mathdefault{10^{9}}$ -->
      <g transform="translate(35.413844 200.577152) scale(0.1 -0.1)">
       <defs>
        <path id="DejaVuSans-39" d="M 703 97 
L 703 672 
Q 941 559 1184 500 
Q 1428 441 1663 441 
Q 2288 441 2617 861 
Q 2947 1281 2994 2138 
Q 2813 1869 2534 1725 
Q 2256 1581 1919 1581 
Q 1219 1581 811 2004 
Q 403 2428 403 3163 
Q 403 3881 828 4315 
Q 1253 4750 1959 4750 
Q 2769 4750 3195 4129 
Q 3622 3509 3622 2328 
Q 3622 1225 3098 567 
Q 2575 -91 1691 -91 
Q 1453 -91 1209 -44 
Q 966 3 703 97 
z
M 1959 2075 
Q 2384 2075 2632 2365 
Q 2881 2656 2881 3163 
Q 2881 3666 2632 3958 
Q 2384 4250 1959 4250 
Q 1534 4250 1286 3958 
Q 1038 3666 1038 3163 
Q 1038 2656 1286 2365 
Q 1534 2075 1959 2075 
z
" transform="scale(0.015625)"/>
       </defs>
       <use xlink:href="#DejaVuSans-31" transform="translate(0 0.765625)"/>
       <use xlink:href="#DejaVuSans-30" transform="translate(63.623047 0.765625)"/>
       <use xlink:href="#DejaVuSans-39" transform="translate(128.203125 39.046875) scale(0.7)"/>
      </g>
     </g>
    </g>
    <g id="ytick_3">
     <g id="line2d_8">
      <g>
       <use xlink:href="#ma04d95b439" x="60.013844" y="168.937012" style="stroke: #000000; stroke-width: 0.8"/>
      </g>
     </g>
     <g id="text_9">
      <!-- $\mathdefault{10^{11}}$ -->
      <g transform="translate(30.913844 172.73623) scale(0.1 -0.1)">
       <use xlink:href="#DejaVuSans-31" transform="translate(0 0.684375)"/>
       <use xlink:href="#DejaVuSans-30" transform="translate(63.623047 0.684375)"/>
       <use xlink:href="#DejaVuSans-31" transform="translate(128.203125 38.965625) scale(0.7)"/>
       <use xlink:href="#DejaVuSans-31" transform="translate(172.739258 38.965625) scale(0.7)"/>
      </g>
     </g>
    </g>
    <g id="ytick_4">
     <g id="line2d_9">
      <g>
       <use xlink:href="#ma04d95b439" x="60.013844" y="141.09609" style="stroke: #000000; stroke-width: 0.8"/>
      </g>
     </g>
     <g id="text_10">
      <!-- $\mathdefault{10^{13}}$ -->
      <g transform="translate(30.913844 144.895309) scale(0.1 -0.1)">
       <defs>
        <path id="DejaVuSans-33" d="M 2597 2516 
Q 3050 2419 3304 2112 
Q 3559 1806 3559 1356 
Q 3559 666 3084 287 
Q 2609 -91 1734 -91 
Q 1441 -91 1130 -33 
Q 819 25 488 141 
L 488 750 
Q 750 597 1062 519 
Q 1375 441 1716 441 
Q 2309 441 2620 675 
Q 2931 909 2931 1356 
Q 2931 1769 2642 2001 
Q 2353 2234 1838 2234 
L 1294 2234 
L 1294 2753 
L 1863 2753 
Q 2328 2753 2575 2939 
Q 2822 3125 2822 3475 
Q 2822 3834 2567 4026 
Q 2313 4219 1838 4219 
Q 1578 4219 1281 4162 
Q 984 4106 628 3988 
L 628 4550 
Q 988 4650 1302 4700 
Q 1616 4750 1894 4750 
Q 2613 4750 3031 4423 
Q 3450 4097 3450 3541 
Q 3450 3153 3228 2886 
Q 3006 2619 2597 2516 
z
" transform="scale(0.015625)"/>
       </defs>
       <use xlink:href="#DejaVuSans-31" transform="translate(0 0.765625)"/>
       <use xlink:href="#DejaVuSans-30" transform="translate(63.623047 0.765625)"/>
       <use xlink:href="#DejaVuSans-31" transform="translate(128.203125 39.046875) scale(0.7)"/>
       <use xlink:href="#DejaVuSans-33" transform="translate(172.739258 39.046875) scale(0.7)"/>
      </g>
     </g>
    </g>
    <g id="ytick_5">
     <g id="line2d_10">
      <g>
       <use xlink:href="#ma04d95b439" x="60.013844" y="113.255168" style="stroke: #000000; stroke-width: 0.8"/>
      </g>
     </g>
     <g id="text_11">
      <!-- $\mathdefault{10^{15}}$ -->
      <g transform="translate(30.913844 117.054387) scale(0.1 -0.1)">
       <use xlink:href="#DejaVuSans-31" transform="translate(0 0.684375)"/>
       <use xlink:href="#DejaVuSans-30" transform="translate(63.623047 0.684375)"/>
       <use xlink:href="#DejaVuSans-31" transform="translate(128.203125 38.965625) scale(0.7)"/>
       <use xlink:href="#DejaVuSans-35" transform="translate(172.739258 38.965625) scale(0.7)"/>
      </g>
     </g>
    </g>
    <g id="ytick_6">
     <g id="line2d_11">
      <g>
       <use xlink:href="#ma04d95b439" x="60.013844" y="85.414246" style="stroke: #000000; stroke-width: 0.8"/>
      </g>
     </g>
     <g id="text_12">
      <!-- $\mathdefault{10^{17}}$ -->
      <g transform="translate(30.913844 89.213465) scale(0.1 -0.1)">
       <use xlink:href="#DejaVuSans-31" transform="translate(0 0.684375)"/>
       <use xlink:href="#DejaVuSans-30" transform="translate(63.623047 0.684375)"/>
       <use xlink:href="#DejaVuSans-31" transform="translate(128.203125 38.965625) scale(0.7)"/>
       <use xlink:href="#DejaVuSans-37" transform="translate(172.739258 38.965625) scale(0.7)"/>
      </g>
     </g>
    </g>
    <g id="ytick_7">
     <g id="line2d_12">
      <g>
       <use xlink:href="#ma04d95b439" x="60.013844" y="57.573325" style="stroke: #000000; stroke-width: 0.8"/>
      </g>
     </g>
     <g id="text_13">
      <!-- $\mathdefault{10^{19}}$ -->
      <g transform="translate(30.913844 61.372543) scale(0.1 -0.1)">
       <use xlink:href="#DejaVuSans-31" transform="translate(0 0.765625)"/>
       <use xlink:href="#DejaVuSans-30" transform="translate(63.623047 0.765625)"/>
       <use xlink:href="#DejaVuSans-31" transform="translate(128.203125 39.046875) scale(0.7)"/>
       <use xlink:href="#DejaVuSans-39" transform="translate(172.739258 39.046875) scale(0.7)"/>
      </g>
     </g>
    </g>
    <g id="ytick_8">
     <g id="line2d_13">
      <g>
       <use xlink:href="#ma04d95b439" x="60.013844" y="29.732403" style="stroke: #000000; stroke-width: 0.8"/>
      </g>
     </g>
     <g id="text_14">
      <!-- $\mathdefault{10^{21}}$ -->
      <g transform="translate(30.913844 33.531622) scale(0.1 -0.1)">
       <use xlink:href="#DejaVuSans-31" transform="translate(0 0.765625)"/>
       <use xlink:href="#DejaVuSans-30" transform="translate(63.623047 0.765625)"/>
       <use xlink:href="#DejaVuSans-32" transform="translate(128.203125 39.046875) scale(0.7)"/>
       <use xlink:href="#DejaVuSans-31" transform="translate(172.739258 39.046875) scale(0.7)"/>
      </g>
     </g>
    </g>
    <g id="text_15">
     <!-- Carrier density (m$^{-3}$) -->
     <g transform="translate(24.813844 181.27) rotate(-90) scale(0.1 -0.1)">
      <defs>
       <path id="DejaVuSans-43" d="M 4122 4306 
L 4122 3641 
Q 3803 3938 3442 4084 
Q 3081 4231 2675 4231 
Q 1875 4231 1450 3742 
Q 1025 3253 1025 2328 
Q 1025 1406 1450 917 
Q 1875 428 2675 428 
Q 3081 428 3442 575 
Q 3803 722 4122 1019 
L 4122 359 
Q 3791 134 3420 21 
Q 3050 -91 2638 -91 
Q 1578 -91 968 557 
Q 359 1206 359 2328 
Q 359 3453 968 4101 
Q 1578 4750 2638 4750 
Q 3056 4750 3426 4639 
Q 3797 4528 4122 4306 
z
" transform="scale(0.015625)"/>
       <path id="DejaVuSans-61" d="M 2194 1759 
Q 1497 1759 1228 1600 
Q 959 1441 959 1056 
Q 959 750 1161 570 
Q 1363 391 1709 391 
Q 2188 391 2477 730 
Q 2766 1069 2766 1631 
L 2766 1759 
L 2194 1759 
z
M 3341 1997 
L 3341 0 
L 2766 0 
L 2766 531 
Q 2569 213 2275 61 
Q 1981 -91 1556 -91 
Q 1019 -91 701 211 
Q 384 513 384 1019 
Q 384 1609 779 1909 
Q 1175 2209 1959 2209 
L 2766 2209 
L 2766 2266 
Q 2766 2663 2505 2880 
Q 2244 3097 1772 3097 
Q 1472 3097 1187 3025 
Q 903 2953 641 2809 
L 641 3341 
Q 956 3463 1253 3523 
Q 1550 3584 1831 3584 
Q 2591 3584 2966 3190 
Q 3341 2797 3341 1997 
z
" transform="scale(0.015625)"/>
       <path id="DejaVuSans-72" d="M 2631 2963 
Q 2534 3019 2420 3045 
Q 2306 3072 2169 3072 
Q 1681 3072 1420 2755 
Q 1159 2438 1159 1844 
L 1159 0 
L 581 0 
L 581 3500 
L 1159 3500 
L 1159 2956 
Q 1341 3275 1631 3429 
Q 1922 3584 2338 3584 
Q 2397 3584 2469 3576 
Q 2541 3569 2628 3553 
L 2631 2963 
z
" transform="scale(0.015625)"/>
       <path id="DejaVuSans-65" d="M 3597 1894 
L 3597 1613 
L 953 1613 
Q 991 1019 1311 708 
Q 1631 397 2203 397 
Q 2534 397 2845 478 
Q 3156 559 3463 722 
L 3463 178 
Q 3153 47 2828 -22 
Q 2503 -91 2169 -91 
Q 1331 -91 842 396 
Q 353 884 353 1716 
Q 353 2575 817 3079 
Q 1281 3584 2069 3584 
Q 2775 3584 3186 3129 
Q 3597 2675 3597 1894 
z
M 3022 2063 
Q 3016 2534 2758 2815 
Q 2500 3097 2075 3097 
Q 1594 3097 1305 2825 
Q 1016 2553 972 2059 
L 3022 2063 
z
" transform="scale(0.015625)"/>
       <path id="DejaVuSans-64" d="M 2906 2969 
L 2906 4863 
L 3481 4863 
L 3481 0 
L 2906 0 
L 2906 525 
Q 2725 213 2448 61 
Q 2172 -91 1784 -91 
Q 1150 -91 751 415 
Q 353 922 353 1747 
Q 353 2572 751 3078 
Q 1150 3584 1784 3584 
Q 2172 3584 2448 3432 
Q 2725 3281 2906 2969 
z
M 947 1747 
Q 947 1113 1208 752 
Q 1469 391 1925 391 
Q 2381 391 2643 752 
Q 2906 1113 2906 1747 
Q 2906 2381 2643 2742 
Q 2381 3103 1925 3103 
Q 1469 3103 1208 2742 
Q 947 2381 947 1747 
z
" transform="scale(0.015625)"/>
       <path id="DejaVuSans-79" d="M 2059 -325 
Q 1816 -950 1584 -1140 
Q 1353 -1331 966 -1331 
L 506 -1331 
L 506 -850 
L 844 -850 
Q 1081 -850 1212 -737 
Q 1344 -625 1503 -206 
L 1606 56 
L 191 3500 
L 800 3500 
L 1894 763 
L 2988 3500 
L 3597 3500 
L 2059 -325 
z
" transform="scale(0.015625)"/>
       <path id="DejaVuSans-2212" d="M 678 2272 
L 4684 2272 
L 4684 1741 
L 678 1741 
L 678 2272 
z
" transform="scale(0.015625)"/>
      </defs>
      <use xlink:href="#DejaVuSans-43" transform="translate(0 0.765625)"/>
      <use xlink:href="#DejaVuSans-61" transform="translate(69.824219 0.765625)"/>
      <use xlink:href="#DejaVuSans-72" transform="translate(131.103516 0.765625)"/>
      <use xlink:href="#DejaVuSans-72" transform="translate(172.216797 0.765625)"/>
      <use xlink:href="#DejaVuSans-69" transform="translate(213.330078 0.765625)"/>
      <use xlink:href="#DejaVuSans-65" transform="translate(241.113281 0.765625)"/>
      <use xlink:href="#DejaVuSans-72" transform="translate(302.636719 0.765625)"/>
      <use xlink:href="#DejaVuSans-20" transform="translate(343.75 0.765625)"/>
      <use xlink:href="#DejaVuSans-64" transform="translate(375.537109 0.765625)"/>
      <use xlink:href="#DejaVuSans-65" transform="translate(439.013672 0.765625)"/>
      <use xlink:href="#DejaVuSans-6e" transform="translate(500.537109 0.765625)"/>
      <use xlink:href="#DejaVuSans-73" transform="translate(563.916016 0.765625)"/>
      <use xlink:href="#DejaVuSans-69" transform="translate(616.015625 0.765625)"/>
      <use xlink:href="#DejaVuSans-74" transform="translate(643.798828 0.765625)"/>
      <use xlink:href="#DejaVuSans-79" transform="translate(683.007812 0.765625)"/>
      <use xlink:href="#DejaVuSans-20" transform="translate(742.1875 0.765625)"/>
      <use xlink:href="#DejaVuSans-28" transform="translate(773.974609 0.765625)"/>
      <use xlink:href="#DejaVuSans-6d" transform="translate(812.988281 0.765625)"/>
      <use xlink:href="#DejaVuSans-2212" transform="translate(911.357422 39.046875) scale(0.7)"/>
      <use xlink:href="#DejaVuSans-33" transform="translate(970.009766 39.046875) scale(0.7)"/>
      <use xlink:href="#DejaVuSans-29" transform="translate(1017.280273 0.765625)"/>
     </g>
    </g>
   </g>
   <g id="line2d_14">
    <path d="M 75.728984 68.605587 
L 76.573102 66.678969 
L 77.720124 64.66822 
L 79.231132 62.585482 
L 81.058977 60.528206 
L 83.110475 58.555865 
L 86.359229 55.832997 
L 90.372435 52.829339 
L 94.695969 49.817675 
L 94.708622 56.826252 
L 94.804785 56.749985 
L 95.202092 56.437083 
L 95.305848 46.366342 
L 95.328623 46.351275 
L 95.437005 36.635274 
L 95.961278 36.317187 
L 95.973931 45.95762 
L 96.065033 45.900862 
L 96.087809 45.886676 
L 96.100462 55.879775 
L 96.196625 55.809562 
L 96.593933 55.521158 
L 96.697688 45.454739 
L 96.720463 45.440596 
L 96.828845 35.728561 
L 97.353118 35.429171 
L 97.365771 45.070068 
L 97.456873 45.016833 
L 97.479649 45.003527 
L 97.492302 54.997183 
L 97.588466 54.932326 
L 97.985773 54.665674 
L 98.089528 44.603306 
L 98.112304 44.590032 
L 98.220685 34.881778 
L 98.744958 34.600243 
L 98.757611 44.24158 
L 98.848713 44.19167 
L 98.871489 44.179195 
L 98.884142 54.173366 
L 98.980306 54.113318 
L 99.377613 53.866254 
L 99.481368 43.807704 
L 99.504144 43.795252 
L 99.612525 34.090612 
L 100.136798 33.826157 
L 100.149451 43.467915 
L 100.240554 43.421156 
L 100.263329 43.409467 
L 100.275982 53.404119 
L 100.372146 53.348441 
L 100.769453 53.119218 
L 100.873208 43.064282 
L 100.895984 43.05261 
L 101.004365 33.351429 
L 101.528638 33.103335 
L 101.541291 42.745493 
L 101.632394 42.70173 
L 101.655169 42.690789 
L 101.667822 52.685892 
L 101.763986 52.634224 
L 102.161293 52.421401 
L 102.265048 42.369895 
L 102.287824 42.358966 
L 102.396205 32.661098 
L 102.920478 32.428686 
L 102.933132 42.071227 
L 103.024234 42.030316 
L 103.047009 42.020088 
L 103.059662 52.015616 
L 103.155826 51.967655 
L 103.553133 51.77002 
L 103.656888 41.721778 
L 103.679664 41.711557 
L 103.788046 32.016864 
L 104.312318 31.799489 
L 104.324972 41.442397 
L 104.416074 41.404207 
L 104.438849 41.394658 
L 104.451503 51.390589 
L 104.547666 51.346077 
L 104.944973 51.162589 
L 105.048728 41.117459 
L 105.071504 41.107914 
L 105.179886 31.416265 
L 105.704159 31.213311 
L 105.716812 40.85657 
L 105.807914 40.820978 
L 105.83069 40.812079 
L 105.843343 50.80839 
L 105.939506 50.767104 
L 106.336813 50.596858 
L 106.440569 40.554697 
L 106.463344 40.545797 
L 106.571726 30.857069 
L 107.095999 30.667946 
L 107.108652 40.311541 
L 107.199754 40.278434 
L 107.22253 40.270154 
L 107.235183 50.266828 
L 107.331346 50.22857 
L 107.728653 50.07077 
L 107.832409 40.031445 
L 107.855184 40.023162 
L 107.963566 30.337233 
L 108.487839 30.161381 
L 108.500492 39.805299 
L 108.591594 39.774568 
L 108.61437 39.766882 
L 108.627023 49.763901 
L 108.723186 49.728497 
L 109.120493 49.582431 
L 109.224249 39.545818 
L 109.247024 39.538126 
L 109.355406 29.854884 
L 109.879679 29.69177 
L 109.892332 39.335997 
L 109.983434 39.307542 
L 110.00621 39.300424 
L 110.018863 49.297772 
L 110.115026 49.265066 
L 110.512333 49.130101 
L 110.616089 39.096084 
L 110.638864 39.088957 
L 110.747246 29.408294 
L 111.271519 29.257417 
L 111.284172 38.90194 
L 111.375274 38.875668 
L 111.39805 38.869095 
L 111.410703 48.866757 
L 111.506866 48.836609 
L 111.904174 48.712177 
L 112.007929 38.680648 
L 112.030704 38.674064 
L 112.139086 28.99588 
L 112.663359 28.85677 
L 112.676012 38.501579 
L 112.767114 38.477403 
L 112.78989 38.471354 
L 112.802543 48.469317 
L 112.898707 48.441603 
L 113.296014 48.327195 
L 113.399769 38.298056 
L 113.422545 38.291993 
L 113.530926 28.616194 
L 114.055199 28.488422 
L 114.067852 38.133506 
L 114.158954 38.111349 
L 114.18173 38.105805 
L 114.194383 48.104056 
L 114.290547 48.078666 
L 114.687854 47.973832 
L 114.791609 37.946993 
L 114.814385 37.941432 
L 114.922766 28.267933 
L 115.447039 28.151111 
L 115.459692 37.79646 
L 115.550795 37.776253 
L 115.57357 37.771195 
L 115.586223 47.769724 
L 115.682387 47.746563 
L 116.079694 47.650907 
L 116.183449 37.626288 
L 116.206225 37.621212 
L 116.314606 27.949939 
L 116.838879 27.843725 
L 116.851532 37.489333 
L 116.942635 37.471014 
L 116.96541 37.466428 
L 116.978063 47.465227 
L 117.074227 47.444209 
L 117.471534 47.357394 
L 117.575289 37.334927 
L 117.598065 37.330321 
L 117.706446 27.661207 
L 118.230719 27.565314 
L 118.243372 37.211172 
L 118.334475 37.194693 
L 118.35725 37.190567 
L 118.369903 47.189627 
L 118.466067 47.170685 
L 118.863374 47.092427 
L 118.967129 37.072055 
L 118.989905 37.067906 
L 119.098287 27.400899 
L 119.622559 27.315097 
L 119.635213 36.961201 
L 119.726315 36.946522 
L 119.74909 36.942846 
L 119.761743 46.942162 
L 119.857907 46.925241 
L 120.255214 46.855318 
L 120.358969 36.836997 
L 120.381745 36.833296 
L 120.490127 27.168355 
L 121.0144 27.092478 
L 121.027053 36.738825 
L 121.118155 36.725921 
L 121.14093 36.722688 
L 121.153584 46.722255 
L 121.249747 46.707317 
L 121.647054 46.645568 
L 121.750809 36.629268 
L 121.773585 36.626009 
L 121.881967 26.963107 
L 122.40624 26.897064 
L 122.418893 36.543652 
L 122.509995 36.53251 
L 122.532771 36.529717 
L 122.545424 46.529533 
L 122.641587 46.516554 
L 123.038894 46.462886 
L 123.14265 36.448593 
L 123.165425 36.445774 
L 123.273807 26.7849 
L 123.79808 26.72868 
L 123.810733 36.375509 
L 123.901835 36.366132 
L 123.924611 36.36378 
L 123.937264 46.363846 
L 124.033427 46.35282 
L 124.430734 46.307213 
L 124.53449 36.294931 
L 124.557265 36.292551 
L 124.665647 26.633713 
L 125.18992 26.587395 
L 125.202573 36.234468 
L 125.293675 36.226876 
L 125.316451 36.22497 
L 125.329104 46.225287 
L 125.425267 46.216229 
L 125.822574 46.178743 
L 125.92633 36.168494 
L 125.949105 36.16656 
L 126.057487 26.509785 
L 126.58176 26.473548 
L 126.594413 36.120871 
L 126.685515 36.115102 
L 126.708291 36.113652 
L 126.720944 46.114227 
L 126.817107 46.107171 
L 127.214414 46.077953 
L 127.31817 36.069783 
L 127.340945 36.068304 
L 127.449327 26.413641 
L 127.9736 26.387779 
L 127.986253 36.03536 
L 128.077355 36.031475 
L 128.100131 36.030496 
L 128.112784 46.031336 
L 128.208947 46.026343 
L 128.606255 46.005638 
L 128.71001 35.999616 
L 128.732785 35.998607 
L 128.841167 26.346131 
L 129.36544 26.331066 
L 129.378093 35.978917 
L 129.469195 35.977 
L 129.491971 35.976513 
L 129.504624 45.97763 
L 129.600788 45.974784 
L 129.998095 45.962947 
L 130.10185 35.95917 
L 130.124626 35.958653 
L 130.233007 26.308466 
L 130.75728 26.304765 
L 130.861036 35.953062 
L 130.883811 35.953095 
L 130.896464 45.954504 
L 130.992628 45.953921 
L 131.389935 45.951429 
L 131.49369 35.950025 
L 131.516466 35.950029 
L 131.529119 26.301939 
L 131.624847 26.302264 
L 132.14912 26.310658 
L 132.252876 35.961481 
L 132.275651 35.962069 
L 132.384468 45.965619 
L 132.781775 45.973087 
L 132.794428 35.97195 
L 132.88553 35.974219 
L 132.908306 35.974779 
L 132.920959 26.326994 
L 133.016687 26.329609 
L 133.54096 26.351015 
L 133.644716 36.004566 
L 133.667491 36.005754 
L 133.776308 46.012239 
L 134.173615 46.03044 
L 134.186268 36.029641 
L 134.27737 36.034313 
L 134.300146 36.035473 
L 134.312799 26.388017 
L 134.408527 26.393109 
L 134.9328 26.428664 
L 135.036556 36.085192 
L 135.059331 36.087035 
L 135.168148 46.096716 
L 135.565455 46.126606 
L 135.578108 36.126174 
L 135.66921 36.133468 
L 135.691986 36.135285 
L 135.704639 26.488188 
L 135.800368 26.495989 
L 136.324641 26.547078 
L 136.428396 36.206886 
L 136.451171 36.209451 
L 136.559988 46.222647 
L 136.957295 46.265391 
L 136.969948 39.249103 
L 143.624226 39.920177 
L 152.976592 40.676672 
L 167.797183 41.592942 
L 199.32717 43.112698 
L 224.892777 44.413587 
L 238.521241 45.234933 
L 252.470633 46.207753 
L 266.554715 47.355394 
L 280.590136 48.694887 
L 294.405521 50.235651 
L 307.841276 51.978604 
L 320.730339 53.914 
L 332.871933 56.017562 
L 344.027722 58.248253 
L 353.957346 60.552056 
L 362.47778 62.871392 
L 369.512206 65.154334 
L 375.104079 67.358044 
L 379.395883 69.446071 
L 382.58875 71.383596 
L 384.901249 73.135253 
L 386.538813 74.667905 
L 388.455808 76.997016 
L 389.72881 79.127558 
L 390.031782 79.751886 
L 390.031782 79.751886 
" clip-path="url(#pa69f16f7a2)" style="fill: none; stroke: #0000ff; stroke-width: 1.5; stroke-linecap: square"/>
   </g>
   <g id="line2d_15">
    <path d="M 75.728984 67.380974 
L 76.123403 61.188656 
L 76.573102 58.070939 
L 77.101445 55.901412 
L 77.720124 54.236396 
L 78.431448 52.914505 
L 79.231132 51.854852 
L 80.110667 51.006217 
L 81.058977 50.331143 
L 82.063455 49.8001 
L 84.185575 49.077383 
L 86.359229 48.686661 
L 89.45033 48.484396 
L 93.107665 48.557295 
L 94.695969 48.654698 
L 94.708622 53.695873 
L 94.804785 53.62401 
L 95.202092 53.347253 
L 95.214746 44.48872 
L 95.305848 44.521289 
L 95.328623 44.529418 
L 95.341276 23.535885 
L 95.437005 23.594109 
L 95.961278 23.903651 
L 96.065033 44.938656 
L 96.087809 44.945682 
L 96.100462 53.802765 
L 96.196625 53.73118 
L 96.593933 53.45491 
L 96.606586 44.59615 
L 96.697688 44.626118 
L 96.720463 44.6336 
L 96.733117 23.639641 
L 96.828845 23.694492 
L 97.353118 23.985944 
L 97.456873 45.018209 
L 97.479649 45.024653 
L 97.492302 53.881578 
L 97.588466 53.810813 
L 97.985773 53.537121 
L 97.998426 44.678176 
L 98.089528 44.70575 
L 98.112304 44.712635 
L 98.124957 23.718271 
L 98.220685 23.769896 
L 98.744958 24.044025 
L 98.848713 45.07376 
L 98.871489 45.079669 
L 98.884142 53.936472 
L 98.980306 53.866948 
L 99.377613 53.597464 
L 99.390266 44.738368 
L 99.481368 44.763725 
L 99.504144 44.770057 
L 99.516797 23.77531 
L 99.612525 23.823843 
L 100.136798 24.081364 
L 100.240554 45.10875 
L 100.263329 45.114165 
L 100.275982 53.970876 
L 100.372146 53.902912 
L 100.769453 53.638892 
L 100.782106 44.779674 
L 100.873208 44.802969 
L 100.895984 44.808788 
L 100.908637 23.813674 
L 101.004365 23.859241 
L 101.528638 24.100831 
L 101.632394 45.126026 
L 101.655169 45.130982 
L 101.667822 53.987625 
L 101.763986 53.921459 
L 102.161293 53.663857 
L 102.173946 44.804539 
L 102.265048 44.825908 
L 102.287824 44.831247 
L 102.300477 23.835784 
L 102.396205 23.878507 
L 102.920478 24.104807 
L 103.024234 45.127951 
L 103.047009 45.132478 
L 103.059662 53.989072 
L 103.155826 53.924876 
L 103.553133 53.674399 
L 103.565786 44.814999 
L 103.656888 44.834565 
L 103.679664 44.839455 
L 103.692317 23.843657 
L 103.788046 23.88365 
L 104.312318 24.095277 
L 104.416074 45.116492 
L 104.438849 45.120618 
L 104.451503 53.977179 
L 104.547666 53.915072 
L 104.944973 53.67222 
L 104.957626 44.812755 
L 105.048728 44.830626 
L 105.071504 44.835094 
L 105.084157 23.838977 
L 105.179886 23.87635 
L 105.704159 24.073895 
L 105.807914 45.093292 
L 105.83069 45.09704 
L 105.843343 53.953579 
L 105.939506 53.893635 
L 106.336813 53.658742 
L 106.349466 44.799224 
L 106.440569 44.815499 
L 106.463344 44.819569 
L 106.475997 23.823148 
L 106.571726 23.858006 
L 107.095999 24.042035 
L 107.199754 45.059713 
L 107.22253 45.063105 
L 107.235183 53.919632 
L 107.331346 53.861888 
L 107.728653 53.635149 
L 107.741306 44.775589 
L 107.832409 44.790356 
L 107.855184 44.79405 
L 107.867837 23.797337 
L 107.963566 23.829782 
L 108.487839 24.000837 
L 108.591594 45.016884 
L 108.61437 45.01994 
L 108.627023 53.876461 
L 108.723186 53.820927 
L 109.120493 53.602421 
L 109.133146 44.742827 
L 109.224249 44.756166 
L 109.247024 44.759503 
L 109.259677 23.762511 
L 109.355406 23.79264 
L 109.879679 23.951237 
L 109.983434 44.965733 
L 110.00621 44.968468 
L 110.018863 53.824989 
L 110.115026 53.771649 
L 110.512333 53.561364 
L 110.524987 44.701743 
L 110.616089 44.713724 
L 110.638864 44.716724 
L 110.651517 23.719464 
L 110.747246 23.747368 
L 111.271519 23.893993 
L 111.375274 44.907008 
L 111.39805 44.909438 
L 111.410703 53.765962 
L 111.506866 53.714784 
L 111.904174 53.512634 
L 111.916827 44.65299 
L 112.007929 44.663679 
L 112.030704 44.666356 
L 112.043358 23.668839 
L 112.139086 23.694605 
L 112.663359 23.829711 
L 112.767114 44.841308 
L 112.78989 44.843445 
L 112.802543 53.699975 
L 112.898707 53.65091 
L 113.296014 53.456753 
L 113.308667 44.59709 
L 113.399769 44.606543 
L 113.422545 44.608912 
L 113.435198 23.611148 
L 113.530926 23.634854 
L 114.055199 23.75886 
L 114.158954 44.769092 
L 114.18173 44.770947 
L 114.194383 53.627483 
L 114.290547 53.580473 
L 114.687854 53.394122 
L 114.700507 44.534443 
L 114.791609 44.542708 
L 114.814385 44.544781 
L 114.827038 23.546779 
L 114.922766 23.568499 
L 115.447039 23.681781 
L 115.550795 44.690691 
L 115.57357 44.692275 
L 115.586223 53.548815 
L 115.682387 53.503794 
L 116.079694 53.325021 
L 116.092347 44.465327 
L 116.183449 44.472447 
L 116.206225 44.474234 
L 116.218878 23.476002 
L 116.314606 23.495799 
L 116.838879 23.598687 
L 116.942635 44.606311 
L 116.96541 44.607629 
L 116.978063 53.464174 
L 117.074227 53.421065 
L 117.471534 53.249606 
L 117.484187 44.389897 
L 117.575289 44.395903 
L 117.598065 44.397413 
L 117.610718 23.398956 
L 117.706446 23.416887 
L 118.230719 23.509658 
L 118.334475 44.516021 
L 118.35725 44.517078 
L 118.369903 53.373624 
L 118.466067 53.332343 
L 118.863374 53.167889 
L 118.876027 44.308164 
L 118.967129 44.313078 
L 118.989905 44.314316 
L 119.002558 23.315641 
L 119.098287 23.33175 
L 119.622559 23.414626 
L 119.726315 44.419738 
L 119.74909 44.420537 
L 119.761743 53.27708 
L 119.857907 53.237529 
L 120.255214 53.079723 
L 120.267867 44.219979 
L 120.358969 44.223814 
L 120.381745 44.224782 
L 120.394398 23.225893 
L 120.490127 23.240214 
L 121.0144 23.31335 
L 121.118155 44.31721 
L 121.14093 44.31775 
L 121.153584 53.174284 
L 121.249747 53.136354 
L 121.647054 52.984781 
L 121.659707 44.125014 
L 121.750809 44.127768 
L 121.773585 44.128467 
L 121.786238 23.129365 
L 121.881967 23.141921 
L 122.40624 23.2054 
L 122.509995 44.207992 
L 122.532771 44.208267 
L 122.545424 53.064785 
L 122.641587 53.028353 
L 123.038894 52.882545 
L 123.051547 44.022747 
L 123.14265 44.024406 
L 123.165425 44.024832 
L 123.178078 23.025518 
L 123.273807 23.036316 
L 123.79808 23.090141 
L 123.901835 44.091431 
L 123.924611 44.091435 
L 123.937264 52.947927 
L 124.033427 52.912856 
L 124.430734 52.772288 
L 124.443387 43.912452 
L 124.53449 43.912988 
L 124.557265 43.913132 
L 124.569918 22.913605 
L 124.665647 22.922637 
L 125.18992 22.966722 
L 125.202573 43.967823 
L 125.293675 43.966659 
L 125.316451 43.966379 
L 125.329104 52.822833 
L 125.425267 52.788977 
L 125.822574 52.653075 
L 125.92633 43.792559 
L 125.949105 43.792412 
L 125.961758 22.792667 
L 126.057487 22.799908 
L 126.58176 22.834065 
L 126.594413 43.834943 
L 126.685515 43.832579 
L 126.708291 43.831999 
L 126.720944 52.688402 
L 126.817107 52.655602 
L 127.214414 52.523747 
L 127.31817 43.66194 
L 127.340945 43.661486 
L 127.353598 22.661517 
L 127.449327 22.666921 
L 127.9736 22.69085 
L 127.986253 43.691496 
L 128.077355 43.687849 
L 128.100131 43.686949 
L 128.112784 52.543285 
L 128.208947 52.511369 
L 128.606255 52.382883 
L 128.71001 43.51969 
L 128.732785 43.518908 
L 128.745439 22.518706 
L 128.841167 22.522207 
L 129.36544 22.535481 
L 129.378093 43.535881 
L 129.469195 43.530846 
L 129.491971 43.529599 
L 129.504624 52.38585 
L 129.600788 52.354629 
L 129.998095 52.228756 
L 130.10185 43.364056 
L 130.124626 43.362921 
L 130.137279 22.362472 
L 130.233007 22.363979 
L 130.75728 22.366025 
L 130.769933 43.366164 
L 130.861036 43.35961 
L 130.883811 43.357983 
L 130.896464 52.214125 
L 130.992628 52.183385 
L 131.389935 52.059261 
L 131.49369 43.192902 
L 131.516466 43.191381 
L 131.624847 22.190061 
L 132.14912 22.180145 
L 132.161773 43.180002 
L 132.252876 43.171766 
L 132.275651 43.169718 
L 132.288304 52.025726 
L 132.384468 51.995219 
L 132.781775 51.871839 
L 132.88553 43.003631 
L 132.908306 43.001684 
L 133.016687 21.997815 
L 133.54096 21.975011 
L 133.553613 42.974562 
L 133.644716 42.964444 
L 133.667491 42.961926 
L 133.680144 51.817769 
L 133.776308 51.787208 
L 134.173615 51.663396 
L 134.27737 42.793112 
L 134.300146 42.790689 
L 134.408527 21.784056 
L 134.9328 21.747224 
L 134.945454 42.746437 
L 135.036556 42.7342 
L 135.059331 42.731151 
L 135.071984 51.586791 
L 135.168148 51.555841 
L 135.565455 51.430236 
L 135.66921 42.557599 
L 135.691986 42.554639 
L 135.800368 21.54498 
L 136.324641 21.492727 
L 136.337294 42.491565 
L 136.428396 42.476921 
L 136.451171 42.47327 
L 136.463825 51.328662 
L 136.559988 51.29694 
L 136.957295 51.167968 
L 136.969948 46.120069 
L 140.796874 45.448143 
L 147.636492 44.549282 
L 152.976592 44.040598 
L 159.702511 43.571636 
L 167.797183 43.193499 
L 177.184199 42.937713 
L 187.743797 42.81577 
L 199.32717 42.823909 
L 224.892777 43.174535 
L 252.470633 43.851723 
L 294.405521 45.188218 
L 320.730339 46.204923 
L 332.871933 46.781511 
L 344.027722 47.445183 
L 353.957346 48.238797 
L 362.47778 49.204572 
L 369.512206 50.372275 
L 375.104079 51.750365 
L 379.395883 53.323923 
L 382.58875 55.058494 
L 384.901249 56.905998 
L 386.538813 58.809486 
L 387.676927 60.705923 
L 388.455808 62.528582 
L 389.335079 65.700761 
L 389.837167 68.82022 
L 390.031782 70.679814 
L 390.031782 70.679814 
" clip-path="url(#pa69f16f7a2)" style="fill: none; stroke: #ff0000; stroke-width: 1.5; stroke-linecap: square"/>
   </g>
   <g id="line2d_16">
    <path d="M 75.728984 228.045126 
L 94.695969 228.047479 
L 94.804785 235.065179 
L 95.202092 235.065281 
L 95.305848 225.063887 
L 95.328623 225.063892 
L 95.437005 215.415823 
L 95.961278 215.416077 
L 96.065033 225.064247 
L 96.087809 225.064263 
L 96.196625 235.065759 
L 96.593933 235.066033 
L 96.697688 225.064683 
L 96.720463 225.064698 
L 96.828845 215.416674 
L 97.353118 215.417147 
L 97.456873 225.065361 
L 97.479649 225.065386 
L 97.588466 235.066929 
L 97.985773 235.067376 
L 98.089528 225.066071 
L 98.112304 225.066096 
L 98.220685 215.418117 
L 98.744958 215.418808 
L 98.848713 225.067066 
L 98.871489 225.067101 
L 98.980306 235.068692 
L 99.377613 235.069311 
L 99.390266 225.06791 
L 99.481368 225.06805 
L 99.504144 225.068085 
L 99.516797 215.420004 
L 99.612525 215.420151 
L 100.136798 215.42106 
L 100.240554 225.069363 
L 100.263329 225.069408 
L 100.372146 235.071046 
L 100.769453 235.071838 
L 100.782106 225.070442 
L 100.873208 225.070621 
L 100.895984 225.070666 
L 100.908637 215.42259 
L 101.004365 215.422777 
L 101.528638 215.423905 
L 101.632394 225.072252 
L 101.655169 225.072307 
L 101.763986 235.073992 
L 102.161293 235.074957 
L 102.173946 225.073566 
L 102.265048 225.073784 
L 102.287824 225.073839 
L 102.300477 215.425769 
L 102.396205 215.425995 
L 102.920478 215.427342 
L 103.024234 225.075734 
L 103.047009 225.075798 
L 103.155826 235.07753 
L 103.553133 235.078668 
L 103.565786 225.077283 
L 103.656888 225.07754 
L 103.679664 225.077604 
L 103.692317 215.429539 
L 103.788046 215.429806 
L 104.312318 215.431371 
L 104.416074 225.079807 
L 104.438849 225.079881 
L 104.547666 235.081661 
L 104.944973 235.082972 
L 104.957626 225.081592 
L 105.048728 225.081888 
L 105.071504 225.081962 
L 105.084157 215.433903 
L 105.179886 215.434209 
L 105.704159 215.435994 
L 105.807914 225.084474 
L 105.83069 225.084558 
L 105.939506 235.086385 
L 106.336813 235.087869 
L 106.349466 225.086495 
L 106.440569 225.08683 
L 106.463344 225.086913 
L 106.475997 215.438859 
L 106.571726 215.439206 
L 107.095999 215.44121 
L 107.199754 225.089734 
L 107.22253 225.089828 
L 107.331346 235.091702 
L 107.728653 235.093359 
L 107.741306 225.091991 
L 107.832409 225.092365 
L 107.855184 225.092458 
L 107.867837 215.44441 
L 107.963566 215.444796 
L 108.487839 215.447019 
L 108.591594 225.095588 
L 108.61437 225.095692 
L 108.723186 235.097613 
L 109.120493 235.099444 
L 109.133146 225.098081 
L 109.224249 225.098494 
L 109.247024 225.098597 
L 109.259677 215.450554 
L 109.355406 215.450981 
L 109.879679 215.453423 
L 109.983434 225.102037 
L 110.00621 225.10215 
L 110.115026 235.104119 
L 110.512333 235.106124 
L 110.524987 225.104766 
L 110.616089 225.105218 
L 110.638864 225.105331 
L 110.651517 215.457293 
L 110.747246 215.45776 
L 111.271519 215.460422 
L 111.375274 225.109081 
L 111.39805 225.109204 
L 111.506866 235.11122 
L 111.904174 235.113399 
L 111.916827 225.112046 
L 112.007929 225.112538 
L 112.030704 225.112661 
L 112.043358 215.464628 
L 112.139086 215.465135 
L 112.663359 215.468017 
L 112.767114 225.11672 
L 112.78989 225.116853 
L 112.898707 235.118917 
L 113.296014 235.12127 
L 113.308667 225.119923 
L 113.399769 225.120454 
L 113.422545 225.120586 
L 113.435198 215.472559 
L 113.530926 215.473106 
L 114.055199 215.476209 
L 114.158954 225.124957 
L 114.18173 225.125099 
L 114.290547 235.127211 
L 114.687854 235.129737 
L 114.700507 225.128396 
L 114.791609 225.128966 
L 114.814385 225.129109 
L 114.827038 215.481087 
L 114.922766 215.481674 
L 115.447039 215.484998 
L 115.550795 225.13379 
L 115.57357 225.133942 
L 115.682387 235.136102 
L 116.079694 235.138803 
L 116.092347 225.137467 
L 116.183449 225.138077 
L 116.206225 225.138229 
L 116.218878 215.490213 
L 116.314606 215.49084 
L 116.838879 215.494385 
L 116.942635 225.143222 
L 116.96541 225.143384 
L 117.074227 235.145592 
L 117.471534 235.148467 
L 117.484187 225.147137 
L 117.575289 225.147786 
L 117.598065 225.147948 
L 117.610718 215.499937 
L 117.706446 215.500605 
L 118.230719 215.504371 
L 118.334475 225.153253 
L 118.35725 225.153425 
L 118.466067 235.155681 
L 118.863374 235.158731 
L 118.876027 225.157407 
L 118.967129 225.158095 
L 118.989905 225.158267 
L 119.002558 215.510261 
L 119.098287 215.51097 
L 119.622559 215.514957 
L 119.726315 225.163884 
L 119.74909 225.164066 
L 119.857907 235.16637 
L 120.255214 235.169596 
L 120.267867 225.168277 
L 120.358969 225.169004 
L 120.381745 225.169186 
L 120.394398 215.521186 
L 120.490127 215.521935 
L 121.0144 215.526145 
L 121.118155 225.175117 
L 121.14093 225.175309 
L 121.249747 235.17766 
L 121.647054 235.181062 
L 121.659707 225.179748 
L 121.750809 225.180516 
L 121.773585 225.180707 
L 121.786238 215.532713 
L 121.881967 215.533502 
L 122.40624 215.537934 
L 122.509995 225.186952 
L 122.532771 225.187153 
L 122.641587 235.189553 
L 123.038894 235.193131 
L 123.051547 225.191823 
L 123.14265 225.19263 
L 123.165425 225.192832 
L 123.178078 215.544842 
L 123.273807 215.545673 
L 123.79808 215.550328 
L 123.901835 225.19939 
L 123.924611 225.199602 
L 124.033427 235.20205 
L 124.430734 235.205804 
L 124.443387 225.204501 
L 124.53449 225.205348 
L 124.557265 225.20556 
L 124.569918 215.557576 
L 124.665647 215.558447 
L 125.18992 215.563326 
L 125.293675 225.212433 
L 125.316451 225.212655 
L 125.425267 235.215151 
L 125.822574 235.219082 
L 125.835227 225.217785 
L 125.92633 225.218672 
L 125.949105 225.218894 
L 125.961758 215.570915 
L 126.057487 215.571827 
L 126.58176 215.57693 
L 126.685515 225.226083 
L 126.708291 225.226314 
L 126.817107 235.228859 
L 127.214414 235.232967 
L 127.227068 225.231676 
L 127.31817 225.232602 
L 127.340945 225.232834 
L 127.353598 215.584861 
L 127.449327 215.585814 
L 127.9736 215.591141 
L 128.077355 225.24034 
L 128.100131 225.240581 
L 128.208947 235.243175 
L 128.606255 235.24746 
L 128.618908 225.246174 
L 128.71001 225.247141 
L 128.732785 225.247383 
L 128.745439 215.599415 
L 128.841167 215.600409 
L 129.36544 215.605961 
L 129.469195 225.255205 
L 129.491971 225.255457 
L 129.600788 235.258099 
L 129.998095 235.262562 
L 130.010748 225.261282 
L 130.10185 225.262289 
L 130.124626 225.262541 
L 130.137279 215.614579 
L 130.233007 215.615614 
L 130.75728 215.621391 
L 130.861036 225.270682 
L 130.883811 225.270943 
L 130.992628 235.273634 
L 131.389935 235.278276 
L 131.402588 225.277002 
L 131.49369 225.278049 
L 131.516466 225.27831 
L 131.529119 215.630354 
L 131.624847 215.63143 
L 132.14912 215.637434 
L 132.252876 225.28677 
L 132.275651 225.287041 
L 132.384468 235.289781 
L 132.781775 235.294602 
L 132.794428 225.293333 
L 132.88553 225.294421 
L 132.908306 225.294693 
L 132.920959 215.646742 
L 133.016687 215.647859 
L 133.54096 215.654089 
L 133.644716 225.303471 
L 133.667491 225.303753 
L 133.776308 235.306542 
L 134.173615 235.311542 
L 134.186268 225.310279 
L 134.27737 225.311407 
L 134.300146 225.311689 
L 134.312799 215.663744 
L 134.408527 215.664903 
L 134.9328 215.67136 
L 135.036556 225.320789 
L 135.059331 225.321081 
L 135.168148 235.323919 
L 135.565455 235.329099 
L 135.578108 225.327841 
L 135.66921 225.32901 
L 135.691986 225.329302 
L 135.704639 215.681362 
L 135.800368 215.682563 
L 136.324641 215.689248 
L 136.428396 225.338723 
L 136.451171 225.339025 
L 136.559988 235.341912 
L 136.957295 235.347273 
L 136.969948 228.32977 
L 320.730339 230.662447 
L 390.031782 231.509566 
L 390.031782 231.509566 
" clip-path="url(#pa69f16f7a2)" style="fill: none; stroke-dasharray: 5.55,2.4; stroke-dashoffset: 0; stroke: #0000ff; stroke-width: 1.5"/>
   </g>
   <g id="line2d_17">
    <path d="M 75.728984 76.307258 
L 94.695969 76.304904 
L 94.804785 81.349616 
L 95.202092 81.349514 
L 95.305848 72.491251 
L 95.328623 72.491246 
L 95.437005 51.49077 
L 95.961278 51.490516 
L 95.973931 72.490952 
L 96.065033 72.490891 
L 96.087809 72.490875 
L 96.196625 81.349037 
L 96.593933 81.348762 
L 96.697688 72.490455 
L 96.720463 72.49044 
L 96.828845 51.489919 
L 97.353118 51.489446 
L 97.365771 72.489878 
L 97.456873 72.489777 
L 97.479649 72.489752 
L 97.588466 81.347866 
L 97.985773 81.347419 
L 98.089528 72.489067 
L 98.112304 72.489042 
L 98.220685 51.488476 
L 98.744958 51.487785 
L 98.757611 72.488211 
L 98.848713 72.488072 
L 98.871489 72.488037 
L 98.884142 81.346254 
L 98.980306 81.346104 
L 99.377613 81.345484 
L 99.481368 72.487088 
L 99.504144 72.487053 
L 99.612525 51.486442 
L 100.136798 51.485532 
L 100.149451 72.485953 
L 100.240554 72.485775 
L 100.263329 72.48573 
L 100.275982 81.343941 
L 100.372146 81.34375 
L 100.769453 81.342957 
L 100.873208 72.484517 
L 100.895984 72.484472 
L 101.004365 51.483816 
L 101.528638 51.482688 
L 101.541291 72.483103 
L 101.632394 72.482886 
L 101.655169 72.482831 
L 101.667822 81.341037 
L 101.763986 81.340804 
L 102.161293 81.339838 
L 102.265048 72.481354 
L 102.287824 72.481299 
L 102.396205 51.480598 
L 102.920478 51.479251 
L 102.933132 72.479661 
L 103.024234 72.479404 
L 103.047009 72.47934 
L 103.059662 81.337541 
L 103.155826 81.337265 
L 103.553133 81.336127 
L 103.656888 72.477598 
L 103.679664 72.477534 
L 103.788046 51.476787 
L 104.312318 51.475221 
L 104.324972 72.475626 
L 104.416074 72.47533 
L 104.438849 72.475257 
L 104.451503 81.333452 
L 104.547666 81.333134 
L 104.944973 81.331823 
L 105.048728 72.47325 
L 105.071504 72.473176 
L 105.179886 51.472384 
L 105.704159 51.470599 
L 105.716812 72.470998 
L 105.807914 72.470664 
L 105.83069 72.47058 
L 105.843343 81.32877 
L 105.939506 81.328411 
L 106.336813 81.326927 
L 106.440569 72.468308 
L 106.463344 72.468225 
L 106.571726 51.467387 
L 107.095999 51.465383 
L 107.108652 72.465777 
L 107.199754 72.465404 
L 107.22253 72.46531 
L 107.235183 81.323494 
L 107.331346 81.323093 
L 107.728653 81.321436 
L 107.832409 72.462773 
L 107.855184 72.46268 
L 107.963566 51.461797 
L 108.487839 51.459574 
L 108.500492 72.459962 
L 108.591594 72.459549 
L 108.61437 72.459446 
L 108.627023 81.317625 
L 108.723186 81.317182 
L 109.120493 81.315351 
L 109.224249 72.456644 
L 109.247024 72.456541 
L 109.355406 51.455612 
L 109.879679 51.45317 
L 109.892332 72.453553 
L 109.983434 72.453101 
L 110.00621 72.452988 
L 110.018863 81.311161 
L 110.115026 81.310676 
L 110.512333 81.308672 
L 110.616089 72.44992 
L 110.638864 72.449807 
L 110.747246 51.448833 
L 111.271519 51.44617 
L 111.284172 72.446548 
L 111.375274 72.446057 
L 111.39805 72.445934 
L 111.410703 81.304102 
L 111.506866 81.303575 
L 111.904174 81.301397 
L 112.007929 72.4426 
L 112.030704 72.442477 
L 112.139086 51.441458 
L 112.663359 51.438575 
L 112.676012 72.438948 
L 112.767114 72.438418 
L 112.78989 72.438285 
L 112.802543 81.296447 
L 112.898707 81.295878 
L 113.296014 81.293526 
L 113.399769 72.434684 
L 113.422545 72.434552 
L 113.530926 51.433487 
L 114.055199 51.430384 
L 114.067852 72.430751 
L 114.158954 72.430181 
L 114.18173 72.430039 
L 114.194383 81.288196 
L 114.290547 81.287584 
L 114.687854 81.285058 
L 114.791609 72.426172 
L 114.814385 72.426029 
L 114.922766 51.424919 
L 115.447039 51.421595 
L 115.459692 72.421957 
L 115.550795 72.421348 
L 115.57357 72.421196 
L 115.586223 81.279347 
L 115.682387 81.278693 
L 116.079694 81.275992 
L 116.183449 72.417061 
L 116.206225 72.416909 
L 116.314606 51.415753 
L 116.838879 51.412208 
L 116.851532 72.412564 
L 116.942635 72.411916 
L 116.96541 72.411754 
L 116.978063 81.2699 
L 117.074227 81.269204 
L 117.471534 81.266328 
L 117.575289 72.407352 
L 117.598065 72.40719 
L 117.706446 51.405988 
L 118.230719 51.402222 
L 118.243372 72.402573 
L 118.334475 72.401885 
L 118.35725 72.401713 
L 118.369903 81.259853 
L 118.466067 81.259115 
L 118.863374 81.256064 
L 118.967129 72.397043 
L 118.989905 72.396871 
L 119.098287 51.395623 
L 119.622559 51.391636 
L 119.635213 72.391981 
L 119.726315 72.391254 
L 119.74909 72.391072 
L 119.761743 81.249206 
L 119.857907 81.248426 
L 120.255214 81.2452 
L 120.358969 72.386134 
L 120.381745 72.385952 
L 120.490127 51.384658 
L 121.0144 51.380448 
L 121.027053 72.380788 
L 121.118155 72.380021 
L 121.14093 72.379829 
L 121.153584 81.237958 
L 121.249747 81.237135 
L 121.647054 81.233734 
L 121.750809 72.374622 
L 121.773585 72.374431 
L 121.881967 51.373091 
L 122.40624 51.368658 
L 122.418893 72.368993 
L 122.509995 72.368186 
L 122.532771 72.367985 
L 122.545424 81.226108 
L 122.641587 81.225242 
L 123.038894 81.221665 
L 123.14265 72.362508 
L 123.165425 72.362306 
L 123.273807 51.36092 
L 123.79808 51.356265 
L 123.810733 72.356594 
L 123.901835 72.355748 
L 123.924611 72.355536 
L 123.937264 81.213654 
L 124.033427 81.212746 
L 124.430734 81.208992 
L 124.53449 72.34979 
L 124.557265 72.349578 
L 124.665647 51.348146 
L 125.18992 51.343267 
L 125.202573 72.343591 
L 125.293675 72.342705 
L 125.316451 72.342483 
L 125.329104 81.200595 
L 125.425267 81.199644 
L 125.822574 81.195713 
L 125.92633 72.336466 
L 125.949105 72.336244 
L 126.057487 51.334766 
L 126.58176 51.329663 
L 126.594413 72.329981 
L 126.685515 72.329055 
L 126.708291 72.328824 
L 126.720944 81.18693 
L 126.817107 81.185936 
L 127.214414 81.181828 
L 127.31817 72.322536 
L 127.340945 72.322304 
L 127.449327 51.320779 
L 127.9736 51.315452 
L 127.986253 72.315765 
L 128.077355 72.314798 
L 128.100131 72.314557 
L 128.112784 81.172658 
L 128.208947 81.171621 
L 128.606255 81.167335 
L 128.71001 72.307997 
L 128.732785 72.307755 
L 128.841167 51.306184 
L 129.36544 51.300632 
L 129.378093 72.300939 
L 129.469195 72.299933 
L 129.491971 72.299681 
L 129.504624 81.157776 
L 129.600788 81.156696 
L 129.998095 81.152233 
L 130.10185 72.292849 
L 130.124626 72.292597 
L 130.233007 51.290979 
L 130.75728 51.285201 
L 130.769933 72.285503 
L 130.861036 72.284456 
L 130.883811 72.284195 
L 130.896464 81.142285 
L 130.992628 81.141161 
L 131.389935 81.136519 
L 131.49369 72.277089 
L 131.516466 72.276828 
L 131.624847 51.275163 
L 132.14912 51.269159 
L 132.161773 72.269455 
L 132.252876 72.268368 
L 132.275651 72.268096 
L 132.288304 81.126181 
L 132.384468 81.125014 
L 132.781775 81.120193 
L 132.88553 72.260717 
L 132.908306 72.260445 
L 133.016687 51.258734 
L 133.54096 51.252503 
L 133.553613 72.252794 
L 133.644716 72.251666 
L 133.667491 72.251385 
L 133.680144 81.109463 
L 133.776308 81.108253 
L 134.173615 81.103253 
L 134.27737 72.243731 
L 134.300146 72.243449 
L 134.408527 51.24169 
L 134.9328 51.235233 
L 134.945454 72.235517 
L 135.036556 72.234349 
L 135.059331 72.234057 
L 135.071984 81.09213 
L 135.168148 81.090877 
L 135.565455 81.085697 
L 135.66921 72.226128 
L 135.691986 72.225836 
L 135.800368 51.22403 
L 136.324641 51.217345 
L 136.337294 72.217624 
L 136.428396 72.216415 
L 136.451171 72.216113 
L 136.463825 81.07418 
L 136.559988 81.072883 
L 136.957295 81.067523 
L 136.969948 76.022614 
L 320.730339 73.689936 
L 390.031782 72.842818 
L 390.031782 72.842818 
" clip-path="url(#pa69f16f7a2)" style="fill: none; stroke-dasharray: 5.55,2.4; stroke-dashoffset: 0; stroke: #ff0000; stroke-width: 1.5"/>
   </g>
   <g id="patch_3">
    <path d="M 60.013844 246.04 
L 60.013844 10.8 
" style="fill: none; stroke: #000000; stroke-width: 0.8; stroke-linejoin: miter; stroke-linecap: square"/>
   </g>
   <g id="patch_4">
    <path d="M 405.746922 246.04 
L 405.746922 10.8 
" style="fill: none; stroke: #000000; stroke-width: 0.8; stroke-linejoin: miter; stroke-linecap: square"/>
   </g>
   <g id="patch_5">
    <path d="M 60.013844 246.04 
L 405.746922 246.04 
" style="fill: none; stroke: #000000; stroke-width: 0.8; stroke-linejoin: miter; stroke-linecap: square"/>
   </g>
   <g id="patch_6">
    <path d="M 60.013844 10.8 
L 405.746922 10.8 
" style="fill: none; stroke: #000000; stroke-width: 0.8; stroke-linejoin: miter; stroke-linecap: square"/>
   </g>
  </g>
  <g id="axes_2">
   <g id="patch_7">
    <path d="M 453.466922 246.04 
L 799.2 246.04 
L 799.2 10.8 
L 453.466922 10.8 
z
" style="fill: #ffffff"/>
   </g>
   <g id="matplotlib.axis_3">
    <g id="xtick_6">
     <g id="line2d_18">
      <g>
       <use xlink:href="#maa490df366" x="475.07524" y="246.04" style="stroke: #000000; stroke-width: 0.8"/>
      </g>
     </g>
     <g id="text_16">
      <!-- 400 -->
      <g transform="translate(465.53149 260.638438) scale(0.1 -0.1)">
       <defs>
        <path id="DejaVuSans-34" d="M 2419 4116 
L 825 1625 
L 2419 1625 
L 2419 4116 
z
M 2253 4666 
L 3047 4666 
L 3047 1625 
L 3713 1625 
L 3713 1100 
L 3047 1100 
L 3047 0 
L 2419 0 
L 2419 1100 
L 313 1100 
L 313 1709 
L 2253 4666 
z
" transform="scale(0.015625)"/>
       </defs>
       <use xlink:href="#DejaVuSans-34"/>
       <use xlink:href="#DejaVuSans-30" x="63.623047"/>
       <use xlink:href="#DejaVuSans-30" x="127.246094"/>
      </g>
     </g>
    </g>
    <g id="xtick_7">
     <g id="line2d_19">
      <g>
       <use xlink:href="#maa490df366" x="518.291874" y="246.04" style="stroke: #000000; stroke-width: 0.8"/>
      </g>
     </g>
     <g id="text_17">
      <!-- 500 -->
      <g transform="translate(508.748124 260.638438) scale(0.1 -0.1)">
       <use xlink:href="#DejaVuSans-35"/>
       <use xlink:href="#DejaVuSans-30" x="63.623047"/>
       <use xlink:href="#DejaVuSans-30" x="127.246094"/>
      </g>
     </g>
    </g>
    <g id="xtick_8">
     <g id="line2d_20">
      <g>
       <use xlink:href="#maa490df366" x="561.508509" y="246.04" style="stroke: #000000; stroke-width: 0.8"/>
      </g>
     </g>
     <g id="text_18">
      <!-- 600 -->
      <g transform="translate(551.964759 260.638438) scale(0.1 -0.1)">
       <defs>
        <path id="DejaVuSans-36" d="M 2113 2584 
Q 1688 2584 1439 2293 
Q 1191 2003 1191 1497 
Q 1191 994 1439 701 
Q 1688 409 2113 409 
Q 2538 409 2786 701 
Q 3034 994 3034 1497 
Q 3034 2003 2786 2293 
Q 2538 2584 2113 2584 
z
M 3366 4563 
L 3366 3988 
Q 3128 4100 2886 4159 
Q 2644 4219 2406 4219 
Q 1781 4219 1451 3797 
Q 1122 3375 1075 2522 
Q 1259 2794 1537 2939 
Q 1816 3084 2150 3084 
Q 2853 3084 3261 2657 
Q 3669 2231 3669 1497 
Q 3669 778 3244 343 
Q 2819 -91 2113 -91 
Q 1303 -91 875 529 
Q 447 1150 447 2328 
Q 447 3434 972 4092 
Q 1497 4750 2381 4750 
Q 2619 4750 2861 4703 
Q 3103 4656 3366 4563 
z
" transform="scale(0.015625)"/>
       </defs>
       <use xlink:href="#DejaVuSans-36"/>
       <use xlink:href="#DejaVuSans-30" x="63.623047"/>
       <use xlink:href="#DejaVuSans-30" x="127.246094"/>
      </g>
     </g>
    </g>
    <g id="xtick_9">
     <g id="line2d_21">
      <g>
       <use xlink:href="#maa490df366" x="604.725144" y="246.04" style="stroke: #000000; stroke-width: 0.8"/>
      </g>
     </g>
     <g id="text_19">
      <!-- 700 -->
      <g transform="translate(595.181394 260.638438) scale(0.1 -0.1)">
       <use xlink:href="#DejaVuSans-37"/>
       <use xlink:href="#DejaVuSans-30" x="63.623047"/>
       <use xlink:href="#DejaVuSans-30" x="127.246094"/>
      </g>
     </g>
    </g>
    <g id="xtick_10">
     <g id="line2d_22">
      <g>
       <use xlink:href="#maa490df366" x="647.941778" y="246.04" style="stroke: #000000; stroke-width: 0.8"/>
      </g>
     </g>
     <g id="text_20">
      <!-- 800 -->
      <g transform="translate(638.398028 260.638438) scale(0.1 -0.1)">
       <defs>
        <path id="DejaVuSans-38" d="M 2034 2216 
Q 1584 2216 1326 1975 
Q 1069 1734 1069 1313 
Q 1069 891 1326 650 
Q 1584 409 2034 409 
Q 2484 409 2743 651 
Q 3003 894 3003 1313 
Q 3003 1734 2745 1975 
Q 2488 2216 2034 2216 
z
M 1403 2484 
Q 997 2584 770 2862 
Q 544 3141 544 3541 
Q 544 4100 942 4425 
Q 1341 4750 2034 4750 
Q 2731 4750 3128 4425 
Q 3525 4100 3525 3541 
Q 3525 3141 3298 2862 
Q 3072 2584 2669 2484 
Q 3125 2378 3379 2068 
Q 3634 1759 3634 1313 
Q 3634 634 3220 271 
Q 2806 -91 2034 -91 
Q 1263 -91 848 271 
Q 434 634 434 1313 
Q 434 1759 690 2068 
Q 947 2378 1403 2484 
z
M 1172 3481 
Q 1172 3119 1398 2916 
Q 1625 2713 2034 2713 
Q 2441 2713 2670 2916 
Q 2900 3119 2900 3481 
Q 2900 3844 2670 4047 
Q 2441 4250 2034 4250 
Q 1625 4250 1398 4047 
Q 1172 3844 1172 3481 
z
" transform="scale(0.015625)"/>
       </defs>
       <use xlink:href="#DejaVuSans-38"/>
       <use xlink:href="#DejaVuSans-30" x="63.623047"/>
       <use xlink:href="#DejaVuSans-30" x="127.246094"/>
      </g>
     </g>
    </g>
    <g id="xtick_11">
     <g id="line2d_23">
      <g>
       <use xlink:href="#maa490df366" x="691.158413" y="246.04" style="stroke: #000000; stroke-width: 0.8"/>
      </g>
     </g>
     <g id="text_21">
      <!-- 900 -->
      <g transform="translate(681.614663 260.638438) scale(0.1 -0.1)">
       <use xlink:href="#DejaVuSans-39"/>
       <use xlink:href="#DejaVuSans-30" x="63.623047"/>
       <use xlink:href="#DejaVuSans-30" x="127.246094"/>
      </g>
     </g>
    </g>
    <g id="xtick_12">
     <g id="line2d_24">
      <g>
       <use xlink:href="#maa490df366" x="734.375048" y="246.04" style="stroke: #000000; stroke-width: 0.8"/>
      </g>
     </g>
     <g id="text_22">
      <!-- 1000 -->
      <g transform="translate(721.650048 260.638438) scale(0.1 -0.1)">
       <use xlink:href="#DejaVuSans-31"/>
       <use xlink:href="#DejaVuSans-30" x="63.623047"/>
       <use xlink:href="#DejaVuSans-30" x="127.246094"/>
       <use xlink:href="#DejaVuSans-30" x="190.869141"/>
      </g>
     </g>
    </g>
    <g id="xtick_13">
     <g id="line2d_25">
      <g>
       <use xlink:href="#maa490df366" x="777.591683" y="246.04" style="stroke: #000000; stroke-width: 0.8"/>
      </g>
     </g>
     <g id="text_23">
      <!-- 1100 -->
      <g transform="translate(764.866683 260.638438) scale(0.1 -0.1)">
       <use xlink:href="#DejaVuSans-31"/>
       <use xlink:href="#DejaVuSans-31" x="63.623047"/>
       <use xlink:href="#DejaVuSans-30" x="127.246094"/>
       <use xlink:href="#DejaVuSans-30" x="190.869141"/>
      </g>
     </g>
    </g>
    <g id="text_24">
     <!-- Wavelength (nm) -->
     <g transform="translate(583.141274 274.316562) scale(0.1 -0.1)">
      <defs>
       <path id="DejaVuSans-57" d="M 213 4666 
L 850 4666 
L 1831 722 
L 2809 4666 
L 3519 4666 
L 4500 722 
L 5478 4666 
L 6119 4666 
L 4947 0 
L 4153 0 
L 3169 4050 
L 2175 0 
L 1381 0 
L 213 4666 
z
" transform="scale(0.015625)"/>
       <path id="DejaVuSans-76" d="M 191 3500 
L 800 3500 
L 1894 563 
L 2988 3500 
L 3597 3500 
L 2284 0 
L 1503 0 
L 191 3500 
z
" transform="scale(0.015625)"/>
       <path id="DejaVuSans-6c" d="M 603 4863 
L 1178 4863 
L 1178 0 
L 603 0 
L 603 4863 
z
" transform="scale(0.015625)"/>
       <path id="DejaVuSans-67" d="M 2906 1791 
Q 2906 2416 2648 2759 
Q 2391 3103 1925 3103 
Q 1463 3103 1205 2759 
Q 947 2416 947 1791 
Q 947 1169 1205 825 
Q 1463 481 1925 481 
Q 2391 481 2648 825 
Q 2906 1169 2906 1791 
z
M 3481 434 
Q 3481 -459 3084 -895 
Q 2688 -1331 1869 -1331 
Q 1566 -1331 1297 -1286 
Q 1028 -1241 775 -1147 
L 775 -588 
Q 1028 -725 1275 -790 
Q 1522 -856 1778 -856 
Q 2344 -856 2625 -561 
Q 2906 -266 2906 331 
L 2906 616 
Q 2728 306 2450 153 
Q 2172 0 1784 0 
Q 1141 0 747 490 
Q 353 981 353 1791 
Q 353 2603 747 3093 
Q 1141 3584 1784 3584 
Q 2172 3584 2450 3431 
Q 2728 3278 2906 2969 
L 2906 3500 
L 3481 3500 
L 3481 434 
z
" transform="scale(0.015625)"/>
       <path id="DejaVuSans-68" d="M 3513 2113 
L 3513 0 
L 2938 0 
L 2938 2094 
Q 2938 2591 2744 2837 
Q 2550 3084 2163 3084 
Q 1697 3084 1428 2787 
Q 1159 2491 1159 1978 
L 1159 0 
L 581 0 
L 581 4863 
L 1159 4863 
L 1159 2956 
Q 1366 3272 1645 3428 
Q 1925 3584 2291 3584 
Q 2894 3584 3203 3211 
Q 3513 2838 3513 2113 
z
" transform="scale(0.015625)"/>
      </defs>
      <use xlink:href="#DejaVuSans-57"/>
      <use xlink:href="#DejaVuSans-61" x="92.501953"/>
      <use xlink:href="#DejaVuSans-76" x="153.78125"/>
      <use xlink:href="#DejaVuSans-65" x="212.960938"/>
      <use xlink:href="#DejaVuSans-6c" x="274.484375"/>
      <use xlink:href="#DejaVuSans-65" x="302.267578"/>
      <use xlink:href="#DejaVuSans-6e" x="363.791016"/>
      <use xlink:href="#DejaVuSans-67" x="427.169922"/>
      <use xlink:href="#DejaVuSans-74" x="490.646484"/>
      <use xlink:href="#DejaVuSans-68" x="529.855469"/>
      <use xlink:href="#DejaVuSans-20" x="593.234375"/>
      <use xlink:href="#DejaVuSans-28" x="625.021484"/>
      <use xlink:href="#DejaVuSans-6e" x="664.035156"/>
      <use xlink:href="#DejaVuSans-6d" x="727.414062"/>
      <use xlink:href="#DejaVuSans-29" x="824.826172"/>
     </g>
    </g>
   </g>
   <g id="matplotlib.axis_4">
    <g id="ytick_9">
     <g id="line2d_26">
      <g>
       <use xlink:href="#ma04d95b439" x="453.466922" y="246.04" style="stroke: #000000; stroke-width: 0.8"/>
      </g>
     </g>
     <g id="text_25">
      <!-- 0.0 -->
      <g transform="translate(430.563797 249.839219) scale(0.1 -0.1)">
       <defs>
        <path id="DejaVuSans-2e" d="M 684 794 
L 1344 794 
L 1344 0 
L 684 0 
L 684 794 
z
" transform="scale(0.015625)"/>
       </defs>
       <use xlink:href="#DejaVuSans-30"/>
       <use xlink:href="#DejaVuSans-2e" x="63.623047"/>
       <use xlink:href="#DejaVuSans-30" x="95.410156"/>
      </g>
     </g>
    </g>
    <g id="ytick_10">
     <g id="line2d_27">
      <g>
       <use xlink:href="#ma04d95b439" x="453.466922" y="203.269091" style="stroke: #000000; stroke-width: 0.8"/>
      </g>
     </g>
     <g id="text_26">
      <!-- 0.2 -->
      <g transform="translate(430.563797 207.06831) scale(0.1 -0.1)">
       <use xlink:href="#DejaVuSans-30"/>
       <use xlink:href="#DejaVuSans-2e" x="63.623047"/>
       <use xlink:href="#DejaVuSans-32" x="95.410156"/>
      </g>
     </g>
    </g>
    <g id="ytick_11">
     <g id="line2d_28">
      <g>
       <use xlink:href="#ma04d95b439" x="453.466922" y="160.498182" style="stroke: #000000; stroke-width: 0.8"/>
      </g>
     </g>
     <g id="text_27">
      <!-- 0.4 -->
      <g transform="translate(430.563797 164.297401) scale(0.1 -0.1)">
       <use xlink:href="#DejaVuSans-30"/>
       <use xlink:href="#DejaVuSans-2e" x="63.623047"/>
       <use xlink:href="#DejaVuSans-34" x="95.410156"/>
      </g>
     </g>
    </g>
    <g id="ytick_12">
     <g id="line2d_29">
      <g>
       <use xlink:href="#ma04d95b439" x="453.466922" y="117.727273" style="stroke: #000000; stroke-width: 0.8"/>
      </g>
     </g>
     <g id="text_28">
      <!-- 0.6 -->
      <g transform="translate(430.563797 121.526491) scale(0.1 -0.1)">
       <use xlink:href="#DejaVuSans-30"/>
       <use xlink:href="#DejaVuSans-2e" x="63.623047"/>
       <use xlink:href="#DejaVuSans-36" x="95.410156"/>
      </g>
     </g>
    </g>
    <g id="ytick_13">
     <g id="line2d_30">
      <g>
       <use xlink:href="#ma04d95b439" x="453.466922" y="74.956364" style="stroke: #000000; stroke-width: 0.8"/>
      </g>
     </g>
     <g id="text_29">
      <!-- 0.8 -->
      <g transform="translate(430.563797 78.755582) scale(0.1 -0.1)">
       <use xlink:href="#DejaVuSans-30"/>
       <use xlink:href="#DejaVuSans-2e" x="63.623047"/>
       <use xlink:href="#DejaVuSans-38" x="95.410156"/>
      </g>
     </g>
    </g>
    <g id="ytick_14">
     <g id="line2d_31">
      <g>
       <use xlink:href="#ma04d95b439" x="453.466922" y="32.185455" style="stroke: #000000; stroke-width: 0.8"/>
      </g>
     </g>
     <g id="text_30">
      <!-- 1.0 -->
      <g transform="translate(430.563797 35.984673) scale(0.1 -0.1)">
       <use xlink:href="#DejaVuSans-31"/>
       <use xlink:href="#DejaVuSans-2e" x="63.623047"/>
       <use xlink:href="#DejaVuSans-30" x="95.410156"/>
      </g>
     </g>
    </g>
    <g id="text_31">
     <!-- EQE -->
     <g transform="translate(424.48411 138.674688) rotate(-90) scale(0.1 -0.1)">
      <defs>
       <path id="DejaVuSans-45" d="M 628 4666 
L 3578 4666 
L 3578 4134 
L 1259 4134 
L 1259 2753 
L 3481 2753 
L 3481 2222 
L 1259 2222 
L 1259 531 
L 3634 531 
L 3634 0 
L 628 0 
L 628 4666 
z
" transform="scale(0.015625)"/>
       <path id="DejaVuSans-51" d="M 2522 4238 
Q 1834 4238 1429 3725 
Q 1025 3213 1025 2328 
Q 1025 1447 1429 934 
Q 1834 422 2522 422 
Q 3209 422 3611 934 
Q 4013 1447 4013 2328 
Q 4013 3213 3611 3725 
Q 3209 4238 2522 4238 
z
M 3406 84 
L 4238 -825 
L 3475 -825 
L 2784 -78 
Q 2681 -84 2626 -87 
Q 2572 -91 2522 -91 
Q 1538 -91 948 567 
Q 359 1225 359 2328 
Q 359 3434 948 4092 
Q 1538 4750 2522 4750 
Q 3503 4750 4090 4092 
Q 4678 3434 4678 2328 
Q 4678 1516 4351 937 
Q 4025 359 3406 84 
z
" transform="scale(0.015625)"/>
      </defs>
      <use xlink:href="#DejaVuSans-45"/>
      <use xlink:href="#DejaVuSans-51" x="63.183594"/>
      <use xlink:href="#DejaVuSans-45" x="141.894531"/>
     </g>
    </g>
   </g>
   <g id="line2d_32">
    <path d="M 453.466922 250.119886 
L 456.492087 250.378412 
L 464.559192 250.739321 
L 469.601133 250.994927 
L 474.643073 251.740308 
L 481.70179 253.014489 
L 485.735343 253.912922 
L 486.743731 254.164628 
L 488.760507 254.949194 
L 494.810836 257.55189 
L 497.836001 258.308235 
L 501.869553 258.822459 
L 505.903106 259.040267 
L 509.936658 258.993962 
L 513.970211 258.743848 
L 519.012152 258.233966 
L 525.06248 257.367392 
L 531.112809 256.293608 
L 537.163138 255.092544 
L 546.238631 252.973826 
L 558.339289 249.807812 
L 567.414782 247.218845 
L 572.456723 245.582204 
L 588.590933 239.787764 
L 597.666427 236.049656 
L 600.691591 234.627241 
L 607.750308 230.662111 
L 619.850966 223.814217 
L 624.892907 221.257242 
L 627.918071 219.922445 
L 632.960012 218.130261 
L 643.043893 214.512308 
L 645.060669 213.64364 
L 652.119386 210.841308 
L 656.152939 208.839951 
L 660.186492 206.984122 
L 661.19488 204.666192 
L 663.211656 204.333986 
L 665.228432 204.329801 
L 666.236821 204.478735 
L 667.245209 204.74326 
L 668.253597 205.136551 
L 669.261985 205.673263 
L 670.270373 206.36944 
L 672.287149 208.255437 
L 673.295538 209.407087 
L 674.303926 210.753317 
L 675.312314 212.312179 
L 676.320702 214.103203 
L 677.32909 216.147414 
L 678.337478 218.467415 
L 679.345866 221.087868 
L 680.354255 224.035069 
L 681.362643 227.33768 
L 683.379419 235.134891 
L 684.387807 239.69835 
L 685.396195 242.480473 
L 696.488465 244.855632 
L 697.496853 244.854466 
L 698.505241 245.295909 
L 699.513629 245.491134 
L 722.706557 245.465041 
L 723.714945 245.864268 
L 724.723333 244.823583 
L 725.731721 244.866984 
L 726.740109 245.885552 
L 727.748497 246.04 
L 755.983365 246.04 
L 755.983365 246.04 
" clip-path="url(#p0507119200)" style="fill: none; stroke: #0000ff; stroke-width: 1.5; stroke-linecap: square"/>
   </g>
   <g id="line2d_33">
    <path d="M 453.466922 112.448073 
L 455.483699 115.675312 
L 457.500475 117.0853 
L 458.508863 117.334638 
L 459.517251 117.415887 
L 460.525639 117.192911 
L 461.534027 116.740525 
L 462.542416 116.074025 
L 463.550804 115.161367 
L 465.56758 112.94157 
L 467.584356 110.208172 
L 469.601133 107.041553 
L 471.617909 102.042524 
L 473.634685 96.546312 
L 476.65985 88.230963 
L 480.693402 77.555556 
L 482.710178 72.912999 
L 486.743731 64.085806 
L 490.777284 53.492274 
L 492.79406 48.765045 
L 493.802448 46.733536 
L 495.819224 43.852973 
L 496.827612 42.582619 
L 498.844389 40.572619 
L 500.861165 38.92459 
L 502.877941 37.680753 
L 504.894718 36.690299 
L 506.911494 35.972467 
L 508.92827 35.433708 
L 511.953435 34.932676 
L 514.978599 34.720087 
L 518.003763 34.692178 
L 523.045704 34.919319 
L 530.104421 35.521041 
L 539.179914 36.300605 
L 547.24702 36.765715 
L 554.305737 36.905674 
L 563.38123 36.812485 
L 573.465111 36.502318 
L 586.574157 35.807399 
L 596.658039 35.338515 
L 602.708367 35.234662 
L 608.758696 35.361046 
L 612.792249 35.590205 
L 616.825801 36.028747 
L 624.892907 37.104411 
L 635.985176 39.225859 
L 638.001952 39.628596 
L 643.043893 40.408399 
L 648.085834 41.369104 
L 652.119386 42.929268 
L 656.152939 44.858039 
L 659.178103 46.457718 
L 660.186492 47.877753 
L 661.19488 50.478923 
L 663.211656 54.774407 
L 665.228432 60.07365 
L 667.245209 66.573956 
L 669.261985 74.538861 
L 671.278761 84.274098 
L 673.295538 95.230693 
L 675.312314 108.045345 
L 677.32909 123.313527 
L 679.345866 141.47122 
L 681.362643 163.027623 
L 683.379419 188.576223 
L 684.387807 203.059142 
L 685.396195 211.73201 
L 695.480077 217.70295 
L 696.488465 220.308239 
L 697.496853 210.796807 
L 698.505241 222.225577 
L 699.513629 225.377842 
L 703.547182 225.210325 
L 722.706557 224.28417 
L 723.714945 239.731037 
L 724.723333 193.592561 
L 725.731721 196.05119 
L 726.740109 240.507013 
L 727.748497 245.980359 
L 729.765274 246.039602 
L 755.983365 246.04 
L 755.983365 246.04 
" clip-path="url(#p0507119200)" style="fill: none; stroke: #000000; stroke-width: 1.5; stroke-linecap: square"/>
   </g>
   <g id="patch_8">
    <path d="M 453.466922 246.04 
L 453.466922 10.8 
" style="fill: none; stroke: #000000; stroke-width: 0.8; stroke-linejoin: miter; stroke-linecap: square"/>
   </g>
   <g id="patch_9">
    <path d="M 799.2 246.04 
L 799.2 10.8 
" style="fill: none; stroke: #000000; stroke-width: 0.8; stroke-linejoin: miter; stroke-linecap: square"/>
   </g>
   <g id="patch_10">
    <path d="M 453.466922 246.04 
L 799.2 246.04 
" style="fill: none; stroke: #000000; stroke-width: 0.8; stroke-linejoin: miter; stroke-linecap: square"/>
   </g>
   <g id="patch_11">
    <path d="M 453.466922 10.8 
L 799.2 10.8 
" style="fill: none; stroke: #000000; stroke-width: 0.8; stroke-linejoin: miter; stroke-linecap: square"/>
   </g>
   <g id="legend_1">
    <g id="line2d_34">
     <path d="M 688.190625 23.898438 
L 698.190625 23.898438 
L 708.190625 23.898438 
" style="fill: none; stroke: #0000ff; stroke-width: 1.5; stroke-linecap: square"/>
    </g>
    <g id="text_32">
     <!-- EQE GaInP -->
     <g transform="translate(716.190625 27.398438) scale(0.1 -0.1)">
      <defs>
       <path id="DejaVuSans-47" d="M 3809 666 
L 3809 1919 
L 2778 1919 
L 2778 2438 
L 4434 2438 
L 4434 434 
Q 4069 175 3628 42 
Q 3188 -91 2688 -91 
Q 1594 -91 976 548 
Q 359 1188 359 2328 
Q 359 3472 976 4111 
Q 1594 4750 2688 4750 
Q 3144 4750 3555 4637 
Q 3966 4525 4313 4306 
L 4313 3634 
Q 3963 3931 3569 4081 
Q 3175 4231 2741 4231 
Q 1884 4231 1454 3753 
Q 1025 3275 1025 2328 
Q 1025 1384 1454 906 
Q 1884 428 2741 428 
Q 3075 428 3337 486 
Q 3600 544 3809 666 
z
" transform="scale(0.015625)"/>
       <path id="DejaVuSans-49" d="M 628 4666 
L 1259 4666 
L 1259 0 
L 628 0 
L 628 4666 
z
" transform="scale(0.015625)"/>
      </defs>
      <use xlink:href="#DejaVuSans-45"/>
      <use xlink:href="#DejaVuSans-51" x="63.183594"/>
      <use xlink:href="#DejaVuSans-45" x="141.894531"/>
      <use xlink:href="#DejaVuSans-20" x="205.078125"/>
      <use xlink:href="#DejaVuSans-47" x="236.865234"/>
      <use xlink:href="#DejaVuSans-61" x="314.355469"/>
      <use xlink:href="#DejaVuSans-49" x="375.634766"/>
      <use xlink:href="#DejaVuSans-6e" x="405.126953"/>
      <use xlink:href="#DejaVuSans-50" x="468.505859"/>
     </g>
    </g>
    <g id="line2d_35">
     <path d="M 688.190625 38.576563 
L 698.190625 38.576563 
L 708.190625 38.576563 
" style="fill: none; stroke: #000000; stroke-width: 1.5; stroke-linecap: square"/>
    </g>
    <g id="text_33">
     <!-- Total Absorbed -->
     <g transform="translate(716.190625 42.076563) scale(0.1 -0.1)">
      <defs>
       <path id="DejaVuSans-54" d="M -19 4666 
L 3928 4666 
L 3928 4134 
L 2272 4134 
L 2272 0 
L 1638 0 
L 1638 4134 
L -19 4134 
L -19 4666 
z
" transform="scale(0.015625)"/>
       <path id="DejaVuSans-41" d="M 2188 4044 
L 1331 1722 
L 3047 1722 
L 2188 4044 
z
M 1831 4666 
L 2547 4666 
L 4325 0 
L 3669 0 
L 3244 1197 
L 1141 1197 
L 716 0 
L 50 0 
L 1831 4666 
z
" transform="scale(0.015625)"/>
       <path id="DejaVuSans-62" d="M 3116 1747 
Q 3116 2381 2855 2742 
Q 2594 3103 2138 3103 
Q 1681 3103 1420 2742 
Q 1159 2381 1159 1747 
Q 1159 1113 1420 752 
Q 1681 391 2138 391 
Q 2594 391 2855 752 
Q 3116 1113 3116 1747 
z
M 1159 2969 
Q 1341 3281 1617 3432 
Q 1894 3584 2278 3584 
Q 2916 3584 3314 3078 
Q 3713 2572 3713 1747 
Q 3713 922 3314 415 
Q 2916 -91 2278 -91 
Q 1894 -91 1617 61 
Q 1341 213 1159 525 
L 1159 0 
L 581 0 
L 581 4863 
L 1159 4863 
L 1159 2969 
z
" transform="scale(0.015625)"/>
      </defs>
      <use xlink:href="#DejaVuSans-54"/>
      <use xlink:href="#DejaVuSans-6f" x="44.083984"/>
      <use xlink:href="#DejaVuSans-74" x="105.265625"/>
      <use xlink:href="#DejaVuSans-61" x="144.474609"/>
      <use xlink:href="#DejaVuSans-6c" x="205.753906"/>
      <use xlink:href="#DejaVuSans-20" x="233.537109"/>
      <use xlink:href="#DejaVuSans-41" x="265.324219"/>
      <use xlink:href="#DejaVuSans-62" x="333.732422"/>
      <use xlink:href="#DejaVuSans-73" x="397.208984"/>
      <use xlink:href="#DejaVuSans-6f" x="449.308594"/>
      <use xlink:href="#DejaVuSans-72" x="510.490234"/>
      <use xlink:href="#DejaVuSans-62" x="551.603516"/>
      <use xlink:href="#DejaVuSans-65" x="615.080078"/>
      <use xlink:href="#DejaVuSans-64" x="676.603516"/>
     </g>
    </g>
   </g>
  </g>
 </g>
 <defs>
  <clipPath id="pa69f16f7a2">
   <rect x="60.013844" y="10.8" width="345.733078" height="235.24"/>
  </clipPath>
  <clipPath id="p0507119200">
   <rect x="453.466922" y="10.8" width="345.733078" height="235.24"/>
  </clipPath>
 </defs>
</svg>
