<?xml version="1.0" encoding="utf-8" standalone="no"?>
<!DOCTYPE svg PUBLIC "-//W3C//DTD SVG 1.1//EN"
  "http://www.w3.org/Graphics/SVG/1.1/DTD/svg11.dtd">
<svg xmlns:xlink="http://www.w3.org/1999/xlink" width="810pt" height="288pt" viewBox="0 0 810 288" xmlns="http://www.w3.org/2000/svg" version="1.1">
 <metadata>
  <rdf:RDF xmlns:dc="http://purl.org/dc/elements/1.1/" xmlns:cc="http://creativecommons.org/ns#" xmlns:rdf="http://www.w3.org/1999/02/22-rdf-syntax-ns#">
   <cc:Work>
    <dc:type rdf:resource="http://purl.org/dc/dcmitype/StillImage"/>
    <dc:date>2023-11-06T02:42:47.624634</dc:date>
    <dc:format>image/svg+xml</dc:format>
    <dc:creator>
     <cc:Agent>
      <dc:title>Matplotlib v3.8.0, https://matplotlib.org/</dc:title>
     </cc:Agent>
    </dc:creator>
   </cc:Work>
  </rdf:RDF>
 </metadata>
 <defs>
  <style type="text/css">*{stroke-linejoin: round; stroke-linecap: butt}</style>
 </defs>
 <g id="figure_1">
  <g id="patch_1">
   <path d="M 0 288 
L 810 288 
L 810 0 
L 0 0 
z
" style="fill: #ffffff"/>
  </g>
  <g id="axes_1">
   <g id="patch_2">
    <path d="M 60.058844 246.04 
L 405.769422 246.04 
L 405.769422 10.8 
L 60.058844 10.8 
z
" style="fill: #ffffff"/>
   </g>
   <g id="matplotlib.axis_1">
    <g id="xtick_1">
     <g id="line2d_1">
      <defs>
       <path id="m1619296254" d="M 0 0 
L 0 3.5 
" style="stroke: #000000; stroke-width: 0.8"/>
      </defs>
      <g>
       <use xlink:href="#m1619296254" x="117.864347" y="246.04" style="stroke: #000000; stroke-width: 0.8"/>
      </g>
     </g>
     <g id="text_1">
      <!-- 500 -->
      <g transform="translate(108.320597 260.638438) scale(0.1 -0.1)">
       <defs>
        <path id="DejaVuSans-35" d="M 691 4666 
L 3169 4666 
L 3169 4134 
L 1269 4134 
L 1269 2991 
Q 1406 3038 1543 3061 
Q 1681 3084 1819 3084 
Q 2600 3084 3056 2656 
Q 3513 2228 3513 1497 
Q 3513 744 3044 326 
Q 2575 -91 1722 -91 
Q 1428 -91 1123 -41 
Q 819 9 494 109 
L 494 744 
Q 775 591 1075 516 
Q 1375 441 1709 441 
Q 2250 441 2565 725 
Q 2881 1009 2881 1497 
Q 2881 1984 2565 2268 
Q 2250 2553 1709 2553 
Q 1456 2553 1204 2497 
Q 953 2441 691 2322 
L 691 4666 
z
" transform="scale(0.015625)"/>
        <path id="DejaVuSans-30" d="M 2034 4250 
Q 1547 4250 1301 3770 
Q 1056 3291 1056 2328 
Q 1056 1369 1301 889 
Q 1547 409 2034 409 
Q 2525 409 2770 889 
Q 3016 1369 3016 2328 
Q 3016 3291 2770 3770 
Q 2525 4250 2034 4250 
z
M 2034 4750 
Q 2819 4750 3233 4129 
Q 3647 3509 3647 2328 
Q 3647 1150 3233 529 
Q 2819 -91 2034 -91 
Q 1250 -91 836 529 
Q 422 1150 422 2328 
Q 422 3509 836 4129 
Q 1250 4750 2034 4750 
z
" transform="scale(0.015625)"/>
       </defs>
       <use xlink:href="#DejaVuSans-35"/>
       <use xlink:href="#DejaVuSans-30" x="63.623047"/>
       <use xlink:href="#DejaVuSans-30" x="127.246094"/>
      </g>
     </g>
    </g>
    <g id="xtick_2">
     <g id="line2d_2">
      <g>
       <use xlink:href="#m1619296254" x="181.639173" y="246.04" style="stroke: #000000; stroke-width: 0.8"/>
      </g>
     </g>
     <g id="text_2">
      <!-- 1000 -->
      <g transform="translate(168.914173 260.638438) scale(0.1 -0.1)">
       <defs>
        <path id="DejaVuSans-31" d="M 794 531 
L 1825 531 
L 1825 4091 
L 703 3866 
L 703 4441 
L 1819 4666 
L 2450 4666 
L 2450 531 
L 3481 531 
L 3481 0 
L 794 0 
L 794 531 
z
" transform="scale(0.015625)"/>
       </defs>
       <use xlink:href="#DejaVuSans-31"/>
       <use xlink:href="#DejaVuSans-30" x="63.623047"/>
       <use xlink:href="#DejaVuSans-30" x="127.246094"/>
       <use xlink:href="#DejaVuSans-30" x="190.869141"/>
      </g>
     </g>
    </g>
    <g id="xtick_3">
     <g id="line2d_3">
      <g>
       <use xlink:href="#m1619296254" x="245.413999" y="246.04" style="stroke: #000000; stroke-width: 0.8"/>
      </g>
     </g>
     <g id="text_3">
      <!-- 1500 -->
      <g transform="translate(232.688999 260.638438) scale(0.1 -0.1)">
       <use xlink:href="#DejaVuSans-31"/>
       <use xlink:href="#DejaVuSans-35" x="63.623047"/>
       <use xlink:href="#DejaVuSans-30" x="127.246094"/>
       <use xlink:href="#DejaVuSans-30" x="190.869141"/>
      </g>
     </g>
    </g>
    <g id="xtick_4">
     <g id="line2d_4">
      <g>
       <use xlink:href="#m1619296254" x="309.188825" y="246.04" style="stroke: #000000; stroke-width: 0.8"/>
      </g>
     </g>
     <g id="text_4">
      <!-- 2000 -->
      <g transform="translate(296.463825 260.638438) scale(0.1 -0.1)">
       <defs>
        <path id="DejaVuSans-32" d="M 1228 531 
L 3431 531 
L 3431 0 
L 469 0 
L 469 531 
Q 828 903 1448 1529 
Q 2069 2156 2228 2338 
Q 2531 2678 2651 2914 
Q 2772 3150 2772 3378 
Q 2772 3750 2511 3984 
Q 2250 4219 1831 4219 
Q 1534 4219 1204 4116 
Q 875 4013 500 3803 
L 500 4441 
Q 881 4594 1212 4672 
Q 1544 4750 1819 4750 
Q 2544 4750 2975 4387 
Q 3406 4025 3406 3419 
Q 3406 3131 3298 2873 
Q 3191 2616 2906 2266 
Q 2828 2175 2409 1742 
Q 1991 1309 1228 531 
z
" transform="scale(0.015625)"/>
       </defs>
       <use xlink:href="#DejaVuSans-32"/>
       <use xlink:href="#DejaVuSans-30" x="63.623047"/>
       <use xlink:href="#DejaVuSans-30" x="127.246094"/>
       <use xlink:href="#DejaVuSans-30" x="190.869141"/>
      </g>
     </g>
    </g>
    <g id="xtick_5">
     <g id="line2d_5">
      <g>
       <use xlink:href="#m1619296254" x="372.963652" y="246.04" style="stroke: #000000; stroke-width: 0.8"/>
      </g>
     </g>
     <g id="text_5">
      <!-- 2500 -->
      <g transform="translate(360.238652 260.638438) scale(0.1 -0.1)">
       <use xlink:href="#DejaVuSans-32"/>
       <use xlink:href="#DejaVuSans-35" x="63.623047"/>
       <use xlink:href="#DejaVuSans-30" x="127.246094"/>
       <use xlink:href="#DejaVuSans-30" x="190.869141"/>
      </g>
     </g>
    </g>
    <g id="text_6">
     <!-- Position (nm) -->
     <g transform="translate(199.920383 274.316562) scale(0.1 -0.1)">
      <defs>
       <path id="DejaVuSans-50" d="M 1259 4147 
L 1259 2394 
L 2053 2394 
Q 2494 2394 2734 2622 
Q 2975 2850 2975 3272 
Q 2975 3691 2734 3919 
Q 2494 4147 2053 4147 
L 1259 4147 
z
M 628 4666 
L 2053 4666 
Q 2838 4666 3239 4311 
Q 3641 3956 3641 3272 
Q 3641 2581 3239 2228 
Q 2838 1875 2053 1875 
L 1259 1875 
L 1259 0 
L 628 0 
L 628 4666 
z
" transform="scale(0.015625)"/>
       <path id="DejaVuSans-6f" d="M 1959 3097 
Q 1497 3097 1228 2736 
Q 959 2375 959 1747 
Q 959 1119 1226 758 
Q 1494 397 1959 397 
Q 2419 397 2687 759 
Q 2956 1122 2956 1747 
Q 2956 2369 2687 2733 
Q 2419 3097 1959 3097 
z
M 1959 3584 
Q 2709 3584 3137 3096 
Q 3566 2609 3566 1747 
Q 3566 888 3137 398 
Q 2709 -91 1959 -91 
Q 1206 -91 779 398 
Q 353 888 353 1747 
Q 353 2609 779 3096 
Q 1206 3584 1959 3584 
z
" transform="scale(0.015625)"/>
       <path id="DejaVuSans-73" d="M 2834 3397 
L 2834 2853 
Q 2591 2978 2328 3040 
Q 2066 3103 1784 3103 
Q 1356 3103 1142 2972 
Q 928 2841 928 2578 
Q 928 2378 1081 2264 
Q 1234 2150 1697 2047 
L 1894 2003 
Q 2506 1872 2764 1633 
Q 3022 1394 3022 966 
Q 3022 478 2636 193 
Q 2250 -91 1575 -91 
Q 1294 -91 989 -36 
Q 684 19 347 128 
L 347 722 
Q 666 556 975 473 
Q 1284 391 1588 391 
Q 1994 391 2212 530 
Q 2431 669 2431 922 
Q 2431 1156 2273 1281 
Q 2116 1406 1581 1522 
L 1381 1569 
Q 847 1681 609 1914 
Q 372 2147 372 2553 
Q 372 3047 722 3315 
Q 1072 3584 1716 3584 
Q 2034 3584 2315 3537 
Q 2597 3491 2834 3397 
z
" transform="scale(0.015625)"/>
       <path id="DejaVuSans-69" d="M 603 3500 
L 1178 3500 
L 1178 0 
L 603 0 
L 603 3500 
z
M 603 4863 
L 1178 4863 
L 1178 4134 
L 603 4134 
L 603 4863 
z
" transform="scale(0.015625)"/>
       <path id="DejaVuSans-74" d="M 1172 4494 
L 1172 3500 
L 2356 3500 
L 2356 3053 
L 1172 3053 
L 1172 1153 
Q 1172 725 1289 603 
Q 1406 481 1766 481 
L 2356 481 
L 2356 0 
L 1766 0 
Q 1100 0 847 248 
Q 594 497 594 1153 
L 594 3053 
L 172 3053 
L 172 3500 
L 594 3500 
L 594 4494 
L 1172 4494 
z
" transform="scale(0.015625)"/>
       <path id="DejaVuSans-6e" d="M 3513 2113 
L 3513 0 
L 2938 0 
L 2938 2094 
Q 2938 2591 2744 2837 
Q 2550 3084 2163 3084 
Q 1697 3084 1428 2787 
Q 1159 2491 1159 1978 
L 1159 0 
L 581 0 
L 581 3500 
L 1159 3500 
L 1159 2956 
Q 1366 3272 1645 3428 
Q 1925 3584 2291 3584 
Q 2894 3584 3203 3211 
Q 3513 2838 3513 2113 
z
" transform="scale(0.015625)"/>
       <path id="DejaVuSans-20" transform="scale(0.015625)"/>
       <path id="DejaVuSans-28" d="M 1984 4856 
Q 1566 4138 1362 3434 
Q 1159 2731 1159 2009 
Q 1159 1288 1364 580 
Q 1569 -128 1984 -844 
L 1484 -844 
Q 1016 -109 783 600 
Q 550 1309 550 2009 
Q 550 2706 781 3412 
Q 1013 4119 1484 4856 
L 1984 4856 
z
" transform="scale(0.015625)"/>
       <path id="DejaVuSans-6d" d="M 3328 2828 
Q 3544 3216 3844 3400 
Q 4144 3584 4550 3584 
Q 5097 3584 5394 3201 
Q 5691 2819 5691 2113 
L 5691 0 
L 5113 0 
L 5113 2094 
Q 5113 2597 4934 2840 
Q 4756 3084 4391 3084 
Q 3944 3084 3684 2787 
Q 3425 2491 3425 1978 
L 3425 0 
L 2847 0 
L 2847 2094 
Q 2847 2600 2669 2842 
Q 2491 3084 2119 3084 
Q 1678 3084 1418 2786 
Q 1159 2488 1159 1978 
L 1159 0 
L 581 0 
L 581 3500 
L 1159 3500 
L 1159 2956 
Q 1356 3278 1631 3431 
Q 1906 3584 2284 3584 
Q 2666 3584 2933 3390 
Q 3200 3197 3328 2828 
z
" transform="scale(0.015625)"/>
       <path id="DejaVuSans-29" d="M 513 4856 
L 1013 4856 
Q 1481 4119 1714 3412 
Q 1947 2706 1947 2009 
Q 1947 1309 1714 600 
Q 1481 -109 1013 -844 
L 513 -844 
Q 928 -128 1133 580 
Q 1338 1288 1338 2009 
Q 1338 2731 1133 3434 
Q 928 4138 513 4856 
z
" transform="scale(0.015625)"/>
      </defs>
      <use xlink:href="#DejaVuSans-50"/>
      <use xlink:href="#DejaVuSans-6f" x="56.677734"/>
      <use xlink:href="#DejaVuSans-73" x="117.859375"/>
      <use xlink:href="#DejaVuSans-69" x="169.958984"/>
      <use xlink:href="#DejaVuSans-74" x="197.742188"/>
      <use xlink:href="#DejaVuSans-69" x="236.951172"/>
      <use xlink:href="#DejaVuSans-6f" x="264.734375"/>
      <use xlink:href="#DejaVuSans-6e" x="325.916016"/>
      <use xlink:href="#DejaVuSans-20" x="389.294922"/>
      <use xlink:href="#DejaVuSans-28" x="421.082031"/>
      <use xlink:href="#DejaVuSans-6e" x="460.095703"/>
      <use xlink:href="#DejaVuSans-6d" x="523.474609"/>
      <use xlink:href="#DejaVuSans-29" x="620.886719"/>
     </g>
    </g>
   </g>
   <g id="matplotlib.axis_2">
    <g id="ytick_1">
     <g id="line2d_6">
      <defs>
       <path id="m261545bf2c" d="M 0 0 
L -3.5 0 
" style="stroke: #000000; stroke-width: 0.8"/>
      </defs>
      <g>
       <use xlink:href="#m261545bf2c" x="60.058844" y="220.916974" style="stroke: #000000; stroke-width: 0.8"/>
      </g>
     </g>
     <g id="text_7">
      <!-- $\mathdefault{10^{2}}$ -->
      <g transform="translate(35.458844 224.716193) scale(0.1 -0.1)">
       <use xlink:href="#DejaVuSans-31" transform="translate(0 0.765625)"/>
       <use xlink:href="#DejaVuSans-30" transform="translate(63.623047 0.765625)"/>
       <use xlink:href="#DejaVuSans-32" transform="translate(128.203125 39.046875) scale(0.7)"/>
      </g>
     </g>
    </g>
    <g id="ytick_2">
     <g id="line2d_7">
      <g>
       <use xlink:href="#m261545bf2c" x="60.058844" y="193.722765" style="stroke: #000000; stroke-width: 0.8"/>
      </g>
     </g>
     <g id="text_8">
      <!-- $\mathdefault{10^{5}}$ -->
      <g transform="translate(35.458844 197.521984) scale(0.1 -0.1)">
       <use xlink:href="#DejaVuSans-31" transform="translate(0 0.684375)"/>
       <use xlink:href="#DejaVuSans-30" transform="translate(63.623047 0.684375)"/>
       <use xlink:href="#DejaVuSans-35" transform="translate(128.203125 38.965625) scale(0.7)"/>
      </g>
     </g>
    </g>
    <g id="ytick_3">
     <g id="line2d_8">
      <g>
       <use xlink:href="#m261545bf2c" x="60.058844" y="166.528556" style="stroke: #000000; stroke-width: 0.8"/>
      </g>
     </g>
     <g id="text_9">
      <!-- $\mathdefault{10^{8}}$ -->
      <g transform="translate(35.458844 170.327775) scale(0.1 -0.1)">
       <defs>
        <path id="DejaVuSans-38" d="M 2034 2216 
Q 1584 2216 1326 1975 
Q 1069 1734 1069 1313 
Q 1069 891 1326 650 
Q 1584 409 2034 409 
Q 2484 409 2743 651 
Q 3003 894 3003 1313 
Q 3003 1734 2745 1975 
Q 2488 2216 2034 2216 
z
M 1403 2484 
Q 997 2584 770 2862 
Q 544 3141 544 3541 
Q 544 4100 942 4425 
Q 1341 4750 2034 4750 
Q 2731 4750 3128 4425 
Q 3525 4100 3525 3541 
Q 3525 3141 3298 2862 
Q 3072 2584 2669 2484 
Q 3125 2378 3379 2068 
Q 3634 1759 3634 1313 
Q 3634 634 3220 271 
Q 2806 -91 2034 -91 
Q 1263 -91 848 271 
Q 434 634 434 1313 
Q 434 1759 690 2068 
Q 947 2378 1403 2484 
z
M 1172 3481 
Q 1172 3119 1398 2916 
Q 1625 2713 2034 2713 
Q 2441 2713 2670 2916 
Q 2900 3119 2900 3481 
Q 2900 3844 2670 4047 
Q 2441 4250 2034 4250 
Q 1625 4250 1398 4047 
Q 1172 3844 1172 3481 
z
" transform="scale(0.015625)"/>
       </defs>
       <use xlink:href="#DejaVuSans-31" transform="translate(0 0.765625)"/>
       <use xlink:href="#DejaVuSans-30" transform="translate(63.623047 0.765625)"/>
       <use xlink:href="#DejaVuSans-38" transform="translate(128.203125 39.046875) scale(0.7)"/>
      </g>
     </g>
    </g>
    <g id="ytick_4">
     <g id="line2d_9">
      <g>
       <use xlink:href="#m261545bf2c" x="60.058844" y="139.334347" style="stroke: #000000; stroke-width: 0.8"/>
      </g>
     </g>
     <g id="text_10">
      <!-- $\mathdefault{10^{11}}$ -->
      <g transform="translate(30.958844 143.133566) scale(0.1 -0.1)">
       <use xlink:href="#DejaVuSans-31" transform="translate(0 0.684375)"/>
       <use xlink:href="#DejaVuSans-30" transform="translate(63.623047 0.684375)"/>
       <use xlink:href="#DejaVuSans-31" transform="translate(128.203125 38.965625) scale(0.7)"/>
       <use xlink:href="#DejaVuSans-31" transform="translate(172.739258 38.965625) scale(0.7)"/>
      </g>
     </g>
    </g>
    <g id="ytick_5">
     <g id="line2d_10">
      <g>
       <use xlink:href="#m261545bf2c" x="60.058844" y="112.140138" style="stroke: #000000; stroke-width: 0.8"/>
      </g>
     </g>
     <g id="text_11">
      <!-- $\mathdefault{10^{14}}$ -->
      <g transform="translate(30.958844 115.939357) scale(0.1 -0.1)">
       <defs>
        <path id="DejaVuSans-34" d="M 2419 4116 
L 825 1625 
L 2419 1625 
L 2419 4116 
z
M 2253 4666 
L 3047 4666 
L 3047 1625 
L 3713 1625 
L 3713 1100 
L 3047 1100 
L 3047 0 
L 2419 0 
L 2419 1100 
L 313 1100 
L 313 1709 
L 2253 4666 
z
" transform="scale(0.015625)"/>
       </defs>
       <use xlink:href="#DejaVuSans-31" transform="translate(0 0.684375)"/>
       <use xlink:href="#DejaVuSans-30" transform="translate(63.623047 0.684375)"/>
       <use xlink:href="#DejaVuSans-31" transform="translate(128.203125 38.965625) scale(0.7)"/>
       <use xlink:href="#DejaVuSans-34" transform="translate(172.739258 38.965625) scale(0.7)"/>
      </g>
     </g>
    </g>
    <g id="ytick_6">
     <g id="line2d_11">
      <g>
       <use xlink:href="#m261545bf2c" x="60.058844" y="84.945929" style="stroke: #000000; stroke-width: 0.8"/>
      </g>
     </g>
     <g id="text_12">
      <!-- $\mathdefault{10^{17}}$ -->
      <g transform="translate(30.958844 88.745147) scale(0.1 -0.1)">
       <defs>
        <path id="DejaVuSans-37" d="M 525 4666 
L 3525 4666 
L 3525 4397 
L 1831 0 
L 1172 0 
L 2766 4134 
L 525 4134 
L 525 4666 
z
" transform="scale(0.015625)"/>
       </defs>
       <use xlink:href="#DejaVuSans-31" transform="translate(0 0.684375)"/>
       <use xlink:href="#DejaVuSans-30" transform="translate(63.623047 0.684375)"/>
       <use xlink:href="#DejaVuSans-31" transform="translate(128.203125 38.965625) scale(0.7)"/>
       <use xlink:href="#DejaVuSans-37" transform="translate(172.739258 38.965625) scale(0.7)"/>
      </g>
     </g>
    </g>
    <g id="ytick_7">
     <g id="line2d_12">
      <g>
       <use xlink:href="#m261545bf2c" x="60.058844" y="57.751719" style="stroke: #000000; stroke-width: 0.8"/>
      </g>
     </g>
     <g id="text_13">
      <!-- $\mathdefault{10^{20}}$ -->
      <g transform="translate(30.958844 61.550938) scale(0.1 -0.1)">
       <use xlink:href="#DejaVuSans-31" transform="translate(0 0.765625)"/>
       <use xlink:href="#DejaVuSans-30" transform="translate(63.623047 0.765625)"/>
       <use xlink:href="#DejaVuSans-32" transform="translate(128.203125 39.046875) scale(0.7)"/>
       <use xlink:href="#DejaVuSans-30" transform="translate(172.739258 39.046875) scale(0.7)"/>
      </g>
     </g>
    </g>
    <g id="ytick_8">
     <g id="line2d_13">
      <g>
       <use xlink:href="#m261545bf2c" x="60.058844" y="30.55751" style="stroke: #000000; stroke-width: 0.8"/>
      </g>
     </g>
     <g id="text_14">
      <!-- $\mathdefault{10^{23}}$ -->
      <g transform="translate(30.958844 34.356729) scale(0.1 -0.1)">
       <defs>
        <path id="DejaVuSans-33" d="M 2597 2516 
Q 3050 2419 3304 2112 
Q 3559 1806 3559 1356 
Q 3559 666 3084 287 
Q 2609 -91 1734 -91 
Q 1441 -91 1130 -33 
Q 819 25 488 141 
L 488 750 
Q 750 597 1062 519 
Q 1375 441 1716 441 
Q 2309 441 2620 675 
Q 2931 909 2931 1356 
Q 2931 1769 2642 2001 
Q 2353 2234 1838 2234 
L 1294 2234 
L 1294 2753 
L 1863 2753 
Q 2328 2753 2575 2939 
Q 2822 3125 2822 3475 
Q 2822 3834 2567 4026 
Q 2313 4219 1838 4219 
Q 1578 4219 1281 4162 
Q 984 4106 628 3988 
L 628 4550 
Q 988 4650 1302 4700 
Q 1616 4750 1894 4750 
Q 2613 4750 3031 4423 
Q 3450 4097 3450 3541 
Q 3450 3153 3228 2886 
Q 3006 2619 2597 2516 
z
" transform="scale(0.015625)"/>
       </defs>
       <use xlink:href="#DejaVuSans-31" transform="translate(0 0.765625)"/>
       <use xlink:href="#DejaVuSans-30" transform="translate(63.623047 0.765625)"/>
       <use xlink:href="#DejaVuSans-32" transform="translate(128.203125 39.046875) scale(0.7)"/>
       <use xlink:href="#DejaVuSans-33" transform="translate(172.739258 39.046875) scale(0.7)"/>
      </g>
     </g>
    </g>
    <g id="text_15">
     <!-- Carrier density (m$^{-3}$) -->
     <g transform="translate(24.858844 181.27) rotate(-90) scale(0.1 -0.1)">
      <defs>
       <path id="DejaVuSans-43" d="M 4122 4306 
L 4122 3641 
Q 3803 3938 3442 4084 
Q 3081 4231 2675 4231 
Q 1875 4231 1450 3742 
Q 1025 3253 1025 2328 
Q 1025 1406 1450 917 
Q 1875 428 2675 428 
Q 3081 428 3442 575 
Q 3803 722 4122 1019 
L 4122 359 
Q 3791 134 3420 21 
Q 3050 -91 2638 -91 
Q 1578 -91 968 557 
Q 359 1206 359 2328 
Q 359 3453 968 4101 
Q 1578 4750 2638 4750 
Q 3056 4750 3426 4639 
Q 3797 4528 4122 4306 
z
" transform="scale(0.015625)"/>
       <path id="DejaVuSans-61" d="M 2194 1759 
Q 1497 1759 1228 1600 
Q 959 1441 959 1056 
Q 959 750 1161 570 
Q 1363 391 1709 391 
Q 2188 391 2477 730 
Q 2766 1069 2766 1631 
L 2766 1759 
L 2194 1759 
z
M 3341 1997 
L 3341 0 
L 2766 0 
L 2766 531 
Q 2569 213 2275 61 
Q 1981 -91 1556 -91 
Q 1019 -91 701 211 
Q 384 513 384 1019 
Q 384 1609 779 1909 
Q 1175 2209 1959 2209 
L 2766 2209 
L 2766 2266 
Q 2766 2663 2505 2880 
Q 2244 3097 1772 3097 
Q 1472 3097 1187 3025 
Q 903 2953 641 2809 
L 641 3341 
Q 956 3463 1253 3523 
Q 1550 3584 1831 3584 
Q 2591 3584 2966 3190 
Q 3341 2797 3341 1997 
z
" transform="scale(0.015625)"/>
       <path id="DejaVuSans-72" d="M 2631 2963 
Q 2534 3019 2420 3045 
Q 2306 3072 2169 3072 
Q 1681 3072 1420 2755 
Q 1159 2438 1159 1844 
L 1159 0 
L 581 0 
L 581 3500 
L 1159 3500 
L 1159 2956 
Q 1341 3275 1631 3429 
Q 1922 3584 2338 3584 
Q 2397 3584 2469 3576 
Q 2541 3569 2628 3553 
L 2631 2963 
z
" transform="scale(0.015625)"/>
       <path id="DejaVuSans-65" d="M 3597 1894 
L 3597 1613 
L 953 1613 
Q 991 1019 1311 708 
Q 1631 397 2203 397 
Q 2534 397 2845 478 
Q 3156 559 3463 722 
L 3463 178 
Q 3153 47 2828 -22 
Q 2503 -91 2169 -91 
Q 1331 -91 842 396 
Q 353 884 353 1716 
Q 353 2575 817 3079 
Q 1281 3584 2069 3584 
Q 2775 3584 3186 3129 
Q 3597 2675 3597 1894 
z
M 3022 2063 
Q 3016 2534 2758 2815 
Q 2500 3097 2075 3097 
Q 1594 3097 1305 2825 
Q 1016 2553 972 2059 
L 3022 2063 
z
" transform="scale(0.015625)"/>
       <path id="DejaVuSans-64" d="M 2906 2969 
L 2906 4863 
L 3481 4863 
L 3481 0 
L 2906 0 
L 2906 525 
Q 2725 213 2448 61 
Q 2172 -91 1784 -91 
Q 1150 -91 751 415 
Q 353 922 353 1747 
Q 353 2572 751 3078 
Q 1150 3584 1784 3584 
Q 2172 3584 2448 3432 
Q 2725 3281 2906 2969 
z
M 947 1747 
Q 947 1113 1208 752 
Q 1469 391 1925 391 
Q 2381 391 2643 752 
Q 2906 1113 2906 1747 
Q 2906 2381 2643 2742 
Q 2381 3103 1925 3103 
Q 1469 3103 1208 2742 
Q 947 2381 947 1747 
z
" transform="scale(0.015625)"/>
       <path id="DejaVuSans-79" d="M 2059 -325 
Q 1816 -950 1584 -1140 
Q 1353 -1331 966 -1331 
L 506 -1331 
L 506 -850 
L 844 -850 
Q 1081 -850 1212 -737 
Q 1344 -625 1503 -206 
L 1606 56 
L 191 3500 
L 800 3500 
L 1894 763 
L 2988 3500 
L 3597 3500 
L 2059 -325 
z
" transform="scale(0.015625)"/>
       <path id="DejaVuSans-2212" d="M 678 2272 
L 4684 2272 
L 4684 1741 
L 678 1741 
L 678 2272 
z
" transform="scale(0.015625)"/>
      </defs>
      <use xlink:href="#DejaVuSans-43" transform="translate(0 0.765625)"/>
      <use xlink:href="#DejaVuSans-61" transform="translate(69.824219 0.765625)"/>
      <use xlink:href="#DejaVuSans-72" transform="translate(131.103516 0.765625)"/>
      <use xlink:href="#DejaVuSans-72" transform="translate(172.216797 0.765625)"/>
      <use xlink:href="#DejaVuSans-69" transform="translate(213.330078 0.765625)"/>
      <use xlink:href="#DejaVuSans-65" transform="translate(241.113281 0.765625)"/>
      <use xlink:href="#DejaVuSans-72" transform="translate(302.636719 0.765625)"/>
      <use xlink:href="#DejaVuSans-20" transform="translate(343.75 0.765625)"/>
      <use xlink:href="#DejaVuSans-64" transform="translate(375.537109 0.765625)"/>
      <use xlink:href="#DejaVuSans-65" transform="translate(439.013672 0.765625)"/>
      <use xlink:href="#DejaVuSans-6e" transform="translate(500.537109 0.765625)"/>
      <use xlink:href="#DejaVuSans-73" transform="translate(563.916016 0.765625)"/>
      <use xlink:href="#DejaVuSans-69" transform="translate(616.015625 0.765625)"/>
      <use xlink:href="#DejaVuSans-74" transform="translate(643.798828 0.765625)"/>
      <use xlink:href="#DejaVuSans-79" transform="translate(683.007812 0.765625)"/>
      <use xlink:href="#DejaVuSans-20" transform="translate(742.1875 0.765625)"/>
      <use xlink:href="#DejaVuSans-28" transform="translate(773.974609 0.765625)"/>
      <use xlink:href="#DejaVuSans-6d" transform="translate(812.988281 0.765625)"/>
      <use xlink:href="#DejaVuSans-2212" transform="translate(911.357422 39.046875) scale(0.7)"/>
      <use xlink:href="#DejaVuSans-33" transform="translate(970.009766 39.046875) scale(0.7)"/>
      <use xlink:href="#DejaVuSans-29" transform="translate(1017.280273 0.765625)"/>
     </g>
    </g>
   </g>
   <g id="line2d_14">
    <path d="M 75.772962 21.492767 
L 92.759194 21.564146 
L 93.284486 21.690796 
L 93.704785 21.943621 
L 94.031814 22.345816 
L 94.467618 23.448392 
L 94.808127 25.103816 
L 94.892654 25.668243 
L 95.002347 31.355361 
L 96.42325 40.845774 
L 96.436005 34.254728 
L 96.532943 34.867967 
L 96.67835 35.77887 
L 96.691105 27.660116 
L 96.790283 28.245607 
L 97.571197 32.145246 
L 97.68089 40.840162 
L 97.826297 41.498803 
L 97.919156 48.597879 
L 100.37729 59.857181 
L 100.390045 53.242216 
L 100.486982 53.678828 
L 100.632389 54.333601 
L 100.645144 46.193127 
L 100.744323 46.628684 
L 101.525236 50.052235 
L 101.634929 58.740484 
L 101.780336 59.391996 
L 101.873195 66.48084 
L 103.883723 74.98927 
L 104.331329 76.599067 
L 104.344084 69.976297 
L 104.441021 70.39177 
L 104.586428 71.010791 
L 104.599183 62.868849 
L 104.698362 63.299802 
L 105.479276 66.676168 
L 105.588968 75.293717 
L 105.734375 75.832717 
L 105.74713 82.535972 
L 105.827234 82.492938 
L 106.502278 82.281622 
L 107.593821 82.216056 
L 108.285368 82.239159 
L 108.298123 75.594452 
L 108.395061 75.95398 
L 108.540467 76.479789 
L 108.553222 68.334344 
L 108.652401 68.756186 
L 109.433315 72.014694 
L 109.543008 80.452772 
L 109.688414 80.728147 
L 109.701169 87.372082 
L 109.781274 86.573507 
L 110.091288 84.809004 
L 110.456317 83.82659 
L 110.93 83.202437 
L 111.426202 82.890827 
L 112.17106 82.705168 
L 112.239407 82.697241 
L 112.252162 76.051535 
L 112.3491 76.408853 
L 112.494507 76.930956 
L 112.507261 68.785408 
L 112.60644 69.207301 
L 113.387354 72.464094 
L 113.497047 80.894329 
L 113.642453 81.158712 
L 113.655208 87.800166 
L 113.735313 86.972697 
L 114.045327 85.162181 
L 114.410357 84.161758 
L 114.88404 83.527914 
L 115.380242 83.211419 
L 116.125099 83.021832 
L 116.193446 83.013642 
L 116.206201 76.367945 
L 116.303139 76.725639 
L 116.448546 77.248252 
L 116.461301 69.102763 
L 116.560479 69.525164 
L 117.341393 72.785765 
L 117.451086 81.215626 
L 117.596493 81.479359 
L 117.609248 88.120549 
L 117.689352 87.289582 
L 117.999366 85.473699 
L 118.364396 84.471273 
L 118.838079 83.836277 
L 119.334281 83.518958 
L 120.079139 83.328152 
L 120.147486 83.319842 
L 120.160241 76.674172 
L 120.257178 77.032305 
L 120.402585 77.555527 
L 120.41534 69.410103 
L 120.514519 69.833054 
L 121.295433 73.097785 
L 121.405125 81.527371 
L 121.550532 81.790589 
L 121.563287 88.431538 
L 121.643391 87.597299 
L 121.953405 85.776421 
L 122.318435 84.772135 
L 122.792118 84.13604 
L 123.28832 83.81789 
L 124.033178 83.625813 
L 124.101525 83.617382 
L 124.11428 76.971738 
L 124.211218 77.330338 
L 124.356624 77.854204 
L 124.369379 69.708848 
L 124.468558 70.132381 
L 125.249472 73.401481 
L 125.359164 81.830812 
L 125.504571 82.093539 
L 125.517326 88.734246 
L 125.597431 87.89671 
L 125.907445 86.070887 
L 126.272474 85.06488 
L 126.746157 84.427923 
L 127.242359 84.109255 
L 127.987217 83.916494 
L 128.055564 83.907999 
L 128.068319 77.26239 
L 128.165257 77.621497 
L 128.310663 78.146075 
L 128.323418 70.000793 
L 128.422597 70.424951 
L 129.203511 73.699654 
L 129.313204 82.129069 
L 129.45861 82.39173 
L 129.471365 89.032227 
L 129.55147 88.191538 
L 129.861484 86.361332 
L 130.226513 85.354211 
L 130.66576 84.749194 
L 131.196398 84.398461 
L 131.941256 84.205651 
L 132.009603 84.197138 
L 132.022358 77.551591 
L 132.119296 77.911505 
L 132.264703 78.437273 
L 132.277458 70.292113 
L 132.376636 70.718258 
L 133.15755 74.093796 
L 133.267243 82.545379 
L 133.41265 82.833732 
L 133.425404 89.474039 
L 133.505509 88.60951 
L 133.815523 86.762634 
L 134.180553 85.771455 
L 134.619799 85.191819 
L 134.943245 84.963987 
L 134.956 80.087859 
L 135.731546 82.042739 
L 136.907734 82.888898 
L 138.777054 81.944825 
L 141.61885 79.585033 
L 145.658306 77.10382 
L 151.039728 75.170066 
L 157.821314 73.748325 
L 165.98521 72.695828 
L 175.453533 71.915397 
L 186.10468 71.346405 
L 197.787898 70.948455 
L 210.335359 70.69316 
L 223.570716 70.560126 
L 251.378348 70.60683 
L 279.728679 71.019372 
L 307.20144 71.779204 
L 320.194877 72.296317 
L 332.434617 72.912164 
L 343.680472 73.630292 
L 353.690197 74.449027 
L 362.279325 75.359292 
L 369.370444 76.343712 
L 375.007372 77.376817 
L 379.33375 78.426076 
L 382.552334 79.453857 
L 384.883458 80.420733 
L 386.534209 81.290399 
L 388.466641 82.642947 
L 389.859123 84.028471 
L 390.055305 84.270175 
L 390.055305 84.270175 
" clip-path="url(#pa7aacab5b6)" style="fill: none; stroke: #0000ff; stroke-width: 1.5; stroke-linecap: square"/>
   </g>
   <g id="line2d_15">
    <path d="M 75.772962 78.262607 
L 76.170555 73.498005 
L 76.623876 71.34538 
L 77.156472 69.902982 
L 77.780133 68.826233 
L 78.497183 67.995368 
L 79.303306 67.353324 
L 80.189922 66.866694 
L 81.145868 66.51354 
L 82.158432 66.278787 
L 84.297635 66.126802 
L 86.488745 66.36705 
L 88.609053 66.9962 
L 89.604049 67.464514 
L 90.532907 68.040828 
L 91.377717 68.725052 
L 92.123015 69.505755 
L 93.284486 71.178716 
L 94.031814 72.397278 
L 94.467618 72.681918 
L 94.717507 72.366522 
L 94.892654 71.783565 
L 94.905409 75.225914 
L 95.002347 75.205067 
L 95.383039 75.268278 
L 95.670527 75.516283 
L 95.975645 76.114315 
L 96.238535 77.223886 
L 96.42325 78.863811 
L 96.532943 72.821016 
L 96.67835 72.453211 
L 96.790283 56.268964 
L 97.571197 52.407741 
L 97.583952 67.895013 
L 97.68089 67.565346 
L 97.826297 67.056867 
L 97.919156 72.890798 
L 98.654188 73.005315 
L 99.194653 73.31195 
L 99.564085 73.757372 
L 99.929684 74.603965 
L 100.234418 76.0364 
L 100.37729 77.275564 
L 100.486982 71.339581 
L 100.632389 71.145443 
L 100.744323 55.130275 
L 101.525236 51.7431 
L 101.537991 67.231104 
L 101.634929 66.906882 
L 101.780336 66.404537 
L 101.873195 72.24331 
L 102.666626 72.416835 
L 103.192868 72.765754 
L 103.578606 73.292666 
L 103.883723 74.052115 
L 104.188457 75.510993 
L 104.331329 76.775447 
L 104.441021 70.847596 
L 104.586428 70.663199 
L 104.698362 54.649598 
L 105.479276 51.264504 
L 105.492031 66.752493 
L 105.588968 66.428814 
L 105.734375 65.927018 
L 105.827234 71.768226 
L 106.620666 71.962713 
L 107.146907 72.324907 
L 107.532645 72.862179 
L 107.837763 73.631965 
L 108.142496 75.109062 
L 108.285368 76.392506 
L 108.395061 70.469647 
L 108.540467 70.290918 
L 108.652401 54.277066 
L 109.433315 50.888663 
L 109.44607 66.376613 
L 109.543008 66.053137 
L 109.688414 65.551462 
L 109.781274 71.394309 
L 110.574705 71.603066 
L 111.100947 71.974356 
L 111.486684 72.518818 
L 111.791802 73.29595 
L 112.096535 74.786458 
L 112.239407 76.084278 
L 112.3491 70.165095 
L 112.494507 69.990509 
L 112.60644 53.976281 
L 113.387354 50.584085 
L 113.400109 66.071986 
L 113.497047 65.748518 
L 113.642453 65.246714 
L 113.735313 71.090701 
L 114.528744 71.309498 
L 115.054986 71.687228 
L 115.440723 72.23688 
L 115.745841 73.019493 
L 116.050575 74.520458 
L 116.193446 75.82984 
L 116.303139 69.913527 
L 116.448546 69.742155 
L 116.560479 53.72747 
L 117.341393 50.331124 
L 117.354148 65.818967 
L 117.451086 65.495381 
L 117.596493 64.993279 
L 117.689352 70.838097 
L 118.482783 71.064344 
L 119.009025 71.446915 
L 119.394763 72.000563 
L 119.69988 72.787548 
L 120.004614 74.297219 
L 120.147486 75.616498 
L 120.257178 69.702571 
L 120.402585 69.533848 
L 120.514519 53.518645 
L 121.295433 50.117845 
L 121.308188 65.605624 
L 121.405125 65.281831 
L 121.550532 64.779312 
L 121.643391 70.624754 
L 122.436822 70.8565 
L 122.963064 71.242259 
L 123.348802 71.798102 
L 123.653919 72.587024 
L 123.958653 74.099882 
L 124.101525 75.42252 
L 124.211218 69.509003 
L 124.356624 69.340508 
L 124.468558 53.324654 
L 125.249472 49.918954 
L 125.262227 65.406645 
L 125.359164 65.082061 
L 125.504571 64.578313 
L 125.597431 70.422194 
L 126.44699 70.64873 
L 126.964613 71.000204 
L 127.364017 71.530766 
L 127.722487 72.430207 
L 128.021654 73.927921 
L 128.055564 74.186688 
L 128.165257 68.162898 
L 128.310663 67.861737 
L 128.422597 51.839829 
L 129.203511 48.416954 
L 129.216266 63.903328 
L 129.313204 63.544605 
L 129.45861 62.993403 
L 129.471365 68.817981 
L 129.55147 68.708132 
L 130.104071 67.742677 
L 130.746862 66.122064 
L 131.561998 63.361912 
L 132.009603 61.600779 
L 132.119296 55.254522 
L 132.264703 54.608005 
L 132.376636 38.570908 
L 133.15755 35.017939 
L 133.170305 50.497908 
L 133.267243 50.033525 
L 133.41265 49.33619 
L 133.425404 55.136539 
L 133.505509 54.751928 
L 134.943245 47.761958 
L 134.956 44.222913 
L 135.731546 40.844095 
L 136.907734 37.010811 
L 138.777054 33.595114 
L 141.61885 31.913835 
L 145.658306 31.498416 
L 157.821314 31.436172 
L 390.055305 31.43591 
L 390.055305 31.43591 
" clip-path="url(#pa7aacab5b6)" style="fill: none; stroke: #ff0000; stroke-width: 1.5; stroke-linecap: square"/>
   </g>
   <g id="line2d_16">
    <path d="M 75.772962 21.492774 
L 92.759194 21.564306 
L 93.284486 21.691207 
L 93.704785 21.944529 
L 94.031814 22.347496 
L 94.467618 23.452064 
L 94.808127 25.110176 
L 94.892654 25.675447 
L 95.002347 31.363748 
L 96.42325 40.87177 
L 96.436005 34.280892 
L 96.532943 34.895418 
L 96.67835 35.808316 
L 96.691105 27.689738 
L 96.790283 28.276694 
L 97.571197 32.193008 
L 97.68089 40.89079 
L 97.826297 41.553265 
L 97.919156 48.654913 
L 100.37729 59.99538 
L 100.390045 53.380877 
L 100.486982 53.820373 
L 100.632389 54.479545 
L 100.645144 46.339426 
L 100.744323 46.777595 
L 101.525236 50.220947 
L 101.634929 58.912892 
L 101.780336 59.56966 
L 101.873195 66.668408 
L 104.331329 77.956121 
L 104.344084 71.341392 
L 104.441021 71.779214 
L 104.586428 72.435948 
L 104.599183 64.295621 
L 104.698362 64.732345 
L 105.479276 68.170948 
L 105.588968 76.862833 
L 105.734375 77.519541 
L 105.827234 84.618259 
L 108.285368 95.90542 
L 108.298123 89.290689 
L 108.395061 89.728494 
L 108.540467 90.385202 
L 108.553222 82.244874 
L 108.652401 82.681582 
L 109.433315 86.120135 
L 109.543008 94.812019 
L 109.688414 95.468727 
L 109.781274 102.567444 
L 112.239407 113.8546 
L 112.252162 107.239869 
L 112.3491 107.677674 
L 112.494507 108.334382 
L 112.507261 100.194053 
L 112.60644 100.630761 
L 113.387354 104.069314 
L 113.497047 112.761198 
L 113.642453 113.417905 
L 113.735313 120.516623 
L 116.193446 131.803779 
L 116.206201 125.189048 
L 116.303139 125.626853 
L 116.448546 126.28356 
L 116.461301 118.143232 
L 116.560479 118.57994 
L 117.341393 122.018492 
L 117.451086 130.710377 
L 117.596493 131.367084 
L 117.689352 138.465802 
L 120.147486 149.752958 
L 120.160241 143.138226 
L 120.257178 143.576031 
L 120.402585 144.232739 
L 120.41534 136.09241 
L 120.514519 136.529118 
L 121.295433 139.967671 
L 121.405125 148.659556 
L 121.550532 149.316263 
L 121.643391 156.414981 
L 124.101525 167.702137 
L 124.11428 161.087406 
L 124.211218 161.525211 
L 124.356624 162.181919 
L 124.369379 154.04159 
L 124.468558 154.478298 
L 125.249472 157.916862 
L 125.359164 166.60875 
L 125.504571 167.265462 
L 125.597431 174.364183 
L 128.055564 185.65142 
L 128.068319 179.036689 
L 128.165257 179.474498 
L 128.310663 180.131211 
L 128.323418 171.990883 
L 128.422597 172.427606 
L 129.203511 175.867219 
L 129.313204 184.559426 
L 129.45861 185.216564 
L 129.55147 192.315563 
L 132.009603 203.610497 
L 132.022358 196.99581 
L 132.119296 197.433965 
L 132.264703 198.091248 
L 132.277458 189.950973 
L 132.376636 190.389107 
L 133.15755 193.929682 
L 133.267243 202.652829 
L 133.41265 203.351247 
L 133.505509 210.477122 
L 134.943245 217.507016 
L 134.956 212.673089 
L 135.731546 216.044615 
L 136.907734 219.863389 
L 138.777054 223.260183 
L 141.61885 224.92979 
L 145.658306 225.342073 
L 157.821314 225.403784 
L 390.055305 225.404073 
L 390.055305 225.404073 
" clip-path="url(#pa7aacab5b6)" style="fill: none; stroke-dasharray: 5.55,2.4; stroke-dashoffset: 0; stroke: #0000ff; stroke-width: 1.5"/>
   </g>
   <g id="line2d_17">
    <path d="M 75.772962 235.347273 
L 92.759194 235.27574 
L 93.284486 235.148839 
L 93.704785 234.895518 
L 94.031814 234.492551 
L 94.467618 233.387982 
L 94.808127 231.729871 
L 94.892654 231.1646 
L 94.905409 234.549271 
L 95.002347 233.849224 
L 96.42325 224.341202 
L 96.532943 217.783071 
L 96.67835 216.870173 
L 96.790283 200.664045 
L 97.571197 196.747731 
L 97.583952 212.230649 
L 97.68089 211.787699 
L 97.826297 211.125224 
L 97.839051 216.928402 
L 97.919156 216.558059 
L 100.37729 205.217592 
L 100.486982 198.858116 
L 100.632389 198.198944 
L 100.744323 182.163143 
L 101.525236 178.719791 
L 101.537991 194.203455 
L 101.634929 193.765597 
L 101.780336 193.108829 
L 101.793091 198.912411 
L 101.873195 198.544564 
L 104.331329 187.256851 
L 104.441021 180.899275 
L 104.586428 180.242541 
L 104.698362 164.208394 
L 105.479276 160.769791 
L 105.492031 176.253462 
L 105.588968 175.815657 
L 105.734375 175.158948 
L 105.74713 180.962534 
L 105.827234 180.594713 
L 108.285368 169.307552 
L 108.395061 162.949995 
L 108.540467 162.293287 
L 108.652401 146.259157 
L 109.433315 142.820604 
L 109.44607 158.304275 
L 109.543008 157.86647 
L 109.688414 157.209762 
L 109.701169 163.013348 
L 109.781274 162.645527 
L 112.239407 151.358372 
L 112.3491 145.000815 
L 112.494507 144.344108 
L 112.60644 128.309978 
L 113.387354 124.871425 
L 113.400109 140.355096 
L 113.497047 139.917291 
L 113.642453 139.260584 
L 113.655208 145.06417 
L 113.735313 144.696349 
L 116.193446 133.409193 
L 116.303139 127.051636 
L 116.448546 126.394929 
L 116.560479 110.360799 
L 117.341393 106.922246 
L 117.354148 122.405917 
L 117.451086 121.968112 
L 117.596493 121.311405 
L 117.609248 127.114991 
L 117.689352 126.74717 
L 120.147486 115.460014 
L 120.257178 109.102458 
L 120.402585 108.44575 
L 120.514519 92.41162 
L 121.295433 88.973067 
L 121.308188 104.456739 
L 121.405125 104.018934 
L 121.550532 103.362226 
L 121.563287 109.165812 
L 121.643391 108.797991 
L 124.101525 97.510834 
L 124.211218 91.153278 
L 124.356624 90.49657 
L 124.468558 74.46244 
L 125.249472 71.023876 
L 125.262227 86.507547 
L 125.359164 86.069739 
L 125.504571 85.413027 
L 125.517326 91.216613 
L 125.597431 90.848789 
L 128.055564 79.561552 
L 128.165257 73.203991 
L 128.310663 72.547278 
L 128.422597 56.513132 
L 129.203511 53.07352 
L 129.216266 68.557154 
L 129.313204 68.119063 
L 129.45861 67.461925 
L 129.471365 73.265472 
L 129.55147 72.897409 
L 132.009603 61.602475 
L 132.119296 55.244525 
L 132.264703 54.587241 
L 132.376636 38.551632 
L 133.15755 35.011056 
L 133.170305 50.49114 
L 133.267243 50.02566 
L 133.41265 49.327242 
L 133.425404 55.127126 
L 133.505509 54.73585 
L 134.943245 47.705956 
L 134.956 44.166958 
L 135.731546 40.795432 
L 136.907734 36.976658 
L 138.777054 33.579863 
L 141.61885 31.910257 
L 145.658306 31.497974 
L 157.821314 31.436263 
L 390.055305 31.435974 
L 390.055305 31.435974 
" clip-path="url(#pa7aacab5b6)" style="fill: none; stroke-dasharray: 5.55,2.4; stroke-dashoffset: 0; stroke: #ff0000; stroke-width: 1.5"/>
   </g>
   <g id="patch_3">
    <path d="M 60.058844 246.04 
L 60.058844 10.8 
" style="fill: none; stroke: #000000; stroke-width: 0.8; stroke-linejoin: miter; stroke-linecap: square"/>
   </g>
   <g id="patch_4">
    <path d="M 405.769422 246.04 
L 405.769422 10.8 
" style="fill: none; stroke: #000000; stroke-width: 0.8; stroke-linejoin: miter; stroke-linecap: square"/>
   </g>
   <g id="patch_5">
    <path d="M 60.058844 246.04 
L 405.769422 246.04 
" style="fill: none; stroke: #000000; stroke-width: 0.8; stroke-linejoin: miter; stroke-linecap: square"/>
   </g>
   <g id="patch_6">
    <path d="M 60.058844 10.8 
L 405.769422 10.8 
" style="fill: none; stroke: #000000; stroke-width: 0.8; stroke-linejoin: miter; stroke-linecap: square"/>
   </g>
  </g>
  <g id="axes_2">
   <g id="patch_7">
    <path d="M 453.489422 246.04 
L 799.2 246.04 
L 799.2 10.8 
L 453.489422 10.8 
z
" style="fill: #ffffff"/>
   </g>
   <g id="matplotlib.axis_3">
    <g id="xtick_6">
     <g id="line2d_18">
      <g>
       <use xlink:href="#m1619296254" x="475.096333" y="246.04" style="stroke: #000000; stroke-width: 0.8"/>
      </g>
     </g>
     <g id="text_16">
      <!-- 400 -->
      <g transform="translate(465.552583 260.638438) scale(0.1 -0.1)">
       <use xlink:href="#DejaVuSans-34"/>
       <use xlink:href="#DejaVuSans-30" x="63.623047"/>
       <use xlink:href="#DejaVuSans-30" x="127.246094"/>
      </g>
     </g>
    </g>
    <g id="xtick_7">
     <g id="line2d_19">
      <g>
       <use xlink:href="#m1619296254" x="518.310156" y="246.04" style="stroke: #000000; stroke-width: 0.8"/>
      </g>
     </g>
     <g id="text_17">
      <!-- 500 -->
      <g transform="translate(508.766406 260.638438) scale(0.1 -0.1)">
       <use xlink:href="#DejaVuSans-35"/>
       <use xlink:href="#DejaVuSans-30" x="63.623047"/>
       <use xlink:href="#DejaVuSans-30" x="127.246094"/>
      </g>
     </g>
    </g>
    <g id="xtick_8">
     <g id="line2d_20">
      <g>
       <use xlink:href="#m1619296254" x="561.523978" y="246.04" style="stroke: #000000; stroke-width: 0.8"/>
      </g>
     </g>
     <g id="text_18">
      <!-- 600 -->
      <g transform="translate(551.980228 260.638438) scale(0.1 -0.1)">
       <defs>
        <path id="DejaVuSans-36" d="M 2113 2584 
Q 1688 2584 1439 2293 
Q 1191 2003 1191 1497 
Q 1191 994 1439 701 
Q 1688 409 2113 409 
Q 2538 409 2786 701 
Q 3034 994 3034 1497 
Q 3034 2003 2786 2293 
Q 2538 2584 2113 2584 
z
M 3366 4563 
L 3366 3988 
Q 3128 4100 2886 4159 
Q 2644 4219 2406 4219 
Q 1781 4219 1451 3797 
Q 1122 3375 1075 2522 
Q 1259 2794 1537 2939 
Q 1816 3084 2150 3084 
Q 2853 3084 3261 2657 
Q 3669 2231 3669 1497 
Q 3669 778 3244 343 
Q 2819 -91 2113 -91 
Q 1303 -91 875 529 
Q 447 1150 447 2328 
Q 447 3434 972 4092 
Q 1497 4750 2381 4750 
Q 2619 4750 2861 4703 
Q 3103 4656 3366 4563 
z
" transform="scale(0.015625)"/>
       </defs>
       <use xlink:href="#DejaVuSans-36"/>
       <use xlink:href="#DejaVuSans-30" x="63.623047"/>
       <use xlink:href="#DejaVuSans-30" x="127.246094"/>
      </g>
     </g>
    </g>
    <g id="xtick_9">
     <g id="line2d_21">
      <g>
       <use xlink:href="#m1619296254" x="604.7378" y="246.04" style="stroke: #000000; stroke-width: 0.8"/>
      </g>
     </g>
     <g id="text_19">
      <!-- 700 -->
      <g transform="translate(595.19405 260.638438) scale(0.1 -0.1)">
       <use xlink:href="#DejaVuSans-37"/>
       <use xlink:href="#DejaVuSans-30" x="63.623047"/>
       <use xlink:href="#DejaVuSans-30" x="127.246094"/>
      </g>
     </g>
    </g>
    <g id="xtick_10">
     <g id="line2d_22">
      <g>
       <use xlink:href="#m1619296254" x="647.951622" y="246.04" style="stroke: #000000; stroke-width: 0.8"/>
      </g>
     </g>
     <g id="text_20">
      <!-- 800 -->
      <g transform="translate(638.407872 260.638438) scale(0.1 -0.1)">
       <use xlink:href="#DejaVuSans-38"/>
       <use xlink:href="#DejaVuSans-30" x="63.623047"/>
       <use xlink:href="#DejaVuSans-30" x="127.246094"/>
      </g>
     </g>
    </g>
    <g id="xtick_11">
     <g id="line2d_23">
      <g>
       <use xlink:href="#m1619296254" x="691.165444" y="246.04" style="stroke: #000000; stroke-width: 0.8"/>
      </g>
     </g>
     <g id="text_21">
      <!-- 900 -->
      <g transform="translate(681.621694 260.638438) scale(0.1 -0.1)">
       <defs>
        <path id="DejaVuSans-39" d="M 703 97 
L 703 672 
Q 941 559 1184 500 
Q 1428 441 1663 441 
Q 2288 441 2617 861 
Q 2947 1281 2994 2138 
Q 2813 1869 2534 1725 
Q 2256 1581 1919 1581 
Q 1219 1581 811 2004 
Q 403 2428 403 3163 
Q 403 3881 828 4315 
Q 1253 4750 1959 4750 
Q 2769 4750 3195 4129 
Q 3622 3509 3622 2328 
Q 3622 1225 3098 567 
Q 2575 -91 1691 -91 
Q 1453 -91 1209 -44 
Q 966 3 703 97 
z
M 1959 2075 
Q 2384 2075 2632 2365 
Q 2881 2656 2881 3163 
Q 2881 3666 2632 3958 
Q 2384 4250 1959 4250 
Q 1534 4250 1286 3958 
Q 1038 3666 1038 3163 
Q 1038 2656 1286 2365 
Q 1534 2075 1959 2075 
z
" transform="scale(0.015625)"/>
       </defs>
       <use xlink:href="#DejaVuSans-39"/>
       <use xlink:href="#DejaVuSans-30" x="63.623047"/>
       <use xlink:href="#DejaVuSans-30" x="127.246094"/>
      </g>
     </g>
    </g>
    <g id="xtick_12">
     <g id="line2d_24">
      <g>
       <use xlink:href="#m1619296254" x="734.379267" y="246.04" style="stroke: #000000; stroke-width: 0.8"/>
      </g>
     </g>
     <g id="text_22">
      <!-- 1000 -->
      <g transform="translate(721.654267 260.638438) scale(0.1 -0.1)">
       <use xlink:href="#DejaVuSans-31"/>
       <use xlink:href="#DejaVuSans-30" x="63.623047"/>
       <use xlink:href="#DejaVuSans-30" x="127.246094"/>
       <use xlink:href="#DejaVuSans-30" x="190.869141"/>
      </g>
     </g>
    </g>
    <g id="xtick_13">
     <g id="line2d_25">
      <g>
       <use xlink:href="#m1619296254" x="777.593089" y="246.04" style="stroke: #000000; stroke-width: 0.8"/>
      </g>
     </g>
     <g id="text_23">
      <!-- 1100 -->
      <g transform="translate(764.868089 260.638438) scale(0.1 -0.1)">
       <use xlink:href="#DejaVuSans-31"/>
       <use xlink:href="#DejaVuSans-31" x="63.623047"/>
       <use xlink:href="#DejaVuSans-30" x="127.246094"/>
       <use xlink:href="#DejaVuSans-30" x="190.869141"/>
      </g>
     </g>
    </g>
    <g id="text_24">
     <!-- Wavelength (nm) -->
     <g transform="translate(583.152524 274.316562) scale(0.1 -0.1)">
      <defs>
       <path id="DejaVuSans-57" d="M 213 4666 
L 850 4666 
L 1831 722 
L 2809 4666 
L 3519 4666 
L 4500 722 
L 5478 4666 
L 6119 4666 
L 4947 0 
L 4153 0 
L 3169 4050 
L 2175 0 
L 1381 0 
L 213 4666 
z
" transform="scale(0.015625)"/>
       <path id="DejaVuSans-76" d="M 191 3500 
L 800 3500 
L 1894 563 
L 2988 3500 
L 3597 3500 
L 2284 0 
L 1503 0 
L 191 3500 
z
" transform="scale(0.015625)"/>
       <path id="DejaVuSans-6c" d="M 603 4863 
L 1178 4863 
L 1178 0 
L 603 0 
L 603 4863 
z
" transform="scale(0.015625)"/>
       <path id="DejaVuSans-67" d="M 2906 1791 
Q 2906 2416 2648 2759 
Q 2391 3103 1925 3103 
Q 1463 3103 1205 2759 
Q 947 2416 947 1791 
Q 947 1169 1205 825 
Q 1463 481 1925 481 
Q 2391 481 2648 825 
Q 2906 1169 2906 1791 
z
M 3481 434 
Q 3481 -459 3084 -895 
Q 2688 -1331 1869 -1331 
Q 1566 -1331 1297 -1286 
Q 1028 -1241 775 -1147 
L 775 -588 
Q 1028 -725 1275 -790 
Q 1522 -856 1778 -856 
Q 2344 -856 2625 -561 
Q 2906 -266 2906 331 
L 2906 616 
Q 2728 306 2450 153 
Q 2172 0 1784 0 
Q 1141 0 747 490 
Q 353 981 353 1791 
Q 353 2603 747 3093 
Q 1141 3584 1784 3584 
Q 2172 3584 2450 3431 
Q 2728 3278 2906 2969 
L 2906 3500 
L 3481 3500 
L 3481 434 
z
" transform="scale(0.015625)"/>
       <path id="DejaVuSans-68" d="M 3513 2113 
L 3513 0 
L 2938 0 
L 2938 2094 
Q 2938 2591 2744 2837 
Q 2550 3084 2163 3084 
Q 1697 3084 1428 2787 
Q 1159 2491 1159 1978 
L 1159 0 
L 581 0 
L 581 4863 
L 1159 4863 
L 1159 2956 
Q 1366 3272 1645 3428 
Q 1925 3584 2291 3584 
Q 2894 3584 3203 3211 
Q 3513 2838 3513 2113 
z
" transform="scale(0.015625)"/>
      </defs>
      <use xlink:href="#DejaVuSans-57"/>
      <use xlink:href="#DejaVuSans-61" x="92.501953"/>
      <use xlink:href="#DejaVuSans-76" x="153.78125"/>
      <use xlink:href="#DejaVuSans-65" x="212.960938"/>
      <use xlink:href="#DejaVuSans-6c" x="274.484375"/>
      <use xlink:href="#DejaVuSans-65" x="302.267578"/>
      <use xlink:href="#DejaVuSans-6e" x="363.791016"/>
      <use xlink:href="#DejaVuSans-67" x="427.169922"/>
      <use xlink:href="#DejaVuSans-74" x="490.646484"/>
      <use xlink:href="#DejaVuSans-68" x="529.855469"/>
      <use xlink:href="#DejaVuSans-20" x="593.234375"/>
      <use xlink:href="#DejaVuSans-28" x="625.021484"/>
      <use xlink:href="#DejaVuSans-6e" x="664.035156"/>
      <use xlink:href="#DejaVuSans-6d" x="727.414062"/>
      <use xlink:href="#DejaVuSans-29" x="824.826172"/>
     </g>
    </g>
   </g>
   <g id="matplotlib.axis_4">
    <g id="ytick_9">
     <g id="line2d_26">
      <g>
       <use xlink:href="#m261545bf2c" x="453.489422" y="246.04" style="stroke: #000000; stroke-width: 0.8"/>
      </g>
     </g>
     <g id="text_25">
      <!-- 0.0 -->
      <g transform="translate(430.586297 249.839219) scale(0.1 -0.1)">
       <defs>
        <path id="DejaVuSans-2e" d="M 684 794 
L 1344 794 
L 1344 0 
L 684 0 
L 684 794 
z
" transform="scale(0.015625)"/>
       </defs>
       <use xlink:href="#DejaVuSans-30"/>
       <use xlink:href="#DejaVuSans-2e" x="63.623047"/>
       <use xlink:href="#DejaVuSans-30" x="95.410156"/>
      </g>
     </g>
    </g>
    <g id="ytick_10">
     <g id="line2d_27">
      <g>
       <use xlink:href="#m261545bf2c" x="453.489422" y="203.269091" style="stroke: #000000; stroke-width: 0.8"/>
      </g>
     </g>
     <g id="text_26">
      <!-- 0.2 -->
      <g transform="translate(430.586297 207.06831) scale(0.1 -0.1)">
       <use xlink:href="#DejaVuSans-30"/>
       <use xlink:href="#DejaVuSans-2e" x="63.623047"/>
       <use xlink:href="#DejaVuSans-32" x="95.410156"/>
      </g>
     </g>
    </g>
    <g id="ytick_11">
     <g id="line2d_28">
      <g>
       <use xlink:href="#m261545bf2c" x="453.489422" y="160.498182" style="stroke: #000000; stroke-width: 0.8"/>
      </g>
     </g>
     <g id="text_27">
      <!-- 0.4 -->
      <g transform="translate(430.586297 164.297401) scale(0.1 -0.1)">
       <use xlink:href="#DejaVuSans-30"/>
       <use xlink:href="#DejaVuSans-2e" x="63.623047"/>
       <use xlink:href="#DejaVuSans-34" x="95.410156"/>
      </g>
     </g>
    </g>
    <g id="ytick_12">
     <g id="line2d_29">
      <g>
       <use xlink:href="#m261545bf2c" x="453.489422" y="117.727273" style="stroke: #000000; stroke-width: 0.8"/>
      </g>
     </g>
     <g id="text_28">
      <!-- 0.6 -->
      <g transform="translate(430.586297 121.526491) scale(0.1 -0.1)">
       <use xlink:href="#DejaVuSans-30"/>
       <use xlink:href="#DejaVuSans-2e" x="63.623047"/>
       <use xlink:href="#DejaVuSans-36" x="95.410156"/>
      </g>
     </g>
    </g>
    <g id="ytick_13">
     <g id="line2d_30">
      <g>
       <use xlink:href="#m261545bf2c" x="453.489422" y="74.956364" style="stroke: #000000; stroke-width: 0.8"/>
      </g>
     </g>
     <g id="text_29">
      <!-- 0.8 -->
      <g transform="translate(430.586297 78.755582) scale(0.1 -0.1)">
       <use xlink:href="#DejaVuSans-30"/>
       <use xlink:href="#DejaVuSans-2e" x="63.623047"/>
       <use xlink:href="#DejaVuSans-38" x="95.410156"/>
      </g>
     </g>
    </g>
    <g id="ytick_14">
     <g id="line2d_31">
      <g>
       <use xlink:href="#m261545bf2c" x="453.489422" y="32.185455" style="stroke: #000000; stroke-width: 0.8"/>
      </g>
     </g>
     <g id="text_30">
      <!-- 1.0 -->
      <g transform="translate(430.586297 35.984673) scale(0.1 -0.1)">
       <use xlink:href="#DejaVuSans-31"/>
       <use xlink:href="#DejaVuSans-2e" x="63.623047"/>
       <use xlink:href="#DejaVuSans-30" x="95.410156"/>
      </g>
     </g>
    </g>
    <g id="text_31">
     <!-- EQE -->
     <g transform="translate(424.50661 138.674688) rotate(-90) scale(0.1 -0.1)">
      <defs>
       <path id="DejaVuSans-45" d="M 628 4666 
L 3578 4666 
L 3578 4134 
L 1259 4134 
L 1259 2753 
L 3481 2753 
L 3481 2222 
L 1259 2222 
L 1259 531 
L 3634 531 
L 3634 0 
L 628 0 
L 628 4666 
z
" transform="scale(0.015625)"/>
       <path id="DejaVuSans-51" d="M 2522 4238 
Q 1834 4238 1429 3725 
Q 1025 3213 1025 2328 
Q 1025 1447 1429 934 
Q 1834 422 2522 422 
Q 3209 422 3611 934 
Q 4013 1447 4013 2328 
Q 4013 3213 3611 3725 
Q 3209 4238 2522 4238 
z
M 3406 84 
L 4238 -825 
L 3475 -825 
L 2784 -78 
Q 2681 -84 2626 -87 
Q 2572 -91 2522 -91 
Q 1538 -91 948 567 
Q 359 1225 359 2328 
Q 359 3434 948 4092 
Q 1538 4750 2522 4750 
Q 3503 4750 4090 4092 
Q 4678 3434 4678 2328 
Q 4678 1516 4351 937 
Q 4025 359 3406 84 
z
" transform="scale(0.015625)"/>
      </defs>
      <use xlink:href="#DejaVuSans-45"/>
      <use xlink:href="#DejaVuSans-51" x="63.183594"/>
      <use xlink:href="#DejaVuSans-45" x="141.894531"/>
     </g>
    </g>
   </g>
   <g id="line2d_32">
    <path d="M 453.489422 237.710123 
L 455.506067 237.270758 
L 461.556002 236.720222 
L 465.589292 236.486075 
L 467.605937 236.393343 
L 469.622583 236.145917 
L 472.64755 234.993596 
L 476.68084 232.871853 
L 479.705808 231.010033 
L 483.739098 228.197054 
L 485.755743 226.199677 
L 486.764065 225.104328 
L 487.772388 223.189837 
L 488.78071 220.762477 
L 489.789033 217.964546 
L 490.797355 214.748045 
L 491.805678 211.00486 
L 493.822323 201.840042 
L 495.838968 195.23447 
L 496.847291 191.431403 
L 500.880581 180.138899 
L 502.897226 174.934829 
L 504.913871 169.641728 
L 510.963806 156.664479 
L 512.980451 152.7103 
L 518.022063 144.180913 
L 522.055353 138.029914 
L 526.088644 132.580626 
L 531.130256 126.709413 
L 538.188514 119.437692 
L 541.213481 116.479938 
L 547.263416 111.102803 
L 552.305029 107.074043 
L 558.354964 102.811727 
L 565.413222 98.606809 
L 578.521415 91.410602 
L 583.563027 88.962323 
L 585.579672 88.148713 
L 589.612962 86.755176 
L 594.654575 85.274295 
L 598.687865 84.313713 
L 606.754445 82.787834 
L 609.779413 82.551128 
L 612.80438 82.574807 
L 615.829348 82.794297 
L 618.854315 83.30575 
L 622.887605 84.263512 
L 627.929218 85.60868 
L 631.962508 86.761912 
L 635.995798 88.32343 
L 638.012443 89.11781 
L 642.045733 90.596787 
L 644.062378 91.801286 
L 649.103991 95.101265 
L 652.128958 97.699365 
L 659.187216 104.460262 
L 660.195539 106.392678 
L 661.203861 113.152386 
L 663.220506 117.678805 
L 665.237151 122.829531 
L 667.253796 129.624101 
L 669.270441 136.679918 
L 671.287086 144.7963 
L 674.312054 158.05249 
L 676.328699 168.215504 
L 678.345344 179.701487 
L 680.361989 192.675062 
L 682.378634 207.323268 
L 684.395279 223.857357 
L 685.403601 229.096024 
L 687.420247 229.780333 
L 688.428569 229.492899 
L 689.436892 233.434369 
L 690.445214 234.583309 
L 693.470182 235.713275 
L 698.511794 237.509753 
L 699.520117 237.712532 
L 700.528439 238.974353 
L 701.536762 235.432262 
L 703.553407 239.312112 
L 705.570052 239.339395 
L 728.76147 238.989988 
L 729.769792 245.914728 
L 730.778115 240.609705 
L 731.786437 223.675197 
L 733.803082 245.320649 
L 734.811405 246.04 
L 755.986178 246.04 
L 755.986178 246.04 
" clip-path="url(#pa8f2f5cf18)" style="fill: none; stroke: #0000ff; stroke-width: 1.5; stroke-linecap: square"/>
   </g>
   <g id="line2d_33">
    <path d="M 453.489422 112.448098 
L 455.506067 115.675332 
L 457.522712 117.085314 
L 458.531035 117.334649 
L 459.539357 117.415894 
L 460.54768 117.192915 
L 461.556002 116.740526 
L 462.564325 116.074023 
L 463.572647 115.161365 
L 465.589292 112.941568 
L 467.605937 110.20817 
L 469.622583 107.041554 
L 471.639228 102.042556 
L 473.655873 96.546388 
L 476.68084 88.231103 
L 480.71413 77.556004 
L 482.730775 72.913935 
L 486.764065 64.087637 
L 490.797355 53.501653 
L 492.814 48.771331 
L 493.822323 46.730857 
L 495.838968 43.826 
L 496.847291 42.546348 
L 498.863936 40.535047 
L 500.880581 38.898436 
L 502.897226 37.665175 
L 504.913871 36.682759 
L 506.930516 35.971319 
L 508.947161 35.437699 
L 511.972128 34.94127 
L 514.997096 34.73161 
L 518.022063 34.708716 
L 523.063676 34.946441 
L 531.130256 35.637053 
L 540.205159 36.383137 
L 547.263416 36.745062 
L 555.329997 36.903609 
L 563.396577 36.853213 
L 571.463157 36.590171 
L 600.70451 35.297787 
L 607.762768 35.319263 
L 612.80438 35.535849 
L 616.83767 35.930214 
L 624.90425 36.942993 
L 634.987476 38.801873 
L 638.012443 39.448042 
L 643.054056 40.202597 
L 648.095668 41.29492 
L 651.120636 42.54628 
L 654.145603 44.010923 
L 657.170571 45.60044 
L 659.187216 46.762583 
L 660.195539 48.256567 
L 661.203861 51.454386 
L 663.220506 56.033072 
L 665.237151 61.633933 
L 667.253796 68.842968 
L 669.270441 77.367809 
L 671.287086 87.782818 
L 673.303731 99.508967 
L 675.320376 113.225652 
L 677.337021 129.57126 
L 679.353666 149.01554 
L 681.370311 172.109323 
L 683.386956 199.497442 
L 684.395279 215.031376 
L 685.403601 224.575344 
L 687.420247 225.92949 
L 688.428569 225.986609 
L 689.436892 230.207646 
L 690.445214 231.683972 
L 694.478504 234.526529 
L 698.511794 237.307392 
L 699.520117 237.711578 
L 700.528439 238.973471 
L 701.536762 235.431181 
L 703.553407 239.311251 
L 705.570052 239.338538 
L 728.76147 238.989138 
L 729.769792 245.894365 
L 730.778115 240.608957 
L 731.786437 223.673591 
L 733.803082 245.320272 
L 734.811405 246.034271 
L 755.986178 246.04 
L 755.986178 246.04 
" clip-path="url(#pa8f2f5cf18)" style="fill: none; stroke: #000000; stroke-width: 1.5; stroke-linecap: square"/>
   </g>
   <g id="patch_8">
    <path d="M 453.489422 246.04 
L 453.489422 10.8 
" style="fill: none; stroke: #000000; stroke-width: 0.8; stroke-linejoin: miter; stroke-linecap: square"/>
   </g>
   <g id="patch_9">
    <path d="M 799.2 246.04 
L 799.2 10.8 
" style="fill: none; stroke: #000000; stroke-width: 0.8; stroke-linejoin: miter; stroke-linecap: square"/>
   </g>
   <g id="patch_10">
    <path d="M 453.489422 246.04 
L 799.2 246.04 
" style="fill: none; stroke: #000000; stroke-width: 0.8; stroke-linejoin: miter; stroke-linecap: square"/>
   </g>
   <g id="patch_11">
    <path d="M 453.489422 10.8 
L 799.2 10.8 
" style="fill: none; stroke: #000000; stroke-width: 0.8; stroke-linejoin: miter; stroke-linecap: square"/>
   </g>
   <g id="legend_1">
    <g id="line2d_34">
     <path d="M 688.190625 23.898438 
L 698.190625 23.898438 
L 708.190625 23.898438 
" style="fill: none; stroke: #0000ff; stroke-width: 1.5; stroke-linecap: square"/>
    </g>
    <g id="text_32">
     <!-- EQE GaInP -->
     <g transform="translate(716.190625 27.398438) scale(0.1 -0.1)">
      <defs>
       <path id="DejaVuSans-47" d="M 3809 666 
L 3809 1919 
L 2778 1919 
L 2778 2438 
L 4434 2438 
L 4434 434 
Q 4069 175 3628 42 
Q 3188 -91 2688 -91 
Q 1594 -91 976 548 
Q 359 1188 359 2328 
Q 359 3472 976 4111 
Q 1594 4750 2688 4750 
Q 3144 4750 3555 4637 
Q 3966 4525 4313 4306 
L 4313 3634 
Q 3963 3931 3569 4081 
Q 3175 4231 2741 4231 
Q 1884 4231 1454 3753 
Q 1025 3275 1025 2328 
Q 1025 1384 1454 906 
Q 1884 428 2741 428 
Q 3075 428 3337 486 
Q 3600 544 3809 666 
z
" transform="scale(0.015625)"/>
       <path id="DejaVuSans-49" d="M 628 4666 
L 1259 4666 
L 1259 0 
L 628 0 
L 628 4666 
z
" transform="scale(0.015625)"/>
      </defs>
      <use xlink:href="#DejaVuSans-45"/>
      <use xlink:href="#DejaVuSans-51" x="63.183594"/>
      <use xlink:href="#DejaVuSans-45" x="141.894531"/>
      <use xlink:href="#DejaVuSans-20" x="205.078125"/>
      <use xlink:href="#DejaVuSans-47" x="236.865234"/>
      <use xlink:href="#DejaVuSans-61" x="314.355469"/>
      <use xlink:href="#DejaVuSans-49" x="375.634766"/>
      <use xlink:href="#DejaVuSans-6e" x="405.126953"/>
      <use xlink:href="#DejaVuSans-50" x="468.505859"/>
     </g>
    </g>
    <g id="line2d_35">
     <path d="M 688.190625 38.576563 
L 698.190625 38.576563 
L 708.190625 38.576563 
" style="fill: none; stroke: #000000; stroke-width: 1.5; stroke-linecap: square"/>
    </g>
    <g id="text_33">
     <!-- Total Absorbed -->
     <g transform="translate(716.190625 42.076563) scale(0.1 -0.1)">
      <defs>
       <path id="DejaVuSans-54" d="M -19 4666 
L 3928 4666 
L 3928 4134 
L 2272 4134 
L 2272 0 
L 1638 0 
L 1638 4134 
L -19 4134 
L -19 4666 
z
" transform="scale(0.015625)"/>
       <path id="DejaVuSans-41" d="M 2188 4044 
L 1331 1722 
L 3047 1722 
L 2188 4044 
z
M 1831 4666 
L 2547 4666 
L 4325 0 
L 3669 0 
L 3244 1197 
L 1141 1197 
L 716 0 
L 50 0 
L 1831 4666 
z
" transform="scale(0.015625)"/>
       <path id="DejaVuSans-62" d="M 3116 1747 
Q 3116 2381 2855 2742 
Q 2594 3103 2138 3103 
Q 1681 3103 1420 2742 
Q 1159 2381 1159 1747 
Q 1159 1113 1420 752 
Q 1681 391 2138 391 
Q 2594 391 2855 752 
Q 3116 1113 3116 1747 
z
M 1159 2969 
Q 1341 3281 1617 3432 
Q 1894 3584 2278 3584 
Q 2916 3584 3314 3078 
Q 3713 2572 3713 1747 
Q 3713 922 3314 415 
Q 2916 -91 2278 -91 
Q 1894 -91 1617 61 
Q 1341 213 1159 525 
L 1159 0 
L 581 0 
L 581 4863 
L 1159 4863 
L 1159 2969 
z
" transform="scale(0.015625)"/>
      </defs>
      <use xlink:href="#DejaVuSans-54"/>
      <use xlink:href="#DejaVuSans-6f" x="44.083984"/>
      <use xlink:href="#DejaVuSans-74" x="105.265625"/>
      <use xlink:href="#DejaVuSans-61" x="144.474609"/>
      <use xlink:href="#DejaVuSans-6c" x="205.753906"/>
      <use xlink:href="#DejaVuSans-20" x="233.537109"/>
      <use xlink:href="#DejaVuSans-41" x="265.324219"/>
      <use xlink:href="#DejaVuSans-62" x="333.732422"/>
      <use xlink:href="#DejaVuSans-73" x="397.208984"/>
      <use xlink:href="#DejaVuSans-6f" x="449.308594"/>
      <use xlink:href="#DejaVuSans-72" x="510.490234"/>
      <use xlink:href="#DejaVuSans-62" x="551.603516"/>
      <use xlink:href="#DejaVuSans-65" x="615.080078"/>
      <use xlink:href="#DejaVuSans-64" x="676.603516"/>
     </g>
    </g>
   </g>
  </g>
 </g>
 <defs>
  <clipPath id="pa7aacab5b6">
   <rect x="60.058844" y="10.8" width="345.710578" height="235.24"/>
  </clipPath>
  <clipPath id="pa8f2f5cf18">
   <rect x="453.489422" y="10.8" width="345.710578" height="235.24"/>
  </clipPath>
 </defs>
</svg>
