<?xml version="1.0" encoding="utf-8" standalone="no"?>
<!DOCTYPE svg PUBLIC "-//W3C//DTD SVG 1.1//EN"
  "http://www.w3.org/Graphics/SVG/1.1/DTD/svg11.dtd">
<svg xmlns:xlink="http://www.w3.org/1999/xlink" width="810pt" height="288pt" viewBox="0 0 810 288" xmlns="http://www.w3.org/2000/svg" version="1.1">
 <metadata>
  <rdf:RDF xmlns:dc="http://purl.org/dc/elements/1.1/" xmlns:cc="http://creativecommons.org/ns#" xmlns:rdf="http://www.w3.org/1999/02/22-rdf-syntax-ns#">
   <cc:Work>
    <dc:type rdf:resource="http://purl.org/dc/dcmitype/StillImage"/>
    <dc:date>2023-11-09T18:45:02.977725</dc:date>
    <dc:format>image/svg+xml</dc:format>
    <dc:creator>
     <cc:Agent>
      <dc:title>Matplotlib v3.8.0, https://matplotlib.org/</dc:title>
     </cc:Agent>
    </dc:creator>
   </cc:Work>
  </rdf:RDF>
 </metadata>
 <defs>
  <style type="text/css">*{stroke-linejoin: round; stroke-linecap: butt}</style>
 </defs>
 <g id="figure_1">
  <g id="patch_1">
   <path d="M 0 288 
L 810 288 
L 810 0 
L 0 0 
z
" style="fill: #ffffff"/>
  </g>
  <g id="axes_1">
   <g id="patch_2">
    <path d="M 60.013844 246.04 
L 405.746922 246.04 
L 405.746922 10.8 
L 60.013844 10.8 
z
" style="fill: #ffffff"/>
   </g>
   <g id="matplotlib.axis_1">
    <g id="xtick_1">
     <g id="line2d_1">
      <defs>
       <path id="m113effbfa2" d="M 0 0 
L 0 3.5 
" style="stroke: #000000; stroke-width: 0.8"/>
      </defs>
      <g>
       <use xlink:href="#m113effbfa2" x="118.517732" y="246.04" style="stroke: #000000; stroke-width: 0.8"/>
      </g>
     </g>
     <g id="text_1">
      <!-- 500 -->
      <g transform="translate(108.973982 260.638438) scale(0.1 -0.1)">
       <defs>
        <path id="DejaVuSans-35" d="M 691 4666 
L 3169 4666 
L 3169 4134 
L 1269 4134 
L 1269 2991 
Q 1406 3038 1543 3061 
Q 1681 3084 1819 3084 
Q 2600 3084 3056 2656 
Q 3513 2228 3513 1497 
Q 3513 744 3044 326 
Q 2575 -91 1722 -91 
Q 1428 -91 1123 -41 
Q 819 9 494 109 
L 494 744 
Q 775 591 1075 516 
Q 1375 441 1709 441 
Q 2250 441 2565 725 
Q 2881 1009 2881 1497 
Q 2881 1984 2565 2268 
Q 2250 2553 1709 2553 
Q 1456 2553 1204 2497 
Q 953 2441 691 2322 
L 691 4666 
z
" transform="scale(0.015625)"/>
        <path id="DejaVuSans-30" d="M 2034 4250 
Q 1547 4250 1301 3770 
Q 1056 3291 1056 2328 
Q 1056 1369 1301 889 
Q 1547 409 2034 409 
Q 2525 409 2770 889 
Q 3016 1369 3016 2328 
Q 3016 3291 2770 3770 
Q 2525 4250 2034 4250 
z
M 2034 4750 
Q 2819 4750 3233 4129 
Q 3647 3509 3647 2328 
Q 3647 1150 3233 529 
Q 2819 -91 2034 -91 
Q 1250 -91 836 529 
Q 422 1150 422 2328 
Q 422 3509 836 4129 
Q 1250 4750 2034 4750 
z
" transform="scale(0.015625)"/>
       </defs>
       <use xlink:href="#DejaVuSans-35"/>
       <use xlink:href="#DejaVuSans-30" x="63.623047"/>
       <use xlink:href="#DejaVuSans-30" x="127.246094"/>
      </g>
     </g>
    </g>
    <g id="xtick_2">
     <g id="line2d_2">
      <g>
       <use xlink:href="#m113effbfa2" x="183.349167" y="246.04" style="stroke: #000000; stroke-width: 0.8"/>
      </g>
     </g>
     <g id="text_2">
      <!-- 1000 -->
      <g transform="translate(170.624167 260.638438) scale(0.1 -0.1)">
       <defs>
        <path id="DejaVuSans-31" d="M 794 531 
L 1825 531 
L 1825 4091 
L 703 3866 
L 703 4441 
L 1819 4666 
L 2450 4666 
L 2450 531 
L 3481 531 
L 3481 0 
L 794 0 
L 794 531 
z
" transform="scale(0.015625)"/>
       </defs>
       <use xlink:href="#DejaVuSans-31"/>
       <use xlink:href="#DejaVuSans-30" x="63.623047"/>
       <use xlink:href="#DejaVuSans-30" x="127.246094"/>
       <use xlink:href="#DejaVuSans-30" x="190.869141"/>
      </g>
     </g>
    </g>
    <g id="xtick_3">
     <g id="line2d_3">
      <g>
       <use xlink:href="#m113effbfa2" x="248.180602" y="246.04" style="stroke: #000000; stroke-width: 0.8"/>
      </g>
     </g>
     <g id="text_3">
      <!-- 1500 -->
      <g transform="translate(235.455602 260.638438) scale(0.1 -0.1)">
       <use xlink:href="#DejaVuSans-31"/>
       <use xlink:href="#DejaVuSans-35" x="63.623047"/>
       <use xlink:href="#DejaVuSans-30" x="127.246094"/>
       <use xlink:href="#DejaVuSans-30" x="190.869141"/>
      </g>
     </g>
    </g>
    <g id="xtick_4">
     <g id="line2d_4">
      <g>
       <use xlink:href="#m113effbfa2" x="313.012037" y="246.04" style="stroke: #000000; stroke-width: 0.8"/>
      </g>
     </g>
     <g id="text_4">
      <!-- 2000 -->
      <g transform="translate(300.287037 260.638438) scale(0.1 -0.1)">
       <defs>
        <path id="DejaVuSans-32" d="M 1228 531 
L 3431 531 
L 3431 0 
L 469 0 
L 469 531 
Q 828 903 1448 1529 
Q 2069 2156 2228 2338 
Q 2531 2678 2651 2914 
Q 2772 3150 2772 3378 
Q 2772 3750 2511 3984 
Q 2250 4219 1831 4219 
Q 1534 4219 1204 4116 
Q 875 4013 500 3803 
L 500 4441 
Q 881 4594 1212 4672 
Q 1544 4750 1819 4750 
Q 2544 4750 2975 4387 
Q 3406 4025 3406 3419 
Q 3406 3131 3298 2873 
Q 3191 2616 2906 2266 
Q 2828 2175 2409 1742 
Q 1991 1309 1228 531 
z
" transform="scale(0.015625)"/>
       </defs>
       <use xlink:href="#DejaVuSans-32"/>
       <use xlink:href="#DejaVuSans-30" x="63.623047"/>
       <use xlink:href="#DejaVuSans-30" x="127.246094"/>
       <use xlink:href="#DejaVuSans-30" x="190.869141"/>
      </g>
     </g>
    </g>
    <g id="xtick_5">
     <g id="line2d_5">
      <g>
       <use xlink:href="#m113effbfa2" x="377.843472" y="246.04" style="stroke: #000000; stroke-width: 0.8"/>
      </g>
     </g>
     <g id="text_5">
      <!-- 2500 -->
      <g transform="translate(365.118472 260.638438) scale(0.1 -0.1)">
       <use xlink:href="#DejaVuSans-32"/>
       <use xlink:href="#DejaVuSans-35" x="63.623047"/>
       <use xlink:href="#DejaVuSans-30" x="127.246094"/>
       <use xlink:href="#DejaVuSans-30" x="190.869141"/>
      </g>
     </g>
    </g>
    <g id="text_6">
     <!-- Position (nm) -->
     <g transform="translate(199.886633 274.316562) scale(0.1 -0.1)">
      <defs>
       <path id="DejaVuSans-50" d="M 1259 4147 
L 1259 2394 
L 2053 2394 
Q 2494 2394 2734 2622 
Q 2975 2850 2975 3272 
Q 2975 3691 2734 3919 
Q 2494 4147 2053 4147 
L 1259 4147 
z
M 628 4666 
L 2053 4666 
Q 2838 4666 3239 4311 
Q 3641 3956 3641 3272 
Q 3641 2581 3239 2228 
Q 2838 1875 2053 1875 
L 1259 1875 
L 1259 0 
L 628 0 
L 628 4666 
z
" transform="scale(0.015625)"/>
       <path id="DejaVuSans-6f" d="M 1959 3097 
Q 1497 3097 1228 2736 
Q 959 2375 959 1747 
Q 959 1119 1226 758 
Q 1494 397 1959 397 
Q 2419 397 2687 759 
Q 2956 1122 2956 1747 
Q 2956 2369 2687 2733 
Q 2419 3097 1959 3097 
z
M 1959 3584 
Q 2709 3584 3137 3096 
Q 3566 2609 3566 1747 
Q 3566 888 3137 398 
Q 2709 -91 1959 -91 
Q 1206 -91 779 398 
Q 353 888 353 1747 
Q 353 2609 779 3096 
Q 1206 3584 1959 3584 
z
" transform="scale(0.015625)"/>
       <path id="DejaVuSans-73" d="M 2834 3397 
L 2834 2853 
Q 2591 2978 2328 3040 
Q 2066 3103 1784 3103 
Q 1356 3103 1142 2972 
Q 928 2841 928 2578 
Q 928 2378 1081 2264 
Q 1234 2150 1697 2047 
L 1894 2003 
Q 2506 1872 2764 1633 
Q 3022 1394 3022 966 
Q 3022 478 2636 193 
Q 2250 -91 1575 -91 
Q 1294 -91 989 -36 
Q 684 19 347 128 
L 347 722 
Q 666 556 975 473 
Q 1284 391 1588 391 
Q 1994 391 2212 530 
Q 2431 669 2431 922 
Q 2431 1156 2273 1281 
Q 2116 1406 1581 1522 
L 1381 1569 
Q 847 1681 609 1914 
Q 372 2147 372 2553 
Q 372 3047 722 3315 
Q 1072 3584 1716 3584 
Q 2034 3584 2315 3537 
Q 2597 3491 2834 3397 
z
" transform="scale(0.015625)"/>
       <path id="DejaVuSans-69" d="M 603 3500 
L 1178 3500 
L 1178 0 
L 603 0 
L 603 3500 
z
M 603 4863 
L 1178 4863 
L 1178 4134 
L 603 4134 
L 603 4863 
z
" transform="scale(0.015625)"/>
       <path id="DejaVuSans-74" d="M 1172 4494 
L 1172 3500 
L 2356 3500 
L 2356 3053 
L 1172 3053 
L 1172 1153 
Q 1172 725 1289 603 
Q 1406 481 1766 481 
L 2356 481 
L 2356 0 
L 1766 0 
Q 1100 0 847 248 
Q 594 497 594 1153 
L 594 3053 
L 172 3053 
L 172 3500 
L 594 3500 
L 594 4494 
L 1172 4494 
z
" transform="scale(0.015625)"/>
       <path id="DejaVuSans-6e" d="M 3513 2113 
L 3513 0 
L 2938 0 
L 2938 2094 
Q 2938 2591 2744 2837 
Q 2550 3084 2163 3084 
Q 1697 3084 1428 2787 
Q 1159 2491 1159 1978 
L 1159 0 
L 581 0 
L 581 3500 
L 1159 3500 
L 1159 2956 
Q 1366 3272 1645 3428 
Q 1925 3584 2291 3584 
Q 2894 3584 3203 3211 
Q 3513 2838 3513 2113 
z
" transform="scale(0.015625)"/>
       <path id="DejaVuSans-20" transform="scale(0.015625)"/>
       <path id="DejaVuSans-28" d="M 1984 4856 
Q 1566 4138 1362 3434 
Q 1159 2731 1159 2009 
Q 1159 1288 1364 580 
Q 1569 -128 1984 -844 
L 1484 -844 
Q 1016 -109 783 600 
Q 550 1309 550 2009 
Q 550 2706 781 3412 
Q 1013 4119 1484 4856 
L 1984 4856 
z
" transform="scale(0.015625)"/>
       <path id="DejaVuSans-6d" d="M 3328 2828 
Q 3544 3216 3844 3400 
Q 4144 3584 4550 3584 
Q 5097 3584 5394 3201 
Q 5691 2819 5691 2113 
L 5691 0 
L 5113 0 
L 5113 2094 
Q 5113 2597 4934 2840 
Q 4756 3084 4391 3084 
Q 3944 3084 3684 2787 
Q 3425 2491 3425 1978 
L 3425 0 
L 2847 0 
L 2847 2094 
Q 2847 2600 2669 2842 
Q 2491 3084 2119 3084 
Q 1678 3084 1418 2786 
Q 1159 2488 1159 1978 
L 1159 0 
L 581 0 
L 581 3500 
L 1159 3500 
L 1159 2956 
Q 1356 3278 1631 3431 
Q 1906 3584 2284 3584 
Q 2666 3584 2933 3390 
Q 3200 3197 3328 2828 
z
" transform="scale(0.015625)"/>
       <path id="DejaVuSans-29" d="M 513 4856 
L 1013 4856 
Q 1481 4119 1714 3412 
Q 1947 2706 1947 2009 
Q 1947 1309 1714 600 
Q 1481 -109 1013 -844 
L 513 -844 
Q 928 -128 1133 580 
Q 1338 1288 1338 2009 
Q 1338 2731 1133 3434 
Q 928 4138 513 4856 
z
" transform="scale(0.015625)"/>
      </defs>
      <use xlink:href="#DejaVuSans-50"/>
      <use xlink:href="#DejaVuSans-6f" x="56.677734"/>
      <use xlink:href="#DejaVuSans-73" x="117.859375"/>
      <use xlink:href="#DejaVuSans-69" x="169.958984"/>
      <use xlink:href="#DejaVuSans-74" x="197.742188"/>
      <use xlink:href="#DejaVuSans-69" x="236.951172"/>
      <use xlink:href="#DejaVuSans-6f" x="264.734375"/>
      <use xlink:href="#DejaVuSans-6e" x="325.916016"/>
      <use xlink:href="#DejaVuSans-20" x="389.294922"/>
      <use xlink:href="#DejaVuSans-28" x="421.082031"/>
      <use xlink:href="#DejaVuSans-6e" x="460.095703"/>
      <use xlink:href="#DejaVuSans-6d" x="523.474609"/>
      <use xlink:href="#DejaVuSans-29" x="620.886719"/>
     </g>
    </g>
   </g>
   <g id="matplotlib.axis_2">
    <g id="ytick_1">
     <g id="line2d_6">
      <defs>
       <path id="mff1c135130" d="M 0 0 
L -3.5 0 
" style="stroke: #000000; stroke-width: 0.8"/>
      </defs>
      <g>
       <use xlink:href="#mff1c135130" x="60.013844" y="222.407948" style="stroke: #000000; stroke-width: 0.8"/>
      </g>
     </g>
     <g id="text_7">
      <!-- $\mathdefault{10^{7}}$ -->
      <g transform="translate(35.413844 226.207167) scale(0.1 -0.1)">
       <defs>
        <path id="DejaVuSans-37" d="M 525 4666 
L 3525 4666 
L 3525 4397 
L 1831 0 
L 1172 0 
L 2766 4134 
L 525 4134 
L 525 4666 
z
" transform="scale(0.015625)"/>
       </defs>
       <use xlink:href="#DejaVuSans-31" transform="translate(0 0.684375)"/>
       <use xlink:href="#DejaVuSans-30" transform="translate(63.623047 0.684375)"/>
       <use xlink:href="#DejaVuSans-37" transform="translate(128.203125 38.965625) scale(0.7)"/>
      </g>
     </g>
    </g>
    <g id="ytick_2">
     <g id="line2d_7">
      <g>
       <use xlink:href="#mff1c135130" x="60.013844" y="194.315694" style="stroke: #000000; stroke-width: 0.8"/>
      </g>
     </g>
     <g id="text_8">
      <!-- $\mathdefault{10^{9}}$ -->
      <g transform="translate(35.413844 198.114913) scale(0.1 -0.1)">
       <defs>
        <path id="DejaVuSans-39" d="M 703 97 
L 703 672 
Q 941 559 1184 500 
Q 1428 441 1663 441 
Q 2288 441 2617 861 
Q 2947 1281 2994 2138 
Q 2813 1869 2534 1725 
Q 2256 1581 1919 1581 
Q 1219 1581 811 2004 
Q 403 2428 403 3163 
Q 403 3881 828 4315 
Q 1253 4750 1959 4750 
Q 2769 4750 3195 4129 
Q 3622 3509 3622 2328 
Q 3622 1225 3098 567 
Q 2575 -91 1691 -91 
Q 1453 -91 1209 -44 
Q 966 3 703 97 
z
M 1959 2075 
Q 2384 2075 2632 2365 
Q 2881 2656 2881 3163 
Q 2881 3666 2632 3958 
Q 2384 4250 1959 4250 
Q 1534 4250 1286 3958 
Q 1038 3666 1038 3163 
Q 1038 2656 1286 2365 
Q 1534 2075 1959 2075 
z
" transform="scale(0.015625)"/>
       </defs>
       <use xlink:href="#DejaVuSans-31" transform="translate(0 0.765625)"/>
       <use xlink:href="#DejaVuSans-30" transform="translate(63.623047 0.765625)"/>
       <use xlink:href="#DejaVuSans-39" transform="translate(128.203125 39.046875) scale(0.7)"/>
      </g>
     </g>
    </g>
    <g id="ytick_3">
     <g id="line2d_8">
      <g>
       <use xlink:href="#mff1c135130" x="60.013844" y="166.22344" style="stroke: #000000; stroke-width: 0.8"/>
      </g>
     </g>
     <g id="text_9">
      <!-- $\mathdefault{10^{11}}$ -->
      <g transform="translate(30.913844 170.022659) scale(0.1 -0.1)">
       <use xlink:href="#DejaVuSans-31" transform="translate(0 0.684375)"/>
       <use xlink:href="#DejaVuSans-30" transform="translate(63.623047 0.684375)"/>
       <use xlink:href="#DejaVuSans-31" transform="translate(128.203125 38.965625) scale(0.7)"/>
       <use xlink:href="#DejaVuSans-31" transform="translate(172.739258 38.965625) scale(0.7)"/>
      </g>
     </g>
    </g>
    <g id="ytick_4">
     <g id="line2d_9">
      <g>
       <use xlink:href="#mff1c135130" x="60.013844" y="138.131187" style="stroke: #000000; stroke-width: 0.8"/>
      </g>
     </g>
     <g id="text_10">
      <!-- $\mathdefault{10^{13}}$ -->
      <g transform="translate(30.913844 141.930405) scale(0.1 -0.1)">
       <defs>
        <path id="DejaVuSans-33" d="M 2597 2516 
Q 3050 2419 3304 2112 
Q 3559 1806 3559 1356 
Q 3559 666 3084 287 
Q 2609 -91 1734 -91 
Q 1441 -91 1130 -33 
Q 819 25 488 141 
L 488 750 
Q 750 597 1062 519 
Q 1375 441 1716 441 
Q 2309 441 2620 675 
Q 2931 909 2931 1356 
Q 2931 1769 2642 2001 
Q 2353 2234 1838 2234 
L 1294 2234 
L 1294 2753 
L 1863 2753 
Q 2328 2753 2575 2939 
Q 2822 3125 2822 3475 
Q 2822 3834 2567 4026 
Q 2313 4219 1838 4219 
Q 1578 4219 1281 4162 
Q 984 4106 628 3988 
L 628 4550 
Q 988 4650 1302 4700 
Q 1616 4750 1894 4750 
Q 2613 4750 3031 4423 
Q 3450 4097 3450 3541 
Q 3450 3153 3228 2886 
Q 3006 2619 2597 2516 
z
" transform="scale(0.015625)"/>
       </defs>
       <use xlink:href="#DejaVuSans-31" transform="translate(0 0.765625)"/>
       <use xlink:href="#DejaVuSans-30" transform="translate(63.623047 0.765625)"/>
       <use xlink:href="#DejaVuSans-31" transform="translate(128.203125 39.046875) scale(0.7)"/>
       <use xlink:href="#DejaVuSans-33" transform="translate(172.739258 39.046875) scale(0.7)"/>
      </g>
     </g>
    </g>
    <g id="ytick_5">
     <g id="line2d_10">
      <g>
       <use xlink:href="#mff1c135130" x="60.013844" y="110.038933" style="stroke: #000000; stroke-width: 0.8"/>
      </g>
     </g>
     <g id="text_11">
      <!-- $\mathdefault{10^{15}}$ -->
      <g transform="translate(30.913844 113.838152) scale(0.1 -0.1)">
       <use xlink:href="#DejaVuSans-31" transform="translate(0 0.684375)"/>
       <use xlink:href="#DejaVuSans-30" transform="translate(63.623047 0.684375)"/>
       <use xlink:href="#DejaVuSans-31" transform="translate(128.203125 38.965625) scale(0.7)"/>
       <use xlink:href="#DejaVuSans-35" transform="translate(172.739258 38.965625) scale(0.7)"/>
      </g>
     </g>
    </g>
    <g id="ytick_6">
     <g id="line2d_11">
      <g>
       <use xlink:href="#mff1c135130" x="60.013844" y="81.946679" style="stroke: #000000; stroke-width: 0.8"/>
      </g>
     </g>
     <g id="text_12">
      <!-- $\mathdefault{10^{17}}$ -->
      <g transform="translate(30.913844 85.745898) scale(0.1 -0.1)">
       <use xlink:href="#DejaVuSans-31" transform="translate(0 0.684375)"/>
       <use xlink:href="#DejaVuSans-30" transform="translate(63.623047 0.684375)"/>
       <use xlink:href="#DejaVuSans-31" transform="translate(128.203125 38.965625) scale(0.7)"/>
       <use xlink:href="#DejaVuSans-37" transform="translate(172.739258 38.965625) scale(0.7)"/>
      </g>
     </g>
    </g>
    <g id="ytick_7">
     <g id="line2d_12">
      <g>
       <use xlink:href="#mff1c135130" x="60.013844" y="53.854425" style="stroke: #000000; stroke-width: 0.8"/>
      </g>
     </g>
     <g id="text_13">
      <!-- $\mathdefault{10^{19}}$ -->
      <g transform="translate(30.913844 57.653644) scale(0.1 -0.1)">
       <use xlink:href="#DejaVuSans-31" transform="translate(0 0.765625)"/>
       <use xlink:href="#DejaVuSans-30" transform="translate(63.623047 0.765625)"/>
       <use xlink:href="#DejaVuSans-31" transform="translate(128.203125 39.046875) scale(0.7)"/>
       <use xlink:href="#DejaVuSans-39" transform="translate(172.739258 39.046875) scale(0.7)"/>
      </g>
     </g>
    </g>
    <g id="ytick_8">
     <g id="line2d_13">
      <g>
       <use xlink:href="#mff1c135130" x="60.013844" y="25.762172" style="stroke: #000000; stroke-width: 0.8"/>
      </g>
     </g>
     <g id="text_14">
      <!-- $\mathdefault{10^{21}}$ -->
      <g transform="translate(30.913844 29.56139) scale(0.1 -0.1)">
       <use xlink:href="#DejaVuSans-31" transform="translate(0 0.765625)"/>
       <use xlink:href="#DejaVuSans-30" transform="translate(63.623047 0.765625)"/>
       <use xlink:href="#DejaVuSans-32" transform="translate(128.203125 39.046875) scale(0.7)"/>
       <use xlink:href="#DejaVuSans-31" transform="translate(172.739258 39.046875) scale(0.7)"/>
      </g>
     </g>
    </g>
    <g id="text_15">
     <!-- Carrier density (m$^{-3}$) -->
     <g transform="translate(24.813844 181.27) rotate(-90) scale(0.1 -0.1)">
      <defs>
       <path id="DejaVuSans-43" d="M 4122 4306 
L 4122 3641 
Q 3803 3938 3442 4084 
Q 3081 4231 2675 4231 
Q 1875 4231 1450 3742 
Q 1025 3253 1025 2328 
Q 1025 1406 1450 917 
Q 1875 428 2675 428 
Q 3081 428 3442 575 
Q 3803 722 4122 1019 
L 4122 359 
Q 3791 134 3420 21 
Q 3050 -91 2638 -91 
Q 1578 -91 968 557 
Q 359 1206 359 2328 
Q 359 3453 968 4101 
Q 1578 4750 2638 4750 
Q 3056 4750 3426 4639 
Q 3797 4528 4122 4306 
z
" transform="scale(0.015625)"/>
       <path id="DejaVuSans-61" d="M 2194 1759 
Q 1497 1759 1228 1600 
Q 959 1441 959 1056 
Q 959 750 1161 570 
Q 1363 391 1709 391 
Q 2188 391 2477 730 
Q 2766 1069 2766 1631 
L 2766 1759 
L 2194 1759 
z
M 3341 1997 
L 3341 0 
L 2766 0 
L 2766 531 
Q 2569 213 2275 61 
Q 1981 -91 1556 -91 
Q 1019 -91 701 211 
Q 384 513 384 1019 
Q 384 1609 779 1909 
Q 1175 2209 1959 2209 
L 2766 2209 
L 2766 2266 
Q 2766 2663 2505 2880 
Q 2244 3097 1772 3097 
Q 1472 3097 1187 3025 
Q 903 2953 641 2809 
L 641 3341 
Q 956 3463 1253 3523 
Q 1550 3584 1831 3584 
Q 2591 3584 2966 3190 
Q 3341 2797 3341 1997 
z
" transform="scale(0.015625)"/>
       <path id="DejaVuSans-72" d="M 2631 2963 
Q 2534 3019 2420 3045 
Q 2306 3072 2169 3072 
Q 1681 3072 1420 2755 
Q 1159 2438 1159 1844 
L 1159 0 
L 581 0 
L 581 3500 
L 1159 3500 
L 1159 2956 
Q 1341 3275 1631 3429 
Q 1922 3584 2338 3584 
Q 2397 3584 2469 3576 
Q 2541 3569 2628 3553 
L 2631 2963 
z
" transform="scale(0.015625)"/>
       <path id="DejaVuSans-65" d="M 3597 1894 
L 3597 1613 
L 953 1613 
Q 991 1019 1311 708 
Q 1631 397 2203 397 
Q 2534 397 2845 478 
Q 3156 559 3463 722 
L 3463 178 
Q 3153 47 2828 -22 
Q 2503 -91 2169 -91 
Q 1331 -91 842 396 
Q 353 884 353 1716 
Q 353 2575 817 3079 
Q 1281 3584 2069 3584 
Q 2775 3584 3186 3129 
Q 3597 2675 3597 1894 
z
M 3022 2063 
Q 3016 2534 2758 2815 
Q 2500 3097 2075 3097 
Q 1594 3097 1305 2825 
Q 1016 2553 972 2059 
L 3022 2063 
z
" transform="scale(0.015625)"/>
       <path id="DejaVuSans-64" d="M 2906 2969 
L 2906 4863 
L 3481 4863 
L 3481 0 
L 2906 0 
L 2906 525 
Q 2725 213 2448 61 
Q 2172 -91 1784 -91 
Q 1150 -91 751 415 
Q 353 922 353 1747 
Q 353 2572 751 3078 
Q 1150 3584 1784 3584 
Q 2172 3584 2448 3432 
Q 2725 3281 2906 2969 
z
M 947 1747 
Q 947 1113 1208 752 
Q 1469 391 1925 391 
Q 2381 391 2643 752 
Q 2906 1113 2906 1747 
Q 2906 2381 2643 2742 
Q 2381 3103 1925 3103 
Q 1469 3103 1208 2742 
Q 947 2381 947 1747 
z
" transform="scale(0.015625)"/>
       <path id="DejaVuSans-79" d="M 2059 -325 
Q 1816 -950 1584 -1140 
Q 1353 -1331 966 -1331 
L 506 -1331 
L 506 -850 
L 844 -850 
Q 1081 -850 1212 -737 
Q 1344 -625 1503 -206 
L 1606 56 
L 191 3500 
L 800 3500 
L 1894 763 
L 2988 3500 
L 3597 3500 
L 2059 -325 
z
" transform="scale(0.015625)"/>
       <path id="DejaVuSans-2212" d="M 678 2272 
L 4684 2272 
L 4684 1741 
L 678 1741 
L 678 2272 
z
" transform="scale(0.015625)"/>
      </defs>
      <use xlink:href="#DejaVuSans-43" transform="translate(0 0.765625)"/>
      <use xlink:href="#DejaVuSans-61" transform="translate(69.824219 0.765625)"/>
      <use xlink:href="#DejaVuSans-72" transform="translate(131.103516 0.765625)"/>
      <use xlink:href="#DejaVuSans-72" transform="translate(172.216797 0.765625)"/>
      <use xlink:href="#DejaVuSans-69" transform="translate(213.330078 0.765625)"/>
      <use xlink:href="#DejaVuSans-65" transform="translate(241.113281 0.765625)"/>
      <use xlink:href="#DejaVuSans-72" transform="translate(302.636719 0.765625)"/>
      <use xlink:href="#DejaVuSans-20" transform="translate(343.75 0.765625)"/>
      <use xlink:href="#DejaVuSans-64" transform="translate(375.537109 0.765625)"/>
      <use xlink:href="#DejaVuSans-65" transform="translate(439.013672 0.765625)"/>
      <use xlink:href="#DejaVuSans-6e" transform="translate(500.537109 0.765625)"/>
      <use xlink:href="#DejaVuSans-73" transform="translate(563.916016 0.765625)"/>
      <use xlink:href="#DejaVuSans-69" transform="translate(616.015625 0.765625)"/>
      <use xlink:href="#DejaVuSans-74" transform="translate(643.798828 0.765625)"/>
      <use xlink:href="#DejaVuSans-79" transform="translate(683.007812 0.765625)"/>
      <use xlink:href="#DejaVuSans-20" transform="translate(742.1875 0.765625)"/>
      <use xlink:href="#DejaVuSans-28" transform="translate(773.974609 0.765625)"/>
      <use xlink:href="#DejaVuSans-6d" transform="translate(812.988281 0.765625)"/>
      <use xlink:href="#DejaVuSans-2212" transform="translate(911.357422 39.046875) scale(0.7)"/>
      <use xlink:href="#DejaVuSans-33" transform="translate(970.009766 39.046875) scale(0.7)"/>
      <use xlink:href="#DejaVuSans-29" transform="translate(1017.280273 0.765625)"/>
     </g>
    </g>
   </g>
   <g id="line2d_14">
    <path d="M 75.728984 65.409922 
L 76.593996 63.625205 
L 77.76941 61.788713 
L 79.317819 59.926935 
L 81.190908 58.137692 
L 83.293185 56.473928 
L 85.509873 54.958818 
L 88.778087 52.999173 
L 93.537831 50.486651 
L 95.165449 49.686054 
L 95.178415 56.828024 
L 95.276959 56.763788 
L 95.6841 56.501552 
L 95.790424 46.527413 
L 95.813763 46.516721 
L 95.933073 41.671285 
L 96.202752 41.557934 
L 96.215718 46.346724 
L 96.309075 46.305286 
L 96.332414 46.294933 
L 96.345381 56.212899 
L 96.443925 56.15283 
L 96.851066 55.907269 
L 96.957389 45.935143 
L 96.980729 45.924865 
L 97.100038 41.081231 
L 97.369717 40.971924 
L 97.382684 45.760926 
L 97.476041 45.72113 
L 97.49938 45.711187 
L 97.512347 55.629461 
L 97.61089 55.573107 
L 98.018032 55.342466 
L 98.124355 45.372265 
L 98.147695 45.362386 
L 98.267004 40.520522 
L 98.536683 40.415191 
L 98.54965 45.204399 
L 98.643007 45.166188 
L 98.666346 45.156641 
L 98.679312 55.075204 
L 98.777856 55.022199 
L 99.184998 54.805051 
L 99.291321 44.836704 
L 99.31466 44.827213 
L 99.43397 39.987092 
L 99.703649 39.885678 
L 99.716615 44.675088 
L 99.809973 44.638415 
L 99.833312 44.629252 
L 99.846278 54.548087 
L 99.944822 54.498132 
L 100.351963 54.293308 
L 100.458287 44.326756 
L 100.481626 44.317642 
L 100.600936 39.479242 
L 100.870615 39.381695 
L 100.883581 44.171303 
L 100.976938 44.136128 
L 101.000278 44.12734 
L 101.013244 54.046433 
L 101.111788 53.999281 
L 101.518929 53.805814 
L 101.625253 43.841007 
L 101.648592 43.832261 
L 101.767902 38.995561 
L 102.037581 38.901839 
L 102.050547 43.69164 
L 102.143904 43.657931 
L 102.167244 43.649508 
L 102.18021 53.568848 
L 102.278754 53.524295 
L 102.685895 53.341378 
L 102.792219 43.378272 
L 102.815558 43.369887 
L 102.934868 38.53487 
L 103.204547 38.444933 
L 103.217513 43.234925 
L 103.31087 43.202653 
L 103.334209 43.194589 
L 103.347176 53.114165 
L 103.44572 53.07204 
L 103.852861 52.898994 
L 103.959184 42.937555 
L 103.982524 42.929524 
L 104.101833 38.096174 
L 104.371512 38.009988 
L 104.384479 42.800168 
L 104.477836 42.769308 
L 104.501175 42.761597 
L 104.514142 52.681401 
L 104.612685 52.641559 
L 105.019827 52.477812 
L 105.12615 42.518007 
L 105.14949 42.510325 
L 105.268799 37.678628 
L 105.538478 37.596162 
L 105.551445 42.386529 
L 105.644802 42.357059 
L 105.668141 42.349695 
L 105.681107 52.269721 
L 105.779651 52.232039 
L 106.186793 52.077105 
L 106.293116 42.118906 
L 106.316455 42.111569 
L 106.435765 37.281512 
L 106.705444 37.202739 
L 106.71841 41.99329 
L 106.811768 41.965193 
L 106.835107 41.958171 
L 106.848073 51.878414 
L 106.946617 51.842786 
L 107.353758 51.696252 
L 107.460082 41.739636 
L 107.483421 41.732639 
L 107.602731 36.90421 
L 107.87241 36.829107 
L 107.885376 41.619841 
L 107.978733 41.5931 
L 108.002073 41.586417 
L 108.015039 51.50687 
L 108.113583 51.473209 
L 108.520724 51.33472 
L 108.627048 41.379666 
L 108.650387 41.373005 
L 108.769697 36.546196 
L 109.039376 36.474742 
L 109.052342 41.265657 
L 109.145699 41.240258 
L 109.169039 41.233911 
L 109.182005 51.15457 
L 109.280549 51.122799 
L 109.68769 50.992051 
L 109.794014 41.038543 
L 109.817353 41.032215 
L 109.936663 36.207017 
L 110.206342 36.139194 
L 110.219308 40.930289 
L 110.312665 40.906221 
L 110.336004 40.900207 
L 110.348971 50.821068 
L 110.447515 50.791122 
L 110.854656 50.667856 
L 110.960979 40.715878 
L 110.984319 40.709881 
L 111.103628 35.886286 
L 111.373307 35.822081 
L 111.386274 40.613355 
L 111.479631 40.590609 
L 111.50297 40.584924 
L 111.515937 50.505984 
L 111.61448 50.477808 
L 112.021622 50.361801 
L 112.127945 40.411341 
L 112.151285 40.405673 
L 112.270594 35.583676 
L 112.540273 35.523079 
L 112.55324 40.31453 
L 112.646597 40.293098 
L 112.669936 40.287742 
L 112.682902 50.208998 
L 112.781446 50.182544 
L 113.188588 50.073605 
L 113.294911 40.124653 
L 113.31825 40.119312 
L 113.43756 35.29891 
L 113.707239 35.241913 
L 113.720205 40.033542 
L 113.813563 40.013418 
L 113.836902 40.008388 
L 113.849868 49.929839 
L 113.948412 49.905066 
L 114.355553 49.803035 
L 114.461877 39.855583 
L 114.485216 39.850567 
L 114.604526 35.031759 
L 114.874205 34.978358 
L 114.887171 39.770165 
L 114.980528 39.751345 
L 115.003868 39.746642 
L 115.016834 49.668285 
L 115.115378 49.645159 
L 115.522519 49.5499 
L 115.628843 39.603943 
L 115.652182 39.599252 
L 115.771492 34.782036 
L 116.041171 34.732235 
L 116.054137 39.524219 
L 116.147494 39.506702 
L 116.170834 39.502324 
L 116.1838 49.424159 
L 116.282344 49.402651 
L 116.689485 49.314051 
L 116.795809 39.369587 
L 116.819148 39.365221 
L 116.938458 34.549599 
L 117.208137 34.503403 
L 117.221103 39.295564 
L 117.31446 39.27935 
L 117.337799 39.275298 
L 117.350766 49.197324 
L 117.44931 49.177412 
L 117.856451 49.095381 
L 117.962774 39.152409 
L 117.986114 39.148367 
L 118.105423 34.334344 
L 118.375102 34.291765 
L 118.388069 39.084104 
L 118.481426 39.069196 
L 118.504765 39.065471 
L 118.517732 48.987686 
L 118.616275 48.969353 
L 119.023417 48.893822 
L 119.12974 38.952344 
L 119.15308 38.948628 
L 119.272389 34.136209 
L 119.542068 34.097265 
L 119.555035 38.889783 
L 119.648392 38.876185 
L 119.671731 38.872787 
L 119.684697 48.795192 
L 119.783241 48.778425 
L 120.190383 48.709344 
L 120.296706 38.769366 
L 120.320045 38.765977 
L 120.439355 33.955173 
L 120.709034 33.919886 
L 120.722 38.712583 
L 120.815358 38.700304 
L 120.838697 38.697235 
L 120.851663 48.61983 
L 120.950207 48.604622 
L 121.357348 48.541962 
L 121.463672 38.603491 
L 121.487011 38.600431 
L 121.606321 33.791252 
L 121.876 33.759653 
L 121.888966 38.552532 
L 121.982323 38.541581 
L 122.005663 38.538844 
L 122.018629 48.46163 
L 122.117173 48.447977 
L 122.524314 48.391727 
L 122.630638 38.454776 
L 122.653977 38.452047 
L 122.773287 33.64451 
L 123.042966 33.616636 
L 123.055932 38.409698 
L 123.149289 38.400087 
L 123.172629 38.397686 
L 123.185595 48.320665 
L 123.284139 48.308569 
L 123.69128 48.258738 
L 123.797604 38.32332 
L 123.820943 38.320925 
L 123.940253 33.515048 
L 124.209932 33.490946 
L 124.222898 38.284193 
L 124.316255 38.275939 
L 124.339594 38.273876 
L 124.352561 48.19705 
L 124.451105 48.186517 
L 124.858246 48.143133 
L 124.96457 38.209266 
L 124.987909 38.207211 
L 125.107218 33.403016 
L 125.376897 33.382738 
L 125.389864 38.176173 
L 125.483221 38.169295 
L 125.50656 38.167577 
L 125.519527 48.090947 
L 125.61807 48.081988 
L 126.025212 48.045098 
L 126.131535 38.112804 
L 126.154875 38.111092 
L 126.274184 33.308606 
L 126.543863 33.292216 
L 126.55683 38.085842 
L 126.650187 38.080363 
L 126.673526 38.078994 
L 126.686492 48.002564 
L 126.785036 47.995195 
L 127.192178 47.964864 
L 127.298501 38.034169 
L 127.32184 38.032807 
L 127.44115 33.232059 
L 127.710829 33.219632 
L 127.723795 38.013453 
L 127.817153 38.009399 
L 127.840492 38.008387 
L 127.853458 47.932159 
L 127.952002 47.9264 
L 128.359143 47.902714 
L 128.465467 37.973648 
L 128.488806 37.972642 
L 128.608116 33.173669 
L 128.877795 33.165289 
L 128.890761 37.959309 
L 128.984118 37.956711 
L 129.007458 37.956063 
L 129.020424 47.880042 
L 129.118968 47.875919 
L 129.526109 47.858985 
L 129.632433 37.931584 
L 129.655772 37.930942 
L 129.775082 33.133784 
L 130.044761 33.129547 
L 130.057727 37.923772 
L 130.151084 37.922665 
L 130.174424 37.92239 
L 130.18739 47.846581 
L 130.285934 47.844125 
L 130.693075 47.834073 
L 130.706041 40.684851 
L 154.001292 40.487161 
L 171.915695 40.524905 
L 194.606759 40.846045 
L 207.355909 41.166769 
L 220.805178 41.619836 
L 234.77098 42.222546 
L 249.065654 42.990771 
L 263.498352 43.93824 
L 277.881184 45.075413 
L 292.038535 46.408602 
L 305.806857 47.939129 
L 319.014957 49.660966 
L 331.457085 51.556422 
L 342.889008 53.5928 
L 353.064414 55.724229 
L 361.79575 57.898926 
L 369.004296 60.067096 
L 374.734581 62.184418 
L 379.132618 64.210417 
L 382.404516 66.105114 
L 384.774256 67.82801 
L 386.452354 69.341587 
L 388.416798 71.649374 
L 389.721311 73.764937 
L 390.031782 74.385147 
L 390.031782 74.385147 
" clip-path="url(#p5640f03acb)" style="fill: none; stroke: #0000ff; stroke-width: 1.5; stroke-linecap: square"/>
   </g>
   <g id="line2d_15">
    <path d="M 75.728984 63.055397 
L 76.133165 57.101564 
L 76.593996 53.985849 
L 77.135417 51.775409 
L 77.76941 50.049145 
L 78.49834 48.652366 
L 79.317819 47.507613 
L 80.219124 46.566134 
L 81.190908 45.792562 
L 82.220249 45.159243 
L 84.394896 44.227444 
L 86.622354 43.63188 
L 88.778087 43.270728 
L 92.35375 42.965408 
L 95.165449 42.891759 
L 95.178415 47.930114 
L 95.276959 47.869149 
L 95.6841 47.630724 
L 95.697066 38.781219 
L 95.790424 38.800441 
L 95.813763 38.805242 
L 95.826729 23.481857 
L 95.933073 23.522917 
L 96.202752 23.625438 
L 96.309075 38.975022 
L 96.332414 38.97947 
L 96.345381 47.826585 
L 96.443925 47.769552 
L 96.851066 47.546044 
L 96.864032 38.696685 
L 96.957389 38.715652 
L 96.980729 38.720388 
L 96.993695 23.396889 
L 97.100038 23.436708 
L 97.369717 23.536068 
L 97.476041 38.885295 
L 97.49938 38.889682 
L 97.512347 47.736948 
L 97.61089 47.683322 
L 98.018032 47.47277 
L 98.030998 38.623525 
L 98.124355 38.642139 
L 98.147695 38.646788 
L 98.160661 23.323169 
L 98.267004 23.361724 
L 98.536683 23.457874 
L 98.643007 38.806641 
L 98.666346 38.810943 
L 98.679312 47.65833 
L 98.777856 47.607684 
L 99.184998 47.408485 
L 99.197964 38.55933 
L 99.291321 38.577512 
L 99.31466 38.582052 
L 99.327627 23.258308 
L 99.43397 23.295585 
L 99.703649 23.388485 
L 99.809973 38.736709 
L 99.833312 38.740907 
L 99.846278 47.58839 
L 99.944822 47.540371 
L 100.351963 47.351202 
L 100.36493 38.502117 
L 100.458287 38.5198 
L 100.481626 38.524217 
L 100.494593 23.200344 
L 100.600936 23.236329 
L 100.870615 23.32595 
L 100.976938 38.673562 
L 101.000278 38.67764 
L 101.013244 47.5252 
L 101.111788 47.479515 
L 101.518929 47.29927 
L 101.531896 38.450237 
L 101.625253 38.467369 
L 101.648592 38.471648 
L 101.661558 23.147643 
L 101.767902 23.182327 
L 102.037581 23.268645 
L 102.143904 38.61559 
L 102.167244 38.619534 
L 102.18021 47.467153 
L 102.278754 47.423557 
L 102.685895 47.251304 
L 102.698861 38.402309 
L 102.792219 38.418845 
L 102.815558 38.422976 
L 102.828524 23.098835 
L 102.934868 23.132211 
L 103.204547 23.215211 
L 103.31087 38.56144 
L 103.334209 38.565239 
L 103.347176 47.412903 
L 103.44572 47.371187 
L 103.852861 47.206134 
L 103.865827 38.357166 
L 103.959184 38.373068 
L 103.982524 38.37704 
L 103.99549 23.052763 
L 104.101833 23.084826 
L 104.371512 23.164494 
L 104.477836 38.509968 
L 104.501175 38.513613 
L 104.514142 47.361309 
L 104.612685 47.321294 
L 105.019827 47.162764 
L 105.032793 38.313811 
L 105.12615 38.329048 
L 105.14949 38.332854 
L 105.162456 23.008437 
L 105.268799 23.039184 
L 105.538478 23.115511 
L 105.644802 38.460197 
L 105.668141 38.46368 
L 105.681107 47.311397 
L 105.779651 47.272929 
L 106.186793 47.120336 
L 106.199759 38.271391 
L 106.293116 38.285935 
L 106.316455 38.289569 
L 106.329422 22.965011 
L 106.435765 22.994438 
L 106.705444 23.067418 
L 106.811768 38.411286 
L 106.835107 38.4146 
L 106.848073 47.26233 
L 106.946617 47.225276 
L 107.353758 47.078111 
L 107.366725 38.229165 
L 107.460082 38.242994 
L 107.483421 38.246449 
L 107.496388 22.92175 
L 107.602731 22.949855 
L 107.87241 23.019483 
L 107.978733 38.362508 
L 108.002073 38.365646 
L 108.015039 47.213381 
L 108.113583 47.177624 
L 108.520724 47.035442 
L 108.533691 38.186488 
L 108.627048 38.199582 
L 108.650387 38.202853 
L 108.663353 22.878012 
L 108.769697 22.904793 
L 109.039376 22.971064 
L 109.145699 38.313225 
L 109.169039 38.316183 
L 109.182005 47.163915 
L 109.280549 47.129351 
L 109.68769 46.991759 
L 109.700656 38.142792 
L 109.794014 38.155132 
L 109.817353 38.158215 
L 109.830319 22.83323 
L 109.936663 22.858686 
L 110.206342 22.921597 
L 110.312665 38.262873 
L 110.336004 38.265646 
L 110.348971 47.113369 
L 110.447515 47.079907 
L 110.854656 46.946552 
L 110.867622 38.097566 
L 110.960979 38.109135 
L 110.984319 38.112027 
L 110.997285 22.786897 
L 111.103628 22.811027 
L 111.373307 22.870573 
L 111.479631 38.210945 
L 111.50297 38.213529 
L 111.515937 47.061237 
L 111.61448 47.028794 
L 112.021622 46.899355 
L 112.034588 38.050345 
L 112.127945 38.06113 
L 112.151285 38.063825 
L 112.164251 22.73855 
L 112.270594 22.761352 
L 112.540273 22.817526 
L 112.646597 38.156978 
L 112.669936 38.159368 
L 112.682902 47.007057 
L 112.781446 46.975555 
L 113.188588 46.849736 
L 113.201554 38.000698 
L 113.294911 38.010683 
L 113.31825 38.013179 
L 113.331217 22.687758 
L 113.43756 22.709229 
L 113.707239 22.762023 
L 113.813563 38.100537 
L 113.836902 38.102729 
L 113.849868 46.950394 
L 113.948412 46.919761 
L 114.355553 46.797283 
L 114.36852 37.948212 
L 114.461877 37.957383 
L 114.485216 37.959675 
L 114.498183 22.634107 
L 114.604526 22.654244 
L 114.874205 22.703649 
L 114.980528 38.041207 
L 115.003868 38.043198 
L 115.016834 46.890832 
L 115.115378 46.861 
L 115.522519 46.741596 
L 115.535486 37.892487 
L 115.628843 37.900829 
L 115.652182 37.902915 
L 115.665148 22.577199 
L 115.771492 22.595996 
L 116.041171 22.641998 
L 116.147494 37.978583 
L 116.170834 37.980368 
L 116.1838 46.827968 
L 116.282344 46.79887 
L 116.689485 46.68228 
L 116.702451 37.83313 
L 116.795809 37.840628 
L 116.819148 37.842502 
L 116.832114 22.516637 
L 116.938458 22.534089 
L 117.208137 22.576672 
L 117.31446 37.912264 
L 117.337799 37.913839 
L 117.350766 46.7614 
L 117.44931 46.732971 
L 117.856451 46.618944 
L 117.869417 37.769747 
L 117.962774 37.776385 
L 117.986114 37.778045 
L 117.99908 22.452028 
L 118.105423 22.468128 
L 118.375102 22.50727 
L 118.481426 37.84185 
L 118.504765 37.84321 
L 118.517732 46.690727 
L 118.616275 46.662906 
L 119.023417 46.551196 
L 119.036383 37.70195 
L 119.12974 37.707709 
L 119.15308 37.70915 
L 119.166046 22.382982 
L 119.272389 22.397719 
L 119.542068 22.433395 
L 119.648392 37.766942 
L 119.671731 37.768082 
L 119.684697 46.61555 
L 119.783241 46.588276 
L 120.190383 46.478646 
L 120.203349 37.629346 
L 120.296706 37.634209 
L 120.320045 37.635426 
L 120.333012 22.309104 
L 120.439355 22.322469 
L 120.709034 22.354646 
L 120.815358 37.687138 
L 120.838697 37.688053 
L 120.851663 46.535468 
L 120.950207 46.508681 
L 121.357348 46.400902 
L 121.370315 37.551543 
L 121.463672 37.555491 
L 121.487011 37.556479 
L 121.499978 22.230001 
L 121.606321 22.241979 
L 121.876 22.270622 
L 121.982323 37.602034 
L 122.005663 37.602718 
L 122.018629 46.450075 
L 122.117173 46.423718 
L 122.524314 46.317563 
L 122.537281 37.46814 
L 122.630638 37.471152 
L 122.653977 37.471906 
L 122.666943 22.14527 
L 122.773287 22.155845 
L 123.042966 22.18091 
L 123.149289 37.511215 
L 123.172629 37.511663 
L 123.185595 46.358957 
L 123.284139 46.332973 
L 123.69128 46.228214 
L 123.704246 37.378723 
L 123.797604 37.380775 
L 123.820943 37.381289 
L 123.833909 22.054492 
L 123.940253 22.063646 
L 124.209932 22.085081 
L 124.316255 37.41425 
L 124.339594 37.414455 
L 124.352561 46.26168 
L 124.451105 46.23601 
L 124.858246 46.13241 
L 124.871212 37.282846 
L 124.96457 37.283912 
L 124.987909 37.28418 
L 125.000875 21.95722 
L 125.107218 21.96493 
L 125.376897 21.982677 
L 125.389864 37.310867 
L 125.483221 37.310677 
L 125.50656 37.310631 
L 125.519527 46.157782 
L 125.61807 46.132364 
L 126.025212 46.029671 
L 126.131535 37.18008 
L 126.154875 37.180094 
L 126.167841 21.852967 
L 126.274184 21.859208 
L 126.543863 21.873198 
L 126.55683 37.201218 
L 126.650187 37.199993 
L 126.673526 37.199688 
L 126.686492 46.046759 
L 126.785036 46.021525 
L 127.192178 45.91947 
L 127.298501 37.068746 
L 127.32184 37.068499 
L 127.334807 21.7412 
L 127.44115 21.745943 
L 127.710829 21.756097 
L 127.723795 37.083943 
L 127.817153 37.081646 
L 127.840492 37.081073 
L 127.853458 45.928056 
L 127.952002 45.902935 
L 128.359143 45.801225 
L 128.465467 36.949326 
L 128.488806 36.948807 
L 128.501773 21.621333 
L 128.608116 21.624545 
L 128.877795 21.630773 
L 128.890761 36.95844 
L 128.984118 36.955029 
L 129.007458 36.954178 
L 129.020424 45.801067 
L 129.118968 45.775981 
L 129.526109 45.674304 
L 129.632433 36.821182 
L 129.655772 36.820382 
L 129.668738 21.492727 
L 129.775082 21.494369 
L 130.044761 21.49657 
L 130.057727 36.824052 
L 130.151084 36.819483 
L 130.174424 36.818342 
L 130.18739 45.665129 
L 130.285934 45.639996 
L 130.693075 45.538022 
L 130.706041 40.494078 
L 137.52503 39.966611 
L 147.108889 39.516667 
L 162.296327 39.199067 
L 182.736669 39.17811 
L 207.355909 39.47791 
L 234.77098 40.052342 
L 263.498352 40.83357 
L 292.038535 41.758732 
L 319.014957 42.829684 
L 331.457085 43.457818 
L 342.889008 44.18874 
L 353.064414 45.061475 
L 361.79575 46.111902 
L 369.004296 47.362409 
L 374.734581 48.814888 
L 379.132618 50.44983 
L 382.404516 52.230184 
L 384.774256 54.106535 
L 386.452354 56.021075 
L 387.618639 57.910068 
L 388.416798 59.706628 
L 389.317833 62.778441 
L 389.83235 65.704722 
L 390.031782 67.386341 
L 390.031782 67.386341 
" clip-path="url(#p5640f03acb)" style="fill: none; stroke: #ff0000; stroke-width: 1.5; stroke-linecap: square"/>
   </g>
   <g id="line2d_16">
    <path d="M 75.728984 228.104692 
L 95.165449 228.10793 
L 95.276959 235.256948 
L 95.6841 235.257088 
L 95.790424 225.332728 
L 95.813763 225.332736 
L 95.933073 220.538411 
L 96.202752 220.538524 
L 96.309075 225.332943 
L 96.332414 225.332954 
L 96.443925 235.257405 
L 96.851066 235.257606 
L 96.957389 225.333262 
L 96.980729 225.333273 
L 97.100038 220.538965 
L 97.369717 220.539117 
L 97.476041 225.333551 
L 97.49938 225.333566 
L 97.61089 235.258034 
L 98.018032 235.258295 
L 98.124355 225.333967 
L 98.147695 225.333981 
L 98.267004 220.53969 
L 98.536683 220.53988 
L 98.643007 225.33433 
L 98.666346 225.334349 
L 98.777856 235.258833 
L 99.184998 235.259156 
L 99.291321 225.334842 
L 99.31466 225.334861 
L 99.43397 220.540586 
L 99.703649 220.540815 
L 99.809973 225.335281 
L 99.833312 225.335303 
L 99.944822 235.259804 
L 100.351963 235.260187 
L 100.458287 225.335889 
L 100.481626 225.335911 
L 100.600936 220.541654 
L 100.870615 220.541921 
L 100.976938 225.336403 
L 101.000278 225.336428 
L 101.111788 235.260945 
L 101.518929 235.26139 
L 101.625253 225.337108 
L 101.648592 225.337133 
L 101.767902 220.542892 
L 102.037581 220.543199 
L 102.143904 225.337696 
L 102.167244 225.337724 
L 102.278754 235.262258 
L 102.685895 235.262763 
L 102.792219 225.338497 
L 102.815558 225.338525 
L 102.934868 220.544302 
L 103.204547 220.544647 
L 103.31087 225.33916 
L 103.334209 225.339192 
L 103.44572 235.263743 
L 103.852861 235.264308 
L 103.865827 225.33993 
L 103.959184 225.340058 
L 103.982524 225.34009 
L 104.101833 220.545884 
L 104.371512 220.546267 
L 104.477836 225.340795 
L 104.501175 225.34083 
L 104.612685 235.265398 
L 105.019827 235.266025 
L 105.032793 225.341648 
L 105.12615 225.34179 
L 105.14949 225.341825 
L 105.268799 220.547636 
L 105.538478 220.548058 
L 105.644802 225.342602 
L 105.668141 225.342641 
L 105.779651 235.267225 
L 106.186793 235.267912 
L 106.199759 225.343538 
L 106.293116 225.343693 
L 106.316455 225.343732 
L 106.435765 220.54956 
L 106.705444 220.550021 
L 106.811768 225.34458 
L 106.835107 225.344622 
L 106.946617 235.269223 
L 107.353758 235.269971 
L 107.366725 225.345599 
L 107.460082 225.345768 
L 107.483421 225.34581 
L 107.602731 220.551655 
L 107.87241 220.552155 
L 107.978733 225.34673 
L 108.002073 225.346775 
L 108.113583 235.271393 
L 108.520724 235.272202 
L 108.533691 225.347831 
L 108.627048 225.348014 
L 108.650387 225.348059 
L 108.769697 220.553922 
L 109.039376 220.55446 
L 109.145699 225.349051 
L 109.169039 225.3491 
L 109.280549 235.273734 
L 109.68769 235.274604 
L 109.700656 225.350235 
L 109.794014 225.350431 
L 109.817353 225.350481 
L 109.936663 220.55636 
L 110.206342 220.556937 
L 110.312665 225.351543 
L 110.336004 225.351596 
L 110.447515 235.276247 
L 110.854656 235.277178 
L 110.867622 225.352811 
L 110.960979 225.353021 
L 110.984319 225.353073 
L 111.103628 220.55897 
L 111.373307 220.559586 
L 111.479631 225.354208 
L 111.50297 225.354263 
L 111.61448 235.278931 
L 112.021622 235.279923 
L 112.034588 225.355558 
L 112.127945 225.355782 
L 112.151285 225.355838 
L 112.270594 220.561752 
L 112.540273 220.562406 
L 112.646597 225.357043 
L 112.669936 225.357103 
L 112.781446 235.281787 
L 113.188588 235.28284 
L 113.201554 225.358477 
L 113.294911 225.358715 
L 113.31825 225.358774 
L 113.43756 220.564705 
L 113.707239 220.565398 
L 113.813563 225.360051 
L 113.836902 225.360114 
L 113.948412 235.284815 
L 114.355553 235.285929 
L 114.36852 225.361568 
L 114.461877 225.361819 
L 114.485216 225.361882 
L 114.604526 220.56783 
L 114.874205 220.568562 
L 114.980528 225.363231 
L 115.003868 225.363297 
L 115.115378 235.288015 
L 115.522519 235.28919 
L 115.535486 225.36483 
L 115.628843 225.365096 
L 115.652182 225.365162 
L 115.665148 220.57083 
L 115.771492 220.571127 
L 116.041171 220.571898 
L 116.147494 225.366582 
L 116.170834 225.366652 
L 116.282344 235.291386 
L 116.689485 235.292623 
L 116.702451 225.368265 
L 116.795809 225.368544 
L 116.819148 225.368614 
L 116.832114 220.574284 
L 116.938458 220.574597 
L 117.208137 220.575406 
L 117.31446 225.370106 
L 117.337799 225.370179 
L 117.44931 235.29493 
L 117.856451 235.296227 
L 117.869417 225.371872 
L 117.962774 225.372165 
L 117.986114 225.372238 
L 117.99908 220.57791 
L 118.105423 220.578238 
L 118.375102 220.579086 
L 118.481426 225.373802 
L 118.504765 225.373878 
L 118.616275 235.298646 
L 119.023417 235.300005 
L 119.036383 225.375651 
L 119.12974 225.375958 
L 119.15308 225.376034 
L 119.166046 220.581708 
L 119.272389 220.582051 
L 119.542068 220.582938 
L 119.648392 225.37767 
L 119.671731 225.37775 
L 119.783241 235.302534 
L 120.190383 235.303954 
L 120.203349 225.379602 
L 120.296706 225.379923 
L 120.320045 225.380003 
L 120.333012 220.585679 
L 120.439355 220.586037 
L 120.709034 220.586963 
L 120.815358 225.38171 
L 120.838697 225.381794 
L 120.950207 235.306595 
L 121.357348 235.308076 
L 121.370315 225.383726 
L 121.463672 225.38406 
L 121.487011 225.384144 
L 121.499978 220.589822 
L 121.606321 220.590195 
L 121.876 220.59116 
L 121.982323 225.385923 
L 122.005663 225.38601 
L 122.117173 235.310828 
L 122.524314 235.31237 
L 122.537281 225.388022 
L 122.630638 225.38837 
L 122.653977 225.388458 
L 122.666943 220.594137 
L 122.773287 220.594526 
L 123.042966 220.59553 
L 123.149289 225.390309 
L 123.172629 225.390399 
L 123.284139 235.315234 
L 123.69128 235.316837 
L 123.704246 225.392491 
L 123.797604 225.392853 
L 123.820943 225.392944 
L 123.833909 220.598626 
L 123.940253 220.59903 
L 124.209932 220.600072 
L 124.316255 225.394867 
L 124.339594 225.394961 
L 124.451105 235.319812 
L 124.858246 235.321477 
L 124.871212 225.397133 
L 124.96457 225.397509 
L 124.987909 225.397603 
L 125.000875 220.603286 
L 125.107218 220.603706 
L 125.376897 220.604788 
L 125.483221 225.399598 
L 125.50656 225.399695 
L 125.61807 235.324564 
L 126.025212 235.32629 
L 126.038178 225.401948 
L 126.131535 225.402337 
L 126.154875 225.402435 
L 126.167841 220.60812 
L 126.274184 220.608555 
L 126.543863 220.609676 
L 126.650187 225.404502 
L 126.673526 225.404603 
L 126.785036 235.329488 
L 127.192178 235.331276 
L 127.205144 225.406936 
L 127.298501 225.407339 
L 127.32184 225.40744 
L 127.334807 220.613127 
L 127.44115 220.613578 
L 127.710829 220.614738 
L 127.817153 225.409579 
L 127.840492 225.409683 
L 127.952002 235.334586 
L 128.359143 235.336435 
L 128.37211 225.412097 
L 128.465467 225.412514 
L 128.488806 225.412618 
L 128.501773 220.618307 
L 128.608116 220.618773 
L 128.877795 220.619972 
L 128.984118 225.41483 
L 129.007458 225.414937 
L 129.118968 235.339856 
L 129.526109 235.341767 
L 129.539076 225.417431 
L 129.632433 225.417862 
L 129.655772 225.41797 
L 129.668738 220.623661 
L 129.775082 220.624142 
L 130.044761 220.62538 
L 130.151084 225.420254 
L 130.174424 225.420365 
L 130.285934 235.345301 
L 130.693075 235.347273 
L 130.706041 228.198355 
L 390.031782 229.360864 
L 390.031782 229.360864 
" clip-path="url(#p5640f03acb)" style="fill: none; stroke-dasharray: 5.55,2.4; stroke-dashoffset: 0; stroke: #0000ff; stroke-width: 1.5"/>
   </g>
   <g id="line2d_17">
    <path d="M 75.728984 70.517934 
L 95.165449 70.514697 
L 95.276959 75.556522 
L 95.6841 75.556382 
L 95.790424 66.707911 
L 95.813763 66.707903 
L 95.933073 51.380195 
L 96.202752 51.380082 
L 96.309075 66.707696 
L 96.332414 66.707685 
L 96.443925 75.556065 
L 96.851066 75.555864 
L 96.957389 66.707377 
L 96.980729 66.707366 
L 97.100038 51.379641 
L 97.369717 51.379489 
L 97.476041 66.707088 
L 97.49938 66.707073 
L 97.61089 75.555436 
L 98.018032 75.555175 
L 98.124355 66.706672 
L 98.147695 66.706658 
L 98.267004 51.378916 
L 98.536683 51.378726 
L 98.643007 66.706309 
L 98.666346 66.70629 
L 98.777856 75.554637 
L 99.184998 75.554314 
L 99.291321 66.705797 
L 99.31466 66.705778 
L 99.43397 51.37802 
L 99.703649 51.377791 
L 99.716615 66.705444 
L 99.809973 66.705358 
L 99.833312 66.705337 
L 99.944822 75.553666 
L 100.351963 75.553283 
L 100.458287 66.70475 
L 100.481626 66.704728 
L 100.600936 51.376952 
L 100.870615 51.376685 
L 100.883581 66.704336 
L 100.976938 66.704236 
L 101.000278 66.704211 
L 101.111788 75.552525 
L 101.518929 75.552081 
L 101.625253 66.703532 
L 101.648592 66.703506 
L 101.767902 51.375713 
L 102.037581 51.375407 
L 102.050547 66.703057 
L 102.143904 66.702944 
L 102.167244 66.702915 
L 102.278754 75.551212 
L 102.685895 75.550707 
L 102.792219 66.702142 
L 102.815558 66.702114 
L 102.934868 51.374304 
L 103.204547 51.373959 
L 103.217513 66.701607 
L 103.31087 66.701479 
L 103.334209 66.701448 
L 103.44572 75.549727 
L 103.852861 75.549162 
L 103.959184 66.700582 
L 103.982524 66.70055 
L 104.101833 51.372722 
L 104.371512 51.372339 
L 104.384479 66.699985 
L 104.477836 66.699844 
L 104.501175 66.699809 
L 104.514142 75.548223 
L 104.612685 75.548072 
L 105.019827 75.547445 
L 105.12615 66.69885 
L 105.14949 66.698814 
L 105.268799 51.37097 
L 105.538478 51.370548 
L 105.551445 66.698192 
L 105.644802 66.698037 
L 105.668141 66.697998 
L 105.681107 75.546411 
L 105.779651 75.546245 
L 106.186793 75.545558 
L 106.293116 66.696946 
L 106.316455 66.696907 
L 106.435765 51.369046 
L 106.705444 51.368585 
L 106.71841 66.696227 
L 106.811768 66.696059 
L 106.835107 66.696017 
L 106.848073 75.544428 
L 106.946617 75.544247 
L 107.353758 75.543499 
L 107.460082 66.694872 
L 107.483421 66.694829 
L 107.602731 51.366951 
L 107.87241 51.366451 
L 107.885376 66.694092 
L 107.978733 66.693909 
L 108.002073 66.693864 
L 108.015039 75.542273 
L 108.113583 75.542077 
L 108.520724 75.541268 
L 108.627048 66.692625 
L 108.650387 66.69258 
L 108.769697 51.364684 
L 109.039376 51.364146 
L 109.052342 66.691784 
L 109.145699 66.691588 
L 109.169039 66.691539 
L 109.182005 75.539947 
L 109.280549 75.539736 
L 109.68769 75.538866 
L 109.794014 66.690208 
L 109.817353 66.690158 
L 109.936663 51.362246 
L 110.206342 51.361669 
L 110.219308 66.689305 
L 110.312665 66.689096 
L 110.336004 66.689043 
L 110.348971 75.537449 
L 110.447515 75.537223 
L 110.854656 75.536292 
L 110.960979 66.687618 
L 110.984319 66.687566 
L 111.103628 51.359636 
L 111.373307 51.35902 
L 111.386274 66.686655 
L 111.479631 66.686432 
L 111.50297 66.686376 
L 111.515937 75.534779 
L 111.61448 75.534539 
L 112.021622 75.533547 
L 112.127945 66.684857 
L 112.151285 66.684801 
L 112.270594 51.356854 
L 112.540273 51.3562 
L 112.55324 66.683833 
L 112.646597 66.683596 
L 112.669936 66.683536 
L 112.682902 75.531938 
L 112.781446 75.531683 
L 113.188588 75.53063 
L 113.294911 66.681925 
L 113.31825 66.681865 
L 113.43756 51.353901 
L 113.707239 51.353208 
L 113.720205 66.680839 
L 113.813563 66.680588 
L 113.836902 66.680525 
L 113.849868 75.528924 
L 113.948412 75.528655 
L 114.355553 75.527541 
L 114.461877 66.67882 
L 114.485216 66.678757 
L 114.604526 51.350776 
L 114.874205 51.350044 
L 114.887171 66.677673 
L 114.980528 66.677408 
L 115.003868 66.677342 
L 115.016834 75.52574 
L 115.115378 75.525455 
L 115.522519 75.52428 
L 115.628843 66.675543 
L 115.652182 66.675477 
L 115.771492 51.347478 
L 116.041171 51.346708 
L 116.054137 66.674335 
L 116.147494 66.674057 
L 116.170834 66.673987 
L 116.1838 75.522383 
L 116.282344 75.522084 
L 116.689485 75.520848 
L 116.795809 66.672095 
L 116.819148 66.672025 
L 116.938458 51.344009 
L 117.208137 51.3432 
L 117.221103 66.670825 
L 117.31446 66.670533 
L 117.337799 66.67046 
L 117.350766 75.518854 
L 117.44931 75.51854 
L 117.856451 75.517243 
L 117.962774 66.668474 
L 117.986114 66.668401 
L 118.105423 51.340368 
L 118.375102 51.33952 
L 118.388069 66.667143 
L 118.481426 66.666837 
L 118.504765 66.666761 
L 118.517732 75.515152 
L 118.616275 75.514824 
L 119.023417 75.513466 
L 119.12974 66.664681 
L 119.15308 66.664605 
L 119.272389 51.336555 
L 119.542068 51.335668 
L 119.555035 66.663289 
L 119.648392 66.662969 
L 119.671731 66.662889 
L 119.684697 75.511279 
L 119.783241 75.510936 
L 120.190383 75.509516 
L 120.296706 66.660716 
L 120.320045 66.660636 
L 120.439355 51.332569 
L 120.709034 51.331643 
L 120.722 66.659262 
L 120.815358 66.658929 
L 120.838697 66.658845 
L 120.851663 75.507233 
L 120.950207 75.506875 
L 121.357348 75.505394 
L 121.463672 66.656579 
L 121.487011 66.656495 
L 121.606321 51.32841 
L 121.876 51.327446 
L 121.888966 66.655063 
L 121.982323 66.654716 
L 122.005663 66.654629 
L 122.018629 75.503015 
L 122.117173 75.502642 
L 122.524314 75.5011 
L 122.630638 66.652269 
L 122.653977 66.652182 
L 122.773287 51.32408 
L 123.042966 51.323076 
L 123.055932 66.650692 
L 123.149289 66.65033 
L 123.172629 66.65024 
L 123.185595 75.498624 
L 123.284139 75.498236 
L 123.69128 75.496633 
L 123.797604 66.647786 
L 123.820943 66.647695 
L 123.940253 51.319576 
L 124.209932 51.318533 
L 124.222898 66.646147 
L 124.316255 66.645772 
L 124.339594 66.645678 
L 124.352561 75.49406 
L 124.451105 75.493658 
L 124.858246 75.491993 
L 124.96457 66.64313 
L 124.987909 66.643036 
L 125.107218 51.3149 
L 125.376897 51.313818 
L 125.389864 66.64143 
L 125.483221 66.641041 
L 125.50656 66.640944 
L 125.519527 75.489324 
L 125.61807 75.488906 
L 126.025212 75.48718 
L 126.131535 66.638302 
L 126.154875 66.638204 
L 126.274184 51.310051 
L 126.543863 51.30893 
L 126.55683 66.63654 
L 126.650187 66.636137 
L 126.673526 66.636036 
L 126.686492 75.484414 
L 126.785036 75.483982 
L 127.192178 75.482194 
L 127.298501 66.6333 
L 127.32184 66.633199 
L 127.44115 51.305028 
L 127.710829 51.303868 
L 127.723795 66.631477 
L 127.817153 66.63106 
L 127.840492 66.630956 
L 127.853458 75.479332 
L 127.952002 75.478884 
L 128.359143 75.477035 
L 128.465467 66.628125 
L 128.488806 66.628021 
L 128.608116 51.299833 
L 128.877795 51.298634 
L 128.890761 66.62624 
L 128.984118 66.625809 
L 129.007458 66.625702 
L 129.020424 75.474076 
L 129.118968 75.473614 
L 129.526109 75.471703 
L 129.632433 66.622777 
L 129.655772 66.622669 
L 129.775082 51.294464 
L 130.044761 51.293226 
L 130.057727 66.62083 
L 130.151084 66.620386 
L 130.174424 66.620274 
L 130.18739 75.468647 
L 130.285934 75.46817 
L 130.693075 75.466197 
L 130.706041 70.424272 
L 390.031782 69.261763 
L 390.031782 69.261763 
" clip-path="url(#p5640f03acb)" style="fill: none; stroke-dasharray: 5.55,2.4; stroke-dashoffset: 0; stroke: #ff0000; stroke-width: 1.5"/>
   </g>
   <g id="patch_3">
    <path d="M 60.013844 246.04 
L 60.013844 10.8 
" style="fill: none; stroke: #000000; stroke-width: 0.8; stroke-linejoin: miter; stroke-linecap: square"/>
   </g>
   <g id="patch_4">
    <path d="M 405.746922 246.04 
L 405.746922 10.8 
" style="fill: none; stroke: #000000; stroke-width: 0.8; stroke-linejoin: miter; stroke-linecap: square"/>
   </g>
   <g id="patch_5">
    <path d="M 60.013844 246.04 
L 405.746922 246.04 
" style="fill: none; stroke: #000000; stroke-width: 0.8; stroke-linejoin: miter; stroke-linecap: square"/>
   </g>
   <g id="patch_6">
    <path d="M 60.013844 10.8 
L 405.746922 10.8 
" style="fill: none; stroke: #000000; stroke-width: 0.8; stroke-linejoin: miter; stroke-linecap: square"/>
   </g>
  </g>
  <g id="axes_2">
   <g id="patch_7">
    <path d="M 453.466922 246.04 
L 799.2 246.04 
L 799.2 10.8 
L 453.466922 10.8 
z
" style="fill: #ffffff"/>
   </g>
   <g id="matplotlib.axis_3">
    <g id="xtick_6">
     <g id="line2d_18">
      <g>
       <use xlink:href="#m113effbfa2" x="475.07524" y="246.04" style="stroke: #000000; stroke-width: 0.8"/>
      </g>
     </g>
     <g id="text_16">
      <!-- 400 -->
      <g transform="translate(465.53149 260.638438) scale(0.1 -0.1)">
       <defs>
        <path id="DejaVuSans-34" d="M 2419 4116 
L 825 1625 
L 2419 1625 
L 2419 4116 
z
M 2253 4666 
L 3047 4666 
L 3047 1625 
L 3713 1625 
L 3713 1100 
L 3047 1100 
L 3047 0 
L 2419 0 
L 2419 1100 
L 313 1100 
L 313 1709 
L 2253 4666 
z
" transform="scale(0.015625)"/>
       </defs>
       <use xlink:href="#DejaVuSans-34"/>
       <use xlink:href="#DejaVuSans-30" x="63.623047"/>
       <use xlink:href="#DejaVuSans-30" x="127.246094"/>
      </g>
     </g>
    </g>
    <g id="xtick_7">
     <g id="line2d_19">
      <g>
       <use xlink:href="#m113effbfa2" x="518.291874" y="246.04" style="stroke: #000000; stroke-width: 0.8"/>
      </g>
     </g>
     <g id="text_17">
      <!-- 500 -->
      <g transform="translate(508.748124 260.638438) scale(0.1 -0.1)">
       <use xlink:href="#DejaVuSans-35"/>
       <use xlink:href="#DejaVuSans-30" x="63.623047"/>
       <use xlink:href="#DejaVuSans-30" x="127.246094"/>
      </g>
     </g>
    </g>
    <g id="xtick_8">
     <g id="line2d_20">
      <g>
       <use xlink:href="#m113effbfa2" x="561.508509" y="246.04" style="stroke: #000000; stroke-width: 0.8"/>
      </g>
     </g>
     <g id="text_18">
      <!-- 600 -->
      <g transform="translate(551.964759 260.638438) scale(0.1 -0.1)">
       <defs>
        <path id="DejaVuSans-36" d="M 2113 2584 
Q 1688 2584 1439 2293 
Q 1191 2003 1191 1497 
Q 1191 994 1439 701 
Q 1688 409 2113 409 
Q 2538 409 2786 701 
Q 3034 994 3034 1497 
Q 3034 2003 2786 2293 
Q 2538 2584 2113 2584 
z
M 3366 4563 
L 3366 3988 
Q 3128 4100 2886 4159 
Q 2644 4219 2406 4219 
Q 1781 4219 1451 3797 
Q 1122 3375 1075 2522 
Q 1259 2794 1537 2939 
Q 1816 3084 2150 3084 
Q 2853 3084 3261 2657 
Q 3669 2231 3669 1497 
Q 3669 778 3244 343 
Q 2819 -91 2113 -91 
Q 1303 -91 875 529 
Q 447 1150 447 2328 
Q 447 3434 972 4092 
Q 1497 4750 2381 4750 
Q 2619 4750 2861 4703 
Q 3103 4656 3366 4563 
z
" transform="scale(0.015625)"/>
       </defs>
       <use xlink:href="#DejaVuSans-36"/>
       <use xlink:href="#DejaVuSans-30" x="63.623047"/>
       <use xlink:href="#DejaVuSans-30" x="127.246094"/>
      </g>
     </g>
    </g>
    <g id="xtick_9">
     <g id="line2d_21">
      <g>
       <use xlink:href="#m113effbfa2" x="604.725144" y="246.04" style="stroke: #000000; stroke-width: 0.8"/>
      </g>
     </g>
     <g id="text_19">
      <!-- 700 -->
      <g transform="translate(595.181394 260.638438) scale(0.1 -0.1)">
       <use xlink:href="#DejaVuSans-37"/>
       <use xlink:href="#DejaVuSans-30" x="63.623047"/>
       <use xlink:href="#DejaVuSans-30" x="127.246094"/>
      </g>
     </g>
    </g>
    <g id="xtick_10">
     <g id="line2d_22">
      <g>
       <use xlink:href="#m113effbfa2" x="647.941778" y="246.04" style="stroke: #000000; stroke-width: 0.8"/>
      </g>
     </g>
     <g id="text_20">
      <!-- 800 -->
      <g transform="translate(638.398028 260.638438) scale(0.1 -0.1)">
       <defs>
        <path id="DejaVuSans-38" d="M 2034 2216 
Q 1584 2216 1326 1975 
Q 1069 1734 1069 1313 
Q 1069 891 1326 650 
Q 1584 409 2034 409 
Q 2484 409 2743 651 
Q 3003 894 3003 1313 
Q 3003 1734 2745 1975 
Q 2488 2216 2034 2216 
z
M 1403 2484 
Q 997 2584 770 2862 
Q 544 3141 544 3541 
Q 544 4100 942 4425 
Q 1341 4750 2034 4750 
Q 2731 4750 3128 4425 
Q 3525 4100 3525 3541 
Q 3525 3141 3298 2862 
Q 3072 2584 2669 2484 
Q 3125 2378 3379 2068 
Q 3634 1759 3634 1313 
Q 3634 634 3220 271 
Q 2806 -91 2034 -91 
Q 1263 -91 848 271 
Q 434 634 434 1313 
Q 434 1759 690 2068 
Q 947 2378 1403 2484 
z
M 1172 3481 
Q 1172 3119 1398 2916 
Q 1625 2713 2034 2713 
Q 2441 2713 2670 2916 
Q 2900 3119 2900 3481 
Q 2900 3844 2670 4047 
Q 2441 4250 2034 4250 
Q 1625 4250 1398 4047 
Q 1172 3844 1172 3481 
z
" transform="scale(0.015625)"/>
       </defs>
       <use xlink:href="#DejaVuSans-38"/>
       <use xlink:href="#DejaVuSans-30" x="63.623047"/>
       <use xlink:href="#DejaVuSans-30" x="127.246094"/>
      </g>
     </g>
    </g>
    <g id="xtick_11">
     <g id="line2d_23">
      <g>
       <use xlink:href="#m113effbfa2" x="691.158413" y="246.04" style="stroke: #000000; stroke-width: 0.8"/>
      </g>
     </g>
     <g id="text_21">
      <!-- 900 -->
      <g transform="translate(681.614663 260.638438) scale(0.1 -0.1)">
       <use xlink:href="#DejaVuSans-39"/>
       <use xlink:href="#DejaVuSans-30" x="63.623047"/>
       <use xlink:href="#DejaVuSans-30" x="127.246094"/>
      </g>
     </g>
    </g>
    <g id="xtick_12">
     <g id="line2d_24">
      <g>
       <use xlink:href="#m113effbfa2" x="734.375048" y="246.04" style="stroke: #000000; stroke-width: 0.8"/>
      </g>
     </g>
     <g id="text_22">
      <!-- 1000 -->
      <g transform="translate(721.650048 260.638438) scale(0.1 -0.1)">
       <use xlink:href="#DejaVuSans-31"/>
       <use xlink:href="#DejaVuSans-30" x="63.623047"/>
       <use xlink:href="#DejaVuSans-30" x="127.246094"/>
       <use xlink:href="#DejaVuSans-30" x="190.869141"/>
      </g>
     </g>
    </g>
    <g id="xtick_13">
     <g id="line2d_25">
      <g>
       <use xlink:href="#m113effbfa2" x="777.591683" y="246.04" style="stroke: #000000; stroke-width: 0.8"/>
      </g>
     </g>
     <g id="text_23">
      <!-- 1100 -->
      <g transform="translate(764.866683 260.638438) scale(0.1 -0.1)">
       <use xlink:href="#DejaVuSans-31"/>
       <use xlink:href="#DejaVuSans-31" x="63.623047"/>
       <use xlink:href="#DejaVuSans-30" x="127.246094"/>
       <use xlink:href="#DejaVuSans-30" x="190.869141"/>
      </g>
     </g>
    </g>
    <g id="text_24">
     <!-- Wavelength (nm) -->
     <g transform="translate(583.141274 274.316562) scale(0.1 -0.1)">
      <defs>
       <path id="DejaVuSans-57" d="M 213 4666 
L 850 4666 
L 1831 722 
L 2809 4666 
L 3519 4666 
L 4500 722 
L 5478 4666 
L 6119 4666 
L 4947 0 
L 4153 0 
L 3169 4050 
L 2175 0 
L 1381 0 
L 213 4666 
z
" transform="scale(0.015625)"/>
       <path id="DejaVuSans-76" d="M 191 3500 
L 800 3500 
L 1894 563 
L 2988 3500 
L 3597 3500 
L 2284 0 
L 1503 0 
L 191 3500 
z
" transform="scale(0.015625)"/>
       <path id="DejaVuSans-6c" d="M 603 4863 
L 1178 4863 
L 1178 0 
L 603 0 
L 603 4863 
z
" transform="scale(0.015625)"/>
       <path id="DejaVuSans-67" d="M 2906 1791 
Q 2906 2416 2648 2759 
Q 2391 3103 1925 3103 
Q 1463 3103 1205 2759 
Q 947 2416 947 1791 
Q 947 1169 1205 825 
Q 1463 481 1925 481 
Q 2391 481 2648 825 
Q 2906 1169 2906 1791 
z
M 3481 434 
Q 3481 -459 3084 -895 
Q 2688 -1331 1869 -1331 
Q 1566 -1331 1297 -1286 
Q 1028 -1241 775 -1147 
L 775 -588 
Q 1028 -725 1275 -790 
Q 1522 -856 1778 -856 
Q 2344 -856 2625 -561 
Q 2906 -266 2906 331 
L 2906 616 
Q 2728 306 2450 153 
Q 2172 0 1784 0 
Q 1141 0 747 490 
Q 353 981 353 1791 
Q 353 2603 747 3093 
Q 1141 3584 1784 3584 
Q 2172 3584 2450 3431 
Q 2728 3278 2906 2969 
L 2906 3500 
L 3481 3500 
L 3481 434 
z
" transform="scale(0.015625)"/>
       <path id="DejaVuSans-68" d="M 3513 2113 
L 3513 0 
L 2938 0 
L 2938 2094 
Q 2938 2591 2744 2837 
Q 2550 3084 2163 3084 
Q 1697 3084 1428 2787 
Q 1159 2491 1159 1978 
L 1159 0 
L 581 0 
L 581 4863 
L 1159 4863 
L 1159 2956 
Q 1366 3272 1645 3428 
Q 1925 3584 2291 3584 
Q 2894 3584 3203 3211 
Q 3513 2838 3513 2113 
z
" transform="scale(0.015625)"/>
      </defs>
      <use xlink:href="#DejaVuSans-57"/>
      <use xlink:href="#DejaVuSans-61" x="92.501953"/>
      <use xlink:href="#DejaVuSans-76" x="153.78125"/>
      <use xlink:href="#DejaVuSans-65" x="212.960938"/>
      <use xlink:href="#DejaVuSans-6c" x="274.484375"/>
      <use xlink:href="#DejaVuSans-65" x="302.267578"/>
      <use xlink:href="#DejaVuSans-6e" x="363.791016"/>
      <use xlink:href="#DejaVuSans-67" x="427.169922"/>
      <use xlink:href="#DejaVuSans-74" x="490.646484"/>
      <use xlink:href="#DejaVuSans-68" x="529.855469"/>
      <use xlink:href="#DejaVuSans-20" x="593.234375"/>
      <use xlink:href="#DejaVuSans-28" x="625.021484"/>
      <use xlink:href="#DejaVuSans-6e" x="664.035156"/>
      <use xlink:href="#DejaVuSans-6d" x="727.414062"/>
      <use xlink:href="#DejaVuSans-29" x="824.826172"/>
     </g>
    </g>
   </g>
   <g id="matplotlib.axis_4">
    <g id="ytick_9">
     <g id="line2d_26">
      <g>
       <use xlink:href="#mff1c135130" x="453.466922" y="246.04" style="stroke: #000000; stroke-width: 0.8"/>
      </g>
     </g>
     <g id="text_25">
      <!-- 0.0 -->
      <g transform="translate(430.563797 249.839219) scale(0.1 -0.1)">
       <defs>
        <path id="DejaVuSans-2e" d="M 684 794 
L 1344 794 
L 1344 0 
L 684 0 
L 684 794 
z
" transform="scale(0.015625)"/>
       </defs>
       <use xlink:href="#DejaVuSans-30"/>
       <use xlink:href="#DejaVuSans-2e" x="63.623047"/>
       <use xlink:href="#DejaVuSans-30" x="95.410156"/>
      </g>
     </g>
    </g>
    <g id="ytick_10">
     <g id="line2d_27">
      <g>
       <use xlink:href="#mff1c135130" x="453.466922" y="203.269091" style="stroke: #000000; stroke-width: 0.8"/>
      </g>
     </g>
     <g id="text_26">
      <!-- 0.2 -->
      <g transform="translate(430.563797 207.06831) scale(0.1 -0.1)">
       <use xlink:href="#DejaVuSans-30"/>
       <use xlink:href="#DejaVuSans-2e" x="63.623047"/>
       <use xlink:href="#DejaVuSans-32" x="95.410156"/>
      </g>
     </g>
    </g>
    <g id="ytick_11">
     <g id="line2d_28">
      <g>
       <use xlink:href="#mff1c135130" x="453.466922" y="160.498182" style="stroke: #000000; stroke-width: 0.8"/>
      </g>
     </g>
     <g id="text_27">
      <!-- 0.4 -->
      <g transform="translate(430.563797 164.297401) scale(0.1 -0.1)">
       <use xlink:href="#DejaVuSans-30"/>
       <use xlink:href="#DejaVuSans-2e" x="63.623047"/>
       <use xlink:href="#DejaVuSans-34" x="95.410156"/>
      </g>
     </g>
    </g>
    <g id="ytick_12">
     <g id="line2d_29">
      <g>
       <use xlink:href="#mff1c135130" x="453.466922" y="117.727273" style="stroke: #000000; stroke-width: 0.8"/>
      </g>
     </g>
     <g id="text_28">
      <!-- 0.6 -->
      <g transform="translate(430.563797 121.526491) scale(0.1 -0.1)">
       <use xlink:href="#DejaVuSans-30"/>
       <use xlink:href="#DejaVuSans-2e" x="63.623047"/>
       <use xlink:href="#DejaVuSans-36" x="95.410156"/>
      </g>
     </g>
    </g>
    <g id="ytick_13">
     <g id="line2d_30">
      <g>
       <use xlink:href="#mff1c135130" x="453.466922" y="74.956364" style="stroke: #000000; stroke-width: 0.8"/>
      </g>
     </g>
     <g id="text_29">
      <!-- 0.8 -->
      <g transform="translate(430.563797 78.755582) scale(0.1 -0.1)">
       <use xlink:href="#DejaVuSans-30"/>
       <use xlink:href="#DejaVuSans-2e" x="63.623047"/>
       <use xlink:href="#DejaVuSans-38" x="95.410156"/>
      </g>
     </g>
    </g>
    <g id="ytick_14">
     <g id="line2d_31">
      <g>
       <use xlink:href="#mff1c135130" x="453.466922" y="32.185455" style="stroke: #000000; stroke-width: 0.8"/>
      </g>
     </g>
     <g id="text_30">
      <!-- 1.0 -->
      <g transform="translate(430.563797 35.984673) scale(0.1 -0.1)">
       <use xlink:href="#DejaVuSans-31"/>
       <use xlink:href="#DejaVuSans-2e" x="63.623047"/>
       <use xlink:href="#DejaVuSans-30" x="95.410156"/>
      </g>
     </g>
    </g>
    <g id="text_31">
     <!-- EQE -->
     <g transform="translate(424.48411 138.674688) rotate(-90) scale(0.1 -0.1)">
      <defs>
       <path id="DejaVuSans-45" d="M 628 4666 
L 3578 4666 
L 3578 4134 
L 1259 4134 
L 1259 2753 
L 3481 2753 
L 3481 2222 
L 1259 2222 
L 1259 531 
L 3634 531 
L 3634 0 
L 628 0 
L 628 4666 
z
" transform="scale(0.015625)"/>
       <path id="DejaVuSans-51" d="M 2522 4238 
Q 1834 4238 1429 3725 
Q 1025 3213 1025 2328 
Q 1025 1447 1429 934 
Q 1834 422 2522 422 
Q 3209 422 3611 934 
Q 4013 1447 4013 2328 
Q 4013 3213 3611 3725 
Q 3209 4238 2522 4238 
z
M 3406 84 
L 4238 -825 
L 3475 -825 
L 2784 -78 
Q 2681 -84 2626 -87 
Q 2572 -91 2522 -91 
Q 1538 -91 948 567 
Q 359 1225 359 2328 
Q 359 3434 948 4092 
Q 1538 4750 2522 4750 
Q 3503 4750 4090 4092 
Q 4678 3434 4678 2328 
Q 4678 1516 4351 937 
Q 4025 359 3406 84 
z
" transform="scale(0.015625)"/>
      </defs>
      <use xlink:href="#DejaVuSans-45"/>
      <use xlink:href="#DejaVuSans-51" x="63.183594"/>
      <use xlink:href="#DejaVuSans-45" x="141.894531"/>
     </g>
    </g>
   </g>
   <g id="line2d_32">
    <path d="M 453.466922 246.610919 
L 488.760507 247.021847 
L 494.810836 246.917751 
L 509.936658 246.6507 
L 527.079257 246.620272 
L 580.523828 246.68727 
L 600.691591 246.424423 
L 616.825801 245.92123 
L 633.9684 245.440443 
L 660.186492 244.685304 
L 661.19488 244.496872 
L 668.253597 244.261987 
L 673.295538 244.3303 
L 677.32909 244.60329 
L 680.354255 244.990129 
L 683.379419 245.586244 
L 685.396195 245.999441 
L 705.563958 246.141302 
L 711.614287 246.236313 
L 712.622675 246.298117 
L 713.631063 246.072191 
L 717.664616 246.04 
L 755.983365 246.04 
L 755.983365 246.04 
" clip-path="url(#p3f5715ddb5)" style="fill: none; stroke: #0000ff; stroke-width: 1.5; stroke-linecap: square"/>
   </g>
   <g id="line2d_33">
    <path d="M 453.466922 112.448084 
L 455.483699 115.675324 
L 457.500475 117.085313 
L 458.508863 117.334651 
L 459.517251 117.415899 
L 460.525639 117.192923 
L 461.534027 116.740537 
L 462.542416 116.074037 
L 463.550804 115.161379 
L 465.56758 112.941582 
L 467.584356 110.208184 
L 469.601133 107.041567 
L 471.617909 102.042548 
L 473.634685 96.546346 
L 476.65985 88.231017 
L 480.693402 77.55572 
L 482.710178 72.913163 
L 486.743731 64.085626 
L 490.777284 53.496006 
L 492.79406 48.778434 
L 493.802448 46.752581 
L 495.819224 43.868828 
L 496.827612 42.591953 
L 498.844389 40.562001 
L 500.861165 38.898126 
L 502.877941 37.648251 
L 504.894718 36.658351 
L 506.911494 35.946505 
L 508.92827 35.415856 
L 511.953435 34.92662 
L 514.978599 34.722511 
L 518.003763 34.701769 
L 523.045704 34.940111 
L 531.112809 35.639502 
L 540.188303 36.37468 
L 547.24702 36.76718 
L 554.305737 36.924353 
L 562.372842 36.832132 
L 576.490276 36.354434 
L 591.616098 35.656096 
L 601.699979 35.241821 
L 606.74192 35.233801 
L 611.783861 35.456734 
L 615.817413 35.879691 
L 625.901295 37.457985 
L 628.926459 38.036081 
L 633.9684 39.101846 
L 638.001952 40.041137 
L 643.043893 40.823354 
L 648.085834 41.85383 
L 652.119386 43.518154 
L 656.152939 45.506235 
L 659.178103 47.158369 
L 660.186492 48.624702 
L 661.19488 51.370475 
L 663.211656 55.77919 
L 665.228432 61.211263 
L 667.245209 67.868663 
L 669.261985 76.031997 
L 671.278761 86.020531 
L 673.295538 97.277544 
L 675.312314 110.462202 
L 677.32909 126.194654 
L 679.345866 144.932625 
L 681.362643 167.209645 
L 683.379419 193.644819 
L 684.387807 208.641604 
L 685.396195 217.632061 
L 686.404583 218.278742 
L 687.412972 218.746377 
L 689.429748 216.391023 
L 690.438136 224.778099 
L 691.446524 225.867375 
L 698.505241 230.486839 
L 699.513629 230.865721 
L 709.597511 230.516918 
L 710.605899 244.278581 
L 711.614287 215.383326 
L 712.622675 204.870459 
L 713.631063 241.237259 
L 714.639451 245.998585 
L 717.664616 246.039581 
L 755.983365 246.04 
L 755.983365 246.04 
" clip-path="url(#p3f5715ddb5)" style="fill: none; stroke: #000000; stroke-width: 1.5; stroke-linecap: square"/>
   </g>
   <g id="patch_8">
    <path d="M 453.466922 246.04 
L 453.466922 10.8 
" style="fill: none; stroke: #000000; stroke-width: 0.8; stroke-linejoin: miter; stroke-linecap: square"/>
   </g>
   <g id="patch_9">
    <path d="M 799.2 246.04 
L 799.2 10.8 
" style="fill: none; stroke: #000000; stroke-width: 0.8; stroke-linejoin: miter; stroke-linecap: square"/>
   </g>
   <g id="patch_10">
    <path d="M 453.466922 246.04 
L 799.2 246.04 
" style="fill: none; stroke: #000000; stroke-width: 0.8; stroke-linejoin: miter; stroke-linecap: square"/>
   </g>
   <g id="patch_11">
    <path d="M 453.466922 10.8 
L 799.2 10.8 
" style="fill: none; stroke: #000000; stroke-width: 0.8; stroke-linejoin: miter; stroke-linecap: square"/>
   </g>
   <g id="legend_1">
    <g id="line2d_34">
     <path d="M 688.190625 23.898438 
L 698.190625 23.898438 
L 708.190625 23.898438 
" style="fill: none; stroke: #0000ff; stroke-width: 1.5; stroke-linecap: square"/>
    </g>
    <g id="text_32">
     <!-- EQE GaInP -->
     <g transform="translate(716.190625 27.398438) scale(0.1 -0.1)">
      <defs>
       <path id="DejaVuSans-47" d="M 3809 666 
L 3809 1919 
L 2778 1919 
L 2778 2438 
L 4434 2438 
L 4434 434 
Q 4069 175 3628 42 
Q 3188 -91 2688 -91 
Q 1594 -91 976 548 
Q 359 1188 359 2328 
Q 359 3472 976 4111 
Q 1594 4750 2688 4750 
Q 3144 4750 3555 4637 
Q 3966 4525 4313 4306 
L 4313 3634 
Q 3963 3931 3569 4081 
Q 3175 4231 2741 4231 
Q 1884 4231 1454 3753 
Q 1025 3275 1025 2328 
Q 1025 1384 1454 906 
Q 1884 428 2741 428 
Q 3075 428 3337 486 
Q 3600 544 3809 666 
z
" transform="scale(0.015625)"/>
       <path id="DejaVuSans-49" d="M 628 4666 
L 1259 4666 
L 1259 0 
L 628 0 
L 628 4666 
z
" transform="scale(0.015625)"/>
      </defs>
      <use xlink:href="#DejaVuSans-45"/>
      <use xlink:href="#DejaVuSans-51" x="63.183594"/>
      <use xlink:href="#DejaVuSans-45" x="141.894531"/>
      <use xlink:href="#DejaVuSans-20" x="205.078125"/>
      <use xlink:href="#DejaVuSans-47" x="236.865234"/>
      <use xlink:href="#DejaVuSans-61" x="314.355469"/>
      <use xlink:href="#DejaVuSans-49" x="375.634766"/>
      <use xlink:href="#DejaVuSans-6e" x="405.126953"/>
      <use xlink:href="#DejaVuSans-50" x="468.505859"/>
     </g>
    </g>
    <g id="line2d_35">
     <path d="M 688.190625 38.576563 
L 698.190625 38.576563 
L 708.190625 38.576563 
" style="fill: none; stroke: #000000; stroke-width: 1.5; stroke-linecap: square"/>
    </g>
    <g id="text_33">
     <!-- Total Absorbed -->
     <g transform="translate(716.190625 42.076563) scale(0.1 -0.1)">
      <defs>
       <path id="DejaVuSans-54" d="M -19 4666 
L 3928 4666 
L 3928 4134 
L 2272 4134 
L 2272 0 
L 1638 0 
L 1638 4134 
L -19 4134 
L -19 4666 
z
" transform="scale(0.015625)"/>
       <path id="DejaVuSans-41" d="M 2188 4044 
L 1331 1722 
L 3047 1722 
L 2188 4044 
z
M 1831 4666 
L 2547 4666 
L 4325 0 
L 3669 0 
L 3244 1197 
L 1141 1197 
L 716 0 
L 50 0 
L 1831 4666 
z
" transform="scale(0.015625)"/>
       <path id="DejaVuSans-62" d="M 3116 1747 
Q 3116 2381 2855 2742 
Q 2594 3103 2138 3103 
Q 1681 3103 1420 2742 
Q 1159 2381 1159 1747 
Q 1159 1113 1420 752 
Q 1681 391 2138 391 
Q 2594 391 2855 752 
Q 3116 1113 3116 1747 
z
M 1159 2969 
Q 1341 3281 1617 3432 
Q 1894 3584 2278 3584 
Q 2916 3584 3314 3078 
Q 3713 2572 3713 1747 
Q 3713 922 3314 415 
Q 2916 -91 2278 -91 
Q 1894 -91 1617 61 
Q 1341 213 1159 525 
L 1159 0 
L 581 0 
L 581 4863 
L 1159 4863 
L 1159 2969 
z
" transform="scale(0.015625)"/>
      </defs>
      <use xlink:href="#DejaVuSans-54"/>
      <use xlink:href="#DejaVuSans-6f" x="44.083984"/>
      <use xlink:href="#DejaVuSans-74" x="105.265625"/>
      <use xlink:href="#DejaVuSans-61" x="144.474609"/>
      <use xlink:href="#DejaVuSans-6c" x="205.753906"/>
      <use xlink:href="#DejaVuSans-20" x="233.537109"/>
      <use xlink:href="#DejaVuSans-41" x="265.324219"/>
      <use xlink:href="#DejaVuSans-62" x="333.732422"/>
      <use xlink:href="#DejaVuSans-73" x="397.208984"/>
      <use xlink:href="#DejaVuSans-6f" x="449.308594"/>
      <use xlink:href="#DejaVuSans-72" x="510.490234"/>
      <use xlink:href="#DejaVuSans-62" x="551.603516"/>
      <use xlink:href="#DejaVuSans-65" x="615.080078"/>
      <use xlink:href="#DejaVuSans-64" x="676.603516"/>
     </g>
    </g>
   </g>
  </g>
 </g>
 <defs>
  <clipPath id="p5640f03acb">
   <rect x="60.013844" y="10.8" width="345.733078" height="235.24"/>
  </clipPath>
  <clipPath id="p3f5715ddb5">
   <rect x="453.466922" y="10.8" width="345.733078" height="235.24"/>
  </clipPath>
 </defs>
</svg>
