<?xml version="1.0" encoding="utf-8" standalone="no"?>
<!DOCTYPE svg PUBLIC "-//W3C//DTD SVG 1.1//EN"
  "http://www.w3.org/Graphics/SVG/1.1/DTD/svg11.dtd">
<svg xmlns:xlink="http://www.w3.org/1999/xlink" width="810pt" height="288pt" viewBox="0 0 810 288" xmlns="http://www.w3.org/2000/svg" version="1.1">
 <metadata>
  <rdf:RDF xmlns:dc="http://purl.org/dc/elements/1.1/" xmlns:cc="http://creativecommons.org/ns#" xmlns:rdf="http://www.w3.org/1999/02/22-rdf-syntax-ns#">
   <cc:Work>
    <dc:type rdf:resource="http://purl.org/dc/dcmitype/StillImage"/>
    <dc:date>2023-11-02T06:56:27.654480</dc:date>
    <dc:format>image/svg+xml</dc:format>
    <dc:creator>
     <cc:Agent>
      <dc:title>Matplotlib v3.8.0, https://matplotlib.org/</dc:title>
     </cc:Agent>
    </dc:creator>
   </cc:Work>
  </rdf:RDF>
 </metadata>
 <defs>
  <style type="text/css">*{stroke-linejoin: round; stroke-linecap: butt}</style>
 </defs>
 <g id="figure_1">
  <g id="patch_1">
   <path d="M 0 288 
L 810 288 
L 810 0 
L 0 0 
z
" style="fill: #ffffff"/>
  </g>
  <g id="axes_1">
   <g id="patch_2">
    <path d="M 61.367804 246.04 
L 406.423902 246.04 
L 406.423902 10.8 
L 61.367804 10.8 
z
" style="fill: #ffffff"/>
   </g>
   <g id="matplotlib.axis_1">
    <g id="xtick_1">
     <g id="line2d_1">
      <defs>
       <path id="m34307868fe" d="M 0 0 
L 0 3.5 
" style="stroke: #000000; stroke-width: 0.8"/>
      </defs>
      <g>
       <use xlink:href="#m34307868fe" x="63.413591" y="246.04" style="stroke: #000000; stroke-width: 0.8"/>
      </g>
     </g>
     <g id="text_1">
      <!-- 0 -->
      <g transform="translate(60.232341 260.638438) scale(0.1 -0.1)">
       <defs>
        <path id="DejaVuSans-30" d="M 2034 4250 
Q 1547 4250 1301 3770 
Q 1056 3291 1056 2328 
Q 1056 1369 1301 889 
Q 1547 409 2034 409 
Q 2525 409 2770 889 
Q 3016 1369 3016 2328 
Q 3016 3291 2770 3770 
Q 2525 4250 2034 4250 
z
M 2034 4750 
Q 2819 4750 3233 4129 
Q 3647 3509 3647 2328 
Q 3647 1150 3233 529 
Q 2819 -91 2034 -91 
Q 1250 -91 836 529 
Q 422 1150 422 2328 
Q 422 3509 836 4129 
Q 1250 4750 2034 4750 
z
" transform="scale(0.015625)"/>
       </defs>
       <use xlink:href="#DejaVuSans-30"/>
      </g>
     </g>
    </g>
    <g id="xtick_2">
     <g id="line2d_2">
      <g>
       <use xlink:href="#m34307868fe" x="103.527064" y="246.04" style="stroke: #000000; stroke-width: 0.8"/>
      </g>
     </g>
     <g id="text_2">
      <!-- 500 -->
      <g transform="translate(93.983314 260.638438) scale(0.1 -0.1)">
       <defs>
        <path id="DejaVuSans-35" d="M 691 4666 
L 3169 4666 
L 3169 4134 
L 1269 4134 
L 1269 2991 
Q 1406 3038 1543 3061 
Q 1681 3084 1819 3084 
Q 2600 3084 3056 2656 
Q 3513 2228 3513 1497 
Q 3513 744 3044 326 
Q 2575 -91 1722 -91 
Q 1428 -91 1123 -41 
Q 819 9 494 109 
L 494 744 
Q 775 591 1075 516 
Q 1375 441 1709 441 
Q 2250 441 2565 725 
Q 2881 1009 2881 1497 
Q 2881 1984 2565 2268 
Q 2250 2553 1709 2553 
Q 1456 2553 1204 2497 
Q 953 2441 691 2322 
L 691 4666 
z
" transform="scale(0.015625)"/>
       </defs>
       <use xlink:href="#DejaVuSans-35"/>
       <use xlink:href="#DejaVuSans-30" x="63.623047"/>
       <use xlink:href="#DejaVuSans-30" x="127.246094"/>
      </g>
     </g>
    </g>
    <g id="xtick_3">
     <g id="line2d_3">
      <g>
       <use xlink:href="#m34307868fe" x="143.640538" y="246.04" style="stroke: #000000; stroke-width: 0.8"/>
      </g>
     </g>
     <g id="text_3">
      <!-- 1000 -->
      <g transform="translate(130.915538 260.638438) scale(0.1 -0.1)">
       <defs>
        <path id="DejaVuSans-31" d="M 794 531 
L 1825 531 
L 1825 4091 
L 703 3866 
L 703 4441 
L 1819 4666 
L 2450 4666 
L 2450 531 
L 3481 531 
L 3481 0 
L 794 0 
L 794 531 
z
" transform="scale(0.015625)"/>
       </defs>
       <use xlink:href="#DejaVuSans-31"/>
       <use xlink:href="#DejaVuSans-30" x="63.623047"/>
       <use xlink:href="#DejaVuSans-30" x="127.246094"/>
       <use xlink:href="#DejaVuSans-30" x="190.869141"/>
      </g>
     </g>
    </g>
    <g id="xtick_4">
     <g id="line2d_4">
      <g>
       <use xlink:href="#m34307868fe" x="183.754011" y="246.04" style="stroke: #000000; stroke-width: 0.8"/>
      </g>
     </g>
     <g id="text_4">
      <!-- 1500 -->
      <g transform="translate(171.029011 260.638438) scale(0.1 -0.1)">
       <use xlink:href="#DejaVuSans-31"/>
       <use xlink:href="#DejaVuSans-35" x="63.623047"/>
       <use xlink:href="#DejaVuSans-30" x="127.246094"/>
       <use xlink:href="#DejaVuSans-30" x="190.869141"/>
      </g>
     </g>
    </g>
    <g id="xtick_5">
     <g id="line2d_5">
      <g>
       <use xlink:href="#m34307868fe" x="223.867485" y="246.04" style="stroke: #000000; stroke-width: 0.8"/>
      </g>
     </g>
     <g id="text_5">
      <!-- 2000 -->
      <g transform="translate(211.142485 260.638438) scale(0.1 -0.1)">
       <defs>
        <path id="DejaVuSans-32" d="M 1228 531 
L 3431 531 
L 3431 0 
L 469 0 
L 469 531 
Q 828 903 1448 1529 
Q 2069 2156 2228 2338 
Q 2531 2678 2651 2914 
Q 2772 3150 2772 3378 
Q 2772 3750 2511 3984 
Q 2250 4219 1831 4219 
Q 1534 4219 1204 4116 
Q 875 4013 500 3803 
L 500 4441 
Q 881 4594 1212 4672 
Q 1544 4750 1819 4750 
Q 2544 4750 2975 4387 
Q 3406 4025 3406 3419 
Q 3406 3131 3298 2873 
Q 3191 2616 2906 2266 
Q 2828 2175 2409 1742 
Q 1991 1309 1228 531 
z
" transform="scale(0.015625)"/>
       </defs>
       <use xlink:href="#DejaVuSans-32"/>
       <use xlink:href="#DejaVuSans-30" x="63.623047"/>
       <use xlink:href="#DejaVuSans-30" x="127.246094"/>
       <use xlink:href="#DejaVuSans-30" x="190.869141"/>
      </g>
     </g>
    </g>
    <g id="xtick_6">
     <g id="line2d_6">
      <g>
       <use xlink:href="#m34307868fe" x="263.980958" y="246.04" style="stroke: #000000; stroke-width: 0.8"/>
      </g>
     </g>
     <g id="text_6">
      <!-- 2500 -->
      <g transform="translate(251.255958 260.638438) scale(0.1 -0.1)">
       <use xlink:href="#DejaVuSans-32"/>
       <use xlink:href="#DejaVuSans-35" x="63.623047"/>
       <use xlink:href="#DejaVuSans-30" x="127.246094"/>
       <use xlink:href="#DejaVuSans-30" x="190.869141"/>
      </g>
     </g>
    </g>
    <g id="xtick_7">
     <g id="line2d_7">
      <g>
       <use xlink:href="#m34307868fe" x="304.094431" y="246.04" style="stroke: #000000; stroke-width: 0.8"/>
      </g>
     </g>
     <g id="text_7">
      <!-- 3000 -->
      <g transform="translate(291.369431 260.638438) scale(0.1 -0.1)">
       <defs>
        <path id="DejaVuSans-33" d="M 2597 2516 
Q 3050 2419 3304 2112 
Q 3559 1806 3559 1356 
Q 3559 666 3084 287 
Q 2609 -91 1734 -91 
Q 1441 -91 1130 -33 
Q 819 25 488 141 
L 488 750 
Q 750 597 1062 519 
Q 1375 441 1716 441 
Q 2309 441 2620 675 
Q 2931 909 2931 1356 
Q 2931 1769 2642 2001 
Q 2353 2234 1838 2234 
L 1294 2234 
L 1294 2753 
L 1863 2753 
Q 2328 2753 2575 2939 
Q 2822 3125 2822 3475 
Q 2822 3834 2567 4026 
Q 2313 4219 1838 4219 
Q 1578 4219 1281 4162 
Q 984 4106 628 3988 
L 628 4550 
Q 988 4650 1302 4700 
Q 1616 4750 1894 4750 
Q 2613 4750 3031 4423 
Q 3450 4097 3450 3541 
Q 3450 3153 3228 2886 
Q 3006 2619 2597 2516 
z
" transform="scale(0.015625)"/>
       </defs>
       <use xlink:href="#DejaVuSans-33"/>
       <use xlink:href="#DejaVuSans-30" x="63.623047"/>
       <use xlink:href="#DejaVuSans-30" x="127.246094"/>
       <use xlink:href="#DejaVuSans-30" x="190.869141"/>
      </g>
     </g>
    </g>
    <g id="xtick_8">
     <g id="line2d_8">
      <g>
       <use xlink:href="#m34307868fe" x="344.207905" y="246.04" style="stroke: #000000; stroke-width: 0.8"/>
      </g>
     </g>
     <g id="text_8">
      <!-- 3500 -->
      <g transform="translate(331.482905 260.638438) scale(0.1 -0.1)">
       <use xlink:href="#DejaVuSans-33"/>
       <use xlink:href="#DejaVuSans-35" x="63.623047"/>
       <use xlink:href="#DejaVuSans-30" x="127.246094"/>
       <use xlink:href="#DejaVuSans-30" x="190.869141"/>
      </g>
     </g>
    </g>
    <g id="xtick_9">
     <g id="line2d_9">
      <g>
       <use xlink:href="#m34307868fe" x="384.321378" y="246.04" style="stroke: #000000; stroke-width: 0.8"/>
      </g>
     </g>
     <g id="text_9">
      <!-- 4000 -->
      <g transform="translate(371.596378 260.638438) scale(0.1 -0.1)">
       <defs>
        <path id="DejaVuSans-34" d="M 2419 4116 
L 825 1625 
L 2419 1625 
L 2419 4116 
z
M 2253 4666 
L 3047 4666 
L 3047 1625 
L 3713 1625 
L 3713 1100 
L 3047 1100 
L 3047 0 
L 2419 0 
L 2419 1100 
L 313 1100 
L 313 1709 
L 2253 4666 
z
" transform="scale(0.015625)"/>
       </defs>
       <use xlink:href="#DejaVuSans-34"/>
       <use xlink:href="#DejaVuSans-30" x="63.623047"/>
       <use xlink:href="#DejaVuSans-30" x="127.246094"/>
       <use xlink:href="#DejaVuSans-30" x="190.869141"/>
      </g>
     </g>
    </g>
    <g id="text_10">
     <!-- Position (nm) -->
     <g transform="translate(200.902103 274.316562) scale(0.1 -0.1)">
      <defs>
       <path id="DejaVuSans-50" d="M 1259 4147 
L 1259 2394 
L 2053 2394 
Q 2494 2394 2734 2622 
Q 2975 2850 2975 3272 
Q 2975 3691 2734 3919 
Q 2494 4147 2053 4147 
L 1259 4147 
z
M 628 4666 
L 2053 4666 
Q 2838 4666 3239 4311 
Q 3641 3956 3641 3272 
Q 3641 2581 3239 2228 
Q 2838 1875 2053 1875 
L 1259 1875 
L 1259 0 
L 628 0 
L 628 4666 
z
" transform="scale(0.015625)"/>
       <path id="DejaVuSans-6f" d="M 1959 3097 
Q 1497 3097 1228 2736 
Q 959 2375 959 1747 
Q 959 1119 1226 758 
Q 1494 397 1959 397 
Q 2419 397 2687 759 
Q 2956 1122 2956 1747 
Q 2956 2369 2687 2733 
Q 2419 3097 1959 3097 
z
M 1959 3584 
Q 2709 3584 3137 3096 
Q 3566 2609 3566 1747 
Q 3566 888 3137 398 
Q 2709 -91 1959 -91 
Q 1206 -91 779 398 
Q 353 888 353 1747 
Q 353 2609 779 3096 
Q 1206 3584 1959 3584 
z
" transform="scale(0.015625)"/>
       <path id="DejaVuSans-73" d="M 2834 3397 
L 2834 2853 
Q 2591 2978 2328 3040 
Q 2066 3103 1784 3103 
Q 1356 3103 1142 2972 
Q 928 2841 928 2578 
Q 928 2378 1081 2264 
Q 1234 2150 1697 2047 
L 1894 2003 
Q 2506 1872 2764 1633 
Q 3022 1394 3022 966 
Q 3022 478 2636 193 
Q 2250 -91 1575 -91 
Q 1294 -91 989 -36 
Q 684 19 347 128 
L 347 722 
Q 666 556 975 473 
Q 1284 391 1588 391 
Q 1994 391 2212 530 
Q 2431 669 2431 922 
Q 2431 1156 2273 1281 
Q 2116 1406 1581 1522 
L 1381 1569 
Q 847 1681 609 1914 
Q 372 2147 372 2553 
Q 372 3047 722 3315 
Q 1072 3584 1716 3584 
Q 2034 3584 2315 3537 
Q 2597 3491 2834 3397 
z
" transform="scale(0.015625)"/>
       <path id="DejaVuSans-69" d="M 603 3500 
L 1178 3500 
L 1178 0 
L 603 0 
L 603 3500 
z
M 603 4863 
L 1178 4863 
L 1178 4134 
L 603 4134 
L 603 4863 
z
" transform="scale(0.015625)"/>
       <path id="DejaVuSans-74" d="M 1172 4494 
L 1172 3500 
L 2356 3500 
L 2356 3053 
L 1172 3053 
L 1172 1153 
Q 1172 725 1289 603 
Q 1406 481 1766 481 
L 2356 481 
L 2356 0 
L 1766 0 
Q 1100 0 847 248 
Q 594 497 594 1153 
L 594 3053 
L 172 3053 
L 172 3500 
L 594 3500 
L 594 4494 
L 1172 4494 
z
" transform="scale(0.015625)"/>
       <path id="DejaVuSans-6e" d="M 3513 2113 
L 3513 0 
L 2938 0 
L 2938 2094 
Q 2938 2591 2744 2837 
Q 2550 3084 2163 3084 
Q 1697 3084 1428 2787 
Q 1159 2491 1159 1978 
L 1159 0 
L 581 0 
L 581 3500 
L 1159 3500 
L 1159 2956 
Q 1366 3272 1645 3428 
Q 1925 3584 2291 3584 
Q 2894 3584 3203 3211 
Q 3513 2838 3513 2113 
z
" transform="scale(0.015625)"/>
       <path id="DejaVuSans-20" transform="scale(0.015625)"/>
       <path id="DejaVuSans-28" d="M 1984 4856 
Q 1566 4138 1362 3434 
Q 1159 2731 1159 2009 
Q 1159 1288 1364 580 
Q 1569 -128 1984 -844 
L 1484 -844 
Q 1016 -109 783 600 
Q 550 1309 550 2009 
Q 550 2706 781 3412 
Q 1013 4119 1484 4856 
L 1984 4856 
z
" transform="scale(0.015625)"/>
       <path id="DejaVuSans-6d" d="M 3328 2828 
Q 3544 3216 3844 3400 
Q 4144 3584 4550 3584 
Q 5097 3584 5394 3201 
Q 5691 2819 5691 2113 
L 5691 0 
L 5113 0 
L 5113 2094 
Q 5113 2597 4934 2840 
Q 4756 3084 4391 3084 
Q 3944 3084 3684 2787 
Q 3425 2491 3425 1978 
L 3425 0 
L 2847 0 
L 2847 2094 
Q 2847 2600 2669 2842 
Q 2491 3084 2119 3084 
Q 1678 3084 1418 2786 
Q 1159 2488 1159 1978 
L 1159 0 
L 581 0 
L 581 3500 
L 1159 3500 
L 1159 2956 
Q 1356 3278 1631 3431 
Q 1906 3584 2284 3584 
Q 2666 3584 2933 3390 
Q 3200 3197 3328 2828 
z
" transform="scale(0.015625)"/>
       <path id="DejaVuSans-29" d="M 513 4856 
L 1013 4856 
Q 1481 4119 1714 3412 
Q 1947 2706 1947 2009 
Q 1947 1309 1714 600 
Q 1481 -109 1013 -844 
L 513 -844 
Q 928 -128 1133 580 
Q 1338 1288 1338 2009 
Q 1338 2731 1133 3434 
Q 928 4138 513 4856 
z
" transform="scale(0.015625)"/>
      </defs>
      <use xlink:href="#DejaVuSans-50"/>
      <use xlink:href="#DejaVuSans-6f" x="56.677734"/>
      <use xlink:href="#DejaVuSans-73" x="117.859375"/>
      <use xlink:href="#DejaVuSans-69" x="169.958984"/>
      <use xlink:href="#DejaVuSans-74" x="197.742188"/>
      <use xlink:href="#DejaVuSans-69" x="236.951172"/>
      <use xlink:href="#DejaVuSans-6f" x="264.734375"/>
      <use xlink:href="#DejaVuSans-6e" x="325.916016"/>
      <use xlink:href="#DejaVuSans-20" x="389.294922"/>
      <use xlink:href="#DejaVuSans-28" x="421.082031"/>
      <use xlink:href="#DejaVuSans-6e" x="460.095703"/>
      <use xlink:href="#DejaVuSans-6d" x="523.474609"/>
      <use xlink:href="#DejaVuSans-29" x="620.886719"/>
     </g>
    </g>
   </g>
   <g id="matplotlib.axis_2">
    <g id="ytick_1">
     <g id="line2d_10">
      <defs>
       <path id="m4137bd6dd4" d="M 0 0 
L -3.5 0 
" style="stroke: #000000; stroke-width: 0.8"/>
      </defs>
      <g>
       <use xlink:href="#m4137bd6dd4" x="61.367804" y="215.177172" style="stroke: #000000; stroke-width: 0.8"/>
      </g>
     </g>
     <g id="text_11">
      <!-- $\mathdefault{10^{-5}}$ -->
      <g transform="translate(30.867804 218.97639) scale(0.1 -0.1)">
       <defs>
        <path id="DejaVuSans-2212" d="M 678 2272 
L 4684 2272 
L 4684 1741 
L 678 1741 
L 678 2272 
z
" transform="scale(0.015625)"/>
       </defs>
       <use xlink:href="#DejaVuSans-31" transform="translate(0 0.684375)"/>
       <use xlink:href="#DejaVuSans-30" transform="translate(63.623047 0.684375)"/>
       <use xlink:href="#DejaVuSans-2212" transform="translate(128.203125 38.965625) scale(0.7)"/>
       <use xlink:href="#DejaVuSans-35" transform="translate(186.855469 38.965625) scale(0.7)"/>
      </g>
     </g>
    </g>
    <g id="ytick_2">
     <g id="line2d_11">
      <g>
       <use xlink:href="#m4137bd6dd4" x="61.367804" y="183.358167" style="stroke: #000000; stroke-width: 0.8"/>
      </g>
     </g>
     <g id="text_12">
      <!-- $\mathdefault{10^{0}}$ -->
      <g transform="translate(36.767804 187.157385) scale(0.1 -0.1)">
       <use xlink:href="#DejaVuSans-31" transform="translate(0 0.765625)"/>
       <use xlink:href="#DejaVuSans-30" transform="translate(63.623047 0.765625)"/>
       <use xlink:href="#DejaVuSans-30" transform="translate(128.203125 39.046875) scale(0.7)"/>
      </g>
     </g>
    </g>
    <g id="ytick_3">
     <g id="line2d_12">
      <g>
       <use xlink:href="#m4137bd6dd4" x="61.367804" y="151.539161" style="stroke: #000000; stroke-width: 0.8"/>
      </g>
     </g>
     <g id="text_13">
      <!-- $\mathdefault{10^{5}}$ -->
      <g transform="translate(36.767804 155.33838) scale(0.1 -0.1)">
       <use xlink:href="#DejaVuSans-31" transform="translate(0 0.684375)"/>
       <use xlink:href="#DejaVuSans-30" transform="translate(63.623047 0.684375)"/>
       <use xlink:href="#DejaVuSans-35" transform="translate(128.203125 38.965625) scale(0.7)"/>
      </g>
     </g>
    </g>
    <g id="ytick_4">
     <g id="line2d_13">
      <g>
       <use xlink:href="#m4137bd6dd4" x="61.367804" y="119.720156" style="stroke: #000000; stroke-width: 0.8"/>
      </g>
     </g>
     <g id="text_14">
      <!-- $\mathdefault{10^{10}}$ -->
      <g transform="translate(32.267804 123.519375) scale(0.1 -0.1)">
       <use xlink:href="#DejaVuSans-31" transform="translate(0 0.765625)"/>
       <use xlink:href="#DejaVuSans-30" transform="translate(63.623047 0.765625)"/>
       <use xlink:href="#DejaVuSans-31" transform="translate(128.203125 39.046875) scale(0.7)"/>
       <use xlink:href="#DejaVuSans-30" transform="translate(172.739258 39.046875) scale(0.7)"/>
      </g>
     </g>
    </g>
    <g id="ytick_5">
     <g id="line2d_14">
      <g>
       <use xlink:href="#m4137bd6dd4" x="61.367804" y="87.901151" style="stroke: #000000; stroke-width: 0.8"/>
      </g>
     </g>
     <g id="text_15">
      <!-- $\mathdefault{10^{15}}$ -->
      <g transform="translate(32.267804 91.70037) scale(0.1 -0.1)">
       <use xlink:href="#DejaVuSans-31" transform="translate(0 0.684375)"/>
       <use xlink:href="#DejaVuSans-30" transform="translate(63.623047 0.684375)"/>
       <use xlink:href="#DejaVuSans-31" transform="translate(128.203125 38.965625) scale(0.7)"/>
       <use xlink:href="#DejaVuSans-35" transform="translate(172.739258 38.965625) scale(0.7)"/>
      </g>
     </g>
    </g>
    <g id="ytick_6">
     <g id="line2d_15">
      <g>
       <use xlink:href="#m4137bd6dd4" x="61.367804" y="56.082146" style="stroke: #000000; stroke-width: 0.8"/>
      </g>
     </g>
     <g id="text_16">
      <!-- $\mathdefault{10^{20}}$ -->
      <g transform="translate(32.267804 59.881365) scale(0.1 -0.1)">
       <use xlink:href="#DejaVuSans-31" transform="translate(0 0.765625)"/>
       <use xlink:href="#DejaVuSans-30" transform="translate(63.623047 0.765625)"/>
       <use xlink:href="#DejaVuSans-32" transform="translate(128.203125 39.046875) scale(0.7)"/>
       <use xlink:href="#DejaVuSans-30" transform="translate(172.739258 39.046875) scale(0.7)"/>
      </g>
     </g>
    </g>
    <g id="ytick_7">
     <g id="line2d_16">
      <g>
       <use xlink:href="#m4137bd6dd4" x="61.367804" y="24.263141" style="stroke: #000000; stroke-width: 0.8"/>
      </g>
     </g>
     <g id="text_17">
      <!-- $\mathdefault{10^{25}}$ -->
      <g transform="translate(32.267804 28.06236) scale(0.1 -0.1)">
       <use xlink:href="#DejaVuSans-31" transform="translate(0 0.765625)"/>
       <use xlink:href="#DejaVuSans-30" transform="translate(63.623047 0.765625)"/>
       <use xlink:href="#DejaVuSans-32" transform="translate(128.203125 39.046875) scale(0.7)"/>
       <use xlink:href="#DejaVuSans-35" transform="translate(172.739258 39.046875) scale(0.7)"/>
      </g>
     </g>
    </g>
    <g id="text_18">
     <!-- Carrier density (m$^{-3}$) -->
     <g transform="translate(24.767804 181.27) rotate(-90) scale(0.1 -0.1)">
      <defs>
       <path id="DejaVuSans-43" d="M 4122 4306 
L 4122 3641 
Q 3803 3938 3442 4084 
Q 3081 4231 2675 4231 
Q 1875 4231 1450 3742 
Q 1025 3253 1025 2328 
Q 1025 1406 1450 917 
Q 1875 428 2675 428 
Q 3081 428 3442 575 
Q 3803 722 4122 1019 
L 4122 359 
Q 3791 134 3420 21 
Q 3050 -91 2638 -91 
Q 1578 -91 968 557 
Q 359 1206 359 2328 
Q 359 3453 968 4101 
Q 1578 4750 2638 4750 
Q 3056 4750 3426 4639 
Q 3797 4528 4122 4306 
z
" transform="scale(0.015625)"/>
       <path id="DejaVuSans-61" d="M 2194 1759 
Q 1497 1759 1228 1600 
Q 959 1441 959 1056 
Q 959 750 1161 570 
Q 1363 391 1709 391 
Q 2188 391 2477 730 
Q 2766 1069 2766 1631 
L 2766 1759 
L 2194 1759 
z
M 3341 1997 
L 3341 0 
L 2766 0 
L 2766 531 
Q 2569 213 2275 61 
Q 1981 -91 1556 -91 
Q 1019 -91 701 211 
Q 384 513 384 1019 
Q 384 1609 779 1909 
Q 1175 2209 1959 2209 
L 2766 2209 
L 2766 2266 
Q 2766 2663 2505 2880 
Q 2244 3097 1772 3097 
Q 1472 3097 1187 3025 
Q 903 2953 641 2809 
L 641 3341 
Q 956 3463 1253 3523 
Q 1550 3584 1831 3584 
Q 2591 3584 2966 3190 
Q 3341 2797 3341 1997 
z
" transform="scale(0.015625)"/>
       <path id="DejaVuSans-72" d="M 2631 2963 
Q 2534 3019 2420 3045 
Q 2306 3072 2169 3072 
Q 1681 3072 1420 2755 
Q 1159 2438 1159 1844 
L 1159 0 
L 581 0 
L 581 3500 
L 1159 3500 
L 1159 2956 
Q 1341 3275 1631 3429 
Q 1922 3584 2338 3584 
Q 2397 3584 2469 3576 
Q 2541 3569 2628 3553 
L 2631 2963 
z
" transform="scale(0.015625)"/>
       <path id="DejaVuSans-65" d="M 3597 1894 
L 3597 1613 
L 953 1613 
Q 991 1019 1311 708 
Q 1631 397 2203 397 
Q 2534 397 2845 478 
Q 3156 559 3463 722 
L 3463 178 
Q 3153 47 2828 -22 
Q 2503 -91 2169 -91 
Q 1331 -91 842 396 
Q 353 884 353 1716 
Q 353 2575 817 3079 
Q 1281 3584 2069 3584 
Q 2775 3584 3186 3129 
Q 3597 2675 3597 1894 
z
M 3022 2063 
Q 3016 2534 2758 2815 
Q 2500 3097 2075 3097 
Q 1594 3097 1305 2825 
Q 1016 2553 972 2059 
L 3022 2063 
z
" transform="scale(0.015625)"/>
       <path id="DejaVuSans-64" d="M 2906 2969 
L 2906 4863 
L 3481 4863 
L 3481 0 
L 2906 0 
L 2906 525 
Q 2725 213 2448 61 
Q 2172 -91 1784 -91 
Q 1150 -91 751 415 
Q 353 922 353 1747 
Q 353 2572 751 3078 
Q 1150 3584 1784 3584 
Q 2172 3584 2448 3432 
Q 2725 3281 2906 2969 
z
M 947 1747 
Q 947 1113 1208 752 
Q 1469 391 1925 391 
Q 2381 391 2643 752 
Q 2906 1113 2906 1747 
Q 2906 2381 2643 2742 
Q 2381 3103 1925 3103 
Q 1469 3103 1208 2742 
Q 947 2381 947 1747 
z
" transform="scale(0.015625)"/>
       <path id="DejaVuSans-79" d="M 2059 -325 
Q 1816 -950 1584 -1140 
Q 1353 -1331 966 -1331 
L 506 -1331 
L 506 -850 
L 844 -850 
Q 1081 -850 1212 -737 
Q 1344 -625 1503 -206 
L 1606 56 
L 191 3500 
L 800 3500 
L 1894 763 
L 2988 3500 
L 3597 3500 
L 2059 -325 
z
" transform="scale(0.015625)"/>
      </defs>
      <use xlink:href="#DejaVuSans-43" transform="translate(0 0.765625)"/>
      <use xlink:href="#DejaVuSans-61" transform="translate(69.824219 0.765625)"/>
      <use xlink:href="#DejaVuSans-72" transform="translate(131.103516 0.765625)"/>
      <use xlink:href="#DejaVuSans-72" transform="translate(172.216797 0.765625)"/>
      <use xlink:href="#DejaVuSans-69" transform="translate(213.330078 0.765625)"/>
      <use xlink:href="#DejaVuSans-65" transform="translate(241.113281 0.765625)"/>
      <use xlink:href="#DejaVuSans-72" transform="translate(302.636719 0.765625)"/>
      <use xlink:href="#DejaVuSans-20" transform="translate(343.75 0.765625)"/>
      <use xlink:href="#DejaVuSans-64" transform="translate(375.537109 0.765625)"/>
      <use xlink:href="#DejaVuSans-65" transform="translate(439.013672 0.765625)"/>
      <use xlink:href="#DejaVuSans-6e" transform="translate(500.537109 0.765625)"/>
      <use xlink:href="#DejaVuSans-73" transform="translate(563.916016 0.765625)"/>
      <use xlink:href="#DejaVuSans-69" transform="translate(616.015625 0.765625)"/>
      <use xlink:href="#DejaVuSans-74" transform="translate(643.798828 0.765625)"/>
      <use xlink:href="#DejaVuSans-79" transform="translate(683.007812 0.765625)"/>
      <use xlink:href="#DejaVuSans-20" transform="translate(742.1875 0.765625)"/>
      <use xlink:href="#DejaVuSans-28" transform="translate(773.974609 0.765625)"/>
      <use xlink:href="#DejaVuSans-6d" transform="translate(812.988281 0.765625)"/>
      <use xlink:href="#DejaVuSans-2212" transform="translate(911.357422 39.046875) scale(0.7)"/>
      <use xlink:href="#DejaVuSans-33" transform="translate(970.009766 39.046875) scale(0.7)"/>
      <use xlink:href="#DejaVuSans-29" transform="translate(1017.280273 0.765625)"/>
     </g>
    </g>
   </g>
   <g id="line2d_17">
    <path d="M 77.052172 72.813781 
L 77.846419 72.813778 
L 77.854441 54.721406 
L 84.59455 54.618138 
L 89.880461 54.388259 
L 89.888483 57.824908 
L 89.996537 57.818686 
L 90.68273 57.778769 
L 90.797455 53.087514 
L 90.843184 53.084824 
L 90.960506 47.322897 
L 91.404773 47.287772 
L 91.412795 53.041771 
L 91.519497 53.031471 
L 91.565227 53.027028 
L 91.573249 57.710818 
L 91.681303 57.70011 
L 93.169766 57.550719 
L 93.28449 52.854618 
L 93.330219 52.849996 
L 93.447542 47.08319 
L 93.891808 47.02887 
L 93.899831 52.782506 
L 94.006533 52.76732 
L 94.052262 52.76078 
L 94.060285 57.444198 
L 94.168339 57.428449 
L 95.656801 57.209399 
L 95.771525 52.507991 
L 95.817255 52.501249 
L 95.934577 46.729075 
L 96.378843 46.65323 
L 96.386866 52.406454 
L 96.493568 52.385708 
L 96.539297 52.37678 
L 96.54732 57.059776 
L 96.655374 57.038285 
L 98.143836 56.739806 
L 98.258561 52.032334 
L 98.30429 52.02317 
L 98.421612 46.24483 
L 98.865879 46.143724 
L 98.873902 51.896456 
L 98.980603 51.869077 
L 99.026333 51.857299 
L 99.034355 56.53979 
L 99.142409 56.511443 
L 100.630872 56.117969 
L 100.745596 51.403231 
L 100.791326 51.391161 
L 100.908648 45.60538 
L 101.352914 45.472988 
L 101.360937 51.2251 
L 101.467639 51.189346 
L 101.513368 51.173967 
L 101.521391 55.85582 
L 101.629445 55.818806 
L 103.117907 55.305047 
L 103.232632 50.581082 
L 103.278361 50.565317 
L 103.395683 44.770005 
L 103.83995 44.596176 
L 103.847972 50.347447 
L 103.954674 50.300334 
L 104.000403 50.280066 
L 104.008426 54.961053 
L 104.11648 54.912267 
L 105.604942 54.234739 
L 105.719667 49.498161 
L 105.765396 49.477337 
L 105.882718 43.668832 
L 106.326985 43.434948 
L 106.335008 49.184964 
L 106.441709 49.120863 
L 106.487439 49.093272 
L 106.495461 53.772962 
L 106.603515 53.706536 
L 108.091978 52.782767 
L 108.206702 48.02711 
L 108.252432 47.998608 
L 108.369754 42.169739 
L 108.81402 41.836371 
L 108.822043 47.584213 
L 108.928745 47.490664 
L 108.974474 47.450358 
L 108.982497 52.127792 
L 109.090551 52.030704 
L 110.579013 50.676406 
L 110.693738 45.887009 
L 110.739467 45.844851 
L 110.856789 39.978512 
L 111.301056 39.437299 
L 111.309078 45.180258 
L 111.41578 45.020412 
L 111.461509 44.951386 
L 111.469532 49.62372 
L 111.577586 49.457257 
L 113.066048 47.115708 
L 113.180773 42.24644 
L 113.226502 42.171373 
L 113.343824 36.205637 
L 113.707881 35.214066 
L 113.788091 34.913168 
L 113.796114 40.635469 
L 113.902815 40.193493 
L 113.948545 40.001147 
L 113.956568 44.651501 
L 114.064621 44.185569 
L 115.553084 37.869319 
L 115.591593 33.116222 
L 115.667808 33.535777 
L 115.713538 34.144409 
L 115.72156 28.522672 
L 115.818095 29.85223 
L 116.148517 32.371357 
L 116.275126 32.842802 
L 116.389851 38.926271 
L 116.43558 39.05227 
L 116.551657 44.056163 
L 118.040119 47.976526 
L 118.048142 43.312376 
L 118.154844 43.580166 
L 118.200573 43.694031 
L 118.208596 37.958942 
L 118.317895 38.211761 
L 118.762162 39.0428 
L 118.876886 44.979204 
L 118.922616 45.051103 
L 119.038692 49.920478 
L 120.527154 52.267068 
L 120.535177 47.594944 
L 120.641879 47.758858 
L 120.687608 47.82891 
L 120.695631 42.086273 
L 120.804931 42.246675 
L 121.249197 42.851924 
L 121.363922 48.757403 
L 121.409651 48.817388 
L 121.525728 53.656518 
L 123.01419 55.632927 
L 123.022212 50.958889 
L 123.128914 51.097804 
L 123.174644 51.15728 
L 123.182666 45.412819 
L 123.291966 45.550561 
L 123.736232 46.096212 
L 123.850957 51.992463 
L 123.896686 52.048867 
L 124.012763 56.878873 
L 125.501225 58.742717 
L 125.509248 54.068094 
L 125.61595 54.19937 
L 125.661679 54.255612 
L 125.669702 48.510594 
L 125.779001 48.641375 
L 126.223268 49.168299 
L 126.337992 55.061545 
L 126.383722 55.116781 
L 126.499798 59.943807 
L 127.988261 61.770799 
L 127.996283 57.095985 
L 128.102985 57.224757 
L 128.148714 57.279938 
L 128.156737 51.534737 
L 128.266037 51.663232 
L 128.710303 52.183961 
L 128.825028 58.076201 
L 128.870757 58.131045 
L 128.986834 62.957073 
L 130.475296 64.77171 
L 130.483319 60.096832 
L 130.59002 60.224763 
L 130.63575 60.279589 
L 130.643772 54.534327 
L 130.753072 54.662054 
L 131.197338 55.180698 
L 131.312063 61.072599 
L 131.357792 61.127311 
L 131.473869 65.953001 
L 132.962331 67.763463 
L 132.970354 63.088563 
L 133.077056 63.216211 
L 133.122785 63.270916 
L 133.130808 57.525633 
L 133.240107 57.653101 
L 133.684374 58.17104 
L 133.799098 64.062826 
L 133.844828 64.117493 
L 133.960904 68.943069 
L 135.449367 70.752116 
L 135.457389 66.077208 
L 135.564091 66.20476 
L 135.60982 66.259425 
L 135.617843 60.514134 
L 135.727143 60.641515 
L 136.171409 61.159214 
L 136.286134 67.050961 
L 136.331863 67.105612 
L 136.44794 71.93115 
L 137.936402 73.739717 
L 137.944425 69.064807 
L 138.051126 69.192326 
L 138.096856 69.246977 
L 138.104878 63.501684 
L 138.214178 63.629035 
L 138.658444 64.146653 
L 138.773169 70.038387 
L 138.818898 70.093033 
L 138.934975 74.918557 
L 140.423437 76.726962 
L 140.43146 72.052051 
L 140.538162 72.179559 
L 140.583891 72.234205 
L 140.591914 66.488911 
L 140.701213 66.616252 
L 141.14548 67.133843 
L 141.260204 73.025572 
L 141.305934 73.080217 
L 141.42201 77.905736 
L 142.910473 79.714086 
L 142.918495 75.039174 
L 143.025197 75.166679 
L 143.070926 75.221323 
L 143.078949 69.476029 
L 143.188249 69.603366 
L 143.632515 70.120948 
L 143.74724 76.012675 
L 143.792969 76.06732 
L 143.909046 80.892838 
L 145.397508 82.701168 
L 145.405531 78.026257 
L 145.512232 78.15376 
L 145.557962 78.208404 
L 145.565985 72.46311 
L 145.675284 72.590446 
L 146.11955 73.108024 
L 146.234275 78.999751 
L 146.280004 79.054395 
L 146.396081 83.879913 
L 147.884543 85.688237 
L 147.892566 81.013325 
L 147.999268 81.140828 
L 148.044997 81.195472 
L 148.05302 75.450178 
L 148.162319 75.577514 
L 148.606586 76.095091 
L 148.72131 81.986818 
L 148.76704 82.041461 
L 148.883116 86.866979 
L 150.371579 88.675301 
L 150.379601 84.000389 
L 150.486303 84.127892 
L 150.532033 84.182536 
L 150.540055 78.437242 
L 150.649355 78.564577 
L 151.093621 79.082154 
L 151.208346 84.973881 
L 151.254075 85.028525 
L 151.370152 89.854042 
L 152.858614 91.662363 
L 152.866637 86.987452 
L 152.973339 87.114954 
L 153.019068 87.169598 
L 153.027091 81.424304 
L 153.13639 81.55164 
L 153.580657 82.069216 
L 153.695381 87.960943 
L 153.74111 88.015587 
L 153.857187 92.841104 
L 155.345649 94.649425 
L 155.353672 89.974514 
L 155.460374 90.102016 
L 155.506103 90.15666 
L 155.514126 84.411366 
L 155.623425 84.538701 
L 156.067692 85.056278 
L 156.182416 90.948005 
L 156.228146 91.002649 
L 156.344222 95.828166 
L 157.832685 97.636487 
L 157.840707 92.961575 
L 157.947409 93.089078 
L 157.993139 93.143722 
L 158.001161 87.398428 
L 158.110461 87.525763 
L 158.554727 88.04334 
L 158.669452 93.935066 
L 158.715181 93.98971 
L 158.831258 98.815228 
L 160.31972 100.623549 
L 160.327743 95.948637 
L 160.434445 96.076139 
L 160.480174 96.130783 
L 160.488197 90.385489 
L 160.597496 90.512825 
L 161.041763 91.030401 
L 161.156487 96.922128 
L 161.202216 96.976772 
L 161.318293 101.802289 
L 162.806755 103.61061 
L 162.814778 98.935699 
L 162.92148 99.063201 
L 162.967209 99.117845 
L 162.975232 93.372551 
L 163.084531 93.499886 
L 163.528798 94.017463 
L 163.643522 99.909189 
L 163.689252 99.963833 
L 163.805328 104.789351 
L 165.293791 106.597672 
L 165.301813 101.92276 
L 165.408515 102.050263 
L 165.454245 102.104906 
L 165.462267 96.359612 
L 165.571567 96.486948 
L 166.015833 97.004524 
L 166.130558 102.896251 
L 166.176287 102.950895 
L 166.292364 107.776412 
L 167.780826 109.584733 
L 167.788849 104.909822 
L 167.895551 105.037324 
L 167.94128 105.091968 
L 167.949303 99.346674 
L 168.058602 99.474009 
L 168.502869 99.991586 
L 168.617593 105.883313 
L 168.663323 105.937957 
L 168.779399 110.763474 
L 170.267861 112.571795 
L 170.275884 107.896883 
L 170.382586 108.024386 
L 170.428315 108.07903 
L 170.436338 102.333736 
L 170.545638 102.461071 
L 170.989904 102.978648 
L 171.104629 108.870374 
L 171.150358 108.925018 
L 171.266435 113.750536 
L 172.754897 115.558857 
L 172.762919 110.883945 
L 172.869621 111.011447 
L 172.915351 111.066091 
L 172.923373 105.320797 
L 173.032673 105.448133 
L 173.476939 105.965709 
L 173.591664 111.857436 
L 173.637393 111.91208 
L 173.75347 116.737597 
L 175.241932 118.545918 
L 175.249955 113.871007 
L 175.356657 113.998509 
L 175.402386 114.053153 
L 175.410409 108.307859 
L 175.519708 108.435194 
L 175.963975 108.952771 
L 176.078699 114.844498 
L 176.124429 114.899141 
L 176.240505 119.724659 
L 177.728967 121.53298 
L 177.73699 116.858068 
L 177.843692 116.985571 
L 177.889421 117.040215 
L 177.897444 111.294921 
L 178.006744 111.422256 
L 178.45101 111.939833 
L 178.565735 117.83156 
L 178.611464 117.886204 
L 178.727541 122.711721 
L 180.216003 124.520042 
L 180.224026 119.845131 
L 180.330727 119.972633 
L 180.376457 120.027277 
L 180.384479 114.281983 
L 180.493779 114.409319 
L 180.938045 114.926896 
L 181.05277 120.818622 
L 181.098499 120.873266 
L 181.214576 125.698784 
L 182.703038 127.507107 
L 182.711061 122.832195 
L 182.817763 122.959697 
L 182.863492 123.014341 
L 182.871515 117.269047 
L 182.980814 117.396383 
L 183.425081 117.913961 
L 183.539805 123.805688 
L 183.585535 123.860332 
L 183.701611 128.68585 
L 185.190074 130.494175 
L 185.198096 125.819264 
L 185.304798 125.946767 
L 185.350527 126.001411 
L 185.35855 120.256117 
L 185.46785 120.383453 
L 185.912116 120.901032 
L 186.026841 126.79276 
L 186.07257 126.847404 
L 186.188647 131.672923 
L 187.677109 133.481259 
L 187.685132 128.806347 
L 187.791833 128.933851 
L 187.837563 128.988495 
L 187.845585 123.243201 
L 187.954885 123.370538 
L 188.399151 123.888123 
L 188.513876 129.779853 
L 188.559605 129.834499 
L 188.675682 134.66002 
L 190.164144 136.468384 
L 190.172167 131.793472 
L 190.278869 131.920978 
L 190.324598 131.975623 
L 190.332621 126.230329 
L 190.44192 126.357669 
L 190.886187 126.875272 
L 191.000911 132.767009 
L 191.046641 132.821657 
L 191.162717 137.647184 
L 192.65118 139.455633 
L 192.659202 134.780722 
L 192.765904 134.908234 
L 192.811633 134.962881 
L 192.819656 129.217588 
L 192.928956 129.344935 
L 193.373222 129.862591 
L 193.487947 135.754347 
L 193.533676 135.809002 
L 193.649753 140.634549 
L 195.138215 142.443247 
L 195.146238 137.768338 
L 195.252939 137.895867 
L 195.298669 137.950523 
L 195.306692 132.205231 
L 195.415991 132.332599 
L 195.860257 132.850411 
L 195.974982 138.742224 
L 196.020711 138.796902 
L 196.136788 143.622506 
L 197.62525 145.431939 
L 197.633273 140.757033 
L 197.739975 140.884617 
L 197.785704 140.939296 
L 197.793727 135.194008 
L 197.903026 135.32144 
L 198.347293 135.839709 
L 198.462017 141.731689 
L 198.507747 141.786434 
L 198.623823 146.612209 
L 200.112286 148.423811 
L 200.120308 143.748917 
L 200.22701 143.876659 
L 200.27274 143.931406 
L 200.280762 138.18613 
L 200.390062 138.31375 
L 200.834328 138.833371 
L 200.949053 144.725845 
L 200.994782 144.780788 
L 201.110859 149.607064 
L 202.599321 151.425077 
L 202.607344 146.750218 
L 202.714046 146.878428 
L 202.759775 146.933376 
L 202.767798 141.188135 
L 202.877097 141.316311 
L 203.321364 141.839937 
L 203.436088 147.733877 
L 203.481817 147.789406 
L 203.597894 152.61717 
L 205.086356 154.454205 
L 205.094379 149.77945 
L 205.201081 149.909047 
L 205.24681 149.964592 
L 205.254833 144.219455 
L 205.364132 144.349286 
L 205.808399 144.884896 
L 205.923123 150.783238 
L 205.968853 150.840526 
L 206.084929 155.672758 
L 207.573392 157.566902 
L 207.581414 152.892457 
L 207.688116 153.02622 
L 207.733846 153.083559 
L 207.741868 147.338734 
L 207.851168 147.473572 
L 208.295434 148.046176 
L 208.410159 153.958225 
L 208.455888 154.020993 
L 208.571965 158.867141 
L 210.060427 160.938913 
L 210.06845 156.265434 
L 210.175152 156.412191 
L 210.220881 156.475125 
L 210.228904 150.731276 
L 210.338203 150.882119 
L 210.78247 151.580582 
L 210.897194 157.540588 
L 210.942923 157.622528 
L 211.059 162.517286 
L 212.547462 165.205879 
L 212.555485 160.535762 
L 212.662187 160.72817 
L 212.707916 160.810814 
L 212.715939 155.070413 
L 212.825238 155.283491 
L 213.210498 156.37245 
L 213.269505 156.595266 
L 213.384229 162.813578 
L 213.429959 162.998859 
L 213.546035 168.152854 
L 214.232228 170.884185 
L 214.240251 167.478997 
L 214.728034 169.1994 
L 215.467803 170.950556 
L 216.64352 172.125709 
L 218.430881 172.14961 
L 228.621495 169.152474 
L 233.756214 167.884747 
L 239.711359 166.636337 
L 246.410446 165.474282 
L 253.758659 164.436661 
L 261.650442 163.537477 
L 269.97488 162.775071 
L 278.618306 162.139336 
L 296.395799 161.192467 
L 314.055723 160.584272 
L 330.74708 160.216244 
L 351.813989 159.963203 
L 367.941415 159.90673 
L 369.9653 159.982785 
L 371.431227 160.24018 
L 372.469746 160.817518 
L 373.19243 161.784295 
L 373.688433 163.108018 
L 374.025707 164.694253 
L 374.41113 168.28778 
L 374.608311 172.551443 
L 374.686122 175.994758 
L 374.781246 201.833082 
L 375.011186 214.723632 
L 375.166603 218.944012 
L 375.388974 220.988467 
L 375.689106 221.579479 
L 376.530213 222.057574 
L 378.978018 223.382089 
L 381.192874 224.776101 
L 383.522513 226.490843 
L 385.855478 228.511469 
L 388.60015 231.294487 
L 390.70088 233.760858 
L 390.739534 233.814071 
L 390.739534 233.814071 
" clip-path="url(#p4d96a5d3e7)" style="fill: none; stroke: #0000ff; stroke-width: 1.5; stroke-linecap: square"/>
   </g>
   <g id="line2d_18">
    <path d="M 77.052172 168.407559 
L 77.192141 160.199338 
L 77.411446 158.195165 
L 77.564881 157.93112 
L 77.601614 157.949182 
L 77.730236 158.257305 
L 77.846419 158.960139 
L 77.854441 126.919984 
L 84.59455 127.026151 
L 89.880461 127.260581 
L 89.996537 129.708575 
L 90.68273 129.750351 
L 90.690753 125.635707 
L 90.797455 125.641979 
L 90.843184 125.644696 
L 90.851207 114.73509 
L 90.960506 114.741793 
L 91.404773 114.776923 
L 91.519497 125.698119 
L 91.565227 125.702588 
L 91.681303 129.82951 
L 93.169766 129.983179 
L 93.177788 125.868878 
L 93.28449 125.87966 
L 93.330219 125.884313 
L 93.338242 114.975042 
L 93.447542 114.986288 
L 93.891808 115.040615 
L 94.006533 125.967067 
L 94.052262 125.973636 
L 94.168339 130.106006 
L 95.656801 130.329877 
L 95.664824 126.215951 
L 95.771525 126.231677 
L 95.817255 126.238452 
L 95.825278 115.329549 
L 95.934577 115.345796 
L 96.378843 115.421649 
L 96.493568 126.354084 
L 96.539297 126.363046 
L 96.655374 130.501636 
L 98.143836 130.805806 
L 98.151859 126.692309 
L 98.258561 126.713687 
L 98.30429 126.722891 
L 98.312313 115.814408 
L 98.421612 115.836402 
L 98.865879 115.937518 
L 98.980603 126.877096 
L 99.026333 126.888915 
L 99.142409 131.034957 
L 100.630872 131.435545 
L 100.638894 127.322563 
L 100.745596 127.350723 
L 100.791326 127.362843 
L 100.799348 116.454865 
L 100.908648 116.483796 
L 101.352914 116.616201 
L 101.467639 127.564804 
L 101.513368 127.580238 
L 101.629445 131.735737 
L 103.117907 132.259056 
L 103.12593 128.14673 
L 103.232632 128.183513 
L 103.278361 128.199348 
L 103.286384 117.292012 
L 103.395683 117.329834 
L 103.83995 117.503681 
L 103.954674 128.464537 
L 104.000403 128.484883 
L 104.11648 132.653296 
L 105.604942 133.344942 
L 105.612965 129.233516 
L 105.719667 129.28211 
L 105.765396 129.303041 
L 105.773419 118.396585 
L 105.882718 118.446724 
L 106.326985 118.680636 
L 106.441709 129.659843 
L 106.487439 129.687557 
L 106.603515 133.875461 
L 108.091978 134.823052 
L 108.1 130.712995 
L 108.206702 130.77952 
L 108.252432 130.808211 
L 108.260454 119.903093 
L 108.369754 119.972268 
L 108.81402 120.305688 
L 108.928745 131.31677 
L 108.974474 131.35731 
L 109.090551 135.579474 
L 110.579013 136.983733 
L 110.587036 132.876127 
L 110.693738 132.974594 
L 110.739467 133.017187 
L 110.74749 122.11446 
L 110.856789 122.218742 
L 111.301056 122.76008 
L 111.41578 133.843191 
L 111.461509 133.912827 
L 111.577586 138.214135 
L 113.066048 140.722672 
L 113.074071 136.621097 
L 113.180773 136.796954 
L 113.226502 136.873821 
L 113.234525 125.976925 
L 113.343824 126.174927 
L 113.707881 127.166976 
L 113.788091 127.468009 
L 113.902815 138.8609 
L 113.948545 139.05721 
L 114.064621 143.725728 
L 114.810726 147.894823 
L 115.234205 151.438549 
L 115.463231 155.155443 
L 115.553084 158.184276 
L 115.561106 154.277481 
L 115.667808 154.989038 
L 115.713538 154.819124 
L 115.818095 142.48142 
L 116.148517 139.989342 
L 116.275126 139.524151 
L 116.283149 150.414705 
L 116.389851 150.293691 
L 116.43558 150.242564 
L 116.551657 154.916094 
L 117.09295 158.374048 
L 117.566667 162.84316 
L 118.01879 169.407244 
L 118.040119 169.803893 
L 118.048142 165.755421 
L 118.154844 165.955703 
L 118.200573 166.035244 
L 118.317895 154.87253 
L 118.762162 154.078246 
L 118.876886 165.111249 
L 118.922616 165.164482 
L 119.038692 170.606355 
L 119.443347 177.14691 
L 119.757411 186.535855 
L 120.053702 202.606228 
L 120.527154 234.32538 
L 120.55042 230.405659 
L 120.687608 230.944057 
L 120.804931 219.883346 
L 121.249197 219.322717 
L 121.363922 230.438959 
L 121.409651 230.506681 
L 121.525728 235.290641 
L 121.591366 235.209393 
L 121.700426 234.210396 
L 121.854296 230.168147 
L 122.219943 211.625072 
L 122.769385 186.416509 
L 123.174644 174.993194 
L 123.291966 163.917363 
L 123.736232 163.336334 
L 123.744255 174.230592 
L 123.850957 173.806422 
L 123.896686 173.630622 
L 123.904709 177.686171 
L 124.012763 176.321909 
L 124.554056 171.273211 
L 125.385042 165.865122 
L 125.501225 165.194582 
L 125.61595 160.822713 
L 125.661679 160.725975 
L 125.779001 149.67116 
L 126.223268 149.13573 
L 126.23129 160.034773 
L 126.337992 159.834203 
L 126.383722 159.749193 
L 126.391744 163.842085 
L 126.499798 163.38324 
L 127.591977 159.277964 
L 127.988261 158.006347 
L 128.102985 153.704832 
L 128.148714 153.632897 
L 128.266037 142.583025 
L 128.710303 142.05877 
L 128.718326 152.958738 
L 128.825028 152.801042 
L 128.870757 152.733865 
L 128.87878 156.834128 
L 128.986834 156.56802 
L 130.193758 153.92326 
L 130.475296 153.378501 
L 130.59002 149.108275 
L 130.63575 149.047337 
L 130.753072 137.999402 
L 131.197338 137.479471 
L 131.205361 148.379847 
L 131.312063 148.241337 
L 131.357792 148.182127 
L 131.365815 152.28569 
L 131.473869 152.105368 
L 132.962331 149.80641 
L 133.077056 145.547887 
L 133.122785 145.491056 
L 133.240107 134.443817 
L 133.684374 133.925431 
L 133.692396 144.825959 
L 133.799098 144.69463 
L 133.844828 144.638399 
L 133.85285 148.743197 
L 133.960904 148.594888 
L 135.449367 146.617541 
L 135.564091 142.36312 
L 135.60982 142.307729 
L 135.727143 131.260729 
L 136.171409 130.742877 
L 136.179432 141.643459 
L 136.286134 141.514648 
L 136.331863 141.459461 
L 136.339886 145.564692 
L 136.44794 145.427595 
L 137.936402 143.561655 
L 138.051126 139.30864 
L 138.096856 139.253742 
L 138.214178 128.206825 
L 138.658444 127.689155 
L 138.666467 138.589754 
L 138.773169 138.461807 
L 138.818898 138.406979 
L 138.826921 142.512358 
L 138.934975 142.379104 
L 140.423437 140.551212 
L 140.538162 136.298676 
L 140.583891 136.243946 
L 140.701213 125.197057 
L 141.14548 124.679448 
L 141.153502 135.580054 
L 141.260204 135.452401 
L 141.305934 135.397694 
L 141.313956 139.503124 
L 141.42201 139.371178 
L 142.910473 137.556218 
L 143.025197 133.303844 
L 143.070926 133.249171 
L 143.188249 122.202292 
L 143.632515 121.684704 
L 143.640538 132.585312 
L 143.74724 132.457759 
L 143.792969 132.403094 
L 143.800992 136.508541 
L 143.909046 136.377039 
L 145.397508 134.566466 
L 145.512232 130.314148 
L 145.557962 130.259494 
L 145.675284 119.212618 
L 146.11955 118.695037 
L 146.127573 129.595646 
L 146.234275 129.468126 
L 146.280004 129.413475 
L 146.288027 133.518928 
L 146.396081 133.387577 
L 147.884543 131.578493 
L 147.999268 127.326193 
L 148.044997 127.271546 
L 148.162319 116.22467 
L 148.606586 115.707092 
L 148.614609 126.607701 
L 148.72131 126.480193 
L 148.76704 126.425547 
L 148.775062 130.531001 
L 148.883116 130.399701 
L 150.371579 128.591122 
L 150.486303 124.338828 
L 150.532033 124.284183 
L 150.649355 113.237308 
L 151.093621 112.719731 
L 151.101644 123.62034 
L 151.208346 123.492836 
L 151.254075 123.438191 
L 151.262098 127.543647 
L 151.370152 127.412364 
L 152.858614 125.603955 
L 152.973339 121.351664 
L 153.019068 121.29702 
L 153.13639 110.250145 
L 153.580657 109.732568 
L 153.588679 120.633177 
L 153.695381 120.505674 
L 153.74111 120.45103 
L 153.749133 124.556486 
L 153.857187 124.425209 
L 155.345649 122.616858 
L 155.460374 118.364568 
L 155.506103 118.309924 
L 155.623425 107.263049 
L 156.067692 106.745472 
L 156.075715 117.646081 
L 156.182416 117.518579 
L 156.228146 117.463935 
L 156.236168 121.56939 
L 156.344222 121.438115 
L 157.832685 119.629784 
L 157.947409 115.377494 
L 157.993139 115.32285 
L 158.110461 104.275975 
L 158.554727 103.758399 
L 158.56275 114.659008 
L 158.669452 114.531505 
L 158.715181 114.476862 
L 158.723204 118.582317 
L 158.831258 118.451043 
L 160.31972 116.642719 
L 160.434445 112.390429 
L 160.480174 112.335785 
L 160.597496 101.28891 
L 161.041763 100.771333 
L 161.049785 111.671942 
L 161.156487 111.54444 
L 161.202216 111.489796 
L 161.210239 115.595252 
L 161.318293 115.463978 
L 162.806755 113.655656 
L 162.92148 109.403366 
L 162.967209 109.348722 
L 163.084531 98.301847 
L 163.528798 97.78427 
L 163.536821 108.684879 
L 163.643522 108.557377 
L 163.689252 108.502733 
L 163.697275 112.608189 
L 163.805328 112.476915 
L 165.293791 110.668594 
L 165.408515 106.416304 
L 165.454245 106.36166 
L 165.571567 95.314785 
L 166.015833 94.797208 
L 166.023856 105.697817 
L 166.130558 105.570315 
L 166.176287 105.515671 
L 166.18431 109.621127 
L 166.292364 109.489853 
L 167.780826 107.681532 
L 167.895551 103.429242 
L 167.94128 103.374598 
L 168.058602 92.327723 
L 168.502869 91.810146 
L 168.510891 102.710756 
L 168.617593 102.583253 
L 168.663323 102.528609 
L 168.671345 106.634065 
L 168.779399 106.502791 
L 170.267861 104.69447 
L 170.382586 100.44218 
L 170.428315 100.387536 
L 170.545638 89.340661 
L 170.989904 88.823085 
L 170.997927 99.723694 
L 171.104629 99.596192 
L 171.150358 99.541548 
L 171.158381 103.647003 
L 171.266435 103.51573 
L 172.754897 101.707409 
L 172.869621 97.455119 
L 172.915351 97.400475 
L 173.032673 86.3536 
L 173.476939 85.836023 
L 173.484962 96.736632 
L 173.591664 96.60913 
L 173.637393 96.554486 
L 173.645416 100.659942 
L 173.75347 100.528668 
L 175.241932 98.720347 
L 175.356657 94.468057 
L 175.402386 94.413413 
L 175.519708 83.366538 
L 175.963975 82.848961 
L 175.971997 93.749571 
L 176.078699 93.622068 
L 176.124429 93.567424 
L 176.132451 97.67288 
L 176.240505 97.541606 
L 177.728967 95.733285 
L 177.843692 91.480995 
L 177.889421 91.426351 
L 178.006744 80.379476 
L 178.45101 79.861899 
L 178.459033 90.762509 
L 178.565735 90.635006 
L 178.611464 90.580362 
L 178.619487 94.685818 
L 178.727541 94.554544 
L 180.216003 92.746223 
L 180.330727 88.493932 
L 180.376457 88.439289 
L 180.493779 77.392414 
L 180.938045 76.874837 
L 180.946068 87.775446 
L 181.05277 87.647943 
L 181.098499 87.593299 
L 181.106522 91.698755 
L 181.214576 91.567481 
L 182.703038 89.759159 
L 182.817763 85.506868 
L 182.863492 85.452224 
L 182.980814 74.405349 
L 183.425081 73.887772 
L 183.433103 84.788381 
L 183.539805 84.660878 
L 183.585535 84.606234 
L 183.593557 88.71169 
L 183.701611 88.580415 
L 185.190074 86.772089 
L 185.304798 82.519799 
L 185.350527 82.465155 
L 185.46785 71.41828 
L 185.912116 70.9007 
L 185.920139 81.801309 
L 186.026841 81.673806 
L 186.07257 81.619161 
L 186.080593 85.724617 
L 186.188647 85.593342 
L 187.677109 83.785006 
L 187.791833 79.532714 
L 187.837563 79.47807 
L 187.954885 68.431194 
L 188.399151 67.913608 
L 188.407174 78.814217 
L 188.513876 78.686712 
L 188.559605 78.632066 
L 188.567628 82.737522 
L 188.675682 82.606245 
L 190.164144 80.797879 
L 190.278869 76.545585 
L 190.324598 76.49094 
L 190.44192 65.444061 
L 190.886187 64.926458 
L 190.894209 75.827066 
L 191.000911 75.699554 
L 191.046641 75.644907 
L 191.054663 79.750362 
L 191.162717 79.619078 
L 192.65118 77.810625 
L 192.765904 73.558325 
L 192.811633 73.503677 
L 192.928956 62.45679 
L 193.373222 61.939134 
L 193.381245 72.839741 
L 193.487947 72.712211 
L 193.533676 72.657556 
L 193.541699 76.76301 
L 193.649753 76.631707 
L 195.138215 74.822997 
L 195.252939 70.570677 
L 195.298669 70.516021 
L 195.415991 59.469111 
L 195.860257 58.9513 
L 195.86828 69.851903 
L 195.974982 69.72432 
L 196.020711 69.669642 
L 196.028734 73.775092 
L 196.136788 73.643735 
L 197.62525 71.834266 
L 197.739975 67.581887 
L 197.785704 67.527208 
L 197.903026 56.480231 
L 198.347293 55.961961 
L 198.355316 66.862552 
L 198.462017 66.734814 
L 198.507747 66.680068 
L 198.515769 70.785506 
L 198.623823 70.653988 
L 200.112286 68.84228 
L 200.22701 64.589731 
L 200.27274 64.534983 
L 200.390062 53.487805 
L 200.834328 52.968183 
L 200.842351 63.86874 
L 200.949053 63.740539 
L 200.994782 63.685596 
L 201.002805 67.790998 
L 201.110859 67.659003 
L 202.599321 65.840686 
L 202.714046 61.58763 
L 202.759775 61.53268 
L 202.877097 50.48491 
L 203.321364 49.961281 
L 203.329386 60.861737 
L 203.436088 60.732167 
L 203.481817 60.676635 
L 203.48984 64.781934 
L 203.597894 64.648525 
L 205.086356 62.810606 
L 205.201081 58.556048 
L 205.24681 58.500496 
L 205.364132 47.450966 
L 205.808399 46.915346 
L 205.816422 57.815497 
L 205.923123 57.681817 
L 205.968853 57.62452 
L 205.976875 61.729507 
L 206.084929 61.591853 
L 207.573392 59.69508 
L 207.688116 55.436008 
L 207.733846 55.378649 
L 207.851168 44.323796 
L 208.295434 43.751162 
L 208.303457 54.650365 
L 208.410159 54.503883 
L 208.455888 54.441089 
L 208.463911 58.545102 
L 208.571965 58.394225 
L 210.060427 56.31402 
L 210.175152 52.040864 
L 210.220881 51.977865 
L 210.338203 40.906012 
L 210.78247 40.207449 
L 210.790492 51.103331 
L 210.897194 50.912054 
L 210.942923 50.830017 
L 210.950946 54.930623 
L 211.059 54.733459 
L 212.547462 52.009908 
L 212.662187 47.687094 
L 212.707916 47.604148 
L 212.825238 36.466515 
L 213.210498 35.377113 
L 213.269505 35.154212 
L 213.277528 46.032203 
L 213.384229 45.59934 
L 213.429959 45.413413 
L 213.437982 49.495618 
L 213.546035 49.048376 
L 214.232228 46.194704 
L 214.240251 43.720397 
L 214.728034 41.950469 
L 215.467803 40.059728 
L 216.64352 38.515901 
L 218.430881 37.805334 
L 220.971515 37.633263 
L 239.711359 37.607459 
L 369.9653 37.510383 
L 371.431227 37.251139 
L 372.469746 36.67273 
L 373.19243 35.705273 
L 373.688433 34.381066 
L 374.025707 32.794455 
L 374.41113 29.200343 
L 374.608311 24.936206 
L 374.686122 21.492727 
L 374.694145 52.87859 
L 374.781246 45.789876 
L 375.011186 32.901649 
L 375.166603 28.696209 
L 375.388974 26.712888 
L 375.689106 26.249239 
L 376.530213 26.179258 
L 390.739534 26.178836 
L 390.739534 26.178836 
" clip-path="url(#p4d96a5d3e7)" style="fill: none; stroke: #ff0000; stroke-width: 1.5; stroke-linecap: square"/>
   </g>
   <g id="line2d_19">
    <path d="M 77.052172 72.813781 
L 77.846419 72.813778 
L 77.854441 54.721406 
L 84.59455 54.618138 
L 89.880461 54.388259 
L 89.888483 57.824908 
L 89.996537 57.818686 
L 90.68273 57.778769 
L 90.797455 53.087514 
L 90.843184 53.084824 
L 90.960506 47.322897 
L 91.404773 47.287772 
L 91.412795 53.041771 
L 91.519497 53.031471 
L 91.565227 53.027028 
L 91.573249 57.710818 
L 91.681303 57.70011 
L 93.169766 57.550719 
L 93.28449 52.854618 
L 93.330219 52.849996 
L 93.447542 47.08319 
L 93.891808 47.02887 
L 93.899831 52.782506 
L 94.006533 52.76732 
L 94.052262 52.76078 
L 94.060285 57.444198 
L 94.168339 57.428449 
L 95.656801 57.209399 
L 95.771525 52.507991 
L 95.817255 52.501249 
L 95.934577 46.729075 
L 96.378843 46.65323 
L 96.386866 52.406454 
L 96.493568 52.385708 
L 96.539297 52.37678 
L 96.54732 57.059776 
L 96.655374 57.038285 
L 98.143836 56.739806 
L 98.258561 52.032334 
L 98.30429 52.02317 
L 98.421612 46.24483 
L 98.865879 46.143724 
L 98.873902 51.896456 
L 98.980603 51.869077 
L 99.026333 51.857299 
L 99.034355 56.53979 
L 99.142409 56.511443 
L 100.630872 56.117969 
L 100.745596 51.403231 
L 100.791326 51.391161 
L 100.908648 45.60538 
L 101.352914 45.472988 
L 101.360937 51.2251 
L 101.467639 51.189346 
L 101.513368 51.173967 
L 101.521391 55.85582 
L 101.629445 55.818806 
L 103.117907 55.305047 
L 103.232632 50.581082 
L 103.278361 50.565317 
L 103.395683 44.770005 
L 103.83995 44.596176 
L 103.847972 50.347447 
L 103.954674 50.300334 
L 104.000403 50.280066 
L 104.008426 54.961053 
L 104.11648 54.912267 
L 105.604942 54.234739 
L 105.719667 49.498161 
L 105.765396 49.477337 
L 105.882718 43.668832 
L 106.326985 43.434948 
L 106.335008 49.184964 
L 106.441709 49.120863 
L 106.487439 49.093272 
L 106.495461 53.772962 
L 106.603515 53.706536 
L 108.091978 52.782767 
L 108.206702 48.02711 
L 108.252432 47.998608 
L 108.369754 42.169739 
L 108.81402 41.836371 
L 108.822043 47.584213 
L 108.928745 47.490664 
L 108.974474 47.450358 
L 108.982497 52.127792 
L 109.090551 52.030704 
L 110.579013 50.676406 
L 110.693738 45.887009 
L 110.739467 45.844851 
L 110.856789 39.978512 
L 111.301056 39.437299 
L 111.309078 45.180258 
L 111.41578 45.020412 
L 111.461509 44.951386 
L 111.469532 49.62372 
L 111.577586 49.457257 
L 113.066048 47.115708 
L 113.180773 42.24644 
L 113.226502 42.171373 
L 113.343824 36.205637 
L 113.707881 35.214066 
L 113.788091 34.913168 
L 113.796114 40.635469 
L 113.902815 40.193493 
L 113.948545 40.001147 
L 113.956568 44.651501 
L 114.064621 44.185569 
L 115.553084 37.869319 
L 115.591593 33.116222 
L 115.667808 33.535777 
L 115.713538 34.144409 
L 115.72156 28.522672 
L 115.818095 29.85223 
L 116.148517 32.371357 
L 116.275126 32.842802 
L 116.389851 38.926271 
L 116.43558 39.05227 
L 116.551657 44.056163 
L 118.040119 47.976526 
L 118.048142 43.312376 
L 118.154844 43.580166 
L 118.200573 43.694031 
L 118.208596 37.958942 
L 118.317895 38.211761 
L 118.762162 39.0428 
L 118.876886 44.979204 
L 118.922616 45.051103 
L 119.038692 49.920478 
L 120.527154 52.267068 
L 120.535177 47.594944 
L 120.641879 47.758858 
L 120.687608 47.82891 
L 120.695631 42.086273 
L 120.804931 42.246675 
L 121.249197 42.851924 
L 121.363922 48.757403 
L 121.409651 48.817388 
L 121.525728 53.656518 
L 123.01419 55.632927 
L 123.022212 50.958889 
L 123.128914 51.097804 
L 123.174644 51.15728 
L 123.182666 45.412819 
L 123.291966 45.550561 
L 123.736232 46.096212 
L 123.850957 51.992463 
L 123.896686 52.048867 
L 124.012763 56.878873 
L 125.501225 58.742717 
L 125.509248 54.068094 
L 125.61595 54.19937 
L 125.661679 54.255612 
L 125.669702 48.510594 
L 125.779001 48.641375 
L 126.223268 49.168299 
L 126.337992 55.061545 
L 126.383722 55.116781 
L 126.499798 59.943807 
L 127.988261 61.770799 
L 127.996283 57.095985 
L 128.102985 57.224757 
L 128.148714 57.279938 
L 128.156737 51.534737 
L 128.266037 51.663232 
L 128.710303 52.183961 
L 128.825028 58.076201 
L 128.870757 58.131045 
L 128.986834 62.957073 
L 130.475296 64.77171 
L 130.483319 60.096832 
L 130.59002 60.224763 
L 130.63575 60.279589 
L 130.643772 54.534327 
L 130.753072 54.662054 
L 131.197338 55.180698 
L 131.312063 61.072599 
L 131.357792 61.127311 
L 131.473869 65.953001 
L 132.962331 67.763463 
L 132.970354 63.088563 
L 133.077056 63.216211 
L 133.122785 63.270916 
L 133.130808 57.525633 
L 133.240107 57.653101 
L 133.684374 58.17104 
L 133.799098 64.062826 
L 133.844828 64.117493 
L 133.960904 68.943069 
L 135.449367 70.752116 
L 135.457389 66.077208 
L 135.564091 66.20476 
L 135.60982 66.259425 
L 135.617843 60.514134 
L 135.727143 60.641515 
L 136.171409 61.159214 
L 136.286134 67.050961 
L 136.331863 67.105612 
L 136.44794 71.93115 
L 137.936402 73.739717 
L 137.944425 69.064807 
L 138.051126 69.192326 
L 138.096856 69.246977 
L 138.104878 63.501684 
L 138.214178 63.629035 
L 138.658444 64.146653 
L 138.773169 70.038387 
L 138.818898 70.093033 
L 138.934975 74.918557 
L 140.423437 76.726962 
L 140.43146 72.052051 
L 140.538162 72.179559 
L 140.583891 72.234205 
L 140.591914 66.488911 
L 140.701213 66.616252 
L 141.14548 67.133843 
L 141.260204 73.025572 
L 141.305934 73.080217 
L 141.42201 77.905736 
L 142.910473 79.714086 
L 142.918495 75.039174 
L 143.025197 75.166679 
L 143.070926 75.221323 
L 143.078949 69.476029 
L 143.188249 69.603366 
L 143.632515 70.120948 
L 143.74724 76.012675 
L 143.792969 76.06732 
L 143.909046 80.892838 
L 145.397508 82.701168 
L 145.405531 78.026257 
L 145.512232 78.15376 
L 145.557962 78.208404 
L 145.565985 72.46311 
L 145.675284 72.590446 
L 146.11955 73.108024 
L 146.234275 78.999751 
L 146.280004 79.054395 
L 146.396081 83.879913 
L 147.884543 85.688237 
L 147.892566 81.013325 
L 147.999268 81.140828 
L 148.044997 81.195472 
L 148.05302 75.450178 
L 148.162319 75.577514 
L 148.606586 76.095091 
L 148.72131 81.986818 
L 148.76704 82.041461 
L 148.883116 86.866979 
L 150.371579 88.675301 
L 150.379601 84.000389 
L 150.486303 84.127892 
L 150.532033 84.182536 
L 150.540055 78.437242 
L 150.649355 78.564577 
L 151.093621 79.082154 
L 151.208346 84.973881 
L 151.254075 85.028525 
L 151.370152 89.854042 
L 152.858614 91.662363 
L 152.866637 86.987452 
L 152.973339 87.114954 
L 153.019068 87.169598 
L 153.027091 81.424304 
L 153.13639 81.55164 
L 153.580657 82.069216 
L 153.695381 87.960943 
L 153.74111 88.015587 
L 153.857187 92.841104 
L 155.345649 94.649425 
L 155.353672 89.974514 
L 155.460374 90.102016 
L 155.506103 90.15666 
L 155.514126 84.411366 
L 155.623425 84.538701 
L 156.067692 85.056278 
L 156.182416 90.948005 
L 156.228146 91.002649 
L 156.344222 95.828166 
L 157.832685 97.636487 
L 157.840707 92.961575 
L 157.947409 93.089078 
L 157.993139 93.143722 
L 158.001161 87.398428 
L 158.110461 87.525763 
L 158.554727 88.04334 
L 158.669452 93.935066 
L 158.715181 93.98971 
L 158.831258 98.815228 
L 160.31972 100.623549 
L 160.327743 95.948637 
L 160.434445 96.076139 
L 160.480174 96.130783 
L 160.488197 90.385489 
L 160.597496 90.512825 
L 161.041763 91.030401 
L 161.156487 96.922128 
L 161.202216 96.976772 
L 161.318293 101.802289 
L 162.806755 103.61061 
L 162.814778 98.935699 
L 162.92148 99.063201 
L 162.967209 99.117845 
L 162.975232 93.372551 
L 163.084531 93.499886 
L 163.528798 94.017463 
L 163.643522 99.909189 
L 163.689252 99.963833 
L 163.805328 104.789351 
L 165.293791 106.597672 
L 165.301813 101.92276 
L 165.408515 102.050263 
L 165.454245 102.104906 
L 165.462267 96.359612 
L 165.571567 96.486948 
L 166.015833 97.004524 
L 166.130558 102.896251 
L 166.176287 102.950895 
L 166.292364 107.776412 
L 167.780826 109.584733 
L 167.788849 104.909822 
L 167.895551 105.037324 
L 167.94128 105.091968 
L 167.949303 99.346674 
L 168.058602 99.474009 
L 168.502869 99.991586 
L 168.617593 105.883313 
L 168.663323 105.937957 
L 168.779399 110.763474 
L 170.267861 112.571795 
L 170.275884 107.896883 
L 170.382586 108.024386 
L 170.428315 108.07903 
L 170.436338 102.333736 
L 170.545638 102.461071 
L 170.989904 102.978648 
L 171.104629 108.870374 
L 171.150358 108.925018 
L 171.266435 113.750536 
L 172.754897 115.558857 
L 172.762919 110.883945 
L 172.869621 111.011447 
L 172.915351 111.066091 
L 172.923373 105.320797 
L 173.032673 105.448133 
L 173.476939 105.965709 
L 173.591664 111.857436 
L 173.637393 111.91208 
L 173.75347 116.737597 
L 175.241932 118.545918 
L 175.249955 113.871007 
L 175.356657 113.998509 
L 175.402386 114.053153 
L 175.410409 108.307859 
L 175.519708 108.435194 
L 175.963975 108.952771 
L 176.078699 114.844498 
L 176.124429 114.899141 
L 176.240505 119.724659 
L 177.728967 121.53298 
L 177.73699 116.858068 
L 177.843692 116.985571 
L 177.889421 117.040215 
L 177.897444 111.294921 
L 178.006744 111.422256 
L 178.45101 111.939833 
L 178.565735 117.83156 
L 178.611464 117.886204 
L 178.727541 122.711721 
L 180.216003 124.520043 
L 180.224026 119.845131 
L 180.330727 119.972633 
L 180.376457 120.027277 
L 180.384479 114.281983 
L 180.493779 114.409319 
L 180.938045 114.926896 
L 181.05277 120.818622 
L 181.098499 120.873266 
L 181.214576 125.698784 
L 182.703038 127.507107 
L 182.711061 122.832195 
L 182.817763 122.959698 
L 182.863492 123.014342 
L 182.871515 117.269047 
L 182.980814 117.396383 
L 183.425081 117.913961 
L 183.539805 123.805688 
L 183.585535 123.860332 
L 183.701611 128.68585 
L 185.190074 130.494176 
L 185.198096 125.819264 
L 185.304798 125.946767 
L 185.350527 126.001411 
L 185.35855 120.256117 
L 185.46785 120.383453 
L 185.912116 120.901033 
L 186.026841 126.79276 
L 186.07257 126.847405 
L 186.188647 131.672923 
L 187.677109 133.481259 
L 187.685132 128.806348 
L 187.791833 128.933851 
L 187.837563 128.988496 
L 187.845585 123.243202 
L 187.954885 123.370539 
L 188.399151 123.888124 
L 188.513876 129.779854 
L 188.559605 129.8345 
L 188.675682 134.660021 
L 190.164144 136.468386 
L 190.172167 131.793475 
L 190.278869 131.920981 
L 190.324598 131.975626 
L 190.332621 126.230332 
L 190.44192 126.357671 
L 190.886187 126.875275 
L 191.000911 132.767011 
L 191.046641 132.821659 
L 191.162717 137.647187 
L 192.65118 139.45564 
L 192.659202 134.780729 
L 192.765904 134.908241 
L 192.811633 134.962889 
L 192.819656 129.217596 
L 192.928956 129.344942 
L 193.373222 129.862599 
L 193.487947 135.754354 
L 193.533676 135.80901 
L 193.649753 140.634558 
L 195.138215 142.443268 
L 195.146238 137.768359 
L 195.252939 137.895889 
L 195.298669 137.950545 
L 195.306692 132.205253 
L 195.415991 132.332621 
L 195.860257 132.850433 
L 195.974982 138.742246 
L 196.020711 138.796924 
L 196.136788 143.62253 
L 197.62525 145.432 
L 197.633273 140.757094 
L 197.739975 140.884679 
L 197.785704 140.939358 
L 197.793727 135.19407 
L 197.903026 135.321502 
L 198.347293 135.839772 
L 198.462017 141.731752 
L 198.507747 141.786498 
L 198.623823 146.612278 
L 200.112286 148.423985 
L 200.120308 143.749092 
L 200.22701 143.876835 
L 200.27274 143.931583 
L 200.280762 138.186307 
L 200.390062 138.313928 
L 200.834328 138.83355 
L 200.949053 144.726027 
L 200.994782 144.78097 
L 201.110859 149.607262 
L 202.599321 151.425579 
L 202.607344 146.750721 
L 202.714046 146.878936 
L 202.759775 146.933886 
L 202.767798 141.188645 
L 202.877097 141.316823 
L 203.321364 141.840452 
L 203.436088 147.734399 
L 203.481817 147.789931 
L 203.597894 152.61774 
L 205.086356 154.455659 
L 205.094379 149.780907 
L 205.201081 149.910518 
L 205.24681 149.96607 
L 205.254833 144.220933 
L 205.364132 144.350767 
L 205.808399 144.886387 
L 205.923123 150.784749 
L 205.968853 150.842045 
L 206.084929 155.674412 
L 207.573392 157.571186 
L 207.581414 152.89675 
L 207.688116 153.030558 
L 207.733846 153.087916 
L 207.741868 147.343093 
L 207.851168 147.477937 
L 208.295434 148.05057 
L 208.410159 153.962682 
L 208.455888 154.025477 
L 208.571965 158.87204 
L 210.060427 160.952245 
L 210.06845 156.278799 
L 210.175152 156.425702 
L 210.220881 156.488701 
L 210.228904 150.744857 
L 210.338203 150.895721 
L 210.78247 151.594284 
L 210.897194 157.554511 
L 210.942923 157.636549 
L 211.059 162.532806 
L 212.547462 165.256357 
L 212.555485 160.586391 
L 212.662187 160.779471 
L 212.707916 160.862418 
L 212.715939 155.122039 
L 212.825238 155.335217 
L 213.210498 156.424619 
L 213.269505 156.64752 
L 213.384229 162.867225 
L 213.429959 163.053152 
L 213.546035 168.217889 
L 214.232228 171.071561 
L 214.240251 167.667746 
L 214.728034 169.437674 
L 215.467803 171.328415 
L 216.64352 172.872241 
L 218.430881 173.582809 
L 220.971515 173.754879 
L 239.711359 173.780684 
L 369.9653 173.877759 
L 371.431227 174.137004 
L 372.469746 174.715413 
L 373.19243 175.68287 
L 373.688433 177.007076 
L 374.025707 178.593688 
L 374.41113 182.187799 
L 374.608311 186.451936 
L 374.686122 189.895416 
L 374.781246 215.736232 
L 375.011186 228.62446 
L 375.166603 232.8299 
L 375.388974 234.81322 
L 375.689106 235.27687 
L 376.530213 235.346851 
L 390.739534 235.347273 
L 390.739534 235.347273 
" clip-path="url(#p4d96a5d3e7)" style="fill: none; stroke-dasharray: 5.55,2.4; stroke-dashoffset: 0; stroke: #0000ff; stroke-width: 1.5"/>
   </g>
   <g id="line2d_20">
    <path d="M 77.052172 188.712328 
L 77.846419 188.71233 
L 77.854441 156.666737 
L 84.59455 156.770004 
L 89.880461 156.999884 
L 89.996537 159.447579 
L 90.68273 159.487497 
L 90.690753 155.372842 
L 90.797455 155.379052 
L 90.843184 155.381742 
L 90.851207 144.472135 
L 90.960506 144.478836 
L 91.404773 144.51396 
L 91.519497 155.435095 
L 91.565227 155.439538 
L 91.681303 159.566155 
L 93.169766 159.715546 
L 93.177788 155.601233 
L 93.28449 155.611947 
L 93.330219 155.61657 
L 93.338242 144.707299 
L 93.447542 144.718543 
L 93.891808 144.772863 
L 94.006533 155.699246 
L 94.052262 155.705786 
L 94.168339 159.837816 
L 95.656801 160.056866 
L 95.664824 155.942926 
L 95.771525 155.958575 
L 95.817255 155.965317 
L 95.825278 145.056412 
L 95.934577 145.072657 
L 96.378843 145.148502 
L 96.493568 156.080858 
L 96.539297 156.089786 
L 96.655374 160.22798 
L 98.143836 160.526459 
L 98.151859 156.412946 
L 98.258561 156.434231 
L 98.30429 156.443395 
L 98.312313 145.534911 
L 98.421612 145.556902 
L 98.865879 145.658009 
L 98.980603 156.597489 
L 99.026333 156.609267 
L 99.142409 160.754823 
L 100.630872 161.148296 
L 100.638894 157.035293 
L 100.745596 157.063335 
L 100.791326 157.075405 
L 100.799348 146.167425 
L 100.908648 146.196352 
L 101.352914 146.328744 
L 101.467639 157.27722 
L 101.513368 157.292599 
L 101.629445 161.447459 
L 103.117907 161.961218 
L 103.12593 157.848863 
L 103.232632 157.885484 
L 103.278361 157.901249 
L 103.286384 146.99391 
L 103.395683 147.031728 
L 103.83995 147.205557 
L 103.954674 158.166231 
L 104.000403 158.1865 
L 104.11648 162.353998 
L 105.604942 163.031526 
L 105.612965 158.920056 
L 105.719667 158.968405 
L 105.765396 158.989229 
L 105.773419 148.082768 
L 105.882718 148.1329 
L 106.326985 148.366784 
L 106.441709 159.345703 
L 106.487439 159.373294 
L 106.603515 163.559729 
L 108.091978 164.483499 
L 108.1 160.373364 
L 108.206702 160.439456 
L 108.252432 160.467957 
L 108.260454 149.562831 
L 108.369754 149.631994 
L 108.81402 149.965361 
L 108.928745 160.975902 
L 108.974474 161.016208 
L 109.090551 165.235561 
L 110.579013 166.589859 
L 110.587036 162.482077 
L 110.693738 162.579556 
L 110.739467 162.621715 
L 110.74749 151.718967 
L 110.856789 151.823221 
L 111.301056 152.364434 
L 111.41578 163.446154 
L 111.461509 163.51518 
L 111.577586 167.809008 
L 113.066048 170.150557 
L 113.074071 166.04828 
L 113.180773 166.220126 
L 113.226502 166.295193 
L 113.234525 155.39821 
L 113.343824 155.596095 
L 113.707881 156.587666 
L 113.788091 156.888565 
L 113.902815 168.273073 
L 113.948545 168.465419 
L 114.064621 173.080696 
L 115.553084 179.396947 
L 115.667808 174.930788 
L 115.713538 174.322157 
L 115.818095 161.949502 
L 116.148517 159.430375 
L 116.275126 158.95893 
L 116.283149 169.845664 
L 116.389851 169.540295 
L 116.43558 169.414296 
L 116.443603 173.507417 
L 116.551657 173.210102 
L 118.040119 169.28974 
L 118.154844 164.8864 
L 118.200573 164.772535 
L 118.317895 153.589972 
L 118.762162 152.758933 
L 118.770184 163.656387 
L 118.876886 163.487362 
L 118.922616 163.415463 
L 118.930638 167.517899 
L 119.038692 167.345787 
L 120.527154 164.999198 
L 120.641879 160.707708 
L 120.687608 160.637656 
L 120.804931 149.555058 
L 121.249197 148.949808 
L 121.25722 159.84945 
L 121.363922 159.709163 
L 121.409651 159.649177 
L 121.417674 163.753697 
L 121.525728 163.609747 
L 123.01419 161.633338 
L 123.128914 157.368762 
L 123.174644 157.309286 
L 123.291966 146.251171 
L 123.736232 145.70552 
L 123.744255 156.605811 
L 123.850957 156.474103 
L 123.896686 156.417699 
L 123.904709 160.522845 
L 124.012763 160.387392 
L 125.501225 158.523549 
L 125.61595 154.267196 
L 125.661679 154.210954 
L 125.779001 143.160357 
L 126.223268 142.633433 
L 126.23129 153.533936 
L 126.337992 153.40502 
L 126.383722 153.349785 
L 126.391744 157.455137 
L 126.499798 157.322458 
L 127.988261 155.495466 
L 128.102985 151.241809 
L 128.148714 151.186627 
L 128.266037 140.1385 
L 128.710303 139.617772 
L 128.718326 150.518345 
L 128.825028 150.390365 
L 128.870757 150.335521 
L 128.87878 154.440941 
L 128.986834 154.309192 
L 130.475296 152.494555 
L 130.59002 148.241802 
L 130.63575 148.186977 
L 130.753072 137.139678 
L 131.197338 136.621034 
L 131.205361 147.521631 
L 131.312063 147.393967 
L 131.357792 147.339255 
L 131.365815 151.444699 
L 131.473869 151.313264 
L 132.962331 149.502802 
L 133.077056 145.250355 
L 133.122785 145.19565 
L 133.240107 134.148631 
L 133.684374 133.630693 
L 133.692396 144.531298 
L 133.799098 144.40374 
L 133.844828 144.349073 
L 133.85285 148.454525 
L 133.960904 148.323196 
L 135.449367 146.514149 
L 135.564091 142.261806 
L 135.60982 142.207141 
L 135.727143 131.160218 
L 136.171409 130.642518 
L 136.179432 141.543126 
L 136.286134 141.415605 
L 136.331863 141.360953 
L 136.339886 145.466408 
L 136.44794 145.335115 
L 137.936402 143.526548 
L 138.051126 139.27424 
L 138.096856 139.219589 
L 138.214178 128.172698 
L 138.658444 127.655079 
L 138.666467 138.555688 
L 138.773169 138.428179 
L 138.818898 138.373533 
L 138.826921 142.478988 
L 138.934975 142.347708 
L 140.423437 140.539303 
L 140.538162 136.287007 
L 140.583891 136.232361 
L 140.701213 125.18548 
L 141.14548 124.66789 
L 141.153502 135.568499 
L 141.260204 135.440994 
L 141.305934 135.386349 
L 141.313956 139.491805 
L 141.42201 139.360529 
L 142.910473 137.55218 
L 143.025197 133.299887 
L 143.070926 133.245243 
L 143.188249 122.198366 
L 143.632515 121.680785 
L 143.640538 132.581394 
L 143.74724 132.453891 
L 143.792969 132.399246 
L 143.800992 136.504702 
L 143.909046 136.373427 
L 145.397508 134.565097 
L 145.512232 130.312806 
L 145.557962 130.258162 
L 145.675284 119.211286 
L 146.11955 118.693708 
L 146.127573 129.594317 
L 146.234275 129.466815 
L 146.280004 129.412171 
L 146.288027 133.517626 
L 146.396081 133.386352 
L 147.884543 131.578028 
L 147.999268 127.325738 
L 148.044997 127.271094 
L 148.162319 116.224219 
L 148.606586 115.706642 
L 148.614609 126.607251 
L 148.72131 126.479748 
L 148.76704 126.425104 
L 148.775062 130.53056 
L 148.883116 130.399286 
L 150.371579 128.590964 
L 150.486303 124.338674 
L 150.532033 124.28403 
L 150.649355 113.237155 
L 151.093621 112.719578 
L 151.101644 123.620188 
L 151.208346 123.492685 
L 151.254075 123.438041 
L 151.262098 127.543497 
L 151.370152 127.412223 
L 152.858614 125.603902 
L 152.973339 121.351612 
L 153.019068 121.296968 
L 153.13639 110.250093 
L 153.580657 109.732516 
L 153.588679 120.633125 
L 153.695381 120.505623 
L 153.74111 120.450979 
L 153.749133 124.556435 
L 153.857187 124.425161 
L 155.345649 122.61684 
L 155.460374 118.36455 
L 155.506103 118.309906 
L 155.623425 107.263031 
L 156.067692 106.745454 
L 156.075715 117.646064 
L 156.182416 117.518561 
L 156.228146 117.463917 
L 156.236168 121.569373 
L 156.344222 121.438099 
L 157.832685 119.629778 
L 157.947409 115.377488 
L 157.993139 115.322844 
L 158.110461 104.275969 
L 158.554727 103.758393 
L 158.56275 114.659002 
L 158.669452 114.5315 
L 158.715181 114.476856 
L 158.723204 118.582311 
L 158.831258 118.451037 
L 160.31972 116.642717 
L 160.434445 112.390427 
L 160.480174 112.335783 
L 160.597496 101.288908 
L 161.041763 100.771331 
L 161.049785 111.67194 
L 161.156487 111.544438 
L 161.202216 111.489794 
L 161.210239 115.59525 
L 161.318293 115.463976 
L 162.806755 113.655655 
L 162.92148 109.403365 
L 162.967209 109.348721 
L 163.084531 98.301846 
L 163.528798 97.78427 
L 163.536821 108.684879 
L 163.643522 108.557376 
L 163.689252 108.502733 
L 163.697275 112.608188 
L 163.805328 112.476914 
L 165.293791 110.668593 
L 165.408515 106.416303 
L 165.454245 106.361659 
L 165.571567 95.314785 
L 166.015833 94.797208 
L 166.023856 105.697817 
L 166.130558 105.570315 
L 166.176287 105.515671 
L 166.18431 109.621127 
L 166.292364 109.489853 
L 167.780826 107.681532 
L 167.895551 103.429242 
L 167.94128 103.374598 
L 168.058602 92.327723 
L 168.502869 91.810146 
L 168.510891 102.710756 
L 168.617593 102.583253 
L 168.663323 102.528609 
L 168.671345 106.634065 
L 168.779399 106.502791 
L 170.267861 104.69447 
L 170.382586 100.44218 
L 170.428315 100.387536 
L 170.545638 89.340661 
L 170.989904 88.823085 
L 170.997927 99.723694 
L 171.104629 99.596192 
L 171.150358 99.541548 
L 171.158381 103.647003 
L 171.266435 103.51573 
L 172.754897 101.707409 
L 172.869621 97.455119 
L 172.915351 97.400475 
L 173.032673 86.3536 
L 173.476939 85.836023 
L 173.484962 96.736632 
L 173.591664 96.60913 
L 173.637393 96.554486 
L 173.645416 100.659942 
L 173.75347 100.528668 
L 175.241932 98.720347 
L 175.356657 94.468057 
L 175.402386 94.413413 
L 175.519708 83.366538 
L 175.963975 82.848961 
L 175.971997 93.749571 
L 176.078699 93.622068 
L 176.124429 93.567424 
L 176.132451 97.67288 
L 176.240505 97.541606 
L 177.728967 95.733285 
L 177.843692 91.480995 
L 177.889421 91.426351 
L 178.006744 80.379476 
L 178.45101 79.861899 
L 178.459033 90.762509 
L 178.565735 90.635006 
L 178.611464 90.580362 
L 178.619487 94.685818 
L 178.727541 94.554544 
L 180.216003 92.746223 
L 180.330727 88.493932 
L 180.376457 88.439289 
L 180.493779 77.392414 
L 180.938045 76.874837 
L 180.946068 87.775446 
L 181.05277 87.647943 
L 181.098499 87.593299 
L 181.106522 91.698755 
L 181.214576 91.567481 
L 182.703038 89.759159 
L 182.817763 85.506868 
L 182.863492 85.452224 
L 182.980814 74.405349 
L 183.425081 73.887772 
L 183.433103 84.788381 
L 183.539805 84.660878 
L 183.585535 84.606234 
L 183.593557 88.71169 
L 183.701611 88.580415 
L 185.190074 86.772089 
L 185.304798 82.519799 
L 185.350527 82.465155 
L 185.46785 71.41828 
L 185.912116 70.9007 
L 185.920139 81.801309 
L 186.026841 81.673806 
L 186.07257 81.619161 
L 186.080593 85.724617 
L 186.188647 85.593342 
L 187.677109 83.785006 
L 187.791833 79.532714 
L 187.837563 79.47807 
L 187.954885 68.431194 
L 188.399151 67.913608 
L 188.407174 78.814217 
L 188.513876 78.686712 
L 188.559605 78.632066 
L 188.567628 82.737522 
L 188.675682 82.606245 
L 190.164144 80.797879 
L 190.278869 76.545585 
L 190.324598 76.49094 
L 190.44192 65.444061 
L 190.886187 64.926458 
L 190.894209 75.827066 
L 191.000911 75.699554 
L 191.046641 75.644907 
L 191.054663 79.750362 
L 191.162717 79.619078 
L 192.65118 77.810625 
L 192.765904 73.558325 
L 192.811633 73.503677 
L 192.928956 62.45679 
L 193.373222 61.939134 
L 193.381245 72.839741 
L 193.487947 72.712211 
L 193.533676 72.657556 
L 193.541699 76.76301 
L 193.649753 76.631707 
L 195.138215 74.822997 
L 195.252939 70.570677 
L 195.298669 70.516021 
L 195.415991 59.469111 
L 195.860257 58.9513 
L 195.86828 69.851903 
L 195.974982 69.72432 
L 196.020711 69.669642 
L 196.028734 73.775092 
L 196.136788 73.643735 
L 197.62525 71.834266 
L 197.739975 67.581887 
L 197.785704 67.527208 
L 197.903026 56.480231 
L 198.347293 55.961961 
L 198.355316 66.862552 
L 198.462017 66.734814 
L 198.507747 66.680068 
L 198.515769 70.785506 
L 198.623823 70.653988 
L 200.112286 68.84228 
L 200.22701 64.589731 
L 200.27274 64.534983 
L 200.390062 53.487805 
L 200.834328 52.968183 
L 200.842351 63.86874 
L 200.949053 63.740539 
L 200.994782 63.685596 
L 201.002805 67.790998 
L 201.110859 67.659003 
L 202.599321 65.840686 
L 202.714046 61.58763 
L 202.759775 61.53268 
L 202.877097 50.48491 
L 203.321364 49.961281 
L 203.329386 60.861737 
L 203.436088 60.732167 
L 203.481817 60.676635 
L 203.48984 64.781934 
L 203.597894 64.648525 
L 205.086356 62.810606 
L 205.201081 58.556048 
L 205.24681 58.500496 
L 205.364132 47.450966 
L 205.808399 46.915346 
L 205.816422 57.815497 
L 205.923123 57.681817 
L 205.968853 57.62452 
L 205.976875 61.729507 
L 206.084929 61.591853 
L 207.573392 59.69508 
L 207.688116 55.436008 
L 207.733846 55.378649 
L 207.851168 44.323796 
L 208.295434 43.751162 
L 208.303457 54.650365 
L 208.410159 54.503883 
L 208.455888 54.441089 
L 208.463911 58.545102 
L 208.571965 58.394225 
L 210.060427 56.31402 
L 210.175152 52.040864 
L 210.220881 51.977865 
L 210.338203 40.906012 
L 210.78247 40.207449 
L 210.790492 51.103331 
L 210.897194 50.912054 
L 210.942923 50.830017 
L 210.950946 54.930623 
L 211.059 54.733459 
L 212.547462 52.009908 
L 212.662187 47.687094 
L 212.707916 47.604148 
L 212.825238 36.466515 
L 213.210498 35.377113 
L 213.269505 35.154212 
L 213.277528 46.032203 
L 213.384229 45.59934 
L 213.429959 45.413413 
L 213.437982 49.495618 
L 213.546035 49.048376 
L 214.232228 46.194704 
L 214.240251 43.720397 
L 214.728034 41.950469 
L 215.467803 40.059728 
L 216.64352 38.515901 
L 218.430881 37.805334 
L 220.971515 37.633263 
L 239.711359 37.607459 
L 369.9653 37.510383 
L 371.431227 37.251139 
L 372.469746 36.67273 
L 373.19243 35.705273 
L 373.688433 34.381066 
L 374.025707 32.794455 
L 374.41113 29.200343 
L 374.608311 24.936206 
L 374.686122 21.492727 
L 374.694145 52.87859 
L 374.781246 45.789876 
L 375.011186 32.901649 
L 375.166603 28.696209 
L 375.388974 26.712888 
L 375.689106 26.249239 
L 376.530213 26.179258 
L 390.739534 26.178836 
L 390.739534 26.178836 
" clip-path="url(#p4d96a5d3e7)" style="fill: none; stroke-dasharray: 5.55,2.4; stroke-dashoffset: 0; stroke: #ff0000; stroke-width: 1.5"/>
   </g>
   <g id="patch_3">
    <path d="M 61.367804 246.04 
L 61.367804 10.8 
" style="fill: none; stroke: #000000; stroke-width: 0.8; stroke-linejoin: miter; stroke-linecap: square"/>
   </g>
   <g id="patch_4">
    <path d="M 406.423902 246.04 
L 406.423902 10.8 
" style="fill: none; stroke: #000000; stroke-width: 0.8; stroke-linejoin: miter; stroke-linecap: square"/>
   </g>
   <g id="patch_5">
    <path d="M 61.367804 246.04 
L 406.423902 246.04 
" style="fill: none; stroke: #000000; stroke-width: 0.8; stroke-linejoin: miter; stroke-linecap: square"/>
   </g>
   <g id="patch_6">
    <path d="M 61.367804 10.8 
L 406.423902 10.8 
" style="fill: none; stroke: #000000; stroke-width: 0.8; stroke-linejoin: miter; stroke-linecap: square"/>
   </g>
  </g>
  <g id="axes_2">
   <g id="patch_7">
    <path d="M 454.143902 246.04 
L 799.2 246.04 
L 799.2 10.8 
L 454.143902 10.8 
z
" style="fill: #ffffff"/>
   </g>
   <g id="matplotlib.axis_3">
    <g id="xtick_10">
     <g id="line2d_21">
      <g>
       <use xlink:href="#m34307868fe" x="475.709908" y="246.04" style="stroke: #000000; stroke-width: 0.8"/>
      </g>
     </g>
     <g id="text_19">
      <!-- 400 -->
      <g transform="translate(466.166158 260.638438) scale(0.1 -0.1)">
       <use xlink:href="#DejaVuSans-34"/>
       <use xlink:href="#DejaVuSans-30" x="63.623047"/>
       <use xlink:href="#DejaVuSans-30" x="127.246094"/>
      </g>
     </g>
    </g>
    <g id="xtick_11">
     <g id="line2d_22">
      <g>
       <use xlink:href="#m34307868fe" x="518.84192" y="246.04" style="stroke: #000000; stroke-width: 0.8"/>
      </g>
     </g>
     <g id="text_20">
      <!-- 500 -->
      <g transform="translate(509.29817 260.638438) scale(0.1 -0.1)">
       <use xlink:href="#DejaVuSans-35"/>
       <use xlink:href="#DejaVuSans-30" x="63.623047"/>
       <use xlink:href="#DejaVuSans-30" x="127.246094"/>
      </g>
     </g>
    </g>
    <g id="xtick_12">
     <g id="line2d_23">
      <g>
       <use xlink:href="#m34307868fe" x="561.973933" y="246.04" style="stroke: #000000; stroke-width: 0.8"/>
      </g>
     </g>
     <g id="text_21">
      <!-- 600 -->
      <g transform="translate(552.430183 260.638438) scale(0.1 -0.1)">
       <defs>
        <path id="DejaVuSans-36" d="M 2113 2584 
Q 1688 2584 1439 2293 
Q 1191 2003 1191 1497 
Q 1191 994 1439 701 
Q 1688 409 2113 409 
Q 2538 409 2786 701 
Q 3034 994 3034 1497 
Q 3034 2003 2786 2293 
Q 2538 2584 2113 2584 
z
M 3366 4563 
L 3366 3988 
Q 3128 4100 2886 4159 
Q 2644 4219 2406 4219 
Q 1781 4219 1451 3797 
Q 1122 3375 1075 2522 
Q 1259 2794 1537 2939 
Q 1816 3084 2150 3084 
Q 2853 3084 3261 2657 
Q 3669 2231 3669 1497 
Q 3669 778 3244 343 
Q 2819 -91 2113 -91 
Q 1303 -91 875 529 
Q 447 1150 447 2328 
Q 447 3434 972 4092 
Q 1497 4750 2381 4750 
Q 2619 4750 2861 4703 
Q 3103 4656 3366 4563 
z
" transform="scale(0.015625)"/>
       </defs>
       <use xlink:href="#DejaVuSans-36"/>
       <use xlink:href="#DejaVuSans-30" x="63.623047"/>
       <use xlink:href="#DejaVuSans-30" x="127.246094"/>
      </g>
     </g>
    </g>
    <g id="xtick_13">
     <g id="line2d_24">
      <g>
       <use xlink:href="#m34307868fe" x="605.105945" y="246.04" style="stroke: #000000; stroke-width: 0.8"/>
      </g>
     </g>
     <g id="text_22">
      <!-- 700 -->
      <g transform="translate(595.562195 260.638438) scale(0.1 -0.1)">
       <defs>
        <path id="DejaVuSans-37" d="M 525 4666 
L 3525 4666 
L 3525 4397 
L 1831 0 
L 1172 0 
L 2766 4134 
L 525 4134 
L 525 4666 
z
" transform="scale(0.015625)"/>
       </defs>
       <use xlink:href="#DejaVuSans-37"/>
       <use xlink:href="#DejaVuSans-30" x="63.623047"/>
       <use xlink:href="#DejaVuSans-30" x="127.246094"/>
      </g>
     </g>
    </g>
    <g id="xtick_14">
     <g id="line2d_25">
      <g>
       <use xlink:href="#m34307868fe" x="648.237957" y="246.04" style="stroke: #000000; stroke-width: 0.8"/>
      </g>
     </g>
     <g id="text_23">
      <!-- 800 -->
      <g transform="translate(638.694207 260.638438) scale(0.1 -0.1)">
       <defs>
        <path id="DejaVuSans-38" d="M 2034 2216 
Q 1584 2216 1326 1975 
Q 1069 1734 1069 1313 
Q 1069 891 1326 650 
Q 1584 409 2034 409 
Q 2484 409 2743 651 
Q 3003 894 3003 1313 
Q 3003 1734 2745 1975 
Q 2488 2216 2034 2216 
z
M 1403 2484 
Q 997 2584 770 2862 
Q 544 3141 544 3541 
Q 544 4100 942 4425 
Q 1341 4750 2034 4750 
Q 2731 4750 3128 4425 
Q 3525 4100 3525 3541 
Q 3525 3141 3298 2862 
Q 3072 2584 2669 2484 
Q 3125 2378 3379 2068 
Q 3634 1759 3634 1313 
Q 3634 634 3220 271 
Q 2806 -91 2034 -91 
Q 1263 -91 848 271 
Q 434 634 434 1313 
Q 434 1759 690 2068 
Q 947 2378 1403 2484 
z
M 1172 3481 
Q 1172 3119 1398 2916 
Q 1625 2713 2034 2713 
Q 2441 2713 2670 2916 
Q 2900 3119 2900 3481 
Q 2900 3844 2670 4047 
Q 2441 4250 2034 4250 
Q 1625 4250 1398 4047 
Q 1172 3844 1172 3481 
z
" transform="scale(0.015625)"/>
       </defs>
       <use xlink:href="#DejaVuSans-38"/>
       <use xlink:href="#DejaVuSans-30" x="63.623047"/>
       <use xlink:href="#DejaVuSans-30" x="127.246094"/>
      </g>
     </g>
    </g>
    <g id="xtick_15">
     <g id="line2d_26">
      <g>
       <use xlink:href="#m34307868fe" x="691.369969" y="246.04" style="stroke: #000000; stroke-width: 0.8"/>
      </g>
     </g>
     <g id="text_24">
      <!-- 900 -->
      <g transform="translate(681.826219 260.638438) scale(0.1 -0.1)">
       <defs>
        <path id="DejaVuSans-39" d="M 703 97 
L 703 672 
Q 941 559 1184 500 
Q 1428 441 1663 441 
Q 2288 441 2617 861 
Q 2947 1281 2994 2138 
Q 2813 1869 2534 1725 
Q 2256 1581 1919 1581 
Q 1219 1581 811 2004 
Q 403 2428 403 3163 
Q 403 3881 828 4315 
Q 1253 4750 1959 4750 
Q 2769 4750 3195 4129 
Q 3622 3509 3622 2328 
Q 3622 1225 3098 567 
Q 2575 -91 1691 -91 
Q 1453 -91 1209 -44 
Q 966 3 703 97 
z
M 1959 2075 
Q 2384 2075 2632 2365 
Q 2881 2656 2881 3163 
Q 2881 3666 2632 3958 
Q 2384 4250 1959 4250 
Q 1534 4250 1286 3958 
Q 1038 3666 1038 3163 
Q 1038 2656 1286 2365 
Q 1534 2075 1959 2075 
z
" transform="scale(0.015625)"/>
       </defs>
       <use xlink:href="#DejaVuSans-39"/>
       <use xlink:href="#DejaVuSans-30" x="63.623047"/>
       <use xlink:href="#DejaVuSans-30" x="127.246094"/>
      </g>
     </g>
    </g>
    <g id="xtick_16">
     <g id="line2d_27">
      <g>
       <use xlink:href="#m34307868fe" x="734.501982" y="246.04" style="stroke: #000000; stroke-width: 0.8"/>
      </g>
     </g>
     <g id="text_25">
      <!-- 1000 -->
      <g transform="translate(721.776982 260.638438) scale(0.1 -0.1)">
       <use xlink:href="#DejaVuSans-31"/>
       <use xlink:href="#DejaVuSans-30" x="63.623047"/>
       <use xlink:href="#DejaVuSans-30" x="127.246094"/>
       <use xlink:href="#DejaVuSans-30" x="190.869141"/>
      </g>
     </g>
    </g>
    <g id="xtick_17">
     <g id="line2d_28">
      <g>
       <use xlink:href="#m34307868fe" x="777.633994" y="246.04" style="stroke: #000000; stroke-width: 0.8"/>
      </g>
     </g>
     <g id="text_26">
      <!-- 1100 -->
      <g transform="translate(764.908994 260.638438) scale(0.1 -0.1)">
       <use xlink:href="#DejaVuSans-31"/>
       <use xlink:href="#DejaVuSans-31" x="63.623047"/>
       <use xlink:href="#DejaVuSans-30" x="127.246094"/>
       <use xlink:href="#DejaVuSans-30" x="190.869141"/>
      </g>
     </g>
    </g>
    <g id="text_27">
     <!-- Wavelength (nm) -->
     <g transform="translate(583.479763 274.316562) scale(0.1 -0.1)">
      <defs>
       <path id="DejaVuSans-57" d="M 213 4666 
L 850 4666 
L 1831 722 
L 2809 4666 
L 3519 4666 
L 4500 722 
L 5478 4666 
L 6119 4666 
L 4947 0 
L 4153 0 
L 3169 4050 
L 2175 0 
L 1381 0 
L 213 4666 
z
" transform="scale(0.015625)"/>
       <path id="DejaVuSans-76" d="M 191 3500 
L 800 3500 
L 1894 563 
L 2988 3500 
L 3597 3500 
L 2284 0 
L 1503 0 
L 191 3500 
z
" transform="scale(0.015625)"/>
       <path id="DejaVuSans-6c" d="M 603 4863 
L 1178 4863 
L 1178 0 
L 603 0 
L 603 4863 
z
" transform="scale(0.015625)"/>
       <path id="DejaVuSans-67" d="M 2906 1791 
Q 2906 2416 2648 2759 
Q 2391 3103 1925 3103 
Q 1463 3103 1205 2759 
Q 947 2416 947 1791 
Q 947 1169 1205 825 
Q 1463 481 1925 481 
Q 2391 481 2648 825 
Q 2906 1169 2906 1791 
z
M 3481 434 
Q 3481 -459 3084 -895 
Q 2688 -1331 1869 -1331 
Q 1566 -1331 1297 -1286 
Q 1028 -1241 775 -1147 
L 775 -588 
Q 1028 -725 1275 -790 
Q 1522 -856 1778 -856 
Q 2344 -856 2625 -561 
Q 2906 -266 2906 331 
L 2906 616 
Q 2728 306 2450 153 
Q 2172 0 1784 0 
Q 1141 0 747 490 
Q 353 981 353 1791 
Q 353 2603 747 3093 
Q 1141 3584 1784 3584 
Q 2172 3584 2450 3431 
Q 2728 3278 2906 2969 
L 2906 3500 
L 3481 3500 
L 3481 434 
z
" transform="scale(0.015625)"/>
       <path id="DejaVuSans-68" d="M 3513 2113 
L 3513 0 
L 2938 0 
L 2938 2094 
Q 2938 2591 2744 2837 
Q 2550 3084 2163 3084 
Q 1697 3084 1428 2787 
Q 1159 2491 1159 1978 
L 1159 0 
L 581 0 
L 581 4863 
L 1159 4863 
L 1159 2956 
Q 1366 3272 1645 3428 
Q 1925 3584 2291 3584 
Q 2894 3584 3203 3211 
Q 3513 2838 3513 2113 
z
" transform="scale(0.015625)"/>
      </defs>
      <use xlink:href="#DejaVuSans-57"/>
      <use xlink:href="#DejaVuSans-61" x="92.501953"/>
      <use xlink:href="#DejaVuSans-76" x="153.78125"/>
      <use xlink:href="#DejaVuSans-65" x="212.960938"/>
      <use xlink:href="#DejaVuSans-6c" x="274.484375"/>
      <use xlink:href="#DejaVuSans-65" x="302.267578"/>
      <use xlink:href="#DejaVuSans-6e" x="363.791016"/>
      <use xlink:href="#DejaVuSans-67" x="427.169922"/>
      <use xlink:href="#DejaVuSans-74" x="490.646484"/>
      <use xlink:href="#DejaVuSans-68" x="529.855469"/>
      <use xlink:href="#DejaVuSans-20" x="593.234375"/>
      <use xlink:href="#DejaVuSans-28" x="625.021484"/>
      <use xlink:href="#DejaVuSans-6e" x="664.035156"/>
      <use xlink:href="#DejaVuSans-6d" x="727.414062"/>
      <use xlink:href="#DejaVuSans-29" x="824.826172"/>
     </g>
    </g>
   </g>
   <g id="matplotlib.axis_4">
    <g id="ytick_8">
     <g id="line2d_29">
      <g>
       <use xlink:href="#m4137bd6dd4" x="454.143902" y="246.04" style="stroke: #000000; stroke-width: 0.8"/>
      </g>
     </g>
     <g id="text_28">
      <!-- 0.0 -->
      <g transform="translate(431.240777 249.839219) scale(0.1 -0.1)">
       <defs>
        <path id="DejaVuSans-2e" d="M 684 794 
L 1344 794 
L 1344 0 
L 684 0 
L 684 794 
z
" transform="scale(0.015625)"/>
       </defs>
       <use xlink:href="#DejaVuSans-30"/>
       <use xlink:href="#DejaVuSans-2e" x="63.623047"/>
       <use xlink:href="#DejaVuSans-30" x="95.410156"/>
      </g>
     </g>
    </g>
    <g id="ytick_9">
     <g id="line2d_30">
      <g>
       <use xlink:href="#m4137bd6dd4" x="454.143902" y="203.269091" style="stroke: #000000; stroke-width: 0.8"/>
      </g>
     </g>
     <g id="text_29">
      <!-- 0.2 -->
      <g transform="translate(431.240777 207.06831) scale(0.1 -0.1)">
       <use xlink:href="#DejaVuSans-30"/>
       <use xlink:href="#DejaVuSans-2e" x="63.623047"/>
       <use xlink:href="#DejaVuSans-32" x="95.410156"/>
      </g>
     </g>
    </g>
    <g id="ytick_10">
     <g id="line2d_31">
      <g>
       <use xlink:href="#m4137bd6dd4" x="454.143902" y="160.498182" style="stroke: #000000; stroke-width: 0.8"/>
      </g>
     </g>
     <g id="text_30">
      <!-- 0.4 -->
      <g transform="translate(431.240777 164.297401) scale(0.1 -0.1)">
       <use xlink:href="#DejaVuSans-30"/>
       <use xlink:href="#DejaVuSans-2e" x="63.623047"/>
       <use xlink:href="#DejaVuSans-34" x="95.410156"/>
      </g>
     </g>
    </g>
    <g id="ytick_11">
     <g id="line2d_32">
      <g>
       <use xlink:href="#m4137bd6dd4" x="454.143902" y="117.727273" style="stroke: #000000; stroke-width: 0.8"/>
      </g>
     </g>
     <g id="text_31">
      <!-- 0.6 -->
      <g transform="translate(431.240777 121.526491) scale(0.1 -0.1)">
       <use xlink:href="#DejaVuSans-30"/>
       <use xlink:href="#DejaVuSans-2e" x="63.623047"/>
       <use xlink:href="#DejaVuSans-36" x="95.410156"/>
      </g>
     </g>
    </g>
    <g id="ytick_12">
     <g id="line2d_33">
      <g>
       <use xlink:href="#m4137bd6dd4" x="454.143902" y="74.956364" style="stroke: #000000; stroke-width: 0.8"/>
      </g>
     </g>
     <g id="text_32">
      <!-- 0.8 -->
      <g transform="translate(431.240777 78.755582) scale(0.1 -0.1)">
       <use xlink:href="#DejaVuSans-30"/>
       <use xlink:href="#DejaVuSans-2e" x="63.623047"/>
       <use xlink:href="#DejaVuSans-38" x="95.410156"/>
      </g>
     </g>
    </g>
    <g id="ytick_13">
     <g id="line2d_34">
      <g>
       <use xlink:href="#m4137bd6dd4" x="454.143902" y="32.185455" style="stroke: #000000; stroke-width: 0.8"/>
      </g>
     </g>
     <g id="text_33">
      <!-- 1.0 -->
      <g transform="translate(431.240777 35.984673) scale(0.1 -0.1)">
       <use xlink:href="#DejaVuSans-31"/>
       <use xlink:href="#DejaVuSans-2e" x="63.623047"/>
       <use xlink:href="#DejaVuSans-30" x="95.410156"/>
      </g>
     </g>
    </g>
    <g id="text_34">
     <!-- EQE -->
     <g transform="translate(425.161089 138.674688) rotate(-90) scale(0.1 -0.1)">
      <defs>
       <path id="DejaVuSans-45" d="M 628 4666 
L 3578 4666 
L 3578 4134 
L 1259 4134 
L 1259 2753 
L 3481 2753 
L 3481 2222 
L 1259 2222 
L 1259 531 
L 3634 531 
L 3634 0 
L 628 0 
L 628 4666 
z
" transform="scale(0.015625)"/>
       <path id="DejaVuSans-51" d="M 2522 4238 
Q 1834 4238 1429 3725 
Q 1025 3213 1025 2328 
Q 1025 1447 1429 934 
Q 1834 422 2522 422 
Q 3209 422 3611 934 
Q 4013 1447 4013 2328 
Q 4013 3213 3611 3725 
Q 3209 4238 2522 4238 
z
M 3406 84 
L 4238 -825 
L 3475 -825 
L 2784 -78 
Q 2681 -84 2626 -87 
Q 2572 -91 2522 -91 
Q 1538 -91 948 567 
Q 359 1225 359 2328 
Q 359 3434 948 4092 
Q 1538 4750 2522 4750 
Q 3503 4750 4090 4092 
Q 4678 3434 4678 2328 
Q 4678 1516 4351 937 
Q 4025 359 3406 84 
z
" transform="scale(0.015625)"/>
      </defs>
      <use xlink:href="#DejaVuSans-45"/>
      <use xlink:href="#DejaVuSans-51" x="63.183594"/>
      <use xlink:href="#DejaVuSans-45" x="141.894531"/>
     </g>
    </g>
   </g>
   <g id="line2d_35">
    <path d="M 454.143902 147.137988 
L 456.156729 140.864263 
L 459.17597 134.975693 
L 461.188797 130.311811 
L 466.220865 117.926714 
L 469.240106 108.930755 
L 471.252933 101.681189 
L 473.265761 96.502709 
L 480.310656 82.180378 
L 482.323483 78.947029 
L 484.336311 75.758771 
L 487.355551 70.249585 
L 489.368379 64.72984 
L 493.394033 53.633047 
L 494.400447 51.111885 
L 497.419688 45.349278 
L 498.426101 44.035347 
L 500.438928 41.923546 
L 502.451756 40.228553 
L 504.464583 38.833614 
L 506.47741 37.720089 
L 509.496651 36.384105 
L 511.509478 35.687334 
L 513.522305 35.158653 
L 516.541546 34.62789 
L 519.560787 34.337005 
L 523.586442 34.213854 
L 528.61851 34.473468 
L 548.746782 35.858593 
L 564.8494 36.267185 
L 574.913536 35.999162 
L 582.964845 35.536001 
L 587.996913 35.034494 
L 592.022568 34.608252 
L 604.099531 34.082525 
L 616.176495 33.755596 
L 626.240631 33.72294 
L 634.29194 34.047641 
L 639.324008 34.287369 
L 643.349662 34.444394 
L 648.38173 35.070425 
L 650.394558 35.572995 
L 652.407385 36.297668 
L 655.426626 37.800035 
L 657.439453 38.954781 
L 659.45228 40.306739 
L 660.458694 41.606584 
L 661.465108 47.876717 
L 663.477935 51.788831 
L 665.490762 56.061352 
L 666.497176 59.556044 
L 668.510003 65.402405 
L 669.516416 68.800543 
L 670.52283 72.630581 
L 672.535657 81.428917 
L 674.548485 91.103899 
L 676.561312 102.326235 
L 677.567725 108.774963 
L 678.574139 115.981347 
L 679.580553 124.057875 
L 681.59338 142.919528 
L 683.606207 165.090771 
L 684.612621 177.383137 
L 685.619034 185.449565 
L 687.631862 185.76927 
L 688.638275 183.574933 
L 689.644689 198.511413 
L 690.651102 202.476632 
L 691.657516 203.370709 
L 693.670343 204.729457 
L 695.683171 205.663281 
L 699.708825 206.913038 
L 700.715239 212.488024 
L 701.721652 197.596339 
L 703.73448 214.500853 
L 704.740893 214.812213 
L 706.75372 214.634486 
L 711.785788 213.657757 
L 713.798616 213.732707 
L 716.817857 213.931169 
L 718.830684 213.767393 
L 723.862752 212.84975 
L 725.875579 212.849818 
L 728.89482 213.147187 
L 729.901234 245.41947 
L 730.907647 220.434987 
L 731.914061 156.088056 
L 732.920475 194.420736 
L 733.926888 242.458544 
L 734.933302 246.04 
L 756.067988 246.04 
L 756.067988 246.04 
" clip-path="url(#pa7feedafe5)" style="fill: none; stroke: #0000ff; stroke-width: 1.5; stroke-linecap: square"/>
   </g>
   <g id="line2d_36">
    <path d="M 454.143902 109.316556 
L 455.150316 110.28111 
L 456.156729 111.047323 
L 457.163143 111.034085 
L 458.169556 110.823669 
L 459.17597 110.2255 
L 460.182384 109.175277 
L 461.188797 107.547909 
L 463.201625 103.691543 
L 465.214452 99.21005 
L 466.220865 96.715379 
L 468.233693 90.993111 
L 469.240106 88.351625 
L 471.252933 82.121743 
L 473.265761 77.830878 
L 478.297829 69.545791 
L 480.310656 66.646594 
L 481.31707 65.422898 
L 483.329897 64.518721 
L 484.336311 64.100979 
L 487.355551 62.140323 
L 488.361965 60.55035 
L 495.40686 48.075823 
L 497.419688 45.300615 
L 499.432515 42.96484 
L 501.445342 40.989978 
L 503.458169 39.450124 
L 505.470997 38.158222 
L 507.483824 37.137502 
L 510.503065 35.897169 
L 512.515892 35.27525 
L 515.535133 34.650842 
L 518.554374 34.288897 
L 522.580028 34.099001 
L 525.599269 34.166117 
L 531.637751 34.569794 
L 543.714714 35.481161 
L 553.77885 35.941325 
L 561.830159 36.143041 
L 568.875055 36.095067 
L 575.91995 35.874169 
L 583.971259 35.403413 
L 597.054636 34.387705 
L 613.157254 33.815421 
L 622.214976 33.697157 
L 631.272699 33.786639 
L 635.298353 33.950247 
L 643.349662 34.515976 
L 648.38173 35.355617 
L 651.400971 36.204439 
L 653.413799 36.982373 
L 658.445867 39.346556 
L 659.45228 39.924911 
L 660.458694 41.083164 
L 661.465108 46.834615 
L 663.477935 50.52732 
L 665.490762 54.727465 
L 666.497176 58.191349 
L 668.510003 64.190689 
L 669.516416 67.71781 
L 670.52283 71.702258 
L 672.535657 80.852284 
L 674.548485 90.870287 
L 676.561312 102.358425 
L 678.574139 116.164297 
L 680.586966 133.255733 
L 682.599794 153.749285 
L 684.612621 177.397106 
L 685.619034 185.427203 
L 687.631862 185.729712 
L 688.638275 183.525708 
L 689.644689 198.470871 
L 690.651102 202.435019 
L 691.657516 203.326463 
L 693.670343 204.683452 
L 695.683171 205.618658 
L 699.708825 206.873594 
L 700.715239 212.453924 
L 701.721652 197.547681 
L 703.73448 214.468122 
L 704.740893 214.77952 
L 706.75372 214.601147 
L 711.785788 213.62396 
L 713.798616 213.699606 
L 716.817857 213.898488 
L 718.830684 213.734037 
L 723.862752 212.813546 
L 725.875579 212.813538 
L 728.89482 213.112069 
L 729.901234 245.318053 
L 730.907647 220.408038 
L 731.914061 156.001107 
L 732.920475 194.368816 
L 733.926888 242.454524 
L 734.933302 246.01229 
L 739.96537 246.039789 
L 756.067988 246.04 
L 756.067988 246.04 
" clip-path="url(#pa7feedafe5)" style="fill: none; stroke: #000000; stroke-width: 1.5; stroke-linecap: square"/>
   </g>
   <g id="patch_8">
    <path d="M 454.143902 246.04 
L 454.143902 10.8 
" style="fill: none; stroke: #000000; stroke-width: 0.8; stroke-linejoin: miter; stroke-linecap: square"/>
   </g>
   <g id="patch_9">
    <path d="M 799.2 246.04 
L 799.2 10.8 
" style="fill: none; stroke: #000000; stroke-width: 0.8; stroke-linejoin: miter; stroke-linecap: square"/>
   </g>
   <g id="patch_10">
    <path d="M 454.143902 246.04 
L 799.2 246.04 
" style="fill: none; stroke: #000000; stroke-width: 0.8; stroke-linejoin: miter; stroke-linecap: square"/>
   </g>
   <g id="patch_11">
    <path d="M 454.143902 10.8 
L 799.2 10.8 
" style="fill: none; stroke: #000000; stroke-width: 0.8; stroke-linejoin: miter; stroke-linecap: square"/>
   </g>
   <g id="legend_1">
    <g id="line2d_37">
     <path d="M 688.190625 23.898438 
L 698.190625 23.898438 
L 708.190625 23.898438 
" style="fill: none; stroke: #0000ff; stroke-width: 1.5; stroke-linecap: square"/>
    </g>
    <g id="text_35">
     <!-- EQE GaInP -->
     <g transform="translate(716.190625 27.398438) scale(0.1 -0.1)">
      <defs>
       <path id="DejaVuSans-47" d="M 3809 666 
L 3809 1919 
L 2778 1919 
L 2778 2438 
L 4434 2438 
L 4434 434 
Q 4069 175 3628 42 
Q 3188 -91 2688 -91 
Q 1594 -91 976 548 
Q 359 1188 359 2328 
Q 359 3472 976 4111 
Q 1594 4750 2688 4750 
Q 3144 4750 3555 4637 
Q 3966 4525 4313 4306 
L 4313 3634 
Q 3963 3931 3569 4081 
Q 3175 4231 2741 4231 
Q 1884 4231 1454 3753 
Q 1025 3275 1025 2328 
Q 1025 1384 1454 906 
Q 1884 428 2741 428 
Q 3075 428 3337 486 
Q 3600 544 3809 666 
z
" transform="scale(0.015625)"/>
       <path id="DejaVuSans-49" d="M 628 4666 
L 1259 4666 
L 1259 0 
L 628 0 
L 628 4666 
z
" transform="scale(0.015625)"/>
      </defs>
      <use xlink:href="#DejaVuSans-45"/>
      <use xlink:href="#DejaVuSans-51" x="63.183594"/>
      <use xlink:href="#DejaVuSans-45" x="141.894531"/>
      <use xlink:href="#DejaVuSans-20" x="205.078125"/>
      <use xlink:href="#DejaVuSans-47" x="236.865234"/>
      <use xlink:href="#DejaVuSans-61" x="314.355469"/>
      <use xlink:href="#DejaVuSans-49" x="375.634766"/>
      <use xlink:href="#DejaVuSans-6e" x="405.126953"/>
      <use xlink:href="#DejaVuSans-50" x="468.505859"/>
     </g>
    </g>
    <g id="line2d_38">
     <path d="M 688.190625 38.576562 
L 698.190625 38.576562 
L 708.190625 38.576562 
" style="fill: none; stroke: #000000; stroke-width: 1.5; stroke-linecap: square"/>
    </g>
    <g id="text_36">
     <!-- Total Absorbed -->
     <g transform="translate(716.190625 42.076562) scale(0.1 -0.1)">
      <defs>
       <path id="DejaVuSans-54" d="M -19 4666 
L 3928 4666 
L 3928 4134 
L 2272 4134 
L 2272 0 
L 1638 0 
L 1638 4134 
L -19 4134 
L -19 4666 
z
" transform="scale(0.015625)"/>
       <path id="DejaVuSans-41" d="M 2188 4044 
L 1331 1722 
L 3047 1722 
L 2188 4044 
z
M 1831 4666 
L 2547 4666 
L 4325 0 
L 3669 0 
L 3244 1197 
L 1141 1197 
L 716 0 
L 50 0 
L 1831 4666 
z
" transform="scale(0.015625)"/>
       <path id="DejaVuSans-62" d="M 3116 1747 
Q 3116 2381 2855 2742 
Q 2594 3103 2138 3103 
Q 1681 3103 1420 2742 
Q 1159 2381 1159 1747 
Q 1159 1113 1420 752 
Q 1681 391 2138 391 
Q 2594 391 2855 752 
Q 3116 1113 3116 1747 
z
M 1159 2969 
Q 1341 3281 1617 3432 
Q 1894 3584 2278 3584 
Q 2916 3584 3314 3078 
Q 3713 2572 3713 1747 
Q 3713 922 3314 415 
Q 2916 -91 2278 -91 
Q 1894 -91 1617 61 
Q 1341 213 1159 525 
L 1159 0 
L 581 0 
L 581 4863 
L 1159 4863 
L 1159 2969 
z
" transform="scale(0.015625)"/>
      </defs>
      <use xlink:href="#DejaVuSans-54"/>
      <use xlink:href="#DejaVuSans-6f" x="44.083984"/>
      <use xlink:href="#DejaVuSans-74" x="105.265625"/>
      <use xlink:href="#DejaVuSans-61" x="144.474609"/>
      <use xlink:href="#DejaVuSans-6c" x="205.753906"/>
      <use xlink:href="#DejaVuSans-20" x="233.537109"/>
      <use xlink:href="#DejaVuSans-41" x="265.324219"/>
      <use xlink:href="#DejaVuSans-62" x="333.732422"/>
      <use xlink:href="#DejaVuSans-73" x="397.208984"/>
      <use xlink:href="#DejaVuSans-6f" x="449.308594"/>
      <use xlink:href="#DejaVuSans-72" x="510.490234"/>
      <use xlink:href="#DejaVuSans-62" x="551.603516"/>
      <use xlink:href="#DejaVuSans-65" x="615.080078"/>
      <use xlink:href="#DejaVuSans-64" x="676.603516"/>
     </g>
    </g>
   </g>
  </g>
 </g>
 <defs>
  <clipPath id="p4d96a5d3e7">
   <rect x="61.367804" y="10.8" width="345.056098" height="235.24"/>
  </clipPath>
  <clipPath id="pa7feedafe5">
   <rect x="454.143902" y="10.8" width="345.056098" height="235.24"/>
  </clipPath>
 </defs>
</svg>
