<?xml version="1.0" encoding="utf-8" standalone="no"?>
<!DOCTYPE svg PUBLIC "-//W3C//DTD SVG 1.1//EN"
  "http://www.w3.org/Graphics/SVG/1.1/DTD/svg11.dtd">
<svg xmlns:xlink="http://www.w3.org/1999/xlink" width="810pt" height="288pt" viewBox="0 0 810 288" xmlns="http://www.w3.org/2000/svg" version="1.1">
 <metadata>
  <rdf:RDF xmlns:dc="http://purl.org/dc/elements/1.1/" xmlns:cc="http://creativecommons.org/ns#" xmlns:rdf="http://www.w3.org/1999/02/22-rdf-syntax-ns#">
   <cc:Work>
    <dc:type rdf:resource="http://purl.org/dc/dcmitype/StillImage"/>
    <dc:date>2023-11-01T01:50:22.079448</dc:date>
    <dc:format>image/svg+xml</dc:format>
    <dc:creator>
     <cc:Agent>
      <dc:title>Matplotlib v3.8.0, https://matplotlib.org/</dc:title>
     </cc:Agent>
    </dc:creator>
   </cc:Work>
  </rdf:RDF>
 </metadata>
 <defs>
  <style type="text/css">*{stroke-linejoin: round; stroke-linecap: butt}</style>
 </defs>
 <g id="figure_1">
  <g id="patch_1">
   <path d="M 0 288 
L 810 288 
L 810 0 
L 0 0 
z
" style="fill: #ffffff"/>
  </g>
  <g id="axes_1">
   <g id="patch_2">
    <path d="M 61.367804 246.04 
L 406.423902 246.04 
L 406.423902 10.8 
L 61.367804 10.8 
z
" style="fill: #ffffff"/>
   </g>
   <g id="matplotlib.axis_1">
    <g id="xtick_1">
     <g id="line2d_1">
      <defs>
       <path id="ma2398abd27" d="M 0 0 
L 0 3.5 
" style="stroke: #000000; stroke-width: 0.8"/>
      </defs>
      <g>
       <use xlink:href="#ma2398abd27" x="115.82252" y="246.04" style="stroke: #000000; stroke-width: 0.8"/>
      </g>
     </g>
     <g id="text_1">
      <!-- 500 -->
      <g transform="translate(106.27877 260.638438) scale(0.1 -0.1)">
       <defs>
        <path id="DejaVuSans-35" d="M 691 4666 
L 3169 4666 
L 3169 4134 
L 1269 4134 
L 1269 2991 
Q 1406 3038 1543 3061 
Q 1681 3084 1819 3084 
Q 2600 3084 3056 2656 
Q 3513 2228 3513 1497 
Q 3513 744 3044 326 
Q 2575 -91 1722 -91 
Q 1428 -91 1123 -41 
Q 819 9 494 109 
L 494 744 
Q 775 591 1075 516 
Q 1375 441 1709 441 
Q 2250 441 2565 725 
Q 2881 1009 2881 1497 
Q 2881 1984 2565 2268 
Q 2250 2553 1709 2553 
Q 1456 2553 1204 2497 
Q 953 2441 691 2322 
L 691 4666 
z
" transform="scale(0.015625)"/>
        <path id="DejaVuSans-30" d="M 2034 4250 
Q 1547 4250 1301 3770 
Q 1056 3291 1056 2328 
Q 1056 1369 1301 889 
Q 1547 409 2034 409 
Q 2525 409 2770 889 
Q 3016 1369 3016 2328 
Q 3016 3291 2770 3770 
Q 2525 4250 2034 4250 
z
M 2034 4750 
Q 2819 4750 3233 4129 
Q 3647 3509 3647 2328 
Q 3647 1150 3233 529 
Q 2819 -91 2034 -91 
Q 1250 -91 836 529 
Q 422 1150 422 2328 
Q 422 3509 836 4129 
Q 1250 4750 2034 4750 
z
" transform="scale(0.015625)"/>
       </defs>
       <use xlink:href="#DejaVuSans-35"/>
       <use xlink:href="#DejaVuSans-30" x="63.623047"/>
       <use xlink:href="#DejaVuSans-30" x="127.246094"/>
      </g>
     </g>
    </g>
    <g id="xtick_2">
     <g id="line2d_2">
      <g>
       <use xlink:href="#ma2398abd27" x="174.565472" y="246.04" style="stroke: #000000; stroke-width: 0.8"/>
      </g>
     </g>
     <g id="text_2">
      <!-- 1000 -->
      <g transform="translate(161.840472 260.638438) scale(0.1 -0.1)">
       <defs>
        <path id="DejaVuSans-31" d="M 794 531 
L 1825 531 
L 1825 4091 
L 703 3866 
L 703 4441 
L 1819 4666 
L 2450 4666 
L 2450 531 
L 3481 531 
L 3481 0 
L 794 0 
L 794 531 
z
" transform="scale(0.015625)"/>
       </defs>
       <use xlink:href="#DejaVuSans-31"/>
       <use xlink:href="#DejaVuSans-30" x="63.623047"/>
       <use xlink:href="#DejaVuSans-30" x="127.246094"/>
       <use xlink:href="#DejaVuSans-30" x="190.869141"/>
      </g>
     </g>
    </g>
    <g id="xtick_3">
     <g id="line2d_3">
      <g>
       <use xlink:href="#ma2398abd27" x="233.308423" y="246.04" style="stroke: #000000; stroke-width: 0.8"/>
      </g>
     </g>
     <g id="text_3">
      <!-- 1500 -->
      <g transform="translate(220.583423 260.638438) scale(0.1 -0.1)">
       <use xlink:href="#DejaVuSans-31"/>
       <use xlink:href="#DejaVuSans-35" x="63.623047"/>
       <use xlink:href="#DejaVuSans-30" x="127.246094"/>
       <use xlink:href="#DejaVuSans-30" x="190.869141"/>
      </g>
     </g>
    </g>
    <g id="xtick_4">
     <g id="line2d_4">
      <g>
       <use xlink:href="#ma2398abd27" x="292.051375" y="246.04" style="stroke: #000000; stroke-width: 0.8"/>
      </g>
     </g>
     <g id="text_4">
      <!-- 2000 -->
      <g transform="translate(279.326375 260.638438) scale(0.1 -0.1)">
       <defs>
        <path id="DejaVuSans-32" d="M 1228 531 
L 3431 531 
L 3431 0 
L 469 0 
L 469 531 
Q 828 903 1448 1529 
Q 2069 2156 2228 2338 
Q 2531 2678 2651 2914 
Q 2772 3150 2772 3378 
Q 2772 3750 2511 3984 
Q 2250 4219 1831 4219 
Q 1534 4219 1204 4116 
Q 875 4013 500 3803 
L 500 4441 
Q 881 4594 1212 4672 
Q 1544 4750 1819 4750 
Q 2544 4750 2975 4387 
Q 3406 4025 3406 3419 
Q 3406 3131 3298 2873 
Q 3191 2616 2906 2266 
Q 2828 2175 2409 1742 
Q 1991 1309 1228 531 
z
" transform="scale(0.015625)"/>
       </defs>
       <use xlink:href="#DejaVuSans-32"/>
       <use xlink:href="#DejaVuSans-30" x="63.623047"/>
       <use xlink:href="#DejaVuSans-30" x="127.246094"/>
       <use xlink:href="#DejaVuSans-30" x="190.869141"/>
      </g>
     </g>
    </g>
    <g id="xtick_5">
     <g id="line2d_5">
      <g>
       <use xlink:href="#ma2398abd27" x="350.794327" y="246.04" style="stroke: #000000; stroke-width: 0.8"/>
      </g>
     </g>
     <g id="text_5">
      <!-- 2500 -->
      <g transform="translate(338.069327 260.638438) scale(0.1 -0.1)">
       <use xlink:href="#DejaVuSans-32"/>
       <use xlink:href="#DejaVuSans-35" x="63.623047"/>
       <use xlink:href="#DejaVuSans-30" x="127.246094"/>
       <use xlink:href="#DejaVuSans-30" x="190.869141"/>
      </g>
     </g>
    </g>
    <g id="text_6">
     <!-- Position (nm) -->
     <g transform="translate(200.902103 274.316562) scale(0.1 -0.1)">
      <defs>
       <path id="DejaVuSans-50" d="M 1259 4147 
L 1259 2394 
L 2053 2394 
Q 2494 2394 2734 2622 
Q 2975 2850 2975 3272 
Q 2975 3691 2734 3919 
Q 2494 4147 2053 4147 
L 1259 4147 
z
M 628 4666 
L 2053 4666 
Q 2838 4666 3239 4311 
Q 3641 3956 3641 3272 
Q 3641 2581 3239 2228 
Q 2838 1875 2053 1875 
L 1259 1875 
L 1259 0 
L 628 0 
L 628 4666 
z
" transform="scale(0.015625)"/>
       <path id="DejaVuSans-6f" d="M 1959 3097 
Q 1497 3097 1228 2736 
Q 959 2375 959 1747 
Q 959 1119 1226 758 
Q 1494 397 1959 397 
Q 2419 397 2687 759 
Q 2956 1122 2956 1747 
Q 2956 2369 2687 2733 
Q 2419 3097 1959 3097 
z
M 1959 3584 
Q 2709 3584 3137 3096 
Q 3566 2609 3566 1747 
Q 3566 888 3137 398 
Q 2709 -91 1959 -91 
Q 1206 -91 779 398 
Q 353 888 353 1747 
Q 353 2609 779 3096 
Q 1206 3584 1959 3584 
z
" transform="scale(0.015625)"/>
       <path id="DejaVuSans-73" d="M 2834 3397 
L 2834 2853 
Q 2591 2978 2328 3040 
Q 2066 3103 1784 3103 
Q 1356 3103 1142 2972 
Q 928 2841 928 2578 
Q 928 2378 1081 2264 
Q 1234 2150 1697 2047 
L 1894 2003 
Q 2506 1872 2764 1633 
Q 3022 1394 3022 966 
Q 3022 478 2636 193 
Q 2250 -91 1575 -91 
Q 1294 -91 989 -36 
Q 684 19 347 128 
L 347 722 
Q 666 556 975 473 
Q 1284 391 1588 391 
Q 1994 391 2212 530 
Q 2431 669 2431 922 
Q 2431 1156 2273 1281 
Q 2116 1406 1581 1522 
L 1381 1569 
Q 847 1681 609 1914 
Q 372 2147 372 2553 
Q 372 3047 722 3315 
Q 1072 3584 1716 3584 
Q 2034 3584 2315 3537 
Q 2597 3491 2834 3397 
z
" transform="scale(0.015625)"/>
       <path id="DejaVuSans-69" d="M 603 3500 
L 1178 3500 
L 1178 0 
L 603 0 
L 603 3500 
z
M 603 4863 
L 1178 4863 
L 1178 4134 
L 603 4134 
L 603 4863 
z
" transform="scale(0.015625)"/>
       <path id="DejaVuSans-74" d="M 1172 4494 
L 1172 3500 
L 2356 3500 
L 2356 3053 
L 1172 3053 
L 1172 1153 
Q 1172 725 1289 603 
Q 1406 481 1766 481 
L 2356 481 
L 2356 0 
L 1766 0 
Q 1100 0 847 248 
Q 594 497 594 1153 
L 594 3053 
L 172 3053 
L 172 3500 
L 594 3500 
L 594 4494 
L 1172 4494 
z
" transform="scale(0.015625)"/>
       <path id="DejaVuSans-6e" d="M 3513 2113 
L 3513 0 
L 2938 0 
L 2938 2094 
Q 2938 2591 2744 2837 
Q 2550 3084 2163 3084 
Q 1697 3084 1428 2787 
Q 1159 2491 1159 1978 
L 1159 0 
L 581 0 
L 581 3500 
L 1159 3500 
L 1159 2956 
Q 1366 3272 1645 3428 
Q 1925 3584 2291 3584 
Q 2894 3584 3203 3211 
Q 3513 2838 3513 2113 
z
" transform="scale(0.015625)"/>
       <path id="DejaVuSans-20" transform="scale(0.015625)"/>
       <path id="DejaVuSans-28" d="M 1984 4856 
Q 1566 4138 1362 3434 
Q 1159 2731 1159 2009 
Q 1159 1288 1364 580 
Q 1569 -128 1984 -844 
L 1484 -844 
Q 1016 -109 783 600 
Q 550 1309 550 2009 
Q 550 2706 781 3412 
Q 1013 4119 1484 4856 
L 1984 4856 
z
" transform="scale(0.015625)"/>
       <path id="DejaVuSans-6d" d="M 3328 2828 
Q 3544 3216 3844 3400 
Q 4144 3584 4550 3584 
Q 5097 3584 5394 3201 
Q 5691 2819 5691 2113 
L 5691 0 
L 5113 0 
L 5113 2094 
Q 5113 2597 4934 2840 
Q 4756 3084 4391 3084 
Q 3944 3084 3684 2787 
Q 3425 2491 3425 1978 
L 3425 0 
L 2847 0 
L 2847 2094 
Q 2847 2600 2669 2842 
Q 2491 3084 2119 3084 
Q 1678 3084 1418 2786 
Q 1159 2488 1159 1978 
L 1159 0 
L 581 0 
L 581 3500 
L 1159 3500 
L 1159 2956 
Q 1356 3278 1631 3431 
Q 1906 3584 2284 3584 
Q 2666 3584 2933 3390 
Q 3200 3197 3328 2828 
z
" transform="scale(0.015625)"/>
       <path id="DejaVuSans-29" d="M 513 4856 
L 1013 4856 
Q 1481 4119 1714 3412 
Q 1947 2706 1947 2009 
Q 1947 1309 1714 600 
Q 1481 -109 1013 -844 
L 513 -844 
Q 928 -128 1133 580 
Q 1338 1288 1338 2009 
Q 1338 2731 1133 3434 
Q 928 4138 513 4856 
z
" transform="scale(0.015625)"/>
      </defs>
      <use xlink:href="#DejaVuSans-50"/>
      <use xlink:href="#DejaVuSans-6f" x="56.677734"/>
      <use xlink:href="#DejaVuSans-73" x="117.859375"/>
      <use xlink:href="#DejaVuSans-69" x="169.958984"/>
      <use xlink:href="#DejaVuSans-74" x="197.742188"/>
      <use xlink:href="#DejaVuSans-69" x="236.951172"/>
      <use xlink:href="#DejaVuSans-6f" x="264.734375"/>
      <use xlink:href="#DejaVuSans-6e" x="325.916016"/>
      <use xlink:href="#DejaVuSans-20" x="389.294922"/>
      <use xlink:href="#DejaVuSans-28" x="421.082031"/>
      <use xlink:href="#DejaVuSans-6e" x="460.095703"/>
      <use xlink:href="#DejaVuSans-6d" x="523.474609"/>
      <use xlink:href="#DejaVuSans-29" x="620.886719"/>
     </g>
    </g>
   </g>
   <g id="matplotlib.axis_2">
    <g id="ytick_1">
     <g id="line2d_6">
      <defs>
       <path id="mcab8f0a395" d="M 0 0 
L -3.5 0 
" style="stroke: #000000; stroke-width: 0.8"/>
      </defs>
      <g>
       <use xlink:href="#mcab8f0a395" x="61.367804" y="215.178094" style="stroke: #000000; stroke-width: 0.8"/>
      </g>
     </g>
     <g id="text_7">
      <!-- $\mathdefault{10^{-5}}$ -->
      <g transform="translate(30.867804 218.977312) scale(0.1 -0.1)">
       <defs>
        <path id="DejaVuSans-2212" d="M 678 2272 
L 4684 2272 
L 4684 1741 
L 678 1741 
L 678 2272 
z
" transform="scale(0.015625)"/>
       </defs>
       <use xlink:href="#DejaVuSans-31" transform="translate(0 0.684375)"/>
       <use xlink:href="#DejaVuSans-30" transform="translate(63.623047 0.684375)"/>
       <use xlink:href="#DejaVuSans-2212" transform="translate(128.203125 38.965625) scale(0.7)"/>
       <use xlink:href="#DejaVuSans-35" transform="translate(186.855469 38.965625) scale(0.7)"/>
      </g>
     </g>
    </g>
    <g id="ytick_2">
     <g id="line2d_7">
      <g>
       <use xlink:href="#mcab8f0a395" x="61.367804" y="183.360543" style="stroke: #000000; stroke-width: 0.8"/>
      </g>
     </g>
     <g id="text_8">
      <!-- $\mathdefault{10^{0}}$ -->
      <g transform="translate(36.767804 187.159762) scale(0.1 -0.1)">
       <use xlink:href="#DejaVuSans-31" transform="translate(0 0.765625)"/>
       <use xlink:href="#DejaVuSans-30" transform="translate(63.623047 0.765625)"/>
       <use xlink:href="#DejaVuSans-30" transform="translate(128.203125 39.046875) scale(0.7)"/>
      </g>
     </g>
    </g>
    <g id="ytick_3">
     <g id="line2d_8">
      <g>
       <use xlink:href="#mcab8f0a395" x="61.367804" y="151.542992" style="stroke: #000000; stroke-width: 0.8"/>
      </g>
     </g>
     <g id="text_9">
      <!-- $\mathdefault{10^{5}}$ -->
      <g transform="translate(36.767804 155.342211) scale(0.1 -0.1)">
       <use xlink:href="#DejaVuSans-31" transform="translate(0 0.684375)"/>
       <use xlink:href="#DejaVuSans-30" transform="translate(63.623047 0.684375)"/>
       <use xlink:href="#DejaVuSans-35" transform="translate(128.203125 38.965625) scale(0.7)"/>
      </g>
     </g>
    </g>
    <g id="ytick_4">
     <g id="line2d_9">
      <g>
       <use xlink:href="#mcab8f0a395" x="61.367804" y="119.725442" style="stroke: #000000; stroke-width: 0.8"/>
      </g>
     </g>
     <g id="text_10">
      <!-- $\mathdefault{10^{10}}$ -->
      <g transform="translate(32.267804 123.52466) scale(0.1 -0.1)">
       <use xlink:href="#DejaVuSans-31" transform="translate(0 0.765625)"/>
       <use xlink:href="#DejaVuSans-30" transform="translate(63.623047 0.765625)"/>
       <use xlink:href="#DejaVuSans-31" transform="translate(128.203125 39.046875) scale(0.7)"/>
       <use xlink:href="#DejaVuSans-30" transform="translate(172.739258 39.046875) scale(0.7)"/>
      </g>
     </g>
    </g>
    <g id="ytick_5">
     <g id="line2d_10">
      <g>
       <use xlink:href="#mcab8f0a395" x="61.367804" y="87.907891" style="stroke: #000000; stroke-width: 0.8"/>
      </g>
     </g>
     <g id="text_11">
      <!-- $\mathdefault{10^{15}}$ -->
      <g transform="translate(32.267804 91.70711) scale(0.1 -0.1)">
       <use xlink:href="#DejaVuSans-31" transform="translate(0 0.684375)"/>
       <use xlink:href="#DejaVuSans-30" transform="translate(63.623047 0.684375)"/>
       <use xlink:href="#DejaVuSans-31" transform="translate(128.203125 38.965625) scale(0.7)"/>
       <use xlink:href="#DejaVuSans-35" transform="translate(172.739258 38.965625) scale(0.7)"/>
      </g>
     </g>
    </g>
    <g id="ytick_6">
     <g id="line2d_11">
      <g>
       <use xlink:href="#mcab8f0a395" x="61.367804" y="56.09034" style="stroke: #000000; stroke-width: 0.8"/>
      </g>
     </g>
     <g id="text_12">
      <!-- $\mathdefault{10^{20}}$ -->
      <g transform="translate(32.267804 59.889559) scale(0.1 -0.1)">
       <use xlink:href="#DejaVuSans-31" transform="translate(0 0.765625)"/>
       <use xlink:href="#DejaVuSans-30" transform="translate(63.623047 0.765625)"/>
       <use xlink:href="#DejaVuSans-32" transform="translate(128.203125 39.046875) scale(0.7)"/>
       <use xlink:href="#DejaVuSans-30" transform="translate(172.739258 39.046875) scale(0.7)"/>
      </g>
     </g>
    </g>
    <g id="ytick_7">
     <g id="line2d_12">
      <g>
       <use xlink:href="#mcab8f0a395" x="61.367804" y="24.27279" style="stroke: #000000; stroke-width: 0.8"/>
      </g>
     </g>
     <g id="text_13">
      <!-- $\mathdefault{10^{25}}$ -->
      <g transform="translate(32.267804 28.072008) scale(0.1 -0.1)">
       <use xlink:href="#DejaVuSans-31" transform="translate(0 0.765625)"/>
       <use xlink:href="#DejaVuSans-30" transform="translate(63.623047 0.765625)"/>
       <use xlink:href="#DejaVuSans-32" transform="translate(128.203125 39.046875) scale(0.7)"/>
       <use xlink:href="#DejaVuSans-35" transform="translate(172.739258 39.046875) scale(0.7)"/>
      </g>
     </g>
    </g>
    <g id="text_14">
     <!-- Carrier density (m$^{-3}$) -->
     <g transform="translate(24.767804 181.27) rotate(-90) scale(0.1 -0.1)">
      <defs>
       <path id="DejaVuSans-43" d="M 4122 4306 
L 4122 3641 
Q 3803 3938 3442 4084 
Q 3081 4231 2675 4231 
Q 1875 4231 1450 3742 
Q 1025 3253 1025 2328 
Q 1025 1406 1450 917 
Q 1875 428 2675 428 
Q 3081 428 3442 575 
Q 3803 722 4122 1019 
L 4122 359 
Q 3791 134 3420 21 
Q 3050 -91 2638 -91 
Q 1578 -91 968 557 
Q 359 1206 359 2328 
Q 359 3453 968 4101 
Q 1578 4750 2638 4750 
Q 3056 4750 3426 4639 
Q 3797 4528 4122 4306 
z
" transform="scale(0.015625)"/>
       <path id="DejaVuSans-61" d="M 2194 1759 
Q 1497 1759 1228 1600 
Q 959 1441 959 1056 
Q 959 750 1161 570 
Q 1363 391 1709 391 
Q 2188 391 2477 730 
Q 2766 1069 2766 1631 
L 2766 1759 
L 2194 1759 
z
M 3341 1997 
L 3341 0 
L 2766 0 
L 2766 531 
Q 2569 213 2275 61 
Q 1981 -91 1556 -91 
Q 1019 -91 701 211 
Q 384 513 384 1019 
Q 384 1609 779 1909 
Q 1175 2209 1959 2209 
L 2766 2209 
L 2766 2266 
Q 2766 2663 2505 2880 
Q 2244 3097 1772 3097 
Q 1472 3097 1187 3025 
Q 903 2953 641 2809 
L 641 3341 
Q 956 3463 1253 3523 
Q 1550 3584 1831 3584 
Q 2591 3584 2966 3190 
Q 3341 2797 3341 1997 
z
" transform="scale(0.015625)"/>
       <path id="DejaVuSans-72" d="M 2631 2963 
Q 2534 3019 2420 3045 
Q 2306 3072 2169 3072 
Q 1681 3072 1420 2755 
Q 1159 2438 1159 1844 
L 1159 0 
L 581 0 
L 581 3500 
L 1159 3500 
L 1159 2956 
Q 1341 3275 1631 3429 
Q 1922 3584 2338 3584 
Q 2397 3584 2469 3576 
Q 2541 3569 2628 3553 
L 2631 2963 
z
" transform="scale(0.015625)"/>
       <path id="DejaVuSans-65" d="M 3597 1894 
L 3597 1613 
L 953 1613 
Q 991 1019 1311 708 
Q 1631 397 2203 397 
Q 2534 397 2845 478 
Q 3156 559 3463 722 
L 3463 178 
Q 3153 47 2828 -22 
Q 2503 -91 2169 -91 
Q 1331 -91 842 396 
Q 353 884 353 1716 
Q 353 2575 817 3079 
Q 1281 3584 2069 3584 
Q 2775 3584 3186 3129 
Q 3597 2675 3597 1894 
z
M 3022 2063 
Q 3016 2534 2758 2815 
Q 2500 3097 2075 3097 
Q 1594 3097 1305 2825 
Q 1016 2553 972 2059 
L 3022 2063 
z
" transform="scale(0.015625)"/>
       <path id="DejaVuSans-64" d="M 2906 2969 
L 2906 4863 
L 3481 4863 
L 3481 0 
L 2906 0 
L 2906 525 
Q 2725 213 2448 61 
Q 2172 -91 1784 -91 
Q 1150 -91 751 415 
Q 353 922 353 1747 
Q 353 2572 751 3078 
Q 1150 3584 1784 3584 
Q 2172 3584 2448 3432 
Q 2725 3281 2906 2969 
z
M 947 1747 
Q 947 1113 1208 752 
Q 1469 391 1925 391 
Q 2381 391 2643 752 
Q 2906 1113 2906 1747 
Q 2906 2381 2643 2742 
Q 2381 3103 1925 3103 
Q 1469 3103 1208 2742 
Q 947 2381 947 1747 
z
" transform="scale(0.015625)"/>
       <path id="DejaVuSans-79" d="M 2059 -325 
Q 1816 -950 1584 -1140 
Q 1353 -1331 966 -1331 
L 506 -1331 
L 506 -850 
L 844 -850 
Q 1081 -850 1212 -737 
Q 1344 -625 1503 -206 
L 1606 56 
L 191 3500 
L 800 3500 
L 1894 763 
L 2988 3500 
L 3597 3500 
L 2059 -325 
z
" transform="scale(0.015625)"/>
       <path id="DejaVuSans-33" d="M 2597 2516 
Q 3050 2419 3304 2112 
Q 3559 1806 3559 1356 
Q 3559 666 3084 287 
Q 2609 -91 1734 -91 
Q 1441 -91 1130 -33 
Q 819 25 488 141 
L 488 750 
Q 750 597 1062 519 
Q 1375 441 1716 441 
Q 2309 441 2620 675 
Q 2931 909 2931 1356 
Q 2931 1769 2642 2001 
Q 2353 2234 1838 2234 
L 1294 2234 
L 1294 2753 
L 1863 2753 
Q 2328 2753 2575 2939 
Q 2822 3125 2822 3475 
Q 2822 3834 2567 4026 
Q 2313 4219 1838 4219 
Q 1578 4219 1281 4162 
Q 984 4106 628 3988 
L 628 4550 
Q 988 4650 1302 4700 
Q 1616 4750 1894 4750 
Q 2613 4750 3031 4423 
Q 3450 4097 3450 3541 
Q 3450 3153 3228 2886 
Q 3006 2619 2597 2516 
z
" transform="scale(0.015625)"/>
      </defs>
      <use xlink:href="#DejaVuSans-43" transform="translate(0 0.765625)"/>
      <use xlink:href="#DejaVuSans-61" transform="translate(69.824219 0.765625)"/>
      <use xlink:href="#DejaVuSans-72" transform="translate(131.103516 0.765625)"/>
      <use xlink:href="#DejaVuSans-72" transform="translate(172.216797 0.765625)"/>
      <use xlink:href="#DejaVuSans-69" transform="translate(213.330078 0.765625)"/>
      <use xlink:href="#DejaVuSans-65" transform="translate(241.113281 0.765625)"/>
      <use xlink:href="#DejaVuSans-72" transform="translate(302.636719 0.765625)"/>
      <use xlink:href="#DejaVuSans-20" transform="translate(343.75 0.765625)"/>
      <use xlink:href="#DejaVuSans-64" transform="translate(375.537109 0.765625)"/>
      <use xlink:href="#DejaVuSans-65" transform="translate(439.013672 0.765625)"/>
      <use xlink:href="#DejaVuSans-6e" transform="translate(500.537109 0.765625)"/>
      <use xlink:href="#DejaVuSans-73" transform="translate(563.916016 0.765625)"/>
      <use xlink:href="#DejaVuSans-69" transform="translate(616.015625 0.765625)"/>
      <use xlink:href="#DejaVuSans-74" transform="translate(643.798828 0.765625)"/>
      <use xlink:href="#DejaVuSans-79" transform="translate(683.007812 0.765625)"/>
      <use xlink:href="#DejaVuSans-20" transform="translate(742.1875 0.765625)"/>
      <use xlink:href="#DejaVuSans-28" transform="translate(773.974609 0.765625)"/>
      <use xlink:href="#DejaVuSans-6d" transform="translate(812.988281 0.765625)"/>
      <use xlink:href="#DejaVuSans-2212" transform="translate(911.357422 39.046875) scale(0.7)"/>
      <use xlink:href="#DejaVuSans-33" transform="translate(970.009766 39.046875) scale(0.7)"/>
      <use xlink:href="#DejaVuSans-29" transform="translate(1017.280273 0.765625)"/>
     </g>
    </g>
   </g>
   <g id="line2d_13">
    <path d="M 77.052172 26.384045 
L 77.257145 26.478647 
L 77.46624 26.924444 
L 77.634957 27.833639 
L 77.856785 30.590968 
L 78.119169 37.636716 
L 78.215282 41.455282 
L 78.227031 23.838464 
L 78.593254 28.06498 
L 79.010807 29.653298 
L 79.501382 30.296114 
L 80.075835 30.533874 
L 81.478829 30.630127 
L 94.356885 30.783854 
L 94.744022 30.972084 
L 95.045249 31.271063 
L 95.446667 32.087849 
L 95.838168 33.721575 
L 95.925904 37.663194 
L 97.013027 43.540779 
L 97.024776 38.917624 
L 97.114065 39.376225 
L 97.247999 40.056185 
L 97.259747 34.360191 
L 97.351101 34.794683 
L 98.0704 37.606929 
L 98.19376 43.78998 
L 98.305372 44.176737 
L 98.390905 49.161456 
L 100.65509 57.092119 
L 100.666839 52.448497 
L 100.756128 52.755974 
L 100.890062 53.217081 
L 100.90181 47.502535 
L 100.993164 47.809247 
L 101.712463 50.220298 
L 101.835823 56.397271 
L 101.947435 56.779769 
L 102.032968 61.757342 
L 103.990356 68.058609 
L 104.297153 68.891999 
L 104.308902 64.242904 
L 104.398191 64.535633 
L 104.532125 64.971763 
L 104.543873 59.2562 
L 104.635227 59.559822 
L 105.354526 61.939574 
L 105.477886 68.054236 
L 105.589498 68.369799 
L 105.601247 73.075491 
L 105.675031 73.043107 
L 106.40586 72.867116 
L 107.727022 72.826868 
L 107.939216 72.831908 
L 107.950965 68.167304 
L 108.040254 68.420694 
L 108.174188 68.791169 
L 108.185936 63.073162 
L 108.27729 63.370648 
L 108.996589 65.668916 
L 109.097627 71.591422 
L 109.231561 71.782818 
L 109.24331 76.446116 
L 109.317094 75.874846 
L 109.602648 74.619244 
L 109.994131 73.846388 
L 110.454052 73.429311 
L 111.057567 73.195498 
L 111.581279 73.116164 
L 111.593028 68.450895 
L 111.682317 68.703045 
L 111.816251 69.071366 
L 111.827999 63.353329 
L 111.919353 63.651184 
L 112.638652 65.950722 
L 112.73969 71.867692 
L 112.873624 72.05128 
L 112.885373 76.712746 
L 112.959157 76.120001 
L 113.244711 74.830795 
L 113.636194 74.043938 
L 114.096115 73.620681 
L 114.69963 73.383288 
L 115.223342 73.302196 
L 115.235091 68.636956 
L 115.32438 68.889648 
L 115.458314 69.25872 
L 115.470062 63.540763 
L 115.561416 63.839302 
L 116.280715 66.143919 
L 116.381753 72.060536 
L 116.515687 72.243481 
L 116.527436 76.904653 
L 116.60122 76.30794 
L 116.886774 75.012879 
L 117.278257 74.223888 
L 117.738178 73.79977 
L 118.341693 73.561677 
L 118.865405 73.479936 
L 118.877154 68.814735 
L 118.966443 69.068011 
L 119.100377 69.437898 
L 119.112125 63.720026 
L 119.203479 64.019275 
L 119.922778 66.32918 
L 120.023816 72.245515 
L 120.15775 72.427913 
L 120.169499 77.088805 
L 120.243283 76.488301 
L 120.528837 75.187685 
L 120.92032 74.396696 
L 121.380241 73.971768 
L 121.983756 73.732978 
L 122.507468 73.650579 
L 122.519217 68.985419 
L 122.608506 69.239295 
L 122.74244 69.610022 
L 122.754188 63.892236 
L 122.845542 64.192214 
L 123.564841 66.507557 
L 123.665879 72.423615 
L 123.799813 72.605473 
L 123.811562 77.266084 
L 123.885346 76.661757 
L 124.1709 75.355611 
L 124.562383 74.562732 
L 125.022304 74.137157 
L 125.625819 73.897945 
L 126.149531 73.81517 
L 126.16128 69.150056 
L 126.250569 69.404557 
L 126.384503 69.776164 
L 126.396251 64.058469 
L 126.487605 64.359205 
L 127.206904 66.680895 
L 127.307942 72.596902 
L 127.441876 72.778495 
L 127.453625 77.438839 
L 127.527409 76.830673 
L 127.812963 75.519227 
L 128.204446 74.72488 
L 128.664367 74.299103 
L 129.267882 74.059925 
L 129.791594 73.977069 
L 129.803343 69.312019 
L 129.892632 69.567378 
L 130.026566 69.940235 
L 130.038314 64.222668 
L 130.129668 64.525265 
L 130.848967 66.931699 
L 130.950005 72.86575 
L 131.083939 73.068085 
L 131.095688 77.728107 
L 131.169472 77.09843 
L 131.455015 75.771538 
L 131.846254 74.993229 
L 132.258798 74.618972 
L 132.270547 71.19479 
L 132.984866 72.551905 
L 134.068197 73.09288 
L 135.789941 72.370748 
L 138.407386 70.65158 
L 142.127941 68.841509 
L 147.084517 67.417353 
L 153.33072 66.348909 
L 160.850102 65.530337 
L 169.570933 64.890129 
L 179.381207 64.383577 
L 190.142074 63.980539 
L 213.889423 63.403829 
L 239.501735 63.041972 
L 278.442268 62.750282 
L 333.736208 62.608296 
L 360.317341 62.702979 
L 362.464073 62.963092 
L 363.984901 63.542058 
L 365.043214 64.509875 
L 365.76957 65.834377 
L 366.263481 67.421323 
L 366.598456 69.169823 
L 366.990764 72.983349 
L 367.230605 78.731176 
L 367.303805 101.006898 
L 367.553279 109.342229 
L 367.706635 109.500056 
L 368.699395 104.169697 
L 369.257962 102.610428 
L 369.931127 101.48611 
L 370.707918 100.646078 
L 371.574137 100.000462 
L 372.51483 99.498017 
L 374.564015 98.806482 
L 376.759219 98.422874 
L 379.027093 98.276472 
L 381.314859 98.338198 
L 383.587227 98.612837 
L 385.75346 99.12802 
L 387.606578 99.876127 
L 388.964684 100.754159 
L 389.819389 101.587092 
L 390.544206 102.643192 
L 390.739534 103.027175 
L 390.739534 103.027175 
" clip-path="url(#pbe022728ee)" style="fill: none; stroke: #0000ff; stroke-width: 1.5; stroke-linecap: square"/>
   </g>
   <g id="line2d_14">
    <path d="M 77.052172 79.32377 
L 77.210408 75.750906 
L 77.41151 74.88905 
L 77.52195 74.871077 
L 77.69157 75.151418 
L 78.045142 76.2719 
L 78.152328 77.504042 
L 78.184048 78.801906 
L 78.215282 87.833256 
L 78.227031 63.863894 
L 78.593254 59.689803 
L 79.010807 58.130209 
L 79.501382 57.517647 
L 80.075835 57.318702 
L 81.478829 57.344865 
L 84.108684 57.688167 
L 87.089358 58.309667 
L 89.088966 58.92208 
L 90.966837 59.739135 
L 92.600561 60.804399 
L 93.873039 62.092019 
L 95.274478 63.921726 
L 95.576338 63.904466 
L 95.76031 63.59312 
L 95.838168 63.363425 
L 95.925904 65.790819 
L 96.267121 65.960127 
L 96.546054 66.332839 
L 96.800884 67.078917 
L 97.013027 68.544576 
L 97.136387 64.27048 
L 97.247999 64.054393 
L 97.351101 52.667509 
L 98.0704 49.883884 
L 98.082149 60.755951 
L 98.171438 60.525457 
L 98.305372 60.169552 
L 98.390905 64.271059 
L 99.222387 64.457336 
L 99.746337 64.803967 
L 100.131378 65.356358 
L 100.442896 66.27475 
L 100.65509 67.579508 
L 100.756128 63.424903 
L 100.890062 63.30286 
L 100.993164 52.059634 
L 101.712463 49.675067 
L 101.724212 60.547682 
L 101.813501 60.320714 
L 101.947435 59.968581 
L 102.032968 64.071623 
L 102.86445 64.270134 
L 103.3884 64.623744 
L 103.773441 65.181994 
L 104.084959 66.107575 
L 104.297153 67.423289 
L 104.398191 63.271647 
L 104.532125 63.153303 
L 104.635227 51.910896 
L 105.354526 49.525542 
L 105.366275 60.398092 
L 105.455564 60.170881 
L 105.589498 59.818269 
L 105.675031 63.921824 
L 106.506513 64.125632 
L 107.030463 64.482599 
L 107.415504 65.044164 
L 107.727022 65.975178 
L 107.939216 67.301665 
L 108.040254 63.151844 
L 108.174188 63.035479 
L 108.27729 51.792452 
L 108.996589 49.401993 
L 109.008338 60.274465 
L 109.097627 60.046906 
L 109.231561 59.693677 
L 109.317094 63.797594 
L 110.148576 64.005265 
L 110.672526 64.364704 
L 111.057567 64.928867 
L 111.369085 65.864496 
L 111.581279 67.200618 
L 111.682317 63.052358 
L 111.816251 62.937664 
L 111.919353 51.693958 
L 112.638652 49.298112 
L 112.650401 60.170502 
L 112.73969 59.94254 
L 112.873624 59.588622 
L 112.959157 63.692792 
L 113.790639 63.903271 
L 114.314589 64.264532 
L 114.69963 64.830776 
L 115.011148 65.770441 
L 115.223342 67.115406 
L 115.32438 62.968536 
L 115.458314 62.85531 
L 115.561416 51.610889 
L 116.280715 49.209448 
L 116.292464 60.081754 
L 116.381753 59.853349 
L 116.515687 59.498684 
L 116.60122 63.603034 
L 117.432702 63.815631 
L 117.956652 64.178305 
L 118.341693 64.746305 
L 118.653211 65.68965 
L 118.865405 67.042988 
L 118.966443 62.8974 
L 119.100377 62.785517 
L 119.203479 51.540351 
L 119.922778 49.133137 
L 119.934527 60.005354 
L 120.023816 59.776475 
L 120.15775 59.421021 
L 120.243283 63.525498 
L 121.074765 63.739599 
L 121.598715 64.10306 
L 121.983756 64.671944 
L 122.295274 65.617303 
L 122.507468 66.975604 
L 122.608506 62.83051 
L 122.74244 62.71899 
L 122.845542 51.473017 
L 123.564841 49.059792 
L 123.57659 59.93191 
L 123.665879 59.702306 
L 123.799813 59.34571 
L 123.885346 63.449382 
L 124.762478 63.665173 
L 125.292383 64.026158 
L 125.681987 64.59488 
L 125.97939 65.470061 
L 126.149531 66.405941 
L 126.250569 62.204082 
L 126.384503 62.023216 
L 126.487605 50.773575 
L 127.206904 48.347618 
L 127.218653 59.218986 
L 127.307942 58.971162 
L 127.441876 58.589114 
L 127.453625 62.679543 
L 127.527409 62.6247 
L 128.093023 62.050948 
L 128.664367 61.138206 
L 129.32405 59.639239 
L 129.791594 58.335137 
L 129.914954 53.804834 
L 130.026566 53.425678 
L 130.129668 42.163612 
L 130.848967 39.629416 
L 130.860716 50.495573 
L 130.950005 50.163279 
L 131.083939 49.664096 
L 131.095688 53.735234 
L 131.169472 53.46158 
L 132.258798 49.358436 
L 132.270547 46.873178 
L 132.984866 44.449758 
L 134.068197 41.684727 
L 135.789941 39.199832 
L 138.407386 37.967617 
L 142.127941 37.662395 
L 153.33072 37.616622 
L 360.317341 37.519184 
L 362.464073 37.260035 
L 363.984901 36.681675 
L 365.043214 35.714148 
L 365.76957 34.389733 
L 366.263481 32.802776 
L 366.598456 31.05423 
L 366.990764 27.240604 
L 367.230605 21.492727 
L 367.242353 52.877652 
L 367.303805 49.383706 
L 367.706635 32.956607 
L 367.934231 28.726265 
L 368.259876 26.727092 
L 368.699395 26.259419 
L 369.931127 26.188823 
L 390.739534 26.188396 
L 390.739534 26.188396 
" clip-path="url(#pbe022728ee)" style="fill: none; stroke: #ff0000; stroke-width: 1.5; stroke-linecap: square"/>
   </g>
   <g id="line2d_15">
    <path d="M 77.052172 26.384046 
L 77.257145 26.478644 
L 77.46624 26.924434 
L 77.634957 27.833619 
L 77.856785 30.590922 
L 78.119169 37.636658 
L 78.215282 41.455293 
L 78.227031 23.838487 
L 78.593254 28.065021 
L 79.010807 29.653384 
L 79.501382 30.296245 
L 80.075835 30.534034 
L 81.478829 30.630301 
L 94.356885 30.784452 
L 94.744022 30.973394 
L 95.045249 31.273475 
L 95.446667 32.093091 
L 95.838168 33.73177 
L 95.925904 37.674814 
L 97.013027 43.5722 
L 97.024776 38.949272 
L 97.114065 39.409607 
L 97.247999 40.092265 
L 97.259747 34.396509 
L 97.351101 34.833006 
L 98.0704 37.668679 
L 98.19376 43.856669 
L 98.305372 44.247932 
L 98.390905 49.236223 
L 100.65509 57.27067 
L 100.666839 52.627613 
L 100.756128 52.938944 
L 100.890062 53.405881 
L 100.90181 47.691821 
L 100.993164 48.00219 
L 101.712463 50.440566 
L 101.835823 56.62285 
L 101.947435 57.010351 
L 102.032968 61.996282 
L 104.297153 69.988131 
L 104.308902 65.344893 
L 104.398191 65.654877 
L 104.532125 66.119852 
L 104.543873 60.405626 
L 104.635227 60.714831 
L 105.354526 63.149399 
L 105.477886 69.331627 
L 105.589498 69.71909 
L 105.675031 74.704998 
L 107.939216 82.696419 
L 107.950965 78.053179 
L 108.040254 78.363149 
L 108.174188 78.828105 
L 108.185936 73.113877 
L 108.27729 73.423071 
L 108.996589 75.8576 
L 109.119949 82.039827 
L 109.231561 82.42729 
L 109.317094 87.413198 
L 111.581279 95.404614 
L 111.593028 90.761374 
L 111.682317 91.071345 
L 111.816251 91.5363 
L 111.827999 85.822072 
L 111.919353 86.131266 
L 112.638652 88.565795 
L 112.762012 94.748022 
L 112.873624 95.135485 
L 112.959157 100.121392 
L 115.223342 108.112809 
L 115.235091 103.469569 
L 115.32438 103.779539 
L 115.458314 104.244494 
L 115.470062 98.530267 
L 115.561416 98.83946 
L 116.280715 101.273989 
L 116.404075 107.456216 
L 116.515687 107.843679 
L 116.60122 112.829587 
L 118.865405 120.821004 
L 118.877154 116.177763 
L 118.966443 116.487734 
L 119.100377 116.952689 
L 119.112125 111.238461 
L 119.203479 111.547655 
L 119.922778 113.982184 
L 120.046138 120.164411 
L 120.15775 120.551874 
L 120.243283 125.537781 
L 122.507468 133.529199 
L 122.519217 128.885959 
L 122.608506 129.195929 
L 122.74244 129.660884 
L 122.754188 123.946657 
L 122.845542 124.25585 
L 123.564841 126.690388 
L 123.688201 132.872618 
L 123.799813 133.260084 
L 123.885346 138.245994 
L 126.149531 146.237474 
L 126.16128 141.594234 
L 126.250569 141.904207 
L 126.384503 142.369167 
L 126.396251 136.65494 
L 126.487605 136.964145 
L 127.206904 139.399526 
L 127.330264 145.582071 
L 127.441876 145.969824 
L 127.527409 150.955957 
L 129.791594 158.953646 
L 129.803343 154.310442 
L 129.892632 154.620695 
L 130.026566 155.086118 
L 130.038314 149.371933 
L 130.129668 149.682308 
L 130.848967 152.202228 
L 130.972327 158.416526 
L 131.083939 158.833189 
L 131.169472 163.8419 
L 132.258798 167.981127 
L 132.270547 164.588514 
L 132.984866 167.004879 
L 134.068197 169.754148 
L 135.789941 172.217739 
L 138.407386 173.436534 
L 142.127941 173.738127 
L 153.33072 173.783287 
L 360.317341 173.880569 
L 362.464073 174.139802 
L 363.984901 174.718184 
L 365.043214 175.685597 
L 365.76957 177.009743 
L 366.263481 178.596282 
L 366.598456 180.344245 
L 366.990764 184.155914 
L 367.230605 189.897493 
L 367.303805 212.215825 
L 367.706635 228.624767 
L 367.934231 232.830015 
L 368.259876 234.813245 
L 368.699395 235.276873 
L 369.931127 235.346851 
L 390.739534 235.347273 
L 390.739534 235.347273 
" clip-path="url(#pbe022728ee)" style="fill: none; stroke-dasharray: 5.55,2.4; stroke-dashoffset: 0; stroke: #0000ff; stroke-width: 1.5"/>
   </g>
   <g id="line2d_16">
    <path d="M 77.052172 235.151623 
L 77.257145 235.057026 
L 77.46624 234.611236 
L 77.634957 233.702051 
L 77.856785 230.944747 
L 78.119169 223.899012 
L 78.215282 220.080377 
L 78.227031 187.561509 
L 78.593254 183.334974 
L 79.010807 181.746612 
L 79.501382 181.103751 
L 80.075835 180.865962 
L 81.478829 180.769695 
L 94.356885 180.615544 
L 94.744022 180.426602 
L 95.045249 180.12652 
L 95.446667 179.306905 
L 95.838168 177.668226 
L 95.849917 180.041333 
L 95.925904 179.603035 
L 97.013027 173.70565 
L 97.136387 168.95456 
L 97.247999 168.386288 
L 97.351101 156.981475 
L 98.0704 154.145801 
L 98.082149 165.014489 
L 98.171438 164.700291 
L 98.305372 164.23062 
L 98.31712 168.304098 
L 98.390905 168.041626 
L 100.65509 160.007179 
L 100.77845 155.461781 
L 100.890062 155.072672 
L 100.993164 143.812291 
L 101.712463 141.373915 
L 101.724212 152.243216 
L 101.813501 151.933204 
L 101.947435 151.468202 
L 101.959184 155.542009 
L 102.032968 155.281567 
L 104.297153 147.289718 
L 104.420513 142.74618 
L 104.532125 142.3587 
L 104.635227 131.099649 
L 105.354526 128.665082 
L 105.366275 139.534389 
L 105.455564 139.224418 
L 105.589498 138.759462 
L 105.601247 142.833273 
L 105.675031 142.572852 
L 107.939216 134.58143 
L 108.062576 130.037911 
L 108.174188 129.650448 
L 108.27729 118.39141 
L 108.996589 115.956881 
L 109.008338 126.826188 
L 109.097627 126.516218 
L 109.231561 126.051262 
L 109.24331 130.125073 
L 109.317094 129.864652 
L 111.581279 121.873235 
L 111.704639 117.329715 
L 111.816251 116.942253 
L 111.919353 105.683215 
L 112.638652 103.248686 
L 112.650401 114.117993 
L 112.73969 113.808023 
L 112.873624 113.343068 
L 112.885373 117.416878 
L 112.959157 117.156457 
L 115.223342 109.16504 
L 115.346702 104.621521 
L 115.458314 104.234058 
L 115.561416 92.975021 
L 116.280715 90.540492 
L 116.292464 101.409799 
L 116.381753 101.099829 
L 116.515687 100.634873 
L 116.527436 104.708684 
L 116.60122 104.448263 
L 118.865405 96.456846 
L 118.988765 91.913326 
L 119.100377 91.525863 
L 119.203479 80.266826 
L 119.922778 77.832297 
L 119.934527 88.701604 
L 120.023816 88.391634 
L 120.15775 87.926678 
L 120.169499 92.000489 
L 120.243283 91.740068 
L 122.507468 83.74865 
L 122.630828 79.205131 
L 122.74244 78.817668 
L 122.845542 67.55863 
L 123.564841 65.124093 
L 123.57659 75.9934 
L 123.665879 75.683427 
L 123.799813 75.218468 
L 123.811562 79.292278 
L 123.885346 79.031856 
L 126.149531 71.040376 
L 126.272891 66.496852 
L 126.384503 66.109385 
L 126.487605 54.850336 
L 127.206904 52.414955 
L 127.218653 63.284232 
L 127.307942 62.974031 
L 127.441876 62.508729 
L 127.453625 66.582508 
L 127.527409 66.321892 
L 129.791594 58.324203 
L 129.914954 53.780291 
L 130.026566 53.392434 
L 130.129668 42.132173 
L 130.848967 39.612253 
L 130.860716 50.478547 
L 130.950005 50.145341 
L 131.083939 49.645363 
L 131.095688 53.716065 
L 131.169472 53.43595 
L 132.258798 49.296723 
L 132.270547 46.811482 
L 132.984866 44.395117 
L 134.068197 41.645847 
L 135.789941 39.182257 
L 138.407386 37.963462 
L 142.127941 37.661869 
L 153.33072 37.616709 
L 360.317341 37.519427 
L 362.464073 37.260194 
L 363.984901 36.681812 
L 365.043214 35.714399 
L 365.76957 34.390253 
L 366.263481 32.803714 
L 366.598456 31.055751 
L 366.990764 27.244082 
L 367.230605 21.502503 
L 367.242353 52.886931 
L 367.303805 49.319845 
L 367.706635 32.910903 
L 367.934231 28.705655 
L 368.259876 26.722425 
L 368.699395 26.258797 
L 369.931127 26.188819 
L 390.739534 26.188397 
L 390.739534 26.188397 
" clip-path="url(#pbe022728ee)" style="fill: none; stroke-dasharray: 5.55,2.4; stroke-dashoffset: 0; stroke: #ff0000; stroke-width: 1.5"/>
   </g>
   <g id="patch_3">
    <path d="M 61.367804 246.04 
L 61.367804 10.8 
" style="fill: none; stroke: #000000; stroke-width: 0.8; stroke-linejoin: miter; stroke-linecap: square"/>
   </g>
   <g id="patch_4">
    <path d="M 406.423902 246.04 
L 406.423902 10.8 
" style="fill: none; stroke: #000000; stroke-width: 0.8; stroke-linejoin: miter; stroke-linecap: square"/>
   </g>
   <g id="patch_5">
    <path d="M 61.367804 246.04 
L 406.423902 246.04 
" style="fill: none; stroke: #000000; stroke-width: 0.8; stroke-linejoin: miter; stroke-linecap: square"/>
   </g>
   <g id="patch_6">
    <path d="M 61.367804 10.8 
L 406.423902 10.8 
" style="fill: none; stroke: #000000; stroke-width: 0.8; stroke-linejoin: miter; stroke-linecap: square"/>
   </g>
  </g>
  <g id="axes_2">
   <g id="patch_7">
    <path d="M 454.143902 246.04 
L 799.2 246.04 
L 799.2 10.8 
L 454.143902 10.8 
z
" style="fill: #ffffff"/>
   </g>
   <g id="matplotlib.axis_3">
    <g id="xtick_6">
     <g id="line2d_17">
      <g>
       <use xlink:href="#ma2398abd27" x="475.709908" y="246.04" style="stroke: #000000; stroke-width: 0.8"/>
      </g>
     </g>
     <g id="text_15">
      <!-- 400 -->
      <g transform="translate(466.166158 260.638438) scale(0.1 -0.1)">
       <defs>
        <path id="DejaVuSans-34" d="M 2419 4116 
L 825 1625 
L 2419 1625 
L 2419 4116 
z
M 2253 4666 
L 3047 4666 
L 3047 1625 
L 3713 1625 
L 3713 1100 
L 3047 1100 
L 3047 0 
L 2419 0 
L 2419 1100 
L 313 1100 
L 313 1709 
L 2253 4666 
z
" transform="scale(0.015625)"/>
       </defs>
       <use xlink:href="#DejaVuSans-34"/>
       <use xlink:href="#DejaVuSans-30" x="63.623047"/>
       <use xlink:href="#DejaVuSans-30" x="127.246094"/>
      </g>
     </g>
    </g>
    <g id="xtick_7">
     <g id="line2d_18">
      <g>
       <use xlink:href="#ma2398abd27" x="518.84192" y="246.04" style="stroke: #000000; stroke-width: 0.8"/>
      </g>
     </g>
     <g id="text_16">
      <!-- 500 -->
      <g transform="translate(509.29817 260.638438) scale(0.1 -0.1)">
       <use xlink:href="#DejaVuSans-35"/>
       <use xlink:href="#DejaVuSans-30" x="63.623047"/>
       <use xlink:href="#DejaVuSans-30" x="127.246094"/>
      </g>
     </g>
    </g>
    <g id="xtick_8">
     <g id="line2d_19">
      <g>
       <use xlink:href="#ma2398abd27" x="561.973933" y="246.04" style="stroke: #000000; stroke-width: 0.8"/>
      </g>
     </g>
     <g id="text_17">
      <!-- 600 -->
      <g transform="translate(552.430183 260.638438) scale(0.1 -0.1)">
       <defs>
        <path id="DejaVuSans-36" d="M 2113 2584 
Q 1688 2584 1439 2293 
Q 1191 2003 1191 1497 
Q 1191 994 1439 701 
Q 1688 409 2113 409 
Q 2538 409 2786 701 
Q 3034 994 3034 1497 
Q 3034 2003 2786 2293 
Q 2538 2584 2113 2584 
z
M 3366 4563 
L 3366 3988 
Q 3128 4100 2886 4159 
Q 2644 4219 2406 4219 
Q 1781 4219 1451 3797 
Q 1122 3375 1075 2522 
Q 1259 2794 1537 2939 
Q 1816 3084 2150 3084 
Q 2853 3084 3261 2657 
Q 3669 2231 3669 1497 
Q 3669 778 3244 343 
Q 2819 -91 2113 -91 
Q 1303 -91 875 529 
Q 447 1150 447 2328 
Q 447 3434 972 4092 
Q 1497 4750 2381 4750 
Q 2619 4750 2861 4703 
Q 3103 4656 3366 4563 
z
" transform="scale(0.015625)"/>
       </defs>
       <use xlink:href="#DejaVuSans-36"/>
       <use xlink:href="#DejaVuSans-30" x="63.623047"/>
       <use xlink:href="#DejaVuSans-30" x="127.246094"/>
      </g>
     </g>
    </g>
    <g id="xtick_9">
     <g id="line2d_20">
      <g>
       <use xlink:href="#ma2398abd27" x="605.105945" y="246.04" style="stroke: #000000; stroke-width: 0.8"/>
      </g>
     </g>
     <g id="text_18">
      <!-- 700 -->
      <g transform="translate(595.562195 260.638438) scale(0.1 -0.1)">
       <defs>
        <path id="DejaVuSans-37" d="M 525 4666 
L 3525 4666 
L 3525 4397 
L 1831 0 
L 1172 0 
L 2766 4134 
L 525 4134 
L 525 4666 
z
" transform="scale(0.015625)"/>
       </defs>
       <use xlink:href="#DejaVuSans-37"/>
       <use xlink:href="#DejaVuSans-30" x="63.623047"/>
       <use xlink:href="#DejaVuSans-30" x="127.246094"/>
      </g>
     </g>
    </g>
    <g id="xtick_10">
     <g id="line2d_21">
      <g>
       <use xlink:href="#ma2398abd27" x="648.237957" y="246.04" style="stroke: #000000; stroke-width: 0.8"/>
      </g>
     </g>
     <g id="text_19">
      <!-- 800 -->
      <g transform="translate(638.694207 260.638438) scale(0.1 -0.1)">
       <defs>
        <path id="DejaVuSans-38" d="M 2034 2216 
Q 1584 2216 1326 1975 
Q 1069 1734 1069 1313 
Q 1069 891 1326 650 
Q 1584 409 2034 409 
Q 2484 409 2743 651 
Q 3003 894 3003 1313 
Q 3003 1734 2745 1975 
Q 2488 2216 2034 2216 
z
M 1403 2484 
Q 997 2584 770 2862 
Q 544 3141 544 3541 
Q 544 4100 942 4425 
Q 1341 4750 2034 4750 
Q 2731 4750 3128 4425 
Q 3525 4100 3525 3541 
Q 3525 3141 3298 2862 
Q 3072 2584 2669 2484 
Q 3125 2378 3379 2068 
Q 3634 1759 3634 1313 
Q 3634 634 3220 271 
Q 2806 -91 2034 -91 
Q 1263 -91 848 271 
Q 434 634 434 1313 
Q 434 1759 690 2068 
Q 947 2378 1403 2484 
z
M 1172 3481 
Q 1172 3119 1398 2916 
Q 1625 2713 2034 2713 
Q 2441 2713 2670 2916 
Q 2900 3119 2900 3481 
Q 2900 3844 2670 4047 
Q 2441 4250 2034 4250 
Q 1625 4250 1398 4047 
Q 1172 3844 1172 3481 
z
" transform="scale(0.015625)"/>
       </defs>
       <use xlink:href="#DejaVuSans-38"/>
       <use xlink:href="#DejaVuSans-30" x="63.623047"/>
       <use xlink:href="#DejaVuSans-30" x="127.246094"/>
      </g>
     </g>
    </g>
    <g id="xtick_11">
     <g id="line2d_22">
      <g>
       <use xlink:href="#ma2398abd27" x="691.369969" y="246.04" style="stroke: #000000; stroke-width: 0.8"/>
      </g>
     </g>
     <g id="text_20">
      <!-- 900 -->
      <g transform="translate(681.826219 260.638438) scale(0.1 -0.1)">
       <defs>
        <path id="DejaVuSans-39" d="M 703 97 
L 703 672 
Q 941 559 1184 500 
Q 1428 441 1663 441 
Q 2288 441 2617 861 
Q 2947 1281 2994 2138 
Q 2813 1869 2534 1725 
Q 2256 1581 1919 1581 
Q 1219 1581 811 2004 
Q 403 2428 403 3163 
Q 403 3881 828 4315 
Q 1253 4750 1959 4750 
Q 2769 4750 3195 4129 
Q 3622 3509 3622 2328 
Q 3622 1225 3098 567 
Q 2575 -91 1691 -91 
Q 1453 -91 1209 -44 
Q 966 3 703 97 
z
M 1959 2075 
Q 2384 2075 2632 2365 
Q 2881 2656 2881 3163 
Q 2881 3666 2632 3958 
Q 2384 4250 1959 4250 
Q 1534 4250 1286 3958 
Q 1038 3666 1038 3163 
Q 1038 2656 1286 2365 
Q 1534 2075 1959 2075 
z
" transform="scale(0.015625)"/>
       </defs>
       <use xlink:href="#DejaVuSans-39"/>
       <use xlink:href="#DejaVuSans-30" x="63.623047"/>
       <use xlink:href="#DejaVuSans-30" x="127.246094"/>
      </g>
     </g>
    </g>
    <g id="xtick_12">
     <g id="line2d_23">
      <g>
       <use xlink:href="#ma2398abd27" x="734.501982" y="246.04" style="stroke: #000000; stroke-width: 0.8"/>
      </g>
     </g>
     <g id="text_21">
      <!-- 1000 -->
      <g transform="translate(721.776982 260.638438) scale(0.1 -0.1)">
       <use xlink:href="#DejaVuSans-31"/>
       <use xlink:href="#DejaVuSans-30" x="63.623047"/>
       <use xlink:href="#DejaVuSans-30" x="127.246094"/>
       <use xlink:href="#DejaVuSans-30" x="190.869141"/>
      </g>
     </g>
    </g>
    <g id="xtick_13">
     <g id="line2d_24">
      <g>
       <use xlink:href="#ma2398abd27" x="777.633994" y="246.04" style="stroke: #000000; stroke-width: 0.8"/>
      </g>
     </g>
     <g id="text_22">
      <!-- 1100 -->
      <g transform="translate(764.908994 260.638438) scale(0.1 -0.1)">
       <use xlink:href="#DejaVuSans-31"/>
       <use xlink:href="#DejaVuSans-31" x="63.623047"/>
       <use xlink:href="#DejaVuSans-30" x="127.246094"/>
       <use xlink:href="#DejaVuSans-30" x="190.869141"/>
      </g>
     </g>
    </g>
    <g id="text_23">
     <!-- Wavelength (nm) -->
     <g transform="translate(583.479763 274.316562) scale(0.1 -0.1)">
      <defs>
       <path id="DejaVuSans-57" d="M 213 4666 
L 850 4666 
L 1831 722 
L 2809 4666 
L 3519 4666 
L 4500 722 
L 5478 4666 
L 6119 4666 
L 4947 0 
L 4153 0 
L 3169 4050 
L 2175 0 
L 1381 0 
L 213 4666 
z
" transform="scale(0.015625)"/>
       <path id="DejaVuSans-76" d="M 191 3500 
L 800 3500 
L 1894 563 
L 2988 3500 
L 3597 3500 
L 2284 0 
L 1503 0 
L 191 3500 
z
" transform="scale(0.015625)"/>
       <path id="DejaVuSans-6c" d="M 603 4863 
L 1178 4863 
L 1178 0 
L 603 0 
L 603 4863 
z
" transform="scale(0.015625)"/>
       <path id="DejaVuSans-67" d="M 2906 1791 
Q 2906 2416 2648 2759 
Q 2391 3103 1925 3103 
Q 1463 3103 1205 2759 
Q 947 2416 947 1791 
Q 947 1169 1205 825 
Q 1463 481 1925 481 
Q 2391 481 2648 825 
Q 2906 1169 2906 1791 
z
M 3481 434 
Q 3481 -459 3084 -895 
Q 2688 -1331 1869 -1331 
Q 1566 -1331 1297 -1286 
Q 1028 -1241 775 -1147 
L 775 -588 
Q 1028 -725 1275 -790 
Q 1522 -856 1778 -856 
Q 2344 -856 2625 -561 
Q 2906 -266 2906 331 
L 2906 616 
Q 2728 306 2450 153 
Q 2172 0 1784 0 
Q 1141 0 747 490 
Q 353 981 353 1791 
Q 353 2603 747 3093 
Q 1141 3584 1784 3584 
Q 2172 3584 2450 3431 
Q 2728 3278 2906 2969 
L 2906 3500 
L 3481 3500 
L 3481 434 
z
" transform="scale(0.015625)"/>
       <path id="DejaVuSans-68" d="M 3513 2113 
L 3513 0 
L 2938 0 
L 2938 2094 
Q 2938 2591 2744 2837 
Q 2550 3084 2163 3084 
Q 1697 3084 1428 2787 
Q 1159 2491 1159 1978 
L 1159 0 
L 581 0 
L 581 4863 
L 1159 4863 
L 1159 2956 
Q 1366 3272 1645 3428 
Q 1925 3584 2291 3584 
Q 2894 3584 3203 3211 
Q 3513 2838 3513 2113 
z
" transform="scale(0.015625)"/>
      </defs>
      <use xlink:href="#DejaVuSans-57"/>
      <use xlink:href="#DejaVuSans-61" x="92.501953"/>
      <use xlink:href="#DejaVuSans-76" x="153.78125"/>
      <use xlink:href="#DejaVuSans-65" x="212.960938"/>
      <use xlink:href="#DejaVuSans-6c" x="274.484375"/>
      <use xlink:href="#DejaVuSans-65" x="302.267578"/>
      <use xlink:href="#DejaVuSans-6e" x="363.791016"/>
      <use xlink:href="#DejaVuSans-67" x="427.169922"/>
      <use xlink:href="#DejaVuSans-74" x="490.646484"/>
      <use xlink:href="#DejaVuSans-68" x="529.855469"/>
      <use xlink:href="#DejaVuSans-20" x="593.234375"/>
      <use xlink:href="#DejaVuSans-28" x="625.021484"/>
      <use xlink:href="#DejaVuSans-6e" x="664.035156"/>
      <use xlink:href="#DejaVuSans-6d" x="727.414062"/>
      <use xlink:href="#DejaVuSans-29" x="824.826172"/>
     </g>
    </g>
   </g>
   <g id="matplotlib.axis_4">
    <g id="ytick_8">
     <g id="line2d_25">
      <g>
       <use xlink:href="#mcab8f0a395" x="454.143902" y="246.04" style="stroke: #000000; stroke-width: 0.8"/>
      </g>
     </g>
     <g id="text_24">
      <!-- 0.0 -->
      <g transform="translate(431.240777 249.839219) scale(0.1 -0.1)">
       <defs>
        <path id="DejaVuSans-2e" d="M 684 794 
L 1344 794 
L 1344 0 
L 684 0 
L 684 794 
z
" transform="scale(0.015625)"/>
       </defs>
       <use xlink:href="#DejaVuSans-30"/>
       <use xlink:href="#DejaVuSans-2e" x="63.623047"/>
       <use xlink:href="#DejaVuSans-30" x="95.410156"/>
      </g>
     </g>
    </g>
    <g id="ytick_9">
     <g id="line2d_26">
      <g>
       <use xlink:href="#mcab8f0a395" x="454.143902" y="203.269091" style="stroke: #000000; stroke-width: 0.8"/>
      </g>
     </g>
     <g id="text_25">
      <!-- 0.2 -->
      <g transform="translate(431.240777 207.06831) scale(0.1 -0.1)">
       <use xlink:href="#DejaVuSans-30"/>
       <use xlink:href="#DejaVuSans-2e" x="63.623047"/>
       <use xlink:href="#DejaVuSans-32" x="95.410156"/>
      </g>
     </g>
    </g>
    <g id="ytick_10">
     <g id="line2d_27">
      <g>
       <use xlink:href="#mcab8f0a395" x="454.143902" y="160.498182" style="stroke: #000000; stroke-width: 0.8"/>
      </g>
     </g>
     <g id="text_26">
      <!-- 0.4 -->
      <g transform="translate(431.240777 164.297401) scale(0.1 -0.1)">
       <use xlink:href="#DejaVuSans-30"/>
       <use xlink:href="#DejaVuSans-2e" x="63.623047"/>
       <use xlink:href="#DejaVuSans-34" x="95.410156"/>
      </g>
     </g>
    </g>
    <g id="ytick_11">
     <g id="line2d_28">
      <g>
       <use xlink:href="#mcab8f0a395" x="454.143902" y="117.727273" style="stroke: #000000; stroke-width: 0.8"/>
      </g>
     </g>
     <g id="text_27">
      <!-- 0.6 -->
      <g transform="translate(431.240777 121.526491) scale(0.1 -0.1)">
       <use xlink:href="#DejaVuSans-30"/>
       <use xlink:href="#DejaVuSans-2e" x="63.623047"/>
       <use xlink:href="#DejaVuSans-36" x="95.410156"/>
      </g>
     </g>
    </g>
    <g id="ytick_12">
     <g id="line2d_29">
      <g>
       <use xlink:href="#mcab8f0a395" x="454.143902" y="74.956364" style="stroke: #000000; stroke-width: 0.8"/>
      </g>
     </g>
     <g id="text_28">
      <!-- 0.8 -->
      <g transform="translate(431.240777 78.755582) scale(0.1 -0.1)">
       <use xlink:href="#DejaVuSans-30"/>
       <use xlink:href="#DejaVuSans-2e" x="63.623047"/>
       <use xlink:href="#DejaVuSans-38" x="95.410156"/>
      </g>
     </g>
    </g>
    <g id="ytick_13">
     <g id="line2d_30">
      <g>
       <use xlink:href="#mcab8f0a395" x="454.143902" y="32.185455" style="stroke: #000000; stroke-width: 0.8"/>
      </g>
     </g>
     <g id="text_29">
      <!-- 1.0 -->
      <g transform="translate(431.240777 35.984673) scale(0.1 -0.1)">
       <use xlink:href="#DejaVuSans-31"/>
       <use xlink:href="#DejaVuSans-2e" x="63.623047"/>
       <use xlink:href="#DejaVuSans-30" x="95.410156"/>
      </g>
     </g>
    </g>
    <g id="text_30">
     <!-- EQE -->
     <g transform="translate(425.161089 138.674688) rotate(-90) scale(0.1 -0.1)">
      <defs>
       <path id="DejaVuSans-45" d="M 628 4666 
L 3578 4666 
L 3578 4134 
L 1259 4134 
L 1259 2753 
L 3481 2753 
L 3481 2222 
L 1259 2222 
L 1259 531 
L 3634 531 
L 3634 0 
L 628 0 
L 628 4666 
z
" transform="scale(0.015625)"/>
       <path id="DejaVuSans-51" d="M 2522 4238 
Q 1834 4238 1429 3725 
Q 1025 3213 1025 2328 
Q 1025 1447 1429 934 
Q 1834 422 2522 422 
Q 3209 422 3611 934 
Q 4013 1447 4013 2328 
Q 4013 3213 3611 3725 
Q 3209 4238 2522 4238 
z
M 3406 84 
L 4238 -825 
L 3475 -825 
L 2784 -78 
Q 2681 -84 2626 -87 
Q 2572 -91 2522 -91 
Q 1538 -91 948 567 
Q 359 1225 359 2328 
Q 359 3434 948 4092 
Q 1538 4750 2522 4750 
Q 3503 4750 4090 4092 
Q 4678 3434 4678 2328 
Q 4678 1516 4351 937 
Q 4025 359 3406 84 
z
" transform="scale(0.015625)"/>
      </defs>
      <use xlink:href="#DejaVuSans-45"/>
      <use xlink:href="#DejaVuSans-51" x="63.183594"/>
      <use xlink:href="#DejaVuSans-45" x="141.894531"/>
     </g>
    </g>
   </g>
   <g id="line2d_31">
    <path d="M 454.143902 164.190463 
L 456.156729 158.829693 
L 459.17597 153.664906 
L 461.188797 149.340965 
L 466.220865 137.40747 
L 469.240106 127.991918 
L 470.24652 123.968593 
L 471.252933 119.274958 
L 473.265761 112.55961 
L 478.297829 98.831681 
L 480.310656 93.769404 
L 485.342724 83.380742 
L 487.355551 78.846191 
L 489.368379 72.75138 
L 492.387619 63.547107 
L 494.400447 57.906237 
L 497.419688 51.622694 
L 498.426101 50.132954 
L 500.438928 47.739923 
L 502.451756 45.857255 
L 504.464583 44.267935 
L 506.47741 42.956835 
L 509.496651 41.295409 
L 512.515892 39.924024 
L 515.535133 38.914072 
L 518.554374 38.165128 
L 522.580028 37.461206 
L 524.592855 37.363181 
L 529.624923 37.491309 
L 542.7083 37.950576 
L 555.791678 38.0444 
L 563.842986 38.170664 
L 567.868641 38.034086 
L 573.907123 37.707534 
L 578.939191 37.257262 
L 583.971259 36.519182 
L 586.9905 35.839629 
L 591.016154 34.693259 
L 595.041809 34.378294 
L 604.099531 34.319795 
L 610.138013 34.45197 
L 613.157254 34.734762 
L 620.202149 35.556251 
L 623.22139 35.871983 
L 626.240631 36.465989 
L 636.304767 39.134802 
L 637.311181 39.326099 
L 639.324008 39.326295 
L 645.36249 39.10662 
L 647.375317 39.286639 
L 648.38173 39.476961 
L 650.394558 40.29086 
L 652.407385 41.349774 
L 655.426626 43.292414 
L 659.45228 46.216155 
L 660.458694 47.901367 
L 661.465108 51.330731 
L 663.477935 56.286584 
L 665.490762 62.122222 
L 667.503589 69.336849 
L 669.516416 77.550641 
L 671.529244 87.409208 
L 673.542071 98.528968 
L 675.554898 111.889798 
L 677.567725 128.299985 
L 679.580553 148.133182 
L 681.59338 171.654072 
L 683.606207 199.311916 
L 684.612621 214.952781 
L 685.619034 224.551136 
L 687.631862 225.787094 
L 688.638275 225.775188 
L 689.644689 229.972402 
L 690.651102 231.438566 
L 698.702411 237.297708 
L 699.708825 237.721126 
L 700.715239 238.990125 
L 701.721652 235.453267 
L 703.73448 239.298962 
L 705.747307 239.285986 
L 711.785788 239.167551 
L 720.843511 239.045297 
L 728.89482 238.933847 
L 729.901234 245.914018 
L 730.907647 240.590811 
L 731.914061 223.629826 
L 733.926888 245.321306 
L 734.933302 246.04 
L 756.067988 246.04 
L 756.067988 246.04 
" clip-path="url(#p8e596b7c2c)" style="fill: none; stroke: #0000ff; stroke-width: 1.5; stroke-linecap: square"/>
   </g>
   <g id="line2d_32">
    <path d="M 454.143902 109.316556 
L 455.150316 110.28111 
L 456.156729 111.047323 
L 457.163143 111.034085 
L 458.169556 110.823669 
L 459.17597 110.2255 
L 460.182384 109.175277 
L 461.188797 107.547909 
L 463.201625 103.691543 
L 465.214452 99.21005 
L 466.220865 96.715379 
L 468.233693 90.993111 
L 469.240106 88.351625 
L 471.252933 82.121743 
L 473.265761 77.830878 
L 478.297829 69.545791 
L 480.310656 66.646594 
L 481.31707 65.422898 
L 483.329897 64.518721 
L 484.336311 64.100979 
L 487.355551 62.140323 
L 488.361965 60.55035 
L 495.40686 48.075824 
L 497.419688 45.300561 
L 499.432515 42.964816 
L 501.445342 40.990185 
L 503.458169 39.450282 
L 505.470997 38.157897 
L 507.483824 37.136991 
L 510.503065 35.897422 
L 512.515892 35.275858 
L 515.535133 34.651071 
L 518.554374 34.288552 
L 522.580028 34.098778 
L 525.599269 34.166158 
L 531.637751 34.568898 
L 543.714714 35.484026 
L 553.77885 35.930139 
L 562.836573 36.16508 
L 568.875055 36.120771 
L 574.913536 35.930797 
L 582.964845 35.470228 
L 589.003327 34.941443 
L 592.022568 34.707054 
L 600.073877 34.523131 
L 606.112358 34.598876 
L 612.15084 34.86321 
L 616.176495 35.264327 
L 626.240631 36.640649 
L 629.259872 37.125214 
L 633.285526 37.824045 
L 639.324008 39.090394 
L 644.356076 39.814149 
L 648.38173 40.673421 
L 652.407385 42.399522 
L 658.445867 45.386559 
L 659.45228 45.947102 
L 660.458694 47.420655 
L 661.465108 50.591468 
L 663.477935 55.210765 
L 665.490762 60.894279 
L 667.503589 68.15322 
L 669.516416 76.606961 
L 671.529244 86.825755 
L 673.542071 98.346444 
L 675.554898 112.049591 
L 677.567725 128.675505 
L 679.580553 148.570687 
L 681.59338 172.01432 
L 683.606207 199.50607 
L 684.612621 215.052373 
L 685.619034 224.595556 
L 687.631862 225.810821 
L 688.638275 225.79027 
L 689.644689 229.980714 
L 690.651102 231.441358 
L 698.702411 237.296584 
L 699.708825 237.72085 
L 700.715239 238.989803 
L 701.721652 235.452961 
L 703.73448 239.298446 
L 705.747307 239.285318 
L 711.785788 239.166867 
L 720.843511 239.044901 
L 728.89482 238.933204 
L 729.901234 245.893529 
L 730.907647 240.590218 
L 731.914061 223.628942 
L 733.926888 245.320967 
L 734.933302 246.034292 
L 756.067988 246.04 
L 756.067988 246.04 
" clip-path="url(#p8e596b7c2c)" style="fill: none; stroke: #000000; stroke-width: 1.5; stroke-linecap: square"/>
   </g>
   <g id="patch_8">
    <path d="M 454.143902 246.04 
L 454.143902 10.8 
" style="fill: none; stroke: #000000; stroke-width: 0.8; stroke-linejoin: miter; stroke-linecap: square"/>
   </g>
   <g id="patch_9">
    <path d="M 799.2 246.04 
L 799.2 10.8 
" style="fill: none; stroke: #000000; stroke-width: 0.8; stroke-linejoin: miter; stroke-linecap: square"/>
   </g>
   <g id="patch_10">
    <path d="M 454.143902 246.04 
L 799.2 246.04 
" style="fill: none; stroke: #000000; stroke-width: 0.8; stroke-linejoin: miter; stroke-linecap: square"/>
   </g>
   <g id="patch_11">
    <path d="M 454.143902 10.8 
L 799.2 10.8 
" style="fill: none; stroke: #000000; stroke-width: 0.8; stroke-linejoin: miter; stroke-linecap: square"/>
   </g>
   <g id="legend_1">
    <g id="line2d_33">
     <path d="M 688.190625 23.898438 
L 698.190625 23.898438 
L 708.190625 23.898438 
" style="fill: none; stroke: #0000ff; stroke-width: 1.5; stroke-linecap: square"/>
    </g>
    <g id="text_31">
     <!-- EQE GaInP -->
     <g transform="translate(716.190625 27.398438) scale(0.1 -0.1)">
      <defs>
       <path id="DejaVuSans-47" d="M 3809 666 
L 3809 1919 
L 2778 1919 
L 2778 2438 
L 4434 2438 
L 4434 434 
Q 4069 175 3628 42 
Q 3188 -91 2688 -91 
Q 1594 -91 976 548 
Q 359 1188 359 2328 
Q 359 3472 976 4111 
Q 1594 4750 2688 4750 
Q 3144 4750 3555 4637 
Q 3966 4525 4313 4306 
L 4313 3634 
Q 3963 3931 3569 4081 
Q 3175 4231 2741 4231 
Q 1884 4231 1454 3753 
Q 1025 3275 1025 2328 
Q 1025 1384 1454 906 
Q 1884 428 2741 428 
Q 3075 428 3337 486 
Q 3600 544 3809 666 
z
" transform="scale(0.015625)"/>
       <path id="DejaVuSans-49" d="M 628 4666 
L 1259 4666 
L 1259 0 
L 628 0 
L 628 4666 
z
" transform="scale(0.015625)"/>
      </defs>
      <use xlink:href="#DejaVuSans-45"/>
      <use xlink:href="#DejaVuSans-51" x="63.183594"/>
      <use xlink:href="#DejaVuSans-45" x="141.894531"/>
      <use xlink:href="#DejaVuSans-20" x="205.078125"/>
      <use xlink:href="#DejaVuSans-47" x="236.865234"/>
      <use xlink:href="#DejaVuSans-61" x="314.355469"/>
      <use xlink:href="#DejaVuSans-49" x="375.634766"/>
      <use xlink:href="#DejaVuSans-6e" x="405.126953"/>
      <use xlink:href="#DejaVuSans-50" x="468.505859"/>
     </g>
    </g>
    <g id="line2d_34">
     <path d="M 688.190625 38.576562 
L 698.190625 38.576562 
L 708.190625 38.576562 
" style="fill: none; stroke: #000000; stroke-width: 1.5; stroke-linecap: square"/>
    </g>
    <g id="text_32">
     <!-- Total Absorbed -->
     <g transform="translate(716.190625 42.076562) scale(0.1 -0.1)">
      <defs>
       <path id="DejaVuSans-54" d="M -19 4666 
L 3928 4666 
L 3928 4134 
L 2272 4134 
L 2272 0 
L 1638 0 
L 1638 4134 
L -19 4134 
L -19 4666 
z
" transform="scale(0.015625)"/>
       <path id="DejaVuSans-41" d="M 2188 4044 
L 1331 1722 
L 3047 1722 
L 2188 4044 
z
M 1831 4666 
L 2547 4666 
L 4325 0 
L 3669 0 
L 3244 1197 
L 1141 1197 
L 716 0 
L 50 0 
L 1831 4666 
z
" transform="scale(0.015625)"/>
       <path id="DejaVuSans-62" d="M 3116 1747 
Q 3116 2381 2855 2742 
Q 2594 3103 2138 3103 
Q 1681 3103 1420 2742 
Q 1159 2381 1159 1747 
Q 1159 1113 1420 752 
Q 1681 391 2138 391 
Q 2594 391 2855 752 
Q 3116 1113 3116 1747 
z
M 1159 2969 
Q 1341 3281 1617 3432 
Q 1894 3584 2278 3584 
Q 2916 3584 3314 3078 
Q 3713 2572 3713 1747 
Q 3713 922 3314 415 
Q 2916 -91 2278 -91 
Q 1894 -91 1617 61 
Q 1341 213 1159 525 
L 1159 0 
L 581 0 
L 581 4863 
L 1159 4863 
L 1159 2969 
z
" transform="scale(0.015625)"/>
      </defs>
      <use xlink:href="#DejaVuSans-54"/>
      <use xlink:href="#DejaVuSans-6f" x="44.083984"/>
      <use xlink:href="#DejaVuSans-74" x="105.265625"/>
      <use xlink:href="#DejaVuSans-61" x="144.474609"/>
      <use xlink:href="#DejaVuSans-6c" x="205.753906"/>
      <use xlink:href="#DejaVuSans-20" x="233.537109"/>
      <use xlink:href="#DejaVuSans-41" x="265.324219"/>
      <use xlink:href="#DejaVuSans-62" x="333.732422"/>
      <use xlink:href="#DejaVuSans-73" x="397.208984"/>
      <use xlink:href="#DejaVuSans-6f" x="449.308594"/>
      <use xlink:href="#DejaVuSans-72" x="510.490234"/>
      <use xlink:href="#DejaVuSans-62" x="551.603516"/>
      <use xlink:href="#DejaVuSans-65" x="615.080078"/>
      <use xlink:href="#DejaVuSans-64" x="676.603516"/>
     </g>
    </g>
   </g>
  </g>
 </g>
 <defs>
  <clipPath id="pbe022728ee">
   <rect x="61.367804" y="10.8" width="345.056098" height="235.24"/>
  </clipPath>
  <clipPath id="p8e596b7c2c">
   <rect x="454.143902" y="10.8" width="345.056098" height="235.24"/>
  </clipPath>
 </defs>
</svg>
