<?xml version="1.0" encoding="utf-8" standalone="no"?>
<!DOCTYPE svg PUBLIC "-//W3C//DTD SVG 1.1//EN"
  "http://www.w3.org/Graphics/SVG/1.1/DTD/svg11.dtd">
<svg xmlns:xlink="http://www.w3.org/1999/xlink" width="810pt" height="288pt" viewBox="0 0 810 288" xmlns="http://www.w3.org/2000/svg" version="1.1">
 <metadata>
  <rdf:RDF xmlns:dc="http://purl.org/dc/elements/1.1/" xmlns:cc="http://creativecommons.org/ns#" xmlns:rdf="http://www.w3.org/1999/02/22-rdf-syntax-ns#">
   <cc:Work>
    <dc:type rdf:resource="http://purl.org/dc/dcmitype/StillImage"/>
    <dc:date>2023-11-01T20:36:03.511252</dc:date>
    <dc:format>image/svg+xml</dc:format>
    <dc:creator>
     <cc:Agent>
      <dc:title>Matplotlib v3.8.0, https://matplotlib.org/</dc:title>
     </cc:Agent>
    </dc:creator>
   </cc:Work>
  </rdf:RDF>
 </metadata>
 <defs>
  <style type="text/css">*{stroke-linejoin: round; stroke-linecap: butt}</style>
 </defs>
 <g id="figure_1">
  <g id="patch_1">
   <path d="M 0 288 
L 810 288 
L 810 0 
L 0 0 
z
" style="fill: #ffffff"/>
  </g>
  <g id="axes_1">
   <g id="patch_2">
    <path d="M 61.367804 246.04 
L 406.088209 246.04 
L 406.088209 10.8 
L 61.367804 10.8 
z
" style="fill: #ffffff"/>
   </g>
   <g id="matplotlib.axis_1">
    <g id="xtick_1">
     <g id="line2d_1">
      <defs>
       <path id="m18c35ec8ff" d="M 0 0 
L 0 3.5 
" style="stroke: #000000; stroke-width: 0.8"/>
      </defs>
      <g>
       <use xlink:href="#m18c35ec8ff" x="108.470385" y="246.04" style="stroke: #000000; stroke-width: 0.8"/>
      </g>
     </g>
     <g id="text_1">
      <!-- 500 -->
      <g transform="translate(98.926635 260.638438) scale(0.1 -0.1)">
       <defs>
        <path id="DejaVuSans-35" d="M 691 4666 
L 3169 4666 
L 3169 4134 
L 1269 4134 
L 1269 2991 
Q 1406 3038 1543 3061 
Q 1681 3084 1819 3084 
Q 2600 3084 3056 2656 
Q 3513 2228 3513 1497 
Q 3513 744 3044 326 
Q 2575 -91 1722 -91 
Q 1428 -91 1123 -41 
Q 819 9 494 109 
L 494 744 
Q 775 591 1075 516 
Q 1375 441 1709 441 
Q 2250 441 2565 725 
Q 2881 1009 2881 1497 
Q 2881 1984 2565 2268 
Q 2250 2553 1709 2553 
Q 1456 2553 1204 2497 
Q 953 2441 691 2322 
L 691 4666 
z
" transform="scale(0.015625)"/>
        <path id="DejaVuSans-30" d="M 2034 4250 
Q 1547 4250 1301 3770 
Q 1056 3291 1056 2328 
Q 1056 1369 1301 889 
Q 1547 409 2034 409 
Q 2525 409 2770 889 
Q 3016 1369 3016 2328 
Q 3016 3291 2770 3770 
Q 2525 4250 2034 4250 
z
M 2034 4750 
Q 2819 4750 3233 4129 
Q 3647 3509 3647 2328 
Q 3647 1150 3233 529 
Q 2819 -91 2034 -91 
Q 1250 -91 836 529 
Q 422 1150 422 2328 
Q 422 3509 836 4129 
Q 1250 4750 2034 4750 
z
" transform="scale(0.015625)"/>
       </defs>
       <use xlink:href="#DejaVuSans-35"/>
       <use xlink:href="#DejaVuSans-30" x="63.623047"/>
       <use xlink:href="#DejaVuSans-30" x="127.246094"/>
      </g>
     </g>
    </g>
    <g id="xtick_2">
     <g id="line2d_2">
      <g>
       <use xlink:href="#m18c35ec8ff" x="156.096857" y="246.04" style="stroke: #000000; stroke-width: 0.8"/>
      </g>
     </g>
     <g id="text_2">
      <!-- 1000 -->
      <g transform="translate(143.371857 260.638438) scale(0.1 -0.1)">
       <defs>
        <path id="DejaVuSans-31" d="M 794 531 
L 1825 531 
L 1825 4091 
L 703 3866 
L 703 4441 
L 1819 4666 
L 2450 4666 
L 2450 531 
L 3481 531 
L 3481 0 
L 794 0 
L 794 531 
z
" transform="scale(0.015625)"/>
       </defs>
       <use xlink:href="#DejaVuSans-31"/>
       <use xlink:href="#DejaVuSans-30" x="63.623047"/>
       <use xlink:href="#DejaVuSans-30" x="127.246094"/>
       <use xlink:href="#DejaVuSans-30" x="190.869141"/>
      </g>
     </g>
    </g>
    <g id="xtick_3">
     <g id="line2d_3">
      <g>
       <use xlink:href="#m18c35ec8ff" x="203.723329" y="246.04" style="stroke: #000000; stroke-width: 0.8"/>
      </g>
     </g>
     <g id="text_3">
      <!-- 1500 -->
      <g transform="translate(190.998329 260.638438) scale(0.1 -0.1)">
       <use xlink:href="#DejaVuSans-31"/>
       <use xlink:href="#DejaVuSans-35" x="63.623047"/>
       <use xlink:href="#DejaVuSans-30" x="127.246094"/>
       <use xlink:href="#DejaVuSans-30" x="190.869141"/>
      </g>
     </g>
    </g>
    <g id="xtick_4">
     <g id="line2d_4">
      <g>
       <use xlink:href="#m18c35ec8ff" x="251.349801" y="246.04" style="stroke: #000000; stroke-width: 0.8"/>
      </g>
     </g>
     <g id="text_4">
      <!-- 2000 -->
      <g transform="translate(238.624801 260.638438) scale(0.1 -0.1)">
       <defs>
        <path id="DejaVuSans-32" d="M 1228 531 
L 3431 531 
L 3431 0 
L 469 0 
L 469 531 
Q 828 903 1448 1529 
Q 2069 2156 2228 2338 
Q 2531 2678 2651 2914 
Q 2772 3150 2772 3378 
Q 2772 3750 2511 3984 
Q 2250 4219 1831 4219 
Q 1534 4219 1204 4116 
Q 875 4013 500 3803 
L 500 4441 
Q 881 4594 1212 4672 
Q 1544 4750 1819 4750 
Q 2544 4750 2975 4387 
Q 3406 4025 3406 3419 
Q 3406 3131 3298 2873 
Q 3191 2616 2906 2266 
Q 2828 2175 2409 1742 
Q 1991 1309 1228 531 
z
" transform="scale(0.015625)"/>
       </defs>
       <use xlink:href="#DejaVuSans-32"/>
       <use xlink:href="#DejaVuSans-30" x="63.623047"/>
       <use xlink:href="#DejaVuSans-30" x="127.246094"/>
       <use xlink:href="#DejaVuSans-30" x="190.869141"/>
      </g>
     </g>
    </g>
    <g id="xtick_5">
     <g id="line2d_5">
      <g>
       <use xlink:href="#m18c35ec8ff" x="298.976273" y="246.04" style="stroke: #000000; stroke-width: 0.8"/>
      </g>
     </g>
     <g id="text_5">
      <!-- 2500 -->
      <g transform="translate(286.251273 260.638438) scale(0.1 -0.1)">
       <use xlink:href="#DejaVuSans-32"/>
       <use xlink:href="#DejaVuSans-35" x="63.623047"/>
       <use xlink:href="#DejaVuSans-30" x="127.246094"/>
       <use xlink:href="#DejaVuSans-30" x="190.869141"/>
      </g>
     </g>
    </g>
    <g id="xtick_6">
     <g id="line2d_6">
      <g>
       <use xlink:href="#m18c35ec8ff" x="346.602745" y="246.04" style="stroke: #000000; stroke-width: 0.8"/>
      </g>
     </g>
     <g id="text_6">
      <!-- 3000 -->
      <g transform="translate(333.877745 260.638438) scale(0.1 -0.1)">
       <defs>
        <path id="DejaVuSans-33" d="M 2597 2516 
Q 3050 2419 3304 2112 
Q 3559 1806 3559 1356 
Q 3559 666 3084 287 
Q 2609 -91 1734 -91 
Q 1441 -91 1130 -33 
Q 819 25 488 141 
L 488 750 
Q 750 597 1062 519 
Q 1375 441 1716 441 
Q 2309 441 2620 675 
Q 2931 909 2931 1356 
Q 2931 1769 2642 2001 
Q 2353 2234 1838 2234 
L 1294 2234 
L 1294 2753 
L 1863 2753 
Q 2328 2753 2575 2939 
Q 2822 3125 2822 3475 
Q 2822 3834 2567 4026 
Q 2313 4219 1838 4219 
Q 1578 4219 1281 4162 
Q 984 4106 628 3988 
L 628 4550 
Q 988 4650 1302 4700 
Q 1616 4750 1894 4750 
Q 2613 4750 3031 4423 
Q 3450 4097 3450 3541 
Q 3450 3153 3228 2886 
Q 3006 2619 2597 2516 
z
" transform="scale(0.015625)"/>
       </defs>
       <use xlink:href="#DejaVuSans-33"/>
       <use xlink:href="#DejaVuSans-30" x="63.623047"/>
       <use xlink:href="#DejaVuSans-30" x="127.246094"/>
       <use xlink:href="#DejaVuSans-30" x="190.869141"/>
      </g>
     </g>
    </g>
    <g id="xtick_7">
     <g id="line2d_7">
      <g>
       <use xlink:href="#m18c35ec8ff" x="394.229217" y="246.04" style="stroke: #000000; stroke-width: 0.8"/>
      </g>
     </g>
     <g id="text_7">
      <!-- 3500 -->
      <g transform="translate(381.504217 260.638438) scale(0.1 -0.1)">
       <use xlink:href="#DejaVuSans-33"/>
       <use xlink:href="#DejaVuSans-35" x="63.623047"/>
       <use xlink:href="#DejaVuSans-30" x="127.246094"/>
       <use xlink:href="#DejaVuSans-30" x="190.869141"/>
      </g>
     </g>
    </g>
    <g id="text_8">
     <!-- Position (nm) -->
     <g transform="translate(200.734256 274.316562) scale(0.1 -0.1)">
      <defs>
       <path id="DejaVuSans-50" d="M 1259 4147 
L 1259 2394 
L 2053 2394 
Q 2494 2394 2734 2622 
Q 2975 2850 2975 3272 
Q 2975 3691 2734 3919 
Q 2494 4147 2053 4147 
L 1259 4147 
z
M 628 4666 
L 2053 4666 
Q 2838 4666 3239 4311 
Q 3641 3956 3641 3272 
Q 3641 2581 3239 2228 
Q 2838 1875 2053 1875 
L 1259 1875 
L 1259 0 
L 628 0 
L 628 4666 
z
" transform="scale(0.015625)"/>
       <path id="DejaVuSans-6f" d="M 1959 3097 
Q 1497 3097 1228 2736 
Q 959 2375 959 1747 
Q 959 1119 1226 758 
Q 1494 397 1959 397 
Q 2419 397 2687 759 
Q 2956 1122 2956 1747 
Q 2956 2369 2687 2733 
Q 2419 3097 1959 3097 
z
M 1959 3584 
Q 2709 3584 3137 3096 
Q 3566 2609 3566 1747 
Q 3566 888 3137 398 
Q 2709 -91 1959 -91 
Q 1206 -91 779 398 
Q 353 888 353 1747 
Q 353 2609 779 3096 
Q 1206 3584 1959 3584 
z
" transform="scale(0.015625)"/>
       <path id="DejaVuSans-73" d="M 2834 3397 
L 2834 2853 
Q 2591 2978 2328 3040 
Q 2066 3103 1784 3103 
Q 1356 3103 1142 2972 
Q 928 2841 928 2578 
Q 928 2378 1081 2264 
Q 1234 2150 1697 2047 
L 1894 2003 
Q 2506 1872 2764 1633 
Q 3022 1394 3022 966 
Q 3022 478 2636 193 
Q 2250 -91 1575 -91 
Q 1294 -91 989 -36 
Q 684 19 347 128 
L 347 722 
Q 666 556 975 473 
Q 1284 391 1588 391 
Q 1994 391 2212 530 
Q 2431 669 2431 922 
Q 2431 1156 2273 1281 
Q 2116 1406 1581 1522 
L 1381 1569 
Q 847 1681 609 1914 
Q 372 2147 372 2553 
Q 372 3047 722 3315 
Q 1072 3584 1716 3584 
Q 2034 3584 2315 3537 
Q 2597 3491 2834 3397 
z
" transform="scale(0.015625)"/>
       <path id="DejaVuSans-69" d="M 603 3500 
L 1178 3500 
L 1178 0 
L 603 0 
L 603 3500 
z
M 603 4863 
L 1178 4863 
L 1178 4134 
L 603 4134 
L 603 4863 
z
" transform="scale(0.015625)"/>
       <path id="DejaVuSans-74" d="M 1172 4494 
L 1172 3500 
L 2356 3500 
L 2356 3053 
L 1172 3053 
L 1172 1153 
Q 1172 725 1289 603 
Q 1406 481 1766 481 
L 2356 481 
L 2356 0 
L 1766 0 
Q 1100 0 847 248 
Q 594 497 594 1153 
L 594 3053 
L 172 3053 
L 172 3500 
L 594 3500 
L 594 4494 
L 1172 4494 
z
" transform="scale(0.015625)"/>
       <path id="DejaVuSans-6e" d="M 3513 2113 
L 3513 0 
L 2938 0 
L 2938 2094 
Q 2938 2591 2744 2837 
Q 2550 3084 2163 3084 
Q 1697 3084 1428 2787 
Q 1159 2491 1159 1978 
L 1159 0 
L 581 0 
L 581 3500 
L 1159 3500 
L 1159 2956 
Q 1366 3272 1645 3428 
Q 1925 3584 2291 3584 
Q 2894 3584 3203 3211 
Q 3513 2838 3513 2113 
z
" transform="scale(0.015625)"/>
       <path id="DejaVuSans-20" transform="scale(0.015625)"/>
       <path id="DejaVuSans-28" d="M 1984 4856 
Q 1566 4138 1362 3434 
Q 1159 2731 1159 2009 
Q 1159 1288 1364 580 
Q 1569 -128 1984 -844 
L 1484 -844 
Q 1016 -109 783 600 
Q 550 1309 550 2009 
Q 550 2706 781 3412 
Q 1013 4119 1484 4856 
L 1984 4856 
z
" transform="scale(0.015625)"/>
       <path id="DejaVuSans-6d" d="M 3328 2828 
Q 3544 3216 3844 3400 
Q 4144 3584 4550 3584 
Q 5097 3584 5394 3201 
Q 5691 2819 5691 2113 
L 5691 0 
L 5113 0 
L 5113 2094 
Q 5113 2597 4934 2840 
Q 4756 3084 4391 3084 
Q 3944 3084 3684 2787 
Q 3425 2491 3425 1978 
L 3425 0 
L 2847 0 
L 2847 2094 
Q 2847 2600 2669 2842 
Q 2491 3084 2119 3084 
Q 1678 3084 1418 2786 
Q 1159 2488 1159 1978 
L 1159 0 
L 581 0 
L 581 3500 
L 1159 3500 
L 1159 2956 
Q 1356 3278 1631 3431 
Q 1906 3584 2284 3584 
Q 2666 3584 2933 3390 
Q 3200 3197 3328 2828 
z
" transform="scale(0.015625)"/>
       <path id="DejaVuSans-29" d="M 513 4856 
L 1013 4856 
Q 1481 4119 1714 3412 
Q 1947 2706 1947 2009 
Q 1947 1309 1714 600 
Q 1481 -109 1013 -844 
L 513 -844 
Q 928 -128 1133 580 
Q 1338 1288 1338 2009 
Q 1338 2731 1133 3434 
Q 928 4138 513 4856 
z
" transform="scale(0.015625)"/>
      </defs>
      <use xlink:href="#DejaVuSans-50"/>
      <use xlink:href="#DejaVuSans-6f" x="56.677734"/>
      <use xlink:href="#DejaVuSans-73" x="117.859375"/>
      <use xlink:href="#DejaVuSans-69" x="169.958984"/>
      <use xlink:href="#DejaVuSans-74" x="197.742188"/>
      <use xlink:href="#DejaVuSans-69" x="236.951172"/>
      <use xlink:href="#DejaVuSans-6f" x="264.734375"/>
      <use xlink:href="#DejaVuSans-6e" x="325.916016"/>
      <use xlink:href="#DejaVuSans-20" x="389.294922"/>
      <use xlink:href="#DejaVuSans-28" x="421.082031"/>
      <use xlink:href="#DejaVuSans-6e" x="460.095703"/>
      <use xlink:href="#DejaVuSans-6d" x="523.474609"/>
      <use xlink:href="#DejaVuSans-29" x="620.886719"/>
     </g>
    </g>
   </g>
   <g id="matplotlib.axis_2">
    <g id="ytick_1">
     <g id="line2d_8">
      <defs>
       <path id="m61dc259579" d="M 0 0 
L -3.5 0 
" style="stroke: #000000; stroke-width: 0.8"/>
      </defs>
      <g>
       <use xlink:href="#m61dc259579" x="61.367804" y="215.178111" style="stroke: #000000; stroke-width: 0.8"/>
      </g>
     </g>
     <g id="text_9">
      <!-- $\mathdefault{10^{-5}}$ -->
      <g transform="translate(30.867804 218.97733) scale(0.1 -0.1)">
       <defs>
        <path id="DejaVuSans-2212" d="M 678 2272 
L 4684 2272 
L 4684 1741 
L 678 1741 
L 678 2272 
z
" transform="scale(0.015625)"/>
       </defs>
       <use xlink:href="#DejaVuSans-31" transform="translate(0 0.684375)"/>
       <use xlink:href="#DejaVuSans-30" transform="translate(63.623047 0.684375)"/>
       <use xlink:href="#DejaVuSans-2212" transform="translate(128.203125 38.965625) scale(0.7)"/>
       <use xlink:href="#DejaVuSans-35" transform="translate(186.855469 38.965625) scale(0.7)"/>
      </g>
     </g>
    </g>
    <g id="ytick_2">
     <g id="line2d_9">
      <g>
       <use xlink:href="#m61dc259579" x="61.367804" y="183.360588" style="stroke: #000000; stroke-width: 0.8"/>
      </g>
     </g>
     <g id="text_10">
      <!-- $\mathdefault{10^{0}}$ -->
      <g transform="translate(36.767804 187.159807) scale(0.1 -0.1)">
       <use xlink:href="#DejaVuSans-31" transform="translate(0 0.765625)"/>
       <use xlink:href="#DejaVuSans-30" transform="translate(63.623047 0.765625)"/>
       <use xlink:href="#DejaVuSans-30" transform="translate(128.203125 39.046875) scale(0.7)"/>
      </g>
     </g>
    </g>
    <g id="ytick_3">
     <g id="line2d_10">
      <g>
       <use xlink:href="#m61dc259579" x="61.367804" y="151.543066" style="stroke: #000000; stroke-width: 0.8"/>
      </g>
     </g>
     <g id="text_11">
      <!-- $\mathdefault{10^{5}}$ -->
      <g transform="translate(36.767804 155.342284) scale(0.1 -0.1)">
       <use xlink:href="#DejaVuSans-31" transform="translate(0 0.684375)"/>
       <use xlink:href="#DejaVuSans-30" transform="translate(63.623047 0.684375)"/>
       <use xlink:href="#DejaVuSans-35" transform="translate(128.203125 38.965625) scale(0.7)"/>
      </g>
     </g>
    </g>
    <g id="ytick_4">
     <g id="line2d_11">
      <g>
       <use xlink:href="#m61dc259579" x="61.367804" y="119.725543" style="stroke: #000000; stroke-width: 0.8"/>
      </g>
     </g>
     <g id="text_12">
      <!-- $\mathdefault{10^{10}}$ -->
      <g transform="translate(32.267804 123.524761) scale(0.1 -0.1)">
       <use xlink:href="#DejaVuSans-31" transform="translate(0 0.765625)"/>
       <use xlink:href="#DejaVuSans-30" transform="translate(63.623047 0.765625)"/>
       <use xlink:href="#DejaVuSans-31" transform="translate(128.203125 39.046875) scale(0.7)"/>
       <use xlink:href="#DejaVuSans-30" transform="translate(172.739258 39.046875) scale(0.7)"/>
      </g>
     </g>
    </g>
    <g id="ytick_5">
     <g id="line2d_12">
      <g>
       <use xlink:href="#m61dc259579" x="61.367804" y="87.90802" style="stroke: #000000; stroke-width: 0.8"/>
      </g>
     </g>
     <g id="text_13">
      <!-- $\mathdefault{10^{15}}$ -->
      <g transform="translate(32.267804 91.707239) scale(0.1 -0.1)">
       <use xlink:href="#DejaVuSans-31" transform="translate(0 0.684375)"/>
       <use xlink:href="#DejaVuSans-30" transform="translate(63.623047 0.684375)"/>
       <use xlink:href="#DejaVuSans-31" transform="translate(128.203125 38.965625) scale(0.7)"/>
       <use xlink:href="#DejaVuSans-35" transform="translate(172.739258 38.965625) scale(0.7)"/>
      </g>
     </g>
    </g>
    <g id="ytick_6">
     <g id="line2d_13">
      <g>
       <use xlink:href="#m61dc259579" x="61.367804" y="56.090497" style="stroke: #000000; stroke-width: 0.8"/>
      </g>
     </g>
     <g id="text_14">
      <!-- $\mathdefault{10^{20}}$ -->
      <g transform="translate(32.267804 59.889716) scale(0.1 -0.1)">
       <use xlink:href="#DejaVuSans-31" transform="translate(0 0.765625)"/>
       <use xlink:href="#DejaVuSans-30" transform="translate(63.623047 0.765625)"/>
       <use xlink:href="#DejaVuSans-32" transform="translate(128.203125 39.046875) scale(0.7)"/>
       <use xlink:href="#DejaVuSans-30" transform="translate(172.739258 39.046875) scale(0.7)"/>
      </g>
     </g>
    </g>
    <g id="ytick_7">
     <g id="line2d_14">
      <g>
       <use xlink:href="#m61dc259579" x="61.367804" y="24.272974" style="stroke: #000000; stroke-width: 0.8"/>
      </g>
     </g>
     <g id="text_15">
      <!-- $\mathdefault{10^{25}}$ -->
      <g transform="translate(32.267804 28.072193) scale(0.1 -0.1)">
       <use xlink:href="#DejaVuSans-31" transform="translate(0 0.765625)"/>
       <use xlink:href="#DejaVuSans-30" transform="translate(63.623047 0.765625)"/>
       <use xlink:href="#DejaVuSans-32" transform="translate(128.203125 39.046875) scale(0.7)"/>
       <use xlink:href="#DejaVuSans-35" transform="translate(172.739258 39.046875) scale(0.7)"/>
      </g>
     </g>
    </g>
    <g id="text_16">
     <!-- Carrier density (m$^{-3}$) -->
     <g transform="translate(24.767804 181.27) rotate(-90) scale(0.1 -0.1)">
      <defs>
       <path id="DejaVuSans-43" d="M 4122 4306 
L 4122 3641 
Q 3803 3938 3442 4084 
Q 3081 4231 2675 4231 
Q 1875 4231 1450 3742 
Q 1025 3253 1025 2328 
Q 1025 1406 1450 917 
Q 1875 428 2675 428 
Q 3081 428 3442 575 
Q 3803 722 4122 1019 
L 4122 359 
Q 3791 134 3420 21 
Q 3050 -91 2638 -91 
Q 1578 -91 968 557 
Q 359 1206 359 2328 
Q 359 3453 968 4101 
Q 1578 4750 2638 4750 
Q 3056 4750 3426 4639 
Q 3797 4528 4122 4306 
z
" transform="scale(0.015625)"/>
       <path id="DejaVuSans-61" d="M 2194 1759 
Q 1497 1759 1228 1600 
Q 959 1441 959 1056 
Q 959 750 1161 570 
Q 1363 391 1709 391 
Q 2188 391 2477 730 
Q 2766 1069 2766 1631 
L 2766 1759 
L 2194 1759 
z
M 3341 1997 
L 3341 0 
L 2766 0 
L 2766 531 
Q 2569 213 2275 61 
Q 1981 -91 1556 -91 
Q 1019 -91 701 211 
Q 384 513 384 1019 
Q 384 1609 779 1909 
Q 1175 2209 1959 2209 
L 2766 2209 
L 2766 2266 
Q 2766 2663 2505 2880 
Q 2244 3097 1772 3097 
Q 1472 3097 1187 3025 
Q 903 2953 641 2809 
L 641 3341 
Q 956 3463 1253 3523 
Q 1550 3584 1831 3584 
Q 2591 3584 2966 3190 
Q 3341 2797 3341 1997 
z
" transform="scale(0.015625)"/>
       <path id="DejaVuSans-72" d="M 2631 2963 
Q 2534 3019 2420 3045 
Q 2306 3072 2169 3072 
Q 1681 3072 1420 2755 
Q 1159 2438 1159 1844 
L 1159 0 
L 581 0 
L 581 3500 
L 1159 3500 
L 1159 2956 
Q 1341 3275 1631 3429 
Q 1922 3584 2338 3584 
Q 2397 3584 2469 3576 
Q 2541 3569 2628 3553 
L 2631 2963 
z
" transform="scale(0.015625)"/>
       <path id="DejaVuSans-65" d="M 3597 1894 
L 3597 1613 
L 953 1613 
Q 991 1019 1311 708 
Q 1631 397 2203 397 
Q 2534 397 2845 478 
Q 3156 559 3463 722 
L 3463 178 
Q 3153 47 2828 -22 
Q 2503 -91 2169 -91 
Q 1331 -91 842 396 
Q 353 884 353 1716 
Q 353 2575 817 3079 
Q 1281 3584 2069 3584 
Q 2775 3584 3186 3129 
Q 3597 2675 3597 1894 
z
M 3022 2063 
Q 3016 2534 2758 2815 
Q 2500 3097 2075 3097 
Q 1594 3097 1305 2825 
Q 1016 2553 972 2059 
L 3022 2063 
z
" transform="scale(0.015625)"/>
       <path id="DejaVuSans-64" d="M 2906 2969 
L 2906 4863 
L 3481 4863 
L 3481 0 
L 2906 0 
L 2906 525 
Q 2725 213 2448 61 
Q 2172 -91 1784 -91 
Q 1150 -91 751 415 
Q 353 922 353 1747 
Q 353 2572 751 3078 
Q 1150 3584 1784 3584 
Q 2172 3584 2448 3432 
Q 2725 3281 2906 2969 
z
M 947 1747 
Q 947 1113 1208 752 
Q 1469 391 1925 391 
Q 2381 391 2643 752 
Q 2906 1113 2906 1747 
Q 2906 2381 2643 2742 
Q 2381 3103 1925 3103 
Q 1469 3103 1208 2742 
Q 947 2381 947 1747 
z
" transform="scale(0.015625)"/>
       <path id="DejaVuSans-79" d="M 2059 -325 
Q 1816 -950 1584 -1140 
Q 1353 -1331 966 -1331 
L 506 -1331 
L 506 -850 
L 844 -850 
Q 1081 -850 1212 -737 
Q 1344 -625 1503 -206 
L 1606 56 
L 191 3500 
L 800 3500 
L 1894 763 
L 2988 3500 
L 3597 3500 
L 2059 -325 
z
" transform="scale(0.015625)"/>
      </defs>
      <use xlink:href="#DejaVuSans-43" transform="translate(0 0.765625)"/>
      <use xlink:href="#DejaVuSans-61" transform="translate(69.824219 0.765625)"/>
      <use xlink:href="#DejaVuSans-72" transform="translate(131.103516 0.765625)"/>
      <use xlink:href="#DejaVuSans-72" transform="translate(172.216797 0.765625)"/>
      <use xlink:href="#DejaVuSans-69" transform="translate(213.330078 0.765625)"/>
      <use xlink:href="#DejaVuSans-65" transform="translate(241.113281 0.765625)"/>
      <use xlink:href="#DejaVuSans-72" transform="translate(302.636719 0.765625)"/>
      <use xlink:href="#DejaVuSans-20" transform="translate(343.75 0.765625)"/>
      <use xlink:href="#DejaVuSans-64" transform="translate(375.537109 0.765625)"/>
      <use xlink:href="#DejaVuSans-65" transform="translate(439.013672 0.765625)"/>
      <use xlink:href="#DejaVuSans-6e" transform="translate(500.537109 0.765625)"/>
      <use xlink:href="#DejaVuSans-73" transform="translate(563.916016 0.765625)"/>
      <use xlink:href="#DejaVuSans-69" transform="translate(616.015625 0.765625)"/>
      <use xlink:href="#DejaVuSans-74" transform="translate(643.798828 0.765625)"/>
      <use xlink:href="#DejaVuSans-79" transform="translate(683.007812 0.765625)"/>
      <use xlink:href="#DejaVuSans-20" transform="translate(742.1875 0.765625)"/>
      <use xlink:href="#DejaVuSans-28" transform="translate(773.974609 0.765625)"/>
      <use xlink:href="#DejaVuSans-6d" transform="translate(812.988281 0.765625)"/>
      <use xlink:href="#DejaVuSans-2212" transform="translate(911.357422 39.046875) scale(0.7)"/>
      <use xlink:href="#DejaVuSans-33" transform="translate(970.009766 39.046875) scale(0.7)"/>
      <use xlink:href="#DejaVuSans-29" transform="translate(1017.280273 0.765625)"/>
     </g>
    </g>
   </g>
   <g id="line2d_15">
    <path d="M 77.036913 26.384228 
L 77.203097 26.478829 
L 77.372623 26.924626 
L 77.555312 28.327909 
L 77.770868 32.734936 
L 77.979917 41.455451 
L 77.989443 23.838648 
L 78.286362 28.06516 
L 78.624898 29.653476 
L 79.022636 30.29629 
L 79.48838 30.53405 
L 80.625873 30.630303 
L 91.066893 30.764356 
L 91.380768 30.927861 
L 91.810841 31.528347 
L 92.13706 32.642607 
L 92.267859 33.363923 
L 92.372955 37.467885 
L 93.220388 42.414475 
L 93.229914 37.783043 
L 93.338502 38.372595 
L 93.410894 38.757627 
L 93.42042 33.052741 
L 93.521732 33.531438 
L 93.955687 34.908335 
L 94.077665 35.143431 
L 94.195779 41.098218 
L 94.268171 41.218024 
L 94.370508 46.072222 
L 96.17323 48.971682 
L 96.182755 44.302194 
L 96.291343 44.469501 
L 96.363736 44.580181 
L 96.373261 38.840021 
L 96.474573 38.985516 
L 97.030506 39.639379 
L 97.14862 45.511548 
L 97.221012 45.583136 
L 97.323349 50.369747 
L 99.126071 52.149556 
L 99.135596 47.474443 
L 99.244185 47.578825 
L 99.316577 47.648143 
L 99.326102 41.902644 
L 99.427415 41.995796 
L 99.983347 42.469648 
L 100.101461 48.320963 
L 100.173853 48.380155 
L 100.276191 53.14907 
L 102.078912 54.629657 
L 102.088438 49.953041 
L 102.197026 50.040716 
L 102.269418 50.099061 
L 102.278943 44.352149 
L 102.380256 44.431565 
L 102.936189 44.86269 
L 103.054302 50.710435 
L 103.126695 50.767564 
L 103.229032 55.53325 
L 105.031754 56.958981 
L 105.041279 52.282117 
L 105.149867 52.367323 
L 105.222259 52.424085 
L 105.231785 46.676979 
L 105.333097 46.754799 
L 105.88903 47.189912 
L 106.007144 53.040667 
L 106.079536 53.099688 
L 106.181873 57.867348 
L 107.984595 59.323378 
L 107.99412 54.646722 
L 108.102708 54.734923 
L 108.175101 54.793705 
L 108.184626 49.046878 
L 108.285938 49.12788 
L 108.841871 49.585547 
L 108.959985 55.441787 
L 109.032377 55.504178 
L 109.134714 60.27489 
L 110.937436 61.769915 
L 110.946961 57.093563 
L 111.05555 57.186631 
L 111.127942 57.248656 
L 111.137467 51.502288 
L 111.23878 51.588349 
L 111.794713 52.075536 
L 111.912826 57.937696 
L 111.985218 58.003683 
L 112.087556 62.775233 
L 113.890277 64.249054 
L 113.899803 59.572824 
L 114.008391 59.670628 
L 114.080783 59.735782 
L 114.090309 53.989907 
L 114.191621 54.081587 
L 114.747554 54.59985 
L 114.865667 60.466852 
L 114.93806 60.535704 
L 115.040397 65.301033 
L 116.843119 66.595145 
L 116.852644 61.918552 
L 116.961232 62.0194 
L 117.033625 62.086512 
L 117.04315 56.341076 
L 117.144462 56.438274 
L 117.700395 56.986305 
L 117.818509 62.855432 
L 117.890901 62.92535 
L 117.993238 67.669951 
L 119.658016 68.470976 
L 119.79596 68.526249 
L 119.805485 63.848665 
L 119.914074 63.950162 
L 119.986466 64.01759 
L 119.995991 58.2725 
L 120.097304 58.37484 
L 120.653236 58.95014 
L 120.77135 64.817865 
L 120.843742 64.886531 
L 120.946079 69.592523 
L 122.748801 69.824505 
L 122.758326 65.145766 
L 122.866915 65.247201 
L 122.939307 65.31446 
L 122.948832 59.569682 
L 123.050145 59.676945 
L 123.606078 60.278154 
L 123.724191 66.143327 
L 123.796584 66.21 
L 123.806109 70.899636 
L 123.898921 70.872921 
L 125.231137 70.618111 
L 125.701642 70.568208 
L 125.711168 65.888778 
L 125.819756 65.991754 
L 125.892148 66.059942 
L 125.901674 60.315526 
L 126.002986 60.427778 
L 126.558919 61.055376 
L 126.677033 66.920107 
L 126.749425 66.986185 
L 126.75895 71.674806 
L 126.851762 71.618466 
L 127.740572 71.22678 
L 128.654484 71.001411 
L 128.664009 66.321785 
L 128.772597 66.428022 
L 128.84499 66.49831 
L 128.854515 60.75431 
L 128.955827 60.871635 
L 129.51176 61.526246 
L 129.629874 67.39288 
L 129.702266 67.459903 
L 129.711791 72.148048 
L 129.804603 72.074565 
L 130.57687 71.626425 
L 131.607325 71.301553 
L 131.61685 66.621985 
L 131.725439 66.732319 
L 131.797831 66.805277 
L 131.807356 61.061716 
L 131.908669 61.184089 
L 132.464601 61.865691 
L 132.582715 67.735394 
L 132.655107 67.804131 
L 132.664633 72.492079 
L 132.757445 72.40789 
L 133.469693 71.933484 
L 134.422223 71.583235 
L 134.560166 71.548758 
L 134.569692 66.869346 
L 134.67828 66.984028 
L 134.750672 67.059829 
L 134.760197 61.316707 
L 134.86151 61.44404 
L 135.417443 62.152192 
L 135.535556 68.025338 
L 135.607949 68.096037 
L 135.617474 72.783891 
L 135.710286 72.691475 
L 136.388439 72.196959 
L 137.264268 71.839819 
L 137.513008 71.772426 
L 137.522533 67.0932 
L 137.631121 67.212244 
L 137.703513 67.2909 
L 137.713039 61.548211 
L 137.814351 61.68039 
L 138.370284 62.414506 
L 138.488398 68.291137 
L 138.56079 68.36383 
L 138.570315 73.051618 
L 138.663127 72.951802 
L 139.30427 72.446558 
L 140.131581 72.078797 
L 140.465849 71.982485 
L 140.475374 67.303454 
L 140.583962 67.426798 
L 140.656355 67.508266 
L 140.66588 61.766 
L 140.767192 61.90291 
L 141.323125 62.662377 
L 141.441239 68.542425 
L 141.513631 68.617071 
L 141.523156 73.304796 
L 141.615968 73.197831 
L 142.257111 72.663064 
L 143.084422 72.281243 
L 143.41869 72.182502 
L 143.428215 67.503666 
L 143.536804 67.631228 
L 143.609196 67.715453 
L 143.618721 61.973602 
L 143.720034 62.115131 
L 144.275967 62.899355 
L 144.39408 68.782725 
L 144.466472 68.859265 
L 144.475998 73.546925 
L 144.56881 73.432902 
L 145.170263 72.89605 
L 145.946926 72.506923 
L 146.371531 72.374277 
L 146.381057 67.695637 
L 146.489645 67.827333 
L 146.562037 67.91426 
L 146.571563 62.172813 
L 146.672875 62.318857 
L 147.228808 63.127273 
L 147.346921 69.013865 
L 147.419314 69.092238 
L 147.428839 73.779827 
L 147.521651 73.658787 
L 148.123104 73.09535 
L 148.899767 72.694011 
L 149.324373 72.558865 
L 149.333898 67.880419 
L 149.442486 68.016165 
L 149.514878 68.105738 
L 149.524404 62.364687 
L 149.625716 62.515146 
L 150.181649 63.347217 
L 150.299763 69.236928 
L 150.372155 69.317071 
L 150.38168 74.004583 
L 150.474492 73.876524 
L 151.034029 73.318081 
L 151.760773 72.910428 
L 152.277214 72.736821 
L 152.286739 68.058567 
L 152.395328 68.198283 
L 152.46772 68.290447 
L 152.477245 62.549784 
L 152.578558 62.704562 
L 153.13449 63.559779 
L 153.252604 69.452512 
L 153.324996 69.534364 
L 153.334522 74.221791 
L 153.427333 74.086709 
L 153.98687 73.503813 
L 154.713614 73.085017 
L 155.230055 72.908804 
L 155.23958 68.23074 
L 155.348169 68.374352 
L 155.420561 68.469058 
L 155.430086 62.728774 
L 155.531399 62.887782 
L 156.087332 63.765665 
L 156.205445 69.661331 
L 156.277838 69.744837 
L 156.287363 74.432175 
L 156.380175 74.290093 
L 156.939711 73.683323 
L 157.62077 73.273849 
L 158.182896 73.075613 
L 158.192422 68.397738 
L 158.30101 68.545173 
L 158.373402 68.642373 
L 158.382928 62.902461 
L 158.48424 63.065615 
L 159.040173 63.965706 
L 159.158287 69.864218 
L 159.230679 69.949325 
L 159.240204 74.636567 
L 159.333016 74.487489 
L 159.84894 73.894269 
L 160.528444 73.458846 
L 161.135738 73.237599 
L 161.145263 68.55991 
L 161.253851 68.711097 
L 161.326244 68.810742 
L 161.335769 63.071195 
L 161.437081 63.238413 
L 161.993014 64.160274 
L 162.111128 70.061543 
L 162.18352 70.148193 
L 162.193045 74.835333 
L 162.285857 74.679227 
L 162.801782 74.063949 
L 163.481285 73.618642 
L 164.088579 73.394949 
L 164.098104 68.717445 
L 164.206693 68.872317 
L 164.279085 68.974363 
L 164.28861 63.235174 
L 164.389923 63.406379 
L 164.945855 64.349604 
L 165.063969 70.253552 
L 165.136361 70.341698 
L 165.145887 75.028729 
L 165.238699 74.865598 
L 165.754623 74.228694 
L 166.389753 73.795804 
L 167.04142 73.548349 
L 167.050946 68.871029 
L 167.159534 69.029529 
L 167.231926 69.133937 
L 167.241451 63.3951 
L 167.342764 63.570224 
L 167.898697 64.534491 
L 168.01681 70.441068 
L 168.089203 70.530679 
L 168.098728 75.2176 
L 168.19154 75.047465 
L 168.707464 74.389391 
L 169.342594 73.948003 
L 169.994261 73.698412 
L 170.003787 69.021274 
L 170.112375 69.183359 
L 170.184767 69.290102 
L 170.194293 63.551612 
L 170.295605 63.730617 
L 170.851538 64.716101 
L 170.969652 70.625408 
L 171.042044 70.716542 
L 171.051569 75.403355 
L 171.144381 75.226199 
L 171.660306 74.547324 
L 172.295436 74.097958 
L 172.947103 73.846609 
L 172.956628 69.169661 
L 173.065216 69.335439 
L 173.137609 69.444587 
L 173.147134 63.706455 
L 173.248446 63.889532 
L 173.804379 64.900292 
L 173.922493 70.8137 
L 173.994885 70.907169 
L 174.00441 75.59395 
L 174.097222 75.409852 
L 174.568348 74.756805 
L 175.163163 74.302475 
L 175.899944 74.006184 
L 175.909469 69.329506 
L 176.018058 69.500277 
L 176.09045 69.612691 
L 176.099975 63.875041 
L 176.201288 64.064234 
L 176.757221 65.137213 
L 176.875334 71.06691 
L 176.947726 71.169946 
L 176.957252 75.857353 
L 177.050064 75.666722 
L 177.52119 75.004195 
L 178.116004 74.559251 
L 178.852785 74.281553 
L 178.862311 69.605825 
L 178.970899 69.793087 
L 179.043291 69.916396 
L 179.052816 64.18034 
L 179.154129 64.394932 
L 179.687138 65.839704 
L 179.710062 65.916558 
L 179.828175 71.995233 
L 179.900568 72.185795 
L 179.910093 76.880428 
L 180.002905 76.674168 
L 180.382298 76.136408 
L 180.853097 75.820959 
L 180.862622 72.394967 
L 181.441764 73.493644 
L 182.320087 73.983366 
L 183.716009 73.376663 
L 185.83813 71.884976 
L 188.85461 70.294856 
L 192.873207 68.988951 
L 197.937382 67.965361 
L 204.033801 67.153899 
L 211.104307 66.502239 
L 219.058091 65.97523 
L 227.782578 65.547863 
L 247.035994 64.921521 
L 267.801448 64.516805 
L 299.372899 64.179493 
L 344.203047 64.004784 
L 365.753984 64.095059 
L 367.49447 64.355097 
L 368.727497 64.934035 
L 369.585535 65.901838 
L 370.174436 67.226327 
L 370.57488 68.81326 
L 371.032489 72.408467 
L 371.266601 76.675359 
L 371.358986 80.123105 
L 371.471926 105.97667 
L 371.744932 118.204471 
L 371.929458 119.981079 
L 372.549823 116.702722 
L 373.002687 115.188431 
L 373.548463 114.080851 
L 374.178254 113.247338 
L 374.880551 112.603495 
L 375.643228 112.10026 
L 377.304626 111.403167 
L 379.084411 111.011446 
L 380.923113 110.855912 
L 382.777944 110.908223 
L 384.620291 111.173568 
L 386.376588 111.680093 
L 387.879023 112.420998 
L 388.980122 113.293813 
L 389.673082 114.123366 
L 390.323222 115.32053 
L 390.4191 115.559583 
L 390.4191 115.559583 
" clip-path="url(#p0e94c4e46b)" style="fill: none; stroke: #0000ff; stroke-width: 1.5; stroke-linecap: square"/>
   </g>
   <g id="line2d_16">
    <path d="M 77.036913 79.323914 
L 77.203097 75.402371 
L 77.372623 74.854067 
L 77.463476 74.932256 
L 77.689262 75.59768 
L 77.873222 76.523059 
L 77.954594 78.80202 
L 77.979917 87.831184 
L 77.989443 63.815099 
L 78.286362 59.640082 
L 78.624898 58.079974 
L 79.022636 57.466864 
L 79.48838 57.267208 
L 80.625873 57.291064 
L 82.758055 57.62722 
L 85.174669 58.233579 
L 86.795872 58.827403 
L 88.318376 59.612555 
L 89.642935 60.62045 
L 90.674609 61.807282 
L 91.810841 63.370422 
L 92.055578 63.293458 
L 92.267859 62.746056 
L 92.277384 65.161606 
L 92.372955 65.102792 
L 93.220388 64.671305 
L 93.338502 60.040877 
L 93.410894 59.71524 
L 93.521732 48.2811 
L 93.955687 46.909625 
L 94.077665 46.675699 
L 94.08719 57.569981 
L 94.195779 57.424385 
L 94.268171 57.329197 
L 94.277696 61.436071 
L 94.370508 61.429579 
L 96.001191 61.43206 
L 96.17323 61.447306 
L 96.291343 57.195435 
L 96.363736 57.108623 
L 96.474573 46.040854 
L 97.030506 45.390825 
L 97.040032 56.291584 
L 97.14862 56.209656 
L 97.221012 56.155214 
L 97.323349 60.277259 
L 98.747005 60.567894 
L 99.126071 60.696376 
L 99.244185 56.504813 
L 99.316577 56.455382 
L 99.427415 45.445037 
L 99.983347 44.974562 
L 99.992873 55.876957 
L 100.101461 55.811926 
L 100.173853 55.76848 
L 100.276191 59.899572 
L 101.608407 60.292816 
L 102.078912 60.506607 
L 102.197026 56.332655 
L 102.269418 56.293978 
L 102.380256 45.298763 
L 102.936189 44.870989 
L 102.945714 55.773678 
L 103.054302 55.712148 
L 103.126695 55.670919 
L 103.229032 59.806234 
L 104.469627 60.228715 
L 105.031754 60.52201 
L 105.149867 56.352482 
L 105.222259 56.316333 
L 105.333097 45.322958 
L 105.88903 44.891274 
L 105.898555 55.793743 
L 106.007144 55.730496 
L 106.079536 55.688046 
L 106.181873 59.825466 
L 107.377301 60.267344 
L 107.984595 60.616505 
L 108.102708 56.446246 
L 108.175101 56.409405 
L 108.285938 45.412625 
L 108.841871 44.958397 
L 108.851397 55.860436 
L 108.959985 55.793339 
L 109.032377 55.748258 
L 109.134714 59.886813 
L 110.285769 60.334687 
L 110.937436 60.738233 
L 111.05555 56.565179 
L 111.127942 56.526352 
L 111.23878 45.524055 
L 111.794713 45.040018 
L 111.804238 55.941549 
L 111.912826 55.869802 
L 111.985218 55.821561 
L 112.087556 59.960797 
L 113.195335 60.407826 
L 113.890277 60.865832 
L 114.008391 56.689256 
L 114.080783 56.647985 
L 114.191621 45.639422 
L 114.747554 45.123263 
L 114.757079 56.024268 
L 114.865667 55.947648 
L 114.93806 55.896101 
L 115.040397 60.035795 
L 116.106338 60.478197 
L 116.843119 60.991145 
L 116.961232 56.810895 
L 117.033625 56.767081 
L 117.144462 45.752094 
L 117.700395 45.203591 
L 117.70992 56.104072 
L 117.818509 56.022595 
L 117.890901 55.967752 
L 117.993238 60.107778 
L 119.019139 60.543296 
L 119.79596 61.111473 
L 119.914074 56.927626 
L 119.986466 56.881312 
L 120.097304 45.859977 
L 120.653236 45.279715 
L 120.662762 56.179685 
L 120.77135 56.093451 
L 120.843742 56.035378 
L 120.946079 60.17565 
L 121.971981 60.624933 
L 122.723477 61.200823 
L 122.748801 61.226245 
L 122.866915 57.038957 
L 122.939307 56.990238 
L 123.050145 45.962713 
L 123.606078 45.351533 
L 123.615603 56.251005 
L 123.724191 56.16014 
L 123.796584 56.098919 
L 123.898921 60.239373 
L 124.88693 60.678629 
L 125.594947 61.225001 
L 125.701642 61.335708 
L 125.819756 57.145157 
L 125.892148 57.09414 
L 126.002986 46.060603 
L 126.558919 45.41939 
L 126.568444 56.318378 
L 126.677033 56.223008 
L 126.749425 56.158725 
L 126.851762 60.299306 
L 127.804291 60.728096 
L 128.51654 61.290163 
L 128.654484 61.440331 
L 128.772597 57.246692 
L 128.84499 57.193484 
L 128.955827 46.154111 
L 129.51176 45.483718 
L 129.521285 56.382236 
L 129.629874 56.282484 
L 129.702266 56.215217 
L 129.804603 60.355878 
L 130.757133 60.794389 
L 131.435286 61.345071 
L 131.607325 61.540528 
L 131.725439 57.343965 
L 131.797831 57.288666 
L 131.908669 46.243622 
L 132.464601 45.544854 
L 132.474127 56.442916 
L 132.582715 56.338893 
L 132.655107 56.26872 
L 132.757445 60.409415 
L 133.676983 60.836053 
L 134.351116 61.39006 
L 134.560166 61.636668 
L 134.67828 57.437336 
L 134.750672 57.380041 
L 134.86151 46.329482 
L 135.417443 45.60309 
L 135.426968 56.500706 
L 135.535556 56.392522 
L 135.607949 56.319511 
L 135.710286 60.460204 
L 136.599096 60.875142 
L 137.264268 61.425907 
L 137.513008 61.729134 
L 137.631121 57.52718 
L 137.703513 57.467978 
L 137.814351 46.412049 
L 138.370284 45.658737 
L 138.379809 56.555919 
L 138.488398 56.443673 
L 138.56079 56.367892 
L 138.663127 60.508548 
L 139.551937 60.930305 
L 140.175193 61.453689 
L 140.465849 61.818248 
L 140.583962 57.613809 
L 140.656355 57.552784 
L 140.767192 46.49162 
L 141.323125 45.712046 
L 141.332651 56.608804 
L 141.441239 56.492591 
L 141.513631 56.414102 
L 141.615968 60.554689 
L 142.475686 60.963785 
L 143.084422 61.474562 
L 143.41869 61.904236 
L 143.536804 57.697439 
L 143.609196 57.634669 
L 143.720034 46.568398 
L 144.275967 45.763182 
L 144.285492 56.659526 
L 144.39408 56.539434 
L 144.466472 56.458296 
L 144.56881 60.598784 
L 145.428527 61.013319 
L 146.037264 61.538991 
L 146.371531 61.987328 
L 146.489645 57.778297 
L 146.562037 57.713856 
L 146.672875 46.642598 
L 147.228808 45.812323 
L 147.238333 56.708262 
L 147.346921 56.584376 
L 147.419314 56.500644 
L 147.521651 60.64101 
L 148.381368 61.060591 
L 148.990105 61.60078 
L 149.324373 62.067779 
L 149.442486 57.85663 
L 149.514878 57.790589 
L 149.625716 46.714457 
L 150.181649 45.859673 
L 150.191174 56.755216 
L 150.299763 56.627616 
L 150.372155 56.541344 
L 150.474492 60.681566 
L 151.324684 61.099327 
L 151.898148 61.607433 
L 152.277214 62.14576 
L 152.395328 57.932602 
L 152.46772 57.865027 
L 152.578558 46.784128 
L 153.13449 45.905356 
L 153.144016 56.800511 
L 153.252604 56.669272 
L 153.324996 56.58051 
L 153.427333 60.720566 
L 154.252202 61.125229 
L 154.850989 61.662798 
L 155.230055 62.221376 
L 155.348169 58.006313 
L 155.420561 57.937267 
L 155.531399 46.851702 
L 156.087332 45.949436 
L 156.096857 56.844211 
L 156.205445 56.709405 
L 156.277838 56.618201 
L 156.380175 60.75807 
L 157.205043 61.166302 
L 157.80383 61.715993 
L 158.182896 62.294773 
L 158.30101 58.077904 
L 158.373402 58.007448 
L 158.48424 46.917313 
L 159.040173 45.992021 
L 159.049698 56.886424 
L 159.158287 56.74812 
L 159.230679 56.654519 
L 159.333016 60.794186 
L 160.132167 61.188012 
L 160.711132 61.71139 
L 161.135738 62.365928 
L 161.253851 58.147339 
L 161.326244 58.075526 
L 161.437081 46.980913 
L 161.993014 46.033039 
L 162.002539 56.927076 
L 162.111128 56.785334 
L 162.18352 56.689376 
L 162.285857 60.828803 
L 163.085009 61.225083 
L 163.663974 61.758164 
L 164.088579 62.433431 
L 164.206693 58.213144 
L 164.279085 58.139992 
L 164.389923 47.040984 
L 164.945855 46.070938 
L 164.955381 56.964615 
L 165.063969 56.819457 
L 165.136361 56.721158 
L 165.238699 60.860171 
L 166.03785 61.256573 
L 166.616815 61.795707 
L 167.04142 62.486256 
L 167.159534 58.263836 
L 167.231926 58.189112 
L 167.342764 47.085767 
L 167.898697 46.093838 
L 167.908222 56.987153 
L 168.01681 56.838343 
L 168.089203 56.737548 
L 168.19154 60.874941 
L 168.990691 61.255528 
L 169.569656 61.774976 
L 169.994261 62.439718 
L 170.112375 58.211263 
L 170.184767 58.132839 
L 170.295605 47.025053 
L 170.851538 46.010736 
L 170.861063 56.90363 
L 170.969652 56.748979 
L 171.042044 56.64427 
L 171.144381 60.771036 
L 172.096911 61.090623 
L 172.738053 61.519398 
L 172.947103 61.729879 
L 173.065216 57.472346 
L 173.137609 57.377756 
L 173.248446 46.264479 
L 173.804379 45.221807 
L 173.813905 56.113881 
L 173.922493 55.940374 
L 173.994885 55.823345 
L 174.00441 59.927163 
L 174.097222 59.889645 
L 175.049752 59.37363 
L 175.899944 58.670685 
L 176.018058 54.351039 
L 176.09045 54.222999 
L 176.201288 43.100924 
L 176.757221 41.990096 
L 176.766746 52.879897 
L 176.875334 52.660421 
L 176.947726 52.513539 
L 176.957252 56.610311 
L 177.050064 56.452617 
L 178.42818 53.874913 
L 178.852785 53.01728 
L 178.970899 48.652687 
L 179.043291 48.499211 
L 179.154129 37.3487 
L 179.687138 35.860056 
L 179.710062 35.780708 
L 179.719587 46.65645 
L 179.828175 46.266394 
L 179.900568 46.005822 
L 179.910093 50.086278 
L 180.002905 49.74931 
L 180.853097 46.635063 
L 180.862622 44.159254 
L 181.441764 42.293544 
L 182.320087 40.278409 
L 183.716009 38.609361 
L 185.83813 37.833438 
L 188.85461 37.64494 
L 204.033801 37.616611 
L 365.753984 37.519471 
L 367.49447 37.260298 
L 368.727497 36.681908 
L 369.585535 35.714354 
L 370.174436 34.389918 
L 370.57488 32.802945 
L 371.032489 29.20758 
L 371.266601 24.94053 
L 371.358986 21.492727 
L 371.368511 52.877633 
L 371.471926 45.879776 
L 371.744932 32.957662 
L 371.929458 28.726842 
L 372.193478 26.727364 
L 372.549823 26.259614 
L 373.548463 26.189006 
L 390.4191 26.188579 
L 390.4191 26.188579 
" clip-path="url(#p0e94c4e46b)" style="fill: none; stroke: #ff0000; stroke-width: 1.5; stroke-linecap: square"/>
   </g>
   <g id="line2d_17">
    <path d="M 77.036913 26.384229 
L 77.203097 26.478827 
L 77.372623 26.924616 
L 77.555312 28.327883 
L 77.770868 32.734877 
L 77.979917 41.455462 
L 77.989443 23.838672 
L 78.286362 28.065202 
L 78.624898 29.653564 
L 79.022636 30.296424 
L 79.48838 30.534213 
L 80.625873 30.630479 
L 91.066893 30.766434 
L 91.380768 30.932513 
L 91.810841 31.542059 
L 92.13706 32.671549 
L 92.267859 33.401788 
L 92.372955 37.513922 
L 93.220388 42.535755 
L 93.229914 37.905231 
L 93.338502 38.505424 
L 93.410894 38.89792 
L 93.42042 33.194024 
L 93.521732 33.685115 
L 93.955687 35.151175 
L 94.077665 35.4212 
L 94.195779 41.413292 
L 94.268171 41.556306 
L 94.370508 46.444104 
L 96.17323 49.95221 
L 96.182755 45.285984 
L 96.291343 45.490393 
L 96.363736 45.626067 
L 96.373261 39.889168 
L 96.474573 40.07024 
L 97.030506 40.958778 
L 97.14862 46.889066 
L 97.221012 46.996543 
L 97.323349 51.834983 
L 99.126071 54.539269 
L 99.135596 49.869038 
L 99.244185 50.028661 
L 99.316577 50.134961 
L 99.326102 44.394273 
L 99.427415 44.538517 
L 99.983347 45.308885 
L 100.101461 51.227466 
L 100.173853 51.328061 
L 100.276191 56.156833 
L 102.078912 58.700139 
L 102.088438 54.029098 
L 102.197026 54.17965 
L 102.269418 54.279992 
L 102.278943 48.538535 
L 102.380256 48.675269 
L 102.936189 49.420823 
L 103.054302 55.336803 
L 103.126695 55.435863 
L 103.229032 60.262474 
L 105.031754 62.76967 
L 105.041279 58.098447 
L 105.149867 58.24696 
L 105.222259 58.345963 
L 105.231785 52.604333 
L 105.333097 52.739376 
L 105.88903 53.479307 
L 106.007144 59.39469 
L 106.079536 59.493398 
L 106.181873 64.319513 
L 107.984595 66.818407 
L 107.99412 62.147141 
L 108.102708 62.295185 
L 108.175101 62.39388 
L 108.184626 56.65221 
L 108.285938 56.786864 
L 108.841871 57.525499 
L 108.959985 63.440744 
L 109.032377 63.539371 
L 109.134714 68.365371 
L 110.937436 70.862346 
L 110.946961 66.19107 
L 111.05555 66.339006 
L 111.127942 66.43763 
L 111.137467 60.695951 
L 111.23878 60.830515 
L 111.794713 61.56885 
L 111.912826 67.484063 
L 111.985218 67.582671 
L 112.087556 72.408645 
L 113.890277 74.905175 
L 113.899803 70.233897 
L 114.008391 70.381808 
L 114.080783 70.480415 
L 114.090309 64.738734 
L 114.191621 64.873277 
L 114.747554 65.611543 
L 114.865667 71.526748 
L 114.93806 71.625352 
L 115.040397 76.45132 
L 116.843119 78.947747 
L 116.852644 74.276469 
L 116.961232 74.424373 
L 117.033625 74.522976 
L 117.04315 68.781295 
L 117.144462 68.915833 
L 117.700395 69.654083 
L 117.818509 75.569287 
L 117.890901 75.667889 
L 117.993238 80.493856 
L 119.79596 82.990259 
L 119.805485 78.318981 
L 119.914074 78.466884 
L 119.986466 78.565487 
L 119.995991 72.823805 
L 120.097304 72.958342 
L 120.653236 73.696588 
L 120.77135 79.611792 
L 120.843742 79.710394 
L 120.946079 84.53636 
L 122.748801 87.032758 
L 122.758326 82.36148 
L 122.866915 82.509383 
L 122.939307 82.607985 
L 122.948832 76.866303 
L 123.050145 77.00084 
L 123.606078 77.739085 
L 123.724191 83.654289 
L 123.796584 83.752891 
L 123.898921 88.578857 
L 125.701642 91.075253 
L 125.711168 86.403975 
L 125.819756 86.551878 
L 125.892148 86.65048 
L 125.901674 80.908798 
L 126.002986 81.043335 
L 126.558919 81.78158 
L 126.677033 87.696784 
L 126.749425 87.795386 
L 126.851762 92.621352 
L 128.654484 95.117748 
L 128.664009 90.44647 
L 128.772597 90.594373 
L 128.84499 90.692975 
L 128.854515 84.951293 
L 128.955827 85.08583 
L 129.51176 85.824075 
L 129.629874 91.739279 
L 129.702266 91.83788 
L 129.804603 96.663846 
L 131.607325 99.160242 
L 131.61685 94.488964 
L 131.725439 94.636867 
L 131.797831 94.735469 
L 131.807356 88.993788 
L 131.908669 89.128324 
L 132.464601 89.86657 
L 132.582715 95.781773 
L 132.655107 95.880375 
L 132.757445 100.706341 
L 134.560166 103.202737 
L 134.569692 98.531459 
L 134.67828 98.679362 
L 134.750672 98.777964 
L 134.760197 93.036282 
L 134.86151 93.170819 
L 135.417443 93.909064 
L 135.535556 99.824268 
L 135.607949 99.92287 
L 135.710286 104.748836 
L 137.513008 107.245231 
L 137.522533 102.573953 
L 137.631121 102.721856 
L 137.703513 102.820458 
L 137.713039 97.078777 
L 137.814351 97.213313 
L 138.370284 97.951559 
L 138.488398 103.866762 
L 138.56079 103.965364 
L 138.663127 108.79133 
L 140.465849 111.287726 
L 140.475374 106.616448 
L 140.583962 106.764351 
L 140.656355 106.862953 
L 140.66588 101.121271 
L 140.767192 101.255808 
L 141.323125 101.994053 
L 141.441239 107.909257 
L 141.513631 108.007859 
L 141.615968 112.833825 
L 143.41869 115.33022 
L 143.428215 110.658942 
L 143.536804 110.806845 
L 143.609196 110.905447 
L 143.618721 105.163766 
L 143.720034 105.298303 
L 144.275967 106.036548 
L 144.39408 111.951751 
L 144.466472 112.050353 
L 144.56881 116.876319 
L 146.371531 119.372715 
L 146.381057 114.701437 
L 146.489645 114.84934 
L 146.562037 114.947942 
L 146.571563 109.20626 
L 146.672875 109.340797 
L 147.228808 110.079042 
L 147.346921 115.994246 
L 147.419314 116.092848 
L 147.521651 120.918814 
L 149.324373 123.41521 
L 149.333898 118.743932 
L 149.442486 118.891835 
L 149.514878 118.990437 
L 149.524404 113.248755 
L 149.625716 113.383292 
L 150.181649 114.121537 
L 150.299763 120.036741 
L 150.372155 120.135343 
L 150.474492 124.961309 
L 152.277214 127.457706 
L 152.286739 122.786428 
L 152.395328 122.934331 
L 152.46772 123.032933 
L 152.477245 117.291251 
L 152.578558 117.425788 
L 153.13449 118.164034 
L 153.252604 124.079238 
L 153.324996 124.17784 
L 153.427333 129.003806 
L 155.230055 131.500207 
L 155.23958 126.828929 
L 155.348169 126.976832 
L 155.420561 127.075434 
L 155.430086 121.333753 
L 155.531399 121.46829 
L 156.087332 122.206539 
L 156.205445 128.121744 
L 156.277838 128.220347 
L 156.380175 133.046314 
L 158.182896 135.54273 
L 158.192422 130.871452 
L 158.30101 131.019356 
L 158.373402 131.117959 
L 158.382928 125.376278 
L 158.48424 125.510816 
L 159.040173 126.249078 
L 159.158287 132.164287 
L 159.230679 132.262893 
L 159.333016 137.088864 
L 161.135738 139.585348 
L 161.145263 134.914071 
L 161.253851 135.061979 
L 161.326244 135.160585 
L 161.335769 129.418903 
L 161.437081 129.553446 
L 161.993014 130.291765 
L 162.111128 136.206993 
L 162.18352 136.305609 
L 162.285857 141.131597 
L 164.088579 143.628376 
L 164.098104 138.9571 
L 164.206693 139.105027 
L 164.279085 139.203644 
L 164.28861 133.461964 
L 164.389923 133.596527 
L 164.945855 134.335089 
L 165.063969 140.250398 
L 165.136361 140.349064 
L 165.238699 145.175123 
L 167.04142 147.673176 
L 167.050946 143.001906 
L 167.159534 143.149909 
L 167.231926 143.248578 
L 167.241451 137.506905 
L 167.342764 137.641554 
L 167.898697 138.381167 
L 168.01681 144.296825 
L 168.089203 144.395707 
L 168.19154 149.222076 
L 169.994261 151.72563 
L 170.003787 147.05439 
L 170.112375 147.202723 
L 170.184767 147.301615 
L 170.194293 141.559971 
L 170.295605 141.694993 
L 170.851538 142.439161 
L 170.969652 148.356337 
L 171.042044 148.456152 
L 171.144381 153.283863 
L 172.947103 155.811283 
L 172.956628 151.140169 
L 173.065216 151.289939 
L 173.137609 151.389794 
L 173.147134 145.648276 
L 173.248446 145.784922 
L 173.804379 146.549084 
L 173.922493 152.472941 
L 173.994885 152.576867 
L 174.097222 157.410489 
L 175.899944 160.04306 
L 175.909469 155.372504 
L 176.018058 155.528607 
L 176.09045 155.632716 
L 176.099975 149.891752 
L 176.201288 150.035658 
L 176.757221 150.892588 
L 176.875334 156.84794 
L 176.947726 156.971242 
L 177.050064 161.832734 
L 178.852785 164.961832 
L 178.862311 160.293917 
L 178.970899 160.480065 
L 179.043291 160.604401 
L 179.052816 154.866077 
L 179.154129 155.046989 
L 179.614829 156.165945 
L 179.710062 156.470809 
L 179.828175 162.634514 
L 179.900568 162.886119 
L 180.002905 167.932281 
L 180.853097 170.953601 
L 180.862622 167.550423 
L 181.441764 169.347952 
L 182.320087 171.273717 
L 183.716009 172.852151 
L 185.83813 173.580555 
L 188.85461 173.757077 
L 211.104307 173.783552 
L 365.753984 173.880623 
L 367.49447 174.139855 
L 368.727497 174.718237 
L 369.585535 175.685649 
L 370.174436 177.009794 
L 370.57488 178.596332 
L 371.032489 182.190276 
L 371.266601 186.454214 
L 371.358986 189.897533 
L 371.471926 215.737146 
L 371.744932 228.624773 
L 371.929458 232.830017 
L 372.193478 234.813245 
L 372.549823 235.276873 
L 373.548463 235.346851 
L 390.4191 235.347273 
L 390.4191 235.347273 
" clip-path="url(#p0e94c4e46b)" style="fill: none; stroke-dasharray: 5.55,2.4; stroke-dashoffset: 0; stroke: #0000ff; stroke-width: 1.5"/>
   </g>
   <g id="line2d_18">
    <path d="M 77.036913 235.151624 
L 77.203097 235.057026 
L 77.372623 234.611236 
L 77.555312 233.20797 
L 77.770868 228.800976 
L 77.979917 220.08039 
L 77.989443 187.561551 
L 78.286362 183.33502 
L 78.624898 181.746658 
L 79.022636 181.103799 
L 79.48838 180.866009 
L 80.625873 180.769743 
L 91.066893 180.633788 
L 91.380768 180.467709 
L 91.810841 179.858164 
L 92.13706 178.728673 
L 92.267859 177.998435 
L 92.277384 180.377724 
L 92.372955 179.764149 
L 93.220388 174.742316 
L 93.338502 169.973357 
L 93.410894 169.580861 
L 93.521732 158.129609 
L 93.955687 156.663549 
L 94.077665 156.393524 
L 94.08719 167.283939 
L 94.195779 167.065489 
L 94.268171 166.922475 
L 94.277696 171.018582 
L 94.370508 170.833967 
L 96.17323 167.325861 
L 96.291343 162.988388 
L 96.363736 162.852714 
L 96.474573 151.744484 
L 97.030506 150.855946 
L 97.040032 161.751472 
L 97.14862 161.589716 
L 97.221012 161.482238 
L 97.230537 165.58293 
L 97.323349 165.443087 
L 99.126071 162.738802 
L 99.244185 158.45012 
L 99.316577 158.343821 
L 99.427415 147.276207 
L 99.983347 146.505839 
L 99.992873 157.402321 
L 100.101461 157.251315 
L 100.173853 157.15072 
L 100.183379 161.252309 
L 100.276191 161.121238 
L 102.078912 158.577932 
L 102.197026 154.299131 
L 102.269418 154.198789 
L 102.380256 143.139455 
L 102.936189 142.393902 
L 102.945714 153.290595 
L 103.054302 153.141979 
L 103.126695 153.042919 
L 103.13622 157.144707 
L 103.229032 157.015596 
L 105.031754 154.508401 
L 105.149867 150.231822 
L 105.222259 150.132819 
L 105.333097 139.075349 
L 105.88903 138.335418 
L 105.898555 149.23216 
L 106.007144 149.084092 
L 106.079536 148.985384 
L 106.089061 153.087219 
L 106.181873 152.958558 
L 107.984595 150.459664 
L 108.102708 146.183596 
L 108.175101 146.084902 
L 108.285938 135.02786 
L 108.841871 134.289225 
L 108.851397 145.185978 
L 108.959985 145.038037 
L 109.032377 144.939411 
L 109.041902 149.041256 
L 109.134714 148.9127 
L 110.937436 146.415725 
L 111.05555 142.139775 
L 111.127942 142.041152 
L 111.23878 130.98421 
L 111.794713 130.245874 
L 111.804238 141.14263 
L 111.912826 140.994718 
L 111.985218 140.896111 
L 111.994744 144.997959 
L 112.087556 144.869426 
L 113.890277 142.372896 
L 114.008391 138.096974 
L 114.080783 137.998367 
L 114.191621 126.941448 
L 114.747554 126.203182 
L 114.757079 137.099938 
L 114.865667 136.952033 
L 114.93806 136.85343 
L 114.947585 140.955278 
L 115.040397 140.826751 
L 116.843119 138.330324 
L 116.961232 134.054408 
L 117.033625 133.955805 
L 117.144462 122.898891 
L 117.700395 122.160641 
L 117.70992 133.057398 
L 117.818509 132.909494 
L 117.890901 132.810892 
L 117.900426 136.912741 
L 117.993238 136.784215 
L 119.79596 134.287812 
L 119.914074 130.011897 
L 119.986466 129.913295 
L 120.097304 118.856382 
L 120.653236 118.118136 
L 120.662762 129.014893 
L 120.77135 128.86699 
L 120.843742 128.768388 
L 120.853268 132.870236 
L 120.946079 132.741711 
L 122.748801 130.245313 
L 122.866915 125.969399 
L 122.939307 125.870797 
L 123.050145 114.813884 
L 123.606078 114.075639 
L 123.615603 124.972396 
L 123.724191 124.824493 
L 123.796584 124.725891 
L 123.806109 128.827739 
L 123.898921 128.699214 
L 125.701642 126.202818 
L 125.819756 121.926903 
L 125.892148 121.828301 
L 126.002986 110.771389 
L 126.558919 110.033144 
L 126.568444 120.929901 
L 126.677033 120.781998 
L 126.749425 120.683396 
L 126.75895 124.785244 
L 126.851762 124.656719 
L 128.654484 122.160323 
L 128.772597 117.884409 
L 128.84499 117.785807 
L 128.955827 106.728894 
L 129.51176 105.990649 
L 129.521285 116.887406 
L 129.629874 116.739503 
L 129.702266 116.640901 
L 129.711791 120.74275 
L 129.804603 120.614224 
L 131.607325 118.117828 
L 131.725439 113.841914 
L 131.797831 113.743312 
L 131.908669 102.6864 
L 132.464601 101.948155 
L 132.474127 112.844911 
L 132.582715 112.697008 
L 132.655107 112.598406 
L 132.664633 116.700255 
L 132.757445 116.57173 
L 134.560166 114.075334 
L 134.67828 109.79942 
L 134.750672 109.700818 
L 134.86151 98.643905 
L 135.417443 97.90566 
L 135.426968 108.802417 
L 135.535556 108.654514 
L 135.607949 108.555912 
L 135.617474 112.657761 
L 135.710286 112.529235 
L 137.513008 110.032839 
L 137.631121 105.756925 
L 137.703513 105.658323 
L 137.814351 94.601411 
L 138.370284 93.863166 
L 138.379809 104.759922 
L 138.488398 104.612019 
L 138.56079 104.513417 
L 138.570315 108.615266 
L 138.663127 108.486741 
L 140.465849 105.990345 
L 140.583962 101.714431 
L 140.656355 101.615829 
L 140.767192 90.558916 
L 141.323125 89.820671 
L 141.332651 100.717428 
L 141.441239 100.569525 
L 141.513631 100.470923 
L 141.523156 104.572772 
L 141.615968 104.444246 
L 143.41869 101.94785 
L 143.536804 97.671936 
L 143.609196 97.573334 
L 143.720034 86.516422 
L 144.275967 85.778177 
L 144.285492 96.674933 
L 144.39408 96.52703 
L 144.466472 96.428428 
L 144.475998 100.530277 
L 144.56881 100.401752 
L 146.371531 97.905356 
L 146.489645 93.629442 
L 146.562037 93.53084 
L 146.672875 82.473927 
L 147.228808 81.735682 
L 147.238333 92.632439 
L 147.346921 92.484536 
L 147.419314 92.385934 
L 147.428839 96.487782 
L 147.521651 96.359257 
L 149.324373 93.862861 
L 149.442486 89.586947 
L 149.514878 89.488345 
L 149.625716 78.431432 
L 150.181649 77.693187 
L 150.191174 88.589944 
L 150.299763 88.442041 
L 150.372155 88.343439 
L 150.38168 92.445287 
L 150.474492 92.316762 
L 152.277214 89.820365 
L 152.395328 85.544451 
L 152.46772 85.445849 
L 152.578558 74.388936 
L 153.13449 73.65069 
L 153.144016 84.547447 
L 153.252604 84.399543 
L 153.324996 84.300941 
L 153.334522 88.40279 
L 153.427333 88.274264 
L 155.230055 85.777864 
L 155.348169 81.501949 
L 155.420561 81.403347 
L 155.531399 70.346434 
L 156.087332 69.608185 
L 156.096857 80.504942 
L 156.205445 80.357038 
L 156.277838 80.258435 
L 156.287363 84.360283 
L 156.380175 84.231757 
L 158.182896 81.735341 
L 158.30101 77.459425 
L 158.373402 77.360822 
L 158.48424 66.303908 
L 159.040173 65.565646 
L 159.049698 76.462402 
L 159.158287 76.314494 
L 159.230679 76.215889 
L 159.240204 80.317737 
L 159.333016 80.189207 
L 161.135738 77.692723 
L 161.253851 73.416802 
L 161.326244 73.318197 
L 161.437081 62.261278 
L 161.993014 61.52296 
L 162.002539 72.419714 
L 162.111128 72.271789 
L 162.18352 72.173172 
L 162.193045 76.275019 
L 162.285857 76.146474 
L 164.088579 73.649694 
L 164.206693 69.373755 
L 164.279085 69.275138 
L 164.389923 58.218197 
L 164.945855 57.479636 
L 164.955381 68.376384 
L 165.063969 68.228384 
L 165.136361 68.129717 
L 165.145887 72.231557 
L 165.238699 72.102947 
L 167.04142 69.604895 
L 167.159534 65.328872 
L 167.231926 65.230204 
L 167.342764 54.17317 
L 167.898697 53.433557 
L 167.908222 64.330278 
L 168.01681 64.181956 
L 168.089203 64.083074 
L 168.098728 68.184886 
L 168.19154 68.055995 
L 169.994261 65.552441 
L 170.112375 61.276058 
L 170.184767 61.177167 
L 170.295605 50.119732 
L 170.851538 49.375563 
L 170.861063 60.272163 
L 170.969652 60.122445 
L 171.042044 60.02263 
L 171.051569 64.124317 
L 171.144381 63.994208 
L 172.947103 61.466788 
L 173.065216 57.188842 
L 173.137609 57.088987 
L 173.248446 46.029802 
L 173.804379 45.26564 
L 173.813905 56.161708 
L 173.922493 56.00584 
L 173.994885 55.901915 
L 174.00441 60.003057 
L 174.097222 59.867582 
L 175.899944 57.235011 
L 176.018058 52.950174 
L 176.09045 52.846066 
L 176.201288 41.779066 
L 176.757221 40.922136 
L 176.766746 51.815698 
L 176.875334 51.630841 
L 176.947726 51.50754 
L 176.957252 55.606108 
L 177.050064 55.445337 
L 178.852785 52.316239 
L 178.970899 47.998717 
L 179.043291 47.874381 
L 179.154129 36.767736 
L 179.614829 35.648779 
L 179.710062 35.343916 
L 179.719587 46.220903 
L 179.828175 45.844268 
L 179.900568 45.592663 
L 179.910093 49.674179 
L 180.002905 49.345789 
L 180.853097 46.32447 
L 180.862622 43.849799 
L 181.441764 42.052271 
L 182.320087 40.126506 
L 183.716009 38.548072 
L 185.83813 37.819667 
L 188.85461 37.643145 
L 211.104307 37.616671 
L 365.753984 37.519599 
L 367.49447 37.260367 
L 368.727497 36.681985 
L 369.585535 35.714573 
L 370.174436 34.390428 
L 370.57488 32.803891 
L 371.032489 29.209947 
L 371.266601 24.946008 
L 371.358986 21.502689 
L 371.368511 52.88709 
L 371.471926 45.798707 
L 371.744932 32.911079 
L 371.929458 28.705835 
L 372.193478 26.722607 
L 372.549823 26.25898 
L 373.548463 26.189002 
L 390.4191 26.18858 
L 390.4191 26.18858 
" clip-path="url(#p0e94c4e46b)" style="fill: none; stroke-dasharray: 5.55,2.4; stroke-dashoffset: 0; stroke: #ff0000; stroke-width: 1.5"/>
   </g>
   <g id="patch_3">
    <path d="M 61.367804 246.04 
L 61.367804 10.8 
" style="fill: none; stroke: #000000; stroke-width: 0.8; stroke-linejoin: miter; stroke-linecap: square"/>
   </g>
   <g id="patch_4">
    <path d="M 406.088209 246.04 
L 406.088209 10.8 
" style="fill: none; stroke: #000000; stroke-width: 0.8; stroke-linejoin: miter; stroke-linecap: square"/>
   </g>
   <g id="patch_5">
    <path d="M 61.367804 246.04 
L 406.088209 246.04 
" style="fill: none; stroke: #000000; stroke-width: 0.8; stroke-linejoin: miter; stroke-linecap: square"/>
   </g>
   <g id="patch_6">
    <path d="M 61.367804 10.8 
L 406.088209 10.8 
" style="fill: none; stroke: #000000; stroke-width: 0.8; stroke-linejoin: miter; stroke-linecap: square"/>
   </g>
  </g>
  <g id="axes_2">
   <g id="patch_7">
    <path d="M 454.479595 246.04 
L 799.2 246.04 
L 799.2 10.8 
L 454.479595 10.8 
z
" style="fill: #ffffff"/>
   </g>
   <g id="matplotlib.axis_3">
    <g id="xtick_8">
     <g id="line2d_19">
      <g>
       <use xlink:href="#m18c35ec8ff" x="476.02462" y="246.04" style="stroke: #000000; stroke-width: 0.8"/>
      </g>
     </g>
     <g id="text_17">
      <!-- 400 -->
      <g transform="translate(466.48087 260.638438) scale(0.1 -0.1)">
       <defs>
        <path id="DejaVuSans-34" d="M 2419 4116 
L 825 1625 
L 2419 1625 
L 2419 4116 
z
M 2253 4666 
L 3047 4666 
L 3047 1625 
L 3713 1625 
L 3713 1100 
L 3047 1100 
L 3047 0 
L 2419 0 
L 2419 1100 
L 313 1100 
L 313 1709 
L 2253 4666 
z
" transform="scale(0.015625)"/>
       </defs>
       <use xlink:href="#DejaVuSans-34"/>
       <use xlink:href="#DejaVuSans-30" x="63.623047"/>
       <use xlink:href="#DejaVuSans-30" x="127.246094"/>
      </g>
     </g>
    </g>
    <g id="xtick_9">
     <g id="line2d_20">
      <g>
       <use xlink:href="#m18c35ec8ff" x="519.114671" y="246.04" style="stroke: #000000; stroke-width: 0.8"/>
      </g>
     </g>
     <g id="text_18">
      <!-- 500 -->
      <g transform="translate(509.570921 260.638438) scale(0.1 -0.1)">
       <use xlink:href="#DejaVuSans-35"/>
       <use xlink:href="#DejaVuSans-30" x="63.623047"/>
       <use xlink:href="#DejaVuSans-30" x="127.246094"/>
      </g>
     </g>
    </g>
    <g id="xtick_10">
     <g id="line2d_21">
      <g>
       <use xlink:href="#m18c35ec8ff" x="562.204721" y="246.04" style="stroke: #000000; stroke-width: 0.8"/>
      </g>
     </g>
     <g id="text_19">
      <!-- 600 -->
      <g transform="translate(552.660971 260.638438) scale(0.1 -0.1)">
       <defs>
        <path id="DejaVuSans-36" d="M 2113 2584 
Q 1688 2584 1439 2293 
Q 1191 2003 1191 1497 
Q 1191 994 1439 701 
Q 1688 409 2113 409 
Q 2538 409 2786 701 
Q 3034 994 3034 1497 
Q 3034 2003 2786 2293 
Q 2538 2584 2113 2584 
z
M 3366 4563 
L 3366 3988 
Q 3128 4100 2886 4159 
Q 2644 4219 2406 4219 
Q 1781 4219 1451 3797 
Q 1122 3375 1075 2522 
Q 1259 2794 1537 2939 
Q 1816 3084 2150 3084 
Q 2853 3084 3261 2657 
Q 3669 2231 3669 1497 
Q 3669 778 3244 343 
Q 2819 -91 2113 -91 
Q 1303 -91 875 529 
Q 447 1150 447 2328 
Q 447 3434 972 4092 
Q 1497 4750 2381 4750 
Q 2619 4750 2861 4703 
Q 3103 4656 3366 4563 
z
" transform="scale(0.015625)"/>
       </defs>
       <use xlink:href="#DejaVuSans-36"/>
       <use xlink:href="#DejaVuSans-30" x="63.623047"/>
       <use xlink:href="#DejaVuSans-30" x="127.246094"/>
      </g>
     </g>
    </g>
    <g id="xtick_11">
     <g id="line2d_22">
      <g>
       <use xlink:href="#m18c35ec8ff" x="605.294772" y="246.04" style="stroke: #000000; stroke-width: 0.8"/>
      </g>
     </g>
     <g id="text_20">
      <!-- 700 -->
      <g transform="translate(595.751022 260.638438) scale(0.1 -0.1)">
       <defs>
        <path id="DejaVuSans-37" d="M 525 4666 
L 3525 4666 
L 3525 4397 
L 1831 0 
L 1172 0 
L 2766 4134 
L 525 4134 
L 525 4666 
z
" transform="scale(0.015625)"/>
       </defs>
       <use xlink:href="#DejaVuSans-37"/>
       <use xlink:href="#DejaVuSans-30" x="63.623047"/>
       <use xlink:href="#DejaVuSans-30" x="127.246094"/>
      </g>
     </g>
    </g>
    <g id="xtick_12">
     <g id="line2d_23">
      <g>
       <use xlink:href="#m18c35ec8ff" x="648.384823" y="246.04" style="stroke: #000000; stroke-width: 0.8"/>
      </g>
     </g>
     <g id="text_21">
      <!-- 800 -->
      <g transform="translate(638.841073 260.638438) scale(0.1 -0.1)">
       <defs>
        <path id="DejaVuSans-38" d="M 2034 2216 
Q 1584 2216 1326 1975 
Q 1069 1734 1069 1313 
Q 1069 891 1326 650 
Q 1584 409 2034 409 
Q 2484 409 2743 651 
Q 3003 894 3003 1313 
Q 3003 1734 2745 1975 
Q 2488 2216 2034 2216 
z
M 1403 2484 
Q 997 2584 770 2862 
Q 544 3141 544 3541 
Q 544 4100 942 4425 
Q 1341 4750 2034 4750 
Q 2731 4750 3128 4425 
Q 3525 4100 3525 3541 
Q 3525 3141 3298 2862 
Q 3072 2584 2669 2484 
Q 3125 2378 3379 2068 
Q 3634 1759 3634 1313 
Q 3634 634 3220 271 
Q 2806 -91 2034 -91 
Q 1263 -91 848 271 
Q 434 634 434 1313 
Q 434 1759 690 2068 
Q 947 2378 1403 2484 
z
M 1172 3481 
Q 1172 3119 1398 2916 
Q 1625 2713 2034 2713 
Q 2441 2713 2670 2916 
Q 2900 3119 2900 3481 
Q 2900 3844 2670 4047 
Q 2441 4250 2034 4250 
Q 1625 4250 1398 4047 
Q 1172 3844 1172 3481 
z
" transform="scale(0.015625)"/>
       </defs>
       <use xlink:href="#DejaVuSans-38"/>
       <use xlink:href="#DejaVuSans-30" x="63.623047"/>
       <use xlink:href="#DejaVuSans-30" x="127.246094"/>
      </g>
     </g>
    </g>
    <g id="xtick_13">
     <g id="line2d_24">
      <g>
       <use xlink:href="#m18c35ec8ff" x="691.474873" y="246.04" style="stroke: #000000; stroke-width: 0.8"/>
      </g>
     </g>
     <g id="text_22">
      <!-- 900 -->
      <g transform="translate(681.931123 260.638438) scale(0.1 -0.1)">
       <defs>
        <path id="DejaVuSans-39" d="M 703 97 
L 703 672 
Q 941 559 1184 500 
Q 1428 441 1663 441 
Q 2288 441 2617 861 
Q 2947 1281 2994 2138 
Q 2813 1869 2534 1725 
Q 2256 1581 1919 1581 
Q 1219 1581 811 2004 
Q 403 2428 403 3163 
Q 403 3881 828 4315 
Q 1253 4750 1959 4750 
Q 2769 4750 3195 4129 
Q 3622 3509 3622 2328 
Q 3622 1225 3098 567 
Q 2575 -91 1691 -91 
Q 1453 -91 1209 -44 
Q 966 3 703 97 
z
M 1959 2075 
Q 2384 2075 2632 2365 
Q 2881 2656 2881 3163 
Q 2881 3666 2632 3958 
Q 2384 4250 1959 4250 
Q 1534 4250 1286 3958 
Q 1038 3666 1038 3163 
Q 1038 2656 1286 2365 
Q 1534 2075 1959 2075 
z
" transform="scale(0.015625)"/>
       </defs>
       <use xlink:href="#DejaVuSans-39"/>
       <use xlink:href="#DejaVuSans-30" x="63.623047"/>
       <use xlink:href="#DejaVuSans-30" x="127.246094"/>
      </g>
     </g>
    </g>
    <g id="xtick_14">
     <g id="line2d_25">
      <g>
       <use xlink:href="#m18c35ec8ff" x="734.564924" y="246.04" style="stroke: #000000; stroke-width: 0.8"/>
      </g>
     </g>
     <g id="text_23">
      <!-- 1000 -->
      <g transform="translate(721.839924 260.638438) scale(0.1 -0.1)">
       <use xlink:href="#DejaVuSans-31"/>
       <use xlink:href="#DejaVuSans-30" x="63.623047"/>
       <use xlink:href="#DejaVuSans-30" x="127.246094"/>
       <use xlink:href="#DejaVuSans-30" x="190.869141"/>
      </g>
     </g>
    </g>
    <g id="xtick_15">
     <g id="line2d_26">
      <g>
       <use xlink:href="#m18c35ec8ff" x="777.654975" y="246.04" style="stroke: #000000; stroke-width: 0.8"/>
      </g>
     </g>
     <g id="text_24">
      <!-- 1100 -->
      <g transform="translate(764.929975 260.638438) scale(0.1 -0.1)">
       <use xlink:href="#DejaVuSans-31"/>
       <use xlink:href="#DejaVuSans-31" x="63.623047"/>
       <use xlink:href="#DejaVuSans-30" x="127.246094"/>
       <use xlink:href="#DejaVuSans-30" x="190.869141"/>
      </g>
     </g>
    </g>
    <g id="text_25">
     <!-- Wavelength (nm) -->
     <g transform="translate(583.64761 274.316562) scale(0.1 -0.1)">
      <defs>
       <path id="DejaVuSans-57" d="M 213 4666 
L 850 4666 
L 1831 722 
L 2809 4666 
L 3519 4666 
L 4500 722 
L 5478 4666 
L 6119 4666 
L 4947 0 
L 4153 0 
L 3169 4050 
L 2175 0 
L 1381 0 
L 213 4666 
z
" transform="scale(0.015625)"/>
       <path id="DejaVuSans-76" d="M 191 3500 
L 800 3500 
L 1894 563 
L 2988 3500 
L 3597 3500 
L 2284 0 
L 1503 0 
L 191 3500 
z
" transform="scale(0.015625)"/>
       <path id="DejaVuSans-6c" d="M 603 4863 
L 1178 4863 
L 1178 0 
L 603 0 
L 603 4863 
z
" transform="scale(0.015625)"/>
       <path id="DejaVuSans-67" d="M 2906 1791 
Q 2906 2416 2648 2759 
Q 2391 3103 1925 3103 
Q 1463 3103 1205 2759 
Q 947 2416 947 1791 
Q 947 1169 1205 825 
Q 1463 481 1925 481 
Q 2391 481 2648 825 
Q 2906 1169 2906 1791 
z
M 3481 434 
Q 3481 -459 3084 -895 
Q 2688 -1331 1869 -1331 
Q 1566 -1331 1297 -1286 
Q 1028 -1241 775 -1147 
L 775 -588 
Q 1028 -725 1275 -790 
Q 1522 -856 1778 -856 
Q 2344 -856 2625 -561 
Q 2906 -266 2906 331 
L 2906 616 
Q 2728 306 2450 153 
Q 2172 0 1784 0 
Q 1141 0 747 490 
Q 353 981 353 1791 
Q 353 2603 747 3093 
Q 1141 3584 1784 3584 
Q 2172 3584 2450 3431 
Q 2728 3278 2906 2969 
L 2906 3500 
L 3481 3500 
L 3481 434 
z
" transform="scale(0.015625)"/>
       <path id="DejaVuSans-68" d="M 3513 2113 
L 3513 0 
L 2938 0 
L 2938 2094 
Q 2938 2591 2744 2837 
Q 2550 3084 2163 3084 
Q 1697 3084 1428 2787 
Q 1159 2491 1159 1978 
L 1159 0 
L 581 0 
L 581 4863 
L 1159 4863 
L 1159 2956 
Q 1366 3272 1645 3428 
Q 1925 3584 2291 3584 
Q 2894 3584 3203 3211 
Q 3513 2838 3513 2113 
z
" transform="scale(0.015625)"/>
      </defs>
      <use xlink:href="#DejaVuSans-57"/>
      <use xlink:href="#DejaVuSans-61" x="92.501953"/>
      <use xlink:href="#DejaVuSans-76" x="153.78125"/>
      <use xlink:href="#DejaVuSans-65" x="212.960938"/>
      <use xlink:href="#DejaVuSans-6c" x="274.484375"/>
      <use xlink:href="#DejaVuSans-65" x="302.267578"/>
      <use xlink:href="#DejaVuSans-6e" x="363.791016"/>
      <use xlink:href="#DejaVuSans-67" x="427.169922"/>
      <use xlink:href="#DejaVuSans-74" x="490.646484"/>
      <use xlink:href="#DejaVuSans-68" x="529.855469"/>
      <use xlink:href="#DejaVuSans-20" x="593.234375"/>
      <use xlink:href="#DejaVuSans-28" x="625.021484"/>
      <use xlink:href="#DejaVuSans-6e" x="664.035156"/>
      <use xlink:href="#DejaVuSans-6d" x="727.414062"/>
      <use xlink:href="#DejaVuSans-29" x="824.826172"/>
     </g>
    </g>
   </g>
   <g id="matplotlib.axis_4">
    <g id="ytick_8">
     <g id="line2d_27">
      <g>
       <use xlink:href="#m61dc259579" x="454.479595" y="246.04" style="stroke: #000000; stroke-width: 0.8"/>
      </g>
     </g>
     <g id="text_26">
      <!-- 0.0 -->
      <g transform="translate(431.57647 249.839219) scale(0.1 -0.1)">
       <defs>
        <path id="DejaVuSans-2e" d="M 684 794 
L 1344 794 
L 1344 0 
L 684 0 
L 684 794 
z
" transform="scale(0.015625)"/>
       </defs>
       <use xlink:href="#DejaVuSans-30"/>
       <use xlink:href="#DejaVuSans-2e" x="63.623047"/>
       <use xlink:href="#DejaVuSans-30" x="95.410156"/>
      </g>
     </g>
    </g>
    <g id="ytick_9">
     <g id="line2d_28">
      <g>
       <use xlink:href="#m61dc259579" x="454.479595" y="203.269091" style="stroke: #000000; stroke-width: 0.8"/>
      </g>
     </g>
     <g id="text_27">
      <!-- 0.2 -->
      <g transform="translate(431.57647 207.06831) scale(0.1 -0.1)">
       <use xlink:href="#DejaVuSans-30"/>
       <use xlink:href="#DejaVuSans-2e" x="63.623047"/>
       <use xlink:href="#DejaVuSans-32" x="95.410156"/>
      </g>
     </g>
    </g>
    <g id="ytick_10">
     <g id="line2d_29">
      <g>
       <use xlink:href="#m61dc259579" x="454.479595" y="160.498182" style="stroke: #000000; stroke-width: 0.8"/>
      </g>
     </g>
     <g id="text_28">
      <!-- 0.4 -->
      <g transform="translate(431.57647 164.297401) scale(0.1 -0.1)">
       <use xlink:href="#DejaVuSans-30"/>
       <use xlink:href="#DejaVuSans-2e" x="63.623047"/>
       <use xlink:href="#DejaVuSans-34" x="95.410156"/>
      </g>
     </g>
    </g>
    <g id="ytick_11">
     <g id="line2d_30">
      <g>
       <use xlink:href="#m61dc259579" x="454.479595" y="117.727273" style="stroke: #000000; stroke-width: 0.8"/>
      </g>
     </g>
     <g id="text_29">
      <!-- 0.6 -->
      <g transform="translate(431.57647 121.526491) scale(0.1 -0.1)">
       <use xlink:href="#DejaVuSans-30"/>
       <use xlink:href="#DejaVuSans-2e" x="63.623047"/>
       <use xlink:href="#DejaVuSans-36" x="95.410156"/>
      </g>
     </g>
    </g>
    <g id="ytick_12">
     <g id="line2d_31">
      <g>
       <use xlink:href="#m61dc259579" x="454.479595" y="74.956364" style="stroke: #000000; stroke-width: 0.8"/>
      </g>
     </g>
     <g id="text_30">
      <!-- 0.8 -->
      <g transform="translate(431.57647 78.755582) scale(0.1 -0.1)">
       <use xlink:href="#DejaVuSans-30"/>
       <use xlink:href="#DejaVuSans-2e" x="63.623047"/>
       <use xlink:href="#DejaVuSans-38" x="95.410156"/>
      </g>
     </g>
    </g>
    <g id="ytick_13">
     <g id="line2d_32">
      <g>
       <use xlink:href="#m61dc259579" x="454.479595" y="32.185455" style="stroke: #000000; stroke-width: 0.8"/>
      </g>
     </g>
     <g id="text_31">
      <!-- 1.0 -->
      <g transform="translate(431.57647 35.984673) scale(0.1 -0.1)">
       <use xlink:href="#DejaVuSans-31"/>
       <use xlink:href="#DejaVuSans-2e" x="63.623047"/>
       <use xlink:href="#DejaVuSans-30" x="95.410156"/>
      </g>
     </g>
    </g>
    <g id="text_32">
     <!-- EQE -->
     <g transform="translate(425.496782 138.674688) rotate(-90) scale(0.1 -0.1)">
      <defs>
       <path id="DejaVuSans-45" d="M 628 4666 
L 3578 4666 
L 3578 4134 
L 1259 4134 
L 1259 2753 
L 3481 2753 
L 3481 2222 
L 1259 2222 
L 1259 531 
L 3634 531 
L 3634 0 
L 628 0 
L 628 4666 
z
" transform="scale(0.015625)"/>
       <path id="DejaVuSans-51" d="M 2522 4238 
Q 1834 4238 1429 3725 
Q 1025 3213 1025 2328 
Q 1025 1447 1429 934 
Q 1834 422 2522 422 
Q 3209 422 3611 934 
Q 4013 1447 4013 2328 
Q 4013 3213 3611 3725 
Q 3209 4238 2522 4238 
z
M 3406 84 
L 4238 -825 
L 3475 -825 
L 2784 -78 
Q 2681 -84 2626 -87 
Q 2572 -91 2522 -91 
Q 1538 -91 948 567 
Q 359 1225 359 2328 
Q 359 3434 948 4092 
Q 1538 4750 2522 4750 
Q 3503 4750 4090 4092 
Q 4678 3434 4678 2328 
Q 4678 1516 4351 937 
Q 4025 359 3406 84 
z
" transform="scale(0.015625)"/>
      </defs>
      <use xlink:href="#DejaVuSans-45"/>
      <use xlink:href="#DejaVuSans-51" x="63.183594"/>
      <use xlink:href="#DejaVuSans-45" x="141.894531"/>
     </g>
    </g>
   </g>
   <g id="line2d_33">
    <path d="M 454.479595 164.273027 
L 456.490464 158.917664 
L 459.506767 153.758086 
L 461.517636 149.438508 
L 466.544809 137.51705 
L 469.561113 128.110996 
L 470.566547 124.091729 
L 471.571982 119.402829 
L 473.582851 112.694255 
L 478.610023 98.980174 
L 480.620892 93.923003 
L 485.648065 83.544818 
L 487.658934 79.014836 
L 489.669803 72.92615 
L 492.686106 63.730977 
L 494.696975 58.095345 
L 497.713279 51.820471 
L 498.718714 50.3344 
L 500.729583 47.948517 
L 502.740452 46.072093 
L 504.751321 44.486548 
L 506.76219 43.181743 
L 509.778493 41.524041 
L 512.794797 40.157155 
L 515.8111 39.152577 
L 518.827404 38.411009 
L 522.849142 37.712738 
L 524.860011 37.611618 
L 529.887183 37.738807 
L 542.957832 38.210213 
L 557.033915 38.364513 
L 565.077392 38.440607 
L 575.131737 37.916669 
L 580.158909 37.43631 
L 584.180647 36.816862 
L 587.196951 36.113459 
L 591.218689 34.928386 
L 595.240427 34.56321 
L 610.321945 34.0786 
L 615.349117 34.133742 
L 626.408897 34.540372 
L 634.452373 35.459898 
L 637.468677 35.837331 
L 641.490415 35.934031 
L 643.501284 36.018929 
L 646.517587 36.440756 
L 648.528456 36.824736 
L 650.539325 37.508294 
L 652.550194 38.410187 
L 654.561063 39.608503 
L 656.571932 40.951034 
L 659.588236 43.238764 
L 660.59367 44.71485 
L 661.599105 50.048231 
L 663.609974 54.126012 
L 665.620843 58.891689 
L 669.642581 73.221624 
L 671.65345 82.254072 
L 673.664319 92.151182 
L 675.675188 103.698728 
L 676.680623 110.42101 
L 677.686057 117.913273 
L 679.696926 135.471199 
L 681.707795 156.570019 
L 683.718664 181.250695 
L 684.724099 195.0813 
L 685.729533 203.875135 
L 687.740402 204.621927 
L 688.745837 203.365093 
L 689.751271 213.531146 
L 690.756706 216.329024 
L 692.767575 217.854871 
L 695.783878 219.918528 
L 697.794747 221.055866 
L 698.800182 221.566592 
L 699.805617 221.794772 
L 700.811051 225.261859 
L 701.816486 215.31892 
L 703.827355 226.199223 
L 704.832789 226.394938 
L 708.854527 226.526825 
L 710.865396 226.405396 
L 717.903438 225.674969 
L 720.919741 225.78547 
L 723.936045 225.895392 
L 726.952348 225.732605 
L 728.963217 225.487566 
L 729.968652 245.660758 
L 730.974086 229.948643 
L 731.979521 185.057672 
L 732.984956 212.701432 
L 733.99039 243.849327 
L 734.995825 246.04 
L 756.109949 246.04 
L 756.109949 246.04 
" clip-path="url(#pa232374b2b)" style="fill: none; stroke: #0000ff; stroke-width: 1.5; stroke-linecap: square"/>
   </g>
   <g id="line2d_34">
    <path d="M 454.479595 109.316556 
L 455.485029 110.28111 
L 456.490464 111.047323 
L 457.495898 111.034085 
L 458.501333 110.823669 
L 459.506767 110.2255 
L 460.512202 109.175277 
L 461.517636 107.547909 
L 463.528506 103.691543 
L 465.539375 99.21005 
L 466.544809 96.715379 
L 468.555678 90.993111 
L 469.561113 88.351625 
L 471.571982 82.121743 
L 473.582851 77.830878 
L 478.610023 69.545791 
L 480.620892 66.646594 
L 481.626327 65.422898 
L 483.637196 64.518721 
L 484.64263 64.100979 
L 487.658934 62.140323 
L 488.664368 60.55035 
L 495.70241 48.075823 
L 497.713279 45.300615 
L 499.724148 42.96484 
L 501.735017 40.989978 
L 503.745886 39.450124 
L 505.756755 38.158222 
L 507.767624 37.137502 
L 510.783928 35.897169 
L 512.794797 35.27525 
L 515.8111 34.650842 
L 518.827404 34.288897 
L 522.849142 34.099001 
L 525.865445 34.166117 
L 531.898053 34.569806 
L 543.963267 35.481177 
L 554.017612 35.941649 
L 562.061088 36.143206 
L 568.093695 36.112858 
L 576.137171 35.873915 
L 583.175213 35.483483 
L 588.202385 35.021818 
L 593.229558 34.594035 
L 599.262165 34.349423 
L 610.321945 34.06041 
L 616.354552 34.112092 
L 628.419766 34.662454 
L 633.446939 35.019816 
L 643.501284 36.194783 
L 648.528456 37.345478 
L 651.54476 38.433516 
L 653.555629 39.327126 
L 657.577367 41.493636 
L 659.588236 42.717978 
L 660.59367 44.024218 
L 661.599105 48.831733 
L 663.609974 52.661028 
L 665.620843 57.340996 
L 668.637147 67.903614 
L 670.648016 76.479503 
L 673.664319 91.688608 
L 675.675188 103.588855 
L 677.686057 118.04668 
L 679.696926 135.709569 
L 681.707795 156.783415 
L 683.718664 181.354529 
L 684.724099 195.119136 
L 685.729533 203.87462 
L 687.740402 204.603722 
L 688.745837 203.337891 
L 689.751271 213.506277 
L 690.756706 216.301289 
L 692.767575 217.822074 
L 695.783878 219.886416 
L 697.794747 221.027181 
L 698.800182 221.539985 
L 699.805617 221.769545 
L 700.811051 225.240372 
L 701.816486 215.288748 
L 703.827355 226.179823 
L 704.832789 226.37601 
L 708.854527 226.508029 
L 710.865396 226.385781 
L 717.903438 225.652671 
L 720.919741 225.763982 
L 723.936045 225.87518 
L 726.952348 225.713119 
L 728.963217 225.468012 
L 729.968652 245.599192 
L 730.974086 229.932892 
L 731.979521 185.005329 
L 732.984956 212.669866 
L 733.99039 243.846717 
L 734.995825 246.023103 
L 742.033866 246.039861 
L 756.109949 246.04 
L 756.109949 246.04 
" clip-path="url(#pa232374b2b)" style="fill: none; stroke: #000000; stroke-width: 1.5; stroke-linecap: square"/>
   </g>
   <g id="patch_8">
    <path d="M 454.479595 246.04 
L 454.479595 10.8 
" style="fill: none; stroke: #000000; stroke-width: 0.8; stroke-linejoin: miter; stroke-linecap: square"/>
   </g>
   <g id="patch_9">
    <path d="M 799.2 246.04 
L 799.2 10.8 
" style="fill: none; stroke: #000000; stroke-width: 0.8; stroke-linejoin: miter; stroke-linecap: square"/>
   </g>
   <g id="patch_10">
    <path d="M 454.479595 246.04 
L 799.2 246.04 
" style="fill: none; stroke: #000000; stroke-width: 0.8; stroke-linejoin: miter; stroke-linecap: square"/>
   </g>
   <g id="patch_11">
    <path d="M 454.479595 10.8 
L 799.2 10.8 
" style="fill: none; stroke: #000000; stroke-width: 0.8; stroke-linejoin: miter; stroke-linecap: square"/>
   </g>
   <g id="legend_1">
    <g id="line2d_35">
     <path d="M 688.190625 23.898438 
L 698.190625 23.898438 
L 708.190625 23.898438 
" style="fill: none; stroke: #0000ff; stroke-width: 1.5; stroke-linecap: square"/>
    </g>
    <g id="text_33">
     <!-- EQE GaInP -->
     <g transform="translate(716.190625 27.398438) scale(0.1 -0.1)">
      <defs>
       <path id="DejaVuSans-47" d="M 3809 666 
L 3809 1919 
L 2778 1919 
L 2778 2438 
L 4434 2438 
L 4434 434 
Q 4069 175 3628 42 
Q 3188 -91 2688 -91 
Q 1594 -91 976 548 
Q 359 1188 359 2328 
Q 359 3472 976 4111 
Q 1594 4750 2688 4750 
Q 3144 4750 3555 4637 
Q 3966 4525 4313 4306 
L 4313 3634 
Q 3963 3931 3569 4081 
Q 3175 4231 2741 4231 
Q 1884 4231 1454 3753 
Q 1025 3275 1025 2328 
Q 1025 1384 1454 906 
Q 1884 428 2741 428 
Q 3075 428 3337 486 
Q 3600 544 3809 666 
z
" transform="scale(0.015625)"/>
       <path id="DejaVuSans-49" d="M 628 4666 
L 1259 4666 
L 1259 0 
L 628 0 
L 628 4666 
z
" transform="scale(0.015625)"/>
      </defs>
      <use xlink:href="#DejaVuSans-45"/>
      <use xlink:href="#DejaVuSans-51" x="63.183594"/>
      <use xlink:href="#DejaVuSans-45" x="141.894531"/>
      <use xlink:href="#DejaVuSans-20" x="205.078125"/>
      <use xlink:href="#DejaVuSans-47" x="236.865234"/>
      <use xlink:href="#DejaVuSans-61" x="314.355469"/>
      <use xlink:href="#DejaVuSans-49" x="375.634766"/>
      <use xlink:href="#DejaVuSans-6e" x="405.126953"/>
      <use xlink:href="#DejaVuSans-50" x="468.505859"/>
     </g>
    </g>
    <g id="line2d_36">
     <path d="M 688.190625 38.576562 
L 698.190625 38.576562 
L 708.190625 38.576562 
" style="fill: none; stroke: #000000; stroke-width: 1.5; stroke-linecap: square"/>
    </g>
    <g id="text_34">
     <!-- Total Absorbed -->
     <g transform="translate(716.190625 42.076562) scale(0.1 -0.1)">
      <defs>
       <path id="DejaVuSans-54" d="M -19 4666 
L 3928 4666 
L 3928 4134 
L 2272 4134 
L 2272 0 
L 1638 0 
L 1638 4134 
L -19 4134 
L -19 4666 
z
" transform="scale(0.015625)"/>
       <path id="DejaVuSans-41" d="M 2188 4044 
L 1331 1722 
L 3047 1722 
L 2188 4044 
z
M 1831 4666 
L 2547 4666 
L 4325 0 
L 3669 0 
L 3244 1197 
L 1141 1197 
L 716 0 
L 50 0 
L 1831 4666 
z
" transform="scale(0.015625)"/>
       <path id="DejaVuSans-62" d="M 3116 1747 
Q 3116 2381 2855 2742 
Q 2594 3103 2138 3103 
Q 1681 3103 1420 2742 
Q 1159 2381 1159 1747 
Q 1159 1113 1420 752 
Q 1681 391 2138 391 
Q 2594 391 2855 752 
Q 3116 1113 3116 1747 
z
M 1159 2969 
Q 1341 3281 1617 3432 
Q 1894 3584 2278 3584 
Q 2916 3584 3314 3078 
Q 3713 2572 3713 1747 
Q 3713 922 3314 415 
Q 2916 -91 2278 -91 
Q 1894 -91 1617 61 
Q 1341 213 1159 525 
L 1159 0 
L 581 0 
L 581 4863 
L 1159 4863 
L 1159 2969 
z
" transform="scale(0.015625)"/>
      </defs>
      <use xlink:href="#DejaVuSans-54"/>
      <use xlink:href="#DejaVuSans-6f" x="44.083984"/>
      <use xlink:href="#DejaVuSans-74" x="105.265625"/>
      <use xlink:href="#DejaVuSans-61" x="144.474609"/>
      <use xlink:href="#DejaVuSans-6c" x="205.753906"/>
      <use xlink:href="#DejaVuSans-20" x="233.537109"/>
      <use xlink:href="#DejaVuSans-41" x="265.324219"/>
      <use xlink:href="#DejaVuSans-62" x="333.732422"/>
      <use xlink:href="#DejaVuSans-73" x="397.208984"/>
      <use xlink:href="#DejaVuSans-6f" x="449.308594"/>
      <use xlink:href="#DejaVuSans-72" x="510.490234"/>
      <use xlink:href="#DejaVuSans-62" x="551.603516"/>
      <use xlink:href="#DejaVuSans-65" x="615.080078"/>
      <use xlink:href="#DejaVuSans-64" x="676.603516"/>
     </g>
    </g>
   </g>
  </g>
 </g>
 <defs>
  <clipPath id="p0e94c4e46b">
   <rect x="61.367804" y="10.8" width="344.720405" height="235.24"/>
  </clipPath>
  <clipPath id="pa232374b2b">
   <rect x="454.479595" y="10.8" width="344.720405" height="235.24"/>
  </clipPath>
 </defs>
</svg>
