<?xml version="1.0" encoding="utf-8" standalone="no"?>
<!DOCTYPE svg PUBLIC "-//W3C//DTD SVG 1.1//EN"
  "http://www.w3.org/Graphics/SVG/1.1/DTD/svg11.dtd">
<svg xmlns:xlink="http://www.w3.org/1999/xlink" width="810pt" height="288pt" viewBox="0 0 810 288" xmlns="http://www.w3.org/2000/svg" version="1.1">
 <metadata>
  <rdf:RDF xmlns:dc="http://purl.org/dc/elements/1.1/" xmlns:cc="http://creativecommons.org/ns#" xmlns:rdf="http://www.w3.org/1999/02/22-rdf-syntax-ns#">
   <cc:Work>
    <dc:type rdf:resource="http://purl.org/dc/dcmitype/StillImage"/>
    <dc:date>2023-11-01T12:18:55.914057</dc:date>
    <dc:format>image/svg+xml</dc:format>
    <dc:creator>
     <cc:Agent>
      <dc:title>Matplotlib v3.8.0, https://matplotlib.org/</dc:title>
     </cc:Agent>
    </dc:creator>
   </cc:Work>
  </rdf:RDF>
 </metadata>
 <defs>
  <style type="text/css">*{stroke-linejoin: round; stroke-linecap: butt}</style>
 </defs>
 <g id="figure_1">
  <g id="patch_1">
   <path d="M 0 288 
L 810 288 
L 810 0 
L 0 0 
z
" style="fill: #ffffff"/>
  </g>
  <g id="axes_1">
   <g id="patch_2">
    <path d="M 61.367804 246.04 
L 406.423902 246.04 
L 406.423902 10.8 
L 61.367804 10.8 
z
" style="fill: #ffffff"/>
   </g>
   <g id="matplotlib.axis_1">
    <g id="xtick_1">
     <g id="line2d_1">
      <defs>
       <path id="mac8f038404" d="M 0 0 
L 0 3.5 
" style="stroke: #000000; stroke-width: 0.8"/>
      </defs>
      <g>
       <use xlink:href="#mac8f038404" x="111.789363" y="246.04" style="stroke: #000000; stroke-width: 0.8"/>
      </g>
     </g>
     <g id="text_1">
      <!-- 500 -->
      <g transform="translate(102.245613 260.638438) scale(0.1 -0.1)">
       <defs>
        <path id="DejaVuSans-35" d="M 691 4666 
L 3169 4666 
L 3169 4134 
L 1269 4134 
L 1269 2991 
Q 1406 3038 1543 3061 
Q 1681 3084 1819 3084 
Q 2600 3084 3056 2656 
Q 3513 2228 3513 1497 
Q 3513 744 3044 326 
Q 2575 -91 1722 -91 
Q 1428 -91 1123 -41 
Q 819 9 494 109 
L 494 744 
Q 775 591 1075 516 
Q 1375 441 1709 441 
Q 2250 441 2565 725 
Q 2881 1009 2881 1497 
Q 2881 1984 2565 2268 
Q 2250 2553 1709 2553 
Q 1456 2553 1204 2497 
Q 953 2441 691 2322 
L 691 4666 
z
" transform="scale(0.015625)"/>
        <path id="DejaVuSans-30" d="M 2034 4250 
Q 1547 4250 1301 3770 
Q 1056 3291 1056 2328 
Q 1056 1369 1301 889 
Q 1547 409 2034 409 
Q 2525 409 2770 889 
Q 3016 1369 3016 2328 
Q 3016 3291 2770 3770 
Q 2525 4250 2034 4250 
z
M 2034 4750 
Q 2819 4750 3233 4129 
Q 3647 3509 3647 2328 
Q 3647 1150 3233 529 
Q 2819 -91 2034 -91 
Q 1250 -91 836 529 
Q 422 1150 422 2328 
Q 422 3509 836 4129 
Q 1250 4750 2034 4750 
z
" transform="scale(0.015625)"/>
       </defs>
       <use xlink:href="#DejaVuSans-35"/>
       <use xlink:href="#DejaVuSans-30" x="63.623047"/>
       <use xlink:href="#DejaVuSans-30" x="127.246094"/>
      </g>
     </g>
    </g>
    <g id="xtick_2">
     <g id="line2d_2">
      <g>
       <use xlink:href="#mac8f038404" x="164.421471" y="246.04" style="stroke: #000000; stroke-width: 0.8"/>
      </g>
     </g>
     <g id="text_2">
      <!-- 1000 -->
      <g transform="translate(151.696471 260.638438) scale(0.1 -0.1)">
       <defs>
        <path id="DejaVuSans-31" d="M 794 531 
L 1825 531 
L 1825 4091 
L 703 3866 
L 703 4441 
L 1819 4666 
L 2450 4666 
L 2450 531 
L 3481 531 
L 3481 0 
L 794 0 
L 794 531 
z
" transform="scale(0.015625)"/>
       </defs>
       <use xlink:href="#DejaVuSans-31"/>
       <use xlink:href="#DejaVuSans-30" x="63.623047"/>
       <use xlink:href="#DejaVuSans-30" x="127.246094"/>
       <use xlink:href="#DejaVuSans-30" x="190.869141"/>
      </g>
     </g>
    </g>
    <g id="xtick_3">
     <g id="line2d_3">
      <g>
       <use xlink:href="#mac8f038404" x="217.053578" y="246.04" style="stroke: #000000; stroke-width: 0.8"/>
      </g>
     </g>
     <g id="text_3">
      <!-- 1500 -->
      <g transform="translate(204.328578 260.638438) scale(0.1 -0.1)">
       <use xlink:href="#DejaVuSans-31"/>
       <use xlink:href="#DejaVuSans-35" x="63.623047"/>
       <use xlink:href="#DejaVuSans-30" x="127.246094"/>
       <use xlink:href="#DejaVuSans-30" x="190.869141"/>
      </g>
     </g>
    </g>
    <g id="xtick_4">
     <g id="line2d_4">
      <g>
       <use xlink:href="#mac8f038404" x="269.685686" y="246.04" style="stroke: #000000; stroke-width: 0.8"/>
      </g>
     </g>
     <g id="text_4">
      <!-- 2000 -->
      <g transform="translate(256.960686 260.638438) scale(0.1 -0.1)">
       <defs>
        <path id="DejaVuSans-32" d="M 1228 531 
L 3431 531 
L 3431 0 
L 469 0 
L 469 531 
Q 828 903 1448 1529 
Q 2069 2156 2228 2338 
Q 2531 2678 2651 2914 
Q 2772 3150 2772 3378 
Q 2772 3750 2511 3984 
Q 2250 4219 1831 4219 
Q 1534 4219 1204 4116 
Q 875 4013 500 3803 
L 500 4441 
Q 881 4594 1212 4672 
Q 1544 4750 1819 4750 
Q 2544 4750 2975 4387 
Q 3406 4025 3406 3419 
Q 3406 3131 3298 2873 
Q 3191 2616 2906 2266 
Q 2828 2175 2409 1742 
Q 1991 1309 1228 531 
z
" transform="scale(0.015625)"/>
       </defs>
       <use xlink:href="#DejaVuSans-32"/>
       <use xlink:href="#DejaVuSans-30" x="63.623047"/>
       <use xlink:href="#DejaVuSans-30" x="127.246094"/>
       <use xlink:href="#DejaVuSans-30" x="190.869141"/>
      </g>
     </g>
    </g>
    <g id="xtick_5">
     <g id="line2d_5">
      <g>
       <use xlink:href="#mac8f038404" x="322.317794" y="246.04" style="stroke: #000000; stroke-width: 0.8"/>
      </g>
     </g>
     <g id="text_5">
      <!-- 2500 -->
      <g transform="translate(309.592794 260.638438) scale(0.1 -0.1)">
       <use xlink:href="#DejaVuSans-32"/>
       <use xlink:href="#DejaVuSans-35" x="63.623047"/>
       <use xlink:href="#DejaVuSans-30" x="127.246094"/>
       <use xlink:href="#DejaVuSans-30" x="190.869141"/>
      </g>
     </g>
    </g>
    <g id="xtick_6">
     <g id="line2d_6">
      <g>
       <use xlink:href="#mac8f038404" x="374.949902" y="246.04" style="stroke: #000000; stroke-width: 0.8"/>
      </g>
     </g>
     <g id="text_6">
      <!-- 3000 -->
      <g transform="translate(362.224902 260.638438) scale(0.1 -0.1)">
       <defs>
        <path id="DejaVuSans-33" d="M 2597 2516 
Q 3050 2419 3304 2112 
Q 3559 1806 3559 1356 
Q 3559 666 3084 287 
Q 2609 -91 1734 -91 
Q 1441 -91 1130 -33 
Q 819 25 488 141 
L 488 750 
Q 750 597 1062 519 
Q 1375 441 1716 441 
Q 2309 441 2620 675 
Q 2931 909 2931 1356 
Q 2931 1769 2642 2001 
Q 2353 2234 1838 2234 
L 1294 2234 
L 1294 2753 
L 1863 2753 
Q 2328 2753 2575 2939 
Q 2822 3125 2822 3475 
Q 2822 3834 2567 4026 
Q 2313 4219 1838 4219 
Q 1578 4219 1281 4162 
Q 984 4106 628 3988 
L 628 4550 
Q 988 4650 1302 4700 
Q 1616 4750 1894 4750 
Q 2613 4750 3031 4423 
Q 3450 4097 3450 3541 
Q 3450 3153 3228 2886 
Q 3006 2619 2597 2516 
z
" transform="scale(0.015625)"/>
       </defs>
       <use xlink:href="#DejaVuSans-33"/>
       <use xlink:href="#DejaVuSans-30" x="63.623047"/>
       <use xlink:href="#DejaVuSans-30" x="127.246094"/>
       <use xlink:href="#DejaVuSans-30" x="190.869141"/>
      </g>
     </g>
    </g>
    <g id="text_7">
     <!-- Position (nm) -->
     <g transform="translate(200.902103 274.316562) scale(0.1 -0.1)">
      <defs>
       <path id="DejaVuSans-50" d="M 1259 4147 
L 1259 2394 
L 2053 2394 
Q 2494 2394 2734 2622 
Q 2975 2850 2975 3272 
Q 2975 3691 2734 3919 
Q 2494 4147 2053 4147 
L 1259 4147 
z
M 628 4666 
L 2053 4666 
Q 2838 4666 3239 4311 
Q 3641 3956 3641 3272 
Q 3641 2581 3239 2228 
Q 2838 1875 2053 1875 
L 1259 1875 
L 1259 0 
L 628 0 
L 628 4666 
z
" transform="scale(0.015625)"/>
       <path id="DejaVuSans-6f" d="M 1959 3097 
Q 1497 3097 1228 2736 
Q 959 2375 959 1747 
Q 959 1119 1226 758 
Q 1494 397 1959 397 
Q 2419 397 2687 759 
Q 2956 1122 2956 1747 
Q 2956 2369 2687 2733 
Q 2419 3097 1959 3097 
z
M 1959 3584 
Q 2709 3584 3137 3096 
Q 3566 2609 3566 1747 
Q 3566 888 3137 398 
Q 2709 -91 1959 -91 
Q 1206 -91 779 398 
Q 353 888 353 1747 
Q 353 2609 779 3096 
Q 1206 3584 1959 3584 
z
" transform="scale(0.015625)"/>
       <path id="DejaVuSans-73" d="M 2834 3397 
L 2834 2853 
Q 2591 2978 2328 3040 
Q 2066 3103 1784 3103 
Q 1356 3103 1142 2972 
Q 928 2841 928 2578 
Q 928 2378 1081 2264 
Q 1234 2150 1697 2047 
L 1894 2003 
Q 2506 1872 2764 1633 
Q 3022 1394 3022 966 
Q 3022 478 2636 193 
Q 2250 -91 1575 -91 
Q 1294 -91 989 -36 
Q 684 19 347 128 
L 347 722 
Q 666 556 975 473 
Q 1284 391 1588 391 
Q 1994 391 2212 530 
Q 2431 669 2431 922 
Q 2431 1156 2273 1281 
Q 2116 1406 1581 1522 
L 1381 1569 
Q 847 1681 609 1914 
Q 372 2147 372 2553 
Q 372 3047 722 3315 
Q 1072 3584 1716 3584 
Q 2034 3584 2315 3537 
Q 2597 3491 2834 3397 
z
" transform="scale(0.015625)"/>
       <path id="DejaVuSans-69" d="M 603 3500 
L 1178 3500 
L 1178 0 
L 603 0 
L 603 3500 
z
M 603 4863 
L 1178 4863 
L 1178 4134 
L 603 4134 
L 603 4863 
z
" transform="scale(0.015625)"/>
       <path id="DejaVuSans-74" d="M 1172 4494 
L 1172 3500 
L 2356 3500 
L 2356 3053 
L 1172 3053 
L 1172 1153 
Q 1172 725 1289 603 
Q 1406 481 1766 481 
L 2356 481 
L 2356 0 
L 1766 0 
Q 1100 0 847 248 
Q 594 497 594 1153 
L 594 3053 
L 172 3053 
L 172 3500 
L 594 3500 
L 594 4494 
L 1172 4494 
z
" transform="scale(0.015625)"/>
       <path id="DejaVuSans-6e" d="M 3513 2113 
L 3513 0 
L 2938 0 
L 2938 2094 
Q 2938 2591 2744 2837 
Q 2550 3084 2163 3084 
Q 1697 3084 1428 2787 
Q 1159 2491 1159 1978 
L 1159 0 
L 581 0 
L 581 3500 
L 1159 3500 
L 1159 2956 
Q 1366 3272 1645 3428 
Q 1925 3584 2291 3584 
Q 2894 3584 3203 3211 
Q 3513 2838 3513 2113 
z
" transform="scale(0.015625)"/>
       <path id="DejaVuSans-20" transform="scale(0.015625)"/>
       <path id="DejaVuSans-28" d="M 1984 4856 
Q 1566 4138 1362 3434 
Q 1159 2731 1159 2009 
Q 1159 1288 1364 580 
Q 1569 -128 1984 -844 
L 1484 -844 
Q 1016 -109 783 600 
Q 550 1309 550 2009 
Q 550 2706 781 3412 
Q 1013 4119 1484 4856 
L 1984 4856 
z
" transform="scale(0.015625)"/>
       <path id="DejaVuSans-6d" d="M 3328 2828 
Q 3544 3216 3844 3400 
Q 4144 3584 4550 3584 
Q 5097 3584 5394 3201 
Q 5691 2819 5691 2113 
L 5691 0 
L 5113 0 
L 5113 2094 
Q 5113 2597 4934 2840 
Q 4756 3084 4391 3084 
Q 3944 3084 3684 2787 
Q 3425 2491 3425 1978 
L 3425 0 
L 2847 0 
L 2847 2094 
Q 2847 2600 2669 2842 
Q 2491 3084 2119 3084 
Q 1678 3084 1418 2786 
Q 1159 2488 1159 1978 
L 1159 0 
L 581 0 
L 581 3500 
L 1159 3500 
L 1159 2956 
Q 1356 3278 1631 3431 
Q 1906 3584 2284 3584 
Q 2666 3584 2933 3390 
Q 3200 3197 3328 2828 
z
" transform="scale(0.015625)"/>
       <path id="DejaVuSans-29" d="M 513 4856 
L 1013 4856 
Q 1481 4119 1714 3412 
Q 1947 2706 1947 2009 
Q 1947 1309 1714 600 
Q 1481 -109 1013 -844 
L 513 -844 
Q 928 -128 1133 580 
Q 1338 1288 1338 2009 
Q 1338 2731 1133 3434 
Q 928 4138 513 4856 
z
" transform="scale(0.015625)"/>
      </defs>
      <use xlink:href="#DejaVuSans-50"/>
      <use xlink:href="#DejaVuSans-6f" x="56.677734"/>
      <use xlink:href="#DejaVuSans-73" x="117.859375"/>
      <use xlink:href="#DejaVuSans-69" x="169.958984"/>
      <use xlink:href="#DejaVuSans-74" x="197.742188"/>
      <use xlink:href="#DejaVuSans-69" x="236.951172"/>
      <use xlink:href="#DejaVuSans-6f" x="264.734375"/>
      <use xlink:href="#DejaVuSans-6e" x="325.916016"/>
      <use xlink:href="#DejaVuSans-20" x="389.294922"/>
      <use xlink:href="#DejaVuSans-28" x="421.082031"/>
      <use xlink:href="#DejaVuSans-6e" x="460.095703"/>
      <use xlink:href="#DejaVuSans-6d" x="523.474609"/>
      <use xlink:href="#DejaVuSans-29" x="620.886719"/>
     </g>
    </g>
   </g>
   <g id="matplotlib.axis_2">
    <g id="ytick_1">
     <g id="line2d_7">
      <defs>
       <path id="mf0467b0a7e" d="M 0 0 
L -3.5 0 
" style="stroke: #000000; stroke-width: 0.8"/>
      </defs>
      <g>
       <use xlink:href="#mf0467b0a7e" x="61.367804" y="215.178103" style="stroke: #000000; stroke-width: 0.8"/>
      </g>
     </g>
     <g id="text_8">
      <!-- $\mathdefault{10^{-5}}$ -->
      <g transform="translate(30.867804 218.977322) scale(0.1 -0.1)">
       <defs>
        <path id="DejaVuSans-2212" d="M 678 2272 
L 4684 2272 
L 4684 1741 
L 678 1741 
L 678 2272 
z
" transform="scale(0.015625)"/>
       </defs>
       <use xlink:href="#DejaVuSans-31" transform="translate(0 0.684375)"/>
       <use xlink:href="#DejaVuSans-30" transform="translate(63.623047 0.684375)"/>
       <use xlink:href="#DejaVuSans-2212" transform="translate(128.203125 38.965625) scale(0.7)"/>
       <use xlink:href="#DejaVuSans-35" transform="translate(186.855469 38.965625) scale(0.7)"/>
      </g>
     </g>
    </g>
    <g id="ytick_2">
     <g id="line2d_8">
      <g>
       <use xlink:href="#mf0467b0a7e" x="61.367804" y="183.360567" style="stroke: #000000; stroke-width: 0.8"/>
      </g>
     </g>
     <g id="text_9">
      <!-- $\mathdefault{10^{0}}$ -->
      <g transform="translate(36.767804 187.159786) scale(0.1 -0.1)">
       <use xlink:href="#DejaVuSans-31" transform="translate(0 0.765625)"/>
       <use xlink:href="#DejaVuSans-30" transform="translate(63.623047 0.765625)"/>
       <use xlink:href="#DejaVuSans-30" transform="translate(128.203125 39.046875) scale(0.7)"/>
      </g>
     </g>
    </g>
    <g id="ytick_3">
     <g id="line2d_9">
      <g>
       <use xlink:href="#mf0467b0a7e" x="61.367804" y="151.543032" style="stroke: #000000; stroke-width: 0.8"/>
      </g>
     </g>
     <g id="text_10">
      <!-- $\mathdefault{10^{5}}$ -->
      <g transform="translate(36.767804 155.34225) scale(0.1 -0.1)">
       <use xlink:href="#DejaVuSans-31" transform="translate(0 0.684375)"/>
       <use xlink:href="#DejaVuSans-30" transform="translate(63.623047 0.684375)"/>
       <use xlink:href="#DejaVuSans-35" transform="translate(128.203125 38.965625) scale(0.7)"/>
      </g>
     </g>
    </g>
    <g id="ytick_4">
     <g id="line2d_10">
      <g>
       <use xlink:href="#mf0467b0a7e" x="61.367804" y="119.725496" style="stroke: #000000; stroke-width: 0.8"/>
      </g>
     </g>
     <g id="text_11">
      <!-- $\mathdefault{10^{10}}$ -->
      <g transform="translate(32.267804 123.524715) scale(0.1 -0.1)">
       <use xlink:href="#DejaVuSans-31" transform="translate(0 0.765625)"/>
       <use xlink:href="#DejaVuSans-30" transform="translate(63.623047 0.765625)"/>
       <use xlink:href="#DejaVuSans-31" transform="translate(128.203125 39.046875) scale(0.7)"/>
       <use xlink:href="#DejaVuSans-30" transform="translate(172.739258 39.046875) scale(0.7)"/>
      </g>
     </g>
    </g>
    <g id="ytick_5">
     <g id="line2d_11">
      <g>
       <use xlink:href="#mf0467b0a7e" x="61.367804" y="87.90796" style="stroke: #000000; stroke-width: 0.8"/>
      </g>
     </g>
     <g id="text_12">
      <!-- $\mathdefault{10^{15}}$ -->
      <g transform="translate(32.267804 91.707179) scale(0.1 -0.1)">
       <use xlink:href="#DejaVuSans-31" transform="translate(0 0.684375)"/>
       <use xlink:href="#DejaVuSans-30" transform="translate(63.623047 0.684375)"/>
       <use xlink:href="#DejaVuSans-31" transform="translate(128.203125 38.965625) scale(0.7)"/>
       <use xlink:href="#DejaVuSans-35" transform="translate(172.739258 38.965625) scale(0.7)"/>
      </g>
     </g>
    </g>
    <g id="ytick_6">
     <g id="line2d_12">
      <g>
       <use xlink:href="#mf0467b0a7e" x="61.367804" y="56.090424" style="stroke: #000000; stroke-width: 0.8"/>
      </g>
     </g>
     <g id="text_13">
      <!-- $\mathdefault{10^{20}}$ -->
      <g transform="translate(32.267804 59.889643) scale(0.1 -0.1)">
       <use xlink:href="#DejaVuSans-31" transform="translate(0 0.765625)"/>
       <use xlink:href="#DejaVuSans-30" transform="translate(63.623047 0.765625)"/>
       <use xlink:href="#DejaVuSans-32" transform="translate(128.203125 39.046875) scale(0.7)"/>
       <use xlink:href="#DejaVuSans-30" transform="translate(172.739258 39.046875) scale(0.7)"/>
      </g>
     </g>
    </g>
    <g id="ytick_7">
     <g id="line2d_13">
      <g>
       <use xlink:href="#mf0467b0a7e" x="61.367804" y="24.272888" style="stroke: #000000; stroke-width: 0.8"/>
      </g>
     </g>
     <g id="text_14">
      <!-- $\mathdefault{10^{25}}$ -->
      <g transform="translate(32.267804 28.072107) scale(0.1 -0.1)">
       <use xlink:href="#DejaVuSans-31" transform="translate(0 0.765625)"/>
       <use xlink:href="#DejaVuSans-30" transform="translate(63.623047 0.765625)"/>
       <use xlink:href="#DejaVuSans-32" transform="translate(128.203125 39.046875) scale(0.7)"/>
       <use xlink:href="#DejaVuSans-35" transform="translate(172.739258 39.046875) scale(0.7)"/>
      </g>
     </g>
    </g>
    <g id="text_15">
     <!-- Carrier density (m$^{-3}$) -->
     <g transform="translate(24.767804 181.27) rotate(-90) scale(0.1 -0.1)">
      <defs>
       <path id="DejaVuSans-43" d="M 4122 4306 
L 4122 3641 
Q 3803 3938 3442 4084 
Q 3081 4231 2675 4231 
Q 1875 4231 1450 3742 
Q 1025 3253 1025 2328 
Q 1025 1406 1450 917 
Q 1875 428 2675 428 
Q 3081 428 3442 575 
Q 3803 722 4122 1019 
L 4122 359 
Q 3791 134 3420 21 
Q 3050 -91 2638 -91 
Q 1578 -91 968 557 
Q 359 1206 359 2328 
Q 359 3453 968 4101 
Q 1578 4750 2638 4750 
Q 3056 4750 3426 4639 
Q 3797 4528 4122 4306 
z
" transform="scale(0.015625)"/>
       <path id="DejaVuSans-61" d="M 2194 1759 
Q 1497 1759 1228 1600 
Q 959 1441 959 1056 
Q 959 750 1161 570 
Q 1363 391 1709 391 
Q 2188 391 2477 730 
Q 2766 1069 2766 1631 
L 2766 1759 
L 2194 1759 
z
M 3341 1997 
L 3341 0 
L 2766 0 
L 2766 531 
Q 2569 213 2275 61 
Q 1981 -91 1556 -91 
Q 1019 -91 701 211 
Q 384 513 384 1019 
Q 384 1609 779 1909 
Q 1175 2209 1959 2209 
L 2766 2209 
L 2766 2266 
Q 2766 2663 2505 2880 
Q 2244 3097 1772 3097 
Q 1472 3097 1187 3025 
Q 903 2953 641 2809 
L 641 3341 
Q 956 3463 1253 3523 
Q 1550 3584 1831 3584 
Q 2591 3584 2966 3190 
Q 3341 2797 3341 1997 
z
" transform="scale(0.015625)"/>
       <path id="DejaVuSans-72" d="M 2631 2963 
Q 2534 3019 2420 3045 
Q 2306 3072 2169 3072 
Q 1681 3072 1420 2755 
Q 1159 2438 1159 1844 
L 1159 0 
L 581 0 
L 581 3500 
L 1159 3500 
L 1159 2956 
Q 1341 3275 1631 3429 
Q 1922 3584 2338 3584 
Q 2397 3584 2469 3576 
Q 2541 3569 2628 3553 
L 2631 2963 
z
" transform="scale(0.015625)"/>
       <path id="DejaVuSans-65" d="M 3597 1894 
L 3597 1613 
L 953 1613 
Q 991 1019 1311 708 
Q 1631 397 2203 397 
Q 2534 397 2845 478 
Q 3156 559 3463 722 
L 3463 178 
Q 3153 47 2828 -22 
Q 2503 -91 2169 -91 
Q 1331 -91 842 396 
Q 353 884 353 1716 
Q 353 2575 817 3079 
Q 1281 3584 2069 3584 
Q 2775 3584 3186 3129 
Q 3597 2675 3597 1894 
z
M 3022 2063 
Q 3016 2534 2758 2815 
Q 2500 3097 2075 3097 
Q 1594 3097 1305 2825 
Q 1016 2553 972 2059 
L 3022 2063 
z
" transform="scale(0.015625)"/>
       <path id="DejaVuSans-64" d="M 2906 2969 
L 2906 4863 
L 3481 4863 
L 3481 0 
L 2906 0 
L 2906 525 
Q 2725 213 2448 61 
Q 2172 -91 1784 -91 
Q 1150 -91 751 415 
Q 353 922 353 1747 
Q 353 2572 751 3078 
Q 1150 3584 1784 3584 
Q 2172 3584 2448 3432 
Q 2725 3281 2906 2969 
z
M 947 1747 
Q 947 1113 1208 752 
Q 1469 391 1925 391 
Q 2381 391 2643 752 
Q 2906 1113 2906 1747 
Q 2906 2381 2643 2742 
Q 2381 3103 1925 3103 
Q 1469 3103 1208 2742 
Q 947 2381 947 1747 
z
" transform="scale(0.015625)"/>
       <path id="DejaVuSans-79" d="M 2059 -325 
Q 1816 -950 1584 -1140 
Q 1353 -1331 966 -1331 
L 506 -1331 
L 506 -850 
L 844 -850 
Q 1081 -850 1212 -737 
Q 1344 -625 1503 -206 
L 1606 56 
L 191 3500 
L 800 3500 
L 1894 763 
L 2988 3500 
L 3597 3500 
L 2059 -325 
z
" transform="scale(0.015625)"/>
      </defs>
      <use xlink:href="#DejaVuSans-43" transform="translate(0 0.765625)"/>
      <use xlink:href="#DejaVuSans-61" transform="translate(69.824219 0.765625)"/>
      <use xlink:href="#DejaVuSans-72" transform="translate(131.103516 0.765625)"/>
      <use xlink:href="#DejaVuSans-72" transform="translate(172.216797 0.765625)"/>
      <use xlink:href="#DejaVuSans-69" transform="translate(213.330078 0.765625)"/>
      <use xlink:href="#DejaVuSans-65" transform="translate(241.113281 0.765625)"/>
      <use xlink:href="#DejaVuSans-72" transform="translate(302.636719 0.765625)"/>
      <use xlink:href="#DejaVuSans-20" transform="translate(343.75 0.765625)"/>
      <use xlink:href="#DejaVuSans-64" transform="translate(375.537109 0.765625)"/>
      <use xlink:href="#DejaVuSans-65" transform="translate(439.013672 0.765625)"/>
      <use xlink:href="#DejaVuSans-6e" transform="translate(500.537109 0.765625)"/>
      <use xlink:href="#DejaVuSans-73" transform="translate(563.916016 0.765625)"/>
      <use xlink:href="#DejaVuSans-69" transform="translate(616.015625 0.765625)"/>
      <use xlink:href="#DejaVuSans-74" transform="translate(643.798828 0.765625)"/>
      <use xlink:href="#DejaVuSans-79" transform="translate(683.007812 0.765625)"/>
      <use xlink:href="#DejaVuSans-20" transform="translate(742.1875 0.765625)"/>
      <use xlink:href="#DejaVuSans-28" transform="translate(773.974609 0.765625)"/>
      <use xlink:href="#DejaVuSans-6d" transform="translate(812.988281 0.765625)"/>
      <use xlink:href="#DejaVuSans-2212" transform="translate(911.357422 39.046875) scale(0.7)"/>
      <use xlink:href="#DejaVuSans-33" transform="translate(970.009766 39.046875) scale(0.7)"/>
      <use xlink:href="#DejaVuSans-29" transform="translate(1017.280273 0.765625)"/>
     </g>
    </g>
   </g>
   <g id="line2d_14">
    <path d="M 77.052172 26.384143 
L 77.235822 26.478745 
L 77.423166 26.924541 
L 77.625056 28.327825 
L 77.819406 31.610752 
L 78.094288 41.455373 
L 78.104814 23.838563 
L 78.43294 28.065076 
L 78.807057 29.653393 
L 79.246598 30.296208 
L 79.761293 30.533968 
L 81.018338 30.630221 
L 92.55673 30.767856 
L 92.903594 30.935871 
L 93.378869 31.552203 
L 93.739374 32.693075 
L 93.88392 33.429968 
L 94.000062 37.548194 
L 94.936562 42.625974 
L 94.947089 37.996121 
L 95.04709 38.503844 
L 95.147091 39.002246 
L 95.157617 33.299081 
L 95.239467 33.671513 
L 95.71768 35.259834 
L 95.88394 35.636031 
L 95.994468 41.618619 
L 96.094469 41.822068 
L 96.207562 46.738038 
L 98.199753 50.753008 
L 98.210279 46.089485 
L 98.31028 46.28556 
L 98.410281 46.48108 
L 98.420808 40.746878 
L 98.502658 40.901278 
L 99.147131 42.044229 
L 99.257658 47.989804 
L 99.357659 48.162582 
L 99.470752 53.044946 
L 101.462944 56.521539 
L 101.47347 51.855381 
L 101.573471 52.02725 
L 101.673472 52.199041 
L 101.683998 46.462411 
L 101.765849 46.599524 
L 102.410321 47.675801 
L 102.520849 53.618926 
L 102.62085 53.789726 
L 102.733943 58.668174 
L 104.726134 62.040147 
L 104.736661 57.373511 
L 104.836662 57.543241 
L 104.936663 57.712882 
L 104.947189 51.976106 
L 105.029039 52.112548 
L 105.673512 53.192282 
L 105.78404 59.135379 
L 105.884041 59.305956 
L 105.997134 64.171707 
L 107.799204 66.835728 
L 107.989325 67.085603 
L 107.999851 62.417091 
L 108.099852 62.582257 
L 108.199853 62.746948 
L 108.21038 57.010078 
L 108.29223 57.147383 
L 108.936703 58.233691 
L 109.04723 64.167487 
L 109.147231 64.328377 
L 109.260324 69.114852 
L 110.312966 69.854753 
L 111.252516 70.301023 
L 111.263042 65.62771 
L 111.363043 65.779441 
L 111.463044 65.92987 
L 111.47357 60.192523 
L 111.555421 60.329911 
L 112.199894 61.413474 
L 112.310421 67.321671 
L 112.410422 67.456759 
L 112.420948 72.148271 
L 112.523515 72.064561 
L 113.188182 71.683684 
L 114.096799 71.425625 
L 114.515706 71.361839 
L 114.526233 66.685898 
L 114.626234 66.831129 
L 114.726235 66.974642 
L 114.736761 61.237148 
L 114.818611 61.375519 
L 115.463084 62.464789 
L 115.573612 68.359729 
L 115.673613 68.481528 
L 115.684139 73.169025 
L 115.786706 72.995922 
L 116.307348 72.382343 
L 116.964679 71.960069 
L 117.778897 71.69322 
L 117.789423 67.01688 
L 117.889424 67.162599 
L 117.989425 67.306481 
L 117.999952 61.569162 
L 118.081802 61.709366 
L 118.726275 62.812508 
L 118.836802 68.706147 
L 118.936803 68.826411 
L 118.94733 73.513057 
L 119.049896 73.318785 
L 119.570539 72.642078 
L 120.183622 72.208133 
L 121.014102 71.907236 
L 121.042088 71.90051 
L 121.052614 67.224227 
L 121.152615 67.371873 
L 121.252616 67.517616 
L 121.263142 61.780536 
L 121.344993 61.92276 
L 121.989466 63.041517 
L 122.099993 68.936266 
L 122.199994 69.057343 
L 122.21052 73.743765 
L 122.313087 73.541505 
L 122.783404 72.893043 
L 123.404938 72.421269 
L 124.219163 72.107899 
L 124.305278 72.086391 
L 124.315805 67.410228 
L 124.415806 67.560013 
L 124.515807 67.707836 
L 124.526333 61.971007 
L 124.608183 62.115289 
L 125.252656 63.249971 
L 125.363184 69.146156 
L 125.463185 69.268362 
L 125.473711 73.954643 
L 125.576278 73.746119 
L 126.046595 73.081807 
L 126.668129 72.602532 
L 127.45056 72.294763 
L 127.568469 72.264719 
L 127.578995 67.588686 
L 127.678996 67.740648 
L 127.778997 67.890587 
L 127.789524 62.154011 
L 127.871374 62.300362 
L 128.515847 63.45105 
L 128.626374 69.348704 
L 128.726375 69.472069 
L 128.736902 74.158215 
L 128.839468 73.943579 
L 129.309785 73.264059 
L 129.892111 72.800296 
L 130.679218 72.477261 
L 130.83166 72.437645 
L 130.842186 67.761745 
L 130.942187 67.915895 
L 131.042188 68.067965 
L 131.052714 62.331643 
L 131.134565 62.480069 
L 131.779038 63.646794 
L 131.889565 69.545914 
L 131.989566 69.670433 
L 132.000092 74.356444 
L 132.102659 74.135682 
L 132.572976 73.441147 
L 133.155301 72.970993 
L 133.90473 72.65644 
L 134.09485 72.606007 
L 134.105377 67.930242 
L 134.205378 68.086587 
L 134.305379 68.240792 
L 134.315905 62.504724 
L 134.397755 62.655227 
L 135.042228 63.837992 
L 135.152756 69.738566 
L 135.252757 69.864228 
L 135.263283 74.550099 
L 135.36585 74.323161 
L 135.836167 73.613667 
L 136.418492 73.137268 
L 137.16792 72.820624 
L 137.358041 72.770061 
L 137.368567 68.09443 
L 137.468568 68.25297 
L 137.568569 68.409308 
L 137.579096 62.673494 
L 137.660946 62.826074 
L 138.305419 64.024856 
L 138.415946 69.926862 
L 138.515947 70.053643 
L 138.526474 74.739369 
L 138.62904 74.506166 
L 139.099357 73.781668 
L 139.681683 73.299125 
L 140.431111 72.980516 
L 140.621232 72.929851 
L 140.631758 68.254355 
L 140.731759 68.415089 
L 140.83176 68.573559 
L 140.842287 62.837999 
L 140.924137 62.992652 
L 141.56861 64.207416 
L 141.679137 70.110835 
L 141.779138 70.238718 
L 141.789664 74.924296 
L 141.892231 74.684781 
L 142.362548 73.945395 
L 142.944873 73.456964 
L 143.694302 73.136673 
L 143.884422 73.085969 
L 143.894949 68.41061 
L 143.99495 68.573537 
L 144.094951 68.734139 
L 144.105477 62.998832 
L 144.187327 63.155554 
L 144.8318 64.386266 
L 144.942328 70.291091 
L 145.042329 70.420068 
L 145.052855 75.105495 
L 145.155422 74.859663 
L 145.625739 74.105575 
L 146.208064 73.611471 
L 146.957493 73.28962 
L 147.147613 73.238884 
L 147.158139 68.563661 
L 147.25814 68.728778 
L 147.358141 68.891507 
L 147.368668 63.156453 
L 147.450518 63.315241 
L 148.094991 64.561996 
L 148.205518 70.468245 
L 148.305519 70.598327 
L 148.316046 75.283601 
L 148.418612 75.031369 
L 148.888929 74.262542 
L 149.471255 73.762833 
L 150.220683 73.439464 
L 150.410804 73.388703 
L 150.42133 68.713619 
L 150.521331 68.880957 
L 150.621332 69.045844 
L 150.631859 63.311047 
L 150.713709 63.471953 
L 151.358182 64.736586 
L 151.468709 70.644772 
L 151.56871 70.776405 
L 151.579236 75.461553 
L 151.681803 75.202841 
L 152.15212 74.41971 
L 152.734445 73.915355 
L 153.483874 73.591699 
L 153.673994 73.541207 
L 153.684521 68.866298 
L 153.784522 69.036362 
L 153.884523 69.203909 
L 153.895049 63.469428 
L 153.976899 63.633161 
L 154.621372 64.939327 
L 154.7319 70.856152 
L 154.831901 70.995149 
L 154.842427 75.680564 
L 154.944994 75.414926 
L 155.364587 74.684279 
L 155.92722 74.16587 
L 156.615981 73.84749 
L 156.937185 73.761122 
L 156.947711 69.086837 
L 157.047712 69.265966 
L 157.147713 69.442499 
L 157.15824 63.709074 
L 157.24009 63.885048 
L 157.884563 65.571408 
L 157.99509 71.595458 
L 158.095091 71.826579 
L 158.105618 76.517501 
L 158.208184 76.226567 
L 158.576843 75.569925 
L 159.067146 75.155566 
L 159.147734 75.113736 
L 159.15826 71.687528 
L 159.798271 72.803342 
L 160.768906 73.288905 
L 162.311543 72.662519 
L 164.656704 71.14664 
L 167.990221 69.540037 
L 172.43118 68.230409 
L 178.02761 67.211786 
L 184.764775 66.409967 
L 192.578405 65.770268 
L 201.368147 65.256166 
L 221.364249 64.507862 
L 243.627453 64.024936 
L 278.630326 63.61719 
L 322.125295 63.407503 
L 360.826566 63.390328 
L 363.482066 63.470832 
L 365.40548 63.730913 
L 366.768101 64.309871 
L 367.716321 65.277687 
L 368.367116 66.602188 
L 368.809648 68.189133 
L 369.315353 71.784371 
L 369.57407 76.051309 
L 369.676164 79.499068 
L 369.800975 105.261737 
L 369.965272 111.680377 
L 370.102675 112.697554 
L 370.306594 111.766014 
L 370.992161 107.597895 
L 371.492622 106.03922 
L 372.09576 104.914614 
L 372.791744 104.073935 
L 373.567853 103.427477 
L 374.410689 102.92407 
L 376.246703 102.230411 
L 378.213547 101.844558 
L 380.245501 101.695894 
L 382.295278 101.755392 
L 384.331259 102.027854 
L 386.272146 102.540944 
L 387.93249 103.287116 
L 389.149316 104.163403 
L 389.915109 104.994783 
L 390.633579 106.192976 
L 390.739534 106.432046 
L 390.739534 106.432046 
" clip-path="url(#p813007cc56)" style="fill: none; stroke: #0000ff; stroke-width: 1.5; stroke-linecap: square"/>
   </g>
   <g id="line2d_15">
    <path d="M 77.052172 79.323847 
L 77.235822 75.402303 
L 77.423166 74.853999 
L 77.523568 74.932189 
L 77.773084 75.597614 
L 77.976378 76.522996 
L 78.066302 78.801973 
L 78.094288 87.831829 
L 78.104814 63.830375 
L 78.43294 59.655645 
L 78.807057 58.095695 
L 79.246598 57.482755 
L 79.761293 57.28332 
L 81.018338 57.307891 
L 83.374617 57.646272 
L 86.045221 58.257349 
L 87.836817 58.856934 
L 89.519338 59.651894 
L 90.983111 60.677269 
L 92.123217 61.895029 
L 93.378869 63.552835 
L 93.649328 63.507931 
L 93.88392 62.982134 
L 93.894446 65.399607 
L 94.000062 65.381257 
L 94.417733 65.454863 
L 94.746488 65.73672 
L 94.936562 66.067008 
L 95.04709 61.575825 
L 95.147091 61.205794 
L 95.239467 49.878079 
L 95.71768 48.299088 
L 95.88394 47.925216 
L 95.894467 58.81459 
L 95.994468 58.658392 
L 96.094469 58.502534 
L 96.207562 62.624201 
L 97.060996 62.882146 
L 97.679797 63.294793 
L 98.171767 63.914013 
L 98.199753 63.962534 
L 98.31028 59.728095 
L 98.410281 59.606752 
L 98.502658 48.52596 
L 99.147131 47.392142 
L 99.157657 58.284982 
L 99.257658 58.156682 
L 99.357659 58.026694 
L 99.470752 62.159212 
L 100.353896 62.506229 
L 100.942987 62.956068 
L 101.434958 63.619185 
L 101.462944 63.67018 
L 101.573471 59.458558 
L 101.673472 59.358454 
L 101.765849 48.297259 
L 102.410321 47.229839 
L 102.420848 58.122895 
L 102.520849 57.996538 
L 102.62085 57.868248 
L 102.733943 62.002749 
L 103.587377 62.349881 
L 104.206178 62.834037 
L 104.698149 63.521702 
L 104.726134 63.5747 
L 104.836662 59.365824 
L 104.936663 59.267959 
L 105.029039 48.207447 
L 105.673512 47.135334 
L 105.684039 58.028212 
L 105.78404 57.900598 
L 105.884041 57.770957 
L 105.997134 61.906125 
L 106.850568 62.261298 
L 107.469369 62.757108 
L 107.932919 63.412089 
L 107.989325 63.520616 
L 108.099852 59.311822 
L 108.199853 59.213684 
L 108.29223 48.151378 
L 108.936703 47.065038 
L 108.947229 57.957681 
L 109.04723 57.828325 
L 109.147231 57.69687 
L 109.260324 61.832403 
L 110.113758 62.193424 
L 110.732559 62.699273 
L 111.19611 63.372358 
L 111.252516 63.484488 
L 111.363043 59.275363 
L 111.463044 59.176566 
L 111.555421 48.112096 
L 112.199894 47.01001 
L 112.21042 57.902406 
L 112.310421 57.771198 
L 112.410422 57.637822 
L 112.523515 61.773585 
L 113.376949 62.139393 
L 113.944986 62.599002 
L 114.429591 63.287676 
L 114.515706 63.46074 
L 114.626234 59.251188 
L 114.726235 59.151643 
L 114.818611 48.084929 
L 115.463084 46.966692 
L 115.473611 57.858837 
L 115.573612 57.725726 
L 115.673613 57.590376 
L 115.786706 61.726276 
L 116.64014 62.096095 
L 117.208177 62.563177 
L 117.692782 63.268371 
L 117.778897 63.446655 
L 117.889424 59.236634 
L 117.989425 59.136303 
L 118.081802 48.067309 
L 118.726275 46.932713 
L 118.736801 57.824605 
L 118.836802 57.689556 
L 118.936803 57.552198 
L 119.049896 61.68816 
L 119.871536 62.04182 
L 120.471368 62.535482 
L 120.924178 63.194653 
L 121.042088 63.440378 
L 121.152615 59.22987 
L 121.252616 59.128734 
L 121.344993 48.057436 
L 121.989466 46.906342 
L 121.999992 57.797976 
L 122.099993 57.660966 
L 122.199994 57.521576 
L 122.313087 61.657545 
L 123.134727 62.013941 
L 123.734558 62.514476 
L 124.187369 63.187966 
L 124.305278 63.440576 
L 124.415806 59.229575 
L 124.515807 59.127626 
L 124.608183 48.054008 
L 125.252656 46.886319 
L 125.263183 57.777696 
L 125.363184 57.638706 
L 125.463185 57.497266 
L 125.576278 61.633201 
L 126.397917 61.99196 
L 126.997749 62.49903 
L 127.45056 63.186627 
L 127.568469 63.446131 
L 127.678996 59.234636 
L 127.778997 59.13187 
L 127.871374 48.055922 
L 128.515847 46.871579 
L 128.526373 57.762697 
L 128.626374 57.621715 
L 128.726375 57.478212 
L 128.839468 61.61407 
L 129.661108 61.974841 
L 130.210452 62.43129 
L 130.679218 63.1201 
L 130.83166 63.456053 
L 130.942187 59.244069 
L 131.042188 59.140488 
L 131.134565 48.062205 
L 131.779038 46.861176 
L 131.789564 57.752036 
L 131.889565 57.609055 
L 131.989566 57.46348 
L 132.102659 61.599229 
L 132.924299 61.96173 
L 133.473643 62.423309 
L 133.942409 63.125089 
L 134.09485 63.469638 
L 134.205378 59.257177 
L 134.305379 59.152792 
L 134.397755 48.072172 
L 135.042228 46.854453 
L 135.052755 57.745054 
L 135.152756 57.600071 
L 135.252757 57.452422 
L 135.36585 61.58804 
L 136.18749 61.952061 
L 136.736834 62.418573 
L 137.16792 63.057816 
L 137.358041 63.486356 
L 137.468568 59.273436 
L 137.568569 59.168258 
L 137.660946 48.085302 
L 138.305419 46.85091 
L 138.315945 57.741252 
L 138.415946 57.594266 
L 138.515947 57.444541 
L 138.62904 61.580004 
L 139.45068 61.945283 
L 140.000024 62.416455 
L 140.431111 63.066619 
L 140.621232 63.505357 
L 140.731759 59.291978 
L 140.83176 59.186009 
L 140.924137 48.100721 
L 141.56861 46.849687 
L 141.579136 57.73977 
L 141.679137 57.590775 
L 141.779138 57.438968 
L 141.892231 61.574216 
L 142.713871 61.940088 
L 143.263215 62.415061 
L 143.694302 63.074882 
L 143.884422 63.522917 
L 143.99495 59.308936 
L 144.094951 59.202062 
L 144.187327 48.114442 
L 144.8318 46.846784 
L 144.842327 57.736607 
L 144.942328 57.585528 
L 145.042329 57.431565 
L 145.155422 61.566187 
L 145.977062 61.927483 
L 146.526406 62.398521 
L 146.957493 63.054878 
L 147.147613 63.501395 
L 147.25814 59.284915 
L 147.358141 59.175625 
L 147.450518 48.085603 
L 148.094991 46.801034 
L 148.105517 57.690567 
L 148.205518 57.536478 
L 148.305519 57.379464 
L 148.418612 61.508864 
L 149.301756 61.840837 
L 149.890847 62.288129 
L 150.354398 62.929016 
L 150.410804 63.037804 
L 150.521331 58.799757 
L 150.621332 58.672981 
L 150.713709 47.579786 
L 151.358182 46.274614 
L 151.368708 57.163556 
L 151.468709 56.997301 
L 151.56871 56.828421 
L 151.579236 60.931273 
L 151.681803 60.908728 
L 152.773654 60.546897 
L 153.673994 60.008737 
L 153.784522 55.69599 
L 153.884523 55.511342 
L 153.976899 44.412334 
L 154.621372 43.057888 
L 154.631899 53.944888 
L 154.7319 53.737749 
L 154.831901 53.529566 
L 154.842427 57.624175 
L 154.944994 57.4522 
L 156.217027 55.069899 
L 156.937185 53.579587 
L 157.047712 49.22294 
L 157.147713 49.003611 
L 157.24009 37.889876 
L 157.859229 36.228411 
L 157.884563 36.146602 
L 157.895089 47.021372 
L 157.99509 46.687083 
L 158.095091 46.352184 
L 158.105618 50.431671 
L 158.208184 50.085278 
L 159.147734 46.884658 
L 159.15826 44.407897 
L 159.798271 42.486923 
L 160.768906 40.400334 
L 162.311543 38.658626 
L 164.656704 37.844416 
L 167.990221 37.646301 
L 184.764775 37.61651 
L 363.482066 37.519347 
L 365.40548 37.260183 
L 366.768101 36.681805 
L 367.716321 35.714261 
L 368.367116 34.389834 
L 368.809648 32.802867 
L 369.315353 29.207516 
L 369.57407 24.940492 
L 369.676164 21.492727 
L 369.686691 52.877642 
L 369.74175 49.384446 
L 370.102675 32.957172 
L 370.306594 28.726574 
L 370.598364 26.727238 
L 370.992161 26.259524 
L 372.09576 26.188921 
L 390.739534 26.188494 
L 390.739534 26.188494 
" clip-path="url(#p813007cc56)" style="fill: none; stroke: #ff0000; stroke-width: 1.5; stroke-linecap: square"/>
   </g>
   <g id="line2d_16">
    <path d="M 77.052172 26.384144 
L 77.235822 26.478742 
L 77.423166 26.924532 
L 77.625056 28.327799 
L 77.819406 31.610699 
L 78.094288 41.455384 
L 78.104814 23.838586 
L 78.43294 28.065118 
L 78.807057 29.65348 
L 79.246598 30.296341 
L 79.761293 30.53413 
L 81.018338 30.630396 
L 92.55673 30.769164 
L 92.903594 30.938785 
L 93.378869 31.560758 
L 93.739374 32.711075 
L 93.88392 33.45348 
L 94.000062 37.576746 
L 94.936562 42.700758 
L 94.947089 38.07146 
L 95.04709 38.584572 
L 95.147091 39.08863 
L 95.157617 33.386067 
L 95.239467 33.76375 
L 95.749142 35.483052 
L 95.88394 35.801954 
L 95.994468 41.802182 
L 96.094469 42.021809 
L 96.207562 46.956537 
L 98.199753 51.309757 
L 98.210279 46.648034 
L 98.31028 46.861061 
L 98.410281 47.073637 
L 98.420808 41.341212 
L 98.502658 41.50945 
L 99.147131 42.77128 
L 99.257658 48.738982 
L 99.357659 48.931876 
L 99.470752 53.837696 
L 101.462944 57.736575 
L 101.47347 53.072628 
L 101.573471 53.264949 
L 101.673472 53.457225 
L 101.683998 47.722712 
L 101.765849 47.876008 
L 102.410321 49.076707 
L 102.520849 55.041293 
L 102.62085 55.231582 
L 102.733943 60.134553 
L 104.726134 63.987901 
L 104.736661 59.32373 
L 104.836662 59.51396 
L 104.936663 59.704185 
L 104.947189 53.969461 
L 105.029039 54.121245 
L 105.673512 55.315705 
L 105.78404 61.279967 
L 105.884041 61.469985 
L 105.997134 66.372659 
L 107.989325 70.221252 
L 107.999851 65.557058 
L 108.099852 65.747069 
L 108.199853 65.93708 
L 108.21038 60.202334 
L 108.29223 60.353961 
L 108.936703 61.547767 
L 109.04723 67.511996 
L 109.147231 67.701985 
L 109.260324 72.604627 
L 111.252516 76.452723 
L 111.263042 71.788526 
L 111.363043 71.978514 
L 111.463044 72.168503 
L 111.47357 66.433754 
L 111.555421 66.585364 
L 112.199894 67.779103 
L 112.310421 73.743327 
L 112.410422 73.933314 
L 112.523515 78.835953 
L 114.515706 82.683996 
L 114.526233 78.019799 
L 114.626234 78.209785 
L 114.726235 78.399771 
L 114.736761 72.665022 
L 114.818611 72.81663 
L 115.463084 74.010362 
L 115.573612 79.974586 
L 115.673613 80.164572 
L 115.786706 85.067211 
L 117.778897 88.915248 
L 117.789423 84.251051 
L 117.889424 84.441037 
L 117.989425 84.631023 
L 117.999952 78.896274 
L 118.081802 79.047882 
L 118.726275 80.241613 
L 118.836802 86.205837 
L 118.936803 86.395823 
L 119.049896 91.298462 
L 121.042088 95.146499 
L 121.052614 90.482301 
L 121.152615 90.672287 
L 121.252616 90.862273 
L 121.263142 85.127525 
L 121.344993 85.279132 
L 121.989466 86.472863 
L 122.099993 92.437087 
L 122.199994 92.627073 
L 122.313087 97.529712 
L 124.305278 101.377749 
L 124.315805 96.713551 
L 124.415806 96.903537 
L 124.515807 97.093523 
L 124.526333 91.358775 
L 124.608183 91.510383 
L 125.252656 92.704113 
L 125.363184 98.668337 
L 125.463185 98.858323 
L 125.576278 103.760962 
L 127.568469 107.608999 
L 127.578995 102.944802 
L 127.678996 103.134787 
L 127.778997 103.324773 
L 127.789524 97.590025 
L 127.871374 97.741633 
L 128.515847 98.935363 
L 128.626374 104.899587 
L 128.726375 105.089573 
L 128.839468 109.992212 
L 130.83166 113.840249 
L 130.842186 109.176052 
L 130.942187 109.366037 
L 131.042188 109.556023 
L 131.052714 103.821275 
L 131.134565 103.972883 
L 131.779038 105.166613 
L 131.889565 111.130837 
L 131.989566 111.320823 
L 132.102659 116.223462 
L 134.09485 120.071499 
L 134.105377 115.407302 
L 134.205378 115.597288 
L 134.305379 115.787273 
L 134.315905 110.052525 
L 134.397755 110.204133 
L 135.042228 111.397863 
L 135.152756 117.362088 
L 135.252757 117.552073 
L 135.36585 122.454712 
L 137.358041 126.302749 
L 137.368567 121.638552 
L 137.468568 121.828538 
L 137.568569 122.018524 
L 137.579096 116.283776 
L 137.660946 116.435383 
L 138.305419 117.629114 
L 138.415946 123.593339 
L 138.515947 123.783325 
L 138.62904 128.685964 
L 140.621232 132.534004 
L 140.631758 127.869807 
L 140.731759 128.059793 
L 140.83176 128.249779 
L 140.842287 122.51503 
L 140.924137 122.666638 
L 141.56861 123.860374 
L 141.679137 129.8246 
L 141.779138 130.014587 
L 141.892231 134.917227 
L 143.884422 138.765294 
L 143.894949 134.101097 
L 143.99495 134.291084 
L 144.094951 134.481072 
L 144.105477 128.746323 
L 144.187327 128.897933 
L 144.8318 130.091712 
L 144.942328 136.055952 
L 145.042329 136.245951 
L 145.155422 141.148606 
L 147.147613 144.996927 
L 147.158139 140.332731 
L 147.25814 140.522731 
L 147.358141 140.712732 
L 147.368668 134.977985 
L 147.450518 135.129609 
L 148.094991 136.323805 
L 148.205518 142.288174 
L 148.305519 142.478291 
L 148.418612 147.381081 
L 150.410804 151.231826 
L 150.42133 146.567643 
L 150.521331 146.757767 
L 150.621332 146.947892 
L 150.631859 141.213159 
L 150.713709 141.364923 
L 151.358182 142.563093 
L 151.468709 148.528699 
L 151.56871 148.719941 
L 151.681803 153.624026 
L 153.673994 157.497925 
L 153.684521 152.833867 
L 153.784522 153.025168 
L 153.884523 153.21649 
L 153.895049 147.481881 
L 153.976899 147.634986 
L 154.621372 148.871633 
L 154.7319 154.849264 
L 154.831901 155.051436 
L 154.944994 159.968107 
L 156.937185 164.067262 
L 156.947711 159.404412 
L 157.047712 159.607205 
L 157.147713 159.810216 
L 157.15824 154.076835 
L 157.24009 154.24353 
L 157.833609 155.748138 
L 157.884563 155.907566 
L 157.99509 162.024579 
L 158.095091 162.35352 
L 158.208184 167.41625 
L 159.147734 170.573246 
L 159.15826 167.171547 
L 159.798271 169.054716 
L 160.768906 171.090109 
L 162.311543 172.7784 
L 164.656704 173.564042 
L 167.990221 173.754893 
L 184.764775 173.783521 
L 363.482066 173.880598 
L 365.40548 174.13983 
L 366.768101 174.718213 
L 367.716321 175.685625 
L 368.367116 177.00977 
L 368.809648 178.596309 
L 369.315353 182.190254 
L 369.57407 186.454194 
L 369.676164 189.897514 
L 369.800975 215.737138 
L 370.102675 228.62477 
L 370.306594 232.830016 
L 370.598364 234.813245 
L 370.992161 235.276873 
L 372.09576 235.346851 
L 390.739534 235.347273 
L 390.739534 235.347273 
" clip-path="url(#p813007cc56)" style="fill: none; stroke-dasharray: 5.55,2.4; stroke-dashoffset: 0; stroke: #0000ff; stroke-width: 1.5"/>
   </g>
   <g id="line2d_17">
    <path d="M 77.052172 235.151624 
L 77.235822 235.057026 
L 77.423166 234.611236 
L 77.625056 233.207969 
L 77.819406 229.925069 
L 78.094288 220.080384 
L 78.104814 187.561531 
L 78.43294 183.334999 
L 78.807057 181.746637 
L 79.246598 181.103777 
L 79.761293 180.865987 
L 81.018338 180.769721 
L 92.55673 180.630953 
L 92.903594 180.461333 
L 93.378869 179.83936 
L 93.739374 178.689042 
L 93.88392 177.946637 
L 93.894446 180.324944 
L 94.000062 179.701222 
L 94.936562 174.57721 
L 95.04709 169.894103 
L 95.147091 169.390045 
L 95.239467 158.050861 
L 95.749142 156.331559 
L 95.88394 156.012658 
L 95.894467 166.898938 
L 95.994468 166.676493 
L 96.094469 166.456866 
L 96.104995 170.548644 
L 96.207562 170.321431 
L 98.199753 165.968211 
L 98.31028 161.617614 
L 98.410281 161.405038 
L 98.502658 150.305162 
L 99.147131 149.043331 
L 99.157657 159.932817 
L 99.257658 159.739693 
L 99.357659 159.546799 
L 99.368186 163.641271 
L 99.470752 163.440272 
L 101.462944 159.541393 
L 101.573471 155.213726 
L 101.673472 155.02145 
L 101.765849 143.938603 
L 102.410321 142.737904 
L 102.420848 153.627694 
L 102.520849 153.437382 
L 102.62085 153.247093 
L 102.631376 157.341829 
L 102.733943 157.143415 
L 104.726134 153.290067 
L 104.836662 148.964716 
L 104.936663 148.77449 
L 105.029039 137.693366 
L 105.673512 136.498906 
L 105.684039 147.388728 
L 105.78404 147.198708 
L 105.884041 147.00869 
L 105.894567 151.103455 
L 105.997134 150.90531 
L 107.989325 147.056716 
L 108.099852 142.731606 
L 108.199853 142.541595 
L 108.29223 131.460651 
L 108.936703 130.266844 
L 108.947229 141.156669 
L 109.04723 140.966679 
L 109.147231 140.77669 
L 109.157758 144.871458 
L 109.260324 144.673341 
L 111.252516 140.825246 
L 111.363043 136.500161 
L 111.463044 136.310172 
L 111.555421 125.229247 
L 112.199894 124.035508 
L 112.21042 134.925334 
L 112.310421 134.735348 
L 112.410422 134.545362 
L 112.420948 138.640129 
L 112.523515 138.442015 
L 114.515706 134.593972 
L 114.626234 130.26889 
L 114.726235 130.078904 
L 114.818611 118.997981 
L 115.463084 117.804249 
L 115.473611 128.694075 
L 115.573612 128.504089 
L 115.673613 128.314103 
L 115.684139 132.408871 
L 115.786706 132.210757 
L 117.778897 128.36272 
L 117.889424 124.037638 
L 117.989425 123.847652 
L 118.081802 112.766729 
L 118.726275 111.572998 
L 118.736801 122.462824 
L 118.836802 122.272838 
L 118.936803 122.082852 
L 118.94733 126.17762 
L 119.049896 125.979506 
L 121.042088 122.13147 
L 121.152615 117.806388 
L 121.252616 117.616402 
L 121.344993 106.535479 
L 121.989466 105.341748 
L 121.999992 116.231574 
L 122.099993 116.041588 
L 122.199994 115.851602 
L 122.21052 119.94637 
L 122.313087 119.748256 
L 124.305278 115.900219 
L 124.415806 111.575138 
L 124.515807 111.385152 
L 124.608183 100.304229 
L 125.252656 99.110498 
L 125.263183 110.000324 
L 125.363184 109.810338 
L 125.463185 109.620352 
L 125.473711 113.71512 
L 125.576278 113.517006 
L 127.568469 109.668969 
L 127.678996 105.343888 
L 127.778997 105.153902 
L 127.871374 94.072979 
L 128.515847 92.879248 
L 128.526373 103.769074 
L 128.626374 103.579088 
L 128.726375 103.389102 
L 128.736902 107.48387 
L 128.839468 107.285756 
L 130.83166 103.437719 
L 130.942187 99.112638 
L 131.042188 98.922652 
L 131.134565 87.841729 
L 131.779038 86.647998 
L 131.789564 97.537824 
L 131.889565 97.347838 
L 131.989566 97.157852 
L 132.000092 101.252619 
L 132.102659 101.054506 
L 134.09485 97.206469 
L 134.205378 92.881388 
L 134.305379 92.691402 
L 134.397755 81.610478 
L 135.042228 80.416748 
L 135.052755 91.306573 
L 135.152756 91.116588 
L 135.252757 90.926602 
L 135.263283 95.021369 
L 135.36585 94.823256 
L 137.358041 90.975219 
L 137.468568 86.650137 
L 137.568569 86.460151 
L 137.660946 75.379228 
L 138.305419 74.185497 
L 138.315945 85.075322 
L 138.415946 84.885336 
L 138.515947 84.69535 
L 138.526474 88.790118 
L 138.62904 88.592004 
L 140.621232 84.743964 
L 140.731759 80.418883 
L 140.83176 80.228897 
L 140.924137 69.147973 
L 141.56861 67.954237 
L 141.579136 78.844063 
L 141.679137 78.654076 
L 141.779138 78.464088 
L 141.789664 82.558856 
L 141.892231 82.360741 
L 143.884422 78.512674 
L 143.99495 74.187591 
L 144.094951 73.997603 
L 144.187327 62.916678 
L 144.8318 61.722899 
L 144.842327 72.612723 
L 144.942328 72.422724 
L 145.042329 72.232724 
L 145.052855 76.32749 
L 145.155422 76.129362 
L 147.147613 72.281041 
L 147.25814 67.955944 
L 147.358141 67.765943 
L 147.450518 56.685002 
L 148.094991 55.490806 
L 148.105517 66.380618 
L 148.205518 66.190501 
L 148.305519 66.000384 
L 148.316046 70.095138 
L 148.418612 69.896887 
L 150.410804 66.046142 
L 150.521331 61.720908 
L 150.621332 61.530783 
L 150.713709 50.449689 
L 151.358182 49.251518 
L 151.368708 60.141214 
L 151.468709 59.949976 
L 151.56871 59.758734 
L 151.579236 63.853368 
L 151.681803 63.653942 
L 153.673994 59.780043 
L 153.784522 55.453507 
L 153.884523 55.262186 
L 153.976899 44.179625 
L 154.621372 42.942978 
L 154.631899 53.831543 
L 154.7319 53.629411 
L 154.831901 53.427239 
L 154.842427 57.520711 
L 154.944994 57.309862 
L 156.937185 53.210706 
L 157.047712 48.87147 
L 157.147713 48.668459 
L 157.24009 37.571081 
L 157.833609 36.066473 
L 157.884563 35.907046 
L 157.895089 46.782512 
L 157.99509 46.454096 
L 158.095091 46.125155 
L 158.105618 50.205142 
L 158.208184 49.861718 
L 159.147734 46.704722 
L 159.15826 44.228571 
L 159.798271 42.345401 
L 160.768906 40.310008 
L 162.311543 38.621717 
L 164.656704 37.836075 
L 167.990221 37.645224 
L 184.764775 37.616596 
L 363.482066 37.519519 
L 365.40548 37.260287 
L 366.768101 36.681905 
L 367.716321 35.714492 
L 368.367116 34.390347 
L 368.809648 32.803808 
L 369.315353 29.209863 
L 369.57407 24.945923 
L 369.676164 21.502603 
L 369.686691 52.887016 
L 369.74175 49.319932 
L 370.102675 32.910997 
L 370.306594 28.705751 
L 370.598364 26.722523 
L 370.992161 26.258895 
L 372.09576 26.188917 
L 390.739534 26.188495 
L 390.739534 26.188495 
" clip-path="url(#p813007cc56)" style="fill: none; stroke-dasharray: 5.55,2.4; stroke-dashoffset: 0; stroke: #ff0000; stroke-width: 1.5"/>
   </g>
   <g id="patch_3">
    <path d="M 61.367804 246.04 
L 61.367804 10.8 
" style="fill: none; stroke: #000000; stroke-width: 0.8; stroke-linejoin: miter; stroke-linecap: square"/>
   </g>
   <g id="patch_4">
    <path d="M 406.423902 246.04 
L 406.423902 10.8 
" style="fill: none; stroke: #000000; stroke-width: 0.8; stroke-linejoin: miter; stroke-linecap: square"/>
   </g>
   <g id="patch_5">
    <path d="M 61.367804 246.04 
L 406.423902 246.04 
" style="fill: none; stroke: #000000; stroke-width: 0.8; stroke-linejoin: miter; stroke-linecap: square"/>
   </g>
   <g id="patch_6">
    <path d="M 61.367804 10.8 
L 406.423902 10.8 
" style="fill: none; stroke: #000000; stroke-width: 0.8; stroke-linejoin: miter; stroke-linecap: square"/>
   </g>
  </g>
  <g id="axes_2">
   <g id="patch_7">
    <path d="M 454.143902 246.04 
L 799.2 246.04 
L 799.2 10.8 
L 454.143902 10.8 
z
" style="fill: #ffffff"/>
   </g>
   <g id="matplotlib.axis_3">
    <g id="xtick_7">
     <g id="line2d_18">
      <g>
       <use xlink:href="#mac8f038404" x="475.709908" y="246.04" style="stroke: #000000; stroke-width: 0.8"/>
      </g>
     </g>
     <g id="text_16">
      <!-- 400 -->
      <g transform="translate(466.166158 260.638438) scale(0.1 -0.1)">
       <defs>
        <path id="DejaVuSans-34" d="M 2419 4116 
L 825 1625 
L 2419 1625 
L 2419 4116 
z
M 2253 4666 
L 3047 4666 
L 3047 1625 
L 3713 1625 
L 3713 1100 
L 3047 1100 
L 3047 0 
L 2419 0 
L 2419 1100 
L 313 1100 
L 313 1709 
L 2253 4666 
z
" transform="scale(0.015625)"/>
       </defs>
       <use xlink:href="#DejaVuSans-34"/>
       <use xlink:href="#DejaVuSans-30" x="63.623047"/>
       <use xlink:href="#DejaVuSans-30" x="127.246094"/>
      </g>
     </g>
    </g>
    <g id="xtick_8">
     <g id="line2d_19">
      <g>
       <use xlink:href="#mac8f038404" x="518.84192" y="246.04" style="stroke: #000000; stroke-width: 0.8"/>
      </g>
     </g>
     <g id="text_17">
      <!-- 500 -->
      <g transform="translate(509.29817 260.638438) scale(0.1 -0.1)">
       <use xlink:href="#DejaVuSans-35"/>
       <use xlink:href="#DejaVuSans-30" x="63.623047"/>
       <use xlink:href="#DejaVuSans-30" x="127.246094"/>
      </g>
     </g>
    </g>
    <g id="xtick_9">
     <g id="line2d_20">
      <g>
       <use xlink:href="#mac8f038404" x="561.973933" y="246.04" style="stroke: #000000; stroke-width: 0.8"/>
      </g>
     </g>
     <g id="text_18">
      <!-- 600 -->
      <g transform="translate(552.430183 260.638438) scale(0.1 -0.1)">
       <defs>
        <path id="DejaVuSans-36" d="M 2113 2584 
Q 1688 2584 1439 2293 
Q 1191 2003 1191 1497 
Q 1191 994 1439 701 
Q 1688 409 2113 409 
Q 2538 409 2786 701 
Q 3034 994 3034 1497 
Q 3034 2003 2786 2293 
Q 2538 2584 2113 2584 
z
M 3366 4563 
L 3366 3988 
Q 3128 4100 2886 4159 
Q 2644 4219 2406 4219 
Q 1781 4219 1451 3797 
Q 1122 3375 1075 2522 
Q 1259 2794 1537 2939 
Q 1816 3084 2150 3084 
Q 2853 3084 3261 2657 
Q 3669 2231 3669 1497 
Q 3669 778 3244 343 
Q 2819 -91 2113 -91 
Q 1303 -91 875 529 
Q 447 1150 447 2328 
Q 447 3434 972 4092 
Q 1497 4750 2381 4750 
Q 2619 4750 2861 4703 
Q 3103 4656 3366 4563 
z
" transform="scale(0.015625)"/>
       </defs>
       <use xlink:href="#DejaVuSans-36"/>
       <use xlink:href="#DejaVuSans-30" x="63.623047"/>
       <use xlink:href="#DejaVuSans-30" x="127.246094"/>
      </g>
     </g>
    </g>
    <g id="xtick_10">
     <g id="line2d_21">
      <g>
       <use xlink:href="#mac8f038404" x="605.105945" y="246.04" style="stroke: #000000; stroke-width: 0.8"/>
      </g>
     </g>
     <g id="text_19">
      <!-- 700 -->
      <g transform="translate(595.562195 260.638438) scale(0.1 -0.1)">
       <defs>
        <path id="DejaVuSans-37" d="M 525 4666 
L 3525 4666 
L 3525 4397 
L 1831 0 
L 1172 0 
L 2766 4134 
L 525 4134 
L 525 4666 
z
" transform="scale(0.015625)"/>
       </defs>
       <use xlink:href="#DejaVuSans-37"/>
       <use xlink:href="#DejaVuSans-30" x="63.623047"/>
       <use xlink:href="#DejaVuSans-30" x="127.246094"/>
      </g>
     </g>
    </g>
    <g id="xtick_11">
     <g id="line2d_22">
      <g>
       <use xlink:href="#mac8f038404" x="648.237957" y="246.04" style="stroke: #000000; stroke-width: 0.8"/>
      </g>
     </g>
     <g id="text_20">
      <!-- 800 -->
      <g transform="translate(638.694207 260.638438) scale(0.1 -0.1)">
       <defs>
        <path id="DejaVuSans-38" d="M 2034 2216 
Q 1584 2216 1326 1975 
Q 1069 1734 1069 1313 
Q 1069 891 1326 650 
Q 1584 409 2034 409 
Q 2484 409 2743 651 
Q 3003 894 3003 1313 
Q 3003 1734 2745 1975 
Q 2488 2216 2034 2216 
z
M 1403 2484 
Q 997 2584 770 2862 
Q 544 3141 544 3541 
Q 544 4100 942 4425 
Q 1341 4750 2034 4750 
Q 2731 4750 3128 4425 
Q 3525 4100 3525 3541 
Q 3525 3141 3298 2862 
Q 3072 2584 2669 2484 
Q 3125 2378 3379 2068 
Q 3634 1759 3634 1313 
Q 3634 634 3220 271 
Q 2806 -91 2034 -91 
Q 1263 -91 848 271 
Q 434 634 434 1313 
Q 434 1759 690 2068 
Q 947 2378 1403 2484 
z
M 1172 3481 
Q 1172 3119 1398 2916 
Q 1625 2713 2034 2713 
Q 2441 2713 2670 2916 
Q 2900 3119 2900 3481 
Q 2900 3844 2670 4047 
Q 2441 4250 2034 4250 
Q 1625 4250 1398 4047 
Q 1172 3844 1172 3481 
z
" transform="scale(0.015625)"/>
       </defs>
       <use xlink:href="#DejaVuSans-38"/>
       <use xlink:href="#DejaVuSans-30" x="63.623047"/>
       <use xlink:href="#DejaVuSans-30" x="127.246094"/>
      </g>
     </g>
    </g>
    <g id="xtick_12">
     <g id="line2d_23">
      <g>
       <use xlink:href="#mac8f038404" x="691.369969" y="246.04" style="stroke: #000000; stroke-width: 0.8"/>
      </g>
     </g>
     <g id="text_21">
      <!-- 900 -->
      <g transform="translate(681.826219 260.638438) scale(0.1 -0.1)">
       <defs>
        <path id="DejaVuSans-39" d="M 703 97 
L 703 672 
Q 941 559 1184 500 
Q 1428 441 1663 441 
Q 2288 441 2617 861 
Q 2947 1281 2994 2138 
Q 2813 1869 2534 1725 
Q 2256 1581 1919 1581 
Q 1219 1581 811 2004 
Q 403 2428 403 3163 
Q 403 3881 828 4315 
Q 1253 4750 1959 4750 
Q 2769 4750 3195 4129 
Q 3622 3509 3622 2328 
Q 3622 1225 3098 567 
Q 2575 -91 1691 -91 
Q 1453 -91 1209 -44 
Q 966 3 703 97 
z
M 1959 2075 
Q 2384 2075 2632 2365 
Q 2881 2656 2881 3163 
Q 2881 3666 2632 3958 
Q 2384 4250 1959 4250 
Q 1534 4250 1286 3958 
Q 1038 3666 1038 3163 
Q 1038 2656 1286 2365 
Q 1534 2075 1959 2075 
z
" transform="scale(0.015625)"/>
       </defs>
       <use xlink:href="#DejaVuSans-39"/>
       <use xlink:href="#DejaVuSans-30" x="63.623047"/>
       <use xlink:href="#DejaVuSans-30" x="127.246094"/>
      </g>
     </g>
    </g>
    <g id="xtick_13">
     <g id="line2d_24">
      <g>
       <use xlink:href="#mac8f038404" x="734.501982" y="246.04" style="stroke: #000000; stroke-width: 0.8"/>
      </g>
     </g>
     <g id="text_22">
      <!-- 1000 -->
      <g transform="translate(721.776982 260.638438) scale(0.1 -0.1)">
       <use xlink:href="#DejaVuSans-31"/>
       <use xlink:href="#DejaVuSans-30" x="63.623047"/>
       <use xlink:href="#DejaVuSans-30" x="127.246094"/>
       <use xlink:href="#DejaVuSans-30" x="190.869141"/>
      </g>
     </g>
    </g>
    <g id="xtick_14">
     <g id="line2d_25">
      <g>
       <use xlink:href="#mac8f038404" x="777.633994" y="246.04" style="stroke: #000000; stroke-width: 0.8"/>
      </g>
     </g>
     <g id="text_23">
      <!-- 1100 -->
      <g transform="translate(764.908994 260.638438) scale(0.1 -0.1)">
       <use xlink:href="#DejaVuSans-31"/>
       <use xlink:href="#DejaVuSans-31" x="63.623047"/>
       <use xlink:href="#DejaVuSans-30" x="127.246094"/>
       <use xlink:href="#DejaVuSans-30" x="190.869141"/>
      </g>
     </g>
    </g>
    <g id="text_24">
     <!-- Wavelength (nm) -->
     <g transform="translate(583.479763 274.316562) scale(0.1 -0.1)">
      <defs>
       <path id="DejaVuSans-57" d="M 213 4666 
L 850 4666 
L 1831 722 
L 2809 4666 
L 3519 4666 
L 4500 722 
L 5478 4666 
L 6119 4666 
L 4947 0 
L 4153 0 
L 3169 4050 
L 2175 0 
L 1381 0 
L 213 4666 
z
" transform="scale(0.015625)"/>
       <path id="DejaVuSans-76" d="M 191 3500 
L 800 3500 
L 1894 563 
L 2988 3500 
L 3597 3500 
L 2284 0 
L 1503 0 
L 191 3500 
z
" transform="scale(0.015625)"/>
       <path id="DejaVuSans-6c" d="M 603 4863 
L 1178 4863 
L 1178 0 
L 603 0 
L 603 4863 
z
" transform="scale(0.015625)"/>
       <path id="DejaVuSans-67" d="M 2906 1791 
Q 2906 2416 2648 2759 
Q 2391 3103 1925 3103 
Q 1463 3103 1205 2759 
Q 947 2416 947 1791 
Q 947 1169 1205 825 
Q 1463 481 1925 481 
Q 2391 481 2648 825 
Q 2906 1169 2906 1791 
z
M 3481 434 
Q 3481 -459 3084 -895 
Q 2688 -1331 1869 -1331 
Q 1566 -1331 1297 -1286 
Q 1028 -1241 775 -1147 
L 775 -588 
Q 1028 -725 1275 -790 
Q 1522 -856 1778 -856 
Q 2344 -856 2625 -561 
Q 2906 -266 2906 331 
L 2906 616 
Q 2728 306 2450 153 
Q 2172 0 1784 0 
Q 1141 0 747 490 
Q 353 981 353 1791 
Q 353 2603 747 3093 
Q 1141 3584 1784 3584 
Q 2172 3584 2450 3431 
Q 2728 3278 2906 2969 
L 2906 3500 
L 3481 3500 
L 3481 434 
z
" transform="scale(0.015625)"/>
       <path id="DejaVuSans-68" d="M 3513 2113 
L 3513 0 
L 2938 0 
L 2938 2094 
Q 2938 2591 2744 2837 
Q 2550 3084 2163 3084 
Q 1697 3084 1428 2787 
Q 1159 2491 1159 1978 
L 1159 0 
L 581 0 
L 581 4863 
L 1159 4863 
L 1159 2956 
Q 1366 3272 1645 3428 
Q 1925 3584 2291 3584 
Q 2894 3584 3203 3211 
Q 3513 2838 3513 2113 
z
" transform="scale(0.015625)"/>
      </defs>
      <use xlink:href="#DejaVuSans-57"/>
      <use xlink:href="#DejaVuSans-61" x="92.501953"/>
      <use xlink:href="#DejaVuSans-76" x="153.78125"/>
      <use xlink:href="#DejaVuSans-65" x="212.960938"/>
      <use xlink:href="#DejaVuSans-6c" x="274.484375"/>
      <use xlink:href="#DejaVuSans-65" x="302.267578"/>
      <use xlink:href="#DejaVuSans-6e" x="363.791016"/>
      <use xlink:href="#DejaVuSans-67" x="427.169922"/>
      <use xlink:href="#DejaVuSans-74" x="490.646484"/>
      <use xlink:href="#DejaVuSans-68" x="529.855469"/>
      <use xlink:href="#DejaVuSans-20" x="593.234375"/>
      <use xlink:href="#DejaVuSans-28" x="625.021484"/>
      <use xlink:href="#DejaVuSans-6e" x="664.035156"/>
      <use xlink:href="#DejaVuSans-6d" x="727.414062"/>
      <use xlink:href="#DejaVuSans-29" x="824.826172"/>
     </g>
    </g>
   </g>
   <g id="matplotlib.axis_4">
    <g id="ytick_8">
     <g id="line2d_26">
      <g>
       <use xlink:href="#mf0467b0a7e" x="454.143902" y="246.04" style="stroke: #000000; stroke-width: 0.8"/>
      </g>
     </g>
     <g id="text_25">
      <!-- 0.0 -->
      <g transform="translate(431.240777 249.839219) scale(0.1 -0.1)">
       <defs>
        <path id="DejaVuSans-2e" d="M 684 794 
L 1344 794 
L 1344 0 
L 684 0 
L 684 794 
z
" transform="scale(0.015625)"/>
       </defs>
       <use xlink:href="#DejaVuSans-30"/>
       <use xlink:href="#DejaVuSans-2e" x="63.623047"/>
       <use xlink:href="#DejaVuSans-30" x="95.410156"/>
      </g>
     </g>
    </g>
    <g id="ytick_9">
     <g id="line2d_27">
      <g>
       <use xlink:href="#mf0467b0a7e" x="454.143902" y="203.269091" style="stroke: #000000; stroke-width: 0.8"/>
      </g>
     </g>
     <g id="text_26">
      <!-- 0.2 -->
      <g transform="translate(431.240777 207.06831) scale(0.1 -0.1)">
       <use xlink:href="#DejaVuSans-30"/>
       <use xlink:href="#DejaVuSans-2e" x="63.623047"/>
       <use xlink:href="#DejaVuSans-32" x="95.410156"/>
      </g>
     </g>
    </g>
    <g id="ytick_10">
     <g id="line2d_28">
      <g>
       <use xlink:href="#mf0467b0a7e" x="454.143902" y="160.498182" style="stroke: #000000; stroke-width: 0.8"/>
      </g>
     </g>
     <g id="text_27">
      <!-- 0.4 -->
      <g transform="translate(431.240777 164.297401) scale(0.1 -0.1)">
       <use xlink:href="#DejaVuSans-30"/>
       <use xlink:href="#DejaVuSans-2e" x="63.623047"/>
       <use xlink:href="#DejaVuSans-34" x="95.410156"/>
      </g>
     </g>
    </g>
    <g id="ytick_11">
     <g id="line2d_29">
      <g>
       <use xlink:href="#mf0467b0a7e" x="454.143902" y="117.727273" style="stroke: #000000; stroke-width: 0.8"/>
      </g>
     </g>
     <g id="text_28">
      <!-- 0.6 -->
      <g transform="translate(431.240777 121.526491) scale(0.1 -0.1)">
       <use xlink:href="#DejaVuSans-30"/>
       <use xlink:href="#DejaVuSans-2e" x="63.623047"/>
       <use xlink:href="#DejaVuSans-36" x="95.410156"/>
      </g>
     </g>
    </g>
    <g id="ytick_12">
     <g id="line2d_30">
      <g>
       <use xlink:href="#mf0467b0a7e" x="454.143902" y="74.956364" style="stroke: #000000; stroke-width: 0.8"/>
      </g>
     </g>
     <g id="text_29">
      <!-- 0.8 -->
      <g transform="translate(431.240777 78.755582) scale(0.1 -0.1)">
       <use xlink:href="#DejaVuSans-30"/>
       <use xlink:href="#DejaVuSans-2e" x="63.623047"/>
       <use xlink:href="#DejaVuSans-38" x="95.410156"/>
      </g>
     </g>
    </g>
    <g id="ytick_13">
     <g id="line2d_31">
      <g>
       <use xlink:href="#mf0467b0a7e" x="454.143902" y="32.185455" style="stroke: #000000; stroke-width: 0.8"/>
      </g>
     </g>
     <g id="text_30">
      <!-- 1.0 -->
      <g transform="translate(431.240777 35.984673) scale(0.1 -0.1)">
       <use xlink:href="#DejaVuSans-31"/>
       <use xlink:href="#DejaVuSans-2e" x="63.623047"/>
       <use xlink:href="#DejaVuSans-30" x="95.410156"/>
      </g>
     </g>
    </g>
    <g id="text_31">
     <!-- EQE -->
     <g transform="translate(425.161089 138.674688) rotate(-90) scale(0.1 -0.1)">
      <defs>
       <path id="DejaVuSans-45" d="M 628 4666 
L 3578 4666 
L 3578 4134 
L 1259 4134 
L 1259 2753 
L 3481 2753 
L 3481 2222 
L 1259 2222 
L 1259 531 
L 3634 531 
L 3634 0 
L 628 0 
L 628 4666 
z
" transform="scale(0.015625)"/>
       <path id="DejaVuSans-51" d="M 2522 4238 
Q 1834 4238 1429 3725 
Q 1025 3213 1025 2328 
Q 1025 1447 1429 934 
Q 1834 422 2522 422 
Q 3209 422 3611 934 
Q 4013 1447 4013 2328 
Q 4013 3213 3611 3725 
Q 3209 4238 2522 4238 
z
M 3406 84 
L 4238 -825 
L 3475 -825 
L 2784 -78 
Q 2681 -84 2626 -87 
Q 2572 -91 2522 -91 
Q 1538 -91 948 567 
Q 359 1225 359 2328 
Q 359 3434 948 4092 
Q 1538 4750 2522 4750 
Q 3503 4750 4090 4092 
Q 4678 3434 4678 2328 
Q 4678 1516 4351 937 
Q 4025 359 3406 84 
z
" transform="scale(0.015625)"/>
      </defs>
      <use xlink:href="#DejaVuSans-45"/>
      <use xlink:href="#DejaVuSans-51" x="63.183594"/>
      <use xlink:href="#DejaVuSans-45" x="141.894531"/>
     </g>
    </g>
   </g>
   <g id="line2d_32">
    <path d="M 454.143902 164.232376 
L 456.156729 158.874351 
L 459.17597 153.712208 
L 461.188797 149.390482 
L 466.220865 137.463098 
L 469.240106 128.052368 
L 470.24652 124.031102 
L 471.252933 119.339871 
L 473.265761 112.627962 
L 478.297829 98.907063 
L 480.310656 93.847378 
L 485.342724 83.464034 
L 487.355551 78.931802 
L 489.368379 72.840096 
L 492.387619 63.640417 
L 494.400447 58.002146 
L 497.419688 51.724543 
L 498.426101 50.237906 
L 500.438928 47.851265 
L 502.451756 45.97446 
L 504.464583 44.388804 
L 506.47741 43.084076 
L 509.496651 41.421935 
L 512.515892 40.046811 
L 515.535133 39.033473 
L 518.554374 38.289893 
L 522.580028 37.586755 
L 524.592855 37.492833 
L 529.624923 37.632556 
L 542.7083 38.115739 
L 556.798091 38.263547 
L 564.8494 38.342048 
L 574.913536 37.805673 
L 579.945604 37.321427 
L 584.977672 36.509127 
L 589.003327 35.461883 
L 591.016154 34.859156 
L 595.041809 34.484759 
L 605.105945 34.17578 
L 610.138013 34.183272 
L 614.163667 34.365894 
L 622.214976 34.840973 
L 625.234217 35.119935 
L 630.266285 35.933526 
L 637.311181 37.218783 
L 640.330422 37.260813 
L 643.349662 37.246209 
L 646.368903 37.542969 
L 648.38173 37.905395 
L 650.394558 38.657243 
L 652.407385 39.621742 
L 654.420212 40.831564 
L 656.433039 42.178909 
L 659.45228 44.519175 
L 660.458694 46.148579 
L 661.465108 50.610146 
L 663.477935 55.227269 
L 665.490762 60.462887 
L 668.510003 70.893347 
L 669.516416 74.919736 
L 670.52283 79.417413 
L 672.535657 89.776883 
L 674.548485 101.563615 
L 676.561312 115.562255 
L 678.574139 132.051212 
L 680.586966 151.698851 
L 682.599794 175.460483 
L 684.612621 204.112183 
L 685.619034 213.56346 
L 687.631862 215.04723 
L 688.638275 214.587111 
L 689.644689 221.962189 
L 690.651102 224.093514 
L 692.66393 225.354494 
L 696.689584 227.683984 
L 698.702411 229.034483 
L 699.708825 229.471728 
L 700.715239 232.011043 
L 701.721652 225.280502 
L 703.73448 232.860685 
L 704.740893 232.967368 
L 707.760134 232.782232 
L 712.792202 232.371051 
L 716.817857 232.386425 
L 721.849925 232.396867 
L 726.881993 232.076784 
L 728.89482 231.960955 
L 729.901234 245.78535 
L 730.907647 235.153079 
L 731.914061 203.157424 
L 733.926888 244.591581 
L 734.933302 246.04 
L 756.067988 246.04 
L 756.067988 246.04 
" clip-path="url(#p1eeab9a9eb)" style="fill: none; stroke: #0000ff; stroke-width: 1.5; stroke-linecap: square"/>
   </g>
   <g id="line2d_33">
    <path d="M 454.143902 109.316556 
L 455.150316 110.28111 
L 456.156729 111.047323 
L 457.163143 111.034085 
L 458.169556 110.823669 
L 459.17597 110.2255 
L 460.182384 109.175277 
L 461.188797 107.547909 
L 463.201625 103.691543 
L 465.214452 99.21005 
L 466.220865 96.715379 
L 468.233693 90.993111 
L 469.240106 88.351625 
L 471.252933 82.121743 
L 473.265761 77.830878 
L 478.297829 69.545791 
L 480.310656 66.646594 
L 481.31707 65.422898 
L 483.329897 64.518721 
L 484.336311 64.100979 
L 487.355551 62.140323 
L 488.361965 60.55035 
L 495.40686 48.075823 
L 497.419688 45.300615 
L 499.432515 42.96484 
L 501.445342 40.989978 
L 503.458169 39.450125 
L 505.470997 38.15822 
L 507.483824 37.137499 
L 510.503065 35.897178 
L 512.515892 35.275242 
L 515.535133 34.650838 
L 518.554374 34.288915 
L 522.580028 34.098983 
L 525.599269 34.166118 
L 531.637751 34.569841 
L 543.714714 35.480893 
L 552.772437 35.898941 
L 560.823746 36.130161 
L 566.862227 36.137597 
L 575.91995 35.86647 
L 583.971259 35.417589 
L 597.054636 34.454002 
L 605.105945 34.255883 
L 612.15084 34.342477 
L 617.182908 34.620913 
L 626.240631 35.340507 
L 636.304767 36.647997 
L 638.317594 36.969197 
L 643.349662 37.599593 
L 648.38173 38.778581 
L 652.407385 40.426707 
L 656.433039 42.444287 
L 659.45228 44.266183 
L 660.458694 45.711483 
L 661.465108 49.898037 
L 663.477935 54.202435 
L 665.490762 59.297746 
L 668.510003 69.853362 
L 669.516416 74.012195 
L 670.52283 78.671826 
L 672.535657 89.404979 
L 674.548485 101.555666 
L 676.561312 115.824272 
L 678.574139 132.447649 
L 680.586966 152.088307 
L 682.599794 175.728353 
L 684.612621 204.204582 
L 685.619034 213.603707 
L 687.631862 215.067992 
L 688.638275 214.59989 
L 689.644689 221.969248 
L 690.651102 224.095554 
L 692.66393 225.350264 
L 696.689584 227.679117 
L 698.702411 229.032299 
L 699.708825 229.470444 
L 700.715239 232.00993 
L 701.721652 225.27918 
L 703.73448 232.859719 
L 704.740893 232.966403 
L 707.760134 232.781128 
L 712.792202 232.369695 
L 716.817857 232.385244 
L 721.849925 232.395947 
L 726.881993 232.075713 
L 728.89482 231.959762 
L 729.901234 245.744316 
L 730.907647 235.151976 
L 731.914061 203.154707 
L 733.926888 244.591142 
L 734.933302 246.028788 
L 746.003852 246.039935 
L 756.067988 246.04 
L 756.067988 246.04 
" clip-path="url(#p1eeab9a9eb)" style="fill: none; stroke: #000000; stroke-width: 1.5; stroke-linecap: square"/>
   </g>
   <g id="patch_8">
    <path d="M 454.143902 246.04 
L 454.143902 10.8 
" style="fill: none; stroke: #000000; stroke-width: 0.8; stroke-linejoin: miter; stroke-linecap: square"/>
   </g>
   <g id="patch_9">
    <path d="M 799.2 246.04 
L 799.2 10.8 
" style="fill: none; stroke: #000000; stroke-width: 0.8; stroke-linejoin: miter; stroke-linecap: square"/>
   </g>
   <g id="patch_10">
    <path d="M 454.143902 246.04 
L 799.2 246.04 
" style="fill: none; stroke: #000000; stroke-width: 0.8; stroke-linejoin: miter; stroke-linecap: square"/>
   </g>
   <g id="patch_11">
    <path d="M 454.143902 10.8 
L 799.2 10.8 
" style="fill: none; stroke: #000000; stroke-width: 0.8; stroke-linejoin: miter; stroke-linecap: square"/>
   </g>
   <g id="legend_1">
    <g id="line2d_34">
     <path d="M 688.190625 23.898438 
L 698.190625 23.898438 
L 708.190625 23.898438 
" style="fill: none; stroke: #0000ff; stroke-width: 1.5; stroke-linecap: square"/>
    </g>
    <g id="text_32">
     <!-- EQE GaInP -->
     <g transform="translate(716.190625 27.398438) scale(0.1 -0.1)">
      <defs>
       <path id="DejaVuSans-47" d="M 3809 666 
L 3809 1919 
L 2778 1919 
L 2778 2438 
L 4434 2438 
L 4434 434 
Q 4069 175 3628 42 
Q 3188 -91 2688 -91 
Q 1594 -91 976 548 
Q 359 1188 359 2328 
Q 359 3472 976 4111 
Q 1594 4750 2688 4750 
Q 3144 4750 3555 4637 
Q 3966 4525 4313 4306 
L 4313 3634 
Q 3963 3931 3569 4081 
Q 3175 4231 2741 4231 
Q 1884 4231 1454 3753 
Q 1025 3275 1025 2328 
Q 1025 1384 1454 906 
Q 1884 428 2741 428 
Q 3075 428 3337 486 
Q 3600 544 3809 666 
z
" transform="scale(0.015625)"/>
       <path id="DejaVuSans-49" d="M 628 4666 
L 1259 4666 
L 1259 0 
L 628 0 
L 628 4666 
z
" transform="scale(0.015625)"/>
      </defs>
      <use xlink:href="#DejaVuSans-45"/>
      <use xlink:href="#DejaVuSans-51" x="63.183594"/>
      <use xlink:href="#DejaVuSans-45" x="141.894531"/>
      <use xlink:href="#DejaVuSans-20" x="205.078125"/>
      <use xlink:href="#DejaVuSans-47" x="236.865234"/>
      <use xlink:href="#DejaVuSans-61" x="314.355469"/>
      <use xlink:href="#DejaVuSans-49" x="375.634766"/>
      <use xlink:href="#DejaVuSans-6e" x="405.126953"/>
      <use xlink:href="#DejaVuSans-50" x="468.505859"/>
     </g>
    </g>
    <g id="line2d_35">
     <path d="M 688.190625 38.576562 
L 698.190625 38.576562 
L 708.190625 38.576562 
" style="fill: none; stroke: #000000; stroke-width: 1.5; stroke-linecap: square"/>
    </g>
    <g id="text_33">
     <!-- Total Absorbed -->
     <g transform="translate(716.190625 42.076562) scale(0.1 -0.1)">
      <defs>
       <path id="DejaVuSans-54" d="M -19 4666 
L 3928 4666 
L 3928 4134 
L 2272 4134 
L 2272 0 
L 1638 0 
L 1638 4134 
L -19 4134 
L -19 4666 
z
" transform="scale(0.015625)"/>
       <path id="DejaVuSans-41" d="M 2188 4044 
L 1331 1722 
L 3047 1722 
L 2188 4044 
z
M 1831 4666 
L 2547 4666 
L 4325 0 
L 3669 0 
L 3244 1197 
L 1141 1197 
L 716 0 
L 50 0 
L 1831 4666 
z
" transform="scale(0.015625)"/>
       <path id="DejaVuSans-62" d="M 3116 1747 
Q 3116 2381 2855 2742 
Q 2594 3103 2138 3103 
Q 1681 3103 1420 2742 
Q 1159 2381 1159 1747 
Q 1159 1113 1420 752 
Q 1681 391 2138 391 
Q 2594 391 2855 752 
Q 3116 1113 3116 1747 
z
M 1159 2969 
Q 1341 3281 1617 3432 
Q 1894 3584 2278 3584 
Q 2916 3584 3314 3078 
Q 3713 2572 3713 1747 
Q 3713 922 3314 415 
Q 2916 -91 2278 -91 
Q 1894 -91 1617 61 
Q 1341 213 1159 525 
L 1159 0 
L 581 0 
L 581 4863 
L 1159 4863 
L 1159 2969 
z
" transform="scale(0.015625)"/>
      </defs>
      <use xlink:href="#DejaVuSans-54"/>
      <use xlink:href="#DejaVuSans-6f" x="44.083984"/>
      <use xlink:href="#DejaVuSans-74" x="105.265625"/>
      <use xlink:href="#DejaVuSans-61" x="144.474609"/>
      <use xlink:href="#DejaVuSans-6c" x="205.753906"/>
      <use xlink:href="#DejaVuSans-20" x="233.537109"/>
      <use xlink:href="#DejaVuSans-41" x="265.324219"/>
      <use xlink:href="#DejaVuSans-62" x="333.732422"/>
      <use xlink:href="#DejaVuSans-73" x="397.208984"/>
      <use xlink:href="#DejaVuSans-6f" x="449.308594"/>
      <use xlink:href="#DejaVuSans-72" x="510.490234"/>
      <use xlink:href="#DejaVuSans-62" x="551.603516"/>
      <use xlink:href="#DejaVuSans-65" x="615.080078"/>
      <use xlink:href="#DejaVuSans-64" x="676.603516"/>
     </g>
    </g>
   </g>
  </g>
 </g>
 <defs>
  <clipPath id="p813007cc56">
   <rect x="61.367804" y="10.8" width="345.056098" height="235.24"/>
  </clipPath>
  <clipPath id="p1eeab9a9eb">
   <rect x="454.143902" y="10.8" width="345.056098" height="235.24"/>
  </clipPath>
 </defs>
</svg>
