<?xml version="1.0" encoding="utf-8" standalone="no"?>
<!DOCTYPE svg PUBLIC "-//W3C//DTD SVG 1.1//EN"
  "http://www.w3.org/Graphics/SVG/1.1/DTD/svg11.dtd">
<svg xmlns:xlink="http://www.w3.org/1999/xlink" width="810pt" height="288pt" viewBox="0 0 810 288" xmlns="http://www.w3.org/2000/svg" version="1.1">
 <metadata>
  <rdf:RDF xmlns:dc="http://purl.org/dc/elements/1.1/" xmlns:cc="http://creativecommons.org/ns#" xmlns:rdf="http://www.w3.org/1999/02/22-rdf-syntax-ns#">
   <cc:Work>
    <dc:type rdf:resource="http://purl.org/dc/dcmitype/StillImage"/>
    <dc:date>2023-11-02T02:58:01.434180</dc:date>
    <dc:format>image/svg+xml</dc:format>
    <dc:creator>
     <cc:Agent>
      <dc:title>Matplotlib v3.8.0, https://matplotlib.org/</dc:title>
     </cc:Agent>
    </dc:creator>
   </cc:Work>
  </rdf:RDF>
 </metadata>
 <defs>
  <style type="text/css">*{stroke-linejoin: round; stroke-linecap: butt}</style>
 </defs>
 <g id="figure_1">
  <g id="patch_1">
   <path d="M 0 288 
L 810 288 
L 810 0 
L 0 0 
z
" style="fill: #ffffff"/>
  </g>
  <g id="axes_1">
   <g id="patch_2">
    <path d="M 61.367804 246.04 
L 406.423902 246.04 
L 406.423902 10.8 
L 61.367804 10.8 
z
" style="fill: #ffffff"/>
   </g>
   <g id="matplotlib.axis_1">
    <g id="xtick_1">
     <g id="line2d_1">
      <defs>
       <path id="m0ad4bf4e30" d="M 0 0 
L 0 3.5 
" style="stroke: #000000; stroke-width: 0.8"/>
      </defs>
      <g>
       <use xlink:href="#m0ad4bf4e30" x="62.239158" y="246.04" style="stroke: #000000; stroke-width: 0.8"/>
      </g>
     </g>
     <g id="text_1">
      <!-- 0 -->
      <g transform="translate(59.057908 260.638438) scale(0.1 -0.1)">
       <defs>
        <path id="DejaVuSans-30" d="M 2034 4250 
Q 1547 4250 1301 3770 
Q 1056 3291 1056 2328 
Q 1056 1369 1301 889 
Q 1547 409 2034 409 
Q 2525 409 2770 889 
Q 3016 1369 3016 2328 
Q 3016 3291 2770 3770 
Q 2525 4250 2034 4250 
z
M 2034 4750 
Q 2819 4750 3233 4129 
Q 3647 3509 3647 2328 
Q 3647 1150 3233 529 
Q 2819 -91 2034 -91 
Q 1250 -91 836 529 
Q 422 1150 422 2328 
Q 422 3509 836 4129 
Q 1250 4750 2034 4750 
z
" transform="scale(0.015625)"/>
       </defs>
       <use xlink:href="#DejaVuSans-30"/>
      </g>
     </g>
    </g>
    <g id="xtick_2">
     <g id="line2d_2">
      <g>
       <use xlink:href="#m0ad4bf4e30" x="105.806847" y="246.04" style="stroke: #000000; stroke-width: 0.8"/>
      </g>
     </g>
     <g id="text_2">
      <!-- 500 -->
      <g transform="translate(96.263097 260.638438) scale(0.1 -0.1)">
       <defs>
        <path id="DejaVuSans-35" d="M 691 4666 
L 3169 4666 
L 3169 4134 
L 1269 4134 
L 1269 2991 
Q 1406 3038 1543 3061 
Q 1681 3084 1819 3084 
Q 2600 3084 3056 2656 
Q 3513 2228 3513 1497 
Q 3513 744 3044 326 
Q 2575 -91 1722 -91 
Q 1428 -91 1123 -41 
Q 819 9 494 109 
L 494 744 
Q 775 591 1075 516 
Q 1375 441 1709 441 
Q 2250 441 2565 725 
Q 2881 1009 2881 1497 
Q 2881 1984 2565 2268 
Q 2250 2553 1709 2553 
Q 1456 2553 1204 2497 
Q 953 2441 691 2322 
L 691 4666 
z
" transform="scale(0.015625)"/>
       </defs>
       <use xlink:href="#DejaVuSans-35"/>
       <use xlink:href="#DejaVuSans-30" x="63.623047"/>
       <use xlink:href="#DejaVuSans-30" x="127.246094"/>
      </g>
     </g>
    </g>
    <g id="xtick_3">
     <g id="line2d_3">
      <g>
       <use xlink:href="#m0ad4bf4e30" x="149.374536" y="246.04" style="stroke: #000000; stroke-width: 0.8"/>
      </g>
     </g>
     <g id="text_3">
      <!-- 1000 -->
      <g transform="translate(136.649536 260.638438) scale(0.1 -0.1)">
       <defs>
        <path id="DejaVuSans-31" d="M 794 531 
L 1825 531 
L 1825 4091 
L 703 3866 
L 703 4441 
L 1819 4666 
L 2450 4666 
L 2450 531 
L 3481 531 
L 3481 0 
L 794 0 
L 794 531 
z
" transform="scale(0.015625)"/>
       </defs>
       <use xlink:href="#DejaVuSans-31"/>
       <use xlink:href="#DejaVuSans-30" x="63.623047"/>
       <use xlink:href="#DejaVuSans-30" x="127.246094"/>
       <use xlink:href="#DejaVuSans-30" x="190.869141"/>
      </g>
     </g>
    </g>
    <g id="xtick_4">
     <g id="line2d_4">
      <g>
       <use xlink:href="#m0ad4bf4e30" x="192.942225" y="246.04" style="stroke: #000000; stroke-width: 0.8"/>
      </g>
     </g>
     <g id="text_4">
      <!-- 1500 -->
      <g transform="translate(180.217225 260.638438) scale(0.1 -0.1)">
       <use xlink:href="#DejaVuSans-31"/>
       <use xlink:href="#DejaVuSans-35" x="63.623047"/>
       <use xlink:href="#DejaVuSans-30" x="127.246094"/>
       <use xlink:href="#DejaVuSans-30" x="190.869141"/>
      </g>
     </g>
    </g>
    <g id="xtick_5">
     <g id="line2d_5">
      <g>
       <use xlink:href="#m0ad4bf4e30" x="236.509914" y="246.04" style="stroke: #000000; stroke-width: 0.8"/>
      </g>
     </g>
     <g id="text_5">
      <!-- 2000 -->
      <g transform="translate(223.784914 260.638438) scale(0.1 -0.1)">
       <defs>
        <path id="DejaVuSans-32" d="M 1228 531 
L 3431 531 
L 3431 0 
L 469 0 
L 469 531 
Q 828 903 1448 1529 
Q 2069 2156 2228 2338 
Q 2531 2678 2651 2914 
Q 2772 3150 2772 3378 
Q 2772 3750 2511 3984 
Q 2250 4219 1831 4219 
Q 1534 4219 1204 4116 
Q 875 4013 500 3803 
L 500 4441 
Q 881 4594 1212 4672 
Q 1544 4750 1819 4750 
Q 2544 4750 2975 4387 
Q 3406 4025 3406 3419 
Q 3406 3131 3298 2873 
Q 3191 2616 2906 2266 
Q 2828 2175 2409 1742 
Q 1991 1309 1228 531 
z
" transform="scale(0.015625)"/>
       </defs>
       <use xlink:href="#DejaVuSans-32"/>
       <use xlink:href="#DejaVuSans-30" x="63.623047"/>
       <use xlink:href="#DejaVuSans-30" x="127.246094"/>
       <use xlink:href="#DejaVuSans-30" x="190.869141"/>
      </g>
     </g>
    </g>
    <g id="xtick_6">
     <g id="line2d_6">
      <g>
       <use xlink:href="#m0ad4bf4e30" x="280.077603" y="246.04" style="stroke: #000000; stroke-width: 0.8"/>
      </g>
     </g>
     <g id="text_6">
      <!-- 2500 -->
      <g transform="translate(267.352603 260.638438) scale(0.1 -0.1)">
       <use xlink:href="#DejaVuSans-32"/>
       <use xlink:href="#DejaVuSans-35" x="63.623047"/>
       <use xlink:href="#DejaVuSans-30" x="127.246094"/>
       <use xlink:href="#DejaVuSans-30" x="190.869141"/>
      </g>
     </g>
    </g>
    <g id="xtick_7">
     <g id="line2d_7">
      <g>
       <use xlink:href="#m0ad4bf4e30" x="323.645293" y="246.04" style="stroke: #000000; stroke-width: 0.8"/>
      </g>
     </g>
     <g id="text_7">
      <!-- 3000 -->
      <g transform="translate(310.920293 260.638438) scale(0.1 -0.1)">
       <defs>
        <path id="DejaVuSans-33" d="M 2597 2516 
Q 3050 2419 3304 2112 
Q 3559 1806 3559 1356 
Q 3559 666 3084 287 
Q 2609 -91 1734 -91 
Q 1441 -91 1130 -33 
Q 819 25 488 141 
L 488 750 
Q 750 597 1062 519 
Q 1375 441 1716 441 
Q 2309 441 2620 675 
Q 2931 909 2931 1356 
Q 2931 1769 2642 2001 
Q 2353 2234 1838 2234 
L 1294 2234 
L 1294 2753 
L 1863 2753 
Q 2328 2753 2575 2939 
Q 2822 3125 2822 3475 
Q 2822 3834 2567 4026 
Q 2313 4219 1838 4219 
Q 1578 4219 1281 4162 
Q 984 4106 628 3988 
L 628 4550 
Q 988 4650 1302 4700 
Q 1616 4750 1894 4750 
Q 2613 4750 3031 4423 
Q 3450 4097 3450 3541 
Q 3450 3153 3228 2886 
Q 3006 2619 2597 2516 
z
" transform="scale(0.015625)"/>
       </defs>
       <use xlink:href="#DejaVuSans-33"/>
       <use xlink:href="#DejaVuSans-30" x="63.623047"/>
       <use xlink:href="#DejaVuSans-30" x="127.246094"/>
       <use xlink:href="#DejaVuSans-30" x="190.869141"/>
      </g>
     </g>
    </g>
    <g id="xtick_8">
     <g id="line2d_8">
      <g>
       <use xlink:href="#m0ad4bf4e30" x="367.212982" y="246.04" style="stroke: #000000; stroke-width: 0.8"/>
      </g>
     </g>
     <g id="text_8">
      <!-- 3500 -->
      <g transform="translate(354.487982 260.638438) scale(0.1 -0.1)">
       <use xlink:href="#DejaVuSans-33"/>
       <use xlink:href="#DejaVuSans-35" x="63.623047"/>
       <use xlink:href="#DejaVuSans-30" x="127.246094"/>
       <use xlink:href="#DejaVuSans-30" x="190.869141"/>
      </g>
     </g>
    </g>
    <g id="text_9">
     <!-- Position (nm) -->
     <g transform="translate(200.902103 274.316562) scale(0.1 -0.1)">
      <defs>
       <path id="DejaVuSans-50" d="M 1259 4147 
L 1259 2394 
L 2053 2394 
Q 2494 2394 2734 2622 
Q 2975 2850 2975 3272 
Q 2975 3691 2734 3919 
Q 2494 4147 2053 4147 
L 1259 4147 
z
M 628 4666 
L 2053 4666 
Q 2838 4666 3239 4311 
Q 3641 3956 3641 3272 
Q 3641 2581 3239 2228 
Q 2838 1875 2053 1875 
L 1259 1875 
L 1259 0 
L 628 0 
L 628 4666 
z
" transform="scale(0.015625)"/>
       <path id="DejaVuSans-6f" d="M 1959 3097 
Q 1497 3097 1228 2736 
Q 959 2375 959 1747 
Q 959 1119 1226 758 
Q 1494 397 1959 397 
Q 2419 397 2687 759 
Q 2956 1122 2956 1747 
Q 2956 2369 2687 2733 
Q 2419 3097 1959 3097 
z
M 1959 3584 
Q 2709 3584 3137 3096 
Q 3566 2609 3566 1747 
Q 3566 888 3137 398 
Q 2709 -91 1959 -91 
Q 1206 -91 779 398 
Q 353 888 353 1747 
Q 353 2609 779 3096 
Q 1206 3584 1959 3584 
z
" transform="scale(0.015625)"/>
       <path id="DejaVuSans-73" d="M 2834 3397 
L 2834 2853 
Q 2591 2978 2328 3040 
Q 2066 3103 1784 3103 
Q 1356 3103 1142 2972 
Q 928 2841 928 2578 
Q 928 2378 1081 2264 
Q 1234 2150 1697 2047 
L 1894 2003 
Q 2506 1872 2764 1633 
Q 3022 1394 3022 966 
Q 3022 478 2636 193 
Q 2250 -91 1575 -91 
Q 1294 -91 989 -36 
Q 684 19 347 128 
L 347 722 
Q 666 556 975 473 
Q 1284 391 1588 391 
Q 1994 391 2212 530 
Q 2431 669 2431 922 
Q 2431 1156 2273 1281 
Q 2116 1406 1581 1522 
L 1381 1569 
Q 847 1681 609 1914 
Q 372 2147 372 2553 
Q 372 3047 722 3315 
Q 1072 3584 1716 3584 
Q 2034 3584 2315 3537 
Q 2597 3491 2834 3397 
z
" transform="scale(0.015625)"/>
       <path id="DejaVuSans-69" d="M 603 3500 
L 1178 3500 
L 1178 0 
L 603 0 
L 603 3500 
z
M 603 4863 
L 1178 4863 
L 1178 4134 
L 603 4134 
L 603 4863 
z
" transform="scale(0.015625)"/>
       <path id="DejaVuSans-74" d="M 1172 4494 
L 1172 3500 
L 2356 3500 
L 2356 3053 
L 1172 3053 
L 1172 1153 
Q 1172 725 1289 603 
Q 1406 481 1766 481 
L 2356 481 
L 2356 0 
L 1766 0 
Q 1100 0 847 248 
Q 594 497 594 1153 
L 594 3053 
L 172 3053 
L 172 3500 
L 594 3500 
L 594 4494 
L 1172 4494 
z
" transform="scale(0.015625)"/>
       <path id="DejaVuSans-6e" d="M 3513 2113 
L 3513 0 
L 2938 0 
L 2938 2094 
Q 2938 2591 2744 2837 
Q 2550 3084 2163 3084 
Q 1697 3084 1428 2787 
Q 1159 2491 1159 1978 
L 1159 0 
L 581 0 
L 581 3500 
L 1159 3500 
L 1159 2956 
Q 1366 3272 1645 3428 
Q 1925 3584 2291 3584 
Q 2894 3584 3203 3211 
Q 3513 2838 3513 2113 
z
" transform="scale(0.015625)"/>
       <path id="DejaVuSans-20" transform="scale(0.015625)"/>
       <path id="DejaVuSans-28" d="M 1984 4856 
Q 1566 4138 1362 3434 
Q 1159 2731 1159 2009 
Q 1159 1288 1364 580 
Q 1569 -128 1984 -844 
L 1484 -844 
Q 1016 -109 783 600 
Q 550 1309 550 2009 
Q 550 2706 781 3412 
Q 1013 4119 1484 4856 
L 1984 4856 
z
" transform="scale(0.015625)"/>
       <path id="DejaVuSans-6d" d="M 3328 2828 
Q 3544 3216 3844 3400 
Q 4144 3584 4550 3584 
Q 5097 3584 5394 3201 
Q 5691 2819 5691 2113 
L 5691 0 
L 5113 0 
L 5113 2094 
Q 5113 2597 4934 2840 
Q 4756 3084 4391 3084 
Q 3944 3084 3684 2787 
Q 3425 2491 3425 1978 
L 3425 0 
L 2847 0 
L 2847 2094 
Q 2847 2600 2669 2842 
Q 2491 3084 2119 3084 
Q 1678 3084 1418 2786 
Q 1159 2488 1159 1978 
L 1159 0 
L 581 0 
L 581 3500 
L 1159 3500 
L 1159 2956 
Q 1356 3278 1631 3431 
Q 1906 3584 2284 3584 
Q 2666 3584 2933 3390 
Q 3200 3197 3328 2828 
z
" transform="scale(0.015625)"/>
       <path id="DejaVuSans-29" d="M 513 4856 
L 1013 4856 
Q 1481 4119 1714 3412 
Q 1947 2706 1947 2009 
Q 1947 1309 1714 600 
Q 1481 -109 1013 -844 
L 513 -844 
Q 928 -128 1133 580 
Q 1338 1288 1338 2009 
Q 1338 2731 1133 3434 
Q 928 4138 513 4856 
z
" transform="scale(0.015625)"/>
      </defs>
      <use xlink:href="#DejaVuSans-50"/>
      <use xlink:href="#DejaVuSans-6f" x="56.677734"/>
      <use xlink:href="#DejaVuSans-73" x="117.859375"/>
      <use xlink:href="#DejaVuSans-69" x="169.958984"/>
      <use xlink:href="#DejaVuSans-74" x="197.742188"/>
      <use xlink:href="#DejaVuSans-69" x="236.951172"/>
      <use xlink:href="#DejaVuSans-6f" x="264.734375"/>
      <use xlink:href="#DejaVuSans-6e" x="325.916016"/>
      <use xlink:href="#DejaVuSans-20" x="389.294922"/>
      <use xlink:href="#DejaVuSans-28" x="421.082031"/>
      <use xlink:href="#DejaVuSans-6e" x="460.095703"/>
      <use xlink:href="#DejaVuSans-6d" x="523.474609"/>
      <use xlink:href="#DejaVuSans-29" x="620.886719"/>
     </g>
    </g>
   </g>
   <g id="matplotlib.axis_2">
    <g id="ytick_1">
     <g id="line2d_9">
      <defs>
       <path id="m7e46c0a53c" d="M 0 0 
L -3.5 0 
" style="stroke: #000000; stroke-width: 0.8"/>
      </defs>
      <g>
       <use xlink:href="#m7e46c0a53c" x="61.367804" y="215.178108" style="stroke: #000000; stroke-width: 0.8"/>
      </g>
     </g>
     <g id="text_10">
      <!-- $\mathdefault{10^{-5}}$ -->
      <g transform="translate(30.867804 218.977327) scale(0.1 -0.1)">
       <defs>
        <path id="DejaVuSans-2212" d="M 678 2272 
L 4684 2272 
L 4684 1741 
L 678 1741 
L 678 2272 
z
" transform="scale(0.015625)"/>
       </defs>
       <use xlink:href="#DejaVuSans-31" transform="translate(0 0.684375)"/>
       <use xlink:href="#DejaVuSans-30" transform="translate(63.623047 0.684375)"/>
       <use xlink:href="#DejaVuSans-2212" transform="translate(128.203125 38.965625) scale(0.7)"/>
       <use xlink:href="#DejaVuSans-35" transform="translate(186.855469 38.965625) scale(0.7)"/>
      </g>
     </g>
    </g>
    <g id="ytick_2">
     <g id="line2d_10">
      <g>
       <use xlink:href="#m7e46c0a53c" x="61.367804" y="183.36058" style="stroke: #000000; stroke-width: 0.8"/>
      </g>
     </g>
     <g id="text_11">
      <!-- $\mathdefault{10^{0}}$ -->
      <g transform="translate(36.767804 187.159798) scale(0.1 -0.1)">
       <use xlink:href="#DejaVuSans-31" transform="translate(0 0.765625)"/>
       <use xlink:href="#DejaVuSans-30" transform="translate(63.623047 0.765625)"/>
       <use xlink:href="#DejaVuSans-30" transform="translate(128.203125 39.046875) scale(0.7)"/>
      </g>
     </g>
    </g>
    <g id="ytick_3">
     <g id="line2d_11">
      <g>
       <use xlink:href="#m7e46c0a53c" x="61.367804" y="151.543051" style="stroke: #000000; stroke-width: 0.8"/>
      </g>
     </g>
     <g id="text_12">
      <!-- $\mathdefault{10^{5}}$ -->
      <g transform="translate(36.767804 155.34227) scale(0.1 -0.1)">
       <use xlink:href="#DejaVuSans-31" transform="translate(0 0.684375)"/>
       <use xlink:href="#DejaVuSans-30" transform="translate(63.623047 0.684375)"/>
       <use xlink:href="#DejaVuSans-35" transform="translate(128.203125 38.965625) scale(0.7)"/>
      </g>
     </g>
    </g>
    <g id="ytick_4">
     <g id="line2d_12">
      <g>
       <use xlink:href="#m7e46c0a53c" x="61.367804" y="119.725523" style="stroke: #000000; stroke-width: 0.8"/>
      </g>
     </g>
     <g id="text_13">
      <!-- $\mathdefault{10^{10}}$ -->
      <g transform="translate(32.267804 123.524742) scale(0.1 -0.1)">
       <use xlink:href="#DejaVuSans-31" transform="translate(0 0.765625)"/>
       <use xlink:href="#DejaVuSans-30" transform="translate(63.623047 0.765625)"/>
       <use xlink:href="#DejaVuSans-31" transform="translate(128.203125 39.046875) scale(0.7)"/>
       <use xlink:href="#DejaVuSans-30" transform="translate(172.739258 39.046875) scale(0.7)"/>
      </g>
     </g>
    </g>
    <g id="ytick_5">
     <g id="line2d_13">
      <g>
       <use xlink:href="#m7e46c0a53c" x="61.367804" y="87.907995" style="stroke: #000000; stroke-width: 0.8"/>
      </g>
     </g>
     <g id="text_14">
      <!-- $\mathdefault{10^{15}}$ -->
      <g transform="translate(32.267804 91.707213) scale(0.1 -0.1)">
       <use xlink:href="#DejaVuSans-31" transform="translate(0 0.684375)"/>
       <use xlink:href="#DejaVuSans-30" transform="translate(63.623047 0.684375)"/>
       <use xlink:href="#DejaVuSans-31" transform="translate(128.203125 38.965625) scale(0.7)"/>
       <use xlink:href="#DejaVuSans-35" transform="translate(172.739258 38.965625) scale(0.7)"/>
      </g>
     </g>
    </g>
    <g id="ytick_6">
     <g id="line2d_14">
      <g>
       <use xlink:href="#m7e46c0a53c" x="61.367804" y="56.090466" style="stroke: #000000; stroke-width: 0.8"/>
      </g>
     </g>
     <g id="text_15">
      <!-- $\mathdefault{10^{20}}$ -->
      <g transform="translate(32.267804 59.889685) scale(0.1 -0.1)">
       <use xlink:href="#DejaVuSans-31" transform="translate(0 0.765625)"/>
       <use xlink:href="#DejaVuSans-30" transform="translate(63.623047 0.765625)"/>
       <use xlink:href="#DejaVuSans-32" transform="translate(128.203125 39.046875) scale(0.7)"/>
       <use xlink:href="#DejaVuSans-30" transform="translate(172.739258 39.046875) scale(0.7)"/>
      </g>
     </g>
    </g>
    <g id="ytick_7">
     <g id="line2d_15">
      <g>
       <use xlink:href="#m7e46c0a53c" x="61.367804" y="24.272938" style="stroke: #000000; stroke-width: 0.8"/>
      </g>
     </g>
     <g id="text_16">
      <!-- $\mathdefault{10^{25}}$ -->
      <g transform="translate(32.267804 28.072157) scale(0.1 -0.1)">
       <use xlink:href="#DejaVuSans-31" transform="translate(0 0.765625)"/>
       <use xlink:href="#DejaVuSans-30" transform="translate(63.623047 0.765625)"/>
       <use xlink:href="#DejaVuSans-32" transform="translate(128.203125 39.046875) scale(0.7)"/>
       <use xlink:href="#DejaVuSans-35" transform="translate(172.739258 39.046875) scale(0.7)"/>
      </g>
     </g>
    </g>
    <g id="text_17">
     <!-- Carrier density (m$^{-3}$) -->
     <g transform="translate(24.767804 181.27) rotate(-90) scale(0.1 -0.1)">
      <defs>
       <path id="DejaVuSans-43" d="M 4122 4306 
L 4122 3641 
Q 3803 3938 3442 4084 
Q 3081 4231 2675 4231 
Q 1875 4231 1450 3742 
Q 1025 3253 1025 2328 
Q 1025 1406 1450 917 
Q 1875 428 2675 428 
Q 3081 428 3442 575 
Q 3803 722 4122 1019 
L 4122 359 
Q 3791 134 3420 21 
Q 3050 -91 2638 -91 
Q 1578 -91 968 557 
Q 359 1206 359 2328 
Q 359 3453 968 4101 
Q 1578 4750 2638 4750 
Q 3056 4750 3426 4639 
Q 3797 4528 4122 4306 
z
" transform="scale(0.015625)"/>
       <path id="DejaVuSans-61" d="M 2194 1759 
Q 1497 1759 1228 1600 
Q 959 1441 959 1056 
Q 959 750 1161 570 
Q 1363 391 1709 391 
Q 2188 391 2477 730 
Q 2766 1069 2766 1631 
L 2766 1759 
L 2194 1759 
z
M 3341 1997 
L 3341 0 
L 2766 0 
L 2766 531 
Q 2569 213 2275 61 
Q 1981 -91 1556 -91 
Q 1019 -91 701 211 
Q 384 513 384 1019 
Q 384 1609 779 1909 
Q 1175 2209 1959 2209 
L 2766 2209 
L 2766 2266 
Q 2766 2663 2505 2880 
Q 2244 3097 1772 3097 
Q 1472 3097 1187 3025 
Q 903 2953 641 2809 
L 641 3341 
Q 956 3463 1253 3523 
Q 1550 3584 1831 3584 
Q 2591 3584 2966 3190 
Q 3341 2797 3341 1997 
z
" transform="scale(0.015625)"/>
       <path id="DejaVuSans-72" d="M 2631 2963 
Q 2534 3019 2420 3045 
Q 2306 3072 2169 3072 
Q 1681 3072 1420 2755 
Q 1159 2438 1159 1844 
L 1159 0 
L 581 0 
L 581 3500 
L 1159 3500 
L 1159 2956 
Q 1341 3275 1631 3429 
Q 1922 3584 2338 3584 
Q 2397 3584 2469 3576 
Q 2541 3569 2628 3553 
L 2631 2963 
z
" transform="scale(0.015625)"/>
       <path id="DejaVuSans-65" d="M 3597 1894 
L 3597 1613 
L 953 1613 
Q 991 1019 1311 708 
Q 1631 397 2203 397 
Q 2534 397 2845 478 
Q 3156 559 3463 722 
L 3463 178 
Q 3153 47 2828 -22 
Q 2503 -91 2169 -91 
Q 1331 -91 842 396 
Q 353 884 353 1716 
Q 353 2575 817 3079 
Q 1281 3584 2069 3584 
Q 2775 3584 3186 3129 
Q 3597 2675 3597 1894 
z
M 3022 2063 
Q 3016 2534 2758 2815 
Q 2500 3097 2075 3097 
Q 1594 3097 1305 2825 
Q 1016 2553 972 2059 
L 3022 2063 
z
" transform="scale(0.015625)"/>
       <path id="DejaVuSans-64" d="M 2906 2969 
L 2906 4863 
L 3481 4863 
L 3481 0 
L 2906 0 
L 2906 525 
Q 2725 213 2448 61 
Q 2172 -91 1784 -91 
Q 1150 -91 751 415 
Q 353 922 353 1747 
Q 353 2572 751 3078 
Q 1150 3584 1784 3584 
Q 2172 3584 2448 3432 
Q 2725 3281 2906 2969 
z
M 947 1747 
Q 947 1113 1208 752 
Q 1469 391 1925 391 
Q 2381 391 2643 752 
Q 2906 1113 2906 1747 
Q 2906 2381 2643 2742 
Q 2381 3103 1925 3103 
Q 1469 3103 1208 2742 
Q 947 2381 947 1747 
z
" transform="scale(0.015625)"/>
       <path id="DejaVuSans-79" d="M 2059 -325 
Q 1816 -950 1584 -1140 
Q 1353 -1331 966 -1331 
L 506 -1331 
L 506 -850 
L 844 -850 
Q 1081 -850 1212 -737 
Q 1344 -625 1503 -206 
L 1606 56 
L 191 3500 
L 800 3500 
L 1894 763 
L 2988 3500 
L 3597 3500 
L 2059 -325 
z
" transform="scale(0.015625)"/>
      </defs>
      <use xlink:href="#DejaVuSans-43" transform="translate(0 0.765625)"/>
      <use xlink:href="#DejaVuSans-61" transform="translate(69.824219 0.765625)"/>
      <use xlink:href="#DejaVuSans-72" transform="translate(131.103516 0.765625)"/>
      <use xlink:href="#DejaVuSans-72" transform="translate(172.216797 0.765625)"/>
      <use xlink:href="#DejaVuSans-69" transform="translate(213.330078 0.765625)"/>
      <use xlink:href="#DejaVuSans-65" transform="translate(241.113281 0.765625)"/>
      <use xlink:href="#DejaVuSans-72" transform="translate(302.636719 0.765625)"/>
      <use xlink:href="#DejaVuSans-20" transform="translate(343.75 0.765625)"/>
      <use xlink:href="#DejaVuSans-64" transform="translate(375.537109 0.765625)"/>
      <use xlink:href="#DejaVuSans-65" transform="translate(439.013672 0.765625)"/>
      <use xlink:href="#DejaVuSans-6e" transform="translate(500.537109 0.765625)"/>
      <use xlink:href="#DejaVuSans-73" transform="translate(563.916016 0.765625)"/>
      <use xlink:href="#DejaVuSans-69" transform="translate(616.015625 0.765625)"/>
      <use xlink:href="#DejaVuSans-74" transform="translate(643.798828 0.765625)"/>
      <use xlink:href="#DejaVuSans-79" transform="translate(683.007812 0.765625)"/>
      <use xlink:href="#DejaVuSans-20" transform="translate(742.1875 0.765625)"/>
      <use xlink:href="#DejaVuSans-28" transform="translate(773.974609 0.765625)"/>
      <use xlink:href="#DejaVuSans-6d" transform="translate(812.988281 0.765625)"/>
      <use xlink:href="#DejaVuSans-2212" transform="translate(911.357422 39.046875) scale(0.7)"/>
      <use xlink:href="#DejaVuSans-33" transform="translate(970.009766 39.046875) scale(0.7)"/>
      <use xlink:href="#DejaVuSans-29" transform="translate(1017.280273 0.765625)"/>
     </g>
    </g>
   </g>
   <g id="line2d_16">
    <path d="M 77.052172 63.939475 
L 77.400591 62.199377 
L 77.868121 61.019819 
L 77.914812 60.934785 
L 77.923526 42.834752 
L 78.868669 43.494534 
L 79.784574 43.954237 
L 80.940967 44.331022 
L 82.285752 44.526464 
L 83.747145 44.467646 
L 85.243999 44.105147 
L 86.692485 43.409755 
L 88.006763 42.384591 
L 89.093043 41.115418 
L 89.886501 39.804968 
L 90.694756 37.891223 
L 90.985119 36.966027 
L 90.993833 40.372174 
L 91.081258 40.065537 
L 91.856473 37.629598 
L 91.881742 32.89353 
L 91.964521 33.201826 
L 92.030744 33.979399 
L 92.039457 28.361128 
L 92.144305 29.713573 
L 92.475721 32.087958 
L 92.640691 32.633862 
L 92.748739 38.636084 
L 92.814962 38.780538 
L 92.908578 43.66703 
L 94.557669 47.015193 
L 94.566383 42.347682 
L 94.665717 42.536457 
L 94.73194 42.660589 
L 94.740654 36.922127 
L 94.833332 37.080851 
L 95.320917 37.662252 
L 95.341888 37.678781 
L 95.449936 43.516957 
L 95.516159 43.567057 
L 95.609775 48.322405 
L 97.258866 49.526237 
L 97.26758 44.847989 
L 97.366914 44.916454 
L 97.433137 44.961413 
L 97.441851 39.212723 
L 97.534529 39.271004 
L 98.043085 39.51349 
L 98.151132 45.30717 
L 98.217355 45.330602 
L 98.310971 50.048064 
L 99.960063 50.606147 
L 99.968776 45.924601 
L 100.068111 45.95604 
L 100.134334 45.976555 
L 100.143047 40.224703 
L 100.235726 40.251638 
L 100.744281 40.377064 
L 100.852329 46.154897 
L 100.918552 46.168789 
L 101.012168 50.872662 
L 102.66126 51.198308 
L 102.669973 46.515575 
L 102.769308 46.533699 
L 102.83553 46.545434 
L 102.844244 40.792448 
L 102.936922 40.808131 
L 103.445478 40.891817 
L 103.553526 46.664121 
L 103.619749 46.674704 
L 103.713365 51.37387 
L 105.362456 51.61993 
L 105.37117 46.936796 
L 105.470504 46.950446 
L 105.536727 46.959252 
L 105.545441 41.205889 
L 105.638119 41.217873 
L 106.146675 41.289155 
L 106.254723 47.060193 
L 106.320946 47.070051 
L 106.414561 51.7682 
L 108.063653 51.998508 
L 108.072367 47.315303 
L 108.171701 47.32819 
L 108.237924 47.336528 
L 108.246637 41.583106 
L 108.339316 41.59459 
L 108.847872 41.666573 
L 108.955919 47.438416 
L 109.022142 47.448808 
L 109.115758 52.14774 
L 110.76485 52.393619 
L 110.773563 47.710505 
L 110.872898 47.724463 
L 110.939121 47.733551 
L 110.947834 41.980229 
L 111.040513 41.992821 
L 111.549068 42.072801 
L 111.657116 47.846771 
L 111.723339 47.858506 
L 111.816955 52.559377 
L 113.466047 52.841026 
L 113.47476 48.158109 
L 113.574094 48.174333 
L 113.640317 48.184967 
L 113.649031 42.431848 
L 113.741709 42.446622 
L 114.250265 42.540155 
L 114.358313 48.317407 
L 114.424536 48.331191 
L 114.518152 53.035009 
L 116.167243 53.370145 
L 116.175957 48.687517 
L 116.275291 48.707066 
L 116.341514 48.71995 
L 116.350228 42.967126 
L 116.442906 42.985049 
L 116.951462 43.097589 
L 117.05951 48.879339 
L 117.125732 48.895918 
L 117.219348 53.603743 
L 118.86844 54.010972 
L 118.877154 49.328732 
L 118.976488 49.352721 
L 119.042711 49.368599 
L 119.051424 43.616166 
L 119.144103 43.638263 
L 119.652658 43.775706 
L 119.760706 49.563282 
L 119.826929 49.583471 
L 119.920545 54.296451 
L 121.569637 54.79587 
L 121.57835 50.114124 
L 121.677685 50.143763 
L 121.743908 50.16344 
L 121.752621 44.411504 
L 121.8453 44.438882 
L 122.353855 44.607448 
L 122.461903 50.402216 
L 122.528126 50.426852 
L 122.621742 55.146153 
L 124.270833 55.757976 
L 124.279547 51.076831 
L 124.378881 51.113351 
L 124.445104 51.137645 
L 124.453818 45.386311 
L 124.546496 45.420089 
L 125.055052 45.625749 
L 125.1631 51.42896 
L 125.229323 51.458802 
L 125.322939 56.185453 
L 126.97203 56.927171 
L 126.980744 52.246721 
L 127.080078 52.291223 
L 127.146301 52.320861 
L 127.155015 46.570226 
L 127.247693 46.611398 
L 127.756249 46.859095 
L 127.864296 52.671697 
L 127.930519 52.707321 
L 128.024135 57.44202 
L 129.673227 58.324809 
L 129.68194 53.645117 
L 129.781275 53.698405 
L 129.847498 53.733916 
L 129.856211 47.984049 
L 129.94889 48.033343 
L 130.457445 48.326333 
L 130.565493 54.148838 
L 130.631716 54.19055 
L 130.725332 58.933484 
L 132.374424 59.958419 
L 132.383137 55.279504 
L 132.482472 55.341952 
L 132.548694 55.38358 
L 132.557408 49.634518 
L 132.650086 49.692311 
L 133.158642 50.031896 
L 133.26669 55.864337 
L 133.332913 55.912146 
L 133.426529 60.662787 
L 135.07562 61.816037 
L 135.084334 57.137852 
L 135.183668 57.209352 
L 135.249891 57.257013 
L 135.258605 51.508756 
L 135.351283 51.575076 
L 135.859839 51.960791 
L 135.967887 57.802721 
L 136.03411 57.856335 
L 136.127725 62.613063 
L 137.776817 63.856338 
L 137.785531 59.178747 
L 137.884865 59.258649 
L 137.951088 59.3119 
L 137.959801 53.564412 
L 138.05248 53.638998 
L 138.561036 54.069026 
L 138.669083 59.919459 
L 138.735306 59.97824 
L 138.828922 64.737408 
L 140.478014 65.986972 
L 140.486727 61.309687 
L 140.586062 61.396659 
L 140.652285 61.454593 
L 140.660998 55.707806 
L 140.753677 55.790182 
L 141.262232 56.261709 
L 141.37028 62.118858 
L 141.436503 62.181647 
L 141.530119 66.935649 
L 143.179211 68.030637 
L 143.187924 63.353161 
L 143.287258 63.445045 
L 143.353481 63.506187 
L 143.362195 57.759999 
L 143.454873 57.849534 
L 143.963429 58.35896 
L 144.071477 64.219937 
L 144.1377 64.284847 
L 144.231316 69.020233 
L 145.833716 69.7141 
L 145.880407 69.730785 
L 145.889121 65.052559 
L 145.988455 65.146977 
L 146.054678 65.209703 
L 146.063392 59.464003 
L 146.15607 59.560041 
L 146.664626 60.103644 
L 146.772674 65.965202 
L 146.838896 66.030109 
L 146.932512 70.731731 
L 148.581604 70.901976 
L 148.590318 66.222851 
L 148.689652 66.318963 
L 148.755875 66.382702 
L 148.764588 60.637438 
L 148.857267 60.739548 
L 149.365822 61.314975 
L 149.47387 67.175911 
L 149.540093 67.240048 
L 149.548807 71.92949 
L 149.633709 71.903905 
L 150.936039 71.640317 
L 151.282801 71.598983 
L 151.291514 66.919312 
L 151.390849 67.018183 
L 151.457072 67.083663 
L 151.465785 61.338857 
L 151.558464 61.446888 
L 152.067019 62.05349 
L 152.175067 67.915223 
L 152.24129 67.979536 
L 152.250003 72.668105 
L 152.334906 72.615042 
L 153.20626 72.2198 
L 153.983997 72.015599 
L 153.992711 67.335788 
L 154.092045 67.438704 
L 154.158268 67.506805 
L 154.166982 61.762486 
L 154.25966 61.876351 
L 154.768216 62.513847 
L 154.876264 68.378164 
L 154.942487 68.443832 
L 154.9512 73.131963 
L 155.036103 73.06171 
L 155.790675 72.605439 
L 156.685194 72.303548 
L 156.693908 67.623823 
L 156.793242 67.731426 
L 156.859465 67.802586 
L 156.868179 62.058764 
L 156.960857 62.178322 
L 157.469413 62.846082 
L 157.57746 68.713924 
L 157.643683 68.781573 
L 157.652397 73.469509 
L 157.737299 73.387873 
L 158.417434 72.907686 
L 159.315107 72.556475 
L 159.386391 72.536969 
L 159.395104 67.857419 
L 159.494439 67.969871 
L 159.560662 68.044203 
L 159.569375 62.30087 
L 159.662054 62.425943 
L 160.170609 63.12308 
L 160.278657 68.994733 
L 160.34488 69.064557 
L 160.353594 73.752394 
L 160.438496 73.661809 
L 161.090046 73.154619 
L 161.93021 72.791426 
L 162.087588 72.744969 
L 162.096301 68.065624 
L 162.195636 68.182877 
L 162.261858 68.260351 
L 162.270572 62.517494 
L 162.36325 62.647897 
L 162.871806 63.373461 
L 162.979854 69.248917 
L 163.046077 69.320918 
L 163.05479 74.008685 
L 163.139693 73.910052 
L 163.760053 73.385798 
L 164.561243 73.009402 
L 164.788784 72.938239 
L 164.797498 68.259106 
L 164.896832 68.381048 
L 164.963055 68.461589 
L 164.971769 62.719195 
L 165.064447 62.854752 
L 165.573003 63.607827 
L 165.681051 69.486982 
L 165.747274 69.561099 
L 165.755987 74.2488 
L 165.840889 74.142473 
L 166.427393 73.608216 
L 167.1842 73.222273 
L 167.489981 73.121175 
L 167.498695 68.442255 
L 167.598029 68.56876 
L 167.664252 68.652287 
L 167.672965 62.91034 
L 167.765644 63.050887 
L 168.2742 63.830615 
L 168.382247 69.713332 
L 168.44847 69.789482 
L 168.457184 74.477113 
L 168.542086 74.363209 
L 169.12859 73.798406 
L 169.885397 73.398729 
L 170.191178 73.295448 
L 170.199891 68.616738 
L 170.299226 68.747681 
L 170.365449 68.834108 
L 170.374162 63.092596 
L 170.466841 63.237985 
L 170.975396 64.043577 
L 171.083444 69.929736 
L 171.149667 70.007845 
L 171.158381 74.695402 
L 171.243283 74.574055 
L 171.79348 74.007582 
L 172.503955 73.601017 
L 172.892375 73.462695 
L 172.901088 68.784194 
L 173.000422 68.919459 
L 173.066645 69.008709 
L 173.075359 63.267619 
L 173.168037 63.417711 
L 173.676593 64.248438 
L 173.784641 70.137907 
L 173.850864 70.217893 
L 173.859577 74.905369 
L 173.94448 74.776605 
L 174.494676 74.182694 
L 175.163163 73.782335 
L 175.593571 73.623704 
L 175.602285 68.945408 
L 175.701619 69.084887 
L 175.767842 69.176889 
L 175.776556 63.436209 
L 175.869234 63.590878 
L 176.37779 64.446065 
L 176.485838 70.338726 
L 176.55206 70.420519 
L 176.560774 75.107908 
L 176.645676 74.971785 
L 177.195873 74.351269 
L 177.86436 73.940231 
L 178.294768 73.779401 
L 178.303482 69.101308 
L 178.402816 69.244899 
L 178.469039 69.339584 
L 178.477752 63.599305 
L 178.570431 63.758432 
L 179.078986 64.637451 
L 179.187034 70.533193 
L 179.253257 70.616723 
L 179.261971 75.304019 
L 179.346873 75.160573 
L 179.858725 74.547611 
L 180.523535 74.112502 
L 180.995965 73.93025 
L 181.004678 69.252356 
L 181.104013 69.399962 
L 181.170236 69.497265 
L 181.178949 63.757376 
L 181.271628 63.92085 
L 181.780183 64.823113 
L 181.888231 70.721825 
L 181.954454 70.807025 
L 181.963167 75.49422 
L 182.04807 75.343452 
L 182.559922 74.706083 
L 183.18294 74.28124 
L 183.697161 74.076592 
L 183.705875 69.398894 
L 183.805209 69.550425 
L 183.871432 69.650287 
L 183.880146 63.91078 
L 183.972824 64.078499 
L 184.48138 65.003469 
L 184.589428 70.905054 
L 184.655651 70.991863 
L 184.664364 75.678952 
L 184.749267 75.520887 
L 185.261119 74.859709 
L 185.884137 74.425723 
L 186.398358 74.219144 
L 186.407072 69.54164 
L 186.506406 69.697018 
L 186.572629 69.799387 
L 186.581343 64.060253 
L 186.674021 64.232126 
L 187.182577 65.179371 
L 187.290624 71.083763 
L 187.356847 71.172141 
L 187.365561 75.85912 
L 187.450463 75.693792 
L 187.92242 75.048912 
L 188.544015 74.588333 
L 189.099555 74.358497 
L 189.108268 69.681186 
L 189.207603 69.840353 
L 189.273826 69.945189 
L 189.282539 64.206422 
L 189.375218 64.382395 
L 189.883773 65.352036 
L 189.991821 71.259338 
L 190.058044 71.349344 
L 190.066758 76.036218 
L 190.15166 75.863641 
L 190.623617 75.197084 
L 191.20462 74.750127 
L 191.800752 74.496449 
L 191.809465 69.819339 
L 191.9088 69.9824 
L 191.975022 70.089774 
L 191.983736 64.351384 
L 192.076414 64.531648 
L 192.58497 65.527907 
L 192.693018 71.439558 
L 192.759241 71.532046 
L 192.767954 76.218895 
L 192.852857 76.039192 
L 193.324814 75.352768 
L 193.905817 74.900079 
L 194.501948 74.647037 
L 194.510662 69.97021 
L 194.609996 70.138522 
L 194.676219 70.249332 
L 194.684933 64.511449 
L 194.777611 64.698126 
L 195.286167 65.758974 
L 195.394215 71.687492 
L 195.460438 71.789893 
L 195.469151 76.477397 
L 195.554053 76.291108 
L 196.02601 75.595275 
L 196.607014 75.153972 
L 197.203145 74.918022 
L 197.211859 70.242177 
L 197.311193 70.427522 
L 197.377416 70.549584 
L 197.386129 64.813347 
L 197.478808 65.026056 
L 197.987364 66.541152 
L 198.095411 72.620194 
L 198.161634 72.811069 
L 198.170348 77.505907 
L 198.25525 77.304428 
L 198.644161 76.734306 
L 199.032988 76.46481 
L 199.041702 73.038811 
L 199.571488 74.135319 
L 200.374959 74.622612 
L 201.651919 74.012564 
L 203.593191 72.51659 
L 206.352602 70.920871 
L 210.02873 69.607784 
L 214.66133 68.575693 
L 220.238205 67.75482 
L 226.706155 67.093254 
L 233.982108 66.556218 
L 241.963084 66.119027 
L 259.575702 65.474649 
L 278.5715 65.054994 
L 307.452395 64.701716 
L 341.624361 64.528314 
L 365.978244 64.523277 
L 368.176408 64.603611 
L 369.768567 64.863608 
L 370.896514 65.442524 
L 371.68143 66.410316 
L 372.220144 67.734796 
L 372.586461 69.32172 
L 373.005073 72.916911 
L 373.219233 77.183782 
L 373.303745 80.631509 
L 373.40706 106.489301 
L 373.656801 119.42349 
L 373.825601 123.659876 
L 374.067121 125.681852 
L 374.393097 126.196634 
L 375.306632 126.418259 
L 379.546956 127.254064 
L 382.901047 128.150892 
L 385.434906 129.091242 
L 387.041529 129.910177 
L 388.415925 130.875198 
L 389.423187 131.885066 
L 390.261592 133.149001 
L 390.739534 134.257865 
L 390.739534 134.257865 
" clip-path="url(#p75b84846fe)" style="fill: none; stroke: #0000ff; stroke-width: 1.5; stroke-linecap: square"/>
   </g>
   <g id="line2d_17">
    <path d="M 77.052172 78.097298 
L 77.240821 73.46579 
L 77.442383 72.667467 
L 77.526392 72.709086 
L 77.648927 73.153477 
L 77.788624 74.61464 
L 77.891647 78.514846 
L 77.914812 83.188623 
L 77.923526 51.536304 
L 78.868669 50.880745 
L 79.784574 50.427885 
L 80.940967 50.061807 
L 82.285752 49.881082 
L 83.747145 49.959221 
L 85.243999 50.347165 
L 86.692485 51.076942 
L 88.006763 52.149821 
L 89.093043 53.484341 
L 89.886501 54.876564 
L 90.567049 56.557812 
L 90.985119 57.979603 
L 91.081258 60.871518 
L 91.665303 64.181692 
L 91.856473 65.919058 
L 91.964521 61.767488 
L 92.030744 61.09433 
L 92.144305 48.701934 
L 92.475721 46.331815 
L 92.640691 45.787207 
L 92.649405 56.677099 
L 92.748739 56.476859 
L 92.814962 56.349503 
L 92.823675 60.450968 
L 92.908578 60.367946 
L 94.127261 59.018396 
L 94.557669 58.463056 
L 94.665717 54.157492 
L 94.73194 54.041147 
L 94.833332 42.95735 
L 95.320917 42.377139 
L 95.341888 42.360657 
L 95.350601 53.263665 
L 95.449936 53.19542 
L 95.516159 53.150995 
L 95.524872 57.261136 
L 95.609775 57.230934 
L 97.258866 56.63296 
L 97.366914 52.451822 
L 97.433137 52.411382 
L 97.534529 41.438042 
L 98.043085 41.196361 
L 98.051798 52.1029 
L 98.151132 52.072953 
L 98.217355 52.053538 
L 98.226069 56.166667 
L 98.310971 56.161066 
L 99.960063 56.076754 
L 100.068111 51.934808 
L 100.134334 51.918248 
L 100.235726 40.979377 
L 100.744281 40.85468 
L 100.752995 51.762485 
L 100.852329 51.74668 
L 100.918552 51.736536 
L 101.012168 55.856019 
L 102.66126 55.991744 
L 102.769308 51.864404 
L 102.83553 51.856698 
L 102.936922 40.93022 
L 103.445478 40.847285 
L 103.454192 51.755543 
L 103.553526 51.745047 
L 103.619749 51.738368 
L 103.713365 55.863599 
L 105.362456 56.107978 
L 105.470504 51.986127 
L 105.536727 51.981693 
L 105.638119 41.059315 
L 106.146675 40.98885 
L 106.155388 51.897225 
L 106.254723 51.888426 
L 106.320946 51.882831 
L 106.414561 56.0114 
L 108.063653 56.322812 
L 108.171701 52.202726 
L 108.237924 52.199274 
L 108.339316 41.27749 
L 108.847872 41.206422 
L 108.856585 52.114752 
L 108.955919 52.105956 
L 109.022142 52.100322 
L 109.115758 56.231307 
L 110.76485 56.595457 
L 110.872898 52.475415 
L 110.939121 52.471876 
L 111.040513 41.54893 
L 111.549068 41.469988 
L 111.557782 52.378173 
L 111.657116 52.368351 
L 111.723339 52.361994 
L 111.816955 56.495034 
L 113.466047 56.908362 
L 113.574094 52.787357 
L 113.640317 52.783094 
L 113.741709 41.85782 
L 114.250265 41.765474 
L 114.258979 52.673427 
L 114.358313 52.661715 
L 114.424536 52.654058 
L 114.518152 56.788974 
L 116.167243 57.251861 
L 116.275291 53.129074 
L 116.341514 53.123562 
L 116.442906 42.194914 
L 116.951462 42.083739 
L 116.960175 52.991367 
L 117.05951 52.976861 
L 117.125732 52.967298 
L 117.219348 57.103923 
L 118.86844 57.617677 
L 118.976488 53.49227 
L 119.042711 53.484968 
L 119.144103 42.551836 
L 119.652658 42.41597 
L 119.661372 53.323172 
L 119.760706 53.304876 
L 119.826929 53.292739 
L 119.920545 57.430853 
L 121.569637 57.996307 
L 121.677685 53.867366 
L 121.743908 53.857685 
L 121.8453 42.918872 
L 122.353855 42.752126 
L 122.362569 53.658798 
L 122.461903 53.635675 
L 122.528126 53.620267 
L 122.621742 57.759584 
L 124.173231 58.3311 
L 124.270833 58.376639 
L 124.378881 54.243228 
L 124.445104 54.230563 
L 124.546496 43.284858 
L 125.055052 43.081284 
L 125.063765 53.98733 
L 125.1631 53.958417 
L 125.229323 53.939094 
L 125.322939 58.0793 
L 126.744489 58.631614 
L 126.97203 58.747102 
L 127.080078 54.608379 
L 127.146301 54.592186 
L 127.247693 43.638508 
L 127.756249 43.393173 
L 127.764962 54.298519 
L 127.864296 54.263067 
L 127.930519 54.239326 
L 128.024135 58.380127 
L 129.367446 58.928797 
L 129.673227 59.097555 
L 129.781275 54.952901 
L 129.847498 54.932778 
L 129.94889 43.970333 
L 130.457445 43.679967 
L 130.466159 54.584569 
L 130.565493 54.542132 
L 130.631716 54.513674 
L 130.725332 58.654841 
L 131.944015 59.167435 
L 132.374424 59.420955 
L 132.482472 55.270063 
L 132.548694 55.245804 
L 132.650086 44.274168 
L 133.158642 43.937409 
L 133.167356 54.841253 
L 133.26669 54.791701 
L 133.332913 54.758439 
L 133.426529 58.899819 
L 134.603191 59.41424 
L 135.07562 59.714108 
L 135.183668 55.556983 
L 135.249891 55.528582 
L 135.351283 44.547699 
L 135.859839 44.164854 
L 135.868552 55.067955 
L 135.967887 55.011407 
L 136.03411 54.973418 
L 136.127725 59.114927 
L 137.221277 59.603598 
L 137.776817 59.977286 
L 137.884865 55.814175 
L 137.951088 55.781776 
L 138.05248 44.791867 
L 138.561036 44.364395 
L 138.569749 55.266782 
L 138.669083 55.203509 
L 138.735306 55.160975 
L 138.828922 59.302571 
L 139.881883 59.786205 
L 140.478014 60.21303 
L 140.586062 56.044316 
L 140.652285 56.008153 
L 140.753677 45.009601 
L 141.262232 44.539546 
L 141.270946 55.441253 
L 141.37028 55.371591 
L 141.436503 55.324735 
L 141.530119 59.466395 
L 142.543492 59.942874 
L 143.179211 60.424835 
L 143.287258 56.250951 
L 143.353481 56.211288 
L 143.454873 45.204535 
L 143.963429 44.694102 
L 143.972143 55.595165 
L 144.071477 55.519455 
L 144.1377 55.468503 
L 144.231316 59.610208 
L 145.206416 60.077854 
L 145.880407 60.616285 
L 145.988455 56.437652 
L 146.054678 56.39475 
L 146.15607 45.380237 
L 146.664626 44.831543 
L 146.673339 55.731996 
L 146.772674 55.650555 
L 146.838896 55.595717 
L 146.932512 59.737447 
L 147.870985 60.195064 
L 148.581604 60.790648 
L 148.689652 56.607656 
L 148.755875 56.561754 
L 148.857267 45.539885 
L 149.365822 44.954859 
L 149.374536 55.85473 
L 149.47387 55.767842 
L 149.540093 55.709309 
L 149.633709 59.851041 
L 150.537519 60.2979 
L 151.211517 60.870152 
L 151.282801 60.950681 
L 151.390849 56.763675 
L 151.457072 56.714987 
L 151.558464 45.686126 
L 152.067019 45.066479 
L 152.075733 55.965797 
L 152.175067 55.873712 
L 152.24129 55.811648 
L 152.334906 59.953357 
L 153.238716 60.410909 
L 153.886395 60.982231 
L 153.983997 61.09858 
L 154.092045 56.907863 
L 154.158268 56.856576 
L 154.25966 45.821043 
L 154.768216 45.168294 
L 154.776929 56.067081 
L 154.876264 55.970018 
L 154.942487 55.90457 
L 155.036103 60.046229 
L 155.907456 60.491306 
L 156.559006 61.078259 
L 156.685194 61.236105 
L 156.793242 57.041946 
L 156.859465 56.988226 
L 156.960857 45.946305 
L 157.469413 45.261797 
L 157.478126 56.160075 
L 157.57746 56.05823 
L 157.643683 55.989528 
L 157.737299 60.13111 
L 158.578474 60.563841 
L 159.195157 61.119077 
L 159.386391 61.364714 
L 159.494439 57.167353 
L 159.560662 57.111348 
L 159.662054 46.063291 
L 160.170609 45.348226 
L 160.179323 56.246013 
L 160.278657 56.139561 
L 160.34488 56.067721 
L 160.438496 60.209203 
L 161.279671 60.649497 
L 161.896353 61.226454 
L 162.087588 61.485582 
L 162.195636 57.285233 
L 162.261858 57.227075 
L 162.36325 46.17311 
L 162.871806 45.428567 
L 162.88052 56.32588 
L 162.979854 56.214977 
L 163.046077 56.140103 
L 163.139693 60.281461 
L 163.952757 60.708575 
L 164.561243 61.281196 
L 164.788784 61.599641 
L 164.896832 57.396496 
L 164.963055 57.336306 
L 165.064447 46.276635 
L 165.573003 45.503593 
L 165.581716 56.400447 
L 165.681051 56.285236 
L 165.747274 56.207423 
L 165.840889 60.348633 
L 166.653954 60.781812 
L 167.224096 61.325133 
L 167.489981 61.70772 
L 167.598029 57.50196 
L 167.664252 57.439847 
L 167.765644 46.374657 
L 168.2742 45.574005 
L 168.282913 56.470414 
L 168.382247 56.351025 
L 168.44847 56.27036 
L 168.542086 60.411402 
L 169.328538 60.830644 
L 169.885397 61.359901 
L 170.191178 61.810413 
L 170.299226 57.602196 
L 170.365449 57.538259 
L 170.466841 46.467718 
L 170.975396 45.640273 
L 170.98411 56.536251 
L 171.083444 56.412804 
L 171.149667 56.329365 
L 171.243283 60.470223 
L 172.029734 60.894275 
L 172.586594 61.438408 
L 172.892375 61.90831 
L 173.000422 57.697786 
L 173.066645 57.632118 
L 173.168037 46.556383 
L 173.676593 45.702896 
L 173.685307 56.598454 
L 173.784641 56.471059 
L 173.850864 56.38492 
L 173.94448 60.525574 
L 174.722218 60.947507 
L 175.24681 61.459539 
L 175.593571 62.001846 
L 175.701619 57.789154 
L 175.767842 57.721839 
L 175.869234 46.641054 
L 176.37779 45.76222 
L 176.386503 56.657369 
L 176.485838 56.526127 
L 176.55206 56.437357 
L 176.645676 60.57779 
L 177.400249 60.986264 
L 177.948006 61.528145 
L 178.294768 62.091414 
L 178.402816 57.876682 
L 178.469039 57.8078 
L 178.570431 46.722097 
L 179.078986 45.818562 
L 179.0877 56.713312 
L 179.187034 56.578318 
L 179.253257 56.486979 
L 179.346873 60.627178 
L 180.101445 61.038982 
L 180.649203 61.593125 
L 180.995965 62.177165 
L 181.104013 57.960503 
L 181.170236 57.890123 
L 181.271628 46.799626 
L 181.780183 45.871989 
L 181.788897 56.766349 
L 181.888231 56.627687 
L 181.954454 56.533834 
L 182.04807 60.67376 
L 182.802642 61.088274 
L 183.308742 61.597637 
L 183.697161 62.257768 
L 183.805209 58.039215 
L 183.871432 57.967367 
L 183.972824 46.872189 
L 184.48138 45.920994 
L 184.490093 56.814973 
L 184.589428 56.672682 
L 184.655651 56.576344 
L 184.749267 60.715815 
L 185.480313 61.11255 
L 186.009938 61.645943 
L 186.398358 62.321774 
L 186.506406 58.100898 
L 186.572629 58.027351 
L 186.674021 46.927576 
L 187.182577 45.953223 
L 187.19129 56.846819 
L 187.290624 56.700666 
L 187.356847 56.601691 
L 187.450463 60.739448 
L 188.205035 61.136821 
L 188.711135 61.632777 
L 189.099555 62.282584 
L 189.207603 58.055471 
L 189.273826 57.978094 
L 189.375218 46.873634 
L 189.883773 45.875674 
L 189.892487 56.768828 
L 189.991821 56.616598 
L 190.058044 56.513549 
L 190.15166 60.640453 
L 191.05547 60.974119 
L 191.674564 61.439848 
L 191.800752 61.579242 
L 191.9088 57.323357 
L 191.975022 57.229958 
L 192.076414 46.119779 
L 192.58497 45.092119 
L 192.593684 55.984431 
L 192.693018 55.813227 
L 192.759241 55.697768 
L 192.767954 59.801734 
L 192.852857 59.764663 
L 193.724211 59.256283 
L 194.501948 58.566327 
L 194.609996 54.249623 
L 194.676219 54.123417 
L 194.777611 43.004168 
L 195.286167 41.90604 
L 195.29488 52.796039 
L 195.394215 52.578822 
L 195.460438 52.433449 
L 195.469151 56.530423 
L 195.554053 56.374729 
L 196.856383 53.738574 
L 197.203145 52.980633 
L 197.311193 48.618538 
L 197.377416 48.466585 
L 197.478808 37.318203 
L 197.966393 35.836416 
L 197.987364 35.757223 
L 197.996077 46.633028 
L 198.095411 46.243699 
L 198.161634 45.983607 
L 198.170348 50.064129 
L 198.25525 49.727844 
L 199.032988 46.619469 
L 199.041702 44.143721 
L 199.571488 42.281531 
L 200.374959 40.270872 
L 201.651919 38.606314 
L 203.593191 37.832734 
L 206.352602 37.644823 
L 220.238205 37.61659 
L 368.176408 37.519466 
L 369.768567 37.260287 
L 370.896514 36.68189 
L 371.68143 35.71433 
L 372.220144 34.38989 
L 372.586461 32.802916 
L 373.005073 29.207554 
L 373.219233 24.940514 
L 373.303745 21.492727 
L 373.312458 52.877637 
L 373.40706 45.879449 
L 373.656801 32.957457 
L 373.825601 28.72673 
L 374.067121 26.727311 
L 374.393097 26.259576 
L 375.306632 26.18897 
L 390.739534 26.188543 
L 390.739534 26.188543 
" clip-path="url(#p75b84846fe)" style="fill: none; stroke: #ff0000; stroke-width: 1.5; stroke-linecap: square"/>
   </g>
   <g id="line2d_18">
    <path d="M 77.052172 65.041802 
L 77.914812 65.041764 
L 77.923526 46.950231 
L 79.784574 46.838318 
L 81.594019 46.507614 
L 83.006781 46.079987 
L 84.496419 45.438292 
L 85.979461 44.553806 
L 87.372215 43.415898 
L 88.583894 42.061914 
L 89.527648 40.628776 
L 90.397037 38.79435 
L 90.985119 37.040484 
L 90.993833 40.446315 
L 91.081258 40.136549 
L 91.856473 37.680672 
L 91.881742 32.944283 
L 91.964521 33.25236 
L 92.030744 34.030583 
L 92.039457 28.412442 
L 92.144305 29.771288 
L 92.475721 32.207267 
L 92.640691 32.804257 
L 92.748739 38.846397 
L 92.814962 39.015869 
L 92.908578 43.93872 
L 94.557669 47.958373 
L 94.566383 43.294525 
L 94.665717 43.525182 
L 94.73194 43.677734 
L 94.740654 37.942992 
L 94.833332 38.142968 
L 95.341888 39.030043 
L 95.449936 44.942388 
L 95.516159 45.038468 
L 95.609775 49.860261 
L 97.258866 52.257809 
L 97.26758 47.585919 
L 97.366914 47.726649 
L 97.433137 47.820204 
L 97.441851 42.07785 
L 97.534529 42.203658 
L 98.043085 42.844242 
L 98.151132 48.729514 
L 98.217355 48.809557 
L 98.310971 53.60873 
L 99.960063 55.626009 
L 99.968776 50.952194 
L 100.068111 51.071337 
L 100.134334 51.150686 
L 100.143047 45.406498 
L 100.235726 45.514213 
L 100.744281 46.090147 
L 100.852329 51.967355 
L 100.918552 52.042584 
L 101.012168 56.83494 
L 102.66126 58.736689 
L 102.669973 54.062286 
L 102.769308 54.174838 
L 102.83553 54.249847 
L 102.844244 48.505098 
L 102.936922 48.607263 
L 103.445478 49.162924 
L 103.553526 55.037507 
L 103.619749 55.111166 
L 103.713365 59.901297 
L 105.362456 61.765238 
L 105.37117 57.090643 
L 105.470504 57.201035 
L 105.536727 57.274621 
L 105.545441 51.529688 
L 105.638119 51.630032 
L 106.146675 52.17899 
L 106.254723 58.052694 
L 106.320946 58.125828 
L 106.414561 62.915213 
L 108.063653 64.766482 
L 108.072367 60.091821 
L 108.171701 60.201489 
L 108.237924 60.274598 
L 108.246637 54.529604 
L 108.339316 54.629336 
L 108.847872 55.17604 
L 108.955919 61.049447 
L 109.022142 61.122404 
L 109.115758 65.911537 
L 110.76485 67.758524 
L 110.773563 63.083842 
L 110.872898 63.193265 
L 110.939121 63.266212 
L 110.947834 57.521197 
L 111.040513 57.620723 
L 111.549068 58.166664 
L 111.657116 64.039971 
L 111.723339 64.112867 
L 111.816955 68.901916 
L 113.466047 70.747451 
L 113.47476 66.072762 
L 113.574094 66.182102 
L 113.640317 66.254995 
L 113.649031 60.509972 
L 113.741709 60.609428 
L 114.250265 61.155111 
L 114.358313 67.028384 
L 114.424536 67.101259 
L 114.518152 71.890279 
L 116.167243 73.735322 
L 116.175957 69.06063 
L 116.275291 69.169942 
L 116.341514 69.242817 
L 116.350228 63.497792 
L 116.442906 63.597225 
L 116.951462 64.142819 
L 117.05951 70.016081 
L 117.125732 70.088949 
L 117.219348 74.877959 
L 118.86844 76.722836 
L 118.877154 72.048143 
L 118.976488 72.157445 
L 119.042711 72.230314 
L 119.051424 66.485288 
L 119.144103 66.584712 
L 119.652658 67.130277 
L 119.760706 73.003535 
L 119.826929 73.076401 
L 119.920545 77.865408 
L 121.569637 79.710227 
L 121.57835 75.035534 
L 121.677685 75.144834 
L 121.743908 75.2177 
L 121.752621 69.472674 
L 121.8453 69.572095 
L 122.353855 70.11765 
L 122.461903 75.990906 
L 122.528126 76.063772 
L 122.621742 80.852777 
L 124.270833 82.697578 
L 124.279547 78.022885 
L 124.378881 78.132183 
L 124.445104 78.205048 
L 124.453818 72.460022 
L 124.546496 72.559443 
L 125.055052 73.104994 
L 125.1631 78.97825 
L 125.229323 79.051115 
L 125.322939 83.84012 
L 126.97203 85.684915 
L 126.980744 81.010221 
L 127.080078 81.119519 
L 127.146301 81.192384 
L 127.155015 75.447358 
L 127.247693 75.546779 
L 127.756249 76.092329 
L 127.864296 81.965584 
L 127.930519 82.03845 
L 128.024135 86.827454 
L 129.673227 88.672246 
L 129.68194 83.997553 
L 129.781275 84.106851 
L 129.847498 84.179716 
L 129.856211 78.43469 
L 129.94889 78.53411 
L 130.457445 79.07966 
L 130.565493 84.952915 
L 130.631716 85.025781 
L 130.725332 89.814785 
L 132.374424 91.659577 
L 132.383137 86.984883 
L 132.482472 87.094181 
L 132.548694 87.167046 
L 132.557408 81.42202 
L 132.650086 81.52144 
L 133.158642 82.06699 
L 133.26669 87.940245 
L 133.332913 88.01311 
L 133.426529 92.802115 
L 135.07562 94.646906 
L 135.084334 89.972213 
L 135.183668 90.081511 
L 135.249891 90.154376 
L 135.258605 84.40935 
L 135.351283 84.50877 
L 135.859839 85.054319 
L 135.967887 90.927575 
L 136.03411 91.00044 
L 136.127725 95.789445 
L 137.776817 97.634236 
L 137.785531 92.959543 
L 137.884865 93.06884 
L 137.951088 93.141705 
L 137.959801 87.396679 
L 138.05248 87.496099 
L 138.561036 88.041649 
L 138.669083 93.914904 
L 138.735306 93.98777 
L 138.828922 98.776774 
L 140.478014 100.621565 
L 140.486727 95.946872 
L 140.586062 96.05617 
L 140.652285 96.129035 
L 140.660998 90.384008 
L 140.753677 90.483429 
L 141.262232 91.028978 
L 141.37028 96.902234 
L 141.436503 96.975099 
L 141.530119 101.764104 
L 143.179211 103.608895 
L 143.187924 98.934201 
L 143.287258 99.043499 
L 143.353481 99.116364 
L 143.362195 93.371338 
L 143.454873 93.470758 
L 143.963429 94.016308 
L 144.071477 99.889563 
L 144.1377 99.962428 
L 144.231316 104.751433 
L 145.880407 106.596224 
L 145.889121 101.921531 
L 145.988455 102.030828 
L 146.054678 102.103693 
L 146.063392 96.358667 
L 146.15607 96.458087 
L 146.664626 97.003637 
L 146.772674 102.876893 
L 146.838896 102.949758 
L 146.932512 107.738763 
L 148.581604 109.583553 
L 148.590318 104.90886 
L 148.689652 105.018158 
L 148.755875 105.091023 
L 148.764588 99.345997 
L 148.857267 99.445417 
L 149.365822 99.990967 
L 149.47387 105.864222 
L 149.540093 105.937087 
L 149.633709 110.726092 
L 151.282801 112.570883 
L 151.291514 107.89619 
L 151.390849 108.005487 
L 151.457072 108.078352 
L 151.465785 102.333326 
L 151.558464 102.432746 
L 152.067019 102.978296 
L 152.175067 108.851551 
L 152.24129 108.924416 
L 152.334906 113.713421 
L 153.983997 115.558212 
L 153.992711 110.883519 
L 154.092045 110.992817 
L 154.158268 111.065682 
L 154.166982 105.320655 
L 154.25966 105.420076 
L 154.768216 105.965625 
L 154.876264 111.838881 
L 154.942487 111.911746 
L 155.036103 116.700751 
L 156.685194 118.545542 
L 156.693908 113.870848 
L 156.793242 113.980146 
L 156.859465 114.053011 
L 156.868179 108.307985 
L 156.960857 108.407405 
L 157.469413 108.952955 
L 157.57746 114.82621 
L 157.643683 114.899075 
L 157.737299 119.68808 
L 159.386391 121.532871 
L 159.395104 116.858178 
L 159.494439 116.967476 
L 159.560662 117.040341 
L 159.569375 111.295315 
L 159.662054 111.394735 
L 160.170609 111.940285 
L 160.278657 117.81354 
L 160.34488 117.886405 
L 160.438496 122.67541 
L 162.087588 124.520202 
L 162.096301 119.845508 
L 162.195636 119.954806 
L 162.261858 120.027671 
L 162.270572 114.282645 
L 162.36325 114.382065 
L 162.871806 114.927615 
L 162.979854 120.800871 
L 163.046077 120.873736 
L 163.139693 125.662741 
L 164.788784 127.507534 
L 164.797498 122.83284 
L 164.896832 122.942138 
L 164.963055 123.015003 
L 164.971769 117.269977 
L 165.064447 117.369397 
L 165.573003 117.914948 
L 165.681051 123.788204 
L 165.747274 123.861069 
L 165.840889 128.650074 
L 167.489981 130.49487 
L 167.498695 125.820177 
L 167.598029 125.929475 
L 167.664252 126.00234 
L 167.672965 120.257314 
L 167.765644 120.356735 
L 168.2742 120.902288 
L 168.382247 126.775544 
L 168.44847 126.84841 
L 168.542086 131.637416 
L 170.191178 133.482222 
L 170.199891 128.807529 
L 170.299226 128.916827 
L 170.365449 128.989693 
L 170.374162 123.244667 
L 170.466841 123.344088 
L 170.975396 123.889647 
L 171.083444 129.762906 
L 171.149667 129.835772 
L 171.243283 134.62478 
L 172.892375 136.469616 
L 172.901088 131.794923 
L 173.000422 131.904224 
L 173.066645 131.977091 
L 173.075359 126.232065 
L 173.168037 126.331488 
L 173.676593 126.877065 
L 173.784641 132.75033 
L 173.850864 132.8232 
L 173.94448 137.612212 
L 175.593571 139.457138 
L 175.602285 134.782445 
L 175.701619 134.891751 
L 175.767842 134.964621 
L 175.776556 129.219596 
L 175.869234 129.319025 
L 176.37779 129.864657 
L 176.485838 135.737937 
L 176.55206 135.810818 
L 176.645676 140.599845 
L 178.294768 142.445033 
L 178.303482 137.770342 
L 178.402816 137.879663 
L 178.469039 137.952544 
L 178.477752 132.20752 
L 178.570431 132.306965 
L 179.078986 132.852758 
L 179.187034 138.726088 
L 179.253257 138.798999 
L 179.346873 143.58807 
L 180.995965 145.434031 
L 181.004678 140.759344 
L 181.104013 140.868711 
L 181.170236 140.941623 
L 181.178949 135.196603 
L 181.271628 135.296096 
L 181.780183 135.842362 
L 181.888231 141.715838 
L 181.954454 141.788838 
L 182.04807 146.578038 
L 183.697161 148.426279 
L 183.705875 143.751604 
L 183.805209 143.861109 
L 183.871432 143.934112 
L 183.880146 138.189104 
L 183.972824 138.288739 
L 184.48138 138.836403 
L 184.589428 144.710308 
L 184.655651 144.783572 
L 184.749267 149.573151 
L 186.398358 151.42813 
L 186.407072 146.753491 
L 186.506406 146.863398 
L 186.572629 146.936672 
L 186.581343 141.191699 
L 186.674021 141.291755 
L 187.182577 141.843559 
L 187.290624 147.718738 
L 187.356847 147.792786 
L 187.450463 152.583491 
L 189.099555 154.458453 
L 189.108268 149.783919 
L 189.207603 149.895023 
L 189.273826 149.969097 
L 189.282539 144.224228 
L 189.375218 144.325536 
L 189.883773 144.889729 
L 189.991821 150.768734 
L 190.058044 150.845134 
L 190.15166 155.639221 
L 191.800752 157.57419 
L 191.809465 152.899973 
L 191.9088 153.01467 
L 191.975022 153.091151 
L 191.983736 147.346595 
L 192.076414 147.451685 
L 192.58497 148.054109 
L 192.693018 153.94503 
L 192.759241 154.028757 
L 192.852857 158.83338 
L 194.501948 160.955392 
L 194.510662 156.282164 
L 194.609996 156.408077 
L 194.676219 156.492074 
L 194.684933 150.748497 
L 194.777611 150.865629 
L 195.286167 151.597937 
L 195.394215 157.530559 
L 195.460438 157.639934 
L 195.554053 162.481441 
L 197.203145 165.259512 
L 197.211859 160.589764 
L 197.311193 160.755222 
L 197.377416 160.86579 
L 197.386129 155.125677 
L 197.478808 155.288889 
L 197.87578 156.273947 
L 197.987364 156.651115 
L 198.095411 162.808618 
L 198.161634 163.056452 
L 198.25525 168.09723 
L 199.032988 171.074506 
L 199.041702 167.670848 
L 199.571488 169.440703 
L 200.374959 171.331367 
L 201.651919 172.875134 
L 203.593191 173.585674 
L 206.352602 173.757738 
L 226.706155 173.783541 
L 368.176408 173.880612 
L 369.768567 174.139845 
L 370.896514 174.718227 
L 371.68143 175.685639 
L 372.220144 177.009784 
L 372.586461 178.596322 
L 373.005073 182.190267 
L 373.219233 186.454206 
L 373.303745 189.897525 
L 373.40706 215.737142 
L 373.656801 228.624772 
L 373.825601 232.830017 
L 374.067121 234.813245 
L 374.393097 235.276873 
L 375.306632 235.346851 
L 390.739534 235.347273 
L 390.739534 235.347273 
" clip-path="url(#p75b84846fe)" style="fill: none; stroke-dasharray: 5.55,2.4; stroke-dashoffset: 0; stroke: #0000ff; stroke-width: 1.5"/>
   </g>
   <g id="line2d_19">
    <path d="M 77.052172 196.494015 
L 77.914812 196.494053 
L 77.923526 164.449948 
L 79.784574 164.56186 
L 81.594019 164.892564 
L 83.006781 165.320191 
L 84.496419 165.961886 
L 85.979461 166.846372 
L 87.372215 167.98428 
L 88.583894 169.338265 
L 89.527648 170.771402 
L 90.397037 172.605828 
L 90.985119 174.359695 
L 91.081258 177.141478 
L 91.856473 179.597356 
L 91.964521 175.226377 
L 92.030744 174.448153 
L 92.144305 162.043389 
L 92.475721 159.60741 
L 92.640691 159.01042 
L 92.649405 169.896513 
L 92.748739 169.63234 
L 92.814962 169.462868 
L 92.823675 173.555692 
L 92.908578 173.339308 
L 94.557669 169.319655 
L 94.665717 164.953555 
L 94.73194 164.801003 
L 94.833332 153.671709 
L 95.341888 152.784634 
L 95.350601 163.681561 
L 95.449936 163.536349 
L 95.516159 163.440269 
L 95.524872 167.542495 
L 95.609775 167.417766 
L 97.258866 165.020219 
L 97.366914 160.752087 
L 97.433137 160.658533 
L 97.534529 149.611019 
L 98.043085 148.970435 
L 98.051798 159.869564 
L 98.151132 159.749223 
L 98.217355 159.66918 
L 98.226069 163.773502 
L 98.310971 163.669298 
L 99.960063 161.652019 
L 100.068111 157.4074 
L 100.134334 157.328051 
L 100.235726 146.300464 
L 100.744281 145.72453 
L 100.752995 156.624312 
L 100.852329 156.511382 
L 100.918552 156.436153 
L 100.927266 160.541107 
L 101.012168 160.443087 
L 102.66126 158.541339 
L 102.769308 154.303899 
L 102.83553 154.22889 
L 102.936922 143.207414 
L 103.445478 142.651753 
L 103.454192 153.551747 
L 103.553526 153.44123 
L 103.619749 153.367571 
L 103.628462 157.472731 
L 103.713365 157.376731 
L 105.362456 155.51279 
L 105.470504 151.277702 
L 105.536727 151.204116 
L 105.638119 140.184645 
L 106.146675 139.635687 
L 106.155388 150.535753 
L 106.254723 150.426043 
L 106.320946 150.352909 
L 106.329659 154.458138 
L 106.414561 154.362814 
L 108.063653 152.511546 
L 108.171701 148.277248 
L 108.237924 148.204139 
L 108.339316 137.18534 
L 108.847872 136.638637 
L 108.856585 147.538727 
L 108.955919 147.429289 
L 109.022142 147.356333 
L 109.030856 151.461585 
L 109.115758 151.36649 
L 110.76485 149.519504 
L 110.872898 145.285472 
L 110.939121 145.212524 
L 111.040513 134.193954 
L 111.549068 133.648013 
L 111.557782 144.548111 
L 111.657116 144.438766 
L 111.723339 144.36587 
L 111.732053 148.47113 
L 111.816955 148.376112 
L 113.466047 146.530577 
L 113.574094 142.296635 
L 113.640317 142.223742 
L 113.741709 131.205248 
L 114.250265 130.659566 
L 114.258979 141.559667 
L 114.358313 141.450353 
L 114.424536 141.377478 
L 114.433249 145.48274 
L 114.518152 145.387749 
L 116.167243 143.542705 
L 116.275291 139.308794 
L 116.341514 139.23592 
L 116.442906 128.217452 
L 116.951462 127.671858 
L 116.960175 138.571959 
L 117.05951 138.462656 
L 117.125732 138.389788 
L 117.134446 142.495051 
L 117.219348 142.400069 
L 118.86844 140.555192 
L 118.976488 136.321292 
L 119.042711 136.248423 
L 119.144103 125.229965 
L 119.652658 124.6844 
L 119.661372 135.584502 
L 119.760706 135.475202 
L 119.826929 135.402336 
L 119.835643 139.5076 
L 119.920545 139.41262 
L 121.569637 137.5678 
L 121.677685 133.333903 
L 121.743908 133.261037 
L 121.8453 122.242582 
L 122.353855 121.697027 
L 122.362569 132.597129 
L 122.461903 132.48783 
L 122.528126 132.414965 
L 122.536839 136.520229 
L 122.621742 136.42525 
L 124.270833 134.58045 
L 124.378881 130.346554 
L 124.445104 130.273689 
L 124.546496 119.255234 
L 125.055052 118.709683 
L 125.063765 129.609785 
L 125.1631 129.500487 
L 125.229323 129.427622 
L 125.238036 133.532885 
L 125.322939 133.437907 
L 126.97203 131.593113 
L 127.080078 127.359218 
L 127.146301 127.286353 
L 127.247693 116.267898 
L 127.756249 115.722348 
L 127.764962 126.62245 
L 127.864296 126.513152 
L 127.930519 126.440287 
L 127.939233 130.545551 
L 128.024135 130.450573 
L 129.673227 128.605781 
L 129.781275 124.371886 
L 129.847498 124.299021 
L 129.94889 113.280567 
L 130.457445 112.735017 
L 130.466159 123.635119 
L 130.565493 123.525821 
L 130.631716 123.452956 
L 130.64043 127.55822 
L 130.725332 127.463242 
L 132.374424 125.618451 
L 132.482472 121.384556 
L 132.548694 121.311691 
L 132.650086 110.293237 
L 133.158642 109.747687 
L 133.167356 120.647789 
L 133.26669 120.538491 
L 133.332913 120.465626 
L 133.341626 124.57089 
L 133.426529 124.475912 
L 135.07562 122.631121 
L 135.183668 118.397226 
L 135.249891 118.324361 
L 135.351283 107.305907 
L 135.859839 106.760357 
L 135.868552 117.660459 
L 135.967887 117.551162 
L 136.03411 117.478297 
L 136.042823 121.583561 
L 136.127725 121.488583 
L 137.776817 119.643792 
L 137.884865 115.409897 
L 137.951088 115.337032 
L 138.05248 104.318578 
L 138.561036 103.773028 
L 138.569749 114.67313 
L 138.669083 114.563832 
L 138.735306 114.490967 
L 138.74402 118.596231 
L 138.828922 118.501253 
L 140.478014 116.656463 
L 140.586062 112.422567 
L 140.652285 112.349702 
L 140.753677 101.331248 
L 141.262232 100.785699 
L 141.270946 111.685801 
L 141.37028 111.576503 
L 141.436503 111.503638 
L 141.445217 115.608902 
L 141.530119 115.513924 
L 143.179211 113.669133 
L 143.287258 109.435238 
L 143.353481 109.362373 
L 143.454873 98.343919 
L 143.963429 97.798369 
L 143.972143 108.698471 
L 144.071477 108.589174 
L 144.1377 108.516309 
L 144.146413 112.621572 
L 144.231316 112.526595 
L 145.880407 110.681804 
L 145.988455 106.447909 
L 146.054678 106.375044 
L 146.15607 95.356589 
L 146.664626 94.81104 
L 146.673339 105.711142 
L 146.772674 105.601844 
L 146.838896 105.528979 
L 146.84761 109.634243 
L 146.932512 109.539265 
L 148.581604 107.694474 
L 148.689652 103.460579 
L 148.755875 103.387714 
L 148.857267 92.36926 
L 149.365822 91.82371 
L 149.374536 102.723812 
L 149.47387 102.614515 
L 149.540093 102.54165 
L 149.548807 106.646914 
L 149.633709 106.551936 
L 151.282801 104.707145 
L 151.390849 100.47325 
L 151.457072 100.400385 
L 151.558464 89.381931 
L 152.067019 88.836381 
L 152.075733 99.736483 
L 152.175067 99.627185 
L 152.24129 99.55432 
L 152.250003 103.659584 
L 152.334906 103.564606 
L 153.983997 101.719816 
L 154.092045 97.48592 
L 154.158268 97.413055 
L 154.25966 86.394601 
L 154.768216 85.849052 
L 154.776929 96.749154 
L 154.876264 96.639856 
L 154.942487 96.566991 
L 154.9512 100.672255 
L 155.036103 100.577277 
L 156.685194 98.732486 
L 156.793242 94.498591 
L 156.859465 94.425726 
L 156.960857 83.407272 
L 157.469413 82.861722 
L 157.478126 93.761824 
L 157.57746 93.652526 
L 157.643683 93.579661 
L 157.652397 97.684925 
L 157.737299 97.589947 
L 159.386391 95.745156 
L 159.494439 91.511261 
L 159.560662 91.438396 
L 159.662054 80.419942 
L 160.170609 79.874392 
L 160.179323 90.774494 
L 160.278657 90.665197 
L 160.34488 90.592332 
L 160.353594 94.697595 
L 160.438496 94.602618 
L 162.087588 92.757826 
L 162.195636 88.523931 
L 162.261858 88.451066 
L 162.36325 77.432612 
L 162.871806 76.887062 
L 162.88052 87.787164 
L 162.979854 87.677866 
L 163.046077 87.605001 
L 163.05479 91.710265 
L 163.139693 91.615287 
L 164.788784 89.770494 
L 164.896832 85.536599 
L 164.963055 85.463734 
L 165.064447 74.44528 
L 165.573003 73.899729 
L 165.581716 84.799831 
L 165.681051 84.690533 
L 165.747274 84.617668 
L 165.755987 88.722932 
L 165.840889 88.627953 
L 167.489981 86.783157 
L 167.598029 82.549262 
L 167.664252 82.476397 
L 167.765644 71.457942 
L 168.2742 70.912389 
L 168.282913 81.812491 
L 168.382247 81.703193 
L 168.44847 81.630327 
L 168.457184 85.735591 
L 168.542086 85.640612 
L 170.191178 83.795806 
L 170.299226 79.56191 
L 170.365449 79.489044 
L 170.466841 68.470589 
L 170.975396 67.92503 
L 170.98411 78.825132 
L 171.083444 78.715831 
L 171.149667 78.642964 
L 171.158381 82.748228 
L 171.243283 82.653248 
L 172.892375 80.808411 
L 173.000422 76.574513 
L 173.066645 76.501646 
L 173.168037 65.483189 
L 173.676593 64.937612 
L 173.685307 75.837713 
L 173.784641 75.728407 
L 173.850864 75.655537 
L 173.859577 79.7608 
L 173.94448 79.665815 
L 175.593571 77.82089 
L 175.701619 73.586986 
L 175.767842 73.514116 
L 175.869234 62.495652 
L 176.37779 61.95002 
L 176.386503 72.85012 
L 176.485838 72.740799 
L 176.55206 72.667919 
L 176.560774 76.773181 
L 176.645676 76.678183 
L 178.294768 74.832995 
L 178.402816 70.599074 
L 178.469039 70.526193 
L 178.570431 59.507712 
L 179.078986 58.961919 
L 179.0877 69.862015 
L 179.187034 69.752649 
L 179.253257 69.679738 
L 179.261971 73.784996 
L 179.346873 73.689958 
L 180.995965 71.843997 
L 181.104013 67.610026 
L 181.170236 67.537114 
L 181.271628 56.518581 
L 181.780183 55.972315 
L 181.788897 66.872399 
L 181.888231 66.762899 
L 181.954454 66.689899 
L 181.963167 70.795145 
L 182.04807 70.69999 
L 183.697161 68.851748 
L 183.805209 64.617628 
L 183.871432 64.544625 
L 183.972824 53.525937 
L 184.48138 52.978274 
L 184.490093 63.878325 
L 184.589428 63.768429 
L 184.655651 63.695165 
L 184.664364 67.800375 
L 184.749267 67.704876 
L 186.398358 65.849897 
L 186.506406 61.615339 
L 186.572629 61.542065 
L 186.674021 50.522922 
L 187.182577 49.971118 
L 187.19129 60.871067 
L 187.290624 60.759999 
L 187.356847 60.685951 
L 187.365561 64.791058 
L 187.450463 64.694537 
L 189.099555 62.819575 
L 189.207603 58.583714 
L 189.273826 58.50964 
L 189.375218 47.489141 
L 189.883773 46.924947 
L 189.892487 57.824592 
L 189.991821 57.710003 
L 190.058044 57.633603 
L 190.066758 61.738397 
L 190.15166 61.638807 
L 191.800752 59.703838 
L 191.9088 55.464067 
L 191.975022 55.387586 
L 192.076414 44.362992 
L 192.58497 43.760568 
L 192.593684 54.659264 
L 192.693018 54.533707 
L 192.759241 54.44998 
L 192.767954 58.553802 
L 192.852857 58.444648 
L 194.501948 56.322636 
L 194.609996 52.07066 
L 194.676219 51.986663 
L 194.777611 40.949048 
L 195.286167 40.21674 
L 195.29488 51.112117 
L 195.394215 50.948178 
L 195.460438 50.838803 
L 195.469151 54.939218 
L 195.554053 54.796587 
L 197.203145 52.018516 
L 197.311193 47.723515 
L 197.377416 47.612947 
L 197.478808 36.525788 
L 197.87578 35.54073 
L 197.987364 35.163562 
L 197.996077 46.041048 
L 198.095411 45.670119 
L 198.161634 45.422284 
L 198.170348 49.5043 
L 198.25525 49.180798 
L 199.032988 46.203522 
L 199.041702 43.72933 
L 199.571488 41.959475 
L 200.374959 40.068811 
L 201.651919 38.525044 
L 203.593191 37.814504 
L 206.352602 37.64244 
L 226.706155 37.616637 
L 368.176408 37.519566 
L 369.768567 37.260334 
L 370.896514 36.681951 
L 371.68143 35.714539 
L 372.220144 34.390394 
L 372.586461 32.803856 
L 373.005073 29.209911 
L 373.219233 24.945972 
L 373.303745 21.502653 
L 373.312458 52.887059 
L 373.40706 45.798675 
L 373.656801 32.911045 
L 373.825601 28.7058 
L 374.067121 26.722572 
L 374.393097 26.258944 
L 375.306632 26.188966 
L 390.739534 26.188544 
L 390.739534 26.188544 
" clip-path="url(#p75b84846fe)" style="fill: none; stroke-dasharray: 5.55,2.4; stroke-dashoffset: 0; stroke: #ff0000; stroke-width: 1.5"/>
   </g>
   <g id="patch_3">
    <path d="M 61.367804 246.04 
L 61.367804 10.8 
" style="fill: none; stroke: #000000; stroke-width: 0.8; stroke-linejoin: miter; stroke-linecap: square"/>
   </g>
   <g id="patch_4">
    <path d="M 406.423902 246.04 
L 406.423902 10.8 
" style="fill: none; stroke: #000000; stroke-width: 0.8; stroke-linejoin: miter; stroke-linecap: square"/>
   </g>
   <g id="patch_5">
    <path d="M 61.367804 246.04 
L 406.423902 246.04 
" style="fill: none; stroke: #000000; stroke-width: 0.8; stroke-linejoin: miter; stroke-linecap: square"/>
   </g>
   <g id="patch_6">
    <path d="M 61.367804 10.8 
L 406.423902 10.8 
" style="fill: none; stroke: #000000; stroke-width: 0.8; stroke-linejoin: miter; stroke-linecap: square"/>
   </g>
  </g>
  <g id="axes_2">
   <g id="patch_7">
    <path d="M 454.143902 246.04 
L 799.2 246.04 
L 799.2 10.8 
L 454.143902 10.8 
z
" style="fill: #ffffff"/>
   </g>
   <g id="matplotlib.axis_3">
    <g id="xtick_9">
     <g id="line2d_20">
      <g>
       <use xlink:href="#m0ad4bf4e30" x="475.709908" y="246.04" style="stroke: #000000; stroke-width: 0.8"/>
      </g>
     </g>
     <g id="text_18">
      <!-- 400 -->
      <g transform="translate(466.166158 260.638438) scale(0.1 -0.1)">
       <defs>
        <path id="DejaVuSans-34" d="M 2419 4116 
L 825 1625 
L 2419 1625 
L 2419 4116 
z
M 2253 4666 
L 3047 4666 
L 3047 1625 
L 3713 1625 
L 3713 1100 
L 3047 1100 
L 3047 0 
L 2419 0 
L 2419 1100 
L 313 1100 
L 313 1709 
L 2253 4666 
z
" transform="scale(0.015625)"/>
       </defs>
       <use xlink:href="#DejaVuSans-34"/>
       <use xlink:href="#DejaVuSans-30" x="63.623047"/>
       <use xlink:href="#DejaVuSans-30" x="127.246094"/>
      </g>
     </g>
    </g>
    <g id="xtick_10">
     <g id="line2d_21">
      <g>
       <use xlink:href="#m0ad4bf4e30" x="518.84192" y="246.04" style="stroke: #000000; stroke-width: 0.8"/>
      </g>
     </g>
     <g id="text_19">
      <!-- 500 -->
      <g transform="translate(509.29817 260.638438) scale(0.1 -0.1)">
       <use xlink:href="#DejaVuSans-35"/>
       <use xlink:href="#DejaVuSans-30" x="63.623047"/>
       <use xlink:href="#DejaVuSans-30" x="127.246094"/>
      </g>
     </g>
    </g>
    <g id="xtick_11">
     <g id="line2d_22">
      <g>
       <use xlink:href="#m0ad4bf4e30" x="561.973933" y="246.04" style="stroke: #000000; stroke-width: 0.8"/>
      </g>
     </g>
     <g id="text_20">
      <!-- 600 -->
      <g transform="translate(552.430183 260.638438) scale(0.1 -0.1)">
       <defs>
        <path id="DejaVuSans-36" d="M 2113 2584 
Q 1688 2584 1439 2293 
Q 1191 2003 1191 1497 
Q 1191 994 1439 701 
Q 1688 409 2113 409 
Q 2538 409 2786 701 
Q 3034 994 3034 1497 
Q 3034 2003 2786 2293 
Q 2538 2584 2113 2584 
z
M 3366 4563 
L 3366 3988 
Q 3128 4100 2886 4159 
Q 2644 4219 2406 4219 
Q 1781 4219 1451 3797 
Q 1122 3375 1075 2522 
Q 1259 2794 1537 2939 
Q 1816 3084 2150 3084 
Q 2853 3084 3261 2657 
Q 3669 2231 3669 1497 
Q 3669 778 3244 343 
Q 2819 -91 2113 -91 
Q 1303 -91 875 529 
Q 447 1150 447 2328 
Q 447 3434 972 4092 
Q 1497 4750 2381 4750 
Q 2619 4750 2861 4703 
Q 3103 4656 3366 4563 
z
" transform="scale(0.015625)"/>
       </defs>
       <use xlink:href="#DejaVuSans-36"/>
       <use xlink:href="#DejaVuSans-30" x="63.623047"/>
       <use xlink:href="#DejaVuSans-30" x="127.246094"/>
      </g>
     </g>
    </g>
    <g id="xtick_12">
     <g id="line2d_23">
      <g>
       <use xlink:href="#m0ad4bf4e30" x="605.105945" y="246.04" style="stroke: #000000; stroke-width: 0.8"/>
      </g>
     </g>
     <g id="text_21">
      <!-- 700 -->
      <g transform="translate(595.562195 260.638438) scale(0.1 -0.1)">
       <defs>
        <path id="DejaVuSans-37" d="M 525 4666 
L 3525 4666 
L 3525 4397 
L 1831 0 
L 1172 0 
L 2766 4134 
L 525 4134 
L 525 4666 
z
" transform="scale(0.015625)"/>
       </defs>
       <use xlink:href="#DejaVuSans-37"/>
       <use xlink:href="#DejaVuSans-30" x="63.623047"/>
       <use xlink:href="#DejaVuSans-30" x="127.246094"/>
      </g>
     </g>
    </g>
    <g id="xtick_13">
     <g id="line2d_24">
      <g>
       <use xlink:href="#m0ad4bf4e30" x="648.237957" y="246.04" style="stroke: #000000; stroke-width: 0.8"/>
      </g>
     </g>
     <g id="text_22">
      <!-- 800 -->
      <g transform="translate(638.694207 260.638438) scale(0.1 -0.1)">
       <defs>
        <path id="DejaVuSans-38" d="M 2034 2216 
Q 1584 2216 1326 1975 
Q 1069 1734 1069 1313 
Q 1069 891 1326 650 
Q 1584 409 2034 409 
Q 2484 409 2743 651 
Q 3003 894 3003 1313 
Q 3003 1734 2745 1975 
Q 2488 2216 2034 2216 
z
M 1403 2484 
Q 997 2584 770 2862 
Q 544 3141 544 3541 
Q 544 4100 942 4425 
Q 1341 4750 2034 4750 
Q 2731 4750 3128 4425 
Q 3525 4100 3525 3541 
Q 3525 3141 3298 2862 
Q 3072 2584 2669 2484 
Q 3125 2378 3379 2068 
Q 3634 1759 3634 1313 
Q 3634 634 3220 271 
Q 2806 -91 2034 -91 
Q 1263 -91 848 271 
Q 434 634 434 1313 
Q 434 1759 690 2068 
Q 947 2378 1403 2484 
z
M 1172 3481 
Q 1172 3119 1398 2916 
Q 1625 2713 2034 2713 
Q 2441 2713 2670 2916 
Q 2900 3119 2900 3481 
Q 2900 3844 2670 4047 
Q 2441 4250 2034 4250 
Q 1625 4250 1398 4047 
Q 1172 3844 1172 3481 
z
" transform="scale(0.015625)"/>
       </defs>
       <use xlink:href="#DejaVuSans-38"/>
       <use xlink:href="#DejaVuSans-30" x="63.623047"/>
       <use xlink:href="#DejaVuSans-30" x="127.246094"/>
      </g>
     </g>
    </g>
    <g id="xtick_14">
     <g id="line2d_25">
      <g>
       <use xlink:href="#m0ad4bf4e30" x="691.369969" y="246.04" style="stroke: #000000; stroke-width: 0.8"/>
      </g>
     </g>
     <g id="text_23">
      <!-- 900 -->
      <g transform="translate(681.826219 260.638438) scale(0.1 -0.1)">
       <defs>
        <path id="DejaVuSans-39" d="M 703 97 
L 703 672 
Q 941 559 1184 500 
Q 1428 441 1663 441 
Q 2288 441 2617 861 
Q 2947 1281 2994 2138 
Q 2813 1869 2534 1725 
Q 2256 1581 1919 1581 
Q 1219 1581 811 2004 
Q 403 2428 403 3163 
Q 403 3881 828 4315 
Q 1253 4750 1959 4750 
Q 2769 4750 3195 4129 
Q 3622 3509 3622 2328 
Q 3622 1225 3098 567 
Q 2575 -91 1691 -91 
Q 1453 -91 1209 -44 
Q 966 3 703 97 
z
M 1959 2075 
Q 2384 2075 2632 2365 
Q 2881 2656 2881 3163 
Q 2881 3666 2632 3958 
Q 2384 4250 1959 4250 
Q 1534 4250 1286 3958 
Q 1038 3666 1038 3163 
Q 1038 2656 1286 2365 
Q 1534 2075 1959 2075 
z
" transform="scale(0.015625)"/>
       </defs>
       <use xlink:href="#DejaVuSans-39"/>
       <use xlink:href="#DejaVuSans-30" x="63.623047"/>
       <use xlink:href="#DejaVuSans-30" x="127.246094"/>
      </g>
     </g>
    </g>
    <g id="xtick_15">
     <g id="line2d_26">
      <g>
       <use xlink:href="#m0ad4bf4e30" x="734.501982" y="246.04" style="stroke: #000000; stroke-width: 0.8"/>
      </g>
     </g>
     <g id="text_24">
      <!-- 1000 -->
      <g transform="translate(721.776982 260.638438) scale(0.1 -0.1)">
       <use xlink:href="#DejaVuSans-31"/>
       <use xlink:href="#DejaVuSans-30" x="63.623047"/>
       <use xlink:href="#DejaVuSans-30" x="127.246094"/>
       <use xlink:href="#DejaVuSans-30" x="190.869141"/>
      </g>
     </g>
    </g>
    <g id="xtick_16">
     <g id="line2d_27">
      <g>
       <use xlink:href="#m0ad4bf4e30" x="777.633994" y="246.04" style="stroke: #000000; stroke-width: 0.8"/>
      </g>
     </g>
     <g id="text_25">
      <!-- 1100 -->
      <g transform="translate(764.908994 260.638438) scale(0.1 -0.1)">
       <use xlink:href="#DejaVuSans-31"/>
       <use xlink:href="#DejaVuSans-31" x="63.623047"/>
       <use xlink:href="#DejaVuSans-30" x="127.246094"/>
       <use xlink:href="#DejaVuSans-30" x="190.869141"/>
      </g>
     </g>
    </g>
    <g id="text_26">
     <!-- Wavelength (nm) -->
     <g transform="translate(583.479763 274.316562) scale(0.1 -0.1)">
      <defs>
       <path id="DejaVuSans-57" d="M 213 4666 
L 850 4666 
L 1831 722 
L 2809 4666 
L 3519 4666 
L 4500 722 
L 5478 4666 
L 6119 4666 
L 4947 0 
L 4153 0 
L 3169 4050 
L 2175 0 
L 1381 0 
L 213 4666 
z
" transform="scale(0.015625)"/>
       <path id="DejaVuSans-76" d="M 191 3500 
L 800 3500 
L 1894 563 
L 2988 3500 
L 3597 3500 
L 2284 0 
L 1503 0 
L 191 3500 
z
" transform="scale(0.015625)"/>
       <path id="DejaVuSans-6c" d="M 603 4863 
L 1178 4863 
L 1178 0 
L 603 0 
L 603 4863 
z
" transform="scale(0.015625)"/>
       <path id="DejaVuSans-67" d="M 2906 1791 
Q 2906 2416 2648 2759 
Q 2391 3103 1925 3103 
Q 1463 3103 1205 2759 
Q 947 2416 947 1791 
Q 947 1169 1205 825 
Q 1463 481 1925 481 
Q 2391 481 2648 825 
Q 2906 1169 2906 1791 
z
M 3481 434 
Q 3481 -459 3084 -895 
Q 2688 -1331 1869 -1331 
Q 1566 -1331 1297 -1286 
Q 1028 -1241 775 -1147 
L 775 -588 
Q 1028 -725 1275 -790 
Q 1522 -856 1778 -856 
Q 2344 -856 2625 -561 
Q 2906 -266 2906 331 
L 2906 616 
Q 2728 306 2450 153 
Q 2172 0 1784 0 
Q 1141 0 747 490 
Q 353 981 353 1791 
Q 353 2603 747 3093 
Q 1141 3584 1784 3584 
Q 2172 3584 2450 3431 
Q 2728 3278 2906 2969 
L 2906 3500 
L 3481 3500 
L 3481 434 
z
" transform="scale(0.015625)"/>
       <path id="DejaVuSans-68" d="M 3513 2113 
L 3513 0 
L 2938 0 
L 2938 2094 
Q 2938 2591 2744 2837 
Q 2550 3084 2163 3084 
Q 1697 3084 1428 2787 
Q 1159 2491 1159 1978 
L 1159 0 
L 581 0 
L 581 4863 
L 1159 4863 
L 1159 2956 
Q 1366 3272 1645 3428 
Q 1925 3584 2291 3584 
Q 2894 3584 3203 3211 
Q 3513 2838 3513 2113 
z
" transform="scale(0.015625)"/>
      </defs>
      <use xlink:href="#DejaVuSans-57"/>
      <use xlink:href="#DejaVuSans-61" x="92.501953"/>
      <use xlink:href="#DejaVuSans-76" x="153.78125"/>
      <use xlink:href="#DejaVuSans-65" x="212.960938"/>
      <use xlink:href="#DejaVuSans-6c" x="274.484375"/>
      <use xlink:href="#DejaVuSans-65" x="302.267578"/>
      <use xlink:href="#DejaVuSans-6e" x="363.791016"/>
      <use xlink:href="#DejaVuSans-67" x="427.169922"/>
      <use xlink:href="#DejaVuSans-74" x="490.646484"/>
      <use xlink:href="#DejaVuSans-68" x="529.855469"/>
      <use xlink:href="#DejaVuSans-20" x="593.234375"/>
      <use xlink:href="#DejaVuSans-28" x="625.021484"/>
      <use xlink:href="#DejaVuSans-6e" x="664.035156"/>
      <use xlink:href="#DejaVuSans-6d" x="727.414062"/>
      <use xlink:href="#DejaVuSans-29" x="824.826172"/>
     </g>
    </g>
   </g>
   <g id="matplotlib.axis_4">
    <g id="ytick_8">
     <g id="line2d_28">
      <g>
       <use xlink:href="#m7e46c0a53c" x="454.143902" y="246.04" style="stroke: #000000; stroke-width: 0.8"/>
      </g>
     </g>
     <g id="text_27">
      <!-- 0.0 -->
      <g transform="translate(431.240777 249.839219) scale(0.1 -0.1)">
       <defs>
        <path id="DejaVuSans-2e" d="M 684 794 
L 1344 794 
L 1344 0 
L 684 0 
L 684 794 
z
" transform="scale(0.015625)"/>
       </defs>
       <use xlink:href="#DejaVuSans-30"/>
       <use xlink:href="#DejaVuSans-2e" x="63.623047"/>
       <use xlink:href="#DejaVuSans-30" x="95.410156"/>
      </g>
     </g>
    </g>
    <g id="ytick_9">
     <g id="line2d_29">
      <g>
       <use xlink:href="#m7e46c0a53c" x="454.143902" y="203.269091" style="stroke: #000000; stroke-width: 0.8"/>
      </g>
     </g>
     <g id="text_28">
      <!-- 0.2 -->
      <g transform="translate(431.240777 207.06831) scale(0.1 -0.1)">
       <use xlink:href="#DejaVuSans-30"/>
       <use xlink:href="#DejaVuSans-2e" x="63.623047"/>
       <use xlink:href="#DejaVuSans-32" x="95.410156"/>
      </g>
     </g>
    </g>
    <g id="ytick_10">
     <g id="line2d_30">
      <g>
       <use xlink:href="#m7e46c0a53c" x="454.143902" y="160.498182" style="stroke: #000000; stroke-width: 0.8"/>
      </g>
     </g>
     <g id="text_29">
      <!-- 0.4 -->
      <g transform="translate(431.240777 164.297401) scale(0.1 -0.1)">
       <use xlink:href="#DejaVuSans-30"/>
       <use xlink:href="#DejaVuSans-2e" x="63.623047"/>
       <use xlink:href="#DejaVuSans-34" x="95.410156"/>
      </g>
     </g>
    </g>
    <g id="ytick_11">
     <g id="line2d_31">
      <g>
       <use xlink:href="#m7e46c0a53c" x="454.143902" y="117.727273" style="stroke: #000000; stroke-width: 0.8"/>
      </g>
     </g>
     <g id="text_30">
      <!-- 0.6 -->
      <g transform="translate(431.240777 121.526491) scale(0.1 -0.1)">
       <use xlink:href="#DejaVuSans-30"/>
       <use xlink:href="#DejaVuSans-2e" x="63.623047"/>
       <use xlink:href="#DejaVuSans-36" x="95.410156"/>
      </g>
     </g>
    </g>
    <g id="ytick_12">
     <g id="line2d_32">
      <g>
       <use xlink:href="#m7e46c0a53c" x="454.143902" y="74.956364" style="stroke: #000000; stroke-width: 0.8"/>
      </g>
     </g>
     <g id="text_31">
      <!-- 0.8 -->
      <g transform="translate(431.240777 78.755582) scale(0.1 -0.1)">
       <use xlink:href="#DejaVuSans-30"/>
       <use xlink:href="#DejaVuSans-2e" x="63.623047"/>
       <use xlink:href="#DejaVuSans-38" x="95.410156"/>
      </g>
     </g>
    </g>
    <g id="ytick_13">
     <g id="line2d_33">
      <g>
       <use xlink:href="#m7e46c0a53c" x="454.143902" y="32.185455" style="stroke: #000000; stroke-width: 0.8"/>
      </g>
     </g>
     <g id="text_32">
      <!-- 1.0 -->
      <g transform="translate(431.240777 35.984673) scale(0.1 -0.1)">
       <use xlink:href="#DejaVuSans-31"/>
       <use xlink:href="#DejaVuSans-2e" x="63.623047"/>
       <use xlink:href="#DejaVuSans-30" x="95.410156"/>
      </g>
     </g>
    </g>
    <g id="text_33">
     <!-- EQE -->
     <g transform="translate(425.161089 138.674688) rotate(-90) scale(0.1 -0.1)">
      <defs>
       <path id="DejaVuSans-45" d="M 628 4666 
L 3578 4666 
L 3578 4134 
L 1259 4134 
L 1259 2753 
L 3481 2753 
L 3481 2222 
L 1259 2222 
L 1259 531 
L 3634 531 
L 3634 0 
L 628 0 
L 628 4666 
z
" transform="scale(0.015625)"/>
       <path id="DejaVuSans-51" d="M 2522 4238 
Q 1834 4238 1429 3725 
Q 1025 3213 1025 2328 
Q 1025 1447 1429 934 
Q 1834 422 2522 422 
Q 3209 422 3611 934 
Q 4013 1447 4013 2328 
Q 4013 3213 3611 3725 
Q 3209 4238 2522 4238 
z
M 3406 84 
L 4238 -825 
L 3475 -825 
L 2784 -78 
Q 2681 -84 2626 -87 
Q 2572 -91 2522 -91 
Q 1538 -91 948 567 
Q 359 1225 359 2328 
Q 359 3434 948 4092 
Q 1538 4750 2522 4750 
Q 3503 4750 4090 4092 
Q 4678 3434 4678 2328 
Q 4678 1516 4351 937 
Q 4025 359 3406 84 
z
" transform="scale(0.015625)"/>
      </defs>
      <use xlink:href="#DejaVuSans-45"/>
      <use xlink:href="#DejaVuSans-51" x="63.183594"/>
      <use xlink:href="#DejaVuSans-45" x="141.894531"/>
     </g>
    </g>
   </g>
   <g id="line2d_34">
    <path d="M 454.143902 174.361303 
L 456.156729 169.590033 
L 459.17597 164.932255 
L 460.182384 163.043923 
L 464.208038 154.189579 
L 466.220865 149.40658 
L 468.233693 143.15505 
L 469.240106 139.842602 
L 470.24652 135.582385 
L 471.252933 130.330885 
L 473.265761 122.72291 
L 477.291415 110.047973 
L 480.310656 101.311679 
L 484.336311 92.067562 
L 487.355551 84.552903 
L 489.368379 78.169224 
L 492.387619 68.569764 
L 494.400447 62.742359 
L 497.419688 56.204028 
L 498.426101 54.622845 
L 499.432515 53.250907 
L 501.445342 51.034313 
L 503.458169 49.237692 
L 505.470997 47.673155 
L 508.490237 45.772766 
L 510.503065 44.574293 
L 512.515892 43.545008 
L 515.535133 42.29918 
L 518.554374 41.316707 
L 522.580028 40.298115 
L 523.586442 40.14063 
L 528.61851 40.136522 
L 536.669819 40.37968 
L 538.682646 40.394407 
L 547.740369 40.052753 
L 551.766023 39.950099 
L 558.810918 40.112728 
L 564.8494 40.11707 
L 574.913536 39.408531 
L 579.945604 38.762433 
L 583.971259 37.918124 
L 586.9905 36.948965 
L 591.016154 35.282426 
L 595.041809 34.794736 
L 610.138013 34.20356 
L 617.182908 34.125671 
L 626.240631 34.229515 
L 634.29194 34.780255 
L 638.317594 35.081364 
L 643.349662 35.258761 
L 647.375317 35.811025 
L 649.388144 36.257665 
L 651.400971 36.940315 
L 653.413799 37.891159 
L 657.439453 40.343171 
L 659.45228 41.718562 
L 660.458694 43.048161 
L 661.465108 48.786246 
L 663.477935 52.772063 
L 665.490762 57.494103 
L 666.497176 61.145085 
L 668.510003 67.549719 
L 670.52283 74.982948 
L 672.535657 83.848436 
L 673.542071 88.736977 
L 675.554898 100.270634 
L 677.567725 114.100515 
L 679.580553 130.161462 
L 681.59338 149.044618 
L 683.606207 171.91746 
L 684.612621 185.142489 
L 685.619034 193.931216 
L 687.631862 195.335242 
L 688.638275 193.883546 
L 689.644689 206.489892 
L 690.651102 209.703069 
L 691.657516 210.258038 
L 694.676757 211.537007 
L 696.689584 212.777366 
L 698.702411 214.22671 
L 699.708825 214.665373 
L 700.715239 219.253359 
L 701.721652 206.829605 
L 703.73448 220.313077 
L 704.740893 220.345625 
L 706.75372 220.038849 
L 708.766548 219.957406 
L 713.798616 220.101372 
L 715.811443 219.869324 
L 719.837097 219.234205 
L 721.849925 219.154873 
L 724.869166 219.357084 
L 726.881993 219.468424 
L 728.89482 219.38978 
L 729.901234 245.541828 
L 730.907647 225.132002 
L 731.914061 169.633974 
L 732.920475 203.092144 
L 733.926888 243.129268 
L 734.933302 246.04 
L 756.067988 246.04 
L 756.067988 246.04 
" clip-path="url(#p0da294a0c8)" style="fill: none; stroke: #0000ff; stroke-width: 1.5; stroke-linecap: square"/>
   </g>
   <g id="line2d_35">
    <path d="M 454.143902 109.316556 
L 455.150316 110.28111 
L 456.156729 111.047323 
L 457.163143 111.034085 
L 458.169556 110.823669 
L 459.17597 110.2255 
L 460.182384 109.175277 
L 461.188797 107.547909 
L 463.201625 103.691543 
L 465.214452 99.21005 
L 466.220865 96.715379 
L 468.233693 90.993111 
L 469.240106 88.351625 
L 471.252933 82.121743 
L 473.265761 77.830878 
L 478.297829 69.545791 
L 480.310656 66.646594 
L 481.31707 65.422898 
L 483.329897 64.518721 
L 484.336311 64.100979 
L 487.355551 62.140323 
L 488.361965 60.55035 
L 495.40686 48.075823 
L 497.419688 45.300615 
L 499.432515 42.96484 
L 501.445342 40.989978 
L 503.458169 39.450124 
L 505.470997 38.158222 
L 507.483824 37.137502 
L 510.503065 35.897169 
L 512.515892 35.27525 
L 515.535133 34.650842 
L 518.554374 34.288897 
L 522.580028 34.099001 
L 525.599269 34.166117 
L 531.637751 34.569795 
L 543.714714 35.481163 
L 553.77885 35.941419 
L 561.830159 36.143041 
L 567.868641 36.112006 
L 575.91995 35.875163 
L 582.964845 35.477144 
L 587.996913 35.022476 
L 593.028981 34.586822 
L 599.067463 34.309597 
L 611.144427 33.933396 
L 618.189322 33.887422 
L 626.240631 34.028719 
L 635.298353 34.46846 
L 644.356076 35.405334 
L 649.388144 36.515753 
L 651.400971 37.18506 
L 653.413799 38.034305 
L 659.45228 41.14987 
L 660.458694 42.330022 
L 661.465108 47.556774 
L 662.471521 49.317504 
L 663.477935 51.317181 
L 665.490762 55.971877 
L 666.497176 59.605738 
L 668.510003 66.187281 
L 670.52283 73.930387 
L 672.535657 83.176422 
L 674.548485 93.90948 
L 676.561312 106.909236 
L 678.574139 122.007515 
L 680.586966 139.395987 
L 682.599794 160.060982 
L 684.612621 185.174352 
L 685.619034 193.927293 
L 687.631862 195.314484 
L 688.638275 193.855071 
L 689.644689 206.465229 
L 690.651102 209.676703 
L 691.657516 210.229536 
L 693.670343 211.026434 
L 695.683171 212.086549 
L 699.708825 214.644019 
L 700.715239 219.234622 
L 701.721652 206.802036 
L 703.73448 220.294201 
L 704.740893 220.3267 
L 706.75372 220.019947 
L 708.766548 219.939115 
L 713.798616 220.084571 
L 715.811443 219.85212 
L 719.837097 219.215047 
L 721.849925 219.13495 
L 724.869166 219.33705 
L 726.881993 219.448893 
L 728.89482 219.370915 
L 729.901234 245.460991 
L 730.907647 225.117665 
L 731.914061 169.585177 
L 732.920475 203.064331 
L 733.926888 243.127026 
L 734.933302 246.017506 
L 740.971783 246.039832 
L 756.067988 246.04 
L 756.067988 246.04 
" clip-path="url(#p0da294a0c8)" style="fill: none; stroke: #000000; stroke-width: 1.5; stroke-linecap: square"/>
   </g>
   <g id="patch_8">
    <path d="M 454.143902 246.04 
L 454.143902 10.8 
" style="fill: none; stroke: #000000; stroke-width: 0.8; stroke-linejoin: miter; stroke-linecap: square"/>
   </g>
   <g id="patch_9">
    <path d="M 799.2 246.04 
L 799.2 10.8 
" style="fill: none; stroke: #000000; stroke-width: 0.8; stroke-linejoin: miter; stroke-linecap: square"/>
   </g>
   <g id="patch_10">
    <path d="M 454.143902 246.04 
L 799.2 246.04 
" style="fill: none; stroke: #000000; stroke-width: 0.8; stroke-linejoin: miter; stroke-linecap: square"/>
   </g>
   <g id="patch_11">
    <path d="M 454.143902 10.8 
L 799.2 10.8 
" style="fill: none; stroke: #000000; stroke-width: 0.8; stroke-linejoin: miter; stroke-linecap: square"/>
   </g>
   <g id="legend_1">
    <g id="line2d_36">
     <path d="M 688.190625 23.898438 
L 698.190625 23.898438 
L 708.190625 23.898438 
" style="fill: none; stroke: #0000ff; stroke-width: 1.5; stroke-linecap: square"/>
    </g>
    <g id="text_34">
     <!-- EQE GaInP -->
     <g transform="translate(716.190625 27.398438) scale(0.1 -0.1)">
      <defs>
       <path id="DejaVuSans-47" d="M 3809 666 
L 3809 1919 
L 2778 1919 
L 2778 2438 
L 4434 2438 
L 4434 434 
Q 4069 175 3628 42 
Q 3188 -91 2688 -91 
Q 1594 -91 976 548 
Q 359 1188 359 2328 
Q 359 3472 976 4111 
Q 1594 4750 2688 4750 
Q 3144 4750 3555 4637 
Q 3966 4525 4313 4306 
L 4313 3634 
Q 3963 3931 3569 4081 
Q 3175 4231 2741 4231 
Q 1884 4231 1454 3753 
Q 1025 3275 1025 2328 
Q 1025 1384 1454 906 
Q 1884 428 2741 428 
Q 3075 428 3337 486 
Q 3600 544 3809 666 
z
" transform="scale(0.015625)"/>
       <path id="DejaVuSans-49" d="M 628 4666 
L 1259 4666 
L 1259 0 
L 628 0 
L 628 4666 
z
" transform="scale(0.015625)"/>
      </defs>
      <use xlink:href="#DejaVuSans-45"/>
      <use xlink:href="#DejaVuSans-51" x="63.183594"/>
      <use xlink:href="#DejaVuSans-45" x="141.894531"/>
      <use xlink:href="#DejaVuSans-20" x="205.078125"/>
      <use xlink:href="#DejaVuSans-47" x="236.865234"/>
      <use xlink:href="#DejaVuSans-61" x="314.355469"/>
      <use xlink:href="#DejaVuSans-49" x="375.634766"/>
      <use xlink:href="#DejaVuSans-6e" x="405.126953"/>
      <use xlink:href="#DejaVuSans-50" x="468.505859"/>
     </g>
    </g>
    <g id="line2d_37">
     <path d="M 688.190625 38.576563 
L 698.190625 38.576563 
L 708.190625 38.576563 
" style="fill: none; stroke: #000000; stroke-width: 1.5; stroke-linecap: square"/>
    </g>
    <g id="text_35">
     <!-- Total Absorbed -->
     <g transform="translate(716.190625 42.076563) scale(0.1 -0.1)">
      <defs>
       <path id="DejaVuSans-54" d="M -19 4666 
L 3928 4666 
L 3928 4134 
L 2272 4134 
L 2272 0 
L 1638 0 
L 1638 4134 
L -19 4134 
L -19 4666 
z
" transform="scale(0.015625)"/>
       <path id="DejaVuSans-41" d="M 2188 4044 
L 1331 1722 
L 3047 1722 
L 2188 4044 
z
M 1831 4666 
L 2547 4666 
L 4325 0 
L 3669 0 
L 3244 1197 
L 1141 1197 
L 716 0 
L 50 0 
L 1831 4666 
z
" transform="scale(0.015625)"/>
       <path id="DejaVuSans-62" d="M 3116 1747 
Q 3116 2381 2855 2742 
Q 2594 3103 2138 3103 
Q 1681 3103 1420 2742 
Q 1159 2381 1159 1747 
Q 1159 1113 1420 752 
Q 1681 391 2138 391 
Q 2594 391 2855 752 
Q 3116 1113 3116 1747 
z
M 1159 2969 
Q 1341 3281 1617 3432 
Q 1894 3584 2278 3584 
Q 2916 3584 3314 3078 
Q 3713 2572 3713 1747 
Q 3713 922 3314 415 
Q 2916 -91 2278 -91 
Q 1894 -91 1617 61 
Q 1341 213 1159 525 
L 1159 0 
L 581 0 
L 581 4863 
L 1159 4863 
L 1159 2969 
z
" transform="scale(0.015625)"/>
      </defs>
      <use xlink:href="#DejaVuSans-54"/>
      <use xlink:href="#DejaVuSans-6f" x="44.083984"/>
      <use xlink:href="#DejaVuSans-74" x="105.265625"/>
      <use xlink:href="#DejaVuSans-61" x="144.474609"/>
      <use xlink:href="#DejaVuSans-6c" x="205.753906"/>
      <use xlink:href="#DejaVuSans-20" x="233.537109"/>
      <use xlink:href="#DejaVuSans-41" x="265.324219"/>
      <use xlink:href="#DejaVuSans-62" x="333.732422"/>
      <use xlink:href="#DejaVuSans-73" x="397.208984"/>
      <use xlink:href="#DejaVuSans-6f" x="449.308594"/>
      <use xlink:href="#DejaVuSans-72" x="510.490234"/>
      <use xlink:href="#DejaVuSans-62" x="551.603516"/>
      <use xlink:href="#DejaVuSans-65" x="615.080078"/>
      <use xlink:href="#DejaVuSans-64" x="676.603516"/>
     </g>
    </g>
   </g>
  </g>
 </g>
 <defs>
  <clipPath id="p75b84846fe">
   <rect x="61.367804" y="10.8" width="345.056098" height="235.24"/>
  </clipPath>
  <clipPath id="p0da294a0c8">
   <rect x="454.143902" y="10.8" width="345.056098" height="235.24"/>
  </clipPath>
 </defs>
</svg>
