<?xml version="1.0" encoding="utf-8" standalone="no"?>
<!DOCTYPE svg PUBLIC "-//W3C//DTD SVG 1.1//EN"
  "http://www.w3.org/Graphics/SVG/1.1/DTD/svg11.dtd">
<svg xmlns:xlink="http://www.w3.org/1999/xlink" width="810pt" height="288pt" viewBox="0 0 810 288" xmlns="http://www.w3.org/2000/svg" version="1.1">
 <metadata>
  <rdf:RDF xmlns:dc="http://purl.org/dc/elements/1.1/" xmlns:cc="http://creativecommons.org/ns#" xmlns:rdf="http://www.w3.org/1999/02/22-rdf-syntax-ns#">
   <cc:Work>
    <dc:type rdf:resource="http://purl.org/dc/dcmitype/StillImage"/>
    <dc:date>2023-11-09T20:38:02.466604</dc:date>
    <dc:format>image/svg+xml</dc:format>
    <dc:creator>
     <cc:Agent>
      <dc:title>Matplotlib v3.8.0, https://matplotlib.org/</dc:title>
     </cc:Agent>
    </dc:creator>
   </cc:Work>
  </rdf:RDF>
 </metadata>
 <defs>
  <style type="text/css">*{stroke-linejoin: round; stroke-linecap: butt}</style>
 </defs>
 <g id="figure_1">
  <g id="patch_1">
   <path d="M 0 288 
L 810 288 
L 810 0 
L 0 0 
z
" style="fill: #ffffff"/>
  </g>
  <g id="axes_1">
   <g id="patch_2">
    <path d="M 60.013844 246.04 
L 405.746922 246.04 
L 405.746922 10.8 
L 60.013844 10.8 
z
" style="fill: #ffffff"/>
   </g>
   <g id="matplotlib.axis_1">
    <g id="xtick_1">
     <g id="line2d_1">
      <defs>
       <path id="m4587518cc5" d="M 0 0 
L 0 3.5 
" style="stroke: #000000; stroke-width: 0.8"/>
      </defs>
      <g>
       <use xlink:href="#m4587518cc5" x="117.994642" y="246.04" style="stroke: #000000; stroke-width: 0.8"/>
      </g>
     </g>
     <g id="text_1">
      <!-- 500 -->
      <g transform="translate(108.450892 260.638438) scale(0.1 -0.1)">
       <defs>
        <path id="DejaVuSans-35" d="M 691 4666 
L 3169 4666 
L 3169 4134 
L 1269 4134 
L 1269 2991 
Q 1406 3038 1543 3061 
Q 1681 3084 1819 3084 
Q 2600 3084 3056 2656 
Q 3513 2228 3513 1497 
Q 3513 744 3044 326 
Q 2575 -91 1722 -91 
Q 1428 -91 1123 -41 
Q 819 9 494 109 
L 494 744 
Q 775 591 1075 516 
Q 1375 441 1709 441 
Q 2250 441 2565 725 
Q 2881 1009 2881 1497 
Q 2881 1984 2565 2268 
Q 2250 2553 1709 2553 
Q 1456 2553 1204 2497 
Q 953 2441 691 2322 
L 691 4666 
z
" transform="scale(0.015625)"/>
        <path id="DejaVuSans-30" d="M 2034 4250 
Q 1547 4250 1301 3770 
Q 1056 3291 1056 2328 
Q 1056 1369 1301 889 
Q 1547 409 2034 409 
Q 2525 409 2770 889 
Q 3016 1369 3016 2328 
Q 3016 3291 2770 3770 
Q 2525 4250 2034 4250 
z
M 2034 4750 
Q 2819 4750 3233 4129 
Q 3647 3509 3647 2328 
Q 3647 1150 3233 529 
Q 2819 -91 2034 -91 
Q 1250 -91 836 529 
Q 422 1150 422 2328 
Q 422 3509 836 4129 
Q 1250 4750 2034 4750 
z
" transform="scale(0.015625)"/>
       </defs>
       <use xlink:href="#DejaVuSans-35"/>
       <use xlink:href="#DejaVuSans-30" x="63.623047"/>
       <use xlink:href="#DejaVuSans-30" x="127.246094"/>
      </g>
     </g>
    </g>
    <g id="xtick_2">
     <g id="line2d_2">
      <g>
       <use xlink:href="#m4587518cc5" x="182.033517" y="246.04" style="stroke: #000000; stroke-width: 0.8"/>
      </g>
     </g>
     <g id="text_2">
      <!-- 1000 -->
      <g transform="translate(169.308517 260.638438) scale(0.1 -0.1)">
       <defs>
        <path id="DejaVuSans-31" d="M 794 531 
L 1825 531 
L 1825 4091 
L 703 3866 
L 703 4441 
L 1819 4666 
L 2450 4666 
L 2450 531 
L 3481 531 
L 3481 0 
L 794 0 
L 794 531 
z
" transform="scale(0.015625)"/>
       </defs>
       <use xlink:href="#DejaVuSans-31"/>
       <use xlink:href="#DejaVuSans-30" x="63.623047"/>
       <use xlink:href="#DejaVuSans-30" x="127.246094"/>
       <use xlink:href="#DejaVuSans-30" x="190.869141"/>
      </g>
     </g>
    </g>
    <g id="xtick_3">
     <g id="line2d_3">
      <g>
       <use xlink:href="#m4587518cc5" x="246.072392" y="246.04" style="stroke: #000000; stroke-width: 0.8"/>
      </g>
     </g>
     <g id="text_3">
      <!-- 1500 -->
      <g transform="translate(233.347392 260.638438) scale(0.1 -0.1)">
       <use xlink:href="#DejaVuSans-31"/>
       <use xlink:href="#DejaVuSans-35" x="63.623047"/>
       <use xlink:href="#DejaVuSans-30" x="127.246094"/>
       <use xlink:href="#DejaVuSans-30" x="190.869141"/>
      </g>
     </g>
    </g>
    <g id="xtick_4">
     <g id="line2d_4">
      <g>
       <use xlink:href="#m4587518cc5" x="310.111266" y="246.04" style="stroke: #000000; stroke-width: 0.8"/>
      </g>
     </g>
     <g id="text_4">
      <!-- 2000 -->
      <g transform="translate(297.386266 260.638438) scale(0.1 -0.1)">
       <defs>
        <path id="DejaVuSans-32" d="M 1228 531 
L 3431 531 
L 3431 0 
L 469 0 
L 469 531 
Q 828 903 1448 1529 
Q 2069 2156 2228 2338 
Q 2531 2678 2651 2914 
Q 2772 3150 2772 3378 
Q 2772 3750 2511 3984 
Q 2250 4219 1831 4219 
Q 1534 4219 1204 4116 
Q 875 4013 500 3803 
L 500 4441 
Q 881 4594 1212 4672 
Q 1544 4750 1819 4750 
Q 2544 4750 2975 4387 
Q 3406 4025 3406 3419 
Q 3406 3131 3298 2873 
Q 3191 2616 2906 2266 
Q 2828 2175 2409 1742 
Q 1991 1309 1228 531 
z
" transform="scale(0.015625)"/>
       </defs>
       <use xlink:href="#DejaVuSans-32"/>
       <use xlink:href="#DejaVuSans-30" x="63.623047"/>
       <use xlink:href="#DejaVuSans-30" x="127.246094"/>
       <use xlink:href="#DejaVuSans-30" x="190.869141"/>
      </g>
     </g>
    </g>
    <g id="xtick_5">
     <g id="line2d_5">
      <g>
       <use xlink:href="#m4587518cc5" x="374.150141" y="246.04" style="stroke: #000000; stroke-width: 0.8"/>
      </g>
     </g>
     <g id="text_5">
      <!-- 2500 -->
      <g transform="translate(361.425141 260.638438) scale(0.1 -0.1)">
       <use xlink:href="#DejaVuSans-32"/>
       <use xlink:href="#DejaVuSans-35" x="63.623047"/>
       <use xlink:href="#DejaVuSans-30" x="127.246094"/>
       <use xlink:href="#DejaVuSans-30" x="190.869141"/>
      </g>
     </g>
    </g>
    <g id="text_6">
     <!-- Position (nm) -->
     <g transform="translate(199.886633 274.316562) scale(0.1 -0.1)">
      <defs>
       <path id="DejaVuSans-50" d="M 1259 4147 
L 1259 2394 
L 2053 2394 
Q 2494 2394 2734 2622 
Q 2975 2850 2975 3272 
Q 2975 3691 2734 3919 
Q 2494 4147 2053 4147 
L 1259 4147 
z
M 628 4666 
L 2053 4666 
Q 2838 4666 3239 4311 
Q 3641 3956 3641 3272 
Q 3641 2581 3239 2228 
Q 2838 1875 2053 1875 
L 1259 1875 
L 1259 0 
L 628 0 
L 628 4666 
z
" transform="scale(0.015625)"/>
       <path id="DejaVuSans-6f" d="M 1959 3097 
Q 1497 3097 1228 2736 
Q 959 2375 959 1747 
Q 959 1119 1226 758 
Q 1494 397 1959 397 
Q 2419 397 2687 759 
Q 2956 1122 2956 1747 
Q 2956 2369 2687 2733 
Q 2419 3097 1959 3097 
z
M 1959 3584 
Q 2709 3584 3137 3096 
Q 3566 2609 3566 1747 
Q 3566 888 3137 398 
Q 2709 -91 1959 -91 
Q 1206 -91 779 398 
Q 353 888 353 1747 
Q 353 2609 779 3096 
Q 1206 3584 1959 3584 
z
" transform="scale(0.015625)"/>
       <path id="DejaVuSans-73" d="M 2834 3397 
L 2834 2853 
Q 2591 2978 2328 3040 
Q 2066 3103 1784 3103 
Q 1356 3103 1142 2972 
Q 928 2841 928 2578 
Q 928 2378 1081 2264 
Q 1234 2150 1697 2047 
L 1894 2003 
Q 2506 1872 2764 1633 
Q 3022 1394 3022 966 
Q 3022 478 2636 193 
Q 2250 -91 1575 -91 
Q 1294 -91 989 -36 
Q 684 19 347 128 
L 347 722 
Q 666 556 975 473 
Q 1284 391 1588 391 
Q 1994 391 2212 530 
Q 2431 669 2431 922 
Q 2431 1156 2273 1281 
Q 2116 1406 1581 1522 
L 1381 1569 
Q 847 1681 609 1914 
Q 372 2147 372 2553 
Q 372 3047 722 3315 
Q 1072 3584 1716 3584 
Q 2034 3584 2315 3537 
Q 2597 3491 2834 3397 
z
" transform="scale(0.015625)"/>
       <path id="DejaVuSans-69" d="M 603 3500 
L 1178 3500 
L 1178 0 
L 603 0 
L 603 3500 
z
M 603 4863 
L 1178 4863 
L 1178 4134 
L 603 4134 
L 603 4863 
z
" transform="scale(0.015625)"/>
       <path id="DejaVuSans-74" d="M 1172 4494 
L 1172 3500 
L 2356 3500 
L 2356 3053 
L 1172 3053 
L 1172 1153 
Q 1172 725 1289 603 
Q 1406 481 1766 481 
L 2356 481 
L 2356 0 
L 1766 0 
Q 1100 0 847 248 
Q 594 497 594 1153 
L 594 3053 
L 172 3053 
L 172 3500 
L 594 3500 
L 594 4494 
L 1172 4494 
z
" transform="scale(0.015625)"/>
       <path id="DejaVuSans-6e" d="M 3513 2113 
L 3513 0 
L 2938 0 
L 2938 2094 
Q 2938 2591 2744 2837 
Q 2550 3084 2163 3084 
Q 1697 3084 1428 2787 
Q 1159 2491 1159 1978 
L 1159 0 
L 581 0 
L 581 3500 
L 1159 3500 
L 1159 2956 
Q 1366 3272 1645 3428 
Q 1925 3584 2291 3584 
Q 2894 3584 3203 3211 
Q 3513 2838 3513 2113 
z
" transform="scale(0.015625)"/>
       <path id="DejaVuSans-20" transform="scale(0.015625)"/>
       <path id="DejaVuSans-28" d="M 1984 4856 
Q 1566 4138 1362 3434 
Q 1159 2731 1159 2009 
Q 1159 1288 1364 580 
Q 1569 -128 1984 -844 
L 1484 -844 
Q 1016 -109 783 600 
Q 550 1309 550 2009 
Q 550 2706 781 3412 
Q 1013 4119 1484 4856 
L 1984 4856 
z
" transform="scale(0.015625)"/>
       <path id="DejaVuSans-6d" d="M 3328 2828 
Q 3544 3216 3844 3400 
Q 4144 3584 4550 3584 
Q 5097 3584 5394 3201 
Q 5691 2819 5691 2113 
L 5691 0 
L 5113 0 
L 5113 2094 
Q 5113 2597 4934 2840 
Q 4756 3084 4391 3084 
Q 3944 3084 3684 2787 
Q 3425 2491 3425 1978 
L 3425 0 
L 2847 0 
L 2847 2094 
Q 2847 2600 2669 2842 
Q 2491 3084 2119 3084 
Q 1678 3084 1418 2786 
Q 1159 2488 1159 1978 
L 1159 0 
L 581 0 
L 581 3500 
L 1159 3500 
L 1159 2956 
Q 1356 3278 1631 3431 
Q 1906 3584 2284 3584 
Q 2666 3584 2933 3390 
Q 3200 3197 3328 2828 
z
" transform="scale(0.015625)"/>
       <path id="DejaVuSans-29" d="M 513 4856 
L 1013 4856 
Q 1481 4119 1714 3412 
Q 1947 2706 1947 2009 
Q 1947 1309 1714 600 
Q 1481 -109 1013 -844 
L 513 -844 
Q 928 -128 1133 580 
Q 1338 1288 1338 2009 
Q 1338 2731 1133 3434 
Q 928 4138 513 4856 
z
" transform="scale(0.015625)"/>
      </defs>
      <use xlink:href="#DejaVuSans-50"/>
      <use xlink:href="#DejaVuSans-6f" x="56.677734"/>
      <use xlink:href="#DejaVuSans-73" x="117.859375"/>
      <use xlink:href="#DejaVuSans-69" x="169.958984"/>
      <use xlink:href="#DejaVuSans-74" x="197.742188"/>
      <use xlink:href="#DejaVuSans-69" x="236.951172"/>
      <use xlink:href="#DejaVuSans-6f" x="264.734375"/>
      <use xlink:href="#DejaVuSans-6e" x="325.916016"/>
      <use xlink:href="#DejaVuSans-20" x="389.294922"/>
      <use xlink:href="#DejaVuSans-28" x="421.082031"/>
      <use xlink:href="#DejaVuSans-6e" x="460.095703"/>
      <use xlink:href="#DejaVuSans-6d" x="523.474609"/>
      <use xlink:href="#DejaVuSans-29" x="620.886719"/>
     </g>
    </g>
   </g>
   <g id="matplotlib.axis_2">
    <g id="ytick_1">
     <g id="line2d_6">
      <defs>
       <path id="m41fe814b3a" d="M 0 0 
L -3.5 0 
" style="stroke: #000000; stroke-width: 0.8"/>
      </defs>
      <g>
       <use xlink:href="#m41fe814b3a" x="60.013844" y="223.537152" style="stroke: #000000; stroke-width: 0.8"/>
      </g>
     </g>
     <g id="text_7">
      <!-- $\mathdefault{10^{7}}$ -->
      <g transform="translate(35.413844 227.336371) scale(0.1 -0.1)">
       <defs>
        <path id="DejaVuSans-37" d="M 525 4666 
L 3525 4666 
L 3525 4397 
L 1831 0 
L 1172 0 
L 2766 4134 
L 525 4134 
L 525 4666 
z
" transform="scale(0.015625)"/>
       </defs>
       <use xlink:href="#DejaVuSans-31" transform="translate(0 0.684375)"/>
       <use xlink:href="#DejaVuSans-30" transform="translate(63.623047 0.684375)"/>
       <use xlink:href="#DejaVuSans-37" transform="translate(128.203125 38.965625) scale(0.7)"/>
      </g>
     </g>
    </g>
    <g id="ytick_2">
     <g id="line2d_7">
      <g>
       <use xlink:href="#m41fe814b3a" x="60.013844" y="195.614377" style="stroke: #000000; stroke-width: 0.8"/>
      </g>
     </g>
     <g id="text_8">
      <!-- $\mathdefault{10^{9}}$ -->
      <g transform="translate(35.413844 199.413596) scale(0.1 -0.1)">
       <defs>
        <path id="DejaVuSans-39" d="M 703 97 
L 703 672 
Q 941 559 1184 500 
Q 1428 441 1663 441 
Q 2288 441 2617 861 
Q 2947 1281 2994 2138 
Q 2813 1869 2534 1725 
Q 2256 1581 1919 1581 
Q 1219 1581 811 2004 
Q 403 2428 403 3163 
Q 403 3881 828 4315 
Q 1253 4750 1959 4750 
Q 2769 4750 3195 4129 
Q 3622 3509 3622 2328 
Q 3622 1225 3098 567 
Q 2575 -91 1691 -91 
Q 1453 -91 1209 -44 
Q 966 3 703 97 
z
M 1959 2075 
Q 2384 2075 2632 2365 
Q 2881 2656 2881 3163 
Q 2881 3666 2632 3958 
Q 2384 4250 1959 4250 
Q 1534 4250 1286 3958 
Q 1038 3666 1038 3163 
Q 1038 2656 1286 2365 
Q 1534 2075 1959 2075 
z
" transform="scale(0.015625)"/>
       </defs>
       <use xlink:href="#DejaVuSans-31" transform="translate(0 0.765625)"/>
       <use xlink:href="#DejaVuSans-30" transform="translate(63.623047 0.765625)"/>
       <use xlink:href="#DejaVuSans-39" transform="translate(128.203125 39.046875) scale(0.7)"/>
      </g>
     </g>
    </g>
    <g id="ytick_3">
     <g id="line2d_8">
      <g>
       <use xlink:href="#m41fe814b3a" x="60.013844" y="167.691602" style="stroke: #000000; stroke-width: 0.8"/>
      </g>
     </g>
     <g id="text_9">
      <!-- $\mathdefault{10^{11}}$ -->
      <g transform="translate(30.913844 171.49082) scale(0.1 -0.1)">
       <use xlink:href="#DejaVuSans-31" transform="translate(0 0.684375)"/>
       <use xlink:href="#DejaVuSans-30" transform="translate(63.623047 0.684375)"/>
       <use xlink:href="#DejaVuSans-31" transform="translate(128.203125 38.965625) scale(0.7)"/>
       <use xlink:href="#DejaVuSans-31" transform="translate(172.739258 38.965625) scale(0.7)"/>
      </g>
     </g>
    </g>
    <g id="ytick_4">
     <g id="line2d_9">
      <g>
       <use xlink:href="#m41fe814b3a" x="60.013844" y="139.768826" style="stroke: #000000; stroke-width: 0.8"/>
      </g>
     </g>
     <g id="text_10">
      <!-- $\mathdefault{10^{13}}$ -->
      <g transform="translate(30.913844 143.568045) scale(0.1 -0.1)">
       <defs>
        <path id="DejaVuSans-33" d="M 2597 2516 
Q 3050 2419 3304 2112 
Q 3559 1806 3559 1356 
Q 3559 666 3084 287 
Q 2609 -91 1734 -91 
Q 1441 -91 1130 -33 
Q 819 25 488 141 
L 488 750 
Q 750 597 1062 519 
Q 1375 441 1716 441 
Q 2309 441 2620 675 
Q 2931 909 2931 1356 
Q 2931 1769 2642 2001 
Q 2353 2234 1838 2234 
L 1294 2234 
L 1294 2753 
L 1863 2753 
Q 2328 2753 2575 2939 
Q 2822 3125 2822 3475 
Q 2822 3834 2567 4026 
Q 2313 4219 1838 4219 
Q 1578 4219 1281 4162 
Q 984 4106 628 3988 
L 628 4550 
Q 988 4650 1302 4700 
Q 1616 4750 1894 4750 
Q 2613 4750 3031 4423 
Q 3450 4097 3450 3541 
Q 3450 3153 3228 2886 
Q 3006 2619 2597 2516 
z
" transform="scale(0.015625)"/>
       </defs>
       <use xlink:href="#DejaVuSans-31" transform="translate(0 0.765625)"/>
       <use xlink:href="#DejaVuSans-30" transform="translate(63.623047 0.765625)"/>
       <use xlink:href="#DejaVuSans-31" transform="translate(128.203125 39.046875) scale(0.7)"/>
       <use xlink:href="#DejaVuSans-33" transform="translate(172.739258 39.046875) scale(0.7)"/>
      </g>
     </g>
    </g>
    <g id="ytick_5">
     <g id="line2d_10">
      <g>
       <use xlink:href="#m41fe814b3a" x="60.013844" y="111.846051" style="stroke: #000000; stroke-width: 0.8"/>
      </g>
     </g>
     <g id="text_11">
      <!-- $\mathdefault{10^{15}}$ -->
      <g transform="translate(30.913844 115.64527) scale(0.1 -0.1)">
       <use xlink:href="#DejaVuSans-31" transform="translate(0 0.684375)"/>
       <use xlink:href="#DejaVuSans-30" transform="translate(63.623047 0.684375)"/>
       <use xlink:href="#DejaVuSans-31" transform="translate(128.203125 38.965625) scale(0.7)"/>
       <use xlink:href="#DejaVuSans-35" transform="translate(172.739258 38.965625) scale(0.7)"/>
      </g>
     </g>
    </g>
    <g id="ytick_6">
     <g id="line2d_11">
      <g>
       <use xlink:href="#m41fe814b3a" x="60.013844" y="83.923276" style="stroke: #000000; stroke-width: 0.8"/>
      </g>
     </g>
     <g id="text_12">
      <!-- $\mathdefault{10^{17}}$ -->
      <g transform="translate(30.913844 87.722495) scale(0.1 -0.1)">
       <use xlink:href="#DejaVuSans-31" transform="translate(0 0.684375)"/>
       <use xlink:href="#DejaVuSans-30" transform="translate(63.623047 0.684375)"/>
       <use xlink:href="#DejaVuSans-31" transform="translate(128.203125 38.965625) scale(0.7)"/>
       <use xlink:href="#DejaVuSans-37" transform="translate(172.739258 38.965625) scale(0.7)"/>
      </g>
     </g>
    </g>
    <g id="ytick_7">
     <g id="line2d_12">
      <g>
       <use xlink:href="#m41fe814b3a" x="60.013844" y="56.000501" style="stroke: #000000; stroke-width: 0.8"/>
      </g>
     </g>
     <g id="text_13">
      <!-- $\mathdefault{10^{19}}$ -->
      <g transform="translate(30.913844 59.799719) scale(0.1 -0.1)">
       <use xlink:href="#DejaVuSans-31" transform="translate(0 0.765625)"/>
       <use xlink:href="#DejaVuSans-30" transform="translate(63.623047 0.765625)"/>
       <use xlink:href="#DejaVuSans-31" transform="translate(128.203125 39.046875) scale(0.7)"/>
       <use xlink:href="#DejaVuSans-39" transform="translate(172.739258 39.046875) scale(0.7)"/>
      </g>
     </g>
    </g>
    <g id="ytick_8">
     <g id="line2d_13">
      <g>
       <use xlink:href="#m41fe814b3a" x="60.013844" y="28.077725" style="stroke: #000000; stroke-width: 0.8"/>
      </g>
     </g>
     <g id="text_14">
      <!-- $\mathdefault{10^{21}}$ -->
      <g transform="translate(30.913844 31.876944) scale(0.1 -0.1)">
       <use xlink:href="#DejaVuSans-31" transform="translate(0 0.765625)"/>
       <use xlink:href="#DejaVuSans-30" transform="translate(63.623047 0.765625)"/>
       <use xlink:href="#DejaVuSans-32" transform="translate(128.203125 39.046875) scale(0.7)"/>
       <use xlink:href="#DejaVuSans-31" transform="translate(172.739258 39.046875) scale(0.7)"/>
      </g>
     </g>
    </g>
    <g id="text_15">
     <!-- Carrier density (m$^{-3}$) -->
     <g transform="translate(24.813844 181.27) rotate(-90) scale(0.1 -0.1)">
      <defs>
       <path id="DejaVuSans-43" d="M 4122 4306 
L 4122 3641 
Q 3803 3938 3442 4084 
Q 3081 4231 2675 4231 
Q 1875 4231 1450 3742 
Q 1025 3253 1025 2328 
Q 1025 1406 1450 917 
Q 1875 428 2675 428 
Q 3081 428 3442 575 
Q 3803 722 4122 1019 
L 4122 359 
Q 3791 134 3420 21 
Q 3050 -91 2638 -91 
Q 1578 -91 968 557 
Q 359 1206 359 2328 
Q 359 3453 968 4101 
Q 1578 4750 2638 4750 
Q 3056 4750 3426 4639 
Q 3797 4528 4122 4306 
z
" transform="scale(0.015625)"/>
       <path id="DejaVuSans-61" d="M 2194 1759 
Q 1497 1759 1228 1600 
Q 959 1441 959 1056 
Q 959 750 1161 570 
Q 1363 391 1709 391 
Q 2188 391 2477 730 
Q 2766 1069 2766 1631 
L 2766 1759 
L 2194 1759 
z
M 3341 1997 
L 3341 0 
L 2766 0 
L 2766 531 
Q 2569 213 2275 61 
Q 1981 -91 1556 -91 
Q 1019 -91 701 211 
Q 384 513 384 1019 
Q 384 1609 779 1909 
Q 1175 2209 1959 2209 
L 2766 2209 
L 2766 2266 
Q 2766 2663 2505 2880 
Q 2244 3097 1772 3097 
Q 1472 3097 1187 3025 
Q 903 2953 641 2809 
L 641 3341 
Q 956 3463 1253 3523 
Q 1550 3584 1831 3584 
Q 2591 3584 2966 3190 
Q 3341 2797 3341 1997 
z
" transform="scale(0.015625)"/>
       <path id="DejaVuSans-72" d="M 2631 2963 
Q 2534 3019 2420 3045 
Q 2306 3072 2169 3072 
Q 1681 3072 1420 2755 
Q 1159 2438 1159 1844 
L 1159 0 
L 581 0 
L 581 3500 
L 1159 3500 
L 1159 2956 
Q 1341 3275 1631 3429 
Q 1922 3584 2338 3584 
Q 2397 3584 2469 3576 
Q 2541 3569 2628 3553 
L 2631 2963 
z
" transform="scale(0.015625)"/>
       <path id="DejaVuSans-65" d="M 3597 1894 
L 3597 1613 
L 953 1613 
Q 991 1019 1311 708 
Q 1631 397 2203 397 
Q 2534 397 2845 478 
Q 3156 559 3463 722 
L 3463 178 
Q 3153 47 2828 -22 
Q 2503 -91 2169 -91 
Q 1331 -91 842 396 
Q 353 884 353 1716 
Q 353 2575 817 3079 
Q 1281 3584 2069 3584 
Q 2775 3584 3186 3129 
Q 3597 2675 3597 1894 
z
M 3022 2063 
Q 3016 2534 2758 2815 
Q 2500 3097 2075 3097 
Q 1594 3097 1305 2825 
Q 1016 2553 972 2059 
L 3022 2063 
z
" transform="scale(0.015625)"/>
       <path id="DejaVuSans-64" d="M 2906 2969 
L 2906 4863 
L 3481 4863 
L 3481 0 
L 2906 0 
L 2906 525 
Q 2725 213 2448 61 
Q 2172 -91 1784 -91 
Q 1150 -91 751 415 
Q 353 922 353 1747 
Q 353 2572 751 3078 
Q 1150 3584 1784 3584 
Q 2172 3584 2448 3432 
Q 2725 3281 2906 2969 
z
M 947 1747 
Q 947 1113 1208 752 
Q 1469 391 1925 391 
Q 2381 391 2643 752 
Q 2906 1113 2906 1747 
Q 2906 2381 2643 2742 
Q 2381 3103 1925 3103 
Q 1469 3103 1208 2742 
Q 947 2381 947 1747 
z
" transform="scale(0.015625)"/>
       <path id="DejaVuSans-79" d="M 2059 -325 
Q 1816 -950 1584 -1140 
Q 1353 -1331 966 -1331 
L 506 -1331 
L 506 -850 
L 844 -850 
Q 1081 -850 1212 -737 
Q 1344 -625 1503 -206 
L 1606 56 
L 191 3500 
L 800 3500 
L 1894 763 
L 2988 3500 
L 3597 3500 
L 2059 -325 
z
" transform="scale(0.015625)"/>
       <path id="DejaVuSans-2212" d="M 678 2272 
L 4684 2272 
L 4684 1741 
L 678 1741 
L 678 2272 
z
" transform="scale(0.015625)"/>
      </defs>
      <use xlink:href="#DejaVuSans-43" transform="translate(0 0.765625)"/>
      <use xlink:href="#DejaVuSans-61" transform="translate(69.824219 0.765625)"/>
      <use xlink:href="#DejaVuSans-72" transform="translate(131.103516 0.765625)"/>
      <use xlink:href="#DejaVuSans-72" transform="translate(172.216797 0.765625)"/>
      <use xlink:href="#DejaVuSans-69" transform="translate(213.330078 0.765625)"/>
      <use xlink:href="#DejaVuSans-65" transform="translate(241.113281 0.765625)"/>
      <use xlink:href="#DejaVuSans-72" transform="translate(302.636719 0.765625)"/>
      <use xlink:href="#DejaVuSans-20" transform="translate(343.75 0.765625)"/>
      <use xlink:href="#DejaVuSans-64" transform="translate(375.537109 0.765625)"/>
      <use xlink:href="#DejaVuSans-65" transform="translate(439.013672 0.765625)"/>
      <use xlink:href="#DejaVuSans-6e" transform="translate(500.537109 0.765625)"/>
      <use xlink:href="#DejaVuSans-73" transform="translate(563.916016 0.765625)"/>
      <use xlink:href="#DejaVuSans-69" transform="translate(616.015625 0.765625)"/>
      <use xlink:href="#DejaVuSans-74" transform="translate(643.798828 0.765625)"/>
      <use xlink:href="#DejaVuSans-79" transform="translate(683.007812 0.765625)"/>
      <use xlink:href="#DejaVuSans-20" transform="translate(742.1875 0.765625)"/>
      <use xlink:href="#DejaVuSans-28" transform="translate(773.974609 0.765625)"/>
      <use xlink:href="#DejaVuSans-6d" transform="translate(812.988281 0.765625)"/>
      <use xlink:href="#DejaVuSans-2212" transform="translate(911.357422 39.046875) scale(0.7)"/>
      <use xlink:href="#DejaVuSans-33" transform="translate(970.009766 39.046875) scale(0.7)"/>
      <use xlink:href="#DejaVuSans-29" transform="translate(1017.280273 0.765625)"/>
     </g>
    </g>
   </g>
   <g id="line2d_14">
    <path d="M 75.728984 67.253004 
L 76.583421 65.380503 
L 77.744466 63.436462 
L 79.273946 61.438475 
L 81.124136 59.484086 
L 83.200713 57.630228 
L 86.489183 55.103512 
L 90.551451 52.357035 
L 94.927839 49.639619 
L 94.940647 56.687081 
L 95.037986 56.615803 
L 95.44015 56.323827 
L 95.545174 46.299808 
L 95.568228 46.286404 
L 95.689487 38.76311 
L 96.080539 38.55407 
L 96.093347 46.004032 
L 96.185563 45.952752 
L 96.208617 45.939936 
L 96.221424 55.894462 
L 96.318763 55.828103 
L 96.720928 55.555942 
L 96.825951 45.534969 
L 96.849005 45.522208 
L 96.970265 38.001891 
L 97.361316 37.802311 
L 97.374124 45.252601 
L 97.46634 45.20383 
L 97.489394 45.191642 
L 97.502202 55.146587 
L 97.599541 55.084616 
L 98.001705 54.830196 
L 98.106729 44.812127 
L 98.129783 44.799983 
L 98.251042 37.282564 
L 98.642094 37.09221 
L 98.654902 44.542816 
L 98.747118 44.496456 
L 98.770172 44.484869 
L 98.782979 54.440207 
L 98.880318 54.382204 
L 99.282483 54.143872 
L 99.387506 44.128585 
L 99.41056 44.117034 
L 99.53182 36.602444 
L 99.922871 36.421098 
L 99.935679 43.872011 
L 100.027895 43.827974 
L 100.050949 43.816968 
L 100.063757 53.772676 
L 100.161096 53.7183 
L 100.56326 53.494719 
L 100.668284 43.48211 
L 100.691338 43.471133 
L 100.812597 35.959306 
L 101.203649 35.786764 
L 101.216457 43.237976 
L 101.308673 43.196186 
L 101.331727 43.185741 
L 101.344534 53.141802 
L 101.441873 53.090776 
L 101.844038 52.880849 
L 101.949061 42.870825 
L 101.972115 42.860404 
L 102.093375 35.351278 
L 102.484426 35.187348 
L 102.497234 42.638851 
L 102.58945 42.59924 
L 102.612504 42.589338 
L 102.625312 52.545736 
L 102.722651 52.497831 
L 103.124815 52.300646 
L 103.229839 42.293126 
L 103.252893 42.283244 
L 103.374152 34.776762 
L 103.765204 34.621261 
L 103.778012 42.073047 
L 103.870228 42.035553 
L 103.893282 42.026181 
L 103.906089 51.982902 
L 104.003428 51.937924 
L 104.405593 51.752715 
L 104.510616 41.747626 
L 104.53367 41.738269 
L 104.65493 34.234373 
L 105.045981 34.087127 
L 105.058789 41.539191 
L 105.151005 41.503759 
L 105.174059 41.494901 
L 105.186867 51.451932 
L 105.284206 51.40972 
L 105.68637 51.235835 
L 105.791394 41.23311 
L 105.814448 41.224264 
L 105.935707 33.722903 
L 106.326759 33.583746 
L 106.339567 41.03608 
L 106.431783 41.002659 
L 106.454837 40.994303 
L 106.467644 50.951635 
L 106.564983 50.912049 
L 106.967148 50.74893 
L 107.072171 40.748507 
L 107.095225 40.74016 
L 107.216485 33.241283 
L 107.607536 33.110059 
L 107.620344 40.562658 
L 107.71256 40.5312 
L 107.735614 40.523335 
L 107.748422 50.480957 
L 107.845761 50.443877 
L 108.247925 50.291042 
L 108.352949 40.292866 
L 108.376003 40.285007 
L 108.497262 32.788566 
L 108.888314 32.665128 
L 108.901122 40.117987 
L 108.993338 40.088448 
L 109.016392 40.081063 
L 109.029199 50.038968 
L 109.126538 50.00429 
L 109.528703 49.861322 
L 109.633726 39.865342 
L 109.65678 39.85796 
L 109.77804 32.363911 
L 110.169091 32.24812 
L 110.181899 39.701234 
L 110.274115 39.673576 
L 110.297169 39.666661 
L 110.309977 49.624841 
L 110.407316 49.592475 
L 110.80948 49.459012 
L 110.914504 39.465182 
L 110.937558 39.458267 
L 111.058817 31.966569 
L 111.449869 31.858299 
L 111.462677 39.311663 
L 111.554893 39.285851 
L 111.577946 39.279397 
L 111.590754 49.237845 
L 111.688093 49.207714 
L 112.090257 49.08344 
L 112.195281 39.091718 
L 112.218335 39.085263 
L 112.339595 31.595878 
L 112.730646 31.495014 
L 112.743454 38.948626 
L 112.83567 38.924628 
L 112.858724 38.918627 
L 112.871532 48.877338 
L 112.968871 48.849373 
L 113.371035 48.734017 
L 113.476059 38.744367 
L 113.499113 38.738363 
L 113.620372 31.251258 
L 114.011424 31.157701 
L 114.024232 38.611556 
L 114.116447 38.589346 
L 114.139501 38.583791 
L 114.152309 48.54276 
L 114.249648 48.516905 
L 114.651812 48.410233 
L 114.756836 38.422624 
L 114.77989 38.417065 
L 114.90115 30.932211 
L 115.292201 30.845876 
L 115.305009 38.299971 
L 115.397225 38.279526 
L 115.420279 38.274412 
L 115.433087 48.233635 
L 115.530426 48.209841 
L 115.93259 48.111658 
L 116.037614 38.126064 
L 116.060668 38.120944 
L 116.181927 30.638318 
L 116.572979 30.559138 
L 116.585787 38.013471 
L 116.678002 37.994774 
L 116.701056 37.990097 
L 116.713864 47.94957 
L 116.811203 47.927798 
L 117.213367 47.837945 
L 117.318391 37.854344 
L 117.341445 37.84966 
L 117.462705 30.369244 
L 117.853756 30.297171 
L 117.866564 37.751741 
L 117.95878 37.73478 
L 117.981834 37.730536 
L 117.994642 47.690258 
L 118.091981 47.670476 
L 118.494145 47.588828 
L 118.599169 37.607207 
L 118.622223 37.602955 
L 118.743482 30.124738 
L 119.134534 30.059749 
L 119.147342 37.514555 
L 119.239557 37.499323 
L 119.262611 37.495511 
L 119.275419 47.455479 
L 119.372758 47.437667 
L 119.774922 47.364135 
L 119.879946 37.384487 
L 119.903 37.380666 
L 120.02426 29.904644 
L 120.415311 29.846737 
L 120.428119 37.301779 
L 120.520335 37.288277 
L 120.543389 37.284898 
L 120.556197 47.245112 
L 120.653536 47.229255 
L 121.0557 47.163789 
L 121.160724 37.186113 
L 121.183778 37.182723 
L 121.305037 29.708901 
L 121.696089 29.658104 
L 121.708897 37.113384 
L 121.801112 37.101619 
L 121.824166 37.098674 
L 121.836974 47.059135 
L 121.934313 47.04523 
L 122.336477 46.987816 
L 122.441501 37.012122 
L 122.464555 37.009166 
L 122.585815 29.537557 
L 122.976866 29.493927 
L 122.989674 36.949447 
L 123.08189 36.939435 
L 123.104944 36.936928 
L 123.117752 46.897637 
L 123.215091 46.885691 
L 123.617255 46.836359 
L 123.722279 36.862664 
L 123.745333 36.860145 
L 123.866592 29.390773 
L 124.257644 29.354404 
L 124.270452 36.810166 
L 124.362667 36.801931 
L 124.385721 36.799869 
L 124.398529 46.76083 
L 124.495868 46.75086 
L 124.898032 46.709682 
L 125.003056 36.738015 
L 125.02611 36.735939 
L 125.14737 29.268838 
L 125.538421 29.23986 
L 125.551229 36.69587 
L 125.643445 36.689447 
L 125.666499 36.687837 
L 125.679307 46.649054 
L 125.776646 46.641089 
L 126.17881 46.608186 
L 126.283834 36.638585 
L 126.306888 36.636962 
L 126.428147 29.17218 
L 126.819199 29.150765 
L 126.832006 36.60703 
L 126.924222 36.602462 
L 126.947276 36.601316 
L 126.960084 46.562795 
L 127.057423 46.556876 
L 127.459587 46.532421 
L 127.564611 36.564938 
L 127.587665 36.563778 
L 127.708925 29.101376 
L 128.099976 29.087745 
L 128.112784 36.544271 
L 128.205 36.541616 
L 128.228054 36.540948 
L 128.240862 46.502697 
L 128.338201 46.498879 
L 128.740365 46.483097 
L 128.845389 36.517797 
L 128.868443 36.517116 
L 128.989702 29.057171 
L 129.380754 29.051594 
L 129.393561 36.508391 
L 129.485777 36.507719 
L 129.508831 36.507547 
L 129.521639 46.469575 
L 129.618978 46.467927 
L 130.021142 46.461108 
L 130.126166 36.498071 
L 130.14922 36.497885 
L 130.27048 29.040491 
L 130.661531 29.043298 
L 130.766555 36.501774 
L 130.789609 36.502118 
L 130.899756 46.465046 
L 131.30192 46.467544 
L 131.314728 36.505524 
L 131.406944 36.506867 
L 131.429998 36.507199 
L 131.442805 29.050512 
L 131.551257 29.052467 
L 131.942309 29.064055 
L 132.047332 36.524995 
L 132.070386 36.525882 
L 132.180533 46.491474 
L 132.582697 46.503719 
L 132.595505 36.542005 
L 132.687721 36.545518 
L 132.710775 36.546393 
L 132.723583 29.090004 
L 132.832035 29.09446 
L 133.223086 29.115296 
L 133.32811 36.578838 
L 133.351164 36.580297 
L 133.461311 46.548694 
L 133.863475 46.571199 
L 133.876283 39.516213 
L 144.673225 40.096774 
L 165.080379 40.897414 
L 209.58911 42.493732 
L 236.669034 43.836334 
L 250.788956 44.727778 
L 265.045216 45.793602 
L 279.252218 47.048709 
L 293.236496 48.501849 
L 306.836502 50.154689 
L 319.883133 51.999511 
L 332.173157 54.015102 
L 343.465325 56.164034 
L 353.516338 58.39563 
L 362.140934 60.654554 
L 369.261356 62.889566 
L 374.921588 65.057065 
L 379.26586 67.118864 
L 382.497759 69.038005 
L 384.838529 70.777042 
L 386.496112 72.301087 
L 388.436541 74.620159 
L 389.725107 76.743293 
L 390.031782 77.36555 
L 390.031782 77.36555 
" clip-path="url(#p1857848536)" style="fill: none; stroke: #0000ff; stroke-width: 1.5; stroke-linecap: square"/>
   </g>
   <g id="line2d_15">
    <path d="M 75.728984 65.522685 
L 76.128224 59.4648 
L 76.583421 56.358632 
L 77.118223 54.179104 
L 77.744466 52.494526 
L 78.464485 51.147059 
L 79.273946 50.057537 
L 80.164233 49.175898 
L 81.124136 48.465603 
L 82.140893 47.897917 
L 84.288956 47.100401 
L 86.489183 46.636843 
L 89.618073 46.337389 
L 93.320119 46.30431 
L 94.927839 46.358559 
L 94.940647 51.38655 
L 95.037986 51.319653 
L 95.44015 51.060481 
L 95.452958 42.206149 
L 95.545174 42.233844 
L 95.568228 42.240758 
L 95.581036 23.45932 
L 95.689487 23.516003 
L 96.080539 23.715949 
L 96.185563 42.533792 
L 96.208617 42.540003 
L 96.221424 51.392716 
L 96.318763 51.328265 
L 96.720928 51.078036 
L 96.733735 42.223687 
L 96.825951 42.250073 
L 96.849005 42.256661 
L 96.861813 23.474964 
L 96.970265 23.5292 
L 97.361316 23.720392 
L 97.46634 42.536774 
L 97.489394 42.542684 
L 97.502202 51.39541 
L 97.599541 51.333261 
L 98.001705 51.091478 
L 98.014513 42.237108 
L 98.106729 42.262192 
L 98.129783 42.268455 
L 98.142591 23.486502 
L 98.251042 23.53833 
L 98.642094 23.720906 
L 98.747118 42.535833 
L 98.770172 42.541443 
L 98.782979 51.394175 
L 98.880318 51.334211 
L 99.282483 51.100465 
L 99.29529 42.246069 
L 99.387506 42.269862 
L 99.41056 42.275803 
L 99.423368 23.493598 
L 99.53182 23.543056 
L 99.922871 23.717158 
L 100.027895 42.530641 
L 100.050949 42.535952 
L 100.063757 51.388686 
L 100.161096 51.330805 
L 100.56326 51.104749 
L 100.576068 42.250326 
L 100.668284 42.27284 
L 100.691338 42.278464 
L 100.704146 23.49601 
L 100.812597 23.543139 
L 101.203649 23.708908 
L 101.308673 42.520961 
L 101.331727 42.525976 
L 101.344534 51.378708 
L 101.441873 51.322822 
L 101.844038 51.104155 
L 101.856845 42.249703 
L 101.949061 42.270954 
L 101.972115 42.276262 
L 101.984923 23.493564 
L 102.093375 23.538403 
L 102.484426 23.695984 
L 102.58945 42.506621 
L 102.612504 42.511342 
L 102.625312 51.36407 
L 102.722651 51.3101 
L 103.124815 51.09855 
L 103.137623 42.244067 
L 103.229839 42.264071 
L 103.252893 42.269069 
L 103.265701 23.48613 
L 103.374152 23.52872 
L 103.765204 23.678253 
L 103.870228 42.487491 
L 103.893282 42.491922 
L 103.906089 51.344642 
L 104.003428 51.292515 
L 104.405593 51.087831 
L 104.4184 42.233316 
L 104.510616 42.252091 
L 104.53367 42.256782 
L 104.546478 23.473607 
L 104.65493 23.513987 
L 105.045981 23.655613 
L 105.151005 42.463467 
L 105.174059 42.467611 
L 105.186867 51.320321 
L 105.284206 51.269969 
L 105.68637 51.071912 
L 105.699178 42.217365 
L 105.791394 42.234927 
L 105.814448 42.239316 
L 105.827256 23.455908 
L 105.935707 23.494117 
L 106.326759 23.627973 
L 106.431783 42.43446 
L 106.454837 42.43832 
L 106.467644 51.291017 
L 106.564983 51.242373 
L 106.967148 51.050714 
L 106.979955 42.196134 
L 107.072171 42.212499 
L 107.095225 42.21659 
L 107.108033 23.432954 
L 107.216485 23.469029 
L 107.607536 23.595247 
L 107.71256 42.400384 
L 107.735614 42.403962 
L 107.748422 51.256645 
L 107.845761 51.209645 
L 108.247925 51.02416 
L 108.260733 42.169546 
L 108.352949 42.184732 
L 108.376003 42.188528 
L 108.388811 23.404667 
L 108.497262 23.438644 
L 108.888314 23.557352 
L 108.993338 42.361152 
L 109.016392 42.364452 
L 109.029199 51.217119 
L 109.126538 51.171699 
L 109.528703 50.992171 
L 109.54151 42.137521 
L 109.633726 42.151542 
L 109.65678 42.155048 
L 109.669588 23.370966 
L 109.77804 23.402879 
L 110.169091 23.514197 
L 110.274115 42.316674 
L 110.297169 42.319698 
L 110.309977 51.172345 
L 110.407316 51.128446 
L 110.80948 50.954659 
L 110.822288 42.099973 
L 110.914504 42.112842 
L 110.937558 42.116061 
L 110.950366 23.331761 
L 111.058817 23.361643 
L 111.449869 23.46568 
L 111.554893 42.266846 
L 111.577946 42.269596 
L 111.590754 51.122222 
L 111.688093 51.079784 
L 112.090257 50.911524 
L 112.103065 42.0568 
L 112.195281 42.068529 
L 112.218335 42.071464 
L 112.231143 23.286948 
L 112.339595 23.314829 
L 112.730646 23.411687 
L 112.83567 42.21155 
L 112.858724 42.214029 
L 112.871532 51.066631 
L 112.968871 51.025592 
L 113.371035 50.862645 
L 113.383843 42.007882 
L 113.476059 42.01848 
L 113.499113 42.021132 
L 113.511921 23.236405 
L 113.620372 23.26231 
L 114.011424 23.352077 
L 114.116447 42.150643 
L 114.139501 42.15285 
L 114.152309 51.005426 
L 114.249648 50.965726 
L 114.651812 50.807869 
L 114.66462 41.953065 
L 114.756836 41.962538 
L 114.77989 41.96491 
L 114.792698 23.179972 
L 114.90115 23.203924 
L 115.292201 23.286674 
L 115.397225 42.083945 
L 115.420279 42.085881 
L 115.433087 50.938427 
L 115.530426 50.900002 
L 115.93259 50.746998 
L 115.945398 41.892151 
L 116.037614 41.900503 
L 116.060668 41.902595 
L 116.073476 23.117448 
L 116.181927 23.139465 
L 116.572979 23.215255 
L 116.678002 42.011229 
L 116.701056 42.012893 
L 116.713864 50.865405 
L 116.811203 50.828186 
L 117.213367 50.679781 
L 117.226175 41.824888 
L 117.318391 41.832116 
L 117.341445 41.833927 
L 117.354253 23.048573 
L 117.462705 23.068668 
L 117.853756 23.137537 
L 117.95878 41.932205 
L 117.981834 41.933594 
L 117.994642 50.786068 
L 118.091981 50.749983 
L 118.494145 50.605896 
L 118.506953 41.750952 
L 118.599169 41.75705 
L 118.622223 41.758579 
L 118.635031 22.973018 
L 118.743482 22.991199 
L 119.134534 23.053162 
L 119.239557 41.84651 
L 119.262611 41.847621 
L 119.275419 50.700051 
L 119.372758 50.66502 
L 119.774922 50.524945 
L 119.78773 41.669947 
L 119.879946 41.674902 
L 119.903 41.676146 
L 119.915808 22.890377 
L 120.02426 22.906645 
L 120.415311 22.961695 
L 120.520335 41.753702 
L 120.543389 41.75453 
L 120.556197 50.606911 
L 120.653536 50.572847 
L 121.0557 50.436453 
L 121.068508 41.581395 
L 121.160724 41.585189 
L 121.183778 41.586143 
L 121.196586 22.800166 
L 121.305037 22.814514 
L 121.696089 22.862618 
L 121.801112 41.653254 
L 121.824166 41.653793 
L 121.836974 50.506117 
L 121.934313 50.472931 
L 122.336477 50.339865 
L 122.349285 41.484742 
L 122.441501 41.48735 
L 122.464555 41.488008 
L 122.477363 22.70182 
L 122.585815 22.714235 
L 122.976866 22.755326 
L 123.08189 41.544556 
L 123.104944 41.544797 
L 123.117752 50.397057 
L 123.215091 50.364653 
L 123.617255 50.234546 
L 123.630063 41.379349 
L 123.722279 41.38074 
L 123.745333 41.381094 
L 123.758141 22.594692 
L 123.866592 22.605151 
L 124.257644 22.639132 
L 124.270452 41.427208 
L 124.362667 41.42691 
L 124.385721 41.426843 
L 124.398529 50.27903 
L 124.495868 50.247307 
L 124.898032 50.119769 
L 124.956948 41.264553 
L 125.003056 41.264625 
L 125.02611 41.264665 
L 125.038918 22.478045 
L 125.14737 22.486515 
L 125.538421 22.51325 
L 125.551229 41.301103 
L 125.643445 41.299521 
L 125.666499 41.299133 
L 125.679307 50.151238 
L 125.776646 50.120092 
L 126.17881 49.994703 
L 126.283834 41.138164 
L 126.306888 41.137878 
L 126.319695 22.351034 
L 126.428147 22.357471 
L 126.819199 22.376782 
L 126.832006 41.164405 
L 126.924222 41.16148 
L 126.947276 41.160756 
L 126.960084 50.012767 
L 127.057423 49.982082 
L 127.459587 49.858384 
L 127.564611 41.000381 
L 127.587665 40.999754 
L 127.600473 22.21268 
L 127.708925 22.217027 
L 128.099976 22.22869 
L 128.112784 41.016075 
L 128.205 41.011734 
L 128.228054 41.010656 
L 128.240862 49.862562 
L 128.338201 49.832211 
L 128.740365 49.709687 
L 128.845389 40.850137 
L 128.868443 40.849151 
L 128.88125 22.061838 
L 128.989702 22.064026 
L 129.380754 22.067763 
L 129.393561 40.854899 
L 129.485777 40.849059 
L 129.508831 40.847606 
L 129.521639 49.699391 
L 129.618978 49.669229 
L 130.021142 49.547297 
L 130.126166 40.6861 
L 130.14922 40.684735 
L 130.27048 21.897115 
L 130.661531 21.892592 
L 130.674339 40.679467 
L 130.766555 40.672027 
L 130.789609 40.670174 
L 130.802417 49.521822 
L 130.899756 49.491686 
L 131.30192 49.369682 
L 131.406944 40.506723 
L 131.429998 40.504953 
L 131.551257 21.714723 
L 131.942309 21.701541 
L 131.955116 40.48814 
L 132.047332 40.478982 
L 132.070386 40.4767 
L 132.083194 49.328192 
L 132.180533 49.2979 
L 132.582697 49.175081 
L 132.687721 40.310224 
L 132.710775 40.308019 
L 132.832035 21.515044 
L 133.223086 21.492727 
L 133.235894 40.279033 
L 133.32811 40.268023 
L 133.351164 40.265277 
L 133.363972 49.116591 
L 133.461311 49.08594 
L 133.863475 48.961482 
L 133.876283 43.927152 
L 137.749992 43.367424 
L 144.673225 42.625228 
L 150.078606 42.210032 
L 156.88675 41.832427 
L 165.080379 41.535047 
L 174.582151 41.344039 
L 185.270839 41.269097 
L 209.58911 41.44957 
L 236.669034 41.988646 
L 265.045216 42.769545 
L 306.836502 44.192283 
L 332.173157 45.327756 
L 343.465325 46.018252 
L 353.516338 46.843222 
L 362.140934 47.842429 
L 369.261356 49.042774 
L 374.921588 50.450167 
L 379.26586 52.047928 
L 382.497759 53.800657 
L 384.838529 55.659863 
L 386.496112 57.568398 
L 387.648139 59.463079 
L 388.436541 61.277191 
L 389.326561 64.414655 
L 389.834788 67.465253 
L 390.031782 69.259872 
L 390.031782 69.259872 
" clip-path="url(#p1857848536)" style="fill: none; stroke: #ff0000; stroke-width: 1.5; stroke-linecap: square"/>
   </g>
   <g id="line2d_16">
    <path d="M 75.728984 228.110866 
L 94.927839 228.113625 
L 95.037986 235.169401 
L 95.44015 235.16952 
L 95.545174 225.20739 
L 95.568228 225.207397 
L 95.689487 217.750557 
L 96.080539 217.750733 
L 96.185563 225.207672 
L 96.208617 225.207685 
L 96.318763 235.169911 
L 96.720928 235.170147 
L 96.825951 225.208046 
L 96.849005 225.20806 
L 96.970265 217.751254 
L 97.361316 217.751539 
L 97.46634 225.208507 
L 97.489394 225.208527 
L 97.599541 235.170785 
L 98.001705 235.171137 
L 98.106729 225.209067 
L 98.129783 225.209087 
L 98.251042 217.752314 
L 98.642094 217.752708 
L 98.747118 225.209706 
L 98.770172 225.209733 
L 98.880318 235.172022 
L 99.282483 235.172491 
L 99.387506 225.21045 
L 99.41056 225.210477 
L 99.53182 217.753738 
L 99.922871 217.754241 
L 100.027895 225.211269 
L 100.050949 225.211302 
L 100.161096 235.173623 
L 100.56326 235.174209 
L 100.576068 225.212065 
L 100.668284 225.212198 
L 100.691338 225.212231 
L 100.812597 217.755526 
L 101.203649 217.756137 
L 101.308673 225.213195 
L 101.331727 225.213234 
L 101.441873 235.175588 
L 101.844038 235.17629 
L 101.856845 225.21415 
L 101.949061 225.214309 
L 101.972115 225.214348 
L 102.066233 217.75763 
L 102.093375 217.757677 
L 102.484426 217.758397 
L 102.58945 225.215485 
L 102.612504 225.215531 
L 102.722651 235.177916 
L 103.124815 235.178735 
L 103.137623 225.216599 
L 103.229839 225.216784 
L 103.252893 225.21683 
L 103.265701 217.759977 
L 103.374152 217.760192 
L 103.765204 217.761021 
L 103.870228 225.218139 
L 103.893282 225.218191 
L 104.003428 235.180609 
L 104.405593 235.181543 
L 104.4184 225.219411 
L 104.510616 225.219622 
L 104.53367 225.219675 
L 104.546478 217.762826 
L 104.65493 217.763071 
L 105.045981 217.764009 
L 105.151005 225.221156 
L 105.174059 225.221216 
L 105.284206 235.183665 
L 105.68637 235.184716 
L 105.699178 225.222588 
L 105.791394 225.222825 
L 105.814448 225.222885 
L 105.827256 217.766039 
L 105.935707 217.766315 
L 106.326759 217.767361 
L 106.431783 225.224539 
L 106.454837 225.224604 
L 106.564983 235.187085 
L 106.967148 235.188254 
L 106.979955 225.226129 
L 107.072171 225.226393 
L 107.095225 225.226459 
L 107.108033 217.769616 
L 107.216485 217.769922 
L 107.607536 217.771077 
L 107.71256 225.228285 
L 107.735614 225.228357 
L 107.845761 235.190871 
L 108.247925 235.192156 
L 108.260733 225.230035 
L 108.352949 225.230325 
L 108.376003 225.230397 
L 108.388811 217.773559 
L 108.497262 217.773895 
L 108.888314 217.775159 
L 108.993338 225.232396 
L 109.016392 225.232475 
L 109.126538 235.19502 
L 109.528703 235.196422 
L 109.54151 225.234305 
L 109.633726 225.234621 
L 109.65678 225.234701 
L 109.669588 217.777865 
L 109.77804 217.778232 
L 110.169091 217.779605 
L 110.274115 225.236872 
L 110.297169 225.236958 
L 110.407316 235.199535 
L 110.80948 235.201054 
L 110.822288 225.23894 
L 110.914504 225.239283 
L 110.937558 225.239369 
L 110.950366 217.782537 
L 111.058817 217.782934 
L 111.449869 217.784416 
L 111.554893 225.241714 
L 111.577946 225.241806 
L 111.688093 235.204415 
L 112.090257 235.206051 
L 112.103065 225.243941 
L 112.195281 225.24431 
L 112.218335 225.244403 
L 112.231143 217.787575 
L 112.339595 217.788002 
L 112.730646 217.789593 
L 112.83567 225.246921 
L 112.858724 225.247019 
L 112.968871 235.209661 
L 113.371035 235.211414 
L 113.383843 225.249307 
L 113.476059 225.249703 
L 113.499113 225.249802 
L 113.511921 217.792978 
L 113.620372 217.793435 
L 114.011424 217.795135 
L 114.116447 225.252493 
L 114.139501 225.252599 
L 114.249648 235.215272 
L 114.651812 235.217142 
L 114.66462 225.25504 
L 114.756836 225.255462 
L 114.77989 225.255567 
L 114.792698 217.798747 
L 114.90115 217.799234 
L 115.292201 217.801044 
L 115.397225 225.258432 
L 115.420279 225.258544 
L 115.530426 235.221249 
L 115.93259 235.223237 
L 115.945398 225.261138 
L 116.037614 225.261587 
L 116.060668 225.261699 
L 116.073476 217.804882 
L 116.181927 217.8054 
L 116.572979 217.807319 
L 116.678002 225.264737 
L 116.701056 225.264856 
L 116.811203 235.227593 
L 117.213367 235.229699 
L 117.226175 225.267603 
L 117.318391 225.268079 
L 117.341445 225.268197 
L 117.354253 217.811384 
L 117.462705 217.811932 
L 117.853756 217.813961 
L 117.95878 225.271409 
L 117.981834 225.271535 
L 118.091981 235.234304 
L 118.494145 235.236527 
L 118.506953 225.274436 
L 118.599169 225.274937 
L 118.622223 225.275063 
L 118.635031 217.818253 
L 118.743482 217.818832 
L 119.134534 217.82097 
L 119.239557 225.278449 
L 119.262611 225.278581 
L 119.372758 235.241383 
L 119.774922 235.243723 
L 119.78773 225.281635 
L 119.879946 225.282164 
L 119.903 225.282296 
L 119.915808 217.82549 
L 120.02426 217.826099 
L 120.415311 217.828347 
L 120.520335 225.285856 
L 120.543389 225.285994 
L 120.653536 235.248829 
L 121.0557 235.251287 
L 121.068508 225.289203 
L 121.160724 225.289758 
L 121.183778 225.289896 
L 121.196586 217.833094 
L 121.305037 217.833734 
L 121.696089 217.836092 
L 121.801112 225.293631 
L 121.824166 225.293776 
L 121.934313 235.256643 
L 122.336477 235.259219 
L 122.349285 225.297139 
L 122.441501 225.29772 
L 122.464555 225.297866 
L 122.477363 217.841067 
L 122.585815 217.841737 
L 122.976866 217.844206 
L 123.08189 225.301775 
L 123.104944 225.301927 
L 123.215091 235.264826 
L 123.617255 235.26752 
L 123.630063 225.305444 
L 123.722279 225.306052 
L 123.745333 225.306204 
L 123.758141 217.849409 
L 123.866592 217.85011 
L 124.257644 217.852689 
L 124.362667 225.310288 
L 124.385721 225.310447 
L 124.495868 235.273378 
L 124.898032 235.276191 
L 124.91084 225.314118 
L 125.003056 225.314753 
L 125.02611 225.314911 
L 125.038918 217.85812 
L 125.14737 217.858851 
L 125.538421 217.861541 
L 125.643445 225.319171 
L 125.666499 225.319336 
L 125.776646 235.2823 
L 126.17881 235.285231 
L 126.191618 225.323162 
L 126.283834 225.323823 
L 126.306888 225.323989 
L 126.319695 217.867201 
L 126.428147 217.867963 
L 126.819199 217.870763 
L 126.924222 225.328424 
L 126.947276 225.328596 
L 127.057423 235.291592 
L 127.459587 235.294642 
L 127.472395 225.332577 
L 127.564611 225.333265 
L 127.587665 225.333437 
L 127.600473 217.876653 
L 127.708925 217.877445 
L 128.099976 217.880356 
L 128.205 225.338047 
L 128.228054 225.338226 
L 128.338201 235.301254 
L 128.740365 235.304424 
L 128.753173 225.342362 
L 128.845389 225.343077 
L 128.868443 225.343256 
L 128.88125 217.886475 
L 128.989702 217.887299 
L 129.380754 217.890321 
L 129.485777 225.348042 
L 129.508831 225.348227 
L 129.618978 235.311289 
L 130.021142 235.314577 
L 130.03395 225.352519 
L 130.126166 225.353261 
L 130.14922 225.353446 
L 130.162028 217.89667 
L 130.27048 217.897524 
L 130.661531 217.900657 
L 130.766555 225.358409 
L 130.789609 225.358601 
L 130.899756 235.321695 
L 131.30192 235.325102 
L 131.314728 225.363048 
L 131.406944 225.363817 
L 131.429998 225.364009 
L 131.442805 217.907236 
L 131.551257 217.908121 
L 131.942309 217.911366 
L 132.047332 225.369148 
L 132.070386 225.369347 
L 132.180533 235.332474 
L 132.582697 235.336001 
L 132.595505 225.373951 
L 132.687721 225.374746 
L 132.710775 225.374945 
L 132.723583 217.918176 
L 132.832035 217.919092 
L 133.223086 217.922448 
L 133.32811 225.380261 
L 133.351164 225.380467 
L 133.461311 235.343626 
L 133.863475 235.347273 
L 133.876283 228.291644 
L 362.140934 230.220443 
L 390.031782 230.448122 
L 390.031782 230.448122 
" clip-path="url(#p1857848536)" style="fill: none; stroke-dasharray: 5.55,2.4; stroke-dashoffset: 0; stroke: #0000ff; stroke-width: 1.5"/>
   </g>
   <g id="line2d_17">
    <path d="M 75.728984 73.652143 
L 94.927839 73.649383 
L 95.037986 78.680817 
L 95.44015 78.680697 
L 95.545174 69.826876 
L 95.568228 69.826869 
L 95.689487 51.039466 
L 96.080539 51.03929 
L 96.185563 69.826593 
L 96.208617 69.82658 
L 96.318763 78.680307 
L 96.720928 78.680071 
L 96.825951 69.826219 
L 96.849005 69.826205 
L 96.970265 51.038769 
L 97.361316 51.038484 
L 97.374124 69.825837 
L 97.46634 69.825758 
L 97.489394 69.825738 
L 97.599541 78.679433 
L 98.001705 78.67908 
L 98.106729 69.825199 
L 98.129783 69.825179 
L 98.251042 51.037709 
L 98.642094 51.037315 
L 98.654902 69.824664 
L 98.747118 69.824559 
L 98.770172 69.824533 
L 98.880318 78.678195 
L 99.282483 78.677727 
L 99.387506 69.823815 
L 99.41056 69.823788 
L 99.53182 51.036285 
L 99.922871 51.035783 
L 99.935679 69.823128 
L 100.027895 69.822997 
L 100.050949 69.822964 
L 100.063757 78.676736 
L 100.161096 78.676595 
L 100.56326 78.676009 
L 100.668284 69.822068 
L 100.691338 69.822035 
L 100.812597 51.034497 
L 101.203649 51.033886 
L 101.216457 69.821228 
L 101.308673 69.82107 
L 101.331727 69.821031 
L 101.344534 78.6748 
L 101.441873 78.67463 
L 101.844038 78.673928 
L 101.949061 69.819957 
L 101.972115 69.819917 
L 102.093375 51.032346 
L 102.484426 51.031626 
L 102.497234 69.818965 
L 102.58945 69.818781 
L 102.612504 69.818734 
L 102.625312 78.6725 
L 102.722651 78.672302 
L 103.124815 78.671483 
L 103.229839 69.817482 
L 103.252893 69.817435 
L 103.374152 51.029831 
L 103.765204 51.029002 
L 103.778012 69.816337 
L 103.870228 69.816127 
L 103.893282 69.816074 
L 103.906089 78.669836 
L 104.003428 78.669609 
L 104.405593 78.668674 
L 104.510616 69.814643 
L 104.53367 69.81459 
L 104.65493 51.026952 
L 105.045981 51.026015 
L 105.058789 69.813346 
L 105.151005 69.813109 
L 105.174059 69.81305 
L 105.186867 78.666807 
L 105.284206 78.666553 
L 105.68637 78.665501 
L 105.791394 69.81144 
L 105.814448 69.81138 
L 105.935707 51.023708 
L 106.326759 51.022662 
L 106.339567 69.80999 
L 106.431783 69.809727 
L 106.454837 69.809661 
L 106.467644 78.663415 
L 106.564983 78.663132 
L 106.967148 78.661964 
L 107.072171 69.807873 
L 107.095225 69.807807 
L 107.216485 51.020101 
L 107.607536 51.018946 
L 107.620344 69.80627 
L 107.71256 69.80598 
L 107.735614 69.805908 
L 107.748422 78.659658 
L 107.845761 78.659347 
L 108.247925 78.658062 
L 108.352949 69.803941 
L 108.376003 69.803868 
L 108.497262 51.016128 
L 108.888314 51.014864 
L 108.901122 69.802185 
L 108.993338 69.801869 
L 109.016392 69.80179 
L 109.029199 78.655537 
L 109.126538 78.655198 
L 109.528703 78.653796 
L 109.633726 69.799644 
L 109.65678 69.799565 
L 109.77804 51.011791 
L 110.169091 51.010418 
L 110.181899 69.797735 
L 110.274115 69.797393 
L 110.297169 69.797307 
L 110.309977 78.65105 
L 110.407316 78.650683 
L 110.80948 78.649164 
L 110.914504 69.794982 
L 110.937558 69.794896 
L 111.058817 51.007089 
L 111.449869 51.005607 
L 111.462677 69.79292 
L 111.554893 69.792552 
L 111.577946 69.792459 
L 111.590754 78.646199 
L 111.688093 78.645803 
L 112.090257 78.644167 
L 112.195281 69.789955 
L 112.218335 69.789863 
L 112.339595 51.002021 
L 112.730646 51.00043 
L 112.743454 69.78774 
L 112.83567 69.787345 
L 112.858724 69.787246 
L 112.871532 78.640981 
L 112.968871 78.640557 
L 113.371035 78.638804 
L 113.476059 69.784562 
L 113.499113 69.784463 
L 113.620372 50.996588 
L 114.011424 50.994888 
L 114.024232 69.782194 
L 114.116447 69.781772 
L 114.139501 69.781667 
L 114.152309 78.635399 
L 114.249648 78.634946 
L 114.651812 78.633076 
L 114.756836 69.778804 
L 114.77989 69.778698 
L 114.90115 50.990789 
L 115.292201 50.988979 
L 115.305009 69.776281 
L 115.397225 69.775833 
L 115.420279 69.775721 
L 115.433087 78.629449 
L 115.530426 78.628969 
L 115.93259 78.626981 
L 116.037614 69.772679 
L 116.060668 69.772566 
L 116.181927 50.984623 
L 116.572979 50.982704 
L 116.585787 69.770003 
L 116.678002 69.769528 
L 116.701056 69.769409 
L 116.713864 78.623134 
L 116.811203 78.622624 
L 117.213367 78.620519 
L 117.318391 69.766187 
L 117.341445 69.766068 
L 117.462705 50.978091 
L 117.853756 50.976062 
L 117.866564 69.763357 
L 117.95878 69.762856 
L 117.981834 69.762731 
L 117.994642 78.616451 
L 118.091981 78.615914 
L 118.494145 78.613691 
L 118.599169 69.759328 
L 118.622223 69.759203 
L 118.743482 50.971191 
L 119.134534 50.969053 
L 119.147342 69.756344 
L 119.239557 69.755817 
L 119.262611 69.755685 
L 119.275419 78.609402 
L 119.372758 78.608835 
L 119.774922 78.606495 
L 119.879946 69.752102 
L 119.903 69.75197 
L 120.02426 50.963924 
L 120.415311 50.961676 
L 120.428119 69.748964 
L 120.520335 69.748409 
L 120.543389 69.748271 
L 120.556197 78.601984 
L 120.653536 78.601389 
L 121.0557 78.598931 
L 121.160724 69.744508 
L 121.183778 69.744369 
L 121.305037 50.956289 
L 121.696089 50.953931 
L 121.708897 69.741215 
L 121.801112 69.740634 
L 121.824166 69.740489 
L 121.836974 78.594199 
L 121.934313 78.593575 
L 122.336477 78.590999 
L 122.441501 69.736545 
L 122.464555 69.7364 
L 122.585815 50.948286 
L 122.976866 50.945817 
L 122.989674 69.733098 
L 123.08189 69.73249 
L 123.104944 69.732338 
L 123.117752 78.586044 
L 123.215091 78.585392 
L 123.617255 78.582697 
L 123.722279 69.728213 
L 123.745333 69.728061 
L 123.866592 50.939914 
L 124.257644 50.937335 
L 124.270452 69.724611 
L 124.362667 69.723977 
L 124.385721 69.723819 
L 124.398529 78.577521 
L 124.495868 78.57684 
L 124.898032 78.574027 
L 125.003056 69.719513 
L 125.02611 69.719354 
L 125.14737 50.931172 
L 125.538421 50.928482 
L 125.551229 69.715755 
L 125.643445 69.715095 
L 125.666499 69.714929 
L 125.679307 78.568628 
L 125.776646 78.567918 
L 126.17881 78.564987 
L 126.283834 69.710442 
L 126.306888 69.710276 
L 126.428147 50.92206 
L 126.819199 50.91926 
L 126.832006 69.706529 
L 126.924222 69.705842 
L 126.947276 69.70567 
L 126.960084 78.559364 
L 127.057423 78.558626 
L 127.459587 78.555576 
L 127.564611 69.701001 
L 127.587665 69.700829 
L 127.708925 50.912578 
L 128.099976 50.909667 
L 128.112784 69.696933 
L 128.205 69.696218 
L 128.228054 69.69604 
L 128.240862 78.54973 
L 128.338201 78.548963 
L 128.740365 78.545794 
L 128.845389 69.691188 
L 128.868443 69.69101 
L 128.989702 50.902724 
L 129.380754 50.899702 
L 129.393561 69.686964 
L 129.485777 69.686223 
L 129.508831 69.686038 
L 129.521639 78.539725 
L 129.618978 78.538929 
L 130.021142 78.535641 
L 130.126166 69.681004 
L 130.14922 69.680819 
L 130.27048 50.892499 
L 130.661531 50.889366 
L 130.674339 69.676625 
L 130.766555 69.675856 
L 130.789609 69.675664 
L 130.802417 78.529348 
L 130.899756 78.528523 
L 131.30192 78.525115 
L 131.406944 69.670448 
L 131.429998 69.670256 
L 131.551257 50.881902 
L 131.942309 50.878657 
L 131.955116 69.665912 
L 132.047332 69.665117 
L 132.070386 69.664918 
L 132.083194 78.518598 
L 132.180533 78.517744 
L 132.582697 78.514217 
L 132.687721 69.659519 
L 132.710775 69.65932 
L 132.832035 50.870931 
L 133.223086 50.867575 
L 133.235894 69.654826 
L 133.32811 69.654004 
L 133.351164 69.653799 
L 133.363972 78.507474 
L 133.461311 78.506592 
L 133.863475 78.502945 
L 133.876283 73.471364 
L 362.140934 71.542565 
L 390.031782 71.314886 
L 390.031782 71.314886 
" clip-path="url(#p1857848536)" style="fill: none; stroke-dasharray: 5.55,2.4; stroke-dashoffset: 0; stroke: #ff0000; stroke-width: 1.5"/>
   </g>
   <g id="patch_3">
    <path d="M 60.013844 246.04 
L 60.013844 10.8 
" style="fill: none; stroke: #000000; stroke-width: 0.8; stroke-linejoin: miter; stroke-linecap: square"/>
   </g>
   <g id="patch_4">
    <path d="M 405.746922 246.04 
L 405.746922 10.8 
" style="fill: none; stroke: #000000; stroke-width: 0.8; stroke-linejoin: miter; stroke-linecap: square"/>
   </g>
   <g id="patch_5">
    <path d="M 60.013844 246.04 
L 405.746922 246.04 
" style="fill: none; stroke: #000000; stroke-width: 0.8; stroke-linejoin: miter; stroke-linecap: square"/>
   </g>
   <g id="patch_6">
    <path d="M 60.013844 10.8 
L 405.746922 10.8 
" style="fill: none; stroke: #000000; stroke-width: 0.8; stroke-linejoin: miter; stroke-linecap: square"/>
   </g>
  </g>
  <g id="axes_2">
   <g id="patch_7">
    <path d="M 453.466922 246.04 
L 799.2 246.04 
L 799.2 10.8 
L 453.466922 10.8 
z
" style="fill: #ffffff"/>
   </g>
   <g id="matplotlib.axis_3">
    <g id="xtick_6">
     <g id="line2d_18">
      <g>
       <use xlink:href="#m4587518cc5" x="475.07524" y="246.04" style="stroke: #000000; stroke-width: 0.8"/>
      </g>
     </g>
     <g id="text_16">
      <!-- 400 -->
      <g transform="translate(465.53149 260.638438) scale(0.1 -0.1)">
       <defs>
        <path id="DejaVuSans-34" d="M 2419 4116 
L 825 1625 
L 2419 1625 
L 2419 4116 
z
M 2253 4666 
L 3047 4666 
L 3047 1625 
L 3713 1625 
L 3713 1100 
L 3047 1100 
L 3047 0 
L 2419 0 
L 2419 1100 
L 313 1100 
L 313 1709 
L 2253 4666 
z
" transform="scale(0.015625)"/>
       </defs>
       <use xlink:href="#DejaVuSans-34"/>
       <use xlink:href="#DejaVuSans-30" x="63.623047"/>
       <use xlink:href="#DejaVuSans-30" x="127.246094"/>
      </g>
     </g>
    </g>
    <g id="xtick_7">
     <g id="line2d_19">
      <g>
       <use xlink:href="#m4587518cc5" x="518.291874" y="246.04" style="stroke: #000000; stroke-width: 0.8"/>
      </g>
     </g>
     <g id="text_17">
      <!-- 500 -->
      <g transform="translate(508.748124 260.638438) scale(0.1 -0.1)">
       <use xlink:href="#DejaVuSans-35"/>
       <use xlink:href="#DejaVuSans-30" x="63.623047"/>
       <use xlink:href="#DejaVuSans-30" x="127.246094"/>
      </g>
     </g>
    </g>
    <g id="xtick_8">
     <g id="line2d_20">
      <g>
       <use xlink:href="#m4587518cc5" x="561.508509" y="246.04" style="stroke: #000000; stroke-width: 0.8"/>
      </g>
     </g>
     <g id="text_18">
      <!-- 600 -->
      <g transform="translate(551.964759 260.638438) scale(0.1 -0.1)">
       <defs>
        <path id="DejaVuSans-36" d="M 2113 2584 
Q 1688 2584 1439 2293 
Q 1191 2003 1191 1497 
Q 1191 994 1439 701 
Q 1688 409 2113 409 
Q 2538 409 2786 701 
Q 3034 994 3034 1497 
Q 3034 2003 2786 2293 
Q 2538 2584 2113 2584 
z
M 3366 4563 
L 3366 3988 
Q 3128 4100 2886 4159 
Q 2644 4219 2406 4219 
Q 1781 4219 1451 3797 
Q 1122 3375 1075 2522 
Q 1259 2794 1537 2939 
Q 1816 3084 2150 3084 
Q 2853 3084 3261 2657 
Q 3669 2231 3669 1497 
Q 3669 778 3244 343 
Q 2819 -91 2113 -91 
Q 1303 -91 875 529 
Q 447 1150 447 2328 
Q 447 3434 972 4092 
Q 1497 4750 2381 4750 
Q 2619 4750 2861 4703 
Q 3103 4656 3366 4563 
z
" transform="scale(0.015625)"/>
       </defs>
       <use xlink:href="#DejaVuSans-36"/>
       <use xlink:href="#DejaVuSans-30" x="63.623047"/>
       <use xlink:href="#DejaVuSans-30" x="127.246094"/>
      </g>
     </g>
    </g>
    <g id="xtick_9">
     <g id="line2d_21">
      <g>
       <use xlink:href="#m4587518cc5" x="604.725144" y="246.04" style="stroke: #000000; stroke-width: 0.8"/>
      </g>
     </g>
     <g id="text_19">
      <!-- 700 -->
      <g transform="translate(595.181394 260.638438) scale(0.1 -0.1)">
       <use xlink:href="#DejaVuSans-37"/>
       <use xlink:href="#DejaVuSans-30" x="63.623047"/>
       <use xlink:href="#DejaVuSans-30" x="127.246094"/>
      </g>
     </g>
    </g>
    <g id="xtick_10">
     <g id="line2d_22">
      <g>
       <use xlink:href="#m4587518cc5" x="647.941778" y="246.04" style="stroke: #000000; stroke-width: 0.8"/>
      </g>
     </g>
     <g id="text_20">
      <!-- 800 -->
      <g transform="translate(638.398028 260.638438) scale(0.1 -0.1)">
       <defs>
        <path id="DejaVuSans-38" d="M 2034 2216 
Q 1584 2216 1326 1975 
Q 1069 1734 1069 1313 
Q 1069 891 1326 650 
Q 1584 409 2034 409 
Q 2484 409 2743 651 
Q 3003 894 3003 1313 
Q 3003 1734 2745 1975 
Q 2488 2216 2034 2216 
z
M 1403 2484 
Q 997 2584 770 2862 
Q 544 3141 544 3541 
Q 544 4100 942 4425 
Q 1341 4750 2034 4750 
Q 2731 4750 3128 4425 
Q 3525 4100 3525 3541 
Q 3525 3141 3298 2862 
Q 3072 2584 2669 2484 
Q 3125 2378 3379 2068 
Q 3634 1759 3634 1313 
Q 3634 634 3220 271 
Q 2806 -91 2034 -91 
Q 1263 -91 848 271 
Q 434 634 434 1313 
Q 434 1759 690 2068 
Q 947 2378 1403 2484 
z
M 1172 3481 
Q 1172 3119 1398 2916 
Q 1625 2713 2034 2713 
Q 2441 2713 2670 2916 
Q 2900 3119 2900 3481 
Q 2900 3844 2670 4047 
Q 2441 4250 2034 4250 
Q 1625 4250 1398 4047 
Q 1172 3844 1172 3481 
z
" transform="scale(0.015625)"/>
       </defs>
       <use xlink:href="#DejaVuSans-38"/>
       <use xlink:href="#DejaVuSans-30" x="63.623047"/>
       <use xlink:href="#DejaVuSans-30" x="127.246094"/>
      </g>
     </g>
    </g>
    <g id="xtick_11">
     <g id="line2d_23">
      <g>
       <use xlink:href="#m4587518cc5" x="691.158413" y="246.04" style="stroke: #000000; stroke-width: 0.8"/>
      </g>
     </g>
     <g id="text_21">
      <!-- 900 -->
      <g transform="translate(681.614663 260.638438) scale(0.1 -0.1)">
       <use xlink:href="#DejaVuSans-39"/>
       <use xlink:href="#DejaVuSans-30" x="63.623047"/>
       <use xlink:href="#DejaVuSans-30" x="127.246094"/>
      </g>
     </g>
    </g>
    <g id="xtick_12">
     <g id="line2d_24">
      <g>
       <use xlink:href="#m4587518cc5" x="734.375048" y="246.04" style="stroke: #000000; stroke-width: 0.8"/>
      </g>
     </g>
     <g id="text_22">
      <!-- 1000 -->
      <g transform="translate(721.650048 260.638438) scale(0.1 -0.1)">
       <use xlink:href="#DejaVuSans-31"/>
       <use xlink:href="#DejaVuSans-30" x="63.623047"/>
       <use xlink:href="#DejaVuSans-30" x="127.246094"/>
       <use xlink:href="#DejaVuSans-30" x="190.869141"/>
      </g>
     </g>
    </g>
    <g id="xtick_13">
     <g id="line2d_25">
      <g>
       <use xlink:href="#m4587518cc5" x="777.591683" y="246.04" style="stroke: #000000; stroke-width: 0.8"/>
      </g>
     </g>
     <g id="text_23">
      <!-- 1100 -->
      <g transform="translate(764.866683 260.638438) scale(0.1 -0.1)">
       <use xlink:href="#DejaVuSans-31"/>
       <use xlink:href="#DejaVuSans-31" x="63.623047"/>
       <use xlink:href="#DejaVuSans-30" x="127.246094"/>
       <use xlink:href="#DejaVuSans-30" x="190.869141"/>
      </g>
     </g>
    </g>
    <g id="text_24">
     <!-- Wavelength (nm) -->
     <g transform="translate(583.141274 274.316562) scale(0.1 -0.1)">
      <defs>
       <path id="DejaVuSans-57" d="M 213 4666 
L 850 4666 
L 1831 722 
L 2809 4666 
L 3519 4666 
L 4500 722 
L 5478 4666 
L 6119 4666 
L 4947 0 
L 4153 0 
L 3169 4050 
L 2175 0 
L 1381 0 
L 213 4666 
z
" transform="scale(0.015625)"/>
       <path id="DejaVuSans-76" d="M 191 3500 
L 800 3500 
L 1894 563 
L 2988 3500 
L 3597 3500 
L 2284 0 
L 1503 0 
L 191 3500 
z
" transform="scale(0.015625)"/>
       <path id="DejaVuSans-6c" d="M 603 4863 
L 1178 4863 
L 1178 0 
L 603 0 
L 603 4863 
z
" transform="scale(0.015625)"/>
       <path id="DejaVuSans-67" d="M 2906 1791 
Q 2906 2416 2648 2759 
Q 2391 3103 1925 3103 
Q 1463 3103 1205 2759 
Q 947 2416 947 1791 
Q 947 1169 1205 825 
Q 1463 481 1925 481 
Q 2391 481 2648 825 
Q 2906 1169 2906 1791 
z
M 3481 434 
Q 3481 -459 3084 -895 
Q 2688 -1331 1869 -1331 
Q 1566 -1331 1297 -1286 
Q 1028 -1241 775 -1147 
L 775 -588 
Q 1028 -725 1275 -790 
Q 1522 -856 1778 -856 
Q 2344 -856 2625 -561 
Q 2906 -266 2906 331 
L 2906 616 
Q 2728 306 2450 153 
Q 2172 0 1784 0 
Q 1141 0 747 490 
Q 353 981 353 1791 
Q 353 2603 747 3093 
Q 1141 3584 1784 3584 
Q 2172 3584 2450 3431 
Q 2728 3278 2906 2969 
L 2906 3500 
L 3481 3500 
L 3481 434 
z
" transform="scale(0.015625)"/>
       <path id="DejaVuSans-68" d="M 3513 2113 
L 3513 0 
L 2938 0 
L 2938 2094 
Q 2938 2591 2744 2837 
Q 2550 3084 2163 3084 
Q 1697 3084 1428 2787 
Q 1159 2491 1159 1978 
L 1159 0 
L 581 0 
L 581 4863 
L 1159 4863 
L 1159 2956 
Q 1366 3272 1645 3428 
Q 1925 3584 2291 3584 
Q 2894 3584 3203 3211 
Q 3513 2838 3513 2113 
z
" transform="scale(0.015625)"/>
      </defs>
      <use xlink:href="#DejaVuSans-57"/>
      <use xlink:href="#DejaVuSans-61" x="92.501953"/>
      <use xlink:href="#DejaVuSans-76" x="153.78125"/>
      <use xlink:href="#DejaVuSans-65" x="212.960938"/>
      <use xlink:href="#DejaVuSans-6c" x="274.484375"/>
      <use xlink:href="#DejaVuSans-65" x="302.267578"/>
      <use xlink:href="#DejaVuSans-6e" x="363.791016"/>
      <use xlink:href="#DejaVuSans-67" x="427.169922"/>
      <use xlink:href="#DejaVuSans-74" x="490.646484"/>
      <use xlink:href="#DejaVuSans-68" x="529.855469"/>
      <use xlink:href="#DejaVuSans-20" x="593.234375"/>
      <use xlink:href="#DejaVuSans-28" x="625.021484"/>
      <use xlink:href="#DejaVuSans-6e" x="664.035156"/>
      <use xlink:href="#DejaVuSans-6d" x="727.414062"/>
      <use xlink:href="#DejaVuSans-29" x="824.826172"/>
     </g>
    </g>
   </g>
   <g id="matplotlib.axis_4">
    <g id="ytick_9">
     <g id="line2d_26">
      <g>
       <use xlink:href="#m41fe814b3a" x="453.466922" y="246.04" style="stroke: #000000; stroke-width: 0.8"/>
      </g>
     </g>
     <g id="text_25">
      <!-- 0.0 -->
      <g transform="translate(430.563797 249.839219) scale(0.1 -0.1)">
       <defs>
        <path id="DejaVuSans-2e" d="M 684 794 
L 1344 794 
L 1344 0 
L 684 0 
L 684 794 
z
" transform="scale(0.015625)"/>
       </defs>
       <use xlink:href="#DejaVuSans-30"/>
       <use xlink:href="#DejaVuSans-2e" x="63.623047"/>
       <use xlink:href="#DejaVuSans-30" x="95.410156"/>
      </g>
     </g>
    </g>
    <g id="ytick_10">
     <g id="line2d_27">
      <g>
       <use xlink:href="#m41fe814b3a" x="453.466922" y="203.269091" style="stroke: #000000; stroke-width: 0.8"/>
      </g>
     </g>
     <g id="text_26">
      <!-- 0.2 -->
      <g transform="translate(430.563797 207.06831) scale(0.1 -0.1)">
       <use xlink:href="#DejaVuSans-30"/>
       <use xlink:href="#DejaVuSans-2e" x="63.623047"/>
       <use xlink:href="#DejaVuSans-32" x="95.410156"/>
      </g>
     </g>
    </g>
    <g id="ytick_11">
     <g id="line2d_28">
      <g>
       <use xlink:href="#m41fe814b3a" x="453.466922" y="160.498182" style="stroke: #000000; stroke-width: 0.8"/>
      </g>
     </g>
     <g id="text_27">
      <!-- 0.4 -->
      <g transform="translate(430.563797 164.297401) scale(0.1 -0.1)">
       <use xlink:href="#DejaVuSans-30"/>
       <use xlink:href="#DejaVuSans-2e" x="63.623047"/>
       <use xlink:href="#DejaVuSans-34" x="95.410156"/>
      </g>
     </g>
    </g>
    <g id="ytick_12">
     <g id="line2d_29">
      <g>
       <use xlink:href="#m41fe814b3a" x="453.466922" y="117.727273" style="stroke: #000000; stroke-width: 0.8"/>
      </g>
     </g>
     <g id="text_28">
      <!-- 0.6 -->
      <g transform="translate(430.563797 121.526491) scale(0.1 -0.1)">
       <use xlink:href="#DejaVuSans-30"/>
       <use xlink:href="#DejaVuSans-2e" x="63.623047"/>
       <use xlink:href="#DejaVuSans-36" x="95.410156"/>
      </g>
     </g>
    </g>
    <g id="ytick_13">
     <g id="line2d_30">
      <g>
       <use xlink:href="#m41fe814b3a" x="453.466922" y="74.956364" style="stroke: #000000; stroke-width: 0.8"/>
      </g>
     </g>
     <g id="text_29">
      <!-- 0.8 -->
      <g transform="translate(430.563797 78.755582) scale(0.1 -0.1)">
       <use xlink:href="#DejaVuSans-30"/>
       <use xlink:href="#DejaVuSans-2e" x="63.623047"/>
       <use xlink:href="#DejaVuSans-38" x="95.410156"/>
      </g>
     </g>
    </g>
    <g id="ytick_14">
     <g id="line2d_31">
      <g>
       <use xlink:href="#m41fe814b3a" x="453.466922" y="32.185455" style="stroke: #000000; stroke-width: 0.8"/>
      </g>
     </g>
     <g id="text_30">
      <!-- 1.0 -->
      <g transform="translate(430.563797 35.984673) scale(0.1 -0.1)">
       <use xlink:href="#DejaVuSans-31"/>
       <use xlink:href="#DejaVuSans-2e" x="63.623047"/>
       <use xlink:href="#DejaVuSans-30" x="95.410156"/>
      </g>
     </g>
    </g>
    <g id="text_31">
     <!-- EQE -->
     <g transform="translate(424.48411 138.674688) rotate(-90) scale(0.1 -0.1)">
      <defs>
       <path id="DejaVuSans-45" d="M 628 4666 
L 3578 4666 
L 3578 4134 
L 1259 4134 
L 1259 2753 
L 3481 2753 
L 3481 2222 
L 1259 2222 
L 1259 531 
L 3634 531 
L 3634 0 
L 628 0 
L 628 4666 
z
" transform="scale(0.015625)"/>
       <path id="DejaVuSans-51" d="M 2522 4238 
Q 1834 4238 1429 3725 
Q 1025 3213 1025 2328 
Q 1025 1447 1429 934 
Q 1834 422 2522 422 
Q 3209 422 3611 934 
Q 4013 1447 4013 2328 
Q 4013 3213 3611 3725 
Q 3209 4238 2522 4238 
z
M 3406 84 
L 4238 -825 
L 3475 -825 
L 2784 -78 
Q 2681 -84 2626 -87 
Q 2572 -91 2522 -91 
Q 1538 -91 948 567 
Q 359 1225 359 2328 
Q 359 3434 948 4092 
Q 1538 4750 2522 4750 
Q 3503 4750 4090 4092 
Q 4678 3434 4678 2328 
Q 4678 1516 4351 937 
Q 4025 359 3406 84 
z
" transform="scale(0.015625)"/>
      </defs>
      <use xlink:href="#DejaVuSans-45"/>
      <use xlink:href="#DejaVuSans-51" x="63.183594"/>
      <use xlink:href="#DejaVuSans-45" x="141.894531"/>
     </g>
    </g>
   </g>
   <g id="line2d_32">
    <path d="M 453.466922 250.266713 
L 456.492087 250.534593 
L 464.559192 250.908101 
L 469.601133 251.172025 
L 474.643073 251.947586 
L 481.70179 253.277322 
L 485.735343 254.218386 
L 486.743731 254.483053 
L 488.760507 255.315675 
L 491.785672 256.78488 
L 493.802448 257.842297 
L 497.836001 259.056996 
L 501.869553 259.729725 
L 505.903106 260.116342 
L 509.936658 260.242819 
L 514.978599 260.131217 
L 521.028928 259.717001 
L 527.079257 259.071263 
L 535.146362 257.959769 
L 542.205079 256.782653 
L 549.263796 255.437403 
L 567.414782 251.603926 
L 572.456723 250.329798 
L 587.582545 246.055306 
L 594.641262 243.779444 
L 599.683203 241.997751 
L 603.716756 240.200258 
L 612.792249 235.939703 
L 620.859354 232.221924 
L 624.892907 230.569681 
L 627.918071 229.47015 
L 638.001952 226.473373 
L 643.043893 225.023911 
L 646.069058 223.97377 
L 649.094222 223.019648 
L 652.119386 221.86942 
L 656.152939 220.173386 
L 660.186492 218.516572 
L 661.19488 216.424449 
L 663.211656 215.945812 
L 665.228432 215.714099 
L 667.245209 215.797673 
L 669.261985 216.280805 
L 670.270373 216.703023 
L 672.287149 217.943343 
L 673.295538 218.738208 
L 674.303926 219.688599 
L 675.312314 220.809672 
L 676.320702 222.117868 
L 677.32909 223.630899 
L 678.337478 225.36781 
L 679.345866 227.349518 
L 680.354255 229.598254 
L 681.362643 232.138378 
L 682.371031 234.996111 
L 683.379419 238.199606 
L 684.387807 241.779212 
L 685.396195 243.971607 
L 698.505241 246.110097 
L 700.522017 246.21385 
L 716.656228 246.221992 
L 717.664616 246.043102 
L 718.673004 246.204268 
L 719.681392 246.78512 
L 720.68978 246.252356 
L 721.698168 246.045316 
L 742.874319 246.04 
L 755.983365 246.04 
L 755.983365 246.04 
" clip-path="url(#pbf22e62310)" style="fill: none; stroke: #0000ff; stroke-width: 1.5; stroke-linecap: square"/>
   </g>
   <g id="line2d_33">
    <path d="M 453.466922 112.448078 
L 455.483699 115.675317 
L 457.500475 117.085306 
L 458.508863 117.334644 
L 459.517251 117.415893 
L 460.525639 117.192917 
L 461.534027 116.74053 
L 462.542416 116.07403 
L 463.550804 115.161372 
L 465.56758 112.941576 
L 467.584356 110.208178 
L 469.601133 107.04156 
L 471.617909 102.042535 
L 473.634685 96.546328 
L 476.65985 88.230988 
L 480.693402 77.555631 
L 482.710178 72.913074 
L 486.743731 64.085722 
L 490.777284 53.493983 
L 492.79406 48.771161 
L 493.802448 46.74222 
L 495.819224 43.860182 
L 496.827612 42.586864 
L 498.844389 40.567821 
L 500.861165 38.912502 
L 502.877941 37.665735 
L 504.894718 36.675652 
L 506.911494 35.961133 
L 508.92827 35.426403 
L 511.953435 34.929574 
L 514.978599 34.719732 
L 518.003763 34.696407 
L 523.045704 34.931706 
L 530.104421 35.526367 
L 539.179914 36.312589 
L 546.238631 36.711073 
L 554.305737 36.912537 
L 562.372842 36.876249 
L 571.448335 36.551987 
L 591.616098 35.633423 
L 602.708367 35.333131 
L 608.758696 35.379378 
L 612.792249 35.565566 
L 616.825801 35.97731 
L 623.884518 36.895926 
L 632.960012 38.597893 
L 639.010341 39.885219 
L 644.052281 40.721403 
L 648.085834 41.522842 
L 652.119386 43.146471 
L 656.152939 45.111731 
L 659.178103 46.750958 
L 660.186492 48.203083 
L 661.19488 50.856219 
L 663.211656 55.24297 
L 665.228432 60.643588 
L 667.245209 67.238932 
L 669.261985 75.311789 
L 671.278761 85.172969 
L 673.295538 96.271176 
L 675.312314 109.253453 
L 677.32909 124.727461 
L 679.345866 143.140799 
L 681.362643 165.017167 
L 683.379419 190.967396 
L 684.387807 205.687508 
L 685.396195 214.50748 
L 691.446524 218.226992 
L 692.454912 222.511705 
L 693.4633 212.900583 
L 694.471689 220.198493 
L 695.480077 225.607317 
L 697.496853 226.981132 
L 698.505241 227.618338 
L 699.513629 227.982996 
L 716.656228 227.293638 
L 717.664616 245.623263 
L 718.673004 228.91357 
L 719.681392 188.763791 
L 720.68978 224.650356 
L 721.698168 245.328398 
L 722.706557 246.037413 
L 755.983365 246.04 
L 755.983365 246.04 
" clip-path="url(#pbf22e62310)" style="fill: none; stroke: #000000; stroke-width: 1.5; stroke-linecap: square"/>
   </g>
   <g id="patch_8">
    <path d="M 453.466922 246.04 
L 453.466922 10.8 
" style="fill: none; stroke: #000000; stroke-width: 0.8; stroke-linejoin: miter; stroke-linecap: square"/>
   </g>
   <g id="patch_9">
    <path d="M 799.2 246.04 
L 799.2 10.8 
" style="fill: none; stroke: #000000; stroke-width: 0.8; stroke-linejoin: miter; stroke-linecap: square"/>
   </g>
   <g id="patch_10">
    <path d="M 453.466922 246.04 
L 799.2 246.04 
" style="fill: none; stroke: #000000; stroke-width: 0.8; stroke-linejoin: miter; stroke-linecap: square"/>
   </g>
   <g id="patch_11">
    <path d="M 453.466922 10.8 
L 799.2 10.8 
" style="fill: none; stroke: #000000; stroke-width: 0.8; stroke-linejoin: miter; stroke-linecap: square"/>
   </g>
   <g id="legend_1">
    <g id="line2d_34">
     <path d="M 688.190625 23.898438 
L 698.190625 23.898438 
L 708.190625 23.898438 
" style="fill: none; stroke: #0000ff; stroke-width: 1.5; stroke-linecap: square"/>
    </g>
    <g id="text_32">
     <!-- EQE GaInP -->
     <g transform="translate(716.190625 27.398438) scale(0.1 -0.1)">
      <defs>
       <path id="DejaVuSans-47" d="M 3809 666 
L 3809 1919 
L 2778 1919 
L 2778 2438 
L 4434 2438 
L 4434 434 
Q 4069 175 3628 42 
Q 3188 -91 2688 -91 
Q 1594 -91 976 548 
Q 359 1188 359 2328 
Q 359 3472 976 4111 
Q 1594 4750 2688 4750 
Q 3144 4750 3555 4637 
Q 3966 4525 4313 4306 
L 4313 3634 
Q 3963 3931 3569 4081 
Q 3175 4231 2741 4231 
Q 1884 4231 1454 3753 
Q 1025 3275 1025 2328 
Q 1025 1384 1454 906 
Q 1884 428 2741 428 
Q 3075 428 3337 486 
Q 3600 544 3809 666 
z
" transform="scale(0.015625)"/>
       <path id="DejaVuSans-49" d="M 628 4666 
L 1259 4666 
L 1259 0 
L 628 0 
L 628 4666 
z
" transform="scale(0.015625)"/>
      </defs>
      <use xlink:href="#DejaVuSans-45"/>
      <use xlink:href="#DejaVuSans-51" x="63.183594"/>
      <use xlink:href="#DejaVuSans-45" x="141.894531"/>
      <use xlink:href="#DejaVuSans-20" x="205.078125"/>
      <use xlink:href="#DejaVuSans-47" x="236.865234"/>
      <use xlink:href="#DejaVuSans-61" x="314.355469"/>
      <use xlink:href="#DejaVuSans-49" x="375.634766"/>
      <use xlink:href="#DejaVuSans-6e" x="405.126953"/>
      <use xlink:href="#DejaVuSans-50" x="468.505859"/>
     </g>
    </g>
    <g id="line2d_35">
     <path d="M 688.190625 38.576562 
L 698.190625 38.576562 
L 708.190625 38.576562 
" style="fill: none; stroke: #000000; stroke-width: 1.5; stroke-linecap: square"/>
    </g>
    <g id="text_33">
     <!-- Total Absorbed -->
     <g transform="translate(716.190625 42.076562) scale(0.1 -0.1)">
      <defs>
       <path id="DejaVuSans-54" d="M -19 4666 
L 3928 4666 
L 3928 4134 
L 2272 4134 
L 2272 0 
L 1638 0 
L 1638 4134 
L -19 4134 
L -19 4666 
z
" transform="scale(0.015625)"/>
       <path id="DejaVuSans-41" d="M 2188 4044 
L 1331 1722 
L 3047 1722 
L 2188 4044 
z
M 1831 4666 
L 2547 4666 
L 4325 0 
L 3669 0 
L 3244 1197 
L 1141 1197 
L 716 0 
L 50 0 
L 1831 4666 
z
" transform="scale(0.015625)"/>
       <path id="DejaVuSans-62" d="M 3116 1747 
Q 3116 2381 2855 2742 
Q 2594 3103 2138 3103 
Q 1681 3103 1420 2742 
Q 1159 2381 1159 1747 
Q 1159 1113 1420 752 
Q 1681 391 2138 391 
Q 2594 391 2855 752 
Q 3116 1113 3116 1747 
z
M 1159 2969 
Q 1341 3281 1617 3432 
Q 1894 3584 2278 3584 
Q 2916 3584 3314 3078 
Q 3713 2572 3713 1747 
Q 3713 922 3314 415 
Q 2916 -91 2278 -91 
Q 1894 -91 1617 61 
Q 1341 213 1159 525 
L 1159 0 
L 581 0 
L 581 4863 
L 1159 4863 
L 1159 2969 
z
" transform="scale(0.015625)"/>
      </defs>
      <use xlink:href="#DejaVuSans-54"/>
      <use xlink:href="#DejaVuSans-6f" x="44.083984"/>
      <use xlink:href="#DejaVuSans-74" x="105.265625"/>
      <use xlink:href="#DejaVuSans-61" x="144.474609"/>
      <use xlink:href="#DejaVuSans-6c" x="205.753906"/>
      <use xlink:href="#DejaVuSans-20" x="233.537109"/>
      <use xlink:href="#DejaVuSans-41" x="265.324219"/>
      <use xlink:href="#DejaVuSans-62" x="333.732422"/>
      <use xlink:href="#DejaVuSans-73" x="397.208984"/>
      <use xlink:href="#DejaVuSans-6f" x="449.308594"/>
      <use xlink:href="#DejaVuSans-72" x="510.490234"/>
      <use xlink:href="#DejaVuSans-62" x="551.603516"/>
      <use xlink:href="#DejaVuSans-65" x="615.080078"/>
      <use xlink:href="#DejaVuSans-64" x="676.603516"/>
     </g>
    </g>
   </g>
  </g>
 </g>
 <defs>
  <clipPath id="p1857848536">
   <rect x="60.013844" y="10.8" width="345.733078" height="235.24"/>
  </clipPath>
  <clipPath id="pbf22e62310">
   <rect x="453.466922" y="10.8" width="345.733078" height="235.24"/>
  </clipPath>
 </defs>
</svg>
